G04 #@! TF.FileFunction,Legend,Bot*
%FSLAX46Y46*%
G04 Gerber Fmt 4.6, Leading zero omitted, Abs format (unit mm)*
G04 Created by KiCad (PCBNEW 4.0.5+dfsg1-4) date Sat Jun 10 16:26:04 2017*
%MOMM*%
%LPD*%
G01*
G04 APERTURE LIST*
%ADD10C,0.100000*%
%ADD11C,0.150000*%
%ADD12C,0.010000*%
G04 APERTURE END LIST*
D10*
D11*
X82595239Y-96404762D02*
X82595239Y-98023810D01*
X82500000Y-98214286D01*
X82404762Y-98309524D01*
X82214286Y-98404762D01*
X81833334Y-98404762D01*
X81642858Y-98309524D01*
X81547619Y-98214286D01*
X81452381Y-98023810D01*
X81452381Y-96404762D01*
X80595239Y-98309524D02*
X80309524Y-98404762D01*
X79833334Y-98404762D01*
X79642858Y-98309524D01*
X79547620Y-98214286D01*
X79452381Y-98023810D01*
X79452381Y-97833333D01*
X79547620Y-97642857D01*
X79642858Y-97547619D01*
X79833334Y-97452381D01*
X80214286Y-97357143D01*
X80404762Y-97261905D01*
X80500001Y-97166667D01*
X80595239Y-96976190D01*
X80595239Y-96785714D01*
X80500001Y-96595238D01*
X80404762Y-96500000D01*
X80214286Y-96404762D01*
X79738096Y-96404762D01*
X79452381Y-96500000D01*
X77928572Y-97357143D02*
X77642858Y-97452381D01*
X77547619Y-97547619D01*
X77452381Y-97738095D01*
X77452381Y-98023810D01*
X77547619Y-98214286D01*
X77642858Y-98309524D01*
X77833334Y-98404762D01*
X78595239Y-98404762D01*
X78595239Y-96404762D01*
X77928572Y-96404762D01*
X77738096Y-96500000D01*
X77642858Y-96595238D01*
X77547619Y-96785714D01*
X77547619Y-96976190D01*
X77642858Y-97166667D01*
X77738096Y-97261905D01*
X77928572Y-97357143D01*
X78595239Y-97357143D01*
X75738096Y-98309524D02*
X75928572Y-98404762D01*
X76309524Y-98404762D01*
X76500000Y-98309524D01*
X76595239Y-98214286D01*
X76690477Y-98023810D01*
X76690477Y-97452381D01*
X76595239Y-97261905D01*
X76500000Y-97166667D01*
X76309524Y-97071429D01*
X75928572Y-97071429D01*
X75738096Y-97166667D01*
X74023810Y-98404762D02*
X74023810Y-97357143D01*
X74119048Y-97166667D01*
X74309524Y-97071429D01*
X74690476Y-97071429D01*
X74880953Y-97166667D01*
X74023810Y-98309524D02*
X74214286Y-98404762D01*
X74690476Y-98404762D01*
X74880953Y-98309524D01*
X74976191Y-98119048D01*
X74976191Y-97928571D01*
X74880953Y-97738095D01*
X74690476Y-97642857D01*
X74214286Y-97642857D01*
X74023810Y-97547619D01*
X73071429Y-98404762D02*
X73071429Y-96404762D01*
X73071429Y-97166667D02*
X72880952Y-97071429D01*
X72500000Y-97071429D01*
X72309524Y-97166667D01*
X72214286Y-97261905D01*
X72119048Y-97452381D01*
X72119048Y-98023810D01*
X72214286Y-98214286D01*
X72309524Y-98309524D01*
X72500000Y-98404762D01*
X72880952Y-98404762D01*
X73071429Y-98309524D01*
X70976190Y-98404762D02*
X71166666Y-98309524D01*
X71261905Y-98119048D01*
X71261905Y-96404762D01*
X69452381Y-98309524D02*
X69642857Y-98404762D01*
X70023809Y-98404762D01*
X70214286Y-98309524D01*
X70309524Y-98119048D01*
X70309524Y-97357143D01*
X70214286Y-97166667D01*
X70023809Y-97071429D01*
X69642857Y-97071429D01*
X69452381Y-97166667D01*
X69357143Y-97357143D01*
X69357143Y-97547619D01*
X70309524Y-97738095D01*
X67642857Y-98309524D02*
X67833333Y-98404762D01*
X68214285Y-98404762D01*
X68404761Y-98309524D01*
X68500000Y-98214286D01*
X68595238Y-98023810D01*
X68595238Y-97452381D01*
X68500000Y-97261905D01*
X68404761Y-97166667D01*
X68214285Y-97071429D01*
X67833333Y-97071429D01*
X67642857Y-97166667D01*
X66785714Y-98404762D02*
X66785714Y-97071429D01*
X66785714Y-97452381D02*
X66690475Y-97261905D01*
X66595237Y-97166667D01*
X66404761Y-97071429D01*
X66214285Y-97071429D01*
X64690476Y-98404762D02*
X64690476Y-97357143D01*
X64785714Y-97166667D01*
X64976190Y-97071429D01*
X65357142Y-97071429D01*
X65547619Y-97166667D01*
X64690476Y-98309524D02*
X64880952Y-98404762D01*
X65357142Y-98404762D01*
X65547619Y-98309524D01*
X65642857Y-98119048D01*
X65642857Y-97928571D01*
X65547619Y-97738095D01*
X65357142Y-97642857D01*
X64880952Y-97642857D01*
X64690476Y-97547619D01*
X62880952Y-98309524D02*
X63071428Y-98404762D01*
X63452380Y-98404762D01*
X63642856Y-98309524D01*
X63738095Y-98214286D01*
X63833333Y-98023810D01*
X63833333Y-97452381D01*
X63738095Y-97261905D01*
X63642856Y-97166667D01*
X63452380Y-97071429D01*
X63071428Y-97071429D01*
X62880952Y-97166667D01*
X62023809Y-98404762D02*
X62023809Y-96404762D01*
X61833332Y-97642857D02*
X61261904Y-98404762D01*
X61261904Y-97071429D02*
X62023809Y-97833333D01*
X59642856Y-98309524D02*
X59833332Y-98404762D01*
X60214284Y-98404762D01*
X60404761Y-98309524D01*
X60499999Y-98119048D01*
X60499999Y-97357143D01*
X60404761Y-97166667D01*
X60214284Y-97071429D01*
X59833332Y-97071429D01*
X59642856Y-97166667D01*
X59547618Y-97357143D01*
X59547618Y-97547619D01*
X60499999Y-97738095D01*
X58690475Y-98404762D02*
X58690475Y-97071429D01*
X58690475Y-97452381D02*
X58595236Y-97261905D01*
X58499998Y-97166667D01*
X58309522Y-97071429D01*
X58119046Y-97071429D01*
X56223809Y-97452381D02*
X55890476Y-98452381D01*
X55557142Y-97452381D01*
X54699999Y-98452381D02*
X55271428Y-98452381D01*
X54985714Y-98452381D02*
X54985714Y-97452381D01*
X55080952Y-97595238D01*
X55176190Y-97690476D01*
X55271428Y-97738095D01*
X54271428Y-98357143D02*
X54223809Y-98404762D01*
X54271428Y-98452381D01*
X54319047Y-98404762D01*
X54271428Y-98357143D01*
X54271428Y-98452381D01*
X53604762Y-97452381D02*
X53509523Y-97452381D01*
X53414285Y-97500000D01*
X53366666Y-97547619D01*
X53319047Y-97642857D01*
X53271428Y-97833333D01*
X53271428Y-98071429D01*
X53319047Y-98261905D01*
X53366666Y-98357143D01*
X53414285Y-98404762D01*
X53509523Y-98452381D01*
X53604762Y-98452381D01*
X53700000Y-98404762D01*
X53747619Y-98357143D01*
X53795238Y-98261905D01*
X53842857Y-98071429D01*
X53842857Y-97833333D01*
X53795238Y-97642857D01*
X53747619Y-97547619D01*
X53700000Y-97500000D01*
X53604762Y-97452381D01*
X144214286Y-65952381D02*
X144214286Y-64952381D01*
X143976191Y-64952381D01*
X143833333Y-65000000D01*
X143738095Y-65095238D01*
X143690476Y-65190476D01*
X143642857Y-65380952D01*
X143642857Y-65523810D01*
X143690476Y-65714286D01*
X143738095Y-65809524D01*
X143833333Y-65904762D01*
X143976191Y-65952381D01*
X144214286Y-65952381D01*
X142690476Y-65952381D02*
X143261905Y-65952381D01*
X142976191Y-65952381D02*
X142976191Y-64952381D01*
X143071429Y-65095238D01*
X143166667Y-65190476D01*
X143261905Y-65238095D01*
X142357143Y-64952381D02*
X141738095Y-64952381D01*
X142071429Y-65333333D01*
X141928571Y-65333333D01*
X141833333Y-65380952D01*
X141785714Y-65428571D01*
X141738095Y-65523810D01*
X141738095Y-65761905D01*
X141785714Y-65857143D01*
X141833333Y-65904762D01*
X141928571Y-65952381D01*
X142214286Y-65952381D01*
X142309524Y-65904762D01*
X142357143Y-65857143D01*
X143161905Y-72152381D02*
X142590476Y-72152381D01*
X142876191Y-73152381D02*
X142876191Y-72152381D01*
X142352381Y-72152381D02*
X141685714Y-73152381D01*
X141685714Y-72152381D02*
X142352381Y-73152381D01*
X142766666Y-80152381D02*
X143100000Y-79676190D01*
X143338095Y-80152381D02*
X143338095Y-79152381D01*
X142957142Y-79152381D01*
X142861904Y-79200000D01*
X142814285Y-79247619D01*
X142766666Y-79342857D01*
X142766666Y-79485714D01*
X142814285Y-79580952D01*
X142861904Y-79628571D01*
X142957142Y-79676190D01*
X143338095Y-79676190D01*
X142433333Y-79152381D02*
X141766666Y-80152381D01*
X141766666Y-79152381D02*
X142433333Y-80152381D01*
X144633333Y-57952381D02*
X144633333Y-56952381D01*
X144252380Y-56952381D01*
X144157142Y-57000000D01*
X144109523Y-57047619D01*
X144061904Y-57142857D01*
X144061904Y-57285714D01*
X144109523Y-57380952D01*
X144157142Y-57428571D01*
X144252380Y-57476190D01*
X144633333Y-57476190D01*
X143728571Y-56952381D02*
X143490476Y-57952381D01*
X143299999Y-57238095D01*
X143109523Y-57952381D01*
X142871428Y-56952381D01*
X141919047Y-57952381D02*
X142252381Y-57476190D01*
X142490476Y-57952381D02*
X142490476Y-56952381D01*
X142109523Y-56952381D01*
X142014285Y-57000000D01*
X141966666Y-57047619D01*
X141919047Y-57142857D01*
X141919047Y-57285714D01*
X141966666Y-57380952D01*
X142014285Y-57428571D01*
X142109523Y-57476190D01*
X142490476Y-57476190D01*
X115950000Y-82600000D02*
X115250000Y-82600000D01*
X115250000Y-83800000D02*
X115950000Y-83800000D01*
X69200000Y-77150000D02*
X68200000Y-77150000D01*
X68200000Y-78500000D02*
X69200000Y-78500000D01*
X68200000Y-80450000D02*
X69200000Y-80450000D01*
X69200000Y-79100000D02*
X68200000Y-79100000D01*
X127169496Y-54541946D02*
X126469496Y-54541946D01*
X126469496Y-55741946D02*
X127169496Y-55741946D01*
X111500000Y-86450000D02*
X111500000Y-87150000D01*
X112700000Y-87150000D02*
X112700000Y-86450000D01*
X111100000Y-88550000D02*
X111100000Y-87850000D01*
X109900000Y-87850000D02*
X109900000Y-88550000D01*
X98800000Y-74350000D02*
X98800000Y-73650000D01*
X97600000Y-73650000D02*
X97600000Y-74350000D01*
X124819496Y-58791946D02*
X124819496Y-58091946D01*
X123619496Y-58091946D02*
X123619496Y-58791946D01*
X113100000Y-68950000D02*
X113100000Y-69650000D01*
X114300000Y-69650000D02*
X114300000Y-68950000D01*
X132900000Y-61100000D02*
X133600000Y-61100000D01*
X133600000Y-59900000D02*
X132900000Y-59900000D01*
X140750000Y-78525000D02*
X140750000Y-80425000D01*
X139650000Y-78525000D02*
X139650000Y-80425000D01*
X140200000Y-79425000D02*
X140200000Y-79875000D01*
X139950000Y-79375000D02*
X140450000Y-79375000D01*
X140200000Y-79375000D02*
X139950000Y-79625000D01*
X139950000Y-79625000D02*
X140450000Y-79625000D01*
X140450000Y-79625000D02*
X140200000Y-79375000D01*
X140797767Y-71586035D02*
X140797767Y-73486035D01*
X139697767Y-71586035D02*
X139697767Y-73486035D01*
X140247767Y-72486035D02*
X140247767Y-72936035D01*
X139997767Y-72436035D02*
X140497767Y-72436035D01*
X140247767Y-72436035D02*
X139997767Y-72686035D01*
X139997767Y-72686035D02*
X140497767Y-72686035D01*
X140497767Y-72686035D02*
X140247767Y-72436035D01*
X140897767Y-64286035D02*
X140897767Y-66186035D01*
X139797767Y-64286035D02*
X139797767Y-66186035D01*
X140347767Y-65186035D02*
X140347767Y-65636035D01*
X140097767Y-65136035D02*
X140597767Y-65136035D01*
X140347767Y-65136035D02*
X140097767Y-65386035D01*
X140097767Y-65386035D02*
X140597767Y-65386035D01*
X140597767Y-65386035D02*
X140347767Y-65136035D01*
X140997767Y-56486035D02*
X140997767Y-58386035D01*
X139897767Y-56486035D02*
X139897767Y-58386035D01*
X140447767Y-57386035D02*
X140447767Y-57836035D01*
X140197767Y-57336035D02*
X140697767Y-57336035D01*
X140447767Y-57336035D02*
X140197767Y-57586035D01*
X140197767Y-57586035D02*
X140697767Y-57586035D01*
X140697767Y-57586035D02*
X140447767Y-57336035D01*
X130725000Y-94700000D02*
X130725000Y-95700000D01*
X132075000Y-95700000D02*
X132075000Y-94700000D01*
X139122767Y-80586035D02*
X139122767Y-79586035D01*
X137772767Y-79586035D02*
X137772767Y-80586035D01*
X137772767Y-72186035D02*
X137772767Y-73186035D01*
X139122767Y-73186035D02*
X139122767Y-72186035D01*
X137772767Y-64986035D02*
X137772767Y-65986035D01*
X139122767Y-65986035D02*
X139122767Y-64986035D01*
X137872767Y-56986035D02*
X137872767Y-57986035D01*
X139222767Y-57986035D02*
X139222767Y-56986035D01*
X141630000Y-76955000D02*
X142630000Y-76955000D01*
X142630000Y-75605000D02*
X141630000Y-75605000D01*
X107525000Y-64900000D02*
X107525000Y-65900000D01*
X108875000Y-65900000D02*
X108875000Y-64900000D01*
X105925000Y-64900000D02*
X105925000Y-65900000D01*
X107275000Y-65900000D02*
X107275000Y-64900000D01*
X133900000Y-54625000D02*
X132900000Y-54625000D01*
X132900000Y-55975000D02*
X133900000Y-55975000D01*
X113540000Y-55765000D02*
X112540000Y-55765000D01*
X112540000Y-57115000D02*
X113540000Y-57115000D01*
X107300000Y-85475000D02*
X108300000Y-85475000D01*
X108300000Y-84125000D02*
X107300000Y-84125000D01*
X108300000Y-82225000D02*
X107300000Y-82225000D01*
X107300000Y-83575000D02*
X108300000Y-83575000D01*
X105625000Y-87700000D02*
X105625000Y-88700000D01*
X106975000Y-88700000D02*
X106975000Y-87700000D01*
X107725000Y-87700000D02*
X107725000Y-88700000D01*
X109075000Y-88700000D02*
X109075000Y-87700000D01*
X94700000Y-75575000D02*
X95700000Y-75575000D01*
X95700000Y-74225000D02*
X94700000Y-74225000D01*
X94600000Y-73675000D02*
X95600000Y-73675000D01*
X95600000Y-72325000D02*
X94600000Y-72325000D01*
X103300000Y-79075000D02*
X104300000Y-79075000D01*
X104300000Y-77725000D02*
X103300000Y-77725000D01*
X122025000Y-77475000D02*
X122025000Y-76900000D01*
X132375000Y-77475000D02*
X132375000Y-76800000D01*
X132375000Y-67125000D02*
X132375000Y-67800000D01*
X122025000Y-67125000D02*
X122025000Y-67800000D01*
X122025000Y-77475000D02*
X122700000Y-77475000D01*
X122025000Y-67125000D02*
X122700000Y-67125000D01*
X132375000Y-67125000D02*
X131700000Y-67125000D01*
X132375000Y-77475000D02*
X131700000Y-77475000D01*
X122025000Y-76900000D02*
X120750000Y-76900000D01*
X115075000Y-90025000D02*
X115075000Y-89975000D01*
X119225000Y-90025000D02*
X119225000Y-89880000D01*
X119225000Y-84875000D02*
X119225000Y-85020000D01*
X115075000Y-84875000D02*
X115075000Y-85020000D01*
X115075000Y-90025000D02*
X119225000Y-90025000D01*
X115075000Y-84875000D02*
X119225000Y-84875000D01*
X115075000Y-89975000D02*
X113675000Y-89975000D01*
X125719496Y-56841946D02*
X125719496Y-60041946D01*
X125719496Y-60041946D02*
X128319496Y-60041946D01*
X128319496Y-60041946D02*
X128319496Y-56841946D01*
X128319496Y-56841946D02*
X125719496Y-56841946D01*
X136050000Y-57050000D02*
X131600000Y-57050000D01*
X136050000Y-59150000D02*
X131600000Y-59150000D01*
X136050000Y-57050000D02*
X136050000Y-59150000D01*
X116320000Y-81980000D02*
X117020000Y-81980000D01*
X117020000Y-80780000D02*
X116320000Y-80780000D01*
X103850000Y-71000000D02*
X104550000Y-71000000D01*
X104550000Y-69800000D02*
X103850000Y-69800000D01*
X135880000Y-77210000D02*
X135180000Y-77210000D01*
X135180000Y-78410000D02*
X135880000Y-78410000D01*
X101725000Y-76775000D02*
X101725000Y-76725000D01*
X105875000Y-76775000D02*
X105875000Y-76630000D01*
X105875000Y-71625000D02*
X105875000Y-71770000D01*
X101725000Y-71625000D02*
X101725000Y-71770000D01*
X101725000Y-76775000D02*
X105875000Y-76775000D01*
X101725000Y-71625000D02*
X105875000Y-71625000D01*
X101725000Y-76725000D02*
X100325000Y-76725000D01*
X122425000Y-86500000D02*
X122425000Y-87500000D01*
X123775000Y-87500000D02*
X123775000Y-86500000D01*
X111975000Y-80400000D02*
X111975000Y-79400000D01*
X110625000Y-79400000D02*
X110625000Y-80400000D01*
X109300000Y-77375000D02*
X110300000Y-77375000D01*
X110300000Y-76025000D02*
X109300000Y-76025000D01*
X111300000Y-84350000D02*
X111300000Y-83650000D01*
X110100000Y-83650000D02*
X110100000Y-84350000D01*
D12*
G36*
X76229275Y-64595594D02*
X76091622Y-64626458D01*
X75842662Y-64664793D01*
X75575820Y-64697730D01*
X75277415Y-64737513D01*
X75108618Y-64785402D01*
X75029956Y-64858722D01*
X75005278Y-64948167D01*
X74939432Y-65097108D01*
X74860090Y-65138667D01*
X74764031Y-65166246D01*
X74689716Y-65262669D01*
X74632659Y-65448462D01*
X74588378Y-65744154D01*
X74552387Y-66170272D01*
X74523522Y-66679304D01*
X74461981Y-67923609D01*
X74239157Y-67968971D01*
X74086930Y-67995589D01*
X73822601Y-68037791D01*
X73487784Y-68089362D01*
X73124095Y-68144087D01*
X72773146Y-68195752D01*
X72476551Y-68238142D01*
X72275926Y-68265043D01*
X72214432Y-68271333D01*
X72203630Y-68193294D01*
X72205612Y-67984601D01*
X72219604Y-67683390D01*
X72229428Y-67530500D01*
X72259258Y-67081650D01*
X72291827Y-66562103D01*
X72320998Y-66070261D01*
X72326138Y-65979346D01*
X72359607Y-65380721D01*
X72134109Y-65380721D01*
X72081371Y-66127527D01*
X72050086Y-66576216D01*
X72014377Y-67096935D01*
X71980879Y-67592741D01*
X71973917Y-67697105D01*
X71919201Y-68519877D01*
X71570767Y-68598205D01*
X71269313Y-68665104D01*
X71076275Y-68685816D01*
X70970350Y-68635008D01*
X70930236Y-68487349D01*
X70934631Y-68217505D01*
X70957716Y-67869167D01*
X71003189Y-67185291D01*
X71039618Y-66651445D01*
X71069736Y-66248734D01*
X71096274Y-65958265D01*
X71121964Y-65761144D01*
X71149536Y-65638477D01*
X71181724Y-65571369D01*
X71221257Y-65540927D01*
X71270868Y-65528258D01*
X71296844Y-65523394D01*
X71499967Y-65485707D01*
X71764402Y-65440558D01*
X71805221Y-65433905D01*
X72134109Y-65380721D01*
X72359607Y-65380721D01*
X72371444Y-65169025D01*
X71881555Y-65226959D01*
X71434527Y-65285925D01*
X71131816Y-65343496D01*
X70948675Y-65407803D01*
X70860356Y-65486976D01*
X70841333Y-65568727D01*
X70777536Y-65706575D01*
X70684491Y-65731333D01*
X70629400Y-65743324D01*
X70583926Y-65791109D01*
X70545785Y-65892408D01*
X70512695Y-66064939D01*
X70482373Y-66326423D01*
X70452536Y-66694579D01*
X70420901Y-67187125D01*
X70385185Y-67821782D01*
X70363956Y-68219277D01*
X70306303Y-69310222D01*
X71264667Y-69190482D01*
X71264667Y-70216070D01*
X71784078Y-70161781D01*
X72303490Y-70107492D01*
X72252934Y-70565246D01*
X72228575Y-70832287D01*
X72200142Y-71216126D01*
X72171254Y-71664403D01*
X72146673Y-72102500D01*
X72090966Y-73182000D01*
X72333983Y-73171942D01*
X72561682Y-73150545D01*
X72864340Y-73107621D01*
X73017650Y-73081430D01*
X73319359Y-73003323D01*
X73477534Y-72900226D01*
X73508814Y-72841819D01*
X73625001Y-72683502D01*
X73714533Y-72633402D01*
X73793249Y-72581900D01*
X73847713Y-72464807D01*
X73886707Y-72248955D01*
X73919016Y-71901178D01*
X73923085Y-71845904D01*
X73955792Y-71397694D01*
X73991826Y-70910621D01*
X74023793Y-70484571D01*
X74025954Y-70456110D01*
X74075475Y-69804553D01*
X74384571Y-69778776D01*
X74601688Y-69738136D01*
X74700057Y-69643974D01*
X74720722Y-69562500D01*
X74786568Y-69413558D01*
X74865910Y-69372000D01*
X75006252Y-69296056D01*
X75113351Y-69102954D01*
X75159147Y-68844791D01*
X75159333Y-68827233D01*
X75192760Y-68662799D01*
X75323551Y-68611089D01*
X75364075Y-68610000D01*
X75663751Y-68569129D01*
X75815748Y-68446260D01*
X75836667Y-68346941D01*
X75889980Y-68214672D01*
X75958670Y-68186667D01*
X76104750Y-68132120D01*
X76135798Y-68097473D01*
X76158486Y-67988515D01*
X76187467Y-67743529D01*
X76220557Y-67394022D01*
X76255575Y-66971499D01*
X76290338Y-66507467D01*
X76322663Y-66033431D01*
X76350368Y-65580897D01*
X76371269Y-65181373D01*
X76379392Y-64966633D01*
X76123712Y-64966633D01*
X76114539Y-65193614D01*
X76097537Y-65523893D01*
X76074755Y-65924684D01*
X76048243Y-66363198D01*
X76020050Y-66806648D01*
X75992225Y-67222247D01*
X75966818Y-67577207D01*
X75945879Y-67838741D01*
X75931456Y-67974062D01*
X75928648Y-67985230D01*
X75848052Y-67999320D01*
X75646061Y-68025581D01*
X75417276Y-68052489D01*
X74913219Y-68109516D01*
X74888109Y-68634925D01*
X74863000Y-69160333D01*
X74412962Y-69215260D01*
X74154109Y-69253036D01*
X73972696Y-69291055D01*
X73922060Y-69311051D01*
X73903915Y-69404676D01*
X73878476Y-69639770D01*
X73848156Y-69988747D01*
X73815368Y-70424021D01*
X73784990Y-70878665D01*
X73688783Y-72405415D01*
X73217558Y-72486506D01*
X72955162Y-72532504D01*
X72770083Y-72566529D01*
X72713229Y-72578466D01*
X72704992Y-72503276D01*
X72705642Y-72289687D01*
X72714551Y-71968365D01*
X72731086Y-71569977D01*
X72736060Y-71467500D01*
X72761474Y-71001622D01*
X72789780Y-70553355D01*
X72817596Y-70172538D01*
X72841536Y-69909013D01*
X72842385Y-69901449D01*
X72892774Y-69457231D01*
X72375054Y-69511343D01*
X71857333Y-69565456D01*
X71857333Y-69309978D01*
X71875435Y-69023796D01*
X71907774Y-68802299D01*
X71939654Y-68680241D01*
X71999498Y-68599441D01*
X72122415Y-68543912D01*
X72343519Y-68497668D01*
X72690940Y-68445717D01*
X73086774Y-68386993D01*
X73474239Y-68325610D01*
X73781365Y-68273049D01*
X73830001Y-68264001D01*
X74142494Y-68216261D01*
X74439998Y-68189067D01*
X74523504Y-68186667D01*
X74737875Y-68157950D01*
X74872480Y-68088089D01*
X74877751Y-68080833D01*
X74904961Y-67964829D01*
X74938341Y-67709664D01*
X74974827Y-67345260D01*
X75011353Y-66901538D01*
X75038244Y-66514226D01*
X75071270Y-66034476D01*
X75104560Y-65615620D01*
X75135500Y-65286021D01*
X75161473Y-65074042D01*
X75177129Y-65007982D01*
X75285274Y-64965171D01*
X75491179Y-64921192D01*
X75735420Y-64884352D01*
X75958572Y-64862959D01*
X76101210Y-64865323D01*
X76123007Y-64875739D01*
X76123712Y-64966633D01*
X76379392Y-64966633D01*
X76383185Y-64866363D01*
X76383933Y-64667373D01*
X76377076Y-64614609D01*
X76277546Y-64583725D01*
X76229275Y-64595594D01*
X76229275Y-64595594D01*
G37*
X76229275Y-64595594D02*
X76091622Y-64626458D01*
X75842662Y-64664793D01*
X75575820Y-64697730D01*
X75277415Y-64737513D01*
X75108618Y-64785402D01*
X75029956Y-64858722D01*
X75005278Y-64948167D01*
X74939432Y-65097108D01*
X74860090Y-65138667D01*
X74764031Y-65166246D01*
X74689716Y-65262669D01*
X74632659Y-65448462D01*
X74588378Y-65744154D01*
X74552387Y-66170272D01*
X74523522Y-66679304D01*
X74461981Y-67923609D01*
X74239157Y-67968971D01*
X74086930Y-67995589D01*
X73822601Y-68037791D01*
X73487784Y-68089362D01*
X73124095Y-68144087D01*
X72773146Y-68195752D01*
X72476551Y-68238142D01*
X72275926Y-68265043D01*
X72214432Y-68271333D01*
X72203630Y-68193294D01*
X72205612Y-67984601D01*
X72219604Y-67683390D01*
X72229428Y-67530500D01*
X72259258Y-67081650D01*
X72291827Y-66562103D01*
X72320998Y-66070261D01*
X72326138Y-65979346D01*
X72359607Y-65380721D01*
X72134109Y-65380721D01*
X72081371Y-66127527D01*
X72050086Y-66576216D01*
X72014377Y-67096935D01*
X71980879Y-67592741D01*
X71973917Y-67697105D01*
X71919201Y-68519877D01*
X71570767Y-68598205D01*
X71269313Y-68665104D01*
X71076275Y-68685816D01*
X70970350Y-68635008D01*
X70930236Y-68487349D01*
X70934631Y-68217505D01*
X70957716Y-67869167D01*
X71003189Y-67185291D01*
X71039618Y-66651445D01*
X71069736Y-66248734D01*
X71096274Y-65958265D01*
X71121964Y-65761144D01*
X71149536Y-65638477D01*
X71181724Y-65571369D01*
X71221257Y-65540927D01*
X71270868Y-65528258D01*
X71296844Y-65523394D01*
X71499967Y-65485707D01*
X71764402Y-65440558D01*
X71805221Y-65433905D01*
X72134109Y-65380721D01*
X72359607Y-65380721D01*
X72371444Y-65169025D01*
X71881555Y-65226959D01*
X71434527Y-65285925D01*
X71131816Y-65343496D01*
X70948675Y-65407803D01*
X70860356Y-65486976D01*
X70841333Y-65568727D01*
X70777536Y-65706575D01*
X70684491Y-65731333D01*
X70629400Y-65743324D01*
X70583926Y-65791109D01*
X70545785Y-65892408D01*
X70512695Y-66064939D01*
X70482373Y-66326423D01*
X70452536Y-66694579D01*
X70420901Y-67187125D01*
X70385185Y-67821782D01*
X70363956Y-68219277D01*
X70306303Y-69310222D01*
X71264667Y-69190482D01*
X71264667Y-70216070D01*
X71784078Y-70161781D01*
X72303490Y-70107492D01*
X72252934Y-70565246D01*
X72228575Y-70832287D01*
X72200142Y-71216126D01*
X72171254Y-71664403D01*
X72146673Y-72102500D01*
X72090966Y-73182000D01*
X72333983Y-73171942D01*
X72561682Y-73150545D01*
X72864340Y-73107621D01*
X73017650Y-73081430D01*
X73319359Y-73003323D01*
X73477534Y-72900226D01*
X73508814Y-72841819D01*
X73625001Y-72683502D01*
X73714533Y-72633402D01*
X73793249Y-72581900D01*
X73847713Y-72464807D01*
X73886707Y-72248955D01*
X73919016Y-71901178D01*
X73923085Y-71845904D01*
X73955792Y-71397694D01*
X73991826Y-70910621D01*
X74023793Y-70484571D01*
X74025954Y-70456110D01*
X74075475Y-69804553D01*
X74384571Y-69778776D01*
X74601688Y-69738136D01*
X74700057Y-69643974D01*
X74720722Y-69562500D01*
X74786568Y-69413558D01*
X74865910Y-69372000D01*
X75006252Y-69296056D01*
X75113351Y-69102954D01*
X75159147Y-68844791D01*
X75159333Y-68827233D01*
X75192760Y-68662799D01*
X75323551Y-68611089D01*
X75364075Y-68610000D01*
X75663751Y-68569129D01*
X75815748Y-68446260D01*
X75836667Y-68346941D01*
X75889980Y-68214672D01*
X75958670Y-68186667D01*
X76104750Y-68132120D01*
X76135798Y-68097473D01*
X76158486Y-67988515D01*
X76187467Y-67743529D01*
X76220557Y-67394022D01*
X76255575Y-66971499D01*
X76290338Y-66507467D01*
X76322663Y-66033431D01*
X76350368Y-65580897D01*
X76371269Y-65181373D01*
X76379392Y-64966633D01*
X76123712Y-64966633D01*
X76114539Y-65193614D01*
X76097537Y-65523893D01*
X76074755Y-65924684D01*
X76048243Y-66363198D01*
X76020050Y-66806648D01*
X75992225Y-67222247D01*
X75966818Y-67577207D01*
X75945879Y-67838741D01*
X75931456Y-67974062D01*
X75928648Y-67985230D01*
X75848052Y-67999320D01*
X75646061Y-68025581D01*
X75417276Y-68052489D01*
X74913219Y-68109516D01*
X74888109Y-68634925D01*
X74863000Y-69160333D01*
X74412962Y-69215260D01*
X74154109Y-69253036D01*
X73972696Y-69291055D01*
X73922060Y-69311051D01*
X73903915Y-69404676D01*
X73878476Y-69639770D01*
X73848156Y-69988747D01*
X73815368Y-70424021D01*
X73784990Y-70878665D01*
X73688783Y-72405415D01*
X73217558Y-72486506D01*
X72955162Y-72532504D01*
X72770083Y-72566529D01*
X72713229Y-72578466D01*
X72704992Y-72503276D01*
X72705642Y-72289687D01*
X72714551Y-71968365D01*
X72731086Y-71569977D01*
X72736060Y-71467500D01*
X72761474Y-71001622D01*
X72789780Y-70553355D01*
X72817596Y-70172538D01*
X72841536Y-69909013D01*
X72842385Y-69901449D01*
X72892774Y-69457231D01*
X72375054Y-69511343D01*
X71857333Y-69565456D01*
X71857333Y-69309978D01*
X71875435Y-69023796D01*
X71907774Y-68802299D01*
X71939654Y-68680241D01*
X71999498Y-68599441D01*
X72122415Y-68543912D01*
X72343519Y-68497668D01*
X72690940Y-68445717D01*
X73086774Y-68386993D01*
X73474239Y-68325610D01*
X73781365Y-68273049D01*
X73830001Y-68264001D01*
X74142494Y-68216261D01*
X74439998Y-68189067D01*
X74523504Y-68186667D01*
X74737875Y-68157950D01*
X74872480Y-68088089D01*
X74877751Y-68080833D01*
X74904961Y-67964829D01*
X74938341Y-67709664D01*
X74974827Y-67345260D01*
X75011353Y-66901538D01*
X75038244Y-66514226D01*
X75071270Y-66034476D01*
X75104560Y-65615620D01*
X75135500Y-65286021D01*
X75161473Y-65074042D01*
X75177129Y-65007982D01*
X75285274Y-64965171D01*
X75491179Y-64921192D01*
X75735420Y-64884352D01*
X75958572Y-64862959D01*
X76101210Y-64865323D01*
X76123007Y-64875739D01*
X76123712Y-64966633D01*
X76379392Y-64966633D01*
X76383185Y-64866363D01*
X76383933Y-64667373D01*
X76377076Y-64614609D01*
X76277546Y-64583725D01*
X76229275Y-64595594D01*
G36*
X80514500Y-64005495D02*
X80249002Y-64041878D01*
X79908604Y-64090669D01*
X79689000Y-64123093D01*
X79350708Y-64171984D01*
X78929076Y-64230448D01*
X78508758Y-64286771D01*
X78461333Y-64292973D01*
X78013427Y-64352866D01*
X77706915Y-64400373D01*
X77515092Y-64443487D01*
X77411249Y-64490202D01*
X77368679Y-64548510D01*
X77360667Y-64622405D01*
X77289941Y-64772753D01*
X77204174Y-64821174D01*
X77071196Y-64934559D01*
X76984383Y-65196868D01*
X76942190Y-65614168D01*
X76937333Y-65869917D01*
X76937333Y-66326001D01*
X77297167Y-66269096D01*
X77612175Y-66222155D01*
X77794745Y-66214253D01*
X77879757Y-66258385D01*
X77902092Y-66367549D01*
X77898961Y-66493333D01*
X77866119Y-67227128D01*
X77828696Y-67936462D01*
X77788204Y-68601775D01*
X77746157Y-69203506D01*
X77704071Y-69722095D01*
X77663459Y-70137980D01*
X77625834Y-70431601D01*
X77592713Y-70583398D01*
X77581072Y-70600021D01*
X77433107Y-70637942D01*
X77254833Y-70678875D01*
X77066745Y-70771050D01*
X77022000Y-70897613D01*
X76961719Y-71037609D01*
X76850010Y-71065333D01*
X76694799Y-71110653D01*
X76644584Y-71171167D01*
X76612625Y-71336253D01*
X76584923Y-71589609D01*
X76563767Y-71884831D01*
X76551445Y-72175518D01*
X76550243Y-72415267D01*
X76562451Y-72557675D01*
X76575231Y-72577803D01*
X76702812Y-72557907D01*
X76852667Y-72535961D01*
X77047531Y-72507825D01*
X77340666Y-72465248D01*
X77614667Y-72425317D01*
X77976617Y-72373507D01*
X78416884Y-72311937D01*
X78845923Y-72253118D01*
X78884667Y-72247882D01*
X79331741Y-72186539D01*
X79637688Y-72139161D01*
X79829261Y-72097585D01*
X79933214Y-72053646D01*
X79976301Y-71999181D01*
X79985276Y-71926024D01*
X79985333Y-71912000D01*
X80061481Y-71755837D01*
X80197000Y-71692768D01*
X80284426Y-71667470D01*
X80345337Y-71624645D01*
X80385142Y-71536728D01*
X80409250Y-71376152D01*
X80423070Y-71115354D01*
X80432009Y-70726768D01*
X80436395Y-70472667D01*
X80422626Y-70346716D01*
X80353770Y-70281861D01*
X80196629Y-70270446D01*
X79918008Y-70304816D01*
X79794833Y-70324720D01*
X79477333Y-70377354D01*
X79478565Y-69980510D01*
X79485004Y-69774028D01*
X79502225Y-69431813D01*
X79528275Y-68986986D01*
X79561201Y-68472668D01*
X79599050Y-67921979D01*
X79604333Y-67848000D01*
X79641973Y-67319772D01*
X79675167Y-66846968D01*
X79702076Y-66456377D01*
X79720859Y-66174790D01*
X79729675Y-66028995D01*
X79730102Y-66017321D01*
X79805816Y-65945899D01*
X79993515Y-65882837D01*
X80070000Y-65868154D01*
X80297890Y-65811631D01*
X80395874Y-65722694D01*
X80408667Y-65645666D01*
X80469851Y-65503766D01*
X80567417Y-65477333D01*
X80689527Y-65418639D01*
X80771964Y-65233453D01*
X80818264Y-64908120D01*
X80832000Y-64456073D01*
X80832000Y-64190386D01*
X80586956Y-64190386D01*
X80561312Y-64683584D01*
X80535667Y-65176782D01*
X80034357Y-65263558D01*
X79764786Y-65322615D01*
X79573954Y-65387824D01*
X79510340Y-65435000D01*
X79499800Y-65540819D01*
X79482820Y-65790494D01*
X79460874Y-66158734D01*
X79435437Y-66620247D01*
X79407983Y-67149741D01*
X79394324Y-67424667D01*
X79364168Y-68020306D01*
X79333047Y-68599663D01*
X79303003Y-69127267D01*
X79276074Y-69567649D01*
X79254301Y-69885341D01*
X79248918Y-69953352D01*
X79196821Y-70577037D01*
X79730614Y-70515083D01*
X80264407Y-70453130D01*
X80209537Y-70727482D01*
X80169391Y-71003741D01*
X80154667Y-71237808D01*
X80157169Y-71326648D01*
X80148803Y-71391639D01*
X80105764Y-71440239D01*
X80004245Y-71479907D01*
X79820439Y-71518099D01*
X79530539Y-71562273D01*
X79110740Y-71619887D01*
X78800000Y-71662175D01*
X78418919Y-71716761D01*
X78057898Y-71772601D01*
X77783575Y-71819297D01*
X77741667Y-71827274D01*
X77412022Y-71889017D01*
X77218060Y-71900183D01*
X77128813Y-71840237D01*
X77113316Y-71688644D01*
X77140190Y-71428404D01*
X77187258Y-71154903D01*
X77249457Y-70953575D01*
X77295965Y-70883661D01*
X77434324Y-70836438D01*
X77671674Y-70786752D01*
X77801118Y-70766646D01*
X78050557Y-70720389D01*
X78172356Y-70655376D01*
X78208115Y-70547265D01*
X78208618Y-70528222D01*
X78214731Y-70391300D01*
X78231067Y-70113602D01*
X78255831Y-69723257D01*
X78287225Y-69248393D01*
X78323454Y-68717140D01*
X78333832Y-68567667D01*
X78372161Y-67987559D01*
X78405857Y-67419967D01*
X78432945Y-66902895D01*
X78451451Y-66474347D01*
X78459400Y-66172328D01*
X78459548Y-66147701D01*
X78461333Y-65505735D01*
X77995667Y-65544352D01*
X77530000Y-65582968D01*
X77531156Y-65254984D01*
X77535042Y-64990940D01*
X77561795Y-64804255D01*
X77637324Y-64676391D01*
X77787541Y-64588810D01*
X78038356Y-64522973D01*
X78415677Y-64460341D01*
X78700192Y-64418544D01*
X79151135Y-64354530D01*
X79581467Y-64296791D01*
X79941952Y-64251730D01*
X80180312Y-64226017D01*
X80586956Y-64190386D01*
X80832000Y-64190386D01*
X80832000Y-63963979D01*
X80514500Y-64005495D01*
X80514500Y-64005495D01*
G37*
X80514500Y-64005495D02*
X80249002Y-64041878D01*
X79908604Y-64090669D01*
X79689000Y-64123093D01*
X79350708Y-64171984D01*
X78929076Y-64230448D01*
X78508758Y-64286771D01*
X78461333Y-64292973D01*
X78013427Y-64352866D01*
X77706915Y-64400373D01*
X77515092Y-64443487D01*
X77411249Y-64490202D01*
X77368679Y-64548510D01*
X77360667Y-64622405D01*
X77289941Y-64772753D01*
X77204174Y-64821174D01*
X77071196Y-64934559D01*
X76984383Y-65196868D01*
X76942190Y-65614168D01*
X76937333Y-65869917D01*
X76937333Y-66326001D01*
X77297167Y-66269096D01*
X77612175Y-66222155D01*
X77794745Y-66214253D01*
X77879757Y-66258385D01*
X77902092Y-66367549D01*
X77898961Y-66493333D01*
X77866119Y-67227128D01*
X77828696Y-67936462D01*
X77788204Y-68601775D01*
X77746157Y-69203506D01*
X77704071Y-69722095D01*
X77663459Y-70137980D01*
X77625834Y-70431601D01*
X77592713Y-70583398D01*
X77581072Y-70600021D01*
X77433107Y-70637942D01*
X77254833Y-70678875D01*
X77066745Y-70771050D01*
X77022000Y-70897613D01*
X76961719Y-71037609D01*
X76850010Y-71065333D01*
X76694799Y-71110653D01*
X76644584Y-71171167D01*
X76612625Y-71336253D01*
X76584923Y-71589609D01*
X76563767Y-71884831D01*
X76551445Y-72175518D01*
X76550243Y-72415267D01*
X76562451Y-72557675D01*
X76575231Y-72577803D01*
X76702812Y-72557907D01*
X76852667Y-72535961D01*
X77047531Y-72507825D01*
X77340666Y-72465248D01*
X77614667Y-72425317D01*
X77976617Y-72373507D01*
X78416884Y-72311937D01*
X78845923Y-72253118D01*
X78884667Y-72247882D01*
X79331741Y-72186539D01*
X79637688Y-72139161D01*
X79829261Y-72097585D01*
X79933214Y-72053646D01*
X79976301Y-71999181D01*
X79985276Y-71926024D01*
X79985333Y-71912000D01*
X80061481Y-71755837D01*
X80197000Y-71692768D01*
X80284426Y-71667470D01*
X80345337Y-71624645D01*
X80385142Y-71536728D01*
X80409250Y-71376152D01*
X80423070Y-71115354D01*
X80432009Y-70726768D01*
X80436395Y-70472667D01*
X80422626Y-70346716D01*
X80353770Y-70281861D01*
X80196629Y-70270446D01*
X79918008Y-70304816D01*
X79794833Y-70324720D01*
X79477333Y-70377354D01*
X79478565Y-69980510D01*
X79485004Y-69774028D01*
X79502225Y-69431813D01*
X79528275Y-68986986D01*
X79561201Y-68472668D01*
X79599050Y-67921979D01*
X79604333Y-67848000D01*
X79641973Y-67319772D01*
X79675167Y-66846968D01*
X79702076Y-66456377D01*
X79720859Y-66174790D01*
X79729675Y-66028995D01*
X79730102Y-66017321D01*
X79805816Y-65945899D01*
X79993515Y-65882837D01*
X80070000Y-65868154D01*
X80297890Y-65811631D01*
X80395874Y-65722694D01*
X80408667Y-65645666D01*
X80469851Y-65503766D01*
X80567417Y-65477333D01*
X80689527Y-65418639D01*
X80771964Y-65233453D01*
X80818264Y-64908120D01*
X80832000Y-64456073D01*
X80832000Y-64190386D01*
X80586956Y-64190386D01*
X80561312Y-64683584D01*
X80535667Y-65176782D01*
X80034357Y-65263558D01*
X79764786Y-65322615D01*
X79573954Y-65387824D01*
X79510340Y-65435000D01*
X79499800Y-65540819D01*
X79482820Y-65790494D01*
X79460874Y-66158734D01*
X79435437Y-66620247D01*
X79407983Y-67149741D01*
X79394324Y-67424667D01*
X79364168Y-68020306D01*
X79333047Y-68599663D01*
X79303003Y-69127267D01*
X79276074Y-69567649D01*
X79254301Y-69885341D01*
X79248918Y-69953352D01*
X79196821Y-70577037D01*
X79730614Y-70515083D01*
X80264407Y-70453130D01*
X80209537Y-70727482D01*
X80169391Y-71003741D01*
X80154667Y-71237808D01*
X80157169Y-71326648D01*
X80148803Y-71391639D01*
X80105764Y-71440239D01*
X80004245Y-71479907D01*
X79820439Y-71518099D01*
X79530539Y-71562273D01*
X79110740Y-71619887D01*
X78800000Y-71662175D01*
X78418919Y-71716761D01*
X78057898Y-71772601D01*
X77783575Y-71819297D01*
X77741667Y-71827274D01*
X77412022Y-71889017D01*
X77218060Y-71900183D01*
X77128813Y-71840237D01*
X77113316Y-71688644D01*
X77140190Y-71428404D01*
X77187258Y-71154903D01*
X77249457Y-70953575D01*
X77295965Y-70883661D01*
X77434324Y-70836438D01*
X77671674Y-70786752D01*
X77801118Y-70766646D01*
X78050557Y-70720389D01*
X78172356Y-70655376D01*
X78208115Y-70547265D01*
X78208618Y-70528222D01*
X78214731Y-70391300D01*
X78231067Y-70113602D01*
X78255831Y-69723257D01*
X78287225Y-69248393D01*
X78323454Y-68717140D01*
X78333832Y-68567667D01*
X78372161Y-67987559D01*
X78405857Y-67419967D01*
X78432945Y-66902895D01*
X78451451Y-66474347D01*
X78459400Y-66172328D01*
X78459548Y-66147701D01*
X78461333Y-65505735D01*
X77995667Y-65544352D01*
X77530000Y-65582968D01*
X77531156Y-65254984D01*
X77535042Y-64990940D01*
X77561795Y-64804255D01*
X77637324Y-64676391D01*
X77787541Y-64588810D01*
X78038356Y-64522973D01*
X78415677Y-64460341D01*
X78700192Y-64418544D01*
X79151135Y-64354530D01*
X79581467Y-64296791D01*
X79941952Y-64251730D01*
X80180312Y-64226017D01*
X80586956Y-64190386D01*
X80832000Y-64190386D01*
X80832000Y-63963979D01*
X80514500Y-64005495D01*
G36*
X87169809Y-63052807D02*
X86875040Y-63092382D01*
X86827696Y-63099520D01*
X86401929Y-63163259D01*
X85924715Y-63232708D01*
X85573333Y-63282470D01*
X85169344Y-63339550D01*
X84746012Y-63400805D01*
X84430333Y-63447670D01*
X84057558Y-63501509D01*
X83668342Y-63553779D01*
X83482770Y-63576901D01*
X83216757Y-63620096D01*
X83077357Y-63682331D01*
X83021871Y-63785204D01*
X83017103Y-63812433D01*
X82919270Y-63977755D01*
X82800500Y-64022722D01*
X82674627Y-64067992D01*
X82620165Y-64189012D01*
X82610000Y-64381555D01*
X82599221Y-64595184D01*
X82534739Y-64700088D01*
X82368339Y-64751209D01*
X82271333Y-64767487D01*
X82040796Y-64825857D01*
X81943058Y-64917456D01*
X81932667Y-64982250D01*
X81857964Y-65136261D01*
X81721000Y-65223333D01*
X81553173Y-65344076D01*
X81509034Y-65538738D01*
X81503645Y-65689812D01*
X81488723Y-65981959D01*
X81465864Y-66387281D01*
X81436664Y-66877884D01*
X81402717Y-67425871D01*
X81386643Y-67678667D01*
X81349136Y-68274916D01*
X81313880Y-68855796D01*
X81282944Y-69385663D01*
X81258394Y-69828871D01*
X81242297Y-70149776D01*
X81239354Y-70218667D01*
X81214155Y-70853667D01*
X81700411Y-70824676D01*
X82186667Y-70795686D01*
X82186667Y-71269176D01*
X82192525Y-71524412D01*
X82232771Y-71672388D01*
X82341410Y-71734165D01*
X82552448Y-71730797D01*
X82864000Y-71688600D01*
X83051179Y-71661640D01*
X83345005Y-71619809D01*
X83684439Y-71571793D01*
X83710667Y-71568095D01*
X84494480Y-71457156D01*
X85126740Y-71366000D01*
X85623653Y-71291380D01*
X86001424Y-71230051D01*
X86276261Y-71178764D01*
X86464369Y-71134273D01*
X86581955Y-71093332D01*
X86645224Y-71052692D01*
X86670384Y-71009108D01*
X86674000Y-70974395D01*
X86744860Y-70828725D01*
X86843333Y-70769000D01*
X86982005Y-70665610D01*
X87015166Y-70572794D01*
X87021157Y-70460547D01*
X87037274Y-70197368D01*
X87062354Y-69801279D01*
X87095232Y-69290306D01*
X87134744Y-68682471D01*
X87179727Y-67995799D01*
X87229016Y-67248314D01*
X87262210Y-66747432D01*
X87312749Y-65975654D01*
X87358419Y-65257427D01*
X87398217Y-64610062D01*
X87431143Y-64050873D01*
X87456195Y-63597170D01*
X87472373Y-63266268D01*
X87474207Y-63210744D01*
X87227642Y-63210744D01*
X87227143Y-63297490D01*
X87216415Y-63534035D01*
X87196569Y-63901226D01*
X87168717Y-64379908D01*
X87133971Y-64950927D01*
X87093444Y-65595131D01*
X87051789Y-66239333D01*
X87004532Y-66966992D01*
X86959739Y-67667797D01*
X86918933Y-68317107D01*
X86883634Y-68890280D01*
X86855365Y-69362675D01*
X86835646Y-69709651D01*
X86827267Y-69875392D01*
X86799530Y-70505783D01*
X86207598Y-70606762D01*
X85831470Y-70667534D01*
X85375498Y-70736342D01*
X84927832Y-70799956D01*
X84853667Y-70810004D01*
X84465025Y-70864644D01*
X84097992Y-70920508D01*
X83815595Y-70967877D01*
X83753000Y-70979733D01*
X83437183Y-71028079D01*
X83122006Y-71055380D01*
X83096833Y-71056266D01*
X82779333Y-71065333D01*
X82779333Y-70557333D01*
X82790851Y-70254669D01*
X82829392Y-70094040D01*
X82896244Y-70049333D01*
X83019978Y-70037191D01*
X83276046Y-70003956D01*
X83629440Y-69954419D01*
X84045150Y-69893368D01*
X84134000Y-69880000D01*
X84571992Y-69816480D01*
X84968494Y-69763822D01*
X85283607Y-69726996D01*
X85477435Y-69710969D01*
X85493759Y-69710667D01*
X85683882Y-69685749D01*
X85780839Y-69632733D01*
X85809757Y-69514924D01*
X85841080Y-69277079D01*
X85868485Y-68968272D01*
X85870843Y-68934233D01*
X85939997Y-67904479D01*
X85997901Y-67032569D01*
X86045215Y-66307435D01*
X86082598Y-65718007D01*
X86090193Y-65592423D01*
X85475722Y-65592423D01*
X85467666Y-65973549D01*
X85448663Y-66486638D01*
X85418438Y-67142078D01*
X85376714Y-67950263D01*
X85348438Y-68469532D01*
X85316797Y-68907457D01*
X85277376Y-69241896D01*
X85233607Y-69448834D01*
X85200362Y-69505791D01*
X85084390Y-69530648D01*
X84837052Y-69573425D01*
X84494617Y-69628128D01*
X84093353Y-69688764D01*
X84091667Y-69689012D01*
X83665342Y-69750843D01*
X83377931Y-69787271D01*
X83200847Y-69797750D01*
X83105504Y-69781738D01*
X83063317Y-69738689D01*
X83045883Y-69669101D01*
X83041348Y-69532404D01*
X83047124Y-69257474D01*
X83062040Y-68875024D01*
X83084922Y-68415765D01*
X83110540Y-67975348D01*
X83144589Y-67441745D01*
X83179199Y-66927364D01*
X83211550Y-66472191D01*
X83238820Y-66116213D01*
X83254184Y-65938976D01*
X83303389Y-65426952D01*
X84332528Y-65281042D01*
X84734424Y-65225025D01*
X85075718Y-65179264D01*
X85321199Y-65148353D01*
X85435657Y-65136889D01*
X85436970Y-65136899D01*
X85460098Y-65184488D01*
X85473107Y-65332866D01*
X85475722Y-65592423D01*
X86090193Y-65592423D01*
X86110709Y-65253217D01*
X86130206Y-64901994D01*
X86141749Y-64653270D01*
X86145995Y-64495975D01*
X86143605Y-64419040D01*
X86140272Y-64407383D01*
X86047025Y-64403727D01*
X85839198Y-64426735D01*
X85650946Y-64456332D01*
X85126818Y-64542110D01*
X84522872Y-64632832D01*
X83927673Y-64715526D01*
X83577505Y-64760026D01*
X83148009Y-64811762D01*
X83003952Y-67113048D01*
X82965744Y-67734412D01*
X82931497Y-68312510D01*
X82902603Y-68822117D01*
X82880454Y-69238007D01*
X82866442Y-69534953D01*
X82861947Y-69686521D01*
X82835495Y-69884425D01*
X82732188Y-70017759D01*
X82521471Y-70107965D01*
X82172792Y-70176488D01*
X82161317Y-70178218D01*
X81919578Y-70209883D01*
X81806027Y-70199289D01*
X81781732Y-70131465D01*
X81797731Y-70038407D01*
X81813699Y-69904110D01*
X81837607Y-69624259D01*
X81867777Y-69222361D01*
X81902528Y-68721921D01*
X81940178Y-68146447D01*
X81979049Y-67519444D01*
X81985647Y-67409609D01*
X82028068Y-66690171D01*
X82063183Y-66121842D01*
X82096400Y-65686880D01*
X82133132Y-65367539D01*
X82178788Y-65146075D01*
X82238779Y-65004743D01*
X82318515Y-64925799D01*
X82423408Y-64891498D01*
X82558868Y-64884095D01*
X82730305Y-64885847D01*
X82755188Y-64885823D01*
X82984580Y-64839337D01*
X83125913Y-64687897D01*
X83192722Y-64409985D01*
X83202667Y-64174402D01*
X83210912Y-63937804D01*
X83257763Y-63819468D01*
X83376390Y-63768409D01*
X83477833Y-63751466D01*
X84204911Y-63645854D01*
X84816676Y-63558489D01*
X85365197Y-63481977D01*
X85658000Y-63441952D01*
X86053548Y-63385556D01*
X86442901Y-63325567D01*
X86751721Y-63273516D01*
X86792189Y-63266036D01*
X87033780Y-63225344D01*
X87193455Y-63207712D01*
X87227642Y-63210744D01*
X87474207Y-63210744D01*
X87478675Y-63075478D01*
X87476906Y-63034683D01*
X87385015Y-63032117D01*
X87169809Y-63052807D01*
X87169809Y-63052807D01*
G37*
X87169809Y-63052807D02*
X86875040Y-63092382D01*
X86827696Y-63099520D01*
X86401929Y-63163259D01*
X85924715Y-63232708D01*
X85573333Y-63282470D01*
X85169344Y-63339550D01*
X84746012Y-63400805D01*
X84430333Y-63447670D01*
X84057558Y-63501509D01*
X83668342Y-63553779D01*
X83482770Y-63576901D01*
X83216757Y-63620096D01*
X83077357Y-63682331D01*
X83021871Y-63785204D01*
X83017103Y-63812433D01*
X82919270Y-63977755D01*
X82800500Y-64022722D01*
X82674627Y-64067992D01*
X82620165Y-64189012D01*
X82610000Y-64381555D01*
X82599221Y-64595184D01*
X82534739Y-64700088D01*
X82368339Y-64751209D01*
X82271333Y-64767487D01*
X82040796Y-64825857D01*
X81943058Y-64917456D01*
X81932667Y-64982250D01*
X81857964Y-65136261D01*
X81721000Y-65223333D01*
X81553173Y-65344076D01*
X81509034Y-65538738D01*
X81503645Y-65689812D01*
X81488723Y-65981959D01*
X81465864Y-66387281D01*
X81436664Y-66877884D01*
X81402717Y-67425871D01*
X81386643Y-67678667D01*
X81349136Y-68274916D01*
X81313880Y-68855796D01*
X81282944Y-69385663D01*
X81258394Y-69828871D01*
X81242297Y-70149776D01*
X81239354Y-70218667D01*
X81214155Y-70853667D01*
X81700411Y-70824676D01*
X82186667Y-70795686D01*
X82186667Y-71269176D01*
X82192525Y-71524412D01*
X82232771Y-71672388D01*
X82341410Y-71734165D01*
X82552448Y-71730797D01*
X82864000Y-71688600D01*
X83051179Y-71661640D01*
X83345005Y-71619809D01*
X83684439Y-71571793D01*
X83710667Y-71568095D01*
X84494480Y-71457156D01*
X85126740Y-71366000D01*
X85623653Y-71291380D01*
X86001424Y-71230051D01*
X86276261Y-71178764D01*
X86464369Y-71134273D01*
X86581955Y-71093332D01*
X86645224Y-71052692D01*
X86670384Y-71009108D01*
X86674000Y-70974395D01*
X86744860Y-70828725D01*
X86843333Y-70769000D01*
X86982005Y-70665610D01*
X87015166Y-70572794D01*
X87021157Y-70460547D01*
X87037274Y-70197368D01*
X87062354Y-69801279D01*
X87095232Y-69290306D01*
X87134744Y-68682471D01*
X87179727Y-67995799D01*
X87229016Y-67248314D01*
X87262210Y-66747432D01*
X87312749Y-65975654D01*
X87358419Y-65257427D01*
X87398217Y-64610062D01*
X87431143Y-64050873D01*
X87456195Y-63597170D01*
X87472373Y-63266268D01*
X87474207Y-63210744D01*
X87227642Y-63210744D01*
X87227143Y-63297490D01*
X87216415Y-63534035D01*
X87196569Y-63901226D01*
X87168717Y-64379908D01*
X87133971Y-64950927D01*
X87093444Y-65595131D01*
X87051789Y-66239333D01*
X87004532Y-66966992D01*
X86959739Y-67667797D01*
X86918933Y-68317107D01*
X86883634Y-68890280D01*
X86855365Y-69362675D01*
X86835646Y-69709651D01*
X86827267Y-69875392D01*
X86799530Y-70505783D01*
X86207598Y-70606762D01*
X85831470Y-70667534D01*
X85375498Y-70736342D01*
X84927832Y-70799956D01*
X84853667Y-70810004D01*
X84465025Y-70864644D01*
X84097992Y-70920508D01*
X83815595Y-70967877D01*
X83753000Y-70979733D01*
X83437183Y-71028079D01*
X83122006Y-71055380D01*
X83096833Y-71056266D01*
X82779333Y-71065333D01*
X82779333Y-70557333D01*
X82790851Y-70254669D01*
X82829392Y-70094040D01*
X82896244Y-70049333D01*
X83019978Y-70037191D01*
X83276046Y-70003956D01*
X83629440Y-69954419D01*
X84045150Y-69893368D01*
X84134000Y-69880000D01*
X84571992Y-69816480D01*
X84968494Y-69763822D01*
X85283607Y-69726996D01*
X85477435Y-69710969D01*
X85493759Y-69710667D01*
X85683882Y-69685749D01*
X85780839Y-69632733D01*
X85809757Y-69514924D01*
X85841080Y-69277079D01*
X85868485Y-68968272D01*
X85870843Y-68934233D01*
X85939997Y-67904479D01*
X85997901Y-67032569D01*
X86045215Y-66307435D01*
X86082598Y-65718007D01*
X86090193Y-65592423D01*
X85475722Y-65592423D01*
X85467666Y-65973549D01*
X85448663Y-66486638D01*
X85418438Y-67142078D01*
X85376714Y-67950263D01*
X85348438Y-68469532D01*
X85316797Y-68907457D01*
X85277376Y-69241896D01*
X85233607Y-69448834D01*
X85200362Y-69505791D01*
X85084390Y-69530648D01*
X84837052Y-69573425D01*
X84494617Y-69628128D01*
X84093353Y-69688764D01*
X84091667Y-69689012D01*
X83665342Y-69750843D01*
X83377931Y-69787271D01*
X83200847Y-69797750D01*
X83105504Y-69781738D01*
X83063317Y-69738689D01*
X83045883Y-69669101D01*
X83041348Y-69532404D01*
X83047124Y-69257474D01*
X83062040Y-68875024D01*
X83084922Y-68415765D01*
X83110540Y-67975348D01*
X83144589Y-67441745D01*
X83179199Y-66927364D01*
X83211550Y-66472191D01*
X83238820Y-66116213D01*
X83254184Y-65938976D01*
X83303389Y-65426952D01*
X84332528Y-65281042D01*
X84734424Y-65225025D01*
X85075718Y-65179264D01*
X85321199Y-65148353D01*
X85435657Y-65136889D01*
X85436970Y-65136899D01*
X85460098Y-65184488D01*
X85473107Y-65332866D01*
X85475722Y-65592423D01*
X86090193Y-65592423D01*
X86110709Y-65253217D01*
X86130206Y-64901994D01*
X86141749Y-64653270D01*
X86145995Y-64495975D01*
X86143605Y-64419040D01*
X86140272Y-64407383D01*
X86047025Y-64403727D01*
X85839198Y-64426735D01*
X85650946Y-64456332D01*
X85126818Y-64542110D01*
X84522872Y-64632832D01*
X83927673Y-64715526D01*
X83577505Y-64760026D01*
X83148009Y-64811762D01*
X83003952Y-67113048D01*
X82965744Y-67734412D01*
X82931497Y-68312510D01*
X82902603Y-68822117D01*
X82880454Y-69238007D01*
X82866442Y-69534953D01*
X82861947Y-69686521D01*
X82835495Y-69884425D01*
X82732188Y-70017759D01*
X82521471Y-70107965D01*
X82172792Y-70176488D01*
X82161317Y-70178218D01*
X81919578Y-70209883D01*
X81806027Y-70199289D01*
X81781732Y-70131465D01*
X81797731Y-70038407D01*
X81813699Y-69904110D01*
X81837607Y-69624259D01*
X81867777Y-69222361D01*
X81902528Y-68721921D01*
X81940178Y-68146447D01*
X81979049Y-67519444D01*
X81985647Y-67409609D01*
X82028068Y-66690171D01*
X82063183Y-66121842D01*
X82096400Y-65686880D01*
X82133132Y-65367539D01*
X82178788Y-65146075D01*
X82238779Y-65004743D01*
X82318515Y-64925799D01*
X82423408Y-64891498D01*
X82558868Y-64884095D01*
X82730305Y-64885847D01*
X82755188Y-64885823D01*
X82984580Y-64839337D01*
X83125913Y-64687897D01*
X83192722Y-64409985D01*
X83202667Y-64174402D01*
X83210912Y-63937804D01*
X83257763Y-63819468D01*
X83376390Y-63768409D01*
X83477833Y-63751466D01*
X84204911Y-63645854D01*
X84816676Y-63558489D01*
X85365197Y-63481977D01*
X85658000Y-63441952D01*
X86053548Y-63385556D01*
X86442901Y-63325567D01*
X86751721Y-63273516D01*
X86792189Y-63266036D01*
X87033780Y-63225344D01*
X87193455Y-63207712D01*
X87227642Y-63210744D01*
X87474207Y-63210744D01*
X87478675Y-63075478D01*
X87476906Y-63034683D01*
X87385015Y-63032117D01*
X87169809Y-63052807D01*
G36*
X78495068Y-56938265D02*
X78206050Y-56971598D01*
X77807759Y-57022516D01*
X77329291Y-57087272D01*
X76799742Y-57162121D01*
X76683333Y-57178980D01*
X76156293Y-57254980D01*
X75683315Y-57321941D01*
X75291077Y-57376188D01*
X75006259Y-57414043D01*
X74855537Y-57431831D01*
X74841833Y-57432714D01*
X74745912Y-57501397D01*
X74736000Y-57550673D01*
X74673391Y-57688395D01*
X74575719Y-57783506D01*
X74499192Y-57866258D01*
X74444538Y-58006193D01*
X74404608Y-58236179D01*
X74372256Y-58589080D01*
X74359467Y-58777801D01*
X74303495Y-59655935D01*
X75074667Y-59540291D01*
X75074667Y-60323042D01*
X75462449Y-60264891D01*
X75850231Y-60206739D01*
X75789806Y-60609679D01*
X75729382Y-61012618D01*
X76514000Y-60894958D01*
X76514000Y-61677709D01*
X76916167Y-61625242D01*
X77148157Y-61599896D01*
X77237954Y-61609161D01*
X77210282Y-61659148D01*
X77175153Y-61689242D01*
X77040356Y-61742529D01*
X76769106Y-61807166D01*
X76393352Y-61876778D01*
X75945045Y-61944990D01*
X75789041Y-61965796D01*
X75281563Y-62034917D01*
X74918523Y-62094637D01*
X74675695Y-62150601D01*
X74528855Y-62208458D01*
X74453775Y-62273854D01*
X74451354Y-62277609D01*
X74328595Y-62401576D01*
X74249967Y-62429333D01*
X74172847Y-62506028D01*
X74143342Y-62710928D01*
X74143333Y-62715083D01*
X74126304Y-63009759D01*
X74090417Y-63265417D01*
X74066328Y-63443862D01*
X74121931Y-63513281D01*
X74299938Y-63520272D01*
X74323250Y-63519437D01*
X74584167Y-63499010D01*
X74905947Y-63459955D01*
X75032333Y-63441045D01*
X75411151Y-63382224D01*
X75873719Y-63313202D01*
X76375111Y-63240382D01*
X76870396Y-63170165D01*
X77314646Y-63108953D01*
X77662933Y-63063148D01*
X77805167Y-63045947D01*
X78059988Y-62996393D01*
X78194901Y-62925187D01*
X78207333Y-62894555D01*
X78269577Y-62765811D01*
X78367614Y-62672493D01*
X78444063Y-62589854D01*
X78498688Y-62450121D01*
X78538620Y-62220466D01*
X78570990Y-61868060D01*
X78583994Y-61676346D01*
X78628722Y-60974738D01*
X78419000Y-60974738D01*
X78391895Y-61741647D01*
X78364790Y-62508555D01*
X78095562Y-62552562D01*
X77881302Y-62585392D01*
X77562705Y-62631680D01*
X77203244Y-62682227D01*
X77149000Y-62689708D01*
X76725442Y-62748533D01*
X76232048Y-62817914D01*
X75766563Y-62884097D01*
X75709667Y-62892256D01*
X75251680Y-62958079D01*
X74935555Y-62997323D01*
X74735106Y-63004230D01*
X74624148Y-62973043D01*
X74576495Y-62898008D01*
X74565960Y-62773367D01*
X74566667Y-62641000D01*
X74573865Y-62413686D01*
X74592075Y-62277410D01*
X74602874Y-62260000D01*
X74715893Y-62248955D01*
X74954155Y-62219616D01*
X75275276Y-62177678D01*
X75636875Y-62128834D01*
X75996569Y-62078779D01*
X76311973Y-62033207D01*
X76471667Y-62008922D01*
X76929816Y-61937959D01*
X77247019Y-61886186D01*
X77448872Y-61842186D01*
X77560974Y-61794545D01*
X77608923Y-61731844D01*
X77618316Y-61642669D01*
X77614751Y-61515603D01*
X77614667Y-61499160D01*
X77625886Y-61273011D01*
X77686710Y-61145252D01*
X77837889Y-61075338D01*
X78088409Y-61027796D01*
X78419000Y-60974738D01*
X78628722Y-60974738D01*
X78640094Y-60796358D01*
X78254380Y-60849226D01*
X77868667Y-60902094D01*
X77868667Y-60678164D01*
X77699333Y-60678164D01*
X77686664Y-60909976D01*
X77623777Y-61044331D01*
X77473356Y-61111896D01*
X77198084Y-61143337D01*
X77127833Y-61147803D01*
X77010688Y-61136934D01*
X76954701Y-61056844D01*
X76937972Y-60864461D01*
X76937333Y-60773145D01*
X76937333Y-60407709D01*
X76916073Y-60410897D01*
X76919256Y-60389669D01*
X76937333Y-60386958D01*
X76937333Y-60407709D01*
X77307703Y-60352168D01*
X77699333Y-60293440D01*
X77699333Y-60678164D01*
X77868667Y-60678164D01*
X77868667Y-60128772D01*
X77508833Y-60157219D01*
X77149000Y-60185667D01*
X77178618Y-59813870D01*
X77194765Y-59611159D01*
X77036001Y-59611159D01*
X76919256Y-60389669D01*
X76543672Y-60445991D01*
X76150010Y-60505024D01*
X76208882Y-60136857D01*
X76251166Y-59906658D01*
X76288463Y-59759627D01*
X76299218Y-59737226D01*
X76395068Y-59707490D01*
X76597400Y-59670793D01*
X76683341Y-59658461D01*
X77036001Y-59611159D01*
X77194765Y-59611159D01*
X77208235Y-59442073D01*
X76818784Y-59485969D01*
X76429333Y-59529866D01*
X76429333Y-58766371D01*
X76090667Y-58811795D01*
X75848937Y-58823557D01*
X75754256Y-58772126D01*
X75752000Y-58755749D01*
X75835668Y-58698004D01*
X76083138Y-58632594D01*
X76489111Y-58560700D01*
X76873833Y-58505947D01*
X77445615Y-58429520D01*
X77870771Y-58369889D01*
X78170696Y-58322818D01*
X78366785Y-58284068D01*
X78480435Y-58249403D01*
X78533041Y-58214583D01*
X78545998Y-58175371D01*
X78546000Y-58174744D01*
X78604942Y-58051884D01*
X78663029Y-57993667D01*
X78734685Y-57862228D01*
X78796767Y-57621763D01*
X78826244Y-57412833D01*
X78835569Y-57299435D01*
X78620442Y-57299435D01*
X78614436Y-57405251D01*
X78588333Y-57814380D01*
X77085500Y-58018205D01*
X75582667Y-58222029D01*
X75582667Y-59064962D01*
X75921333Y-59019538D01*
X76260000Y-58974113D01*
X76260000Y-59332945D01*
X76247503Y-59601931D01*
X76184735Y-59742922D01*
X76033779Y-59796804D01*
X75822556Y-59804667D01*
X75498000Y-59804667D01*
X75498000Y-59080525D01*
X75159333Y-59112822D01*
X74820667Y-59145119D01*
X74821823Y-58522393D01*
X74819826Y-58205712D01*
X74826210Y-57965984D01*
X74861542Y-57789443D01*
X74946386Y-57662320D01*
X75101311Y-57570847D01*
X75346881Y-57501257D01*
X75703663Y-57439782D01*
X76192223Y-57372654D01*
X76626009Y-57314606D01*
X77153145Y-57241851D01*
X77629602Y-57174092D01*
X78027413Y-57115469D01*
X78318609Y-57070119D01*
X78475222Y-57042181D01*
X78487436Y-57039189D01*
X78578140Y-57033163D01*
X78618181Y-57107535D01*
X78620442Y-57299435D01*
X78835569Y-57299435D01*
X78848719Y-57139542D01*
X78839571Y-56994317D01*
X78783793Y-56936709D01*
X78666378Y-56926268D01*
X78645716Y-56926266D01*
X78495068Y-56938265D01*
X78495068Y-56938265D01*
G37*
X78495068Y-56938265D02*
X78206050Y-56971598D01*
X77807759Y-57022516D01*
X77329291Y-57087272D01*
X76799742Y-57162121D01*
X76683333Y-57178980D01*
X76156293Y-57254980D01*
X75683315Y-57321941D01*
X75291077Y-57376188D01*
X75006259Y-57414043D01*
X74855537Y-57431831D01*
X74841833Y-57432714D01*
X74745912Y-57501397D01*
X74736000Y-57550673D01*
X74673391Y-57688395D01*
X74575719Y-57783506D01*
X74499192Y-57866258D01*
X74444538Y-58006193D01*
X74404608Y-58236179D01*
X74372256Y-58589080D01*
X74359467Y-58777801D01*
X74303495Y-59655935D01*
X75074667Y-59540291D01*
X75074667Y-60323042D01*
X75462449Y-60264891D01*
X75850231Y-60206739D01*
X75789806Y-60609679D01*
X75729382Y-61012618D01*
X76514000Y-60894958D01*
X76514000Y-61677709D01*
X76916167Y-61625242D01*
X77148157Y-61599896D01*
X77237954Y-61609161D01*
X77210282Y-61659148D01*
X77175153Y-61689242D01*
X77040356Y-61742529D01*
X76769106Y-61807166D01*
X76393352Y-61876778D01*
X75945045Y-61944990D01*
X75789041Y-61965796D01*
X75281563Y-62034917D01*
X74918523Y-62094637D01*
X74675695Y-62150601D01*
X74528855Y-62208458D01*
X74453775Y-62273854D01*
X74451354Y-62277609D01*
X74328595Y-62401576D01*
X74249967Y-62429333D01*
X74172847Y-62506028D01*
X74143342Y-62710928D01*
X74143333Y-62715083D01*
X74126304Y-63009759D01*
X74090417Y-63265417D01*
X74066328Y-63443862D01*
X74121931Y-63513281D01*
X74299938Y-63520272D01*
X74323250Y-63519437D01*
X74584167Y-63499010D01*
X74905947Y-63459955D01*
X75032333Y-63441045D01*
X75411151Y-63382224D01*
X75873719Y-63313202D01*
X76375111Y-63240382D01*
X76870396Y-63170165D01*
X77314646Y-63108953D01*
X77662933Y-63063148D01*
X77805167Y-63045947D01*
X78059988Y-62996393D01*
X78194901Y-62925187D01*
X78207333Y-62894555D01*
X78269577Y-62765811D01*
X78367614Y-62672493D01*
X78444063Y-62589854D01*
X78498688Y-62450121D01*
X78538620Y-62220466D01*
X78570990Y-61868060D01*
X78583994Y-61676346D01*
X78628722Y-60974738D01*
X78419000Y-60974738D01*
X78391895Y-61741647D01*
X78364790Y-62508555D01*
X78095562Y-62552562D01*
X77881302Y-62585392D01*
X77562705Y-62631680D01*
X77203244Y-62682227D01*
X77149000Y-62689708D01*
X76725442Y-62748533D01*
X76232048Y-62817914D01*
X75766563Y-62884097D01*
X75709667Y-62892256D01*
X75251680Y-62958079D01*
X74935555Y-62997323D01*
X74735106Y-63004230D01*
X74624148Y-62973043D01*
X74576495Y-62898008D01*
X74565960Y-62773367D01*
X74566667Y-62641000D01*
X74573865Y-62413686D01*
X74592075Y-62277410D01*
X74602874Y-62260000D01*
X74715893Y-62248955D01*
X74954155Y-62219616D01*
X75275276Y-62177678D01*
X75636875Y-62128834D01*
X75996569Y-62078779D01*
X76311973Y-62033207D01*
X76471667Y-62008922D01*
X76929816Y-61937959D01*
X77247019Y-61886186D01*
X77448872Y-61842186D01*
X77560974Y-61794545D01*
X77608923Y-61731844D01*
X77618316Y-61642669D01*
X77614751Y-61515603D01*
X77614667Y-61499160D01*
X77625886Y-61273011D01*
X77686710Y-61145252D01*
X77837889Y-61075338D01*
X78088409Y-61027796D01*
X78419000Y-60974738D01*
X78628722Y-60974738D01*
X78640094Y-60796358D01*
X78254380Y-60849226D01*
X77868667Y-60902094D01*
X77868667Y-60678164D01*
X77699333Y-60678164D01*
X77686664Y-60909976D01*
X77623777Y-61044331D01*
X77473356Y-61111896D01*
X77198084Y-61143337D01*
X77127833Y-61147803D01*
X77010688Y-61136934D01*
X76954701Y-61056844D01*
X76937972Y-60864461D01*
X76937333Y-60773145D01*
X76937333Y-60407709D01*
X76916073Y-60410897D01*
X76919256Y-60389669D01*
X76937333Y-60386958D01*
X76937333Y-60407709D01*
X77307703Y-60352168D01*
X77699333Y-60293440D01*
X77699333Y-60678164D01*
X77868667Y-60678164D01*
X77868667Y-60128772D01*
X77508833Y-60157219D01*
X77149000Y-60185667D01*
X77178618Y-59813870D01*
X77194765Y-59611159D01*
X77036001Y-59611159D01*
X76919256Y-60389669D01*
X76543672Y-60445991D01*
X76150010Y-60505024D01*
X76208882Y-60136857D01*
X76251166Y-59906658D01*
X76288463Y-59759627D01*
X76299218Y-59737226D01*
X76395068Y-59707490D01*
X76597400Y-59670793D01*
X76683341Y-59658461D01*
X77036001Y-59611159D01*
X77194765Y-59611159D01*
X77208235Y-59442073D01*
X76818784Y-59485969D01*
X76429333Y-59529866D01*
X76429333Y-58766371D01*
X76090667Y-58811795D01*
X75848937Y-58823557D01*
X75754256Y-58772126D01*
X75752000Y-58755749D01*
X75835668Y-58698004D01*
X76083138Y-58632594D01*
X76489111Y-58560700D01*
X76873833Y-58505947D01*
X77445615Y-58429520D01*
X77870771Y-58369889D01*
X78170696Y-58322818D01*
X78366785Y-58284068D01*
X78480435Y-58249403D01*
X78533041Y-58214583D01*
X78545998Y-58175371D01*
X78546000Y-58174744D01*
X78604942Y-58051884D01*
X78663029Y-57993667D01*
X78734685Y-57862228D01*
X78796767Y-57621763D01*
X78826244Y-57412833D01*
X78835569Y-57299435D01*
X78620442Y-57299435D01*
X78614436Y-57405251D01*
X78588333Y-57814380D01*
X77085500Y-58018205D01*
X75582667Y-58222029D01*
X75582667Y-59064962D01*
X75921333Y-59019538D01*
X76260000Y-58974113D01*
X76260000Y-59332945D01*
X76247503Y-59601931D01*
X76184735Y-59742922D01*
X76033779Y-59796804D01*
X75822556Y-59804667D01*
X75498000Y-59804667D01*
X75498000Y-59080525D01*
X75159333Y-59112822D01*
X74820667Y-59145119D01*
X74821823Y-58522393D01*
X74819826Y-58205712D01*
X74826210Y-57965984D01*
X74861542Y-57789443D01*
X74946386Y-57662320D01*
X75101311Y-57570847D01*
X75346881Y-57501257D01*
X75703663Y-57439782D01*
X76192223Y-57372654D01*
X76626009Y-57314606D01*
X77153145Y-57241851D01*
X77629602Y-57174092D01*
X78027413Y-57115469D01*
X78318609Y-57070119D01*
X78475222Y-57042181D01*
X78487436Y-57039189D01*
X78578140Y-57033163D01*
X78618181Y-57107535D01*
X78620442Y-57299435D01*
X78835569Y-57299435D01*
X78848719Y-57139542D01*
X78839571Y-56994317D01*
X78783793Y-56936709D01*
X78666378Y-56926268D01*
X78645716Y-56926266D01*
X78495068Y-56938265D01*
G36*
X82647327Y-56345467D02*
X82350018Y-56377816D01*
X81975747Y-56424296D01*
X81569671Y-56478828D01*
X81176948Y-56535329D01*
X80842738Y-56587717D01*
X80612197Y-56629912D01*
X80599167Y-56632758D01*
X80450378Y-56713238D01*
X80408667Y-56800613D01*
X80340858Y-56911454D01*
X80281667Y-56926000D01*
X80174780Y-56987918D01*
X80132095Y-57184957D01*
X80132566Y-57332036D01*
X80062585Y-57423204D01*
X79887254Y-57491679D01*
X79880620Y-57493043D01*
X79675056Y-57580872D01*
X79583174Y-57700840D01*
X79496279Y-57831403D01*
X79425125Y-57857333D01*
X79335776Y-57935360D01*
X79308000Y-58143083D01*
X79290487Y-58440637D01*
X79253874Y-58699465D01*
X79199747Y-58970098D01*
X79529040Y-58916009D01*
X79901207Y-58852218D01*
X80136197Y-58802554D01*
X80264490Y-58757386D01*
X80316568Y-58707082D01*
X80324000Y-58664814D01*
X80394873Y-58556603D01*
X80493333Y-58510134D01*
X80626007Y-58413542D01*
X80662667Y-58216757D01*
X80668747Y-58094314D01*
X80709360Y-58014901D01*
X80818065Y-57961860D01*
X81028423Y-57918533D01*
X81361167Y-57870055D01*
X81783526Y-57811221D01*
X82065775Y-57781676D01*
X82236041Y-57791505D01*
X82322456Y-57850794D01*
X82353148Y-57969628D01*
X82356246Y-58158090D01*
X82356000Y-58226717D01*
X82356000Y-58680768D01*
X81742167Y-58774229D01*
X81363562Y-58830928D01*
X80984496Y-58886174D01*
X80715300Y-58924088D01*
X80436823Y-58982779D01*
X80293762Y-59071759D01*
X80260925Y-59138576D01*
X80174285Y-59270032D01*
X80102459Y-59296667D01*
X80012239Y-59372828D01*
X79985333Y-59549053D01*
X79951998Y-59744372D01*
X79822834Y-59839891D01*
X79766067Y-59856473D01*
X79524776Y-59941514D01*
X79353295Y-60074633D01*
X79237402Y-60284355D01*
X79162872Y-60599206D01*
X79115483Y-61047711D01*
X79106516Y-61179235D01*
X79048820Y-62088137D01*
X79440930Y-62034392D01*
X79833041Y-61980648D01*
X79803354Y-62345455D01*
X79794701Y-62570731D01*
X79838300Y-62689839D01*
X79968714Y-62725177D01*
X80220501Y-62699140D01*
X80324000Y-62682849D01*
X80578547Y-62644319D01*
X80940250Y-62592639D01*
X81348336Y-62536412D01*
X81542357Y-62510398D01*
X81938850Y-62452512D01*
X82196086Y-62399229D01*
X82343602Y-62341616D01*
X82410932Y-62270742D01*
X82420065Y-62244971D01*
X82507323Y-62115641D01*
X82577542Y-62090667D01*
X82667663Y-62014286D01*
X82694667Y-61834550D01*
X82722185Y-61645137D01*
X82839923Y-61555166D01*
X82948667Y-61527633D01*
X83126664Y-61467262D01*
X83202632Y-61392343D01*
X83202667Y-61390917D01*
X83263604Y-61274323D01*
X83336100Y-61207432D01*
X83431038Y-61049873D01*
X83498580Y-60749114D01*
X83516122Y-60596066D01*
X83536511Y-60371207D01*
X83347186Y-60371207D01*
X83338725Y-60446591D01*
X83300429Y-60629139D01*
X83287333Y-60827591D01*
X83261213Y-61007875D01*
X83158125Y-61071922D01*
X83096833Y-61075823D01*
X82788738Y-61099852D01*
X82613260Y-61185335D01*
X82537203Y-61359383D01*
X82525333Y-61542558D01*
X82525333Y-61906034D01*
X81953833Y-61996904D01*
X81556657Y-62059251D01*
X81133053Y-62124528D01*
X80874333Y-62163664D01*
X80594556Y-62205574D01*
X80384947Y-62237181D01*
X80302833Y-62249777D01*
X80265262Y-62180469D01*
X80242480Y-61993106D01*
X80239333Y-61873812D01*
X80239333Y-61487624D01*
X79519667Y-61595548D01*
X79549556Y-60848274D01*
X79566089Y-60511510D01*
X79584908Y-60245747D01*
X79602901Y-60091313D01*
X79609700Y-60069078D01*
X79704267Y-60035389D01*
X79904546Y-59989524D01*
X79987720Y-59973563D01*
X80335486Y-59909970D01*
X80308577Y-60661846D01*
X80281667Y-61413722D01*
X80519875Y-61413528D01*
X80702691Y-61400586D01*
X81004674Y-61365861D01*
X81377936Y-61315233D01*
X81641708Y-61275711D01*
X82525333Y-61138088D01*
X82525333Y-60889145D01*
X82565400Y-60574376D01*
X82698457Y-60390680D01*
X82943791Y-60316677D01*
X83045371Y-60312667D01*
X83263547Y-60324736D01*
X83347186Y-60371207D01*
X83536511Y-60371207D01*
X83562712Y-60082267D01*
X83149856Y-60150087D01*
X82875667Y-60191335D01*
X82653946Y-60218152D01*
X82588833Y-60222953D01*
X82464050Y-60297304D01*
X82440667Y-60397333D01*
X82387727Y-60535237D01*
X82313667Y-60566667D01*
X82212556Y-60641918D01*
X82186667Y-60810926D01*
X82180106Y-60931095D01*
X82138055Y-61009361D01*
X82026957Y-61062209D01*
X81813257Y-61106125D01*
X81488167Y-61154089D01*
X81144537Y-61205458D01*
X80852696Y-61253987D01*
X80663773Y-61291035D01*
X80637063Y-61297943D01*
X80552109Y-61305666D01*
X80510254Y-61240685D01*
X80501441Y-61067848D01*
X80510063Y-60853979D01*
X80522020Y-60644960D01*
X80549412Y-60495309D01*
X80617771Y-60390764D01*
X80752628Y-60317063D01*
X80979513Y-60259945D01*
X81323959Y-60205148D01*
X81784500Y-60142093D01*
X82157949Y-60080376D01*
X82411286Y-60015325D01*
X82522201Y-59952973D01*
X82525333Y-59941738D01*
X82584130Y-59816219D01*
X82694667Y-59697312D01*
X82824509Y-59527318D01*
X82864000Y-59388889D01*
X82932731Y-59245288D01*
X83118000Y-59169666D01*
X83296082Y-59095837D01*
X83371970Y-58995478D01*
X83372000Y-58993606D01*
X83436296Y-58885609D01*
X83486577Y-58873333D01*
X83548605Y-58794004D01*
X83606378Y-58577365D01*
X83655413Y-58255441D01*
X83691227Y-57860255D01*
X83709338Y-57423832D01*
X83710667Y-57272449D01*
X83710667Y-57227726D01*
X83532359Y-57227726D01*
X83525983Y-57448888D01*
X83507837Y-57760055D01*
X83494998Y-57934808D01*
X83434826Y-58704000D01*
X83170580Y-58705296D01*
X82910523Y-58732724D01*
X82764109Y-58836343D01*
X82695342Y-59052996D01*
X82679335Y-59208073D01*
X82652333Y-59582365D01*
X82017333Y-59687501D01*
X81461746Y-59779127D01*
X81051424Y-59842007D01*
X80764378Y-59873821D01*
X80578615Y-59872251D01*
X80472144Y-59834981D01*
X80422974Y-59759692D01*
X80409112Y-59644066D01*
X80408667Y-59517947D01*
X80408667Y-59146560D01*
X80810833Y-59091400D01*
X81368489Y-59013661D01*
X81850326Y-58944032D01*
X82232056Y-58886173D01*
X82489391Y-58843742D01*
X82588833Y-58823517D01*
X82659006Y-58722956D01*
X82699296Y-58492254D01*
X82704433Y-58389157D01*
X82714092Y-58132309D01*
X82727379Y-57945091D01*
X82733870Y-57899667D01*
X82750374Y-57763739D01*
X82764934Y-57542144D01*
X82766438Y-57508648D01*
X82786265Y-57314704D01*
X82856627Y-57217448D01*
X83026405Y-57170200D01*
X83137546Y-57154249D01*
X83363764Y-57131051D01*
X83505960Y-57129920D01*
X83525465Y-57135909D01*
X83532359Y-57227726D01*
X83710667Y-57227726D01*
X83710667Y-56967113D01*
X83336654Y-56996859D01*
X82962642Y-57026606D01*
X83009136Y-56679969D01*
X83030872Y-56460623D01*
X83027717Y-56450464D01*
X82840020Y-56450464D01*
X82839478Y-56538149D01*
X82814306Y-56735910D01*
X82796568Y-56845946D01*
X82747647Y-57077937D01*
X82669747Y-57195359D01*
X82509138Y-57250177D01*
X82353781Y-57274206D01*
X82089136Y-57311468D01*
X81725195Y-57362710D01*
X81330341Y-57418305D01*
X81234167Y-57431847D01*
X80493333Y-57536157D01*
X80493333Y-57894300D01*
X80481040Y-58129080D01*
X80450263Y-58285290D01*
X80436889Y-58308889D01*
X80322749Y-58345219D01*
X80110673Y-58364428D01*
X80051021Y-58365333D01*
X79721597Y-58365333D01*
X79747632Y-58006230D01*
X79782865Y-57766525D01*
X79857502Y-57651466D01*
X79943000Y-57621934D01*
X80232000Y-57571557D01*
X80396237Y-57505638D01*
X80479102Y-57388697D01*
X80523989Y-57185256D01*
X80530675Y-57141444D01*
X80549964Y-56996752D01*
X80573811Y-56891205D01*
X80626581Y-56814828D01*
X80732638Y-56757648D01*
X80916348Y-56709691D01*
X81202076Y-56660982D01*
X81614185Y-56601548D01*
X81973901Y-56550652D01*
X82330077Y-56501967D01*
X82616491Y-56466933D01*
X82796706Y-56449764D01*
X82840020Y-56450464D01*
X83027717Y-56450464D01*
X82999975Y-56361158D01*
X82891003Y-56334319D01*
X82822514Y-56333333D01*
X82647327Y-56345467D01*
X82647327Y-56345467D01*
G37*
X82647327Y-56345467D02*
X82350018Y-56377816D01*
X81975747Y-56424296D01*
X81569671Y-56478828D01*
X81176948Y-56535329D01*
X80842738Y-56587717D01*
X80612197Y-56629912D01*
X80599167Y-56632758D01*
X80450378Y-56713238D01*
X80408667Y-56800613D01*
X80340858Y-56911454D01*
X80281667Y-56926000D01*
X80174780Y-56987918D01*
X80132095Y-57184957D01*
X80132566Y-57332036D01*
X80062585Y-57423204D01*
X79887254Y-57491679D01*
X79880620Y-57493043D01*
X79675056Y-57580872D01*
X79583174Y-57700840D01*
X79496279Y-57831403D01*
X79425125Y-57857333D01*
X79335776Y-57935360D01*
X79308000Y-58143083D01*
X79290487Y-58440637D01*
X79253874Y-58699465D01*
X79199747Y-58970098D01*
X79529040Y-58916009D01*
X79901207Y-58852218D01*
X80136197Y-58802554D01*
X80264490Y-58757386D01*
X80316568Y-58707082D01*
X80324000Y-58664814D01*
X80394873Y-58556603D01*
X80493333Y-58510134D01*
X80626007Y-58413542D01*
X80662667Y-58216757D01*
X80668747Y-58094314D01*
X80709360Y-58014901D01*
X80818065Y-57961860D01*
X81028423Y-57918533D01*
X81361167Y-57870055D01*
X81783526Y-57811221D01*
X82065775Y-57781676D01*
X82236041Y-57791505D01*
X82322456Y-57850794D01*
X82353148Y-57969628D01*
X82356246Y-58158090D01*
X82356000Y-58226717D01*
X82356000Y-58680768D01*
X81742167Y-58774229D01*
X81363562Y-58830928D01*
X80984496Y-58886174D01*
X80715300Y-58924088D01*
X80436823Y-58982779D01*
X80293762Y-59071759D01*
X80260925Y-59138576D01*
X80174285Y-59270032D01*
X80102459Y-59296667D01*
X80012239Y-59372828D01*
X79985333Y-59549053D01*
X79951998Y-59744372D01*
X79822834Y-59839891D01*
X79766067Y-59856473D01*
X79524776Y-59941514D01*
X79353295Y-60074633D01*
X79237402Y-60284355D01*
X79162872Y-60599206D01*
X79115483Y-61047711D01*
X79106516Y-61179235D01*
X79048820Y-62088137D01*
X79440930Y-62034392D01*
X79833041Y-61980648D01*
X79803354Y-62345455D01*
X79794701Y-62570731D01*
X79838300Y-62689839D01*
X79968714Y-62725177D01*
X80220501Y-62699140D01*
X80324000Y-62682849D01*
X80578547Y-62644319D01*
X80940250Y-62592639D01*
X81348336Y-62536412D01*
X81542357Y-62510398D01*
X81938850Y-62452512D01*
X82196086Y-62399229D01*
X82343602Y-62341616D01*
X82410932Y-62270742D01*
X82420065Y-62244971D01*
X82507323Y-62115641D01*
X82577542Y-62090667D01*
X82667663Y-62014286D01*
X82694667Y-61834550D01*
X82722185Y-61645137D01*
X82839923Y-61555166D01*
X82948667Y-61527633D01*
X83126664Y-61467262D01*
X83202632Y-61392343D01*
X83202667Y-61390917D01*
X83263604Y-61274323D01*
X83336100Y-61207432D01*
X83431038Y-61049873D01*
X83498580Y-60749114D01*
X83516122Y-60596066D01*
X83536511Y-60371207D01*
X83347186Y-60371207D01*
X83338725Y-60446591D01*
X83300429Y-60629139D01*
X83287333Y-60827591D01*
X83261213Y-61007875D01*
X83158125Y-61071922D01*
X83096833Y-61075823D01*
X82788738Y-61099852D01*
X82613260Y-61185335D01*
X82537203Y-61359383D01*
X82525333Y-61542558D01*
X82525333Y-61906034D01*
X81953833Y-61996904D01*
X81556657Y-62059251D01*
X81133053Y-62124528D01*
X80874333Y-62163664D01*
X80594556Y-62205574D01*
X80384947Y-62237181D01*
X80302833Y-62249777D01*
X80265262Y-62180469D01*
X80242480Y-61993106D01*
X80239333Y-61873812D01*
X80239333Y-61487624D01*
X79519667Y-61595548D01*
X79549556Y-60848274D01*
X79566089Y-60511510D01*
X79584908Y-60245747D01*
X79602901Y-60091313D01*
X79609700Y-60069078D01*
X79704267Y-60035389D01*
X79904546Y-59989524D01*
X79987720Y-59973563D01*
X80335486Y-59909970D01*
X80308577Y-60661846D01*
X80281667Y-61413722D01*
X80519875Y-61413528D01*
X80702691Y-61400586D01*
X81004674Y-61365861D01*
X81377936Y-61315233D01*
X81641708Y-61275711D01*
X82525333Y-61138088D01*
X82525333Y-60889145D01*
X82565400Y-60574376D01*
X82698457Y-60390680D01*
X82943791Y-60316677D01*
X83045371Y-60312667D01*
X83263547Y-60324736D01*
X83347186Y-60371207D01*
X83536511Y-60371207D01*
X83562712Y-60082267D01*
X83149856Y-60150087D01*
X82875667Y-60191335D01*
X82653946Y-60218152D01*
X82588833Y-60222953D01*
X82464050Y-60297304D01*
X82440667Y-60397333D01*
X82387727Y-60535237D01*
X82313667Y-60566667D01*
X82212556Y-60641918D01*
X82186667Y-60810926D01*
X82180106Y-60931095D01*
X82138055Y-61009361D01*
X82026957Y-61062209D01*
X81813257Y-61106125D01*
X81488167Y-61154089D01*
X81144537Y-61205458D01*
X80852696Y-61253987D01*
X80663773Y-61291035D01*
X80637063Y-61297943D01*
X80552109Y-61305666D01*
X80510254Y-61240685D01*
X80501441Y-61067848D01*
X80510063Y-60853979D01*
X80522020Y-60644960D01*
X80549412Y-60495309D01*
X80617771Y-60390764D01*
X80752628Y-60317063D01*
X80979513Y-60259945D01*
X81323959Y-60205148D01*
X81784500Y-60142093D01*
X82157949Y-60080376D01*
X82411286Y-60015325D01*
X82522201Y-59952973D01*
X82525333Y-59941738D01*
X82584130Y-59816219D01*
X82694667Y-59697312D01*
X82824509Y-59527318D01*
X82864000Y-59388889D01*
X82932731Y-59245288D01*
X83118000Y-59169666D01*
X83296082Y-59095837D01*
X83371970Y-58995478D01*
X83372000Y-58993606D01*
X83436296Y-58885609D01*
X83486577Y-58873333D01*
X83548605Y-58794004D01*
X83606378Y-58577365D01*
X83655413Y-58255441D01*
X83691227Y-57860255D01*
X83709338Y-57423832D01*
X83710667Y-57272449D01*
X83710667Y-57227726D01*
X83532359Y-57227726D01*
X83525983Y-57448888D01*
X83507837Y-57760055D01*
X83494998Y-57934808D01*
X83434826Y-58704000D01*
X83170580Y-58705296D01*
X82910523Y-58732724D01*
X82764109Y-58836343D01*
X82695342Y-59052996D01*
X82679335Y-59208073D01*
X82652333Y-59582365D01*
X82017333Y-59687501D01*
X81461746Y-59779127D01*
X81051424Y-59842007D01*
X80764378Y-59873821D01*
X80578615Y-59872251D01*
X80472144Y-59834981D01*
X80422974Y-59759692D01*
X80409112Y-59644066D01*
X80408667Y-59517947D01*
X80408667Y-59146560D01*
X80810833Y-59091400D01*
X81368489Y-59013661D01*
X81850326Y-58944032D01*
X82232056Y-58886173D01*
X82489391Y-58843742D01*
X82588833Y-58823517D01*
X82659006Y-58722956D01*
X82699296Y-58492254D01*
X82704433Y-58389157D01*
X82714092Y-58132309D01*
X82727379Y-57945091D01*
X82733870Y-57899667D01*
X82750374Y-57763739D01*
X82764934Y-57542144D01*
X82766438Y-57508648D01*
X82786265Y-57314704D01*
X82856627Y-57217448D01*
X83026405Y-57170200D01*
X83137546Y-57154249D01*
X83363764Y-57131051D01*
X83505960Y-57129920D01*
X83525465Y-57135909D01*
X83532359Y-57227726D01*
X83710667Y-57227726D01*
X83710667Y-56967113D01*
X83336654Y-56996859D01*
X82962642Y-57026606D01*
X83009136Y-56679969D01*
X83030872Y-56460623D01*
X83027717Y-56450464D01*
X82840020Y-56450464D01*
X82839478Y-56538149D01*
X82814306Y-56735910D01*
X82796568Y-56845946D01*
X82747647Y-57077937D01*
X82669747Y-57195359D01*
X82509138Y-57250177D01*
X82353781Y-57274206D01*
X82089136Y-57311468D01*
X81725195Y-57362710D01*
X81330341Y-57418305D01*
X81234167Y-57431847D01*
X80493333Y-57536157D01*
X80493333Y-57894300D01*
X80481040Y-58129080D01*
X80450263Y-58285290D01*
X80436889Y-58308889D01*
X80322749Y-58345219D01*
X80110673Y-58364428D01*
X80051021Y-58365333D01*
X79721597Y-58365333D01*
X79747632Y-58006230D01*
X79782865Y-57766525D01*
X79857502Y-57651466D01*
X79943000Y-57621934D01*
X80232000Y-57571557D01*
X80396237Y-57505638D01*
X80479102Y-57388697D01*
X80523989Y-57185256D01*
X80530675Y-57141444D01*
X80549964Y-56996752D01*
X80573811Y-56891205D01*
X80626581Y-56814828D01*
X80732638Y-56757648D01*
X80916348Y-56709691D01*
X81202076Y-56660982D01*
X81614185Y-56601548D01*
X81973901Y-56550652D01*
X82330077Y-56501967D01*
X82616491Y-56466933D01*
X82796706Y-56449764D01*
X82840020Y-56450464D01*
X83027717Y-56450464D01*
X82999975Y-56361158D01*
X82891003Y-56334319D01*
X82822514Y-56333333D01*
X82647327Y-56345467D01*
D11*
X119766666Y-81757143D02*
X119814285Y-81804762D01*
X119957142Y-81852381D01*
X120052380Y-81852381D01*
X120195238Y-81804762D01*
X120290476Y-81709524D01*
X120338095Y-81614286D01*
X120385714Y-81423810D01*
X120385714Y-81280952D01*
X120338095Y-81090476D01*
X120290476Y-80995238D01*
X120195238Y-80900000D01*
X120052380Y-80852381D01*
X119957142Y-80852381D01*
X119814285Y-80900000D01*
X119766666Y-80947619D01*
X118909523Y-80852381D02*
X119100000Y-80852381D01*
X119195238Y-80900000D01*
X119242857Y-80947619D01*
X119338095Y-81090476D01*
X119385714Y-81280952D01*
X119385714Y-81661905D01*
X119338095Y-81757143D01*
X119290476Y-81804762D01*
X119195238Y-81852381D01*
X119004761Y-81852381D01*
X118909523Y-81804762D01*
X118861904Y-81757143D01*
X118814285Y-81661905D01*
X118814285Y-81423810D01*
X118861904Y-81328571D01*
X118909523Y-81280952D01*
X119004761Y-81233333D01*
X119195238Y-81233333D01*
X119290476Y-81280952D01*
X119338095Y-81328571D01*
X119385714Y-81423810D01*
X68542857Y-74952381D02*
X68876191Y-74476190D01*
X69114286Y-74952381D02*
X69114286Y-73952381D01*
X68733333Y-73952381D01*
X68638095Y-74000000D01*
X68590476Y-74047619D01*
X68542857Y-74142857D01*
X68542857Y-74285714D01*
X68590476Y-74380952D01*
X68638095Y-74428571D01*
X68733333Y-74476190D01*
X69114286Y-74476190D01*
X67590476Y-74952381D02*
X68161905Y-74952381D01*
X67876191Y-74952381D02*
X67876191Y-73952381D01*
X67971429Y-74095238D01*
X68066667Y-74190476D01*
X68161905Y-74238095D01*
X67019048Y-74380952D02*
X67114286Y-74333333D01*
X67161905Y-74285714D01*
X67209524Y-74190476D01*
X67209524Y-74142857D01*
X67161905Y-74047619D01*
X67114286Y-74000000D01*
X67019048Y-73952381D01*
X66828571Y-73952381D01*
X66733333Y-74000000D01*
X66685714Y-74047619D01*
X66638095Y-74142857D01*
X66638095Y-74190476D01*
X66685714Y-74285714D01*
X66733333Y-74333333D01*
X66828571Y-74380952D01*
X67019048Y-74380952D01*
X67114286Y-74428571D01*
X67161905Y-74476190D01*
X67209524Y-74571429D01*
X67209524Y-74761905D01*
X67161905Y-74857143D01*
X67114286Y-74904762D01*
X67019048Y-74952381D01*
X66828571Y-74952381D01*
X66733333Y-74904762D01*
X66685714Y-74857143D01*
X66638095Y-74761905D01*
X66638095Y-74571429D01*
X66685714Y-74476190D01*
X66733333Y-74428571D01*
X66828571Y-74380952D01*
X70342857Y-76652381D02*
X70676191Y-76176190D01*
X70914286Y-76652381D02*
X70914286Y-75652381D01*
X70533333Y-75652381D01*
X70438095Y-75700000D01*
X70390476Y-75747619D01*
X70342857Y-75842857D01*
X70342857Y-75985714D01*
X70390476Y-76080952D01*
X70438095Y-76128571D01*
X70533333Y-76176190D01*
X70914286Y-76176190D01*
X69390476Y-76652381D02*
X69961905Y-76652381D01*
X69676191Y-76652381D02*
X69676191Y-75652381D01*
X69771429Y-75795238D01*
X69866667Y-75890476D01*
X69961905Y-75938095D01*
X69057143Y-75652381D02*
X68390476Y-75652381D01*
X68819048Y-76652381D01*
X126986162Y-54099089D02*
X127033781Y-54146708D01*
X127176638Y-54194327D01*
X127271876Y-54194327D01*
X127414734Y-54146708D01*
X127509972Y-54051470D01*
X127557591Y-53956232D01*
X127605210Y-53765756D01*
X127605210Y-53622898D01*
X127557591Y-53432422D01*
X127509972Y-53337184D01*
X127414734Y-53241946D01*
X127271876Y-53194327D01*
X127176638Y-53194327D01*
X127033781Y-53241946D01*
X126986162Y-53289565D01*
X126033781Y-54194327D02*
X126605210Y-54194327D01*
X126319496Y-54194327D02*
X126319496Y-53194327D01*
X126414734Y-53337184D01*
X126509972Y-53432422D01*
X126605210Y-53480041D01*
X112757143Y-89633334D02*
X112804762Y-89585715D01*
X112852381Y-89442858D01*
X112852381Y-89347620D01*
X112804762Y-89204762D01*
X112709524Y-89109524D01*
X112614286Y-89061905D01*
X112423810Y-89014286D01*
X112280952Y-89014286D01*
X112090476Y-89061905D01*
X111995238Y-89109524D01*
X111900000Y-89204762D01*
X111852381Y-89347620D01*
X111852381Y-89442858D01*
X111900000Y-89585715D01*
X111947619Y-89633334D01*
X111947619Y-90014286D02*
X111900000Y-90061905D01*
X111852381Y-90157143D01*
X111852381Y-90395239D01*
X111900000Y-90490477D01*
X111947619Y-90538096D01*
X112042857Y-90585715D01*
X112138095Y-90585715D01*
X112280952Y-90538096D01*
X112852381Y-89966667D01*
X112852381Y-90585715D01*
X110857143Y-91033334D02*
X110904762Y-90985715D01*
X110952381Y-90842858D01*
X110952381Y-90747620D01*
X110904762Y-90604762D01*
X110809524Y-90509524D01*
X110714286Y-90461905D01*
X110523810Y-90414286D01*
X110380952Y-90414286D01*
X110190476Y-90461905D01*
X110095238Y-90509524D01*
X110000000Y-90604762D01*
X109952381Y-90747620D01*
X109952381Y-90842858D01*
X110000000Y-90985715D01*
X110047619Y-91033334D01*
X109952381Y-91366667D02*
X109952381Y-91985715D01*
X110333333Y-91652381D01*
X110333333Y-91795239D01*
X110380952Y-91890477D01*
X110428571Y-91938096D01*
X110523810Y-91985715D01*
X110761905Y-91985715D01*
X110857143Y-91938096D01*
X110904762Y-91890477D01*
X110952381Y-91795239D01*
X110952381Y-91509524D01*
X110904762Y-91414286D01*
X110857143Y-91366667D01*
X98366666Y-71357143D02*
X98414285Y-71404762D01*
X98557142Y-71452381D01*
X98652380Y-71452381D01*
X98795238Y-71404762D01*
X98890476Y-71309524D01*
X98938095Y-71214286D01*
X98985714Y-71023810D01*
X98985714Y-70880952D01*
X98938095Y-70690476D01*
X98890476Y-70595238D01*
X98795238Y-70500000D01*
X98652380Y-70452381D01*
X98557142Y-70452381D01*
X98414285Y-70500000D01*
X98366666Y-70547619D01*
X97509523Y-70785714D02*
X97509523Y-71452381D01*
X97747619Y-70404762D02*
X97985714Y-71119048D01*
X97366666Y-71119048D01*
X122366666Y-58757143D02*
X122414285Y-58804762D01*
X122557142Y-58852381D01*
X122652380Y-58852381D01*
X122795238Y-58804762D01*
X122890476Y-58709524D01*
X122938095Y-58614286D01*
X122985714Y-58423810D01*
X122985714Y-58280952D01*
X122938095Y-58090476D01*
X122890476Y-57995238D01*
X122795238Y-57900000D01*
X122652380Y-57852381D01*
X122557142Y-57852381D01*
X122414285Y-57900000D01*
X122366666Y-57947619D01*
X121461904Y-57852381D02*
X121938095Y-57852381D01*
X121985714Y-58328571D01*
X121938095Y-58280952D01*
X121842857Y-58233333D01*
X121604761Y-58233333D01*
X121509523Y-58280952D01*
X121461904Y-58328571D01*
X121414285Y-58423810D01*
X121414285Y-58661905D01*
X121461904Y-58757143D01*
X121509523Y-58804762D01*
X121604761Y-58852381D01*
X121842857Y-58852381D01*
X121938095Y-58804762D01*
X121985714Y-58757143D01*
X113866666Y-72557143D02*
X113914285Y-72604762D01*
X114057142Y-72652381D01*
X114152380Y-72652381D01*
X114295238Y-72604762D01*
X114390476Y-72509524D01*
X114438095Y-72414286D01*
X114485714Y-72223810D01*
X114485714Y-72080952D01*
X114438095Y-71890476D01*
X114390476Y-71795238D01*
X114295238Y-71700000D01*
X114152380Y-71652381D01*
X114057142Y-71652381D01*
X113914285Y-71700000D01*
X113866666Y-71747619D01*
X113533333Y-71652381D02*
X112866666Y-71652381D01*
X113295238Y-72652381D01*
X136416666Y-60857143D02*
X136464285Y-60904762D01*
X136607142Y-60952381D01*
X136702380Y-60952381D01*
X136845238Y-60904762D01*
X136940476Y-60809524D01*
X136988095Y-60714286D01*
X137035714Y-60523810D01*
X137035714Y-60380952D01*
X136988095Y-60190476D01*
X136940476Y-60095238D01*
X136845238Y-60000000D01*
X136702380Y-59952381D01*
X136607142Y-59952381D01*
X136464285Y-60000000D01*
X136416666Y-60047619D01*
X135940476Y-60952381D02*
X135750000Y-60952381D01*
X135654761Y-60904762D01*
X135607142Y-60857143D01*
X135511904Y-60714286D01*
X135464285Y-60523810D01*
X135464285Y-60142857D01*
X135511904Y-60047619D01*
X135559523Y-60000000D01*
X135654761Y-59952381D01*
X135845238Y-59952381D01*
X135940476Y-60000000D01*
X135988095Y-60047619D01*
X136035714Y-60142857D01*
X136035714Y-60380952D01*
X135988095Y-60476190D01*
X135940476Y-60523810D01*
X135845238Y-60571429D01*
X135654761Y-60571429D01*
X135559523Y-60523810D01*
X135511904Y-60476190D01*
X135464285Y-60380952D01*
X141138095Y-82452381D02*
X141138095Y-81452381D01*
X140900000Y-81452381D01*
X140757142Y-81500000D01*
X140661904Y-81595238D01*
X140614285Y-81690476D01*
X140566666Y-81880952D01*
X140566666Y-82023810D01*
X140614285Y-82214286D01*
X140661904Y-82309524D01*
X140757142Y-82404762D01*
X140900000Y-82452381D01*
X141138095Y-82452381D01*
X139614285Y-82452381D02*
X140185714Y-82452381D01*
X139900000Y-82452381D02*
X139900000Y-81452381D01*
X139995238Y-81595238D01*
X140090476Y-81690476D01*
X140185714Y-81738095D01*
X141338095Y-70452381D02*
X141338095Y-69452381D01*
X141100000Y-69452381D01*
X140957142Y-69500000D01*
X140861904Y-69595238D01*
X140814285Y-69690476D01*
X140766666Y-69880952D01*
X140766666Y-70023810D01*
X140814285Y-70214286D01*
X140861904Y-70309524D01*
X140957142Y-70404762D01*
X141100000Y-70452381D01*
X141338095Y-70452381D01*
X140385714Y-69547619D02*
X140338095Y-69500000D01*
X140242857Y-69452381D01*
X140004761Y-69452381D01*
X139909523Y-69500000D01*
X139861904Y-69547619D01*
X139814285Y-69642857D01*
X139814285Y-69738095D01*
X139861904Y-69880952D01*
X140433333Y-70452381D01*
X139814285Y-70452381D01*
X141185862Y-63452381D02*
X141185862Y-62452381D01*
X140947767Y-62452381D01*
X140804909Y-62500000D01*
X140709671Y-62595238D01*
X140662052Y-62690476D01*
X140614433Y-62880952D01*
X140614433Y-63023810D01*
X140662052Y-63214286D01*
X140709671Y-63309524D01*
X140804909Y-63404762D01*
X140947767Y-63452381D01*
X141185862Y-63452381D01*
X140281100Y-62452381D02*
X139662052Y-62452381D01*
X139995386Y-62833333D01*
X139852528Y-62833333D01*
X139757290Y-62880952D01*
X139709671Y-62928571D01*
X139662052Y-63023810D01*
X139662052Y-63261905D01*
X139709671Y-63357143D01*
X139757290Y-63404762D01*
X139852528Y-63452381D01*
X140138243Y-63452381D01*
X140233481Y-63404762D01*
X140281100Y-63357143D01*
X141285862Y-55852381D02*
X141285862Y-54852381D01*
X141047767Y-54852381D01*
X140904909Y-54900000D01*
X140809671Y-54995238D01*
X140762052Y-55090476D01*
X140714433Y-55280952D01*
X140714433Y-55423810D01*
X140762052Y-55614286D01*
X140809671Y-55709524D01*
X140904909Y-55804762D01*
X141047767Y-55852381D01*
X141285862Y-55852381D01*
X139857290Y-55185714D02*
X139857290Y-55852381D01*
X140095386Y-54804762D02*
X140333481Y-55519048D01*
X139714433Y-55519048D01*
X130966666Y-92652381D02*
X131300000Y-92176190D01*
X131538095Y-92652381D02*
X131538095Y-91652381D01*
X131157142Y-91652381D01*
X131061904Y-91700000D01*
X131014285Y-91747619D01*
X130966666Y-91842857D01*
X130966666Y-91985714D01*
X131014285Y-92080952D01*
X131061904Y-92128571D01*
X131157142Y-92176190D01*
X131538095Y-92176190D01*
X130014285Y-92652381D02*
X130585714Y-92652381D01*
X130300000Y-92652381D02*
X130300000Y-91652381D01*
X130395238Y-91795238D01*
X130490476Y-91890476D01*
X130585714Y-91938095D01*
X138614433Y-83538416D02*
X138947767Y-83062225D01*
X139185862Y-83538416D02*
X139185862Y-82538416D01*
X138804909Y-82538416D01*
X138709671Y-82586035D01*
X138662052Y-82633654D01*
X138614433Y-82728892D01*
X138614433Y-82871749D01*
X138662052Y-82966987D01*
X138709671Y-83014606D01*
X138804909Y-83062225D01*
X139185862Y-83062225D01*
X138233481Y-82633654D02*
X138185862Y-82586035D01*
X138090624Y-82538416D01*
X137852528Y-82538416D01*
X137757290Y-82586035D01*
X137709671Y-82633654D01*
X137662052Y-82728892D01*
X137662052Y-82824130D01*
X137709671Y-82966987D01*
X138281100Y-83538416D01*
X137662052Y-83538416D01*
X138614433Y-70138416D02*
X138947767Y-69662225D01*
X139185862Y-70138416D02*
X139185862Y-69138416D01*
X138804909Y-69138416D01*
X138709671Y-69186035D01*
X138662052Y-69233654D01*
X138614433Y-69328892D01*
X138614433Y-69471749D01*
X138662052Y-69566987D01*
X138709671Y-69614606D01*
X138804909Y-69662225D01*
X139185862Y-69662225D01*
X138281100Y-69138416D02*
X137662052Y-69138416D01*
X137995386Y-69519368D01*
X137852528Y-69519368D01*
X137757290Y-69566987D01*
X137709671Y-69614606D01*
X137662052Y-69709845D01*
X137662052Y-69947940D01*
X137709671Y-70043178D01*
X137757290Y-70090797D01*
X137852528Y-70138416D01*
X138138243Y-70138416D01*
X138233481Y-70090797D01*
X138281100Y-70043178D01*
X138614433Y-62938416D02*
X138947767Y-62462225D01*
X139185862Y-62938416D02*
X139185862Y-61938416D01*
X138804909Y-61938416D01*
X138709671Y-61986035D01*
X138662052Y-62033654D01*
X138614433Y-62128892D01*
X138614433Y-62271749D01*
X138662052Y-62366987D01*
X138709671Y-62414606D01*
X138804909Y-62462225D01*
X139185862Y-62462225D01*
X137757290Y-62271749D02*
X137757290Y-62938416D01*
X137995386Y-61890797D02*
X138233481Y-62605083D01*
X137614433Y-62605083D01*
X138766666Y-54938416D02*
X139100000Y-54462225D01*
X139338095Y-54938416D02*
X139338095Y-53938416D01*
X138957142Y-53938416D01*
X138861904Y-53986035D01*
X138814285Y-54033654D01*
X138766666Y-54128892D01*
X138766666Y-54271749D01*
X138814285Y-54366987D01*
X138861904Y-54414606D01*
X138957142Y-54462225D01*
X139338095Y-54462225D01*
X137861904Y-53938416D02*
X138338095Y-53938416D01*
X138385714Y-54414606D01*
X138338095Y-54366987D01*
X138242857Y-54319368D01*
X138004761Y-54319368D01*
X137909523Y-54366987D01*
X137861904Y-54414606D01*
X137814285Y-54509845D01*
X137814285Y-54747940D01*
X137861904Y-54843178D01*
X137909523Y-54890797D01*
X138004761Y-54938416D01*
X138242857Y-54938416D01*
X138338095Y-54890797D01*
X138385714Y-54843178D01*
X142296666Y-74932381D02*
X142630000Y-74456190D01*
X142868095Y-74932381D02*
X142868095Y-73932381D01*
X142487142Y-73932381D01*
X142391904Y-73980000D01*
X142344285Y-74027619D01*
X142296666Y-74122857D01*
X142296666Y-74265714D01*
X142344285Y-74360952D01*
X142391904Y-74408571D01*
X142487142Y-74456190D01*
X142868095Y-74456190D01*
X141439523Y-73932381D02*
X141630000Y-73932381D01*
X141725238Y-73980000D01*
X141772857Y-74027619D01*
X141868095Y-74170476D01*
X141915714Y-74360952D01*
X141915714Y-74741905D01*
X141868095Y-74837143D01*
X141820476Y-74884762D01*
X141725238Y-74932381D01*
X141534761Y-74932381D01*
X141439523Y-74884762D01*
X141391904Y-74837143D01*
X141344285Y-74741905D01*
X141344285Y-74503810D01*
X141391904Y-74408571D01*
X141439523Y-74360952D01*
X141534761Y-74313333D01*
X141725238Y-74313333D01*
X141820476Y-74360952D01*
X141868095Y-74408571D01*
X141915714Y-74503810D01*
X108366666Y-68952381D02*
X108700000Y-68476190D01*
X108938095Y-68952381D02*
X108938095Y-67952381D01*
X108557142Y-67952381D01*
X108461904Y-68000000D01*
X108414285Y-68047619D01*
X108366666Y-68142857D01*
X108366666Y-68285714D01*
X108414285Y-68380952D01*
X108461904Y-68428571D01*
X108557142Y-68476190D01*
X108938095Y-68476190D01*
X108033333Y-67952381D02*
X107366666Y-67952381D01*
X107795238Y-68952381D01*
X105966666Y-68652381D02*
X106300000Y-68176190D01*
X106538095Y-68652381D02*
X106538095Y-67652381D01*
X106157142Y-67652381D01*
X106061904Y-67700000D01*
X106014285Y-67747619D01*
X105966666Y-67842857D01*
X105966666Y-67985714D01*
X106014285Y-68080952D01*
X106061904Y-68128571D01*
X106157142Y-68176190D01*
X106538095Y-68176190D01*
X105395238Y-68080952D02*
X105490476Y-68033333D01*
X105538095Y-67985714D01*
X105585714Y-67890476D01*
X105585714Y-67842857D01*
X105538095Y-67747619D01*
X105490476Y-67700000D01*
X105395238Y-67652381D01*
X105204761Y-67652381D01*
X105109523Y-67700000D01*
X105061904Y-67747619D01*
X105014285Y-67842857D01*
X105014285Y-67890476D01*
X105061904Y-67985714D01*
X105109523Y-68033333D01*
X105204761Y-68080952D01*
X105395238Y-68080952D01*
X105490476Y-68128571D01*
X105538095Y-68176190D01*
X105585714Y-68271429D01*
X105585714Y-68461905D01*
X105538095Y-68557143D01*
X105490476Y-68604762D01*
X105395238Y-68652381D01*
X105204761Y-68652381D01*
X105109523Y-68604762D01*
X105061904Y-68557143D01*
X105014285Y-68461905D01*
X105014285Y-68271429D01*
X105061904Y-68176190D01*
X105109523Y-68128571D01*
X105204761Y-68080952D01*
X136766666Y-55852381D02*
X137100000Y-55376190D01*
X137338095Y-55852381D02*
X137338095Y-54852381D01*
X136957142Y-54852381D01*
X136861904Y-54900000D01*
X136814285Y-54947619D01*
X136766666Y-55042857D01*
X136766666Y-55185714D01*
X136814285Y-55280952D01*
X136861904Y-55328571D01*
X136957142Y-55376190D01*
X137338095Y-55376190D01*
X136290476Y-55852381D02*
X136100000Y-55852381D01*
X136004761Y-55804762D01*
X135957142Y-55757143D01*
X135861904Y-55614286D01*
X135814285Y-55423810D01*
X135814285Y-55042857D01*
X135861904Y-54947619D01*
X135909523Y-54900000D01*
X136004761Y-54852381D01*
X136195238Y-54852381D01*
X136290476Y-54900000D01*
X136338095Y-54947619D01*
X136385714Y-55042857D01*
X136385714Y-55280952D01*
X136338095Y-55376190D01*
X136290476Y-55423810D01*
X136195238Y-55471429D01*
X136004761Y-55471429D01*
X135909523Y-55423810D01*
X135861904Y-55376190D01*
X135814285Y-55280952D01*
X113682857Y-58792381D02*
X114016191Y-58316190D01*
X114254286Y-58792381D02*
X114254286Y-57792381D01*
X113873333Y-57792381D01*
X113778095Y-57840000D01*
X113730476Y-57887619D01*
X113682857Y-57982857D01*
X113682857Y-58125714D01*
X113730476Y-58220952D01*
X113778095Y-58268571D01*
X113873333Y-58316190D01*
X114254286Y-58316190D01*
X112730476Y-58792381D02*
X113301905Y-58792381D01*
X113016191Y-58792381D02*
X113016191Y-57792381D01*
X113111429Y-57935238D01*
X113206667Y-58030476D01*
X113301905Y-58078095D01*
X112111429Y-57792381D02*
X112016190Y-57792381D01*
X111920952Y-57840000D01*
X111873333Y-57887619D01*
X111825714Y-57982857D01*
X111778095Y-58173333D01*
X111778095Y-58411429D01*
X111825714Y-58601905D01*
X111873333Y-58697143D01*
X111920952Y-58744762D01*
X112016190Y-58792381D01*
X112111429Y-58792381D01*
X112206667Y-58744762D01*
X112254286Y-58697143D01*
X112301905Y-58601905D01*
X112349524Y-58411429D01*
X112349524Y-58173333D01*
X112301905Y-57982857D01*
X112254286Y-57887619D01*
X112206667Y-57840000D01*
X112111429Y-57792381D01*
X104742857Y-85452381D02*
X105076191Y-84976190D01*
X105314286Y-85452381D02*
X105314286Y-84452381D01*
X104933333Y-84452381D01*
X104838095Y-84500000D01*
X104790476Y-84547619D01*
X104742857Y-84642857D01*
X104742857Y-84785714D01*
X104790476Y-84880952D01*
X104838095Y-84928571D01*
X104933333Y-84976190D01*
X105314286Y-84976190D01*
X103790476Y-85452381D02*
X104361905Y-85452381D01*
X104076191Y-85452381D02*
X104076191Y-84452381D01*
X104171429Y-84595238D01*
X104266667Y-84690476D01*
X104361905Y-84738095D01*
X102838095Y-85452381D02*
X103409524Y-85452381D01*
X103123810Y-85452381D02*
X103123810Y-84452381D01*
X103219048Y-84595238D01*
X103314286Y-84690476D01*
X103409524Y-84738095D01*
X105042857Y-82952381D02*
X105376191Y-82476190D01*
X105614286Y-82952381D02*
X105614286Y-81952381D01*
X105233333Y-81952381D01*
X105138095Y-82000000D01*
X105090476Y-82047619D01*
X105042857Y-82142857D01*
X105042857Y-82285714D01*
X105090476Y-82380952D01*
X105138095Y-82428571D01*
X105233333Y-82476190D01*
X105614286Y-82476190D01*
X104090476Y-82952381D02*
X104661905Y-82952381D01*
X104376191Y-82952381D02*
X104376191Y-81952381D01*
X104471429Y-82095238D01*
X104566667Y-82190476D01*
X104661905Y-82238095D01*
X103709524Y-82047619D02*
X103661905Y-82000000D01*
X103566667Y-81952381D01*
X103328571Y-81952381D01*
X103233333Y-82000000D01*
X103185714Y-82047619D01*
X103138095Y-82142857D01*
X103138095Y-82238095D01*
X103185714Y-82380952D01*
X103757143Y-82952381D01*
X103138095Y-82952381D01*
X104242857Y-90452381D02*
X104576191Y-89976190D01*
X104814286Y-90452381D02*
X104814286Y-89452381D01*
X104433333Y-89452381D01*
X104338095Y-89500000D01*
X104290476Y-89547619D01*
X104242857Y-89642857D01*
X104242857Y-89785714D01*
X104290476Y-89880952D01*
X104338095Y-89928571D01*
X104433333Y-89976190D01*
X104814286Y-89976190D01*
X103290476Y-90452381D02*
X103861905Y-90452381D01*
X103576191Y-90452381D02*
X103576191Y-89452381D01*
X103671429Y-89595238D01*
X103766667Y-89690476D01*
X103861905Y-89738095D01*
X102957143Y-89452381D02*
X102338095Y-89452381D01*
X102671429Y-89833333D01*
X102528571Y-89833333D01*
X102433333Y-89880952D01*
X102385714Y-89928571D01*
X102338095Y-90023810D01*
X102338095Y-90261905D01*
X102385714Y-90357143D01*
X102433333Y-90404762D01*
X102528571Y-90452381D01*
X102814286Y-90452381D01*
X102909524Y-90404762D01*
X102957143Y-90357143D01*
X108242857Y-91452381D02*
X108576191Y-90976190D01*
X108814286Y-91452381D02*
X108814286Y-90452381D01*
X108433333Y-90452381D01*
X108338095Y-90500000D01*
X108290476Y-90547619D01*
X108242857Y-90642857D01*
X108242857Y-90785714D01*
X108290476Y-90880952D01*
X108338095Y-90928571D01*
X108433333Y-90976190D01*
X108814286Y-90976190D01*
X107290476Y-91452381D02*
X107861905Y-91452381D01*
X107576191Y-91452381D02*
X107576191Y-90452381D01*
X107671429Y-90595238D01*
X107766667Y-90690476D01*
X107861905Y-90738095D01*
X106433333Y-90785714D02*
X106433333Y-91452381D01*
X106671429Y-90404762D02*
X106909524Y-91119048D01*
X106290476Y-91119048D01*
X92142857Y-75452381D02*
X92476191Y-74976190D01*
X92714286Y-75452381D02*
X92714286Y-74452381D01*
X92333333Y-74452381D01*
X92238095Y-74500000D01*
X92190476Y-74547619D01*
X92142857Y-74642857D01*
X92142857Y-74785714D01*
X92190476Y-74880952D01*
X92238095Y-74928571D01*
X92333333Y-74976190D01*
X92714286Y-74976190D01*
X91190476Y-75452381D02*
X91761905Y-75452381D01*
X91476191Y-75452381D02*
X91476191Y-74452381D01*
X91571429Y-74595238D01*
X91666667Y-74690476D01*
X91761905Y-74738095D01*
X90285714Y-74452381D02*
X90761905Y-74452381D01*
X90809524Y-74928571D01*
X90761905Y-74880952D01*
X90666667Y-74833333D01*
X90428571Y-74833333D01*
X90333333Y-74880952D01*
X90285714Y-74928571D01*
X90238095Y-75023810D01*
X90238095Y-75261905D01*
X90285714Y-75357143D01*
X90333333Y-75404762D01*
X90428571Y-75452381D01*
X90666667Y-75452381D01*
X90761905Y-75404762D01*
X90809524Y-75357143D01*
X92142857Y-73452381D02*
X92476191Y-72976190D01*
X92714286Y-73452381D02*
X92714286Y-72452381D01*
X92333333Y-72452381D01*
X92238095Y-72500000D01*
X92190476Y-72547619D01*
X92142857Y-72642857D01*
X92142857Y-72785714D01*
X92190476Y-72880952D01*
X92238095Y-72928571D01*
X92333333Y-72976190D01*
X92714286Y-72976190D01*
X91190476Y-73452381D02*
X91761905Y-73452381D01*
X91476191Y-73452381D02*
X91476191Y-72452381D01*
X91571429Y-72595238D01*
X91666667Y-72690476D01*
X91761905Y-72738095D01*
X90333333Y-72452381D02*
X90523810Y-72452381D01*
X90619048Y-72500000D01*
X90666667Y-72547619D01*
X90761905Y-72690476D01*
X90809524Y-72880952D01*
X90809524Y-73261905D01*
X90761905Y-73357143D01*
X90714286Y-73404762D01*
X90619048Y-73452381D01*
X90428571Y-73452381D01*
X90333333Y-73404762D01*
X90285714Y-73357143D01*
X90238095Y-73261905D01*
X90238095Y-73023810D01*
X90285714Y-72928571D01*
X90333333Y-72880952D01*
X90428571Y-72833333D01*
X90619048Y-72833333D01*
X90714286Y-72880952D01*
X90761905Y-72928571D01*
X90809524Y-73023810D01*
X104442857Y-80552381D02*
X104776191Y-80076190D01*
X105014286Y-80552381D02*
X105014286Y-79552381D01*
X104633333Y-79552381D01*
X104538095Y-79600000D01*
X104490476Y-79647619D01*
X104442857Y-79742857D01*
X104442857Y-79885714D01*
X104490476Y-79980952D01*
X104538095Y-80028571D01*
X104633333Y-80076190D01*
X105014286Y-80076190D01*
X103490476Y-80552381D02*
X104061905Y-80552381D01*
X103776191Y-80552381D02*
X103776191Y-79552381D01*
X103871429Y-79695238D01*
X103966667Y-79790476D01*
X104061905Y-79838095D01*
X103014286Y-80552381D02*
X102823810Y-80552381D01*
X102728571Y-80504762D01*
X102680952Y-80457143D01*
X102585714Y-80314286D01*
X102538095Y-80123810D01*
X102538095Y-79742857D01*
X102585714Y-79647619D01*
X102633333Y-79600000D01*
X102728571Y-79552381D01*
X102919048Y-79552381D01*
X103014286Y-79600000D01*
X103061905Y-79647619D01*
X103109524Y-79742857D01*
X103109524Y-79980952D01*
X103061905Y-80076190D01*
X103014286Y-80123810D01*
X102919048Y-80171429D01*
X102728571Y-80171429D01*
X102633333Y-80123810D01*
X102585714Y-80076190D01*
X102538095Y-79980952D01*
X127961905Y-79202381D02*
X127961905Y-80011905D01*
X127914286Y-80107143D01*
X127866667Y-80154762D01*
X127771429Y-80202381D01*
X127580952Y-80202381D01*
X127485714Y-80154762D01*
X127438095Y-80107143D01*
X127390476Y-80011905D01*
X127390476Y-79202381D01*
X126390476Y-80202381D02*
X126961905Y-80202381D01*
X126676191Y-80202381D02*
X126676191Y-79202381D01*
X126771429Y-79345238D01*
X126866667Y-79440476D01*
X126961905Y-79488095D01*
X117911905Y-90402381D02*
X117911905Y-91211905D01*
X117864286Y-91307143D01*
X117816667Y-91354762D01*
X117721429Y-91402381D01*
X117530952Y-91402381D01*
X117435714Y-91354762D01*
X117388095Y-91307143D01*
X117340476Y-91211905D01*
X117340476Y-90402381D01*
X116911905Y-90497619D02*
X116864286Y-90450000D01*
X116769048Y-90402381D01*
X116530952Y-90402381D01*
X116435714Y-90450000D01*
X116388095Y-90497619D01*
X116340476Y-90592857D01*
X116340476Y-90688095D01*
X116388095Y-90830952D01*
X116959524Y-91402381D01*
X116340476Y-91402381D01*
X127495687Y-61318136D02*
X127495687Y-61794327D01*
X127829020Y-60794327D02*
X127495687Y-61318136D01*
X127162353Y-60794327D01*
X126305210Y-61794327D02*
X126876639Y-61794327D01*
X126590925Y-61794327D02*
X126590925Y-60794327D01*
X126686163Y-60937184D01*
X126781401Y-61032422D01*
X126876639Y-61080041D01*
X130366666Y-56557143D02*
X130414285Y-56604762D01*
X130557142Y-56652381D01*
X130652380Y-56652381D01*
X130795238Y-56604762D01*
X130890476Y-56509524D01*
X130938095Y-56414286D01*
X130985714Y-56223810D01*
X130985714Y-56080952D01*
X130938095Y-55890476D01*
X130890476Y-55795238D01*
X130795238Y-55700000D01*
X130652380Y-55652381D01*
X130557142Y-55652381D01*
X130414285Y-55700000D01*
X130366666Y-55747619D01*
X129795238Y-56080952D02*
X129890476Y-56033333D01*
X129938095Y-55985714D01*
X129985714Y-55890476D01*
X129985714Y-55842857D01*
X129938095Y-55747619D01*
X129890476Y-55700000D01*
X129795238Y-55652381D01*
X129604761Y-55652381D01*
X129509523Y-55700000D01*
X129461904Y-55747619D01*
X129414285Y-55842857D01*
X129414285Y-55890476D01*
X129461904Y-55985714D01*
X129509523Y-56033333D01*
X129604761Y-56080952D01*
X129795238Y-56080952D01*
X129890476Y-56128571D01*
X129938095Y-56176190D01*
X129985714Y-56271429D01*
X129985714Y-56461905D01*
X129938095Y-56557143D01*
X129890476Y-56604762D01*
X129795238Y-56652381D01*
X129604761Y-56652381D01*
X129509523Y-56604762D01*
X129461904Y-56557143D01*
X129414285Y-56461905D01*
X129414285Y-56271429D01*
X129461904Y-56176190D01*
X129509523Y-56128571D01*
X129604761Y-56080952D01*
X119642857Y-83557143D02*
X119690476Y-83604762D01*
X119833333Y-83652381D01*
X119928571Y-83652381D01*
X120071429Y-83604762D01*
X120166667Y-83509524D01*
X120214286Y-83414286D01*
X120261905Y-83223810D01*
X120261905Y-83080952D01*
X120214286Y-82890476D01*
X120166667Y-82795238D01*
X120071429Y-82700000D01*
X119928571Y-82652381D01*
X119833333Y-82652381D01*
X119690476Y-82700000D01*
X119642857Y-82747619D01*
X118690476Y-83652381D02*
X119261905Y-83652381D01*
X118976191Y-83652381D02*
X118976191Y-82652381D01*
X119071429Y-82795238D01*
X119166667Y-82890476D01*
X119261905Y-82938095D01*
X118071429Y-82652381D02*
X117976190Y-82652381D01*
X117880952Y-82700000D01*
X117833333Y-82747619D01*
X117785714Y-82842857D01*
X117738095Y-83033333D01*
X117738095Y-83271429D01*
X117785714Y-83461905D01*
X117833333Y-83557143D01*
X117880952Y-83604762D01*
X117976190Y-83652381D01*
X118071429Y-83652381D01*
X118166667Y-83604762D01*
X118214286Y-83557143D01*
X118261905Y-83461905D01*
X118309524Y-83271429D01*
X118309524Y-83033333D01*
X118261905Y-82842857D01*
X118214286Y-82747619D01*
X118166667Y-82700000D01*
X118071429Y-82652381D01*
X101442857Y-70557143D02*
X101490476Y-70604762D01*
X101633333Y-70652381D01*
X101728571Y-70652381D01*
X101871429Y-70604762D01*
X101966667Y-70509524D01*
X102014286Y-70414286D01*
X102061905Y-70223810D01*
X102061905Y-70080952D01*
X102014286Y-69890476D01*
X101966667Y-69795238D01*
X101871429Y-69700000D01*
X101728571Y-69652381D01*
X101633333Y-69652381D01*
X101490476Y-69700000D01*
X101442857Y-69747619D01*
X100490476Y-70652381D02*
X101061905Y-70652381D01*
X100776191Y-70652381D02*
X100776191Y-69652381D01*
X100871429Y-69795238D01*
X100966667Y-69890476D01*
X101061905Y-69938095D01*
X99538095Y-70652381D02*
X100109524Y-70652381D01*
X99823810Y-70652381D02*
X99823810Y-69652381D01*
X99919048Y-69795238D01*
X100014286Y-69890476D01*
X100109524Y-69938095D01*
X136442857Y-79557143D02*
X136490476Y-79604762D01*
X136633333Y-79652381D01*
X136728571Y-79652381D01*
X136871429Y-79604762D01*
X136966667Y-79509524D01*
X137014286Y-79414286D01*
X137061905Y-79223810D01*
X137061905Y-79080952D01*
X137014286Y-78890476D01*
X136966667Y-78795238D01*
X136871429Y-78700000D01*
X136728571Y-78652381D01*
X136633333Y-78652381D01*
X136490476Y-78700000D01*
X136442857Y-78747619D01*
X135490476Y-79652381D02*
X136061905Y-79652381D01*
X135776191Y-79652381D02*
X135776191Y-78652381D01*
X135871429Y-78795238D01*
X135966667Y-78890476D01*
X136061905Y-78938095D01*
X135109524Y-78747619D02*
X135061905Y-78700000D01*
X134966667Y-78652381D01*
X134728571Y-78652381D01*
X134633333Y-78700000D01*
X134585714Y-78747619D01*
X134538095Y-78842857D01*
X134538095Y-78938095D01*
X134585714Y-79080952D01*
X135157143Y-79652381D01*
X134538095Y-79652381D01*
X101161905Y-77252381D02*
X101161905Y-78061905D01*
X101114286Y-78157143D01*
X101066667Y-78204762D01*
X100971429Y-78252381D01*
X100780952Y-78252381D01*
X100685714Y-78204762D01*
X100638095Y-78157143D01*
X100590476Y-78061905D01*
X100590476Y-77252381D01*
X100209524Y-77252381D02*
X99590476Y-77252381D01*
X99923810Y-77633333D01*
X99780952Y-77633333D01*
X99685714Y-77680952D01*
X99638095Y-77728571D01*
X99590476Y-77823810D01*
X99590476Y-78061905D01*
X99638095Y-78157143D01*
X99685714Y-78204762D01*
X99780952Y-78252381D01*
X100066667Y-78252381D01*
X100161905Y-78204762D01*
X100209524Y-78157143D01*
X123642857Y-84752381D02*
X123976191Y-84276190D01*
X124214286Y-84752381D02*
X124214286Y-83752381D01*
X123833333Y-83752381D01*
X123738095Y-83800000D01*
X123690476Y-83847619D01*
X123642857Y-83942857D01*
X123642857Y-84085714D01*
X123690476Y-84180952D01*
X123738095Y-84228571D01*
X123833333Y-84276190D01*
X124214286Y-84276190D01*
X123261905Y-83847619D02*
X123214286Y-83800000D01*
X123119048Y-83752381D01*
X122880952Y-83752381D01*
X122785714Y-83800000D01*
X122738095Y-83847619D01*
X122690476Y-83942857D01*
X122690476Y-84038095D01*
X122738095Y-84180952D01*
X123309524Y-84752381D01*
X122690476Y-84752381D01*
X122071429Y-83752381D02*
X121976190Y-83752381D01*
X121880952Y-83800000D01*
X121833333Y-83847619D01*
X121785714Y-83942857D01*
X121738095Y-84133333D01*
X121738095Y-84371429D01*
X121785714Y-84561905D01*
X121833333Y-84657143D01*
X121880952Y-84704762D01*
X121976190Y-84752381D01*
X122071429Y-84752381D01*
X122166667Y-84704762D01*
X122214286Y-84657143D01*
X122261905Y-84561905D01*
X122309524Y-84371429D01*
X122309524Y-84133333D01*
X122261905Y-83942857D01*
X122214286Y-83847619D01*
X122166667Y-83800000D01*
X122071429Y-83752381D01*
X108942857Y-79552381D02*
X109276191Y-79076190D01*
X109514286Y-79552381D02*
X109514286Y-78552381D01*
X109133333Y-78552381D01*
X109038095Y-78600000D01*
X108990476Y-78647619D01*
X108942857Y-78742857D01*
X108942857Y-78885714D01*
X108990476Y-78980952D01*
X109038095Y-79028571D01*
X109133333Y-79076190D01*
X109514286Y-79076190D01*
X108561905Y-78647619D02*
X108514286Y-78600000D01*
X108419048Y-78552381D01*
X108180952Y-78552381D01*
X108085714Y-78600000D01*
X108038095Y-78647619D01*
X107990476Y-78742857D01*
X107990476Y-78838095D01*
X108038095Y-78980952D01*
X108609524Y-79552381D01*
X107990476Y-79552381D01*
X107038095Y-79552381D02*
X107609524Y-79552381D01*
X107323810Y-79552381D02*
X107323810Y-78552381D01*
X107419048Y-78695238D01*
X107514286Y-78790476D01*
X107609524Y-78838095D01*
X110442857Y-75252381D02*
X110776191Y-74776190D01*
X111014286Y-75252381D02*
X111014286Y-74252381D01*
X110633333Y-74252381D01*
X110538095Y-74300000D01*
X110490476Y-74347619D01*
X110442857Y-74442857D01*
X110442857Y-74585714D01*
X110490476Y-74680952D01*
X110538095Y-74728571D01*
X110633333Y-74776190D01*
X111014286Y-74776190D01*
X110061905Y-74347619D02*
X110014286Y-74300000D01*
X109919048Y-74252381D01*
X109680952Y-74252381D01*
X109585714Y-74300000D01*
X109538095Y-74347619D01*
X109490476Y-74442857D01*
X109490476Y-74538095D01*
X109538095Y-74680952D01*
X110109524Y-75252381D01*
X109490476Y-75252381D01*
X109109524Y-74347619D02*
X109061905Y-74300000D01*
X108966667Y-74252381D01*
X108728571Y-74252381D01*
X108633333Y-74300000D01*
X108585714Y-74347619D01*
X108538095Y-74442857D01*
X108538095Y-74538095D01*
X108585714Y-74680952D01*
X109157143Y-75252381D01*
X108538095Y-75252381D01*
X112557143Y-82757143D02*
X112604762Y-82709524D01*
X112652381Y-82566667D01*
X112652381Y-82471429D01*
X112604762Y-82328571D01*
X112509524Y-82233333D01*
X112414286Y-82185714D01*
X112223810Y-82138095D01*
X112080952Y-82138095D01*
X111890476Y-82185714D01*
X111795238Y-82233333D01*
X111700000Y-82328571D01*
X111652381Y-82471429D01*
X111652381Y-82566667D01*
X111700000Y-82709524D01*
X111747619Y-82757143D01*
X112652381Y-83709524D02*
X112652381Y-83138095D01*
X112652381Y-83423809D02*
X111652381Y-83423809D01*
X111795238Y-83328571D01*
X111890476Y-83233333D01*
X111938095Y-83138095D01*
X111652381Y-84042857D02*
X111652381Y-84661905D01*
X112033333Y-84328571D01*
X112033333Y-84471429D01*
X112080952Y-84566667D01*
X112128571Y-84614286D01*
X112223810Y-84661905D01*
X112461905Y-84661905D01*
X112557143Y-84614286D01*
X112604762Y-84566667D01*
X112652381Y-84471429D01*
X112652381Y-84185714D01*
X112604762Y-84090476D01*
X112557143Y-84042857D01*
M02*
