G04 #@! TF.FileFunction,Legend,Top*
%FSLAX46Y46*%
G04 Gerber Fmt 4.6, Leading zero omitted, Abs format (unit mm)*
G04 Created by KiCad (PCBNEW 4.0.4+dfsg1-stable) date Wed Dec 21 21:58:14 2016*
%MOMM*%
%LPD*%
G01*
G04 APERTURE LIST*
%ADD10C,0.100000*%
%ADD11C,0.150000*%
%ADD12C,0.381000*%
%ADD13C,0.152400*%
G04 APERTURE END LIST*
D10*
D11*
X54309524Y-114404762D02*
X54452381Y-114452381D01*
X54690477Y-114452381D01*
X54785715Y-114404762D01*
X54833334Y-114357143D01*
X54880953Y-114261905D01*
X54880953Y-114166667D01*
X54833334Y-114071429D01*
X54785715Y-114023810D01*
X54690477Y-113976190D01*
X54500000Y-113928571D01*
X54404762Y-113880952D01*
X54357143Y-113833333D01*
X54309524Y-113738095D01*
X54309524Y-113642857D01*
X54357143Y-113547619D01*
X54404762Y-113500000D01*
X54500000Y-113452381D01*
X54738096Y-113452381D01*
X54880953Y-113500000D01*
X55880953Y-114357143D02*
X55833334Y-114404762D01*
X55690477Y-114452381D01*
X55595239Y-114452381D01*
X55452381Y-114404762D01*
X55357143Y-114309524D01*
X55309524Y-114214286D01*
X55261905Y-114023810D01*
X55261905Y-113880952D01*
X55309524Y-113690476D01*
X55357143Y-113595238D01*
X55452381Y-113500000D01*
X55595239Y-113452381D01*
X55690477Y-113452381D01*
X55833334Y-113500000D01*
X55880953Y-113547619D01*
X56785715Y-114452381D02*
X56309524Y-114452381D01*
X56309524Y-113452381D01*
X54285714Y-111904762D02*
X54428571Y-111952381D01*
X54666667Y-111952381D01*
X54761905Y-111904762D01*
X54809524Y-111857143D01*
X54857143Y-111761905D01*
X54857143Y-111666667D01*
X54809524Y-111571429D01*
X54761905Y-111523810D01*
X54666667Y-111476190D01*
X54476190Y-111428571D01*
X54380952Y-111380952D01*
X54333333Y-111333333D01*
X54285714Y-111238095D01*
X54285714Y-111142857D01*
X54333333Y-111047619D01*
X54380952Y-111000000D01*
X54476190Y-110952381D01*
X54714286Y-110952381D01*
X54857143Y-111000000D01*
X55285714Y-111952381D02*
X55285714Y-110952381D01*
X55523809Y-110952381D01*
X55666667Y-111000000D01*
X55761905Y-111095238D01*
X55809524Y-111190476D01*
X55857143Y-111380952D01*
X55857143Y-111523810D01*
X55809524Y-111714286D01*
X55761905Y-111809524D01*
X55666667Y-111904762D01*
X55523809Y-111952381D01*
X55285714Y-111952381D01*
X56238095Y-111666667D02*
X56714286Y-111666667D01*
X56142857Y-111952381D02*
X56476190Y-110952381D01*
X56809524Y-111952381D01*
X52571429Y-52285714D02*
X52809524Y-52952381D01*
X53047620Y-52285714D01*
X53619048Y-51952381D02*
X53714287Y-51952381D01*
X53809525Y-52000000D01*
X53857144Y-52047619D01*
X53904763Y-52142857D01*
X53952382Y-52333333D01*
X53952382Y-52571429D01*
X53904763Y-52761905D01*
X53857144Y-52857143D01*
X53809525Y-52904762D01*
X53714287Y-52952381D01*
X53619048Y-52952381D01*
X53523810Y-52904762D01*
X53476191Y-52857143D01*
X53428572Y-52761905D01*
X53380953Y-52571429D01*
X53380953Y-52333333D01*
X53428572Y-52142857D01*
X53476191Y-52047619D01*
X53523810Y-52000000D01*
X53619048Y-51952381D01*
X54380953Y-52857143D02*
X54428572Y-52904762D01*
X54380953Y-52952381D01*
X54333334Y-52904762D01*
X54380953Y-52857143D01*
X54380953Y-52952381D01*
X55380953Y-52952381D02*
X54809524Y-52952381D01*
X55095238Y-52952381D02*
X55095238Y-51952381D01*
X55000000Y-52095238D01*
X54904762Y-52190476D01*
X54809524Y-52238095D01*
X60850000Y-82600000D02*
X60150000Y-82600000D01*
X60150000Y-81400000D02*
X60850000Y-81400000D01*
X60850000Y-84600000D02*
X60150000Y-84600000D01*
X60150000Y-83400000D02*
X60850000Y-83400000D01*
X59400000Y-89550000D02*
X61300000Y-89550000D01*
X59400000Y-88450000D02*
X61300000Y-88450000D01*
X60300000Y-89000000D02*
X60750000Y-89000000D01*
X60250000Y-88750000D02*
X60250000Y-89250000D01*
X60250000Y-89000000D02*
X60500000Y-88750000D01*
X60500000Y-88750000D02*
X60500000Y-89250000D01*
X60500000Y-89250000D02*
X60250000Y-89000000D01*
X75200660Y-78001000D02*
X138700660Y-78001000D01*
X74700280Y-92499320D02*
X74700280Y-78498840D01*
X138700660Y-92999700D02*
X75200660Y-92999700D01*
X139201040Y-78498840D02*
X139201040Y-92499320D01*
X139198500Y-78498840D02*
G75*
G03X138700660Y-78001000I-497840J0D01*
G01*
X138700660Y-92999700D02*
G75*
G03X139201040Y-92499320I0J500380D01*
G01*
X74700280Y-92499320D02*
G75*
G03X75200660Y-92999700I500380J0D01*
G01*
X75200660Y-77998460D02*
G75*
G03X74700280Y-78498840I0J-500380D01*
G01*
X70400060Y-72900680D02*
X143600320Y-72900680D01*
X143600320Y-72900680D02*
X143600320Y-98300680D01*
X143600320Y-98300680D02*
X70400060Y-98300680D01*
X70400060Y-98300680D02*
X70400060Y-72900680D01*
X146998840Y-70000000D02*
G75*
G03X146998840Y-70000000I-2499360J0D01*
G01*
X146998840Y-101000700D02*
G75*
G03X146998840Y-101000700I-2499360J0D01*
G01*
X72002800Y-101000700D02*
G75*
G03X72002800Y-101000700I-2501900J0D01*
G01*
X72000260Y-70000000D02*
G75*
G03X72000260Y-70000000I-2499360J0D01*
G01*
X66999000Y-67500640D02*
X146998840Y-67500640D01*
X146998840Y-67500640D02*
X146998840Y-103500060D01*
X146998840Y-103500060D02*
X66999000Y-103500060D01*
X66999000Y-103500060D02*
X66999000Y-67500640D01*
X67950140Y-63145120D02*
X67950140Y-49048120D01*
X82936140Y-49048120D02*
X82936140Y-63145120D01*
X67950140Y-63145120D02*
X82936140Y-63145120D01*
X67950140Y-49048120D02*
X82936140Y-49048120D01*
X100866000Y-57650000D02*
X100866000Y-49014000D01*
X100866000Y-66032000D02*
X100866000Y-60952000D01*
X88674000Y-57650000D02*
X88674000Y-49014000D01*
X88674000Y-66032000D02*
X88674000Y-60952000D01*
X88674000Y-49014000D02*
X100866000Y-49014000D01*
X100866000Y-66032000D02*
X88674000Y-66032000D01*
X115850640Y-49900820D02*
X108149360Y-49900820D01*
X115850640Y-48900060D02*
X108149360Y-48900060D01*
X108149360Y-48900060D02*
X108149360Y-58099940D01*
X108149360Y-58099940D02*
X115850640Y-58099940D01*
X115850640Y-58099940D02*
X115850640Y-48900060D01*
X131350900Y-49182540D02*
X122650900Y-49182540D01*
X131350900Y-55587540D02*
X122650900Y-55587540D01*
X122650900Y-55587540D02*
X122650900Y-49182540D01*
X122650900Y-50412540D02*
X131350900Y-50412540D01*
X131350900Y-49182540D02*
X131350900Y-55587540D01*
X108149360Y-121099180D02*
X115850640Y-121099180D01*
X108149360Y-122099940D02*
X115850640Y-122099940D01*
X115850640Y-122099940D02*
X115850640Y-112900060D01*
X115850640Y-112900060D02*
X108149360Y-112900060D01*
X108149360Y-112900060D02*
X108149360Y-122099940D01*
X122649100Y-121817460D02*
X131349100Y-121817460D01*
X122649100Y-115412460D02*
X131349100Y-115412460D01*
X131349100Y-115412460D02*
X131349100Y-121817460D01*
X131349100Y-120587460D02*
X122649100Y-120587460D01*
X122649100Y-121817460D02*
X122649100Y-115412460D01*
X82049860Y-107854880D02*
X82049860Y-121951880D01*
X67063860Y-121951880D02*
X67063860Y-107854880D01*
X82049860Y-107854880D02*
X67063860Y-107854880D01*
X82049860Y-121951880D02*
X67063860Y-121951880D01*
X88634000Y-113350000D02*
X88634000Y-121986000D01*
X88634000Y-104968000D02*
X88634000Y-110048000D01*
X100826000Y-113350000D02*
X100826000Y-121986000D01*
X100826000Y-104968000D02*
X100826000Y-110048000D01*
X100826000Y-121986000D02*
X88634000Y-121986000D01*
X88634000Y-104968000D02*
X100826000Y-104968000D01*
X61000000Y-87675000D02*
X60000000Y-87675000D01*
X60000000Y-86325000D02*
X61000000Y-86325000D01*
D12*
X59500000Y-72000000D02*
X64500000Y-72000000D01*
X57500000Y-74000000D02*
X57500000Y-79000000D01*
X59500000Y-72000000D02*
X57500000Y-74000000D01*
X58500000Y-72500000D02*
G75*
G03X58500000Y-72500000I-500000J0D01*
G01*
X64500000Y-72000000D02*
X64500000Y-79000000D01*
X64500000Y-79000000D02*
X57500000Y-79000000D01*
D11*
X54500000Y-92100000D02*
X52400000Y-92100000D01*
X52400000Y-92100000D02*
X52400000Y-103700000D01*
X52400000Y-103700000D02*
X65000000Y-103700000D01*
X65000000Y-103700000D02*
X65000000Y-92100000D01*
X65000000Y-92100000D02*
X54500000Y-92100000D01*
X48682540Y-81149100D02*
X48682540Y-89849100D01*
X55087540Y-81149100D02*
X55087540Y-89849100D01*
X55087540Y-89849100D02*
X48682540Y-89849100D01*
X49912540Y-89849100D02*
X49912540Y-81149100D01*
X48682540Y-81149100D02*
X55087540Y-81149100D01*
X53520000Y-107520000D02*
X53520000Y-120220000D01*
X53520000Y-120220000D02*
X50980000Y-120220000D01*
X50980000Y-120220000D02*
X50980000Y-107520000D01*
X53800000Y-104700000D02*
X53800000Y-106250000D01*
X53520000Y-107520000D02*
X50980000Y-107520000D01*
X50700000Y-106250000D02*
X50700000Y-104700000D01*
X50700000Y-104700000D02*
X53800000Y-104700000D01*
X145320000Y-57510000D02*
X136920000Y-57510000D01*
X136920000Y-57510000D02*
X136920000Y-56360000D01*
X136920000Y-56360000D02*
X136920000Y-56330000D01*
X145320000Y-57510000D02*
X146720000Y-57510000D01*
X146720000Y-57510000D02*
X146720000Y-56310000D01*
X146720000Y-56300000D02*
X146720000Y-49790000D01*
X146720000Y-49790000D02*
X146140000Y-49790000D01*
X136920000Y-56340000D02*
X136920000Y-49790000D01*
X136920000Y-49790000D02*
X137470000Y-49790000D01*
X146140000Y-49790000D02*
X137480000Y-49790000D01*
X138180000Y-113490000D02*
X146580000Y-113490000D01*
X146580000Y-113490000D02*
X146580000Y-114640000D01*
X146580000Y-114640000D02*
X146580000Y-114670000D01*
X138180000Y-113490000D02*
X136780000Y-113490000D01*
X136780000Y-113490000D02*
X136780000Y-114690000D01*
X136780000Y-114700000D02*
X136780000Y-121210000D01*
X136780000Y-121210000D02*
X137360000Y-121210000D01*
X146580000Y-114660000D02*
X146580000Y-121210000D01*
X146580000Y-121210000D02*
X146030000Y-121210000D01*
X137360000Y-121210000D02*
X146020000Y-121210000D01*
X63333334Y-82357143D02*
X63285715Y-82404762D01*
X63142858Y-82452381D01*
X63047620Y-82452381D01*
X62904762Y-82404762D01*
X62809524Y-82309524D01*
X62761905Y-82214286D01*
X62714286Y-82023810D01*
X62714286Y-81880952D01*
X62761905Y-81690476D01*
X62809524Y-81595238D01*
X62904762Y-81500000D01*
X63047620Y-81452381D01*
X63142858Y-81452381D01*
X63285715Y-81500000D01*
X63333334Y-81547619D01*
X64238096Y-81452381D02*
X63761905Y-81452381D01*
X63714286Y-81928571D01*
X63761905Y-81880952D01*
X63857143Y-81833333D01*
X64095239Y-81833333D01*
X64190477Y-81880952D01*
X64238096Y-81928571D01*
X64285715Y-82023810D01*
X64285715Y-82261905D01*
X64238096Y-82357143D01*
X64190477Y-82404762D01*
X64095239Y-82452381D01*
X63857143Y-82452381D01*
X63761905Y-82404762D01*
X63714286Y-82357143D01*
X63333334Y-84357143D02*
X63285715Y-84404762D01*
X63142858Y-84452381D01*
X63047620Y-84452381D01*
X62904762Y-84404762D01*
X62809524Y-84309524D01*
X62761905Y-84214286D01*
X62714286Y-84023810D01*
X62714286Y-83880952D01*
X62761905Y-83690476D01*
X62809524Y-83595238D01*
X62904762Y-83500000D01*
X63047620Y-83452381D01*
X63142858Y-83452381D01*
X63285715Y-83500000D01*
X63333334Y-83547619D01*
X64190477Y-83452381D02*
X64000000Y-83452381D01*
X63904762Y-83500000D01*
X63857143Y-83547619D01*
X63761905Y-83690476D01*
X63714286Y-83880952D01*
X63714286Y-84261905D01*
X63761905Y-84357143D01*
X63809524Y-84404762D01*
X63904762Y-84452381D01*
X64095239Y-84452381D01*
X64190477Y-84404762D01*
X64238096Y-84357143D01*
X64285715Y-84261905D01*
X64285715Y-84023810D01*
X64238096Y-83928571D01*
X64190477Y-83880952D01*
X64095239Y-83833333D01*
X63904762Y-83833333D01*
X63809524Y-83880952D01*
X63761905Y-83928571D01*
X63714286Y-84023810D01*
X62261905Y-89452381D02*
X62261905Y-88452381D01*
X62500000Y-88452381D01*
X62642858Y-88500000D01*
X62738096Y-88595238D01*
X62785715Y-88690476D01*
X62833334Y-88880952D01*
X62833334Y-89023810D01*
X62785715Y-89214286D01*
X62738096Y-89309524D01*
X62642858Y-89404762D01*
X62500000Y-89452381D01*
X62261905Y-89452381D01*
X63690477Y-88452381D02*
X63500000Y-88452381D01*
X63404762Y-88500000D01*
X63357143Y-88547619D01*
X63261905Y-88690476D01*
X63214286Y-88880952D01*
X63214286Y-89261905D01*
X63261905Y-89357143D01*
X63309524Y-89404762D01*
X63404762Y-89452381D01*
X63595239Y-89452381D01*
X63690477Y-89404762D01*
X63738096Y-89357143D01*
X63785715Y-89261905D01*
X63785715Y-89023810D01*
X63738096Y-88928571D01*
X63690477Y-88880952D01*
X63595239Y-88833333D01*
X63404762Y-88833333D01*
X63309524Y-88880952D01*
X63261905Y-88928571D01*
X63214286Y-89023810D01*
X71035714Y-74452381D02*
X71035714Y-73452381D01*
X71273809Y-73452381D01*
X71416667Y-73500000D01*
X71511905Y-73595238D01*
X71559524Y-73690476D01*
X71607143Y-73880952D01*
X71607143Y-74023810D01*
X71559524Y-74214286D01*
X71511905Y-74309524D01*
X71416667Y-74404762D01*
X71273809Y-74452381D01*
X71035714Y-74452381D01*
X71988095Y-74404762D02*
X72130952Y-74452381D01*
X72369048Y-74452381D01*
X72464286Y-74404762D01*
X72511905Y-74357143D01*
X72559524Y-74261905D01*
X72559524Y-74166667D01*
X72511905Y-74071429D01*
X72464286Y-74023810D01*
X72369048Y-73976190D01*
X72178571Y-73928571D01*
X72083333Y-73880952D01*
X72035714Y-73833333D01*
X71988095Y-73738095D01*
X71988095Y-73642857D01*
X72035714Y-73547619D01*
X72083333Y-73500000D01*
X72178571Y-73452381D01*
X72416667Y-73452381D01*
X72559524Y-73500000D01*
X73511905Y-74452381D02*
X72940476Y-74452381D01*
X73226190Y-74452381D02*
X73226190Y-73452381D01*
X73130952Y-73595238D01*
X73035714Y-73690476D01*
X72940476Y-73738095D01*
X78261905Y-64802381D02*
X78261905Y-63802381D01*
X78642858Y-63802381D01*
X78738096Y-63850000D01*
X78785715Y-63897619D01*
X78833334Y-63992857D01*
X78833334Y-64135714D01*
X78785715Y-64230952D01*
X78738096Y-64278571D01*
X78642858Y-64326190D01*
X78261905Y-64326190D01*
X79785715Y-64802381D02*
X79214286Y-64802381D01*
X79500000Y-64802381D02*
X79500000Y-63802381D01*
X79404762Y-63945238D01*
X79309524Y-64040476D01*
X79214286Y-64088095D01*
X94031905Y-53403381D02*
X94031905Y-52403381D01*
X94412858Y-52403381D01*
X94508096Y-52451000D01*
X94555715Y-52498619D01*
X94603334Y-52593857D01*
X94603334Y-52736714D01*
X94555715Y-52831952D01*
X94508096Y-52879571D01*
X94412858Y-52927190D01*
X94031905Y-52927190D01*
X94984286Y-52498619D02*
X95031905Y-52451000D01*
X95127143Y-52403381D01*
X95365239Y-52403381D01*
X95460477Y-52451000D01*
X95508096Y-52498619D01*
X95555715Y-52593857D01*
X95555715Y-52689095D01*
X95508096Y-52831952D01*
X94936667Y-53403381D01*
X95555715Y-53403381D01*
X105551201Y-54238095D02*
X104551201Y-54238095D01*
X104551201Y-53857142D01*
X104598820Y-53761904D01*
X104646439Y-53714285D01*
X104741677Y-53666666D01*
X104884534Y-53666666D01*
X104979772Y-53714285D01*
X105027391Y-53761904D01*
X105075010Y-53857142D01*
X105075010Y-54238095D01*
X104884534Y-52809523D02*
X105551201Y-52809523D01*
X104503582Y-53047619D02*
X105217868Y-53285714D01*
X105217868Y-52666666D01*
X126261905Y-56902381D02*
X126261905Y-55902381D01*
X126642858Y-55902381D01*
X126738096Y-55950000D01*
X126785715Y-55997619D01*
X126833334Y-56092857D01*
X126833334Y-56235714D01*
X126785715Y-56330952D01*
X126738096Y-56378571D01*
X126642858Y-56426190D01*
X126261905Y-56426190D01*
X127738096Y-55902381D02*
X127261905Y-55902381D01*
X127214286Y-56378571D01*
X127261905Y-56330952D01*
X127357143Y-56283333D01*
X127595239Y-56283333D01*
X127690477Y-56330952D01*
X127738096Y-56378571D01*
X127785715Y-56473810D01*
X127785715Y-56711905D01*
X127738096Y-56807143D01*
X127690477Y-56854762D01*
X127595239Y-56902381D01*
X127357143Y-56902381D01*
X127261905Y-56854762D01*
X127214286Y-56807143D01*
X119353561Y-118238095D02*
X118353561Y-118238095D01*
X118353561Y-117857142D01*
X118401180Y-117761904D01*
X118448799Y-117714285D01*
X118544037Y-117666666D01*
X118686894Y-117666666D01*
X118782132Y-117714285D01*
X118829751Y-117761904D01*
X118877370Y-117857142D01*
X118877370Y-118238095D01*
X118353561Y-117333333D02*
X118353561Y-116666666D01*
X119353561Y-117095238D01*
X126261905Y-115002381D02*
X126261905Y-114002381D01*
X126642858Y-114002381D01*
X126738096Y-114050000D01*
X126785715Y-114097619D01*
X126833334Y-114192857D01*
X126833334Y-114335714D01*
X126785715Y-114430952D01*
X126738096Y-114478571D01*
X126642858Y-114526190D01*
X126261905Y-114526190D01*
X127404762Y-114430952D02*
X127309524Y-114383333D01*
X127261905Y-114335714D01*
X127214286Y-114240476D01*
X127214286Y-114192857D01*
X127261905Y-114097619D01*
X127309524Y-114050000D01*
X127404762Y-114002381D01*
X127595239Y-114002381D01*
X127690477Y-114050000D01*
X127738096Y-114097619D01*
X127785715Y-114192857D01*
X127785715Y-114240476D01*
X127738096Y-114335714D01*
X127690477Y-114383333D01*
X127595239Y-114430952D01*
X127404762Y-114430952D01*
X127309524Y-114478571D01*
X127261905Y-114526190D01*
X127214286Y-114621429D01*
X127214286Y-114811905D01*
X127261905Y-114907143D01*
X127309524Y-114954762D01*
X127404762Y-115002381D01*
X127595239Y-115002381D01*
X127690477Y-114954762D01*
X127738096Y-114907143D01*
X127785715Y-114811905D01*
X127785715Y-114621429D01*
X127738096Y-114526190D01*
X127690477Y-114478571D01*
X127595239Y-114430952D01*
X69785714Y-107102381D02*
X69785714Y-106102381D01*
X70166667Y-106102381D01*
X70261905Y-106150000D01*
X70309524Y-106197619D01*
X70357143Y-106292857D01*
X70357143Y-106435714D01*
X70309524Y-106530952D01*
X70261905Y-106578571D01*
X70166667Y-106626190D01*
X69785714Y-106626190D01*
X71309524Y-107102381D02*
X70738095Y-107102381D01*
X71023809Y-107102381D02*
X71023809Y-106102381D01*
X70928571Y-106245238D01*
X70833333Y-106340476D01*
X70738095Y-106388095D01*
X71928571Y-106102381D02*
X72023810Y-106102381D01*
X72119048Y-106150000D01*
X72166667Y-106197619D01*
X72214286Y-106292857D01*
X72261905Y-106483333D01*
X72261905Y-106721429D01*
X72214286Y-106911905D01*
X72166667Y-107007143D01*
X72119048Y-107054762D01*
X72023810Y-107102381D01*
X71928571Y-107102381D01*
X71833333Y-107054762D01*
X71785714Y-107007143D01*
X71738095Y-106911905D01*
X71690476Y-106721429D01*
X71690476Y-106483333D01*
X71738095Y-106292857D01*
X71785714Y-106197619D01*
X71833333Y-106150000D01*
X71928571Y-106102381D01*
X93515714Y-118501381D02*
X93515714Y-117501381D01*
X93896667Y-117501381D01*
X93991905Y-117549000D01*
X94039524Y-117596619D01*
X94087143Y-117691857D01*
X94087143Y-117834714D01*
X94039524Y-117929952D01*
X93991905Y-117977571D01*
X93896667Y-118025190D01*
X93515714Y-118025190D01*
X95039524Y-118501381D02*
X94468095Y-118501381D01*
X94753809Y-118501381D02*
X94753809Y-117501381D01*
X94658571Y-117644238D01*
X94563333Y-117739476D01*
X94468095Y-117787095D01*
X95991905Y-118501381D02*
X95420476Y-118501381D01*
X95706190Y-118501381D02*
X95706190Y-117501381D01*
X95610952Y-117644238D01*
X95515714Y-117739476D01*
X95420476Y-117787095D01*
X63357143Y-87452381D02*
X63023809Y-86976190D01*
X62785714Y-87452381D02*
X62785714Y-86452381D01*
X63166667Y-86452381D01*
X63261905Y-86500000D01*
X63309524Y-86547619D01*
X63357143Y-86642857D01*
X63357143Y-86785714D01*
X63309524Y-86880952D01*
X63261905Y-86928571D01*
X63166667Y-86976190D01*
X62785714Y-86976190D01*
X63738095Y-86547619D02*
X63785714Y-86500000D01*
X63880952Y-86452381D01*
X64119048Y-86452381D01*
X64214286Y-86500000D01*
X64261905Y-86547619D01*
X64309524Y-86642857D01*
X64309524Y-86738095D01*
X64261905Y-86880952D01*
X63690476Y-87452381D01*
X64309524Y-87452381D01*
X65261905Y-87452381D02*
X64690476Y-87452381D01*
X64976190Y-87452381D02*
X64976190Y-86452381D01*
X64880952Y-86595238D01*
X64785714Y-86690476D01*
X64690476Y-86738095D01*
D13*
X56264714Y-75953571D02*
X55901857Y-76207571D01*
X56264714Y-76388999D02*
X55502714Y-76388999D01*
X55502714Y-76098714D01*
X55539000Y-76026142D01*
X55575286Y-75989857D01*
X55647857Y-75953571D01*
X55756714Y-75953571D01*
X55829286Y-75989857D01*
X55865571Y-76026142D01*
X55901857Y-76098714D01*
X55901857Y-76388999D01*
X55502714Y-75735857D02*
X56264714Y-75481857D01*
X55502714Y-75227857D01*
X56264714Y-74574714D02*
X56264714Y-75010142D01*
X56264714Y-74792428D02*
X55502714Y-74792428D01*
X55611571Y-74864999D01*
X55684143Y-74937571D01*
X55720429Y-75010142D01*
D11*
X51604762Y-102833333D02*
X51652381Y-102690476D01*
X51652381Y-102452380D01*
X51604762Y-102357142D01*
X51557143Y-102309523D01*
X51461905Y-102261904D01*
X51366667Y-102261904D01*
X51271429Y-102309523D01*
X51223810Y-102357142D01*
X51176190Y-102452380D01*
X51128571Y-102642857D01*
X51080952Y-102738095D01*
X51033333Y-102785714D01*
X50938095Y-102833333D01*
X50842857Y-102833333D01*
X50747619Y-102785714D01*
X50700000Y-102738095D01*
X50652381Y-102642857D01*
X50652381Y-102404761D01*
X50700000Y-102261904D01*
X50652381Y-101928571D02*
X51652381Y-101690476D01*
X50938095Y-101499999D01*
X51652381Y-101309523D01*
X50652381Y-101071428D01*
X51652381Y-100166666D02*
X51652381Y-100738095D01*
X51652381Y-100452381D02*
X50652381Y-100452381D01*
X50795238Y-100547619D01*
X50890476Y-100642857D01*
X50938095Y-100738095D01*
X56402381Y-86238095D02*
X55402381Y-86238095D01*
X55402381Y-85857142D01*
X55450000Y-85761904D01*
X55497619Y-85714285D01*
X55592857Y-85666666D01*
X55735714Y-85666666D01*
X55830952Y-85714285D01*
X55878571Y-85761904D01*
X55926190Y-85857142D01*
X55926190Y-86238095D01*
X55402381Y-84809523D02*
X55402381Y-85000000D01*
X55450000Y-85095238D01*
X55497619Y-85142857D01*
X55640476Y-85238095D01*
X55830952Y-85285714D01*
X56211905Y-85285714D01*
X56307143Y-85238095D01*
X56354762Y-85190476D01*
X56402381Y-85095238D01*
X56402381Y-84904761D01*
X56354762Y-84809523D01*
X56307143Y-84761904D01*
X56211905Y-84714285D01*
X55973810Y-84714285D01*
X55878571Y-84761904D01*
X55830952Y-84809523D01*
X55783333Y-84904761D01*
X55783333Y-85095238D01*
X55830952Y-85190476D01*
X55878571Y-85238095D01*
X55973810Y-85285714D01*
X54535714Y-106952381D02*
X54535714Y-105952381D01*
X54916667Y-105952381D01*
X55011905Y-106000000D01*
X55059524Y-106047619D01*
X55107143Y-106142857D01*
X55107143Y-106285714D01*
X55059524Y-106380952D01*
X55011905Y-106428571D01*
X54916667Y-106476190D01*
X54535714Y-106476190D01*
X56059524Y-106952381D02*
X55488095Y-106952381D01*
X55773809Y-106952381D02*
X55773809Y-105952381D01*
X55678571Y-106095238D01*
X55583333Y-106190476D01*
X55488095Y-106238095D01*
X56440476Y-106047619D02*
X56488095Y-106000000D01*
X56583333Y-105952381D01*
X56821429Y-105952381D01*
X56916667Y-106000000D01*
X56964286Y-106047619D01*
X57011905Y-106142857D01*
X57011905Y-106238095D01*
X56964286Y-106380952D01*
X56392857Y-106952381D01*
X57011905Y-106952381D01*
X141701905Y-51332381D02*
X141701905Y-50332381D01*
X142082858Y-50332381D01*
X142178096Y-50380000D01*
X142225715Y-50427619D01*
X142273334Y-50522857D01*
X142273334Y-50665714D01*
X142225715Y-50760952D01*
X142178096Y-50808571D01*
X142082858Y-50856190D01*
X141701905Y-50856190D01*
X142606667Y-50332381D02*
X143225715Y-50332381D01*
X142892381Y-50713333D01*
X143035239Y-50713333D01*
X143130477Y-50760952D01*
X143178096Y-50808571D01*
X143225715Y-50903810D01*
X143225715Y-51141905D01*
X143178096Y-51237143D01*
X143130477Y-51284762D01*
X143035239Y-51332381D01*
X142749524Y-51332381D01*
X142654286Y-51284762D01*
X142606667Y-51237143D01*
X140321905Y-120572381D02*
X140321905Y-119572381D01*
X140702858Y-119572381D01*
X140798096Y-119620000D01*
X140845715Y-119667619D01*
X140893334Y-119762857D01*
X140893334Y-119905714D01*
X140845715Y-120000952D01*
X140798096Y-120048571D01*
X140702858Y-120096190D01*
X140321905Y-120096190D01*
X141369524Y-120572381D02*
X141560000Y-120572381D01*
X141655239Y-120524762D01*
X141702858Y-120477143D01*
X141798096Y-120334286D01*
X141845715Y-120143810D01*
X141845715Y-119762857D01*
X141798096Y-119667619D01*
X141750477Y-119620000D01*
X141655239Y-119572381D01*
X141464762Y-119572381D01*
X141369524Y-119620000D01*
X141321905Y-119667619D01*
X141274286Y-119762857D01*
X141274286Y-120000952D01*
X141321905Y-120096190D01*
X141369524Y-120143810D01*
X141464762Y-120191429D01*
X141655239Y-120191429D01*
X141750477Y-120143810D01*
X141798096Y-120096190D01*
X141845715Y-120000952D01*
M02*
