G04 #@! TF.FileFunction,Soldermask,Bot*
%FSLAX46Y46*%
G04 Gerber Fmt 4.6, Leading zero omitted, Abs format (unit mm)*
G04 Created by KiCad (PCBNEW 4.0.5+dfsg1-4) date Wed May 10 09:27:15 2017*
%MOMM*%
%LPD*%
G01*
G04 APERTURE LIST*
%ADD10C,0.100000*%
%ADD11O,2.200000X3.000000*%
%ADD12C,3.400000*%
%ADD13R,1.600000X1.150000*%
%ADD14R,1.600000X1.300000*%
%ADD15C,3.900000*%
%ADD16O,1.400000X2.200000*%
%ADD17O,1.400000X2.500000*%
%ADD18C,1.050000*%
%ADD19R,1.150000X1.600000*%
%ADD20R,1.797000X1.797000*%
%ADD21C,1.797000*%
%ADD22R,1.197560X1.197560*%
%ADD23R,1.300000X1.600000*%
%ADD24R,1.900000X0.950000*%
%ADD25R,0.950000X1.900000*%
%ADD26R,1.950000X1.000000*%
%ADD27R,1.600000X1.800000*%
%ADD28R,2.550000X1.500000*%
%ADD29C,1.299160*%
%ADD30O,2.200000X1.950000*%
%ADD31C,1.901140*%
%ADD32C,3.399740*%
%ADD33C,1.924000*%
%ADD34C,3.100020*%
%ADD35O,1.650000X1.650000*%
G04 APERTURE END LIST*
D10*
D11*
X74000000Y-53000000D03*
X76540000Y-53000000D03*
X79080000Y-53000000D03*
X81620000Y-53000000D03*
X84160000Y-53000000D03*
X86700000Y-53000000D03*
X89240000Y-53000000D03*
X91780000Y-53000000D03*
X94320000Y-53000000D03*
X96860000Y-53000000D03*
X99400000Y-53000000D03*
X101940000Y-53000000D03*
X104480000Y-53000000D03*
X107020000Y-53000000D03*
X109560000Y-53000000D03*
X112100000Y-53000000D03*
D12*
X68500900Y-53000000D03*
X68500900Y-84000700D03*
X143499480Y-84000700D03*
X143499480Y-53000000D03*
D13*
X116550000Y-83200000D03*
X114650000Y-83200000D03*
D14*
X67600000Y-77825000D03*
X69800000Y-77825000D03*
X67600000Y-79775000D03*
X69800000Y-79775000D03*
D15*
X63400000Y-76800000D03*
X63400000Y-72000000D03*
X59200000Y-76800000D03*
X59200000Y-72000000D03*
X55000000Y-76800000D03*
X55000000Y-72000000D03*
D16*
X117760000Y-97590000D03*
X126400000Y-97590000D03*
D17*
X117760000Y-93410000D03*
X126400000Y-93410000D03*
D18*
X119190000Y-93910000D03*
X124970000Y-93910000D03*
D13*
X127769496Y-55141946D03*
X125869496Y-55141946D03*
X111950000Y-80600000D03*
X110050000Y-80600000D03*
D19*
X110500000Y-89150000D03*
X110500000Y-87250000D03*
X98200000Y-74950000D03*
X98200000Y-73050000D03*
X124219496Y-59391946D03*
X124219496Y-57491946D03*
X113700000Y-68350000D03*
X113700000Y-70250000D03*
D13*
X132300000Y-60500000D03*
X134200000Y-60500000D03*
D20*
X140040000Y-93830000D03*
D21*
X140040000Y-96370000D03*
X137500000Y-93830000D03*
X137500000Y-96370000D03*
X134960000Y-93830000D03*
X134960000Y-96370000D03*
D22*
X140200000Y-80374300D03*
X140200000Y-78875700D03*
X140247767Y-73435335D03*
X140247767Y-71936735D03*
X140347767Y-66135335D03*
X140347767Y-64636735D03*
X140447767Y-58335335D03*
X140447767Y-56836735D03*
D23*
X131400000Y-96300000D03*
X131400000Y-94100000D03*
X138447767Y-78986035D03*
X138447767Y-81186035D03*
X138447767Y-73786035D03*
X138447767Y-71586035D03*
X138447767Y-66586035D03*
X138447767Y-64386035D03*
X138547767Y-58586035D03*
X138547767Y-56386035D03*
D14*
X143230000Y-76280000D03*
X141030000Y-76280000D03*
D23*
X108200000Y-66500000D03*
X108200000Y-64300000D03*
X106600000Y-66500000D03*
X106600000Y-64300000D03*
D14*
X132300000Y-55300000D03*
X134500000Y-55300000D03*
X111940000Y-56440000D03*
X114140000Y-56440000D03*
X112100000Y-76800000D03*
X109900000Y-76800000D03*
X112100000Y-78800000D03*
X109900000Y-78800000D03*
X112100000Y-82600000D03*
X109900000Y-82600000D03*
D23*
X108400000Y-89300000D03*
X108400000Y-87100000D03*
D14*
X96300000Y-74900000D03*
X94100000Y-74900000D03*
X96200000Y-73000000D03*
X94000000Y-73000000D03*
X104900000Y-78400000D03*
X102700000Y-78400000D03*
D24*
X121500000Y-76300000D03*
X121500000Y-75500000D03*
X121500000Y-74700000D03*
X121500000Y-73900000D03*
X121500000Y-73100000D03*
X121500000Y-72300000D03*
X121500000Y-71500000D03*
X121500000Y-70700000D03*
X121500000Y-69900000D03*
X121500000Y-69100000D03*
X121500000Y-68300000D03*
D25*
X123200000Y-66600000D03*
X124000000Y-66600000D03*
X124800000Y-66600000D03*
X125600000Y-66600000D03*
X126400000Y-66600000D03*
X127200000Y-66600000D03*
X128000000Y-66600000D03*
X128800000Y-66600000D03*
X129600000Y-66600000D03*
X130400000Y-66600000D03*
X131200000Y-66600000D03*
D24*
X132900000Y-68300000D03*
X132900000Y-69100000D03*
X132900000Y-69900000D03*
X132900000Y-70700000D03*
X132900000Y-71500000D03*
X132900000Y-72300000D03*
X132900000Y-73100000D03*
X132900000Y-73900000D03*
X132900000Y-74700000D03*
X132900000Y-75500000D03*
X132900000Y-76300000D03*
D25*
X131200000Y-78000000D03*
X130400000Y-78000000D03*
X129600000Y-78000000D03*
X128800000Y-78000000D03*
X128000000Y-78000000D03*
X127200000Y-78000000D03*
X126400000Y-78000000D03*
X125600000Y-78000000D03*
X124800000Y-78000000D03*
X124000000Y-78000000D03*
X123200000Y-78000000D03*
D26*
X114450000Y-89355000D03*
X114450000Y-88085000D03*
X114450000Y-86815000D03*
X114450000Y-85545000D03*
X119850000Y-85545000D03*
X119850000Y-86815000D03*
X119850000Y-88085000D03*
X119850000Y-89355000D03*
D27*
X127819496Y-57341946D03*
X127819496Y-59541946D03*
X126219496Y-57341946D03*
X126219496Y-59541946D03*
D28*
X134675000Y-58100000D03*
X131725000Y-58100000D03*
D20*
X51500000Y-75530000D03*
D21*
X51500000Y-78070000D03*
D13*
X115720000Y-81380000D03*
X117620000Y-81380000D03*
X103250000Y-70400000D03*
X105150000Y-70400000D03*
X136480000Y-77810000D03*
X134580000Y-77810000D03*
D29*
X90400360Y-94749100D03*
X94799640Y-94749100D03*
D30*
X101099100Y-96537460D03*
X113650000Y-96537460D03*
D31*
X78772000Y-88200000D03*
X76232000Y-88200000D03*
X74200000Y-88200000D03*
X71660000Y-88200000D03*
D32*
X81820000Y-90867000D03*
X68104000Y-90867000D03*
D31*
X62402120Y-62712860D03*
X62402120Y-60172860D03*
X62402120Y-58140860D03*
X62402120Y-55600860D03*
D32*
X59735120Y-65760860D03*
X59735120Y-52044860D03*
D33*
X57000000Y-85600000D03*
X59540000Y-85600000D03*
X59540000Y-87598980D03*
X57000000Y-87598980D03*
D34*
X52270520Y-90299000D03*
X64269480Y-90299000D03*
D21*
X148400000Y-92420000D03*
X148521920Y-89880000D03*
X148400000Y-87340000D03*
X148521920Y-84800000D03*
X148400000Y-82260000D03*
X148521920Y-94960000D03*
X148521920Y-79720000D03*
D20*
X148400000Y-97500000D03*
D21*
X148400000Y-77180000D03*
X148400000Y-67020000D03*
X148521920Y-64480000D03*
X148400000Y-61940000D03*
X148521920Y-59400000D03*
X148400000Y-56860000D03*
X148521920Y-69560000D03*
X148521920Y-54320000D03*
D20*
X148400000Y-72100000D03*
D21*
X148400000Y-51780000D03*
D26*
X101100000Y-76105000D03*
X101100000Y-74835000D03*
X101100000Y-73565000D03*
X101100000Y-72295000D03*
X106500000Y-72295000D03*
X106500000Y-73565000D03*
X106500000Y-74835000D03*
X106500000Y-76105000D03*
D35*
X120700900Y-54962540D03*
X115700900Y-54962540D03*
D30*
X121700900Y-52262540D03*
X114700900Y-52262540D03*
M02*
