G04 #@! TF.FileFunction,Legend,Bot*
%FSLAX46Y46*%
G04 Gerber Fmt 4.6, Leading zero omitted, Abs format (unit mm)*
G04 Created by KiCad (PCBNEW 4.0.5+dfsg1-4) date Sun Feb 26 13:13:11 2017*
%MOMM*%
%LPD*%
G01*
G04 APERTURE LIST*
%ADD10C,0.100000*%
%ADD11C,0.010000*%
%ADD12C,0.150000*%
G04 APERTURE END LIST*
D10*
D11*
G36*
X110415936Y-109460061D02*
X110311773Y-109541900D01*
X110158177Y-109680203D01*
X110000524Y-109819976D01*
X109963640Y-109852249D01*
X109829287Y-109986995D01*
X109712296Y-110132542D01*
X109696019Y-110157049D01*
X109613504Y-110287641D01*
X109547114Y-110392860D01*
X109542468Y-110400236D01*
X109444630Y-110548791D01*
X109327997Y-110715962D01*
X109207197Y-110882117D01*
X109096856Y-111027624D01*
X109011599Y-111132851D01*
X108966055Y-111178168D01*
X108962857Y-111178189D01*
X108931627Y-111207701D01*
X108871720Y-111304103D01*
X108796337Y-111441713D01*
X108718676Y-111594852D01*
X108651938Y-111737840D01*
X108609322Y-111844997D01*
X108600800Y-111882569D01*
X108577580Y-111959640D01*
X108518335Y-112088494D01*
X108474345Y-112171585D01*
X108381155Y-112346062D01*
X108281702Y-112542757D01*
X108187065Y-112738345D01*
X108108323Y-112909499D01*
X108056554Y-113032895D01*
X108042000Y-113081893D01*
X108014148Y-113147767D01*
X107950567Y-113243449D01*
X107884287Y-113365329D01*
X107804847Y-113564797D01*
X107719747Y-113819966D01*
X107636489Y-114108948D01*
X107586949Y-114304400D01*
X107557432Y-114474323D01*
X107533388Y-114696598D01*
X107520429Y-114914000D01*
X107515905Y-115107929D01*
X107521773Y-115222593D01*
X107544749Y-115280260D01*
X107591551Y-115303198D01*
X107639949Y-115310268D01*
X107758535Y-115298566D01*
X107824100Y-115259468D01*
X107958886Y-115023167D01*
X108046168Y-114721590D01*
X108062766Y-114612154D01*
X108097633Y-114355800D01*
X108135450Y-114167124D01*
X108183965Y-114012320D01*
X108220649Y-113923400D01*
X108282809Y-113760136D01*
X108324891Y-113618600D01*
X108382674Y-113463027D01*
X108458891Y-113327028D01*
X108522630Y-113200024D01*
X108584556Y-113019098D01*
X108618525Y-112882146D01*
X108680805Y-112659717D01*
X108761048Y-112525431D01*
X108793243Y-112497737D01*
X108877419Y-112414388D01*
X108905600Y-112347182D01*
X108931533Y-112270267D01*
X109001482Y-112128852D01*
X109103673Y-111943351D01*
X109226334Y-111734177D01*
X109357690Y-111521743D01*
X109485969Y-111326461D01*
X109534723Y-111256400D01*
X109656093Y-111072589D01*
X109773647Y-110874225D01*
X109813850Y-110799200D01*
X109912413Y-110649726D01*
X110067836Y-110462064D01*
X110256879Y-110260520D01*
X110456296Y-110069401D01*
X110642845Y-109913014D01*
X110702626Y-109869728D01*
X110814173Y-109744393D01*
X110836000Y-109638588D01*
X110802814Y-109478545D01*
X110712496Y-109393738D01*
X110578915Y-109386724D01*
X110415936Y-109460061D01*
X110415936Y-109460061D01*
G37*
X110415936Y-109460061D02*
X110311773Y-109541900D01*
X110158177Y-109680203D01*
X110000524Y-109819976D01*
X109963640Y-109852249D01*
X109829287Y-109986995D01*
X109712296Y-110132542D01*
X109696019Y-110157049D01*
X109613504Y-110287641D01*
X109547114Y-110392860D01*
X109542468Y-110400236D01*
X109444630Y-110548791D01*
X109327997Y-110715962D01*
X109207197Y-110882117D01*
X109096856Y-111027624D01*
X109011599Y-111132851D01*
X108966055Y-111178168D01*
X108962857Y-111178189D01*
X108931627Y-111207701D01*
X108871720Y-111304103D01*
X108796337Y-111441713D01*
X108718676Y-111594852D01*
X108651938Y-111737840D01*
X108609322Y-111844997D01*
X108600800Y-111882569D01*
X108577580Y-111959640D01*
X108518335Y-112088494D01*
X108474345Y-112171585D01*
X108381155Y-112346062D01*
X108281702Y-112542757D01*
X108187065Y-112738345D01*
X108108323Y-112909499D01*
X108056554Y-113032895D01*
X108042000Y-113081893D01*
X108014148Y-113147767D01*
X107950567Y-113243449D01*
X107884287Y-113365329D01*
X107804847Y-113564797D01*
X107719747Y-113819966D01*
X107636489Y-114108948D01*
X107586949Y-114304400D01*
X107557432Y-114474323D01*
X107533388Y-114696598D01*
X107520429Y-114914000D01*
X107515905Y-115107929D01*
X107521773Y-115222593D01*
X107544749Y-115280260D01*
X107591551Y-115303198D01*
X107639949Y-115310268D01*
X107758535Y-115298566D01*
X107824100Y-115259468D01*
X107958886Y-115023167D01*
X108046168Y-114721590D01*
X108062766Y-114612154D01*
X108097633Y-114355800D01*
X108135450Y-114167124D01*
X108183965Y-114012320D01*
X108220649Y-113923400D01*
X108282809Y-113760136D01*
X108324891Y-113618600D01*
X108382674Y-113463027D01*
X108458891Y-113327028D01*
X108522630Y-113200024D01*
X108584556Y-113019098D01*
X108618525Y-112882146D01*
X108680805Y-112659717D01*
X108761048Y-112525431D01*
X108793243Y-112497737D01*
X108877419Y-112414388D01*
X108905600Y-112347182D01*
X108931533Y-112270267D01*
X109001482Y-112128852D01*
X109103673Y-111943351D01*
X109226334Y-111734177D01*
X109357690Y-111521743D01*
X109485969Y-111326461D01*
X109534723Y-111256400D01*
X109656093Y-111072589D01*
X109773647Y-110874225D01*
X109813850Y-110799200D01*
X109912413Y-110649726D01*
X110067836Y-110462064D01*
X110256879Y-110260520D01*
X110456296Y-110069401D01*
X110642845Y-109913014D01*
X110702626Y-109869728D01*
X110814173Y-109744393D01*
X110836000Y-109638588D01*
X110802814Y-109478545D01*
X110712496Y-109393738D01*
X110578915Y-109386724D01*
X110415936Y-109460061D01*
G36*
X123965420Y-107597599D02*
X123712307Y-107667624D01*
X123531038Y-107766771D01*
X123498801Y-107796268D01*
X123378461Y-107896840D01*
X123294700Y-107949298D01*
X123207148Y-108026437D01*
X123180400Y-108096759D01*
X123148891Y-108170849D01*
X123067871Y-108293393D01*
X122957598Y-108438993D01*
X122838334Y-108582248D01*
X122730340Y-108697758D01*
X122653873Y-108760125D01*
X122649722Y-108762059D01*
X122550459Y-108832018D01*
X122419994Y-108959534D01*
X122282188Y-109116780D01*
X122160899Y-109275925D01*
X122079985Y-109409141D01*
X122066206Y-109442681D01*
X121983085Y-109601614D01*
X121864053Y-109736341D01*
X121854066Y-109744272D01*
X121711723Y-109855549D01*
X121556925Y-109979938D01*
X121533526Y-109999100D01*
X121399290Y-110087003D01*
X121272841Y-110134983D01*
X121243294Y-110138035D01*
X121089617Y-110111786D01*
X120877296Y-110042651D01*
X120633051Y-109942841D01*
X120383599Y-109824569D01*
X120155659Y-109700049D01*
X119975950Y-109581493D01*
X119915574Y-109531144D01*
X119804053Y-109437151D01*
X119717557Y-109382573D01*
X119697479Y-109377035D01*
X119624329Y-109345050D01*
X119533830Y-109274572D01*
X119409336Y-109201873D01*
X119237399Y-109152847D01*
X119051915Y-109131025D01*
X118886775Y-109139937D01*
X118775876Y-109183114D01*
X118764582Y-109194443D01*
X118720790Y-109311760D01*
X118775622Y-109435553D01*
X118926507Y-109563233D01*
X119170875Y-109692210D01*
X119319600Y-109753428D01*
X119403467Y-109794507D01*
X119539468Y-109869644D01*
X119649800Y-109933946D01*
X119824346Y-110034271D01*
X119992617Y-110125192D01*
X120070072Y-110163988D01*
X120210408Y-110243220D01*
X120322014Y-110326973D01*
X120325639Y-110330471D01*
X120541800Y-110478637D01*
X120836054Y-110581640D01*
X121193028Y-110634149D01*
X121203161Y-110634802D01*
X121588121Y-110658842D01*
X121850861Y-110391925D01*
X121979005Y-110253321D01*
X122072542Y-110136092D01*
X122113151Y-110063444D01*
X122113600Y-110059127D01*
X122155739Y-109991919D01*
X122212678Y-109961800D01*
X122303170Y-109899596D01*
X122399874Y-109786284D01*
X122416987Y-109760086D01*
X122521431Y-109619820D01*
X122659783Y-109468215D01*
X122714235Y-109416342D01*
X122846058Y-109284383D01*
X123002373Y-109109547D01*
X123139915Y-108941533D01*
X123338594Y-108692439D01*
X123486030Y-108524260D01*
X123586261Y-108432665D01*
X123634072Y-108411600D01*
X123677430Y-108454594D01*
X123708893Y-108537133D01*
X123769118Y-108654206D01*
X123834924Y-108713255D01*
X123918992Y-108733933D01*
X124082695Y-108754968D01*
X124304098Y-108774162D01*
X124561269Y-108789323D01*
X124621051Y-108791922D01*
X124885629Y-108805487D01*
X125121699Y-108822798D01*
X125306482Y-108841818D01*
X125417201Y-108860510D01*
X125428780Y-108864153D01*
X125526940Y-108947137D01*
X125551417Y-109076876D01*
X125499635Y-109227557D01*
X125469492Y-109272136D01*
X125428342Y-109319704D01*
X125377323Y-109354560D01*
X125299592Y-109379924D01*
X125178303Y-109399017D01*
X124996610Y-109415058D01*
X124737669Y-109431268D01*
X124595313Y-109439263D01*
X124300559Y-109459423D01*
X124020209Y-109485496D01*
X123779993Y-109514610D01*
X123605638Y-109543894D01*
X123561400Y-109554640D01*
X123240947Y-109696901D01*
X122940396Y-109932159D01*
X122668021Y-110252478D01*
X122443887Y-110626390D01*
X122346036Y-110812874D01*
X122259176Y-110966126D01*
X122197303Y-111061904D01*
X122182792Y-111078600D01*
X122130475Y-111157745D01*
X122074867Y-111288770D01*
X122064459Y-111319922D01*
X122017054Y-111433279D01*
X121947896Y-111506307D01*
X121837582Y-111545632D01*
X121666708Y-111557878D01*
X121415871Y-111549668D01*
X121394924Y-111548505D01*
X121114284Y-111516143D01*
X120814934Y-111446416D01*
X120476556Y-111333272D01*
X120078834Y-111170661D01*
X119980000Y-111127043D01*
X119782321Y-111042258D01*
X119603787Y-110971663D01*
X119477524Y-110928231D01*
X119461176Y-110923877D01*
X119345260Y-110853933D01*
X119223230Y-110713973D01*
X119115069Y-110532171D01*
X119040759Y-110336701D01*
X119038498Y-110327903D01*
X118978428Y-110191727D01*
X118892840Y-110072838D01*
X118804391Y-109948577D01*
X118718329Y-109783599D01*
X118695224Y-109727914D01*
X118584914Y-109507994D01*
X118451087Y-109344548D01*
X118308041Y-109245864D01*
X118170072Y-109220232D01*
X118051479Y-109275943D01*
X118008322Y-109329631D01*
X117975819Y-109405295D01*
X117986429Y-109488331D01*
X118046785Y-109611867D01*
X118074464Y-109659867D01*
X118170829Y-109810308D01*
X118264684Y-109934982D01*
X118300448Y-109973735D01*
X118381937Y-110072515D01*
X118476956Y-110217719D01*
X118567103Y-110376917D01*
X118633977Y-110517681D01*
X118659200Y-110605952D01*
X118679745Y-110676359D01*
X118733876Y-110812668D01*
X118810345Y-110989611D01*
X118897900Y-111181921D01*
X118985291Y-111364330D01*
X119061266Y-111511568D01*
X119067259Y-111522410D01*
X119109442Y-111636481D01*
X119116400Y-111689113D01*
X119131938Y-111776206D01*
X119172402Y-111924725D01*
X119221347Y-112079133D01*
X119269395Y-112257904D01*
X119321859Y-112512476D01*
X119375005Y-112817376D01*
X119425101Y-113147134D01*
X119468411Y-113476276D01*
X119501204Y-113779332D01*
X119519745Y-114030829D01*
X119522516Y-114133864D01*
X119533121Y-114307413D01*
X119568023Y-114400527D01*
X119603155Y-114425964D01*
X119737389Y-114454506D01*
X119855780Y-114444394D01*
X119895334Y-114422933D01*
X119921121Y-114341907D01*
X119932289Y-114177148D01*
X119930467Y-113945218D01*
X119917286Y-113662675D01*
X119894374Y-113346080D01*
X119863362Y-113011992D01*
X119825879Y-112676973D01*
X119783556Y-112357580D01*
X119738021Y-112070376D01*
X119690905Y-111831919D01*
X119643836Y-111658770D01*
X119616966Y-111594353D01*
X119587804Y-111507115D01*
X119594561Y-111472506D01*
X119644998Y-111484883D01*
X119748174Y-111538010D01*
X119874080Y-111613682D01*
X119992707Y-111693698D01*
X120074047Y-111759853D01*
X120081600Y-111767941D01*
X120144071Y-111797578D01*
X120283247Y-111843848D01*
X120476864Y-111900418D01*
X120702656Y-111960959D01*
X120938358Y-112019139D01*
X121072200Y-112049607D01*
X121340120Y-112095541D01*
X121596280Y-112116694D01*
X121818318Y-112113272D01*
X121983877Y-112085482D01*
X122065580Y-112040450D01*
X122159305Y-111958459D01*
X122269048Y-111889823D01*
X122380225Y-111795879D01*
X122439262Y-111688195D01*
X122485273Y-111582924D01*
X122575111Y-111430084D01*
X122689742Y-111261926D01*
X122695211Y-111254471D01*
X122811200Y-111082532D01*
X122903029Y-110920040D01*
X122951292Y-110801432D01*
X122951834Y-110799049D01*
X122985915Y-110692552D01*
X123021752Y-110646831D01*
X123022518Y-110646800D01*
X123061587Y-110604203D01*
X123123058Y-110494405D01*
X123172007Y-110389737D01*
X123235906Y-110260927D01*
X123310170Y-110161801D01*
X123408882Y-110087638D01*
X123546128Y-110033716D01*
X123735991Y-109995314D01*
X123992557Y-109967710D01*
X124329910Y-109946184D01*
X124523581Y-109936674D01*
X124903203Y-109915435D01*
X125197893Y-109888469D01*
X125424308Y-109851282D01*
X125599109Y-109799378D01*
X125738956Y-109728264D01*
X125860506Y-109633445D01*
X125939833Y-109554600D01*
X126016014Y-109465305D01*
X126057025Y-109380175D01*
X126071186Y-109265854D01*
X126066815Y-109088986D01*
X126064964Y-109052870D01*
X126050484Y-108860861D01*
X126024808Y-108739372D01*
X125977006Y-108657322D01*
X125901441Y-108587833D01*
X125764261Y-108499810D01*
X125630196Y-108444665D01*
X125624065Y-108443241D01*
X125462362Y-108393881D01*
X125391494Y-108329832D01*
X125400730Y-108239097D01*
X125415006Y-108209511D01*
X125450441Y-108068098D01*
X125447733Y-108013261D01*
X124585289Y-108013261D01*
X124574485Y-108034211D01*
X124475800Y-108062481D01*
X124233596Y-108124354D01*
X124074415Y-108162174D01*
X123982761Y-108176725D01*
X123943139Y-108168790D01*
X123940053Y-108139153D01*
X123957988Y-108088653D01*
X124025943Y-108032056D01*
X124157983Y-107989336D01*
X124316825Y-107967485D01*
X124465185Y-107973499D01*
X124511758Y-107984776D01*
X124585289Y-108013261D01*
X125447733Y-108013261D01*
X125443292Y-107923347D01*
X125388752Y-107793675D01*
X125273239Y-107696636D01*
X125085878Y-107627580D01*
X124815794Y-107581855D01*
X124601113Y-107563121D01*
X124268861Y-107561248D01*
X123965420Y-107597599D01*
X123965420Y-107597599D01*
G37*
X123965420Y-107597599D02*
X123712307Y-107667624D01*
X123531038Y-107766771D01*
X123498801Y-107796268D01*
X123378461Y-107896840D01*
X123294700Y-107949298D01*
X123207148Y-108026437D01*
X123180400Y-108096759D01*
X123148891Y-108170849D01*
X123067871Y-108293393D01*
X122957598Y-108438993D01*
X122838334Y-108582248D01*
X122730340Y-108697758D01*
X122653873Y-108760125D01*
X122649722Y-108762059D01*
X122550459Y-108832018D01*
X122419994Y-108959534D01*
X122282188Y-109116780D01*
X122160899Y-109275925D01*
X122079985Y-109409141D01*
X122066206Y-109442681D01*
X121983085Y-109601614D01*
X121864053Y-109736341D01*
X121854066Y-109744272D01*
X121711723Y-109855549D01*
X121556925Y-109979938D01*
X121533526Y-109999100D01*
X121399290Y-110087003D01*
X121272841Y-110134983D01*
X121243294Y-110138035D01*
X121089617Y-110111786D01*
X120877296Y-110042651D01*
X120633051Y-109942841D01*
X120383599Y-109824569D01*
X120155659Y-109700049D01*
X119975950Y-109581493D01*
X119915574Y-109531144D01*
X119804053Y-109437151D01*
X119717557Y-109382573D01*
X119697479Y-109377035D01*
X119624329Y-109345050D01*
X119533830Y-109274572D01*
X119409336Y-109201873D01*
X119237399Y-109152847D01*
X119051915Y-109131025D01*
X118886775Y-109139937D01*
X118775876Y-109183114D01*
X118764582Y-109194443D01*
X118720790Y-109311760D01*
X118775622Y-109435553D01*
X118926507Y-109563233D01*
X119170875Y-109692210D01*
X119319600Y-109753428D01*
X119403467Y-109794507D01*
X119539468Y-109869644D01*
X119649800Y-109933946D01*
X119824346Y-110034271D01*
X119992617Y-110125192D01*
X120070072Y-110163988D01*
X120210408Y-110243220D01*
X120322014Y-110326973D01*
X120325639Y-110330471D01*
X120541800Y-110478637D01*
X120836054Y-110581640D01*
X121193028Y-110634149D01*
X121203161Y-110634802D01*
X121588121Y-110658842D01*
X121850861Y-110391925D01*
X121979005Y-110253321D01*
X122072542Y-110136092D01*
X122113151Y-110063444D01*
X122113600Y-110059127D01*
X122155739Y-109991919D01*
X122212678Y-109961800D01*
X122303170Y-109899596D01*
X122399874Y-109786284D01*
X122416987Y-109760086D01*
X122521431Y-109619820D01*
X122659783Y-109468215D01*
X122714235Y-109416342D01*
X122846058Y-109284383D01*
X123002373Y-109109547D01*
X123139915Y-108941533D01*
X123338594Y-108692439D01*
X123486030Y-108524260D01*
X123586261Y-108432665D01*
X123634072Y-108411600D01*
X123677430Y-108454594D01*
X123708893Y-108537133D01*
X123769118Y-108654206D01*
X123834924Y-108713255D01*
X123918992Y-108733933D01*
X124082695Y-108754968D01*
X124304098Y-108774162D01*
X124561269Y-108789323D01*
X124621051Y-108791922D01*
X124885629Y-108805487D01*
X125121699Y-108822798D01*
X125306482Y-108841818D01*
X125417201Y-108860510D01*
X125428780Y-108864153D01*
X125526940Y-108947137D01*
X125551417Y-109076876D01*
X125499635Y-109227557D01*
X125469492Y-109272136D01*
X125428342Y-109319704D01*
X125377323Y-109354560D01*
X125299592Y-109379924D01*
X125178303Y-109399017D01*
X124996610Y-109415058D01*
X124737669Y-109431268D01*
X124595313Y-109439263D01*
X124300559Y-109459423D01*
X124020209Y-109485496D01*
X123779993Y-109514610D01*
X123605638Y-109543894D01*
X123561400Y-109554640D01*
X123240947Y-109696901D01*
X122940396Y-109932159D01*
X122668021Y-110252478D01*
X122443887Y-110626390D01*
X122346036Y-110812874D01*
X122259176Y-110966126D01*
X122197303Y-111061904D01*
X122182792Y-111078600D01*
X122130475Y-111157745D01*
X122074867Y-111288770D01*
X122064459Y-111319922D01*
X122017054Y-111433279D01*
X121947896Y-111506307D01*
X121837582Y-111545632D01*
X121666708Y-111557878D01*
X121415871Y-111549668D01*
X121394924Y-111548505D01*
X121114284Y-111516143D01*
X120814934Y-111446416D01*
X120476556Y-111333272D01*
X120078834Y-111170661D01*
X119980000Y-111127043D01*
X119782321Y-111042258D01*
X119603787Y-110971663D01*
X119477524Y-110928231D01*
X119461176Y-110923877D01*
X119345260Y-110853933D01*
X119223230Y-110713973D01*
X119115069Y-110532171D01*
X119040759Y-110336701D01*
X119038498Y-110327903D01*
X118978428Y-110191727D01*
X118892840Y-110072838D01*
X118804391Y-109948577D01*
X118718329Y-109783599D01*
X118695224Y-109727914D01*
X118584914Y-109507994D01*
X118451087Y-109344548D01*
X118308041Y-109245864D01*
X118170072Y-109220232D01*
X118051479Y-109275943D01*
X118008322Y-109329631D01*
X117975819Y-109405295D01*
X117986429Y-109488331D01*
X118046785Y-109611867D01*
X118074464Y-109659867D01*
X118170829Y-109810308D01*
X118264684Y-109934982D01*
X118300448Y-109973735D01*
X118381937Y-110072515D01*
X118476956Y-110217719D01*
X118567103Y-110376917D01*
X118633977Y-110517681D01*
X118659200Y-110605952D01*
X118679745Y-110676359D01*
X118733876Y-110812668D01*
X118810345Y-110989611D01*
X118897900Y-111181921D01*
X118985291Y-111364330D01*
X119061266Y-111511568D01*
X119067259Y-111522410D01*
X119109442Y-111636481D01*
X119116400Y-111689113D01*
X119131938Y-111776206D01*
X119172402Y-111924725D01*
X119221347Y-112079133D01*
X119269395Y-112257904D01*
X119321859Y-112512476D01*
X119375005Y-112817376D01*
X119425101Y-113147134D01*
X119468411Y-113476276D01*
X119501204Y-113779332D01*
X119519745Y-114030829D01*
X119522516Y-114133864D01*
X119533121Y-114307413D01*
X119568023Y-114400527D01*
X119603155Y-114425964D01*
X119737389Y-114454506D01*
X119855780Y-114444394D01*
X119895334Y-114422933D01*
X119921121Y-114341907D01*
X119932289Y-114177148D01*
X119930467Y-113945218D01*
X119917286Y-113662675D01*
X119894374Y-113346080D01*
X119863362Y-113011992D01*
X119825879Y-112676973D01*
X119783556Y-112357580D01*
X119738021Y-112070376D01*
X119690905Y-111831919D01*
X119643836Y-111658770D01*
X119616966Y-111594353D01*
X119587804Y-111507115D01*
X119594561Y-111472506D01*
X119644998Y-111484883D01*
X119748174Y-111538010D01*
X119874080Y-111613682D01*
X119992707Y-111693698D01*
X120074047Y-111759853D01*
X120081600Y-111767941D01*
X120144071Y-111797578D01*
X120283247Y-111843848D01*
X120476864Y-111900418D01*
X120702656Y-111960959D01*
X120938358Y-112019139D01*
X121072200Y-112049607D01*
X121340120Y-112095541D01*
X121596280Y-112116694D01*
X121818318Y-112113272D01*
X121983877Y-112085482D01*
X122065580Y-112040450D01*
X122159305Y-111958459D01*
X122269048Y-111889823D01*
X122380225Y-111795879D01*
X122439262Y-111688195D01*
X122485273Y-111582924D01*
X122575111Y-111430084D01*
X122689742Y-111261926D01*
X122695211Y-111254471D01*
X122811200Y-111082532D01*
X122903029Y-110920040D01*
X122951292Y-110801432D01*
X122951834Y-110799049D01*
X122985915Y-110692552D01*
X123021752Y-110646831D01*
X123022518Y-110646800D01*
X123061587Y-110604203D01*
X123123058Y-110494405D01*
X123172007Y-110389737D01*
X123235906Y-110260927D01*
X123310170Y-110161801D01*
X123408882Y-110087638D01*
X123546128Y-110033716D01*
X123735991Y-109995314D01*
X123992557Y-109967710D01*
X124329910Y-109946184D01*
X124523581Y-109936674D01*
X124903203Y-109915435D01*
X125197893Y-109888469D01*
X125424308Y-109851282D01*
X125599109Y-109799378D01*
X125738956Y-109728264D01*
X125860506Y-109633445D01*
X125939833Y-109554600D01*
X126016014Y-109465305D01*
X126057025Y-109380175D01*
X126071186Y-109265854D01*
X126066815Y-109088986D01*
X126064964Y-109052870D01*
X126050484Y-108860861D01*
X126024808Y-108739372D01*
X125977006Y-108657322D01*
X125901441Y-108587833D01*
X125764261Y-108499810D01*
X125630196Y-108444665D01*
X125624065Y-108443241D01*
X125462362Y-108393881D01*
X125391494Y-108329832D01*
X125400730Y-108239097D01*
X125415006Y-108209511D01*
X125450441Y-108068098D01*
X125447733Y-108013261D01*
X124585289Y-108013261D01*
X124574485Y-108034211D01*
X124475800Y-108062481D01*
X124233596Y-108124354D01*
X124074415Y-108162174D01*
X123982761Y-108176725D01*
X123943139Y-108168790D01*
X123940053Y-108139153D01*
X123957988Y-108088653D01*
X124025943Y-108032056D01*
X124157983Y-107989336D01*
X124316825Y-107967485D01*
X124465185Y-107973499D01*
X124511758Y-107984776D01*
X124585289Y-108013261D01*
X125447733Y-108013261D01*
X125443292Y-107923347D01*
X125388752Y-107793675D01*
X125273239Y-107696636D01*
X125085878Y-107627580D01*
X124815794Y-107581855D01*
X124601113Y-107563121D01*
X124268861Y-107561248D01*
X123965420Y-107597599D01*
G36*
X105065613Y-108455614D02*
X104957596Y-108492741D01*
X104858331Y-108580010D01*
X104833984Y-108606762D01*
X104742884Y-108731322D01*
X104692636Y-108843946D01*
X104689200Y-108869601D01*
X104674392Y-108931617D01*
X104613137Y-108962477D01*
X104480192Y-108973065D01*
X104447900Y-108973642D01*
X104132886Y-108989521D01*
X103904181Y-109031744D01*
X103748451Y-109106810D01*
X103652364Y-109221219D01*
X103602585Y-109381471D01*
X103601829Y-109386060D01*
X103599348Y-109612112D01*
X103680320Y-109788155D01*
X103852672Y-109930095D01*
X103881020Y-109946223D01*
X104049663Y-110038714D01*
X104211712Y-110127401D01*
X104251367Y-110149059D01*
X104416878Y-110206010D01*
X104658758Y-110234062D01*
X104805288Y-110237959D01*
X105068769Y-110251552D01*
X105264456Y-110295516D01*
X105424191Y-110380334D01*
X105543729Y-110481041D01*
X105618690Y-110535910D01*
X105647170Y-110545200D01*
X105701185Y-110576912D01*
X105804591Y-110659250D01*
X105910241Y-110752104D01*
X106085867Y-110891510D01*
X106298950Y-111032237D01*
X106441800Y-111111913D01*
X106632352Y-111208769D01*
X106814745Y-111303545D01*
X106924400Y-111362130D01*
X107083494Y-111415362D01*
X107308548Y-111448933D01*
X107565723Y-111462201D01*
X107821176Y-111454527D01*
X108041064Y-111425268D01*
X108169000Y-111385713D01*
X108337292Y-111309262D01*
X108532403Y-111224308D01*
X108716910Y-111146812D01*
X108853394Y-111092734D01*
X108870378Y-111086576D01*
X108934704Y-111033316D01*
X108946550Y-110920904D01*
X108943527Y-110888590D01*
X108915048Y-110769959D01*
X108846009Y-110718311D01*
X108780001Y-110706129D01*
X108633082Y-110711412D01*
X108529053Y-110740947D01*
X108114165Y-110918801D01*
X107757381Y-111019089D01*
X107649329Y-111035722D01*
X107519861Y-111047263D01*
X107411429Y-111042010D01*
X107298051Y-111012560D01*
X107153745Y-110951510D01*
X106952528Y-110851455D01*
X106890119Y-110819392D01*
X106685114Y-110707103D01*
X106512323Y-110600027D01*
X106393522Y-110512384D01*
X106353482Y-110469000D01*
X106272130Y-110355783D01*
X106218420Y-110304048D01*
X106009251Y-110142946D01*
X105863483Y-110035725D01*
X105765646Y-109972221D01*
X105700269Y-109942271D01*
X105657575Y-109935600D01*
X105555056Y-109910242D01*
X105524860Y-109890054D01*
X105455781Y-109867940D01*
X105310231Y-109846206D01*
X105113301Y-109828118D01*
X104994000Y-109820994D01*
X104705664Y-109794787D01*
X104466540Y-109749150D01*
X104291443Y-109688533D01*
X104195186Y-109617387D01*
X104181200Y-109576795D01*
X104229462Y-109560328D01*
X104364595Y-109551366D01*
X104572118Y-109550300D01*
X104837550Y-109557523D01*
X104860050Y-109558437D01*
X105141589Y-109568547D01*
X105339453Y-109570663D01*
X105471341Y-109563510D01*
X105554955Y-109545810D01*
X105607998Y-109516287D01*
X105622050Y-109503493D01*
X105696193Y-109386691D01*
X105679131Y-109267832D01*
X105567890Y-109137976D01*
X105476685Y-109066605D01*
X105355118Y-108974056D01*
X105280001Y-108906567D01*
X105266914Y-108883753D01*
X105317671Y-108896040D01*
X105435651Y-108945372D01*
X105597921Y-109021952D01*
X105643713Y-109044704D01*
X105822348Y-109130051D01*
X105971365Y-109193444D01*
X106063402Y-109223422D01*
X106072756Y-109224400D01*
X106140491Y-109260379D01*
X106248243Y-109354443D01*
X106365600Y-109478400D01*
X106483416Y-109607468D01*
X106576580Y-109698908D01*
X106623828Y-109732400D01*
X106682084Y-109758225D01*
X106802528Y-109826524D01*
X106962739Y-109923528D01*
X107140292Y-110035468D01*
X107312763Y-110148576D01*
X107409767Y-110214971D01*
X107562551Y-110280247D01*
X107752970Y-110306772D01*
X107941736Y-110294464D01*
X108089559Y-110243240D01*
X108123978Y-110216479D01*
X108201449Y-110158785D01*
X108342055Y-110080893D01*
X108556117Y-109977554D01*
X108853955Y-109843522D01*
X108880200Y-109831979D01*
X108972986Y-109794096D01*
X109131908Y-109731940D01*
X109327936Y-109656819D01*
X109399960Y-109629548D01*
X109591039Y-109553530D01*
X109743610Y-109485515D01*
X109833943Y-109436390D01*
X109847459Y-109424270D01*
X109913772Y-109391625D01*
X110034880Y-109376872D01*
X110044181Y-109376800D01*
X110218413Y-109338177D01*
X110364044Y-109238367D01*
X110455004Y-109101458D01*
X110471013Y-108982456D01*
X110444330Y-108885932D01*
X110372622Y-108842341D01*
X110277200Y-108829304D01*
X110120107Y-108835329D01*
X109928221Y-108866836D01*
X109845400Y-108887529D01*
X109698567Y-108934928D01*
X109508864Y-109003812D01*
X109300120Y-109084540D01*
X109096163Y-109167468D01*
X108920823Y-109242954D01*
X108797926Y-109301356D01*
X108753200Y-109329499D01*
X108697262Y-109363747D01*
X108574852Y-109425903D01*
X108412331Y-109502592D01*
X108410300Y-109503520D01*
X108251890Y-109580453D01*
X108138103Y-109644352D01*
X108092850Y-109681748D01*
X108092800Y-109682366D01*
X108049018Y-109730826D01*
X107942694Y-109782036D01*
X107811360Y-109821209D01*
X107707858Y-109834000D01*
X107573864Y-109787667D01*
X107425586Y-109656200D01*
X107322808Y-109550287D01*
X107242171Y-109486653D01*
X107220079Y-109478400D01*
X107156960Y-109448614D01*
X107040618Y-109371510D01*
X106895332Y-109265467D01*
X106745381Y-109148863D01*
X106615043Y-109040078D01*
X106528598Y-108957490D01*
X106522307Y-108950188D01*
X106436217Y-108889276D01*
X106291732Y-108824312D01*
X106200986Y-108793678D01*
X105994294Y-108719162D01*
X105779047Y-108622283D01*
X105712432Y-108587164D01*
X105409677Y-108471646D01*
X105228342Y-108450407D01*
X105065613Y-108455614D01*
X105065613Y-108455614D01*
G37*
X105065613Y-108455614D02*
X104957596Y-108492741D01*
X104858331Y-108580010D01*
X104833984Y-108606762D01*
X104742884Y-108731322D01*
X104692636Y-108843946D01*
X104689200Y-108869601D01*
X104674392Y-108931617D01*
X104613137Y-108962477D01*
X104480192Y-108973065D01*
X104447900Y-108973642D01*
X104132886Y-108989521D01*
X103904181Y-109031744D01*
X103748451Y-109106810D01*
X103652364Y-109221219D01*
X103602585Y-109381471D01*
X103601829Y-109386060D01*
X103599348Y-109612112D01*
X103680320Y-109788155D01*
X103852672Y-109930095D01*
X103881020Y-109946223D01*
X104049663Y-110038714D01*
X104211712Y-110127401D01*
X104251367Y-110149059D01*
X104416878Y-110206010D01*
X104658758Y-110234062D01*
X104805288Y-110237959D01*
X105068769Y-110251552D01*
X105264456Y-110295516D01*
X105424191Y-110380334D01*
X105543729Y-110481041D01*
X105618690Y-110535910D01*
X105647170Y-110545200D01*
X105701185Y-110576912D01*
X105804591Y-110659250D01*
X105910241Y-110752104D01*
X106085867Y-110891510D01*
X106298950Y-111032237D01*
X106441800Y-111111913D01*
X106632352Y-111208769D01*
X106814745Y-111303545D01*
X106924400Y-111362130D01*
X107083494Y-111415362D01*
X107308548Y-111448933D01*
X107565723Y-111462201D01*
X107821176Y-111454527D01*
X108041064Y-111425268D01*
X108169000Y-111385713D01*
X108337292Y-111309262D01*
X108532403Y-111224308D01*
X108716910Y-111146812D01*
X108853394Y-111092734D01*
X108870378Y-111086576D01*
X108934704Y-111033316D01*
X108946550Y-110920904D01*
X108943527Y-110888590D01*
X108915048Y-110769959D01*
X108846009Y-110718311D01*
X108780001Y-110706129D01*
X108633082Y-110711412D01*
X108529053Y-110740947D01*
X108114165Y-110918801D01*
X107757381Y-111019089D01*
X107649329Y-111035722D01*
X107519861Y-111047263D01*
X107411429Y-111042010D01*
X107298051Y-111012560D01*
X107153745Y-110951510D01*
X106952528Y-110851455D01*
X106890119Y-110819392D01*
X106685114Y-110707103D01*
X106512323Y-110600027D01*
X106393522Y-110512384D01*
X106353482Y-110469000D01*
X106272130Y-110355783D01*
X106218420Y-110304048D01*
X106009251Y-110142946D01*
X105863483Y-110035725D01*
X105765646Y-109972221D01*
X105700269Y-109942271D01*
X105657575Y-109935600D01*
X105555056Y-109910242D01*
X105524860Y-109890054D01*
X105455781Y-109867940D01*
X105310231Y-109846206D01*
X105113301Y-109828118D01*
X104994000Y-109820994D01*
X104705664Y-109794787D01*
X104466540Y-109749150D01*
X104291443Y-109688533D01*
X104195186Y-109617387D01*
X104181200Y-109576795D01*
X104229462Y-109560328D01*
X104364595Y-109551366D01*
X104572118Y-109550300D01*
X104837550Y-109557523D01*
X104860050Y-109558437D01*
X105141589Y-109568547D01*
X105339453Y-109570663D01*
X105471341Y-109563510D01*
X105554955Y-109545810D01*
X105607998Y-109516287D01*
X105622050Y-109503493D01*
X105696193Y-109386691D01*
X105679131Y-109267832D01*
X105567890Y-109137976D01*
X105476685Y-109066605D01*
X105355118Y-108974056D01*
X105280001Y-108906567D01*
X105266914Y-108883753D01*
X105317671Y-108896040D01*
X105435651Y-108945372D01*
X105597921Y-109021952D01*
X105643713Y-109044704D01*
X105822348Y-109130051D01*
X105971365Y-109193444D01*
X106063402Y-109223422D01*
X106072756Y-109224400D01*
X106140491Y-109260379D01*
X106248243Y-109354443D01*
X106365600Y-109478400D01*
X106483416Y-109607468D01*
X106576580Y-109698908D01*
X106623828Y-109732400D01*
X106682084Y-109758225D01*
X106802528Y-109826524D01*
X106962739Y-109923528D01*
X107140292Y-110035468D01*
X107312763Y-110148576D01*
X107409767Y-110214971D01*
X107562551Y-110280247D01*
X107752970Y-110306772D01*
X107941736Y-110294464D01*
X108089559Y-110243240D01*
X108123978Y-110216479D01*
X108201449Y-110158785D01*
X108342055Y-110080893D01*
X108556117Y-109977554D01*
X108853955Y-109843522D01*
X108880200Y-109831979D01*
X108972986Y-109794096D01*
X109131908Y-109731940D01*
X109327936Y-109656819D01*
X109399960Y-109629548D01*
X109591039Y-109553530D01*
X109743610Y-109485515D01*
X109833943Y-109436390D01*
X109847459Y-109424270D01*
X109913772Y-109391625D01*
X110034880Y-109376872D01*
X110044181Y-109376800D01*
X110218413Y-109338177D01*
X110364044Y-109238367D01*
X110455004Y-109101458D01*
X110471013Y-108982456D01*
X110444330Y-108885932D01*
X110372622Y-108842341D01*
X110277200Y-108829304D01*
X110120107Y-108835329D01*
X109928221Y-108866836D01*
X109845400Y-108887529D01*
X109698567Y-108934928D01*
X109508864Y-109003812D01*
X109300120Y-109084540D01*
X109096163Y-109167468D01*
X108920823Y-109242954D01*
X108797926Y-109301356D01*
X108753200Y-109329499D01*
X108697262Y-109363747D01*
X108574852Y-109425903D01*
X108412331Y-109502592D01*
X108410300Y-109503520D01*
X108251890Y-109580453D01*
X108138103Y-109644352D01*
X108092850Y-109681748D01*
X108092800Y-109682366D01*
X108049018Y-109730826D01*
X107942694Y-109782036D01*
X107811360Y-109821209D01*
X107707858Y-109834000D01*
X107573864Y-109787667D01*
X107425586Y-109656200D01*
X107322808Y-109550287D01*
X107242171Y-109486653D01*
X107220079Y-109478400D01*
X107156960Y-109448614D01*
X107040618Y-109371510D01*
X106895332Y-109265467D01*
X106745381Y-109148863D01*
X106615043Y-109040078D01*
X106528598Y-108957490D01*
X106522307Y-108950188D01*
X106436217Y-108889276D01*
X106291732Y-108824312D01*
X106200986Y-108793678D01*
X105994294Y-108719162D01*
X105779047Y-108622283D01*
X105712432Y-108587164D01*
X105409677Y-108471646D01*
X105228342Y-108450407D01*
X105065613Y-108455614D01*
G36*
X106213200Y-109503800D02*
X106238600Y-109529200D01*
X106264000Y-109503800D01*
X106238600Y-109478400D01*
X106213200Y-109503800D01*
X106213200Y-109503800D01*
G37*
X106213200Y-109503800D02*
X106238600Y-109529200D01*
X106264000Y-109503800D01*
X106238600Y-109478400D01*
X106213200Y-109503800D01*
G36*
X112761014Y-93483315D02*
X112403782Y-93488308D01*
X112100581Y-93497747D01*
X111866972Y-93511906D01*
X111770646Y-93522230D01*
X111279905Y-93602631D01*
X110857685Y-93699001D01*
X110514015Y-93808516D01*
X110258928Y-93928352D01*
X110205564Y-93962796D01*
X110100427Y-94019332D01*
X110037433Y-94035200D01*
X109939857Y-94059991D01*
X109778763Y-94126669D01*
X109577046Y-94223684D01*
X109357601Y-94339490D01*
X109143325Y-94462539D01*
X108963958Y-94576609D01*
X108780696Y-94715675D01*
X108610960Y-94868822D01*
X108492017Y-95002254D01*
X108387725Y-95129413D01*
X108291731Y-95219229D01*
X108255860Y-95240564D01*
X108182804Y-95288021D01*
X108072094Y-95380718D01*
X107948077Y-95495443D01*
X107835102Y-95608981D01*
X107757517Y-95698120D01*
X107737200Y-95735040D01*
X107709836Y-95788912D01*
X107639857Y-95895741D01*
X107584800Y-95973661D01*
X107496975Y-96106850D01*
X107441900Y-96213363D01*
X107432400Y-96248993D01*
X107400092Y-96339455D01*
X107368646Y-96381071D01*
X107262783Y-96513380D01*
X107138761Y-96698065D01*
X107017693Y-96900246D01*
X106920693Y-97085043D01*
X106874432Y-97197500D01*
X106825207Y-97318503D01*
X106776285Y-97384116D01*
X106765063Y-97388000D01*
X106738499Y-97419401D01*
X106746815Y-97439146D01*
X106741179Y-97510525D01*
X106686168Y-97619143D01*
X106673613Y-97637488D01*
X106603738Y-97744659D01*
X106569499Y-97814913D01*
X106568801Y-97819964D01*
X106549014Y-97885761D01*
X106500655Y-97999840D01*
X106493442Y-98015322D01*
X106449363Y-98135723D01*
X106394585Y-98323770D01*
X106338099Y-98547433D01*
X106313027Y-98658000D01*
X106260128Y-98894074D01*
X106207612Y-99116783D01*
X106163872Y-99290954D01*
X106149381Y-99343800D01*
X106129888Y-99466052D01*
X106114334Y-99672182D01*
X106102724Y-99944545D01*
X106095064Y-100265495D01*
X106091359Y-100617385D01*
X106091613Y-100982571D01*
X106095832Y-101343407D01*
X106104021Y-101682247D01*
X106116185Y-101981445D01*
X106132329Y-102223356D01*
X106148510Y-102366400D01*
X106181545Y-102585754D01*
X106222514Y-102862173D01*
X106264991Y-103152139D01*
X106287243Y-103305625D01*
X106346254Y-103672574D01*
X106405364Y-103949765D01*
X106467665Y-104148997D01*
X106536251Y-104282069D01*
X106547076Y-104296800D01*
X106603658Y-104386286D01*
X106679145Y-104525300D01*
X106758392Y-104683139D01*
X106826260Y-104829105D01*
X106867605Y-104932495D01*
X106873600Y-104958827D01*
X106900731Y-105021681D01*
X106970720Y-105137576D01*
X107038700Y-105238527D01*
X107140487Y-105386631D01*
X107223880Y-105512933D01*
X107256584Y-105565856D01*
X107328965Y-105678081D01*
X107365018Y-105726482D01*
X107414966Y-105823811D01*
X107455039Y-105956256D01*
X107500794Y-106076843D01*
X107563754Y-106145593D01*
X107565725Y-106146397D01*
X107617192Y-106194854D01*
X107613081Y-106222539D01*
X107624205Y-106288643D01*
X107688868Y-106390013D01*
X107782485Y-106496960D01*
X107880471Y-106579793D01*
X107929932Y-106605189D01*
X108015431Y-106664510D01*
X108108841Y-106772310D01*
X108118200Y-106786000D01*
X108210742Y-106897181D01*
X108301202Y-106964660D01*
X108309331Y-106967719D01*
X108393912Y-107026369D01*
X108492614Y-107136314D01*
X108516795Y-107170001D01*
X108695896Y-107372481D01*
X108952870Y-107561245D01*
X109235800Y-107715123D01*
X109421939Y-107823787D01*
X109601746Y-107956919D01*
X109667600Y-108016611D01*
X109846779Y-108175185D01*
X110069818Y-108342126D01*
X110315875Y-108505039D01*
X110564105Y-108651529D01*
X110793664Y-108769202D01*
X110983710Y-108845662D01*
X111101012Y-108869012D01*
X111211239Y-108891668D01*
X111366978Y-108949433D01*
X111466910Y-108996012D01*
X111627874Y-109067806D01*
X111768275Y-109113761D01*
X111826743Y-109122800D01*
X111930527Y-109137346D01*
X111971482Y-109157615D01*
X112037638Y-109197431D01*
X112158731Y-109253079D01*
X112195849Y-109268332D01*
X112309519Y-109292812D01*
X112510034Y-109313850D01*
X112782697Y-109331341D01*
X113112807Y-109345185D01*
X113485665Y-109355276D01*
X113886573Y-109361513D01*
X114300832Y-109363793D01*
X114713741Y-109362012D01*
X115110602Y-109356068D01*
X115476716Y-109345858D01*
X115797384Y-109331278D01*
X116057907Y-109312226D01*
X116195400Y-109296348D01*
X116640990Y-109231167D01*
X116996832Y-109176655D01*
X117273981Y-109130769D01*
X117483490Y-109091465D01*
X117636414Y-109056701D01*
X117743806Y-109024432D01*
X117804674Y-108998887D01*
X117939599Y-108946987D01*
X118126245Y-108893568D01*
X118262391Y-108862860D01*
X118452389Y-108811786D01*
X118620712Y-108743364D01*
X118702465Y-108693450D01*
X118815938Y-108608205D01*
X118977801Y-108494796D01*
X119132244Y-108391474D01*
X119386050Y-108206720D01*
X119677852Y-107963420D01*
X119986575Y-107682060D01*
X120291142Y-107383126D01*
X120570477Y-107087104D01*
X120803502Y-106814479D01*
X120932500Y-106641654D01*
X121036155Y-106486280D01*
X121112614Y-106364731D01*
X121147603Y-106299855D01*
X121148400Y-106296155D01*
X121178004Y-106244097D01*
X121254816Y-106139012D01*
X121340143Y-106031050D01*
X121467229Y-105861310D01*
X121582622Y-105684822D01*
X121632243Y-105596327D01*
X121728320Y-105408308D01*
X121791968Y-105293741D01*
X121835233Y-105234730D01*
X121870163Y-105213379D01*
X121891489Y-105211200D01*
X121938540Y-105166829D01*
X121974604Y-105058740D01*
X121976823Y-105046100D01*
X122014894Y-104853639D01*
X122065727Y-104650731D01*
X122119473Y-104472856D01*
X122166284Y-104355496D01*
X122170708Y-104347600D01*
X122243380Y-104217458D01*
X122301976Y-104088937D01*
X122347943Y-103949588D01*
X122382724Y-103786961D01*
X122407767Y-103588609D01*
X122424515Y-103342081D01*
X122434414Y-103034930D01*
X122438911Y-102654707D01*
X122439449Y-102188962D01*
X122439386Y-102163200D01*
X122010249Y-102163200D01*
X122006167Y-102664852D01*
X121995764Y-103073013D01*
X121978314Y-103395639D01*
X121953089Y-103640685D01*
X121919365Y-103816105D01*
X121876415Y-103929855D01*
X121845129Y-103972605D01*
X121813613Y-104049935D01*
X121808800Y-104099810D01*
X121781421Y-104196357D01*
X121712793Y-104329407D01*
X121681800Y-104377832D01*
X121603418Y-104510732D01*
X121558522Y-104620529D01*
X121554423Y-104646788D01*
X121529760Y-104724915D01*
X121464039Y-104865370D01*
X121369124Y-105043751D01*
X121317075Y-105135000D01*
X121195408Y-105345966D01*
X121078849Y-105552012D01*
X120987410Y-105717645D01*
X120966370Y-105756985D01*
X120855515Y-105944079D01*
X120716708Y-106144923D01*
X120564306Y-106342552D01*
X120412668Y-106520001D01*
X120276152Y-106660305D01*
X120169115Y-106746501D01*
X120113333Y-106764888D01*
X120084825Y-106766057D01*
X120095904Y-106773693D01*
X120088900Y-106820564D01*
X120027787Y-106916862D01*
X119968904Y-106990666D01*
X119846809Y-107136215D01*
X119734794Y-107273963D01*
X119700600Y-107317479D01*
X119590333Y-107434588D01*
X119432803Y-107571849D01*
X119257929Y-107706253D01*
X119095630Y-107814788D01*
X118976866Y-107874116D01*
X118873258Y-107932514D01*
X118747896Y-108036241D01*
X118705930Y-108078239D01*
X118510803Y-108235552D01*
X118236771Y-108387746D01*
X117906475Y-108526336D01*
X117542555Y-108642839D01*
X117167651Y-108728769D01*
X116855800Y-108771564D01*
X116603181Y-108793498D01*
X116382357Y-108811190D01*
X116178489Y-108825027D01*
X115976736Y-108835399D01*
X115762261Y-108842691D01*
X115520225Y-108847294D01*
X115235787Y-108849593D01*
X114894110Y-108849977D01*
X114480353Y-108848835D01*
X113985600Y-108846582D01*
X112182200Y-108837650D01*
X111826600Y-108697768D01*
X111500118Y-108566957D01*
X111251535Y-108460893D01*
X111062840Y-108370796D01*
X110916024Y-108287886D01*
X110793076Y-108203383D01*
X110759800Y-108177710D01*
X110589774Y-108054720D01*
X110408167Y-107939310D01*
X110353400Y-107908420D01*
X110054377Y-107741224D01*
X109827271Y-107597628D01*
X109649706Y-107463404D01*
X109637519Y-107453111D01*
X109503238Y-107344799D01*
X109378515Y-107253334D01*
X109363285Y-107243200D01*
X109224501Y-107139462D01*
X109041745Y-106983964D01*
X108832654Y-106793837D01*
X108614863Y-106586215D01*
X108406010Y-106378230D01*
X108223730Y-106187015D01*
X108085659Y-106029702D01*
X108015064Y-105933478D01*
X107942630Y-105827171D01*
X107886294Y-105772118D01*
X107878648Y-105770000D01*
X107839886Y-105731053D01*
X107838800Y-105719317D01*
X107811076Y-105653634D01*
X107739207Y-105535206D01*
X107661000Y-105421150D01*
X107565093Y-105274119D01*
X107500538Y-105149239D01*
X107483200Y-105088555D01*
X107460679Y-105014346D01*
X107398875Y-104869430D01*
X107306433Y-104672688D01*
X107191995Y-104443001D01*
X107153073Y-104367421D01*
X107028908Y-104117546D01*
X106921035Y-103880530D01*
X106839553Y-103680011D01*
X106794562Y-103539630D01*
X106790508Y-103518798D01*
X106758582Y-103361049D01*
X106719738Y-103234339D01*
X106710111Y-103212932D01*
X106676595Y-103104005D01*
X106639933Y-102910867D01*
X106601757Y-102650797D01*
X106563697Y-102341071D01*
X106527385Y-101998968D01*
X106494451Y-101641765D01*
X106466527Y-101286739D01*
X106445242Y-100951168D01*
X106432229Y-100652330D01*
X106429119Y-100407502D01*
X106433419Y-100281785D01*
X106526085Y-99592898D01*
X106711424Y-98897106D01*
X106970647Y-98243383D01*
X107047680Y-98068295D01*
X107103667Y-97923903D01*
X107127425Y-97839253D01*
X107127600Y-97835586D01*
X107155067Y-97743070D01*
X107203544Y-97657781D01*
X107257633Y-97560541D01*
X107333564Y-97398998D01*
X107417114Y-97203832D01*
X107438405Y-97151178D01*
X107524546Y-96943360D01*
X107606582Y-96771626D01*
X107697901Y-96617093D01*
X107811889Y-96460878D01*
X107961931Y-96284100D01*
X108161414Y-96067875D01*
X108337109Y-95883487D01*
X108468128Y-95733153D01*
X108570030Y-95590967D01*
X108619958Y-95489787D01*
X108681879Y-95379779D01*
X108753726Y-95355999D01*
X108850877Y-95321000D01*
X108968555Y-95233941D01*
X108999558Y-95203600D01*
X109110646Y-95107174D01*
X109208148Y-95054514D01*
X109228600Y-95051200D01*
X109300689Y-95025070D01*
X109312000Y-94998805D01*
X109353201Y-94939460D01*
X109400900Y-94913641D01*
X109481138Y-94867849D01*
X109608511Y-94780048D01*
X109752140Y-94673315D01*
X109881146Y-94570728D01*
X109964649Y-94495362D01*
X109972400Y-94486546D01*
X110035812Y-94449711D01*
X110124800Y-94417396D01*
X110266774Y-94368585D01*
X110404200Y-94313950D01*
X110512472Y-94279364D01*
X110695512Y-94233282D01*
X110927999Y-94181652D01*
X111184609Y-94130417D01*
X111191600Y-94129101D01*
X111373103Y-94096221D01*
X111539332Y-94069972D01*
X111704768Y-94049615D01*
X111883890Y-94034411D01*
X112091178Y-94023619D01*
X112341113Y-94016502D01*
X112648173Y-94012319D01*
X113026839Y-94010332D01*
X113491590Y-94009801D01*
X113528400Y-94009800D01*
X114023715Y-94010681D01*
X114431224Y-94013702D01*
X114764707Y-94019425D01*
X115037946Y-94028414D01*
X115264723Y-94041234D01*
X115458819Y-94058447D01*
X115634015Y-94080619D01*
X115763600Y-94101234D01*
X116056797Y-94150797D01*
X116380761Y-94204475D01*
X116680759Y-94253228D01*
X116779600Y-94268981D01*
X117376655Y-94384231D01*
X117877289Y-94525825D01*
X117998800Y-94569689D01*
X118158084Y-94624205D01*
X118302425Y-94664229D01*
X118309541Y-94665787D01*
X118423074Y-94709736D01*
X118578870Y-94793994D01*
X118702016Y-94872671D01*
X118846644Y-94966749D01*
X118961117Y-95031432D01*
X119013576Y-95051200D01*
X119063901Y-95088368D01*
X119065600Y-95100967D01*
X119107331Y-95151398D01*
X119210031Y-95220322D01*
X119339963Y-95289448D01*
X119463390Y-95340482D01*
X119535964Y-95356000D01*
X119600042Y-95396349D01*
X119685478Y-95498756D01*
X119728488Y-95565049D01*
X119819973Y-95709543D01*
X119903917Y-95827558D01*
X119929200Y-95858125D01*
X119996737Y-95935029D01*
X120108832Y-96065099D01*
X120244463Y-96223903D01*
X120284800Y-96271376D01*
X120414963Y-96424230D01*
X120519424Y-96545933D01*
X120581240Y-96616785D01*
X120589743Y-96626000D01*
X120672411Y-96732618D01*
X120772844Y-96894640D01*
X120869337Y-97073852D01*
X120940183Y-97232040D01*
X120950426Y-97261000D01*
X121006268Y-97408474D01*
X121062142Y-97522053D01*
X121074347Y-97540400D01*
X121130213Y-97638658D01*
X121190619Y-97777568D01*
X121196922Y-97794400D01*
X121257897Y-97947103D01*
X121339145Y-98134348D01*
X121381214Y-98226200D01*
X121468017Y-98432960D01*
X121550767Y-98664042D01*
X121580277Y-98759600D01*
X121635371Y-98949148D01*
X121705671Y-99187204D01*
X121776790Y-99425082D01*
X121782915Y-99445400D01*
X121851266Y-99703182D01*
X121905822Y-99984034D01*
X121947682Y-100301109D01*
X121977947Y-100667559D01*
X121997717Y-101096537D01*
X122008093Y-101601198D01*
X122010249Y-102163200D01*
X122439386Y-102163200D01*
X122439072Y-102036200D01*
X122433931Y-101417994D01*
X122422602Y-100880839D01*
X122405299Y-100428118D01*
X122382240Y-100063214D01*
X122353639Y-99789511D01*
X122319714Y-99610392D01*
X122280679Y-99529241D01*
X122279063Y-99528112D01*
X122238477Y-99457691D01*
X122191042Y-99305224D01*
X122141575Y-99089596D01*
X122094892Y-98829689D01*
X122085741Y-98770231D01*
X122049053Y-98616149D01*
X121979210Y-98395951D01*
X121886156Y-98135530D01*
X121779836Y-97860773D01*
X121670196Y-97597573D01*
X121567181Y-97371818D01*
X121496238Y-97235600D01*
X121436195Y-97120934D01*
X121418483Y-97083200D01*
X121372164Y-97001361D01*
X121355306Y-96981600D01*
X121308477Y-96921786D01*
X121265332Y-96854600D01*
X121067878Y-96528285D01*
X120914018Y-96281717D01*
X120797935Y-96105866D01*
X120713814Y-95991703D01*
X120696040Y-95970527D01*
X120621030Y-95865505D01*
X120589602Y-95783753D01*
X120589600Y-95783450D01*
X120547631Y-95716102D01*
X120495426Y-95688556D01*
X120409678Y-95625901D01*
X120322408Y-95511270D01*
X120311226Y-95491501D01*
X120208582Y-95358818D01*
X120080907Y-95262481D01*
X120071407Y-95258030D01*
X119947985Y-95175580D01*
X119869665Y-95077715D01*
X119789263Y-94975740D01*
X119665255Y-94884134D01*
X119657560Y-94880015D01*
X119530922Y-94805274D01*
X119363104Y-94695310D01*
X119218000Y-94593646D01*
X119064435Y-94490475D01*
X118934098Y-94417453D01*
X118857574Y-94390883D01*
X118763268Y-94355576D01*
X118688946Y-94294001D01*
X118594304Y-94231199D01*
X118431964Y-94187129D01*
X118236572Y-94161291D01*
X118018931Y-94133628D01*
X117810570Y-94096840D01*
X117668600Y-94062213D01*
X117479807Y-94005582D01*
X117273493Y-93948384D01*
X117024839Y-93884052D01*
X116709021Y-93806021D01*
X116601800Y-93780007D01*
X116352500Y-93719447D01*
X116097733Y-93657146D01*
X115883570Y-93604377D01*
X115839800Y-93593505D01*
X115696567Y-93570744D01*
X115467310Y-93549976D01*
X115167590Y-93531474D01*
X114812970Y-93515511D01*
X114419011Y-93502359D01*
X114001274Y-93492291D01*
X113575321Y-93485579D01*
X113156714Y-93482497D01*
X112761014Y-93483315D01*
X112761014Y-93483315D01*
G37*
X112761014Y-93483315D02*
X112403782Y-93488308D01*
X112100581Y-93497747D01*
X111866972Y-93511906D01*
X111770646Y-93522230D01*
X111279905Y-93602631D01*
X110857685Y-93699001D01*
X110514015Y-93808516D01*
X110258928Y-93928352D01*
X110205564Y-93962796D01*
X110100427Y-94019332D01*
X110037433Y-94035200D01*
X109939857Y-94059991D01*
X109778763Y-94126669D01*
X109577046Y-94223684D01*
X109357601Y-94339490D01*
X109143325Y-94462539D01*
X108963958Y-94576609D01*
X108780696Y-94715675D01*
X108610960Y-94868822D01*
X108492017Y-95002254D01*
X108387725Y-95129413D01*
X108291731Y-95219229D01*
X108255860Y-95240564D01*
X108182804Y-95288021D01*
X108072094Y-95380718D01*
X107948077Y-95495443D01*
X107835102Y-95608981D01*
X107757517Y-95698120D01*
X107737200Y-95735040D01*
X107709836Y-95788912D01*
X107639857Y-95895741D01*
X107584800Y-95973661D01*
X107496975Y-96106850D01*
X107441900Y-96213363D01*
X107432400Y-96248993D01*
X107400092Y-96339455D01*
X107368646Y-96381071D01*
X107262783Y-96513380D01*
X107138761Y-96698065D01*
X107017693Y-96900246D01*
X106920693Y-97085043D01*
X106874432Y-97197500D01*
X106825207Y-97318503D01*
X106776285Y-97384116D01*
X106765063Y-97388000D01*
X106738499Y-97419401D01*
X106746815Y-97439146D01*
X106741179Y-97510525D01*
X106686168Y-97619143D01*
X106673613Y-97637488D01*
X106603738Y-97744659D01*
X106569499Y-97814913D01*
X106568801Y-97819964D01*
X106549014Y-97885761D01*
X106500655Y-97999840D01*
X106493442Y-98015322D01*
X106449363Y-98135723D01*
X106394585Y-98323770D01*
X106338099Y-98547433D01*
X106313027Y-98658000D01*
X106260128Y-98894074D01*
X106207612Y-99116783D01*
X106163872Y-99290954D01*
X106149381Y-99343800D01*
X106129888Y-99466052D01*
X106114334Y-99672182D01*
X106102724Y-99944545D01*
X106095064Y-100265495D01*
X106091359Y-100617385D01*
X106091613Y-100982571D01*
X106095832Y-101343407D01*
X106104021Y-101682247D01*
X106116185Y-101981445D01*
X106132329Y-102223356D01*
X106148510Y-102366400D01*
X106181545Y-102585754D01*
X106222514Y-102862173D01*
X106264991Y-103152139D01*
X106287243Y-103305625D01*
X106346254Y-103672574D01*
X106405364Y-103949765D01*
X106467665Y-104148997D01*
X106536251Y-104282069D01*
X106547076Y-104296800D01*
X106603658Y-104386286D01*
X106679145Y-104525300D01*
X106758392Y-104683139D01*
X106826260Y-104829105D01*
X106867605Y-104932495D01*
X106873600Y-104958827D01*
X106900731Y-105021681D01*
X106970720Y-105137576D01*
X107038700Y-105238527D01*
X107140487Y-105386631D01*
X107223880Y-105512933D01*
X107256584Y-105565856D01*
X107328965Y-105678081D01*
X107365018Y-105726482D01*
X107414966Y-105823811D01*
X107455039Y-105956256D01*
X107500794Y-106076843D01*
X107563754Y-106145593D01*
X107565725Y-106146397D01*
X107617192Y-106194854D01*
X107613081Y-106222539D01*
X107624205Y-106288643D01*
X107688868Y-106390013D01*
X107782485Y-106496960D01*
X107880471Y-106579793D01*
X107929932Y-106605189D01*
X108015431Y-106664510D01*
X108108841Y-106772310D01*
X108118200Y-106786000D01*
X108210742Y-106897181D01*
X108301202Y-106964660D01*
X108309331Y-106967719D01*
X108393912Y-107026369D01*
X108492614Y-107136314D01*
X108516795Y-107170001D01*
X108695896Y-107372481D01*
X108952870Y-107561245D01*
X109235800Y-107715123D01*
X109421939Y-107823787D01*
X109601746Y-107956919D01*
X109667600Y-108016611D01*
X109846779Y-108175185D01*
X110069818Y-108342126D01*
X110315875Y-108505039D01*
X110564105Y-108651529D01*
X110793664Y-108769202D01*
X110983710Y-108845662D01*
X111101012Y-108869012D01*
X111211239Y-108891668D01*
X111366978Y-108949433D01*
X111466910Y-108996012D01*
X111627874Y-109067806D01*
X111768275Y-109113761D01*
X111826743Y-109122800D01*
X111930527Y-109137346D01*
X111971482Y-109157615D01*
X112037638Y-109197431D01*
X112158731Y-109253079D01*
X112195849Y-109268332D01*
X112309519Y-109292812D01*
X112510034Y-109313850D01*
X112782697Y-109331341D01*
X113112807Y-109345185D01*
X113485665Y-109355276D01*
X113886573Y-109361513D01*
X114300832Y-109363793D01*
X114713741Y-109362012D01*
X115110602Y-109356068D01*
X115476716Y-109345858D01*
X115797384Y-109331278D01*
X116057907Y-109312226D01*
X116195400Y-109296348D01*
X116640990Y-109231167D01*
X116996832Y-109176655D01*
X117273981Y-109130769D01*
X117483490Y-109091465D01*
X117636414Y-109056701D01*
X117743806Y-109024432D01*
X117804674Y-108998887D01*
X117939599Y-108946987D01*
X118126245Y-108893568D01*
X118262391Y-108862860D01*
X118452389Y-108811786D01*
X118620712Y-108743364D01*
X118702465Y-108693450D01*
X118815938Y-108608205D01*
X118977801Y-108494796D01*
X119132244Y-108391474D01*
X119386050Y-108206720D01*
X119677852Y-107963420D01*
X119986575Y-107682060D01*
X120291142Y-107383126D01*
X120570477Y-107087104D01*
X120803502Y-106814479D01*
X120932500Y-106641654D01*
X121036155Y-106486280D01*
X121112614Y-106364731D01*
X121147603Y-106299855D01*
X121148400Y-106296155D01*
X121178004Y-106244097D01*
X121254816Y-106139012D01*
X121340143Y-106031050D01*
X121467229Y-105861310D01*
X121582622Y-105684822D01*
X121632243Y-105596327D01*
X121728320Y-105408308D01*
X121791968Y-105293741D01*
X121835233Y-105234730D01*
X121870163Y-105213379D01*
X121891489Y-105211200D01*
X121938540Y-105166829D01*
X121974604Y-105058740D01*
X121976823Y-105046100D01*
X122014894Y-104853639D01*
X122065727Y-104650731D01*
X122119473Y-104472856D01*
X122166284Y-104355496D01*
X122170708Y-104347600D01*
X122243380Y-104217458D01*
X122301976Y-104088937D01*
X122347943Y-103949588D01*
X122382724Y-103786961D01*
X122407767Y-103588609D01*
X122424515Y-103342081D01*
X122434414Y-103034930D01*
X122438911Y-102654707D01*
X122439449Y-102188962D01*
X122439386Y-102163200D01*
X122010249Y-102163200D01*
X122006167Y-102664852D01*
X121995764Y-103073013D01*
X121978314Y-103395639D01*
X121953089Y-103640685D01*
X121919365Y-103816105D01*
X121876415Y-103929855D01*
X121845129Y-103972605D01*
X121813613Y-104049935D01*
X121808800Y-104099810D01*
X121781421Y-104196357D01*
X121712793Y-104329407D01*
X121681800Y-104377832D01*
X121603418Y-104510732D01*
X121558522Y-104620529D01*
X121554423Y-104646788D01*
X121529760Y-104724915D01*
X121464039Y-104865370D01*
X121369124Y-105043751D01*
X121317075Y-105135000D01*
X121195408Y-105345966D01*
X121078849Y-105552012D01*
X120987410Y-105717645D01*
X120966370Y-105756985D01*
X120855515Y-105944079D01*
X120716708Y-106144923D01*
X120564306Y-106342552D01*
X120412668Y-106520001D01*
X120276152Y-106660305D01*
X120169115Y-106746501D01*
X120113333Y-106764888D01*
X120084825Y-106766057D01*
X120095904Y-106773693D01*
X120088900Y-106820564D01*
X120027787Y-106916862D01*
X119968904Y-106990666D01*
X119846809Y-107136215D01*
X119734794Y-107273963D01*
X119700600Y-107317479D01*
X119590333Y-107434588D01*
X119432803Y-107571849D01*
X119257929Y-107706253D01*
X119095630Y-107814788D01*
X118976866Y-107874116D01*
X118873258Y-107932514D01*
X118747896Y-108036241D01*
X118705930Y-108078239D01*
X118510803Y-108235552D01*
X118236771Y-108387746D01*
X117906475Y-108526336D01*
X117542555Y-108642839D01*
X117167651Y-108728769D01*
X116855800Y-108771564D01*
X116603181Y-108793498D01*
X116382357Y-108811190D01*
X116178489Y-108825027D01*
X115976736Y-108835399D01*
X115762261Y-108842691D01*
X115520225Y-108847294D01*
X115235787Y-108849593D01*
X114894110Y-108849977D01*
X114480353Y-108848835D01*
X113985600Y-108846582D01*
X112182200Y-108837650D01*
X111826600Y-108697768D01*
X111500118Y-108566957D01*
X111251535Y-108460893D01*
X111062840Y-108370796D01*
X110916024Y-108287886D01*
X110793076Y-108203383D01*
X110759800Y-108177710D01*
X110589774Y-108054720D01*
X110408167Y-107939310D01*
X110353400Y-107908420D01*
X110054377Y-107741224D01*
X109827271Y-107597628D01*
X109649706Y-107463404D01*
X109637519Y-107453111D01*
X109503238Y-107344799D01*
X109378515Y-107253334D01*
X109363285Y-107243200D01*
X109224501Y-107139462D01*
X109041745Y-106983964D01*
X108832654Y-106793837D01*
X108614863Y-106586215D01*
X108406010Y-106378230D01*
X108223730Y-106187015D01*
X108085659Y-106029702D01*
X108015064Y-105933478D01*
X107942630Y-105827171D01*
X107886294Y-105772118D01*
X107878648Y-105770000D01*
X107839886Y-105731053D01*
X107838800Y-105719317D01*
X107811076Y-105653634D01*
X107739207Y-105535206D01*
X107661000Y-105421150D01*
X107565093Y-105274119D01*
X107500538Y-105149239D01*
X107483200Y-105088555D01*
X107460679Y-105014346D01*
X107398875Y-104869430D01*
X107306433Y-104672688D01*
X107191995Y-104443001D01*
X107153073Y-104367421D01*
X107028908Y-104117546D01*
X106921035Y-103880530D01*
X106839553Y-103680011D01*
X106794562Y-103539630D01*
X106790508Y-103518798D01*
X106758582Y-103361049D01*
X106719738Y-103234339D01*
X106710111Y-103212932D01*
X106676595Y-103104005D01*
X106639933Y-102910867D01*
X106601757Y-102650797D01*
X106563697Y-102341071D01*
X106527385Y-101998968D01*
X106494451Y-101641765D01*
X106466527Y-101286739D01*
X106445242Y-100951168D01*
X106432229Y-100652330D01*
X106429119Y-100407502D01*
X106433419Y-100281785D01*
X106526085Y-99592898D01*
X106711424Y-98897106D01*
X106970647Y-98243383D01*
X107047680Y-98068295D01*
X107103667Y-97923903D01*
X107127425Y-97839253D01*
X107127600Y-97835586D01*
X107155067Y-97743070D01*
X107203544Y-97657781D01*
X107257633Y-97560541D01*
X107333564Y-97398998D01*
X107417114Y-97203832D01*
X107438405Y-97151178D01*
X107524546Y-96943360D01*
X107606582Y-96771626D01*
X107697901Y-96617093D01*
X107811889Y-96460878D01*
X107961931Y-96284100D01*
X108161414Y-96067875D01*
X108337109Y-95883487D01*
X108468128Y-95733153D01*
X108570030Y-95590967D01*
X108619958Y-95489787D01*
X108681879Y-95379779D01*
X108753726Y-95355999D01*
X108850877Y-95321000D01*
X108968555Y-95233941D01*
X108999558Y-95203600D01*
X109110646Y-95107174D01*
X109208148Y-95054514D01*
X109228600Y-95051200D01*
X109300689Y-95025070D01*
X109312000Y-94998805D01*
X109353201Y-94939460D01*
X109400900Y-94913641D01*
X109481138Y-94867849D01*
X109608511Y-94780048D01*
X109752140Y-94673315D01*
X109881146Y-94570728D01*
X109964649Y-94495362D01*
X109972400Y-94486546D01*
X110035812Y-94449711D01*
X110124800Y-94417396D01*
X110266774Y-94368585D01*
X110404200Y-94313950D01*
X110512472Y-94279364D01*
X110695512Y-94233282D01*
X110927999Y-94181652D01*
X111184609Y-94130417D01*
X111191600Y-94129101D01*
X111373103Y-94096221D01*
X111539332Y-94069972D01*
X111704768Y-94049615D01*
X111883890Y-94034411D01*
X112091178Y-94023619D01*
X112341113Y-94016502D01*
X112648173Y-94012319D01*
X113026839Y-94010332D01*
X113491590Y-94009801D01*
X113528400Y-94009800D01*
X114023715Y-94010681D01*
X114431224Y-94013702D01*
X114764707Y-94019425D01*
X115037946Y-94028414D01*
X115264723Y-94041234D01*
X115458819Y-94058447D01*
X115634015Y-94080619D01*
X115763600Y-94101234D01*
X116056797Y-94150797D01*
X116380761Y-94204475D01*
X116680759Y-94253228D01*
X116779600Y-94268981D01*
X117376655Y-94384231D01*
X117877289Y-94525825D01*
X117998800Y-94569689D01*
X118158084Y-94624205D01*
X118302425Y-94664229D01*
X118309541Y-94665787D01*
X118423074Y-94709736D01*
X118578870Y-94793994D01*
X118702016Y-94872671D01*
X118846644Y-94966749D01*
X118961117Y-95031432D01*
X119013576Y-95051200D01*
X119063901Y-95088368D01*
X119065600Y-95100967D01*
X119107331Y-95151398D01*
X119210031Y-95220322D01*
X119339963Y-95289448D01*
X119463390Y-95340482D01*
X119535964Y-95356000D01*
X119600042Y-95396349D01*
X119685478Y-95498756D01*
X119728488Y-95565049D01*
X119819973Y-95709543D01*
X119903917Y-95827558D01*
X119929200Y-95858125D01*
X119996737Y-95935029D01*
X120108832Y-96065099D01*
X120244463Y-96223903D01*
X120284800Y-96271376D01*
X120414963Y-96424230D01*
X120519424Y-96545933D01*
X120581240Y-96616785D01*
X120589743Y-96626000D01*
X120672411Y-96732618D01*
X120772844Y-96894640D01*
X120869337Y-97073852D01*
X120940183Y-97232040D01*
X120950426Y-97261000D01*
X121006268Y-97408474D01*
X121062142Y-97522053D01*
X121074347Y-97540400D01*
X121130213Y-97638658D01*
X121190619Y-97777568D01*
X121196922Y-97794400D01*
X121257897Y-97947103D01*
X121339145Y-98134348D01*
X121381214Y-98226200D01*
X121468017Y-98432960D01*
X121550767Y-98664042D01*
X121580277Y-98759600D01*
X121635371Y-98949148D01*
X121705671Y-99187204D01*
X121776790Y-99425082D01*
X121782915Y-99445400D01*
X121851266Y-99703182D01*
X121905822Y-99984034D01*
X121947682Y-100301109D01*
X121977947Y-100667559D01*
X121997717Y-101096537D01*
X122008093Y-101601198D01*
X122010249Y-102163200D01*
X122439386Y-102163200D01*
X122439072Y-102036200D01*
X122433931Y-101417994D01*
X122422602Y-100880839D01*
X122405299Y-100428118D01*
X122382240Y-100063214D01*
X122353639Y-99789511D01*
X122319714Y-99610392D01*
X122280679Y-99529241D01*
X122279063Y-99528112D01*
X122238477Y-99457691D01*
X122191042Y-99305224D01*
X122141575Y-99089596D01*
X122094892Y-98829689D01*
X122085741Y-98770231D01*
X122049053Y-98616149D01*
X121979210Y-98395951D01*
X121886156Y-98135530D01*
X121779836Y-97860773D01*
X121670196Y-97597573D01*
X121567181Y-97371818D01*
X121496238Y-97235600D01*
X121436195Y-97120934D01*
X121418483Y-97083200D01*
X121372164Y-97001361D01*
X121355306Y-96981600D01*
X121308477Y-96921786D01*
X121265332Y-96854600D01*
X121067878Y-96528285D01*
X120914018Y-96281717D01*
X120797935Y-96105866D01*
X120713814Y-95991703D01*
X120696040Y-95970527D01*
X120621030Y-95865505D01*
X120589602Y-95783753D01*
X120589600Y-95783450D01*
X120547631Y-95716102D01*
X120495426Y-95688556D01*
X120409678Y-95625901D01*
X120322408Y-95511270D01*
X120311226Y-95491501D01*
X120208582Y-95358818D01*
X120080907Y-95262481D01*
X120071407Y-95258030D01*
X119947985Y-95175580D01*
X119869665Y-95077715D01*
X119789263Y-94975740D01*
X119665255Y-94884134D01*
X119657560Y-94880015D01*
X119530922Y-94805274D01*
X119363104Y-94695310D01*
X119218000Y-94593646D01*
X119064435Y-94490475D01*
X118934098Y-94417453D01*
X118857574Y-94390883D01*
X118763268Y-94355576D01*
X118688946Y-94294001D01*
X118594304Y-94231199D01*
X118431964Y-94187129D01*
X118236572Y-94161291D01*
X118018931Y-94133628D01*
X117810570Y-94096840D01*
X117668600Y-94062213D01*
X117479807Y-94005582D01*
X117273493Y-93948384D01*
X117024839Y-93884052D01*
X116709021Y-93806021D01*
X116601800Y-93780007D01*
X116352500Y-93719447D01*
X116097733Y-93657146D01*
X115883570Y-93604377D01*
X115839800Y-93593505D01*
X115696567Y-93570744D01*
X115467310Y-93549976D01*
X115167590Y-93531474D01*
X114812970Y-93515511D01*
X114419011Y-93502359D01*
X114001274Y-93492291D01*
X113575321Y-93485579D01*
X113156714Y-93482497D01*
X112761014Y-93483315D01*
G36*
X118760400Y-103782568D02*
X118675942Y-103897167D01*
X118599887Y-104053134D01*
X118548503Y-104221810D01*
X118542203Y-104257267D01*
X118495539Y-104411751D01*
X118409338Y-104590113D01*
X118357827Y-104672819D01*
X118269971Y-104813701D01*
X118213460Y-104929640D01*
X118202000Y-104974537D01*
X118165749Y-105053612D01*
X118075971Y-105154679D01*
X118049600Y-105178004D01*
X117951891Y-105272079D01*
X117899834Y-105345307D01*
X117897200Y-105356897D01*
X117855305Y-105411541D01*
X117798398Y-105438912D01*
X117718367Y-105497739D01*
X117616644Y-105616130D01*
X117546392Y-105719257D01*
X117434771Y-105875708D01*
X117315198Y-106006106D01*
X117251495Y-106057051D01*
X117123742Y-106145452D01*
X117027131Y-106224628D01*
X116837471Y-106389027D01*
X116682034Y-106484379D01*
X116619931Y-106508080D01*
X116480511Y-106558681D01*
X116278831Y-106641144D01*
X116044159Y-106743229D01*
X115890600Y-106813012D01*
X115571389Y-106928002D01*
X115176516Y-107019035D01*
X114729325Y-107084980D01*
X114253155Y-107124707D01*
X113771349Y-107137086D01*
X113307248Y-107120986D01*
X112884194Y-107075276D01*
X112525529Y-106998826D01*
X112461600Y-106979098D01*
X112247160Y-106899362D01*
X112043512Y-106808311D01*
X111892953Y-106724949D01*
X111886991Y-106720923D01*
X111723354Y-106630265D01*
X111518986Y-106545118D01*
X111404391Y-106508309D01*
X111229448Y-106455306D01*
X111083635Y-106403039D01*
X111020065Y-106374158D01*
X110910090Y-106353074D01*
X110830768Y-106412979D01*
X110798864Y-106534216D01*
X110808180Y-106622579D01*
X110845914Y-106719410D01*
X110925440Y-106797909D01*
X111070732Y-106879236D01*
X111130950Y-106907450D01*
X111333435Y-107004779D01*
X111567583Y-107124168D01*
X111748100Y-107220891D01*
X111962732Y-107325127D01*
X112223539Y-107431383D01*
X112477806Y-107518367D01*
X112503083Y-107525836D01*
X112667293Y-107570890D01*
X112815470Y-107603338D01*
X112969073Y-107625057D01*
X113149564Y-107637922D01*
X113378402Y-107643808D01*
X113677047Y-107644592D01*
X113851583Y-107643707D01*
X114153760Y-107640616D01*
X114425874Y-107635660D01*
X114649523Y-107629347D01*
X114806304Y-107622184D01*
X114874600Y-107615523D01*
X115282769Y-107522511D01*
X115612513Y-107438128D01*
X115885753Y-107355078D01*
X116124409Y-107266069D01*
X116350403Y-107163804D01*
X116561576Y-107054137D01*
X116777967Y-106933198D01*
X116968951Y-106820502D01*
X117111993Y-106729712D01*
X117179547Y-106679509D01*
X117304863Y-106594805D01*
X117401231Y-106556216D01*
X117515252Y-106491153D01*
X117604174Y-106389061D01*
X117671397Y-106298876D01*
X117792851Y-106157323D01*
X117950649Y-105984601D01*
X118108514Y-105819645D01*
X118360745Y-105554976D01*
X118540795Y-105349357D01*
X118653942Y-105196089D01*
X118705464Y-105088474D01*
X118710000Y-105056245D01*
X118731242Y-104986227D01*
X118787535Y-104851915D01*
X118867733Y-104679505D01*
X118887800Y-104638407D01*
X119010199Y-104346516D01*
X119068817Y-104102944D01*
X119064090Y-103915401D01*
X118996453Y-103791596D01*
X118866340Y-103739241D01*
X118836989Y-103738000D01*
X118760400Y-103782568D01*
X118760400Y-103782568D01*
G37*
X118760400Y-103782568D02*
X118675942Y-103897167D01*
X118599887Y-104053134D01*
X118548503Y-104221810D01*
X118542203Y-104257267D01*
X118495539Y-104411751D01*
X118409338Y-104590113D01*
X118357827Y-104672819D01*
X118269971Y-104813701D01*
X118213460Y-104929640D01*
X118202000Y-104974537D01*
X118165749Y-105053612D01*
X118075971Y-105154679D01*
X118049600Y-105178004D01*
X117951891Y-105272079D01*
X117899834Y-105345307D01*
X117897200Y-105356897D01*
X117855305Y-105411541D01*
X117798398Y-105438912D01*
X117718367Y-105497739D01*
X117616644Y-105616130D01*
X117546392Y-105719257D01*
X117434771Y-105875708D01*
X117315198Y-106006106D01*
X117251495Y-106057051D01*
X117123742Y-106145452D01*
X117027131Y-106224628D01*
X116837471Y-106389027D01*
X116682034Y-106484379D01*
X116619931Y-106508080D01*
X116480511Y-106558681D01*
X116278831Y-106641144D01*
X116044159Y-106743229D01*
X115890600Y-106813012D01*
X115571389Y-106928002D01*
X115176516Y-107019035D01*
X114729325Y-107084980D01*
X114253155Y-107124707D01*
X113771349Y-107137086D01*
X113307248Y-107120986D01*
X112884194Y-107075276D01*
X112525529Y-106998826D01*
X112461600Y-106979098D01*
X112247160Y-106899362D01*
X112043512Y-106808311D01*
X111892953Y-106724949D01*
X111886991Y-106720923D01*
X111723354Y-106630265D01*
X111518986Y-106545118D01*
X111404391Y-106508309D01*
X111229448Y-106455306D01*
X111083635Y-106403039D01*
X111020065Y-106374158D01*
X110910090Y-106353074D01*
X110830768Y-106412979D01*
X110798864Y-106534216D01*
X110808180Y-106622579D01*
X110845914Y-106719410D01*
X110925440Y-106797909D01*
X111070732Y-106879236D01*
X111130950Y-106907450D01*
X111333435Y-107004779D01*
X111567583Y-107124168D01*
X111748100Y-107220891D01*
X111962732Y-107325127D01*
X112223539Y-107431383D01*
X112477806Y-107518367D01*
X112503083Y-107525836D01*
X112667293Y-107570890D01*
X112815470Y-107603338D01*
X112969073Y-107625057D01*
X113149564Y-107637922D01*
X113378402Y-107643808D01*
X113677047Y-107644592D01*
X113851583Y-107643707D01*
X114153760Y-107640616D01*
X114425874Y-107635660D01*
X114649523Y-107629347D01*
X114806304Y-107622184D01*
X114874600Y-107615523D01*
X115282769Y-107522511D01*
X115612513Y-107438128D01*
X115885753Y-107355078D01*
X116124409Y-107266069D01*
X116350403Y-107163804D01*
X116561576Y-107054137D01*
X116777967Y-106933198D01*
X116968951Y-106820502D01*
X117111993Y-106729712D01*
X117179547Y-106679509D01*
X117304863Y-106594805D01*
X117401231Y-106556216D01*
X117515252Y-106491153D01*
X117604174Y-106389061D01*
X117671397Y-106298876D01*
X117792851Y-106157323D01*
X117950649Y-105984601D01*
X118108514Y-105819645D01*
X118360745Y-105554976D01*
X118540795Y-105349357D01*
X118653942Y-105196089D01*
X118705464Y-105088474D01*
X118710000Y-105056245D01*
X118731242Y-104986227D01*
X118787535Y-104851915D01*
X118867733Y-104679505D01*
X118887800Y-104638407D01*
X119010199Y-104346516D01*
X119068817Y-104102944D01*
X119064090Y-103915401D01*
X118996453Y-103791596D01*
X118866340Y-103739241D01*
X118836989Y-103738000D01*
X118760400Y-103782568D01*
G36*
X110703811Y-99149545D02*
X110491848Y-99215813D01*
X110450394Y-99232765D01*
X110247468Y-99332526D01*
X110108367Y-99445700D01*
X110021290Y-99593387D01*
X109974436Y-99796689D01*
X109956004Y-100076704D01*
X109955107Y-100118357D01*
X109954041Y-100341020D01*
X109964193Y-100490662D01*
X109990893Y-100595694D01*
X110039473Y-100684525D01*
X110069076Y-100725695D01*
X110262272Y-100899702D01*
X110526375Y-101004312D01*
X110857377Y-101038762D01*
X111251273Y-101002289D01*
X111385820Y-100976399D01*
X111589238Y-100913174D01*
X111705171Y-100831242D01*
X111714699Y-100817000D01*
X111740930Y-100721837D01*
X111761275Y-100553095D01*
X111772872Y-100338746D01*
X111774479Y-100232800D01*
X111764999Y-99919532D01*
X111729156Y-99687710D01*
X111658802Y-99518826D01*
X111545787Y-99394370D01*
X111381965Y-99295835D01*
X111356825Y-99284107D01*
X111102396Y-99181772D01*
X110896026Y-99137558D01*
X110703811Y-99149545D01*
X110703811Y-99149545D01*
G37*
X110703811Y-99149545D02*
X110491848Y-99215813D01*
X110450394Y-99232765D01*
X110247468Y-99332526D01*
X110108367Y-99445700D01*
X110021290Y-99593387D01*
X109974436Y-99796689D01*
X109956004Y-100076704D01*
X109955107Y-100118357D01*
X109954041Y-100341020D01*
X109964193Y-100490662D01*
X109990893Y-100595694D01*
X110039473Y-100684525D01*
X110069076Y-100725695D01*
X110262272Y-100899702D01*
X110526375Y-101004312D01*
X110857377Y-101038762D01*
X111251273Y-101002289D01*
X111385820Y-100976399D01*
X111589238Y-100913174D01*
X111705171Y-100831242D01*
X111714699Y-100817000D01*
X111740930Y-100721837D01*
X111761275Y-100553095D01*
X111772872Y-100338746D01*
X111774479Y-100232800D01*
X111764999Y-99919532D01*
X111729156Y-99687710D01*
X111658802Y-99518826D01*
X111545787Y-99394370D01*
X111381965Y-99295835D01*
X111356825Y-99284107D01*
X111102396Y-99181772D01*
X110896026Y-99137558D01*
X110703811Y-99149545D01*
G36*
X116732433Y-98528671D02*
X116518036Y-98588231D01*
X116452982Y-98609804D01*
X116200920Y-98723240D01*
X116035702Y-98872671D01*
X115944889Y-99075525D01*
X115916042Y-99349233D01*
X115916000Y-99362166D01*
X115950627Y-99692693D01*
X116049432Y-99976088D01*
X116204806Y-100196702D01*
X116385874Y-100328239D01*
X116548037Y-100397449D01*
X116684863Y-100423846D01*
X116847804Y-100414386D01*
X116932000Y-100402092D01*
X117053517Y-100369337D01*
X117216664Y-100309203D01*
X117296749Y-100274989D01*
X117447942Y-100195461D01*
X117536578Y-100106194D01*
X117597632Y-99968985D01*
X117609213Y-99933679D01*
X117645931Y-99793439D01*
X117658830Y-99655461D01*
X117648603Y-99484236D01*
X117621920Y-99283838D01*
X117581167Y-99044780D01*
X117534180Y-98882157D01*
X117466054Y-98771177D01*
X117361884Y-98687045D01*
X117216651Y-98609741D01*
X117047594Y-98539428D01*
X116897570Y-98512404D01*
X116732433Y-98528671D01*
X116732433Y-98528671D01*
G37*
X116732433Y-98528671D02*
X116518036Y-98588231D01*
X116452982Y-98609804D01*
X116200920Y-98723240D01*
X116035702Y-98872671D01*
X115944889Y-99075525D01*
X115916042Y-99349233D01*
X115916000Y-99362166D01*
X115950627Y-99692693D01*
X116049432Y-99976088D01*
X116204806Y-100196702D01*
X116385874Y-100328239D01*
X116548037Y-100397449D01*
X116684863Y-100423846D01*
X116847804Y-100414386D01*
X116932000Y-100402092D01*
X117053517Y-100369337D01*
X117216664Y-100309203D01*
X117296749Y-100274989D01*
X117447942Y-100195461D01*
X117536578Y-100106194D01*
X117597632Y-99968985D01*
X117609213Y-99933679D01*
X117645931Y-99793439D01*
X117658830Y-99655461D01*
X117648603Y-99484236D01*
X117621920Y-99283838D01*
X117581167Y-99044780D01*
X117534180Y-98882157D01*
X117466054Y-98771177D01*
X117361884Y-98687045D01*
X117216651Y-98609741D01*
X117047594Y-98539428D01*
X116897570Y-98512404D01*
X116732433Y-98528671D01*
D12*
X71100000Y-85650000D02*
X71100000Y-86350000D01*
X72300000Y-86350000D02*
X72300000Y-85650000D01*
X119350000Y-89800000D02*
X118650000Y-89800000D01*
X118650000Y-91000000D02*
X119350000Y-91000000D01*
X107200000Y-83750000D02*
X107200000Y-83050000D01*
X106000000Y-83050000D02*
X106000000Y-83750000D01*
X125200000Y-91750000D02*
X125200000Y-91050000D01*
X124000000Y-91050000D02*
X124000000Y-91750000D01*
X75850000Y-88900000D02*
X75150000Y-88900000D01*
X75150000Y-90100000D02*
X75850000Y-90100000D01*
X99500000Y-86050000D02*
X99500000Y-85350000D01*
X98300000Y-85350000D02*
X98300000Y-86050000D01*
X74150000Y-75000000D02*
X74850000Y-75000000D01*
X74850000Y-73800000D02*
X74150000Y-73800000D01*
X74050000Y-79500000D02*
X74750000Y-79500000D01*
X74750000Y-78300000D02*
X74050000Y-78300000D01*
X134325000Y-72700000D02*
X134325000Y-73700000D01*
X135675000Y-73700000D02*
X135675000Y-72700000D01*
X98325000Y-80000000D02*
X98325000Y-81000000D01*
X99675000Y-81000000D02*
X99675000Y-80000000D01*
X75000000Y-75925000D02*
X74000000Y-75925000D01*
X74000000Y-77275000D02*
X75000000Y-77275000D01*
X113675000Y-76200000D02*
X113675000Y-75200000D01*
X112325000Y-75200000D02*
X112325000Y-76200000D01*
X119400000Y-83125000D02*
X118400000Y-83125000D01*
X118400000Y-84475000D02*
X119400000Y-84475000D01*
X118400000Y-88875000D02*
X119400000Y-88875000D01*
X119400000Y-87525000D02*
X118400000Y-87525000D01*
X119400000Y-85325000D02*
X118400000Y-85325000D01*
X118400000Y-86675000D02*
X119400000Y-86675000D01*
X107925000Y-83000000D02*
X107925000Y-84000000D01*
X109275000Y-84000000D02*
X109275000Y-83000000D01*
X119400000Y-79025000D02*
X118400000Y-79025000D01*
X118400000Y-80375000D02*
X119400000Y-80375000D01*
X131700000Y-80475000D02*
X132700000Y-80475000D01*
X132700000Y-79125000D02*
X131700000Y-79125000D01*
X118400000Y-82475000D02*
X119400000Y-82475000D01*
X119400000Y-81125000D02*
X118400000Y-81125000D01*
X118400000Y-93375000D02*
X119400000Y-93375000D01*
X119400000Y-92025000D02*
X118400000Y-92025000D01*
X131600000Y-93075000D02*
X132600000Y-93075000D01*
X132600000Y-91725000D02*
X131600000Y-91725000D01*
X93275000Y-90475000D02*
X92700000Y-90475000D01*
X93275000Y-80125000D02*
X92600000Y-80125000D01*
X82925000Y-80125000D02*
X83600000Y-80125000D01*
X82925000Y-90475000D02*
X83600000Y-90475000D01*
X93275000Y-90475000D02*
X93275000Y-89800000D01*
X82925000Y-90475000D02*
X82925000Y-89800000D01*
X82925000Y-80125000D02*
X82925000Y-80800000D01*
X93275000Y-80125000D02*
X93275000Y-80800000D01*
X92700000Y-90475000D02*
X92700000Y-91750000D01*
X109775000Y-88425000D02*
X109775000Y-88475000D01*
X105625000Y-88425000D02*
X105625000Y-88570000D01*
X105625000Y-93575000D02*
X105625000Y-93430000D01*
X109775000Y-93575000D02*
X109775000Y-93430000D01*
X109775000Y-88425000D02*
X105625000Y-88425000D01*
X109775000Y-93575000D02*
X105625000Y-93575000D01*
X109775000Y-88475000D02*
X111175000Y-88475000D01*
X130025000Y-88575000D02*
X130025000Y-88525000D01*
X134175000Y-88575000D02*
X134175000Y-88430000D01*
X134175000Y-83425000D02*
X134175000Y-83570000D01*
X130025000Y-83425000D02*
X130025000Y-83570000D01*
X130025000Y-88575000D02*
X134175000Y-88575000D01*
X130025000Y-83425000D02*
X134175000Y-83425000D01*
X130025000Y-88525000D02*
X128625000Y-88525000D01*
X74000000Y-87100000D02*
X77200000Y-87100000D01*
X77200000Y-87100000D02*
X77200000Y-84500000D01*
X77200000Y-84500000D02*
X74000000Y-84500000D01*
X74000000Y-84500000D02*
X74000000Y-87100000D01*
X77450000Y-80750000D02*
X73000000Y-80750000D01*
X77450000Y-82850000D02*
X73000000Y-82850000D01*
X77450000Y-80750000D02*
X77450000Y-82850000D01*
X70657143Y-85833334D02*
X70704762Y-85785715D01*
X70752381Y-85642858D01*
X70752381Y-85547620D01*
X70704762Y-85404762D01*
X70609524Y-85309524D01*
X70514286Y-85261905D01*
X70323810Y-85214286D01*
X70180952Y-85214286D01*
X69990476Y-85261905D01*
X69895238Y-85309524D01*
X69800000Y-85404762D01*
X69752381Y-85547620D01*
X69752381Y-85642858D01*
X69800000Y-85785715D01*
X69847619Y-85833334D01*
X70752381Y-86785715D02*
X70752381Y-86214286D01*
X70752381Y-86500000D02*
X69752381Y-86500000D01*
X69895238Y-86404762D01*
X69990476Y-86309524D01*
X70038095Y-86214286D01*
X116166666Y-90757143D02*
X116214285Y-90804762D01*
X116357142Y-90852381D01*
X116452380Y-90852381D01*
X116595238Y-90804762D01*
X116690476Y-90709524D01*
X116738095Y-90614286D01*
X116785714Y-90423810D01*
X116785714Y-90280952D01*
X116738095Y-90090476D01*
X116690476Y-89995238D01*
X116595238Y-89900000D01*
X116452380Y-89852381D01*
X116357142Y-89852381D01*
X116214285Y-89900000D01*
X116166666Y-89947619D01*
X115785714Y-89947619D02*
X115738095Y-89900000D01*
X115642857Y-89852381D01*
X115404761Y-89852381D01*
X115309523Y-89900000D01*
X115261904Y-89947619D01*
X115214285Y-90042857D01*
X115214285Y-90138095D01*
X115261904Y-90280952D01*
X115833333Y-90852381D01*
X115214285Y-90852381D01*
X107057143Y-80133334D02*
X107104762Y-80085715D01*
X107152381Y-79942858D01*
X107152381Y-79847620D01*
X107104762Y-79704762D01*
X107009524Y-79609524D01*
X106914286Y-79561905D01*
X106723810Y-79514286D01*
X106580952Y-79514286D01*
X106390476Y-79561905D01*
X106295238Y-79609524D01*
X106200000Y-79704762D01*
X106152381Y-79847620D01*
X106152381Y-79942858D01*
X106200000Y-80085715D01*
X106247619Y-80133334D01*
X106152381Y-80466667D02*
X106152381Y-81085715D01*
X106533333Y-80752381D01*
X106533333Y-80895239D01*
X106580952Y-80990477D01*
X106628571Y-81038096D01*
X106723810Y-81085715D01*
X106961905Y-81085715D01*
X107057143Y-81038096D01*
X107104762Y-80990477D01*
X107152381Y-80895239D01*
X107152381Y-80609524D01*
X107104762Y-80514286D01*
X107057143Y-80466667D01*
X126857143Y-91233334D02*
X126904762Y-91185715D01*
X126952381Y-91042858D01*
X126952381Y-90947620D01*
X126904762Y-90804762D01*
X126809524Y-90709524D01*
X126714286Y-90661905D01*
X126523810Y-90614286D01*
X126380952Y-90614286D01*
X126190476Y-90661905D01*
X126095238Y-90709524D01*
X126000000Y-90804762D01*
X125952381Y-90947620D01*
X125952381Y-91042858D01*
X126000000Y-91185715D01*
X126047619Y-91233334D01*
X126285714Y-92090477D02*
X126952381Y-92090477D01*
X125904762Y-91852381D02*
X126619048Y-91614286D01*
X126619048Y-92233334D01*
X75666666Y-91357143D02*
X75714285Y-91404762D01*
X75857142Y-91452381D01*
X75952380Y-91452381D01*
X76095238Y-91404762D01*
X76190476Y-91309524D01*
X76238095Y-91214286D01*
X76285714Y-91023810D01*
X76285714Y-90880952D01*
X76238095Y-90690476D01*
X76190476Y-90595238D01*
X76095238Y-90500000D01*
X75952380Y-90452381D01*
X75857142Y-90452381D01*
X75714285Y-90500000D01*
X75666666Y-90547619D01*
X74761904Y-90452381D02*
X75238095Y-90452381D01*
X75285714Y-90928571D01*
X75238095Y-90880952D01*
X75142857Y-90833333D01*
X74904761Y-90833333D01*
X74809523Y-90880952D01*
X74761904Y-90928571D01*
X74714285Y-91023810D01*
X74714285Y-91261905D01*
X74761904Y-91357143D01*
X74809523Y-91404762D01*
X74904761Y-91452381D01*
X75142857Y-91452381D01*
X75238095Y-91404762D01*
X75285714Y-91357143D01*
X100957143Y-85533334D02*
X101004762Y-85485715D01*
X101052381Y-85342858D01*
X101052381Y-85247620D01*
X101004762Y-85104762D01*
X100909524Y-85009524D01*
X100814286Y-84961905D01*
X100623810Y-84914286D01*
X100480952Y-84914286D01*
X100290476Y-84961905D01*
X100195238Y-85009524D01*
X100100000Y-85104762D01*
X100052381Y-85247620D01*
X100052381Y-85342858D01*
X100100000Y-85485715D01*
X100147619Y-85533334D01*
X100052381Y-86390477D02*
X100052381Y-86200000D01*
X100100000Y-86104762D01*
X100147619Y-86057143D01*
X100290476Y-85961905D01*
X100480952Y-85914286D01*
X100861905Y-85914286D01*
X100957143Y-85961905D01*
X101004762Y-86009524D01*
X101052381Y-86104762D01*
X101052381Y-86295239D01*
X101004762Y-86390477D01*
X100957143Y-86438096D01*
X100861905Y-86485715D01*
X100623810Y-86485715D01*
X100528571Y-86438096D01*
X100480952Y-86390477D01*
X100433333Y-86295239D01*
X100433333Y-86104762D01*
X100480952Y-86009524D01*
X100528571Y-85961905D01*
X100623810Y-85914286D01*
X77566666Y-74757143D02*
X77614285Y-74804762D01*
X77757142Y-74852381D01*
X77852380Y-74852381D01*
X77995238Y-74804762D01*
X78090476Y-74709524D01*
X78138095Y-74614286D01*
X78185714Y-74423810D01*
X78185714Y-74280952D01*
X78138095Y-74090476D01*
X78090476Y-73995238D01*
X77995238Y-73900000D01*
X77852380Y-73852381D01*
X77757142Y-73852381D01*
X77614285Y-73900000D01*
X77566666Y-73947619D01*
X77233333Y-73852381D02*
X76566666Y-73852381D01*
X76995238Y-74852381D01*
X77566666Y-79257143D02*
X77614285Y-79304762D01*
X77757142Y-79352381D01*
X77852380Y-79352381D01*
X77995238Y-79304762D01*
X78090476Y-79209524D01*
X78138095Y-79114286D01*
X78185714Y-78923810D01*
X78185714Y-78780952D01*
X78138095Y-78590476D01*
X78090476Y-78495238D01*
X77995238Y-78400000D01*
X77852380Y-78352381D01*
X77757142Y-78352381D01*
X77614285Y-78400000D01*
X77566666Y-78447619D01*
X77090476Y-79352381D02*
X76900000Y-79352381D01*
X76804761Y-79304762D01*
X76757142Y-79257143D01*
X76661904Y-79114286D01*
X76614285Y-78923810D01*
X76614285Y-78542857D01*
X76661904Y-78447619D01*
X76709523Y-78400000D01*
X76804761Y-78352381D01*
X76995238Y-78352381D01*
X77090476Y-78400000D01*
X77138095Y-78447619D01*
X77185714Y-78542857D01*
X77185714Y-78780952D01*
X77138095Y-78876190D01*
X77090476Y-78923810D01*
X76995238Y-78971429D01*
X76804761Y-78971429D01*
X76709523Y-78923810D01*
X76661904Y-78876190D01*
X76614285Y-78780952D01*
X137352381Y-73033334D02*
X136876190Y-72700000D01*
X137352381Y-72461905D02*
X136352381Y-72461905D01*
X136352381Y-72842858D01*
X136400000Y-72938096D01*
X136447619Y-72985715D01*
X136542857Y-73033334D01*
X136685714Y-73033334D01*
X136780952Y-72985715D01*
X136828571Y-72938096D01*
X136876190Y-72842858D01*
X136876190Y-72461905D01*
X137352381Y-73985715D02*
X137352381Y-73414286D01*
X137352381Y-73700000D02*
X136352381Y-73700000D01*
X136495238Y-73604762D01*
X136590476Y-73509524D01*
X136638095Y-73414286D01*
X101252381Y-80333334D02*
X100776190Y-80000000D01*
X101252381Y-79761905D02*
X100252381Y-79761905D01*
X100252381Y-80142858D01*
X100300000Y-80238096D01*
X100347619Y-80285715D01*
X100442857Y-80333334D01*
X100585714Y-80333334D01*
X100680952Y-80285715D01*
X100728571Y-80238096D01*
X100776190Y-80142858D01*
X100776190Y-79761905D01*
X100252381Y-81190477D02*
X100252381Y-81000000D01*
X100300000Y-80904762D01*
X100347619Y-80857143D01*
X100490476Y-80761905D01*
X100680952Y-80714286D01*
X101061905Y-80714286D01*
X101157143Y-80761905D01*
X101204762Y-80809524D01*
X101252381Y-80904762D01*
X101252381Y-81095239D01*
X101204762Y-81190477D01*
X101157143Y-81238096D01*
X101061905Y-81285715D01*
X100823810Y-81285715D01*
X100728571Y-81238096D01*
X100680952Y-81190477D01*
X100633333Y-81095239D01*
X100633333Y-80904762D01*
X100680952Y-80809524D01*
X100728571Y-80761905D01*
X100823810Y-80714286D01*
X77666666Y-77152381D02*
X78000000Y-76676190D01*
X78238095Y-77152381D02*
X78238095Y-76152381D01*
X77857142Y-76152381D01*
X77761904Y-76200000D01*
X77714285Y-76247619D01*
X77666666Y-76342857D01*
X77666666Y-76485714D01*
X77714285Y-76580952D01*
X77761904Y-76628571D01*
X77857142Y-76676190D01*
X78238095Y-76676190D01*
X77190476Y-77152381D02*
X77000000Y-77152381D01*
X76904761Y-77104762D01*
X76857142Y-77057143D01*
X76761904Y-76914286D01*
X76714285Y-76723810D01*
X76714285Y-76342857D01*
X76761904Y-76247619D01*
X76809523Y-76200000D01*
X76904761Y-76152381D01*
X77095238Y-76152381D01*
X77190476Y-76200000D01*
X77238095Y-76247619D01*
X77285714Y-76342857D01*
X77285714Y-76580952D01*
X77238095Y-76676190D01*
X77190476Y-76723810D01*
X77095238Y-76771429D01*
X76904761Y-76771429D01*
X76809523Y-76723810D01*
X76761904Y-76676190D01*
X76714285Y-76580952D01*
X111552381Y-75057143D02*
X111076190Y-74723809D01*
X111552381Y-74485714D02*
X110552381Y-74485714D01*
X110552381Y-74866667D01*
X110600000Y-74961905D01*
X110647619Y-75009524D01*
X110742857Y-75057143D01*
X110885714Y-75057143D01*
X110980952Y-75009524D01*
X111028571Y-74961905D01*
X111076190Y-74866667D01*
X111076190Y-74485714D01*
X111552381Y-76009524D02*
X111552381Y-75438095D01*
X111552381Y-75723809D02*
X110552381Y-75723809D01*
X110695238Y-75628571D01*
X110790476Y-75533333D01*
X110838095Y-75438095D01*
X110552381Y-76628571D02*
X110552381Y-76723810D01*
X110600000Y-76819048D01*
X110647619Y-76866667D01*
X110742857Y-76914286D01*
X110933333Y-76961905D01*
X111171429Y-76961905D01*
X111361905Y-76914286D01*
X111457143Y-76866667D01*
X111504762Y-76819048D01*
X111552381Y-76723810D01*
X111552381Y-76628571D01*
X111504762Y-76533333D01*
X111457143Y-76485714D01*
X111361905Y-76438095D01*
X111171429Y-76390476D01*
X110933333Y-76390476D01*
X110742857Y-76438095D01*
X110647619Y-76485714D01*
X110600000Y-76533333D01*
X110552381Y-76628571D01*
X115942857Y-84352381D02*
X116276191Y-83876190D01*
X116514286Y-84352381D02*
X116514286Y-83352381D01*
X116133333Y-83352381D01*
X116038095Y-83400000D01*
X115990476Y-83447619D01*
X115942857Y-83542857D01*
X115942857Y-83685714D01*
X115990476Y-83780952D01*
X116038095Y-83828571D01*
X116133333Y-83876190D01*
X116514286Y-83876190D01*
X114990476Y-84352381D02*
X115561905Y-84352381D01*
X115276191Y-84352381D02*
X115276191Y-83352381D01*
X115371429Y-83495238D01*
X115466667Y-83590476D01*
X115561905Y-83638095D01*
X114038095Y-84352381D02*
X114609524Y-84352381D01*
X114323810Y-84352381D02*
X114323810Y-83352381D01*
X114419048Y-83495238D01*
X114514286Y-83590476D01*
X114609524Y-83638095D01*
X115942857Y-88652381D02*
X116276191Y-88176190D01*
X116514286Y-88652381D02*
X116514286Y-87652381D01*
X116133333Y-87652381D01*
X116038095Y-87700000D01*
X115990476Y-87747619D01*
X115942857Y-87842857D01*
X115942857Y-87985714D01*
X115990476Y-88080952D01*
X116038095Y-88128571D01*
X116133333Y-88176190D01*
X116514286Y-88176190D01*
X114990476Y-88652381D02*
X115561905Y-88652381D01*
X115276191Y-88652381D02*
X115276191Y-87652381D01*
X115371429Y-87795238D01*
X115466667Y-87890476D01*
X115561905Y-87938095D01*
X114609524Y-87747619D02*
X114561905Y-87700000D01*
X114466667Y-87652381D01*
X114228571Y-87652381D01*
X114133333Y-87700000D01*
X114085714Y-87747619D01*
X114038095Y-87842857D01*
X114038095Y-87938095D01*
X114085714Y-88080952D01*
X114657143Y-88652381D01*
X114038095Y-88652381D01*
X115942857Y-86552381D02*
X116276191Y-86076190D01*
X116514286Y-86552381D02*
X116514286Y-85552381D01*
X116133333Y-85552381D01*
X116038095Y-85600000D01*
X115990476Y-85647619D01*
X115942857Y-85742857D01*
X115942857Y-85885714D01*
X115990476Y-85980952D01*
X116038095Y-86028571D01*
X116133333Y-86076190D01*
X116514286Y-86076190D01*
X114990476Y-86552381D02*
X115561905Y-86552381D01*
X115276191Y-86552381D02*
X115276191Y-85552381D01*
X115371429Y-85695238D01*
X115466667Y-85790476D01*
X115561905Y-85838095D01*
X114657143Y-85552381D02*
X114038095Y-85552381D01*
X114371429Y-85933333D01*
X114228571Y-85933333D01*
X114133333Y-85980952D01*
X114085714Y-86028571D01*
X114038095Y-86123810D01*
X114038095Y-86361905D01*
X114085714Y-86457143D01*
X114133333Y-86504762D01*
X114228571Y-86552381D01*
X114514286Y-86552381D01*
X114609524Y-86504762D01*
X114657143Y-86457143D01*
X108952381Y-79257143D02*
X108476190Y-78923809D01*
X108952381Y-78685714D02*
X107952381Y-78685714D01*
X107952381Y-79066667D01*
X108000000Y-79161905D01*
X108047619Y-79209524D01*
X108142857Y-79257143D01*
X108285714Y-79257143D01*
X108380952Y-79209524D01*
X108428571Y-79161905D01*
X108476190Y-79066667D01*
X108476190Y-78685714D01*
X108952381Y-80209524D02*
X108952381Y-79638095D01*
X108952381Y-79923809D02*
X107952381Y-79923809D01*
X108095238Y-79828571D01*
X108190476Y-79733333D01*
X108238095Y-79638095D01*
X108285714Y-81066667D02*
X108952381Y-81066667D01*
X107904762Y-80828571D02*
X108619048Y-80590476D01*
X108619048Y-81209524D01*
X115942857Y-80252381D02*
X116276191Y-79776190D01*
X116514286Y-80252381D02*
X116514286Y-79252381D01*
X116133333Y-79252381D01*
X116038095Y-79300000D01*
X115990476Y-79347619D01*
X115942857Y-79442857D01*
X115942857Y-79585714D01*
X115990476Y-79680952D01*
X116038095Y-79728571D01*
X116133333Y-79776190D01*
X116514286Y-79776190D01*
X114990476Y-80252381D02*
X115561905Y-80252381D01*
X115276191Y-80252381D02*
X115276191Y-79252381D01*
X115371429Y-79395238D01*
X115466667Y-79490476D01*
X115561905Y-79538095D01*
X114085714Y-79252381D02*
X114561905Y-79252381D01*
X114609524Y-79728571D01*
X114561905Y-79680952D01*
X114466667Y-79633333D01*
X114228571Y-79633333D01*
X114133333Y-79680952D01*
X114085714Y-79728571D01*
X114038095Y-79823810D01*
X114038095Y-80061905D01*
X114085714Y-80157143D01*
X114133333Y-80204762D01*
X114228571Y-80252381D01*
X114466667Y-80252381D01*
X114561905Y-80204762D01*
X114609524Y-80157143D01*
X132842857Y-78352381D02*
X133176191Y-77876190D01*
X133414286Y-78352381D02*
X133414286Y-77352381D01*
X133033333Y-77352381D01*
X132938095Y-77400000D01*
X132890476Y-77447619D01*
X132842857Y-77542857D01*
X132842857Y-77685714D01*
X132890476Y-77780952D01*
X132938095Y-77828571D01*
X133033333Y-77876190D01*
X133414286Y-77876190D01*
X131890476Y-78352381D02*
X132461905Y-78352381D01*
X132176191Y-78352381D02*
X132176191Y-77352381D01*
X132271429Y-77495238D01*
X132366667Y-77590476D01*
X132461905Y-77638095D01*
X131033333Y-77352381D02*
X131223810Y-77352381D01*
X131319048Y-77400000D01*
X131366667Y-77447619D01*
X131461905Y-77590476D01*
X131509524Y-77780952D01*
X131509524Y-78161905D01*
X131461905Y-78257143D01*
X131414286Y-78304762D01*
X131319048Y-78352381D01*
X131128571Y-78352381D01*
X131033333Y-78304762D01*
X130985714Y-78257143D01*
X130938095Y-78161905D01*
X130938095Y-77923810D01*
X130985714Y-77828571D01*
X131033333Y-77780952D01*
X131128571Y-77733333D01*
X131319048Y-77733333D01*
X131414286Y-77780952D01*
X131461905Y-77828571D01*
X131509524Y-77923810D01*
X115942857Y-82252381D02*
X116276191Y-81776190D01*
X116514286Y-82252381D02*
X116514286Y-81252381D01*
X116133333Y-81252381D01*
X116038095Y-81300000D01*
X115990476Y-81347619D01*
X115942857Y-81442857D01*
X115942857Y-81585714D01*
X115990476Y-81680952D01*
X116038095Y-81728571D01*
X116133333Y-81776190D01*
X116514286Y-81776190D01*
X114990476Y-82252381D02*
X115561905Y-82252381D01*
X115276191Y-82252381D02*
X115276191Y-81252381D01*
X115371429Y-81395238D01*
X115466667Y-81490476D01*
X115561905Y-81538095D01*
X114657143Y-81252381D02*
X113990476Y-81252381D01*
X114419048Y-82252381D01*
X115842857Y-93152381D02*
X116176191Y-92676190D01*
X116414286Y-93152381D02*
X116414286Y-92152381D01*
X116033333Y-92152381D01*
X115938095Y-92200000D01*
X115890476Y-92247619D01*
X115842857Y-92342857D01*
X115842857Y-92485714D01*
X115890476Y-92580952D01*
X115938095Y-92628571D01*
X116033333Y-92676190D01*
X116414286Y-92676190D01*
X114890476Y-93152381D02*
X115461905Y-93152381D01*
X115176191Y-93152381D02*
X115176191Y-92152381D01*
X115271429Y-92295238D01*
X115366667Y-92390476D01*
X115461905Y-92438095D01*
X114319048Y-92580952D02*
X114414286Y-92533333D01*
X114461905Y-92485714D01*
X114509524Y-92390476D01*
X114509524Y-92342857D01*
X114461905Y-92247619D01*
X114414286Y-92200000D01*
X114319048Y-92152381D01*
X114128571Y-92152381D01*
X114033333Y-92200000D01*
X113985714Y-92247619D01*
X113938095Y-92342857D01*
X113938095Y-92390476D01*
X113985714Y-92485714D01*
X114033333Y-92533333D01*
X114128571Y-92580952D01*
X114319048Y-92580952D01*
X114414286Y-92628571D01*
X114461905Y-92676190D01*
X114509524Y-92771429D01*
X114509524Y-92961905D01*
X114461905Y-93057143D01*
X114414286Y-93104762D01*
X114319048Y-93152381D01*
X114128571Y-93152381D01*
X114033333Y-93104762D01*
X113985714Y-93057143D01*
X113938095Y-92961905D01*
X113938095Y-92771429D01*
X113985714Y-92676190D01*
X114033333Y-92628571D01*
X114128571Y-92580952D01*
X132742857Y-94552381D02*
X133076191Y-94076190D01*
X133314286Y-94552381D02*
X133314286Y-93552381D01*
X132933333Y-93552381D01*
X132838095Y-93600000D01*
X132790476Y-93647619D01*
X132742857Y-93742857D01*
X132742857Y-93885714D01*
X132790476Y-93980952D01*
X132838095Y-94028571D01*
X132933333Y-94076190D01*
X133314286Y-94076190D01*
X131790476Y-94552381D02*
X132361905Y-94552381D01*
X132076191Y-94552381D02*
X132076191Y-93552381D01*
X132171429Y-93695238D01*
X132266667Y-93790476D01*
X132361905Y-93838095D01*
X131314286Y-94552381D02*
X131123810Y-94552381D01*
X131028571Y-94504762D01*
X130980952Y-94457143D01*
X130885714Y-94314286D01*
X130838095Y-94123810D01*
X130838095Y-93742857D01*
X130885714Y-93647619D01*
X130933333Y-93600000D01*
X131028571Y-93552381D01*
X131219048Y-93552381D01*
X131314286Y-93600000D01*
X131361905Y-93647619D01*
X131409524Y-93742857D01*
X131409524Y-93980952D01*
X131361905Y-94076190D01*
X131314286Y-94123810D01*
X131219048Y-94171429D01*
X131028571Y-94171429D01*
X130933333Y-94123810D01*
X130885714Y-94076190D01*
X130838095Y-93980952D01*
X95002381Y-84538095D02*
X95811905Y-84538095D01*
X95907143Y-84585714D01*
X95954762Y-84633333D01*
X96002381Y-84728571D01*
X96002381Y-84919048D01*
X95954762Y-85014286D01*
X95907143Y-85061905D01*
X95811905Y-85109524D01*
X95002381Y-85109524D01*
X96002381Y-86109524D02*
X96002381Y-85538095D01*
X96002381Y-85823809D02*
X95002381Y-85823809D01*
X95145238Y-85728571D01*
X95240476Y-85633333D01*
X95288095Y-85538095D01*
X108461905Y-86952381D02*
X108461905Y-87761905D01*
X108414286Y-87857143D01*
X108366667Y-87904762D01*
X108271429Y-87952381D01*
X108080952Y-87952381D01*
X107985714Y-87904762D01*
X107938095Y-87857143D01*
X107890476Y-87761905D01*
X107890476Y-86952381D01*
X107461905Y-87047619D02*
X107414286Y-87000000D01*
X107319048Y-86952381D01*
X107080952Y-86952381D01*
X106985714Y-87000000D01*
X106938095Y-87047619D01*
X106890476Y-87142857D01*
X106890476Y-87238095D01*
X106938095Y-87380952D01*
X107509524Y-87952381D01*
X106890476Y-87952381D01*
X132861905Y-88952381D02*
X132861905Y-89761905D01*
X132814286Y-89857143D01*
X132766667Y-89904762D01*
X132671429Y-89952381D01*
X132480952Y-89952381D01*
X132385714Y-89904762D01*
X132338095Y-89857143D01*
X132290476Y-89761905D01*
X132290476Y-88952381D01*
X131909524Y-88952381D02*
X131290476Y-88952381D01*
X131623810Y-89333333D01*
X131480952Y-89333333D01*
X131385714Y-89380952D01*
X131338095Y-89428571D01*
X131290476Y-89523810D01*
X131290476Y-89761905D01*
X131338095Y-89857143D01*
X131385714Y-89904762D01*
X131480952Y-89952381D01*
X131766667Y-89952381D01*
X131861905Y-89904762D01*
X131909524Y-89857143D01*
X78976191Y-85776190D02*
X78976191Y-86252381D01*
X79309524Y-85252381D02*
X78976191Y-85776190D01*
X78642857Y-85252381D01*
X77785714Y-86252381D02*
X78357143Y-86252381D01*
X78071429Y-86252381D02*
X78071429Y-85252381D01*
X78166667Y-85395238D01*
X78261905Y-85490476D01*
X78357143Y-85538095D01*
X78766666Y-82157143D02*
X78814285Y-82204762D01*
X78957142Y-82252381D01*
X79052380Y-82252381D01*
X79195238Y-82204762D01*
X79290476Y-82109524D01*
X79338095Y-82014286D01*
X79385714Y-81823810D01*
X79385714Y-81680952D01*
X79338095Y-81490476D01*
X79290476Y-81395238D01*
X79195238Y-81300000D01*
X79052380Y-81252381D01*
X78957142Y-81252381D01*
X78814285Y-81300000D01*
X78766666Y-81347619D01*
X78195238Y-81680952D02*
X78290476Y-81633333D01*
X78338095Y-81585714D01*
X78385714Y-81490476D01*
X78385714Y-81442857D01*
X78338095Y-81347619D01*
X78290476Y-81300000D01*
X78195238Y-81252381D01*
X78004761Y-81252381D01*
X77909523Y-81300000D01*
X77861904Y-81347619D01*
X77814285Y-81442857D01*
X77814285Y-81490476D01*
X77861904Y-81585714D01*
X77909523Y-81633333D01*
X78004761Y-81680952D01*
X78195238Y-81680952D01*
X78290476Y-81728571D01*
X78338095Y-81776190D01*
X78385714Y-81871429D01*
X78385714Y-82061905D01*
X78338095Y-82157143D01*
X78290476Y-82204762D01*
X78195238Y-82252381D01*
X78004761Y-82252381D01*
X77909523Y-82204762D01*
X77861904Y-82157143D01*
X77814285Y-82061905D01*
X77814285Y-81871429D01*
X77861904Y-81776190D01*
X77909523Y-81728571D01*
X78004761Y-81680952D01*
M02*
