M48
;DRILL file {KiCad 4.0.5+dfsg1-4} date Sun Feb 26 13:13:13 2017
;FORMAT={-:-/ absolute / inch / decimal}
FMAT,2
INCH,TZ
T1C0.016
T2C0.020
T3C0.022
T4C0.024
T5C0.032
T6C0.039
T7C0.047
T8C0.083
T9C0.091
T10C0.098
%
G90
G05
M72
T1
X2.3346Y-2.622
X2.374Y-3.2283
X2.4134Y-3.5787
X2.4563Y-3.1467
X2.4606Y-2.7795
X2.4606Y-2.9764
X2.5591Y-2.7205
X2.5775Y-2.8212
X2.5894Y-3.2159
X2.6161Y-3.2794
X2.8808Y-3.3424
X2.9331Y-2.5433
X3.1457Y-3.7362
X3.1582Y-3.2277
X3.1745Y-3.4307
X3.1929Y-2.5236
X3.1938Y-3.4612
X3.1942Y-3.3585
X3.3051Y-3.4764
X3.3071Y-2.9173
X3.3307Y-3.502
X3.3629Y-3.4301
X3.3717Y-3.4666
X3.4073Y-3.2064
X3.4291Y-2.9646
X3.4654Y-3.3487
X3.5Y-4.1575
X3.52Y-3.025
X3.5266Y-3.633
X3.5319Y-3.2461
X3.5394Y-2.8622
X3.5463Y-3.5332
X3.5535Y-2.9803
X3.6196Y-3.3403
X3.622Y-3.3913
X3.6228Y-3.2194
X3.6412Y-3.4574
X3.6575Y-2.9409
X3.7422Y-3.2726
X3.7595Y-3.4171
X3.7601Y-3.1789
X3.8583Y-4.5945
X3.8589Y-3.4099
X3.8819Y-3.626
X4.0748Y-4.5197
X4.1929Y-2.4213
X4.2167Y-3.4099
X4.3189Y-3.4173
X4.4528Y-3.4252
X4.4803Y-2.4252
X4.626Y-2.7244
X4.6339Y-3.748
X4.7047Y-3.6118
X4.7677Y-4.5157
X4.815Y-3.4528
X4.8228Y-4.626
X4.8425Y-2.126
X4.8543Y-4.0197
X4.8914Y-3.181
X4.9016Y-2.2244
X4.9213Y-4.5276
X4.9685Y-2.9449
X4.9856Y-4.6344
X5.0197Y-2.2244
X5.0276Y-3.5472
X5.0394Y-4.5335
X5.0591Y-2.0866
X5.1299Y-3.2283
X5.2795Y-3.0236
X5.2992Y-3.7008
X5.4606Y-3.0236
X5.4724Y-2.2835
X5.4724Y-4.4488
X5.5118Y-2.185
X5.5118Y-4.5472
X5.6496Y-2.185
X5.6496Y-4.5472
X5.689Y-2.2835
X5.689Y-4.4488
T5
X2.2268Y-2.4106
X2.2268Y-2.5106
X2.3268Y-2.4106
X2.3268Y-2.5106
X2.4268Y-2.4106
X2.4268Y-2.5106
X3.6795Y-4.2126
X3.6795Y-4.2913
X3.6811Y-2.441
X3.6811Y-2.5197
X3.7795Y-4.2126
X3.7795Y-4.2913
X3.7811Y-2.441
X3.7811Y-2.5197
X4.9268Y-4.1953
X4.9346Y-2.5496
X5.0268Y-4.1905
X5.0346Y-2.5448
X5.1268Y-4.1953
X5.1346Y-2.5496
X5.2268Y-4.1905
X5.2346Y-2.5448
X5.3268Y-4.1953
X5.3346Y-2.5496
X5.4268Y-4.1905
X5.4346Y-2.5448
X5.5268Y-4.1953
X5.5346Y-2.5496
X5.6268Y-4.1905
X5.6346Y-2.5448
X5.7268Y-4.1953
X5.7346Y-2.5496
T6
X2.7953Y-4.2913
X2.8302Y-2.441
X2.8953Y-4.2913
X2.9302Y-2.441
X2.9753Y-4.2913
X3.0102Y-2.441
X3.0753Y-4.2913
X3.1102Y-2.441
T7
X2.9528Y-2.7559
X3.0528Y-2.7559
X3.1528Y-2.7559
X3.2528Y-2.7559
X3.3528Y-2.7559
X3.4528Y-2.7559
X3.5528Y-2.7559
X3.6528Y-2.7559
X3.7528Y-2.7559
X3.8528Y-2.7559
X3.9528Y-2.7559
X4.0528Y-2.7559
X4.1528Y-2.7559
X4.2528Y-2.7559
X4.3528Y-2.7559
X4.4528Y-2.7559
T8
X2.1457Y-3.7598
X2.1457Y-3.9488
X2.311Y-3.7598
X2.311Y-3.9488
X2.4764Y-3.7598
X2.4764Y-3.9488
T9
X2.6553Y-4.3963
X2.7102Y-2.336
X3.1953Y-4.3963
X3.2502Y-2.336
X3.4933Y-4.3976
X3.4949Y-2.3347
X3.9657Y-4.3976
X3.9673Y-2.3347
T10
X2.7363Y-2.7559
X2.7363Y-3.9764
X5.689Y-2.7559
X5.689Y-3.9764
T2
X2.0133Y-3.2244G85X2.0389Y-3.2244
G05
X2.0133Y-3.5G85X2.0389Y-3.5
G05
X4.8622Y-4.7032G85X4.8622Y-4.6777
G05
X4.8622Y-2.029G85X4.8622Y-2.0546
G05
X5.1378Y-4.7032G85X5.1378Y-4.6777
G05
X5.1378Y-2.029G85X5.1378Y-2.0546
G05
T3
X2.1324Y-3.2578G85X2.1324Y-3.2696
G05
X2.1324Y-3.4547G85X2.1324Y-3.4665
G05
X4.8956Y-4.5842G85X4.9074Y-4.5842
G05
X4.9075Y-2.1481G85X4.8957Y-2.1481
G05
X5.0925Y-4.5842G85X5.1043Y-4.5842
G05
X5.1044Y-2.1481G85X5.0926Y-2.1481
G05
T4
X5.4079Y-4.4945G85X5.4079Y-4.5378
G05
X5.4079Y-4.665G85X5.4079Y-4.6965
G05
X5.4134Y-2.0673G85X5.4134Y-2.0358
G05
X5.4134Y-2.2378G85X5.4134Y-2.1945
G05
X5.748Y-4.4945G85X5.748Y-4.5378
G05
X5.748Y-4.665G85X5.748Y-4.6965
G05
X5.7535Y-2.0673G85X5.7535Y-2.0358
G05
X5.7535Y-2.2378G85X5.7535Y-2.1945
G05
T0
M30
