G04 #@! TF.FileFunction,Legend,Bot*
%FSLAX46Y46*%
G04 Gerber Fmt 4.6, Leading zero omitted, Abs format (unit mm)*
G04 Created by KiCad (PCBNEW 4.0.4+dfsg1-stable) date Wed Dec 21 21:58:14 2016*
%MOMM*%
%LPD*%
G01*
G04 APERTURE LIST*
%ADD10C,0.100000*%
%ADD11C,0.150000*%
%ADD12C,0.010000*%
G04 APERTURE END LIST*
D10*
D11*
X105850000Y-76900000D02*
X105150000Y-76900000D01*
X105150000Y-78100000D02*
X105850000Y-78100000D01*
X123850000Y-95900000D02*
X123150000Y-95900000D01*
X123150000Y-97100000D02*
X123850000Y-97100000D01*
X105600000Y-89850000D02*
X105600000Y-89150000D01*
X104400000Y-89150000D02*
X104400000Y-89850000D01*
X129600000Y-94350000D02*
X129600000Y-93650000D01*
X128400000Y-93650000D02*
X128400000Y-94350000D01*
X69750000Y-92000000D02*
X69500000Y-92000000D01*
X70250000Y-92000000D02*
X70500000Y-92000000D01*
X70250000Y-92000000D02*
X69750000Y-91650000D01*
X69750000Y-91650000D02*
X69750000Y-92350000D01*
X69750000Y-92350000D02*
X70250000Y-92000000D01*
X70250000Y-91650000D02*
X70250000Y-92350000D01*
X71300000Y-92800000D02*
X68900000Y-92800000D01*
X71300000Y-91200000D02*
X68900000Y-91200000D01*
X69750000Y-95000000D02*
X69500000Y-95000000D01*
X70250000Y-95000000D02*
X70500000Y-95000000D01*
X70250000Y-95000000D02*
X69750000Y-94650000D01*
X69750000Y-94650000D02*
X69750000Y-95350000D01*
X69750000Y-95350000D02*
X70250000Y-95000000D01*
X70250000Y-94650000D02*
X70250000Y-95350000D01*
X71300000Y-95800000D02*
X68900000Y-95800000D01*
X71300000Y-94200000D02*
X68900000Y-94200000D01*
X96900000Y-90450000D02*
X98800000Y-90450000D01*
X96900000Y-91550000D02*
X98800000Y-91550000D01*
X97800000Y-91000000D02*
X98250000Y-91000000D01*
X97750000Y-91250000D02*
X97750000Y-90750000D01*
X97750000Y-91000000D02*
X98000000Y-91250000D01*
X98000000Y-91250000D02*
X98000000Y-90750000D01*
X98000000Y-90750000D02*
X97750000Y-91000000D01*
X90250000Y-100755000D02*
X90250000Y-100550000D01*
X95750000Y-100755000D02*
X95750000Y-100455000D01*
X95750000Y-95245000D02*
X95750000Y-95545000D01*
X90250000Y-95245000D02*
X90250000Y-95545000D01*
X90250000Y-100755000D02*
X95750000Y-100755000D01*
X90250000Y-95245000D02*
X95750000Y-95245000D01*
X90250000Y-100550000D02*
X88500000Y-100550000D01*
X112949200Y-77499820D02*
X113650240Y-77499820D01*
X113650240Y-77499820D02*
X113650240Y-77250900D01*
X113650240Y-74700840D02*
X113650240Y-74500180D01*
X113650240Y-74500180D02*
X112949200Y-74500180D01*
X79000000Y-84675000D02*
X80000000Y-84675000D01*
X80000000Y-83325000D02*
X79000000Y-83325000D01*
X79000000Y-81675000D02*
X80000000Y-81675000D01*
X80000000Y-80325000D02*
X79000000Y-80325000D01*
X79000000Y-78675000D02*
X80000000Y-78675000D01*
X80000000Y-77325000D02*
X79000000Y-77325000D01*
X105000000Y-75175000D02*
X106000000Y-75175000D01*
X106000000Y-73825000D02*
X105000000Y-73825000D01*
X105000000Y-81175000D02*
X106000000Y-81175000D01*
X106000000Y-79825000D02*
X105000000Y-79825000D01*
X105000000Y-84175000D02*
X106000000Y-84175000D01*
X106000000Y-82825000D02*
X105000000Y-82825000D01*
X79000000Y-89675000D02*
X80000000Y-89675000D01*
X80000000Y-88325000D02*
X79000000Y-88325000D01*
X79000000Y-92675000D02*
X80000000Y-92675000D01*
X80000000Y-91325000D02*
X79000000Y-91325000D01*
X79000000Y-95675000D02*
X80000000Y-95675000D01*
X80000000Y-94325000D02*
X79000000Y-94325000D01*
X124000000Y-86825000D02*
X123000000Y-86825000D01*
X123000000Y-88175000D02*
X124000000Y-88175000D01*
X123000000Y-94175000D02*
X124000000Y-94175000D01*
X124000000Y-92825000D02*
X123000000Y-92825000D01*
X124000000Y-89825000D02*
X123000000Y-89825000D01*
X123000000Y-91175000D02*
X124000000Y-91175000D01*
X107325000Y-89000000D02*
X107325000Y-90000000D01*
X108675000Y-90000000D02*
X108675000Y-89000000D01*
X114500000Y-90325000D02*
X113500000Y-90325000D01*
X113500000Y-91675000D02*
X114500000Y-91675000D01*
X136500000Y-87675000D02*
X137500000Y-87675000D01*
X137500000Y-86325000D02*
X136500000Y-86325000D01*
X113500000Y-88675000D02*
X114500000Y-88675000D01*
X114500000Y-87325000D02*
X113500000Y-87325000D01*
X123000000Y-100175000D02*
X124000000Y-100175000D01*
X124000000Y-98825000D02*
X123000000Y-98825000D01*
X136500000Y-100675000D02*
X137500000Y-100675000D01*
X137500000Y-99325000D02*
X136500000Y-99325000D01*
X92000000Y-90325000D02*
X91000000Y-90325000D01*
X91000000Y-91675000D02*
X92000000Y-91675000D01*
X88625000Y-83825000D02*
X88625000Y-83550000D01*
X96375000Y-83825000D02*
X96375000Y-83470000D01*
X96375000Y-73175000D02*
X96375000Y-73530000D01*
X88625000Y-73175000D02*
X88625000Y-73530000D01*
X88625000Y-83825000D02*
X96375000Y-83825000D01*
X88625000Y-73175000D02*
X96375000Y-73175000D01*
X88625000Y-83550000D02*
X87100000Y-83550000D01*
X112575000Y-95425000D02*
X112575000Y-95475000D01*
X108425000Y-95425000D02*
X108425000Y-95570000D01*
X108425000Y-100575000D02*
X108425000Y-100430000D01*
X112575000Y-100575000D02*
X112575000Y-100430000D01*
X112575000Y-95425000D02*
X108425000Y-95425000D01*
X112575000Y-100575000D02*
X108425000Y-100575000D01*
X112575000Y-95475000D02*
X113975000Y-95475000D01*
X134925000Y-95575000D02*
X134925000Y-95525000D01*
X139075000Y-95575000D02*
X139075000Y-95430000D01*
X139075000Y-90425000D02*
X139075000Y-90570000D01*
X134925000Y-90425000D02*
X134925000Y-90570000D01*
X134925000Y-95575000D02*
X139075000Y-95575000D01*
X134925000Y-90425000D02*
X139075000Y-90425000D01*
X134925000Y-95525000D02*
X133525000Y-95525000D01*
X70250000Y-89000000D02*
X70500000Y-89000000D01*
X69750000Y-89000000D02*
X69500000Y-89000000D01*
X69750000Y-89000000D02*
X70250000Y-89350000D01*
X70250000Y-89350000D02*
X70250000Y-88650000D01*
X70250000Y-88650000D02*
X69750000Y-89000000D01*
X69750000Y-89350000D02*
X69750000Y-88650000D01*
X68700000Y-88200000D02*
X71100000Y-88200000D01*
X68700000Y-89800000D02*
X71100000Y-89800000D01*
D12*
G36*
X133984064Y-66039939D02*
X134088227Y-65958100D01*
X134241823Y-65819797D01*
X134399476Y-65680024D01*
X134436360Y-65647751D01*
X134570713Y-65513005D01*
X134687704Y-65367458D01*
X134703981Y-65342951D01*
X134786496Y-65212359D01*
X134852886Y-65107140D01*
X134857532Y-65099764D01*
X134955370Y-64951209D01*
X135072003Y-64784038D01*
X135192803Y-64617883D01*
X135303144Y-64472376D01*
X135388401Y-64367149D01*
X135433945Y-64321832D01*
X135437143Y-64321811D01*
X135468373Y-64292299D01*
X135528280Y-64195897D01*
X135603663Y-64058287D01*
X135681324Y-63905148D01*
X135748062Y-63762160D01*
X135790678Y-63655003D01*
X135799200Y-63617431D01*
X135822420Y-63540360D01*
X135881665Y-63411506D01*
X135925655Y-63328415D01*
X136018845Y-63153938D01*
X136118298Y-62957243D01*
X136212935Y-62761655D01*
X136291677Y-62590501D01*
X136343446Y-62467105D01*
X136358000Y-62418107D01*
X136385852Y-62352233D01*
X136449433Y-62256551D01*
X136515713Y-62134671D01*
X136595153Y-61935203D01*
X136680253Y-61680034D01*
X136763511Y-61391052D01*
X136813051Y-61195600D01*
X136842568Y-61025677D01*
X136866612Y-60803402D01*
X136879571Y-60586000D01*
X136884095Y-60392071D01*
X136878227Y-60277407D01*
X136855251Y-60219740D01*
X136808449Y-60196802D01*
X136760051Y-60189732D01*
X136641465Y-60201434D01*
X136575900Y-60240532D01*
X136441114Y-60476833D01*
X136353832Y-60778410D01*
X136337234Y-60887846D01*
X136302367Y-61144200D01*
X136264550Y-61332876D01*
X136216035Y-61487680D01*
X136179351Y-61576600D01*
X136117191Y-61739864D01*
X136075109Y-61881400D01*
X136017326Y-62036973D01*
X135941109Y-62172972D01*
X135877370Y-62299976D01*
X135815444Y-62480902D01*
X135781475Y-62617854D01*
X135719195Y-62840283D01*
X135638952Y-62974569D01*
X135606757Y-63002263D01*
X135522581Y-63085612D01*
X135494400Y-63152818D01*
X135468467Y-63229733D01*
X135398518Y-63371148D01*
X135296327Y-63556649D01*
X135173666Y-63765823D01*
X135042310Y-63978257D01*
X134914031Y-64173539D01*
X134865277Y-64243600D01*
X134743907Y-64427411D01*
X134626353Y-64625775D01*
X134586150Y-64700800D01*
X134487587Y-64850274D01*
X134332164Y-65037936D01*
X134143121Y-65239480D01*
X133943704Y-65430599D01*
X133757155Y-65586986D01*
X133697374Y-65630272D01*
X133585827Y-65755607D01*
X133564000Y-65861412D01*
X133597186Y-66021455D01*
X133687504Y-66106262D01*
X133821085Y-66113276D01*
X133984064Y-66039939D01*
X133984064Y-66039939D01*
G37*
X133984064Y-66039939D02*
X134088227Y-65958100D01*
X134241823Y-65819797D01*
X134399476Y-65680024D01*
X134436360Y-65647751D01*
X134570713Y-65513005D01*
X134687704Y-65367458D01*
X134703981Y-65342951D01*
X134786496Y-65212359D01*
X134852886Y-65107140D01*
X134857532Y-65099764D01*
X134955370Y-64951209D01*
X135072003Y-64784038D01*
X135192803Y-64617883D01*
X135303144Y-64472376D01*
X135388401Y-64367149D01*
X135433945Y-64321832D01*
X135437143Y-64321811D01*
X135468373Y-64292299D01*
X135528280Y-64195897D01*
X135603663Y-64058287D01*
X135681324Y-63905148D01*
X135748062Y-63762160D01*
X135790678Y-63655003D01*
X135799200Y-63617431D01*
X135822420Y-63540360D01*
X135881665Y-63411506D01*
X135925655Y-63328415D01*
X136018845Y-63153938D01*
X136118298Y-62957243D01*
X136212935Y-62761655D01*
X136291677Y-62590501D01*
X136343446Y-62467105D01*
X136358000Y-62418107D01*
X136385852Y-62352233D01*
X136449433Y-62256551D01*
X136515713Y-62134671D01*
X136595153Y-61935203D01*
X136680253Y-61680034D01*
X136763511Y-61391052D01*
X136813051Y-61195600D01*
X136842568Y-61025677D01*
X136866612Y-60803402D01*
X136879571Y-60586000D01*
X136884095Y-60392071D01*
X136878227Y-60277407D01*
X136855251Y-60219740D01*
X136808449Y-60196802D01*
X136760051Y-60189732D01*
X136641465Y-60201434D01*
X136575900Y-60240532D01*
X136441114Y-60476833D01*
X136353832Y-60778410D01*
X136337234Y-60887846D01*
X136302367Y-61144200D01*
X136264550Y-61332876D01*
X136216035Y-61487680D01*
X136179351Y-61576600D01*
X136117191Y-61739864D01*
X136075109Y-61881400D01*
X136017326Y-62036973D01*
X135941109Y-62172972D01*
X135877370Y-62299976D01*
X135815444Y-62480902D01*
X135781475Y-62617854D01*
X135719195Y-62840283D01*
X135638952Y-62974569D01*
X135606757Y-63002263D01*
X135522581Y-63085612D01*
X135494400Y-63152818D01*
X135468467Y-63229733D01*
X135398518Y-63371148D01*
X135296327Y-63556649D01*
X135173666Y-63765823D01*
X135042310Y-63978257D01*
X134914031Y-64173539D01*
X134865277Y-64243600D01*
X134743907Y-64427411D01*
X134626353Y-64625775D01*
X134586150Y-64700800D01*
X134487587Y-64850274D01*
X134332164Y-65037936D01*
X134143121Y-65239480D01*
X133943704Y-65430599D01*
X133757155Y-65586986D01*
X133697374Y-65630272D01*
X133585827Y-65755607D01*
X133564000Y-65861412D01*
X133597186Y-66021455D01*
X133687504Y-66106262D01*
X133821085Y-66113276D01*
X133984064Y-66039939D01*
G36*
X120434580Y-67902401D02*
X120687693Y-67832376D01*
X120868962Y-67733229D01*
X120901199Y-67703732D01*
X121021539Y-67603160D01*
X121105300Y-67550702D01*
X121192852Y-67473563D01*
X121219600Y-67403241D01*
X121251109Y-67329151D01*
X121332129Y-67206607D01*
X121442402Y-67061007D01*
X121561666Y-66917752D01*
X121669660Y-66802242D01*
X121746127Y-66739875D01*
X121750278Y-66737941D01*
X121849541Y-66667982D01*
X121980006Y-66540466D01*
X122117812Y-66383220D01*
X122239101Y-66224075D01*
X122320015Y-66090859D01*
X122333794Y-66057319D01*
X122416915Y-65898386D01*
X122535947Y-65763659D01*
X122545934Y-65755728D01*
X122688277Y-65644451D01*
X122843075Y-65520062D01*
X122866474Y-65500900D01*
X123000710Y-65412997D01*
X123127159Y-65365017D01*
X123156706Y-65361965D01*
X123310383Y-65388214D01*
X123522704Y-65457349D01*
X123766949Y-65557159D01*
X124016401Y-65675431D01*
X124244341Y-65799951D01*
X124424050Y-65918507D01*
X124484426Y-65968856D01*
X124595947Y-66062849D01*
X124682443Y-66117427D01*
X124702521Y-66122965D01*
X124775671Y-66154950D01*
X124866170Y-66225428D01*
X124990664Y-66298127D01*
X125162601Y-66347153D01*
X125348085Y-66368975D01*
X125513225Y-66360063D01*
X125624124Y-66316886D01*
X125635418Y-66305557D01*
X125679210Y-66188240D01*
X125624378Y-66064447D01*
X125473493Y-65936767D01*
X125229125Y-65807790D01*
X125080400Y-65746572D01*
X124996533Y-65705493D01*
X124860532Y-65630356D01*
X124750200Y-65566054D01*
X124575654Y-65465729D01*
X124407383Y-65374808D01*
X124329928Y-65336012D01*
X124189592Y-65256780D01*
X124077986Y-65173027D01*
X124074361Y-65169529D01*
X123858200Y-65021363D01*
X123563946Y-64918360D01*
X123206972Y-64865851D01*
X123196839Y-64865198D01*
X122811879Y-64841158D01*
X122549139Y-65108075D01*
X122420995Y-65246679D01*
X122327458Y-65363908D01*
X122286849Y-65436556D01*
X122286400Y-65440873D01*
X122244261Y-65508081D01*
X122187322Y-65538200D01*
X122096830Y-65600404D01*
X122000126Y-65713716D01*
X121983013Y-65739914D01*
X121878569Y-65880180D01*
X121740217Y-66031785D01*
X121685765Y-66083658D01*
X121553942Y-66215617D01*
X121397627Y-66390453D01*
X121260085Y-66558467D01*
X121061406Y-66807561D01*
X120913970Y-66975740D01*
X120813739Y-67067335D01*
X120765928Y-67088400D01*
X120722570Y-67045406D01*
X120691107Y-66962867D01*
X120630882Y-66845794D01*
X120565076Y-66786745D01*
X120481008Y-66766067D01*
X120317305Y-66745032D01*
X120095902Y-66725838D01*
X119838731Y-66710677D01*
X119778949Y-66708078D01*
X119514371Y-66694513D01*
X119278301Y-66677202D01*
X119093518Y-66658182D01*
X118982799Y-66639490D01*
X118971220Y-66635847D01*
X118873060Y-66552863D01*
X118848583Y-66423124D01*
X118900365Y-66272443D01*
X118930508Y-66227864D01*
X118971658Y-66180296D01*
X119022677Y-66145440D01*
X119100408Y-66120076D01*
X119221697Y-66100983D01*
X119403390Y-66084942D01*
X119662331Y-66068732D01*
X119804687Y-66060737D01*
X120099441Y-66040577D01*
X120379791Y-66014504D01*
X120620007Y-65985390D01*
X120794362Y-65956106D01*
X120838600Y-65945360D01*
X121159053Y-65803099D01*
X121459604Y-65567841D01*
X121731979Y-65247522D01*
X121956113Y-64873610D01*
X122053964Y-64687126D01*
X122140824Y-64533874D01*
X122202697Y-64438096D01*
X122217208Y-64421400D01*
X122269525Y-64342255D01*
X122325133Y-64211230D01*
X122335541Y-64180078D01*
X122382946Y-64066721D01*
X122452104Y-63993693D01*
X122562418Y-63954368D01*
X122733292Y-63942122D01*
X122984129Y-63950332D01*
X123005076Y-63951495D01*
X123285716Y-63983857D01*
X123585066Y-64053584D01*
X123923444Y-64166728D01*
X124321166Y-64329339D01*
X124420000Y-64372957D01*
X124617679Y-64457742D01*
X124796213Y-64528337D01*
X124922476Y-64571769D01*
X124938824Y-64576123D01*
X125054740Y-64646067D01*
X125176770Y-64786027D01*
X125284931Y-64967829D01*
X125359241Y-65163299D01*
X125361502Y-65172097D01*
X125421572Y-65308273D01*
X125507160Y-65427162D01*
X125595609Y-65551423D01*
X125681671Y-65716401D01*
X125704776Y-65772086D01*
X125815086Y-65992006D01*
X125948913Y-66155452D01*
X126091959Y-66254136D01*
X126229928Y-66279768D01*
X126348521Y-66224057D01*
X126391678Y-66170369D01*
X126424181Y-66094705D01*
X126413571Y-66011669D01*
X126353215Y-65888133D01*
X126325536Y-65840133D01*
X126229171Y-65689692D01*
X126135316Y-65565018D01*
X126099552Y-65526265D01*
X126018063Y-65427485D01*
X125923044Y-65282281D01*
X125832897Y-65123083D01*
X125766023Y-64982319D01*
X125740800Y-64894048D01*
X125720255Y-64823641D01*
X125666124Y-64687332D01*
X125589655Y-64510389D01*
X125502100Y-64318079D01*
X125414709Y-64135670D01*
X125338734Y-63988432D01*
X125332741Y-63977590D01*
X125290558Y-63863519D01*
X125283600Y-63810887D01*
X125268062Y-63723794D01*
X125227598Y-63575275D01*
X125178653Y-63420867D01*
X125130605Y-63242096D01*
X125078141Y-62987524D01*
X125024995Y-62682624D01*
X124974899Y-62352866D01*
X124931589Y-62023724D01*
X124898796Y-61720668D01*
X124880255Y-61469171D01*
X124877484Y-61366136D01*
X124866879Y-61192587D01*
X124831977Y-61099473D01*
X124796845Y-61074036D01*
X124662611Y-61045494D01*
X124544220Y-61055606D01*
X124504666Y-61077067D01*
X124478879Y-61158093D01*
X124467711Y-61322852D01*
X124469533Y-61554782D01*
X124482714Y-61837325D01*
X124505626Y-62153920D01*
X124536638Y-62488008D01*
X124574121Y-62823027D01*
X124616444Y-63142420D01*
X124661979Y-63429624D01*
X124709095Y-63668081D01*
X124756164Y-63841230D01*
X124783034Y-63905647D01*
X124812196Y-63992885D01*
X124805439Y-64027494D01*
X124755002Y-64015117D01*
X124651826Y-63961990D01*
X124525920Y-63886318D01*
X124407293Y-63806302D01*
X124325953Y-63740147D01*
X124318400Y-63732059D01*
X124255929Y-63702422D01*
X124116753Y-63656152D01*
X123923136Y-63599582D01*
X123697344Y-63539041D01*
X123461642Y-63480861D01*
X123327800Y-63450393D01*
X123059880Y-63404459D01*
X122803720Y-63383306D01*
X122581682Y-63386728D01*
X122416123Y-63414518D01*
X122334420Y-63459550D01*
X122240695Y-63541541D01*
X122130952Y-63610177D01*
X122019775Y-63704121D01*
X121960738Y-63811805D01*
X121914727Y-63917076D01*
X121824889Y-64069916D01*
X121710258Y-64238074D01*
X121704789Y-64245529D01*
X121588800Y-64417468D01*
X121496971Y-64579960D01*
X121448708Y-64698568D01*
X121448166Y-64700951D01*
X121414085Y-64807448D01*
X121378248Y-64853169D01*
X121377482Y-64853200D01*
X121338413Y-64895797D01*
X121276942Y-65005595D01*
X121227993Y-65110263D01*
X121164094Y-65239073D01*
X121089830Y-65338199D01*
X120991118Y-65412362D01*
X120853872Y-65466284D01*
X120664009Y-65504686D01*
X120407443Y-65532290D01*
X120070090Y-65553816D01*
X119876419Y-65563326D01*
X119496797Y-65584565D01*
X119202107Y-65611531D01*
X118975692Y-65648718D01*
X118800891Y-65700622D01*
X118661044Y-65771736D01*
X118539494Y-65866555D01*
X118460167Y-65945400D01*
X118383986Y-66034695D01*
X118342975Y-66119825D01*
X118328814Y-66234146D01*
X118333185Y-66411014D01*
X118335036Y-66447130D01*
X118349516Y-66639139D01*
X118375192Y-66760628D01*
X118422994Y-66842678D01*
X118498559Y-66912167D01*
X118635739Y-67000190D01*
X118769804Y-67055335D01*
X118775935Y-67056759D01*
X118937638Y-67106119D01*
X119008506Y-67170168D01*
X118999270Y-67260903D01*
X118984994Y-67290489D01*
X118949559Y-67431902D01*
X118952267Y-67486739D01*
X119814711Y-67486739D01*
X119825515Y-67465789D01*
X119924200Y-67437519D01*
X120166404Y-67375646D01*
X120325585Y-67337826D01*
X120417239Y-67323275D01*
X120456861Y-67331210D01*
X120459947Y-67360847D01*
X120442012Y-67411347D01*
X120374057Y-67467944D01*
X120242017Y-67510664D01*
X120083175Y-67532515D01*
X119934815Y-67526501D01*
X119888242Y-67515224D01*
X119814711Y-67486739D01*
X118952267Y-67486739D01*
X118956708Y-67576653D01*
X119011248Y-67706325D01*
X119126761Y-67803364D01*
X119314122Y-67872420D01*
X119584206Y-67918145D01*
X119798887Y-67936879D01*
X120131139Y-67938752D01*
X120434580Y-67902401D01*
X120434580Y-67902401D01*
G37*
X120434580Y-67902401D02*
X120687693Y-67832376D01*
X120868962Y-67733229D01*
X120901199Y-67703732D01*
X121021539Y-67603160D01*
X121105300Y-67550702D01*
X121192852Y-67473563D01*
X121219600Y-67403241D01*
X121251109Y-67329151D01*
X121332129Y-67206607D01*
X121442402Y-67061007D01*
X121561666Y-66917752D01*
X121669660Y-66802242D01*
X121746127Y-66739875D01*
X121750278Y-66737941D01*
X121849541Y-66667982D01*
X121980006Y-66540466D01*
X122117812Y-66383220D01*
X122239101Y-66224075D01*
X122320015Y-66090859D01*
X122333794Y-66057319D01*
X122416915Y-65898386D01*
X122535947Y-65763659D01*
X122545934Y-65755728D01*
X122688277Y-65644451D01*
X122843075Y-65520062D01*
X122866474Y-65500900D01*
X123000710Y-65412997D01*
X123127159Y-65365017D01*
X123156706Y-65361965D01*
X123310383Y-65388214D01*
X123522704Y-65457349D01*
X123766949Y-65557159D01*
X124016401Y-65675431D01*
X124244341Y-65799951D01*
X124424050Y-65918507D01*
X124484426Y-65968856D01*
X124595947Y-66062849D01*
X124682443Y-66117427D01*
X124702521Y-66122965D01*
X124775671Y-66154950D01*
X124866170Y-66225428D01*
X124990664Y-66298127D01*
X125162601Y-66347153D01*
X125348085Y-66368975D01*
X125513225Y-66360063D01*
X125624124Y-66316886D01*
X125635418Y-66305557D01*
X125679210Y-66188240D01*
X125624378Y-66064447D01*
X125473493Y-65936767D01*
X125229125Y-65807790D01*
X125080400Y-65746572D01*
X124996533Y-65705493D01*
X124860532Y-65630356D01*
X124750200Y-65566054D01*
X124575654Y-65465729D01*
X124407383Y-65374808D01*
X124329928Y-65336012D01*
X124189592Y-65256780D01*
X124077986Y-65173027D01*
X124074361Y-65169529D01*
X123858200Y-65021363D01*
X123563946Y-64918360D01*
X123206972Y-64865851D01*
X123196839Y-64865198D01*
X122811879Y-64841158D01*
X122549139Y-65108075D01*
X122420995Y-65246679D01*
X122327458Y-65363908D01*
X122286849Y-65436556D01*
X122286400Y-65440873D01*
X122244261Y-65508081D01*
X122187322Y-65538200D01*
X122096830Y-65600404D01*
X122000126Y-65713716D01*
X121983013Y-65739914D01*
X121878569Y-65880180D01*
X121740217Y-66031785D01*
X121685765Y-66083658D01*
X121553942Y-66215617D01*
X121397627Y-66390453D01*
X121260085Y-66558467D01*
X121061406Y-66807561D01*
X120913970Y-66975740D01*
X120813739Y-67067335D01*
X120765928Y-67088400D01*
X120722570Y-67045406D01*
X120691107Y-66962867D01*
X120630882Y-66845794D01*
X120565076Y-66786745D01*
X120481008Y-66766067D01*
X120317305Y-66745032D01*
X120095902Y-66725838D01*
X119838731Y-66710677D01*
X119778949Y-66708078D01*
X119514371Y-66694513D01*
X119278301Y-66677202D01*
X119093518Y-66658182D01*
X118982799Y-66639490D01*
X118971220Y-66635847D01*
X118873060Y-66552863D01*
X118848583Y-66423124D01*
X118900365Y-66272443D01*
X118930508Y-66227864D01*
X118971658Y-66180296D01*
X119022677Y-66145440D01*
X119100408Y-66120076D01*
X119221697Y-66100983D01*
X119403390Y-66084942D01*
X119662331Y-66068732D01*
X119804687Y-66060737D01*
X120099441Y-66040577D01*
X120379791Y-66014504D01*
X120620007Y-65985390D01*
X120794362Y-65956106D01*
X120838600Y-65945360D01*
X121159053Y-65803099D01*
X121459604Y-65567841D01*
X121731979Y-65247522D01*
X121956113Y-64873610D01*
X122053964Y-64687126D01*
X122140824Y-64533874D01*
X122202697Y-64438096D01*
X122217208Y-64421400D01*
X122269525Y-64342255D01*
X122325133Y-64211230D01*
X122335541Y-64180078D01*
X122382946Y-64066721D01*
X122452104Y-63993693D01*
X122562418Y-63954368D01*
X122733292Y-63942122D01*
X122984129Y-63950332D01*
X123005076Y-63951495D01*
X123285716Y-63983857D01*
X123585066Y-64053584D01*
X123923444Y-64166728D01*
X124321166Y-64329339D01*
X124420000Y-64372957D01*
X124617679Y-64457742D01*
X124796213Y-64528337D01*
X124922476Y-64571769D01*
X124938824Y-64576123D01*
X125054740Y-64646067D01*
X125176770Y-64786027D01*
X125284931Y-64967829D01*
X125359241Y-65163299D01*
X125361502Y-65172097D01*
X125421572Y-65308273D01*
X125507160Y-65427162D01*
X125595609Y-65551423D01*
X125681671Y-65716401D01*
X125704776Y-65772086D01*
X125815086Y-65992006D01*
X125948913Y-66155452D01*
X126091959Y-66254136D01*
X126229928Y-66279768D01*
X126348521Y-66224057D01*
X126391678Y-66170369D01*
X126424181Y-66094705D01*
X126413571Y-66011669D01*
X126353215Y-65888133D01*
X126325536Y-65840133D01*
X126229171Y-65689692D01*
X126135316Y-65565018D01*
X126099552Y-65526265D01*
X126018063Y-65427485D01*
X125923044Y-65282281D01*
X125832897Y-65123083D01*
X125766023Y-64982319D01*
X125740800Y-64894048D01*
X125720255Y-64823641D01*
X125666124Y-64687332D01*
X125589655Y-64510389D01*
X125502100Y-64318079D01*
X125414709Y-64135670D01*
X125338734Y-63988432D01*
X125332741Y-63977590D01*
X125290558Y-63863519D01*
X125283600Y-63810887D01*
X125268062Y-63723794D01*
X125227598Y-63575275D01*
X125178653Y-63420867D01*
X125130605Y-63242096D01*
X125078141Y-62987524D01*
X125024995Y-62682624D01*
X124974899Y-62352866D01*
X124931589Y-62023724D01*
X124898796Y-61720668D01*
X124880255Y-61469171D01*
X124877484Y-61366136D01*
X124866879Y-61192587D01*
X124831977Y-61099473D01*
X124796845Y-61074036D01*
X124662611Y-61045494D01*
X124544220Y-61055606D01*
X124504666Y-61077067D01*
X124478879Y-61158093D01*
X124467711Y-61322852D01*
X124469533Y-61554782D01*
X124482714Y-61837325D01*
X124505626Y-62153920D01*
X124536638Y-62488008D01*
X124574121Y-62823027D01*
X124616444Y-63142420D01*
X124661979Y-63429624D01*
X124709095Y-63668081D01*
X124756164Y-63841230D01*
X124783034Y-63905647D01*
X124812196Y-63992885D01*
X124805439Y-64027494D01*
X124755002Y-64015117D01*
X124651826Y-63961990D01*
X124525920Y-63886318D01*
X124407293Y-63806302D01*
X124325953Y-63740147D01*
X124318400Y-63732059D01*
X124255929Y-63702422D01*
X124116753Y-63656152D01*
X123923136Y-63599582D01*
X123697344Y-63539041D01*
X123461642Y-63480861D01*
X123327800Y-63450393D01*
X123059880Y-63404459D01*
X122803720Y-63383306D01*
X122581682Y-63386728D01*
X122416123Y-63414518D01*
X122334420Y-63459550D01*
X122240695Y-63541541D01*
X122130952Y-63610177D01*
X122019775Y-63704121D01*
X121960738Y-63811805D01*
X121914727Y-63917076D01*
X121824889Y-64069916D01*
X121710258Y-64238074D01*
X121704789Y-64245529D01*
X121588800Y-64417468D01*
X121496971Y-64579960D01*
X121448708Y-64698568D01*
X121448166Y-64700951D01*
X121414085Y-64807448D01*
X121378248Y-64853169D01*
X121377482Y-64853200D01*
X121338413Y-64895797D01*
X121276942Y-65005595D01*
X121227993Y-65110263D01*
X121164094Y-65239073D01*
X121089830Y-65338199D01*
X120991118Y-65412362D01*
X120853872Y-65466284D01*
X120664009Y-65504686D01*
X120407443Y-65532290D01*
X120070090Y-65553816D01*
X119876419Y-65563326D01*
X119496797Y-65584565D01*
X119202107Y-65611531D01*
X118975692Y-65648718D01*
X118800891Y-65700622D01*
X118661044Y-65771736D01*
X118539494Y-65866555D01*
X118460167Y-65945400D01*
X118383986Y-66034695D01*
X118342975Y-66119825D01*
X118328814Y-66234146D01*
X118333185Y-66411014D01*
X118335036Y-66447130D01*
X118349516Y-66639139D01*
X118375192Y-66760628D01*
X118422994Y-66842678D01*
X118498559Y-66912167D01*
X118635739Y-67000190D01*
X118769804Y-67055335D01*
X118775935Y-67056759D01*
X118937638Y-67106119D01*
X119008506Y-67170168D01*
X118999270Y-67260903D01*
X118984994Y-67290489D01*
X118949559Y-67431902D01*
X118952267Y-67486739D01*
X119814711Y-67486739D01*
X119825515Y-67465789D01*
X119924200Y-67437519D01*
X120166404Y-67375646D01*
X120325585Y-67337826D01*
X120417239Y-67323275D01*
X120456861Y-67331210D01*
X120459947Y-67360847D01*
X120442012Y-67411347D01*
X120374057Y-67467944D01*
X120242017Y-67510664D01*
X120083175Y-67532515D01*
X119934815Y-67526501D01*
X119888242Y-67515224D01*
X119814711Y-67486739D01*
X118952267Y-67486739D01*
X118956708Y-67576653D01*
X119011248Y-67706325D01*
X119126761Y-67803364D01*
X119314122Y-67872420D01*
X119584206Y-67918145D01*
X119798887Y-67936879D01*
X120131139Y-67938752D01*
X120434580Y-67902401D01*
G36*
X139334387Y-67044386D02*
X139442404Y-67007259D01*
X139541669Y-66919990D01*
X139566016Y-66893238D01*
X139657116Y-66768678D01*
X139707364Y-66656054D01*
X139710800Y-66630399D01*
X139725608Y-66568383D01*
X139786863Y-66537523D01*
X139919808Y-66526935D01*
X139952100Y-66526358D01*
X140267114Y-66510479D01*
X140495819Y-66468256D01*
X140651549Y-66393190D01*
X140747636Y-66278781D01*
X140797415Y-66118529D01*
X140798171Y-66113940D01*
X140800652Y-65887888D01*
X140719680Y-65711845D01*
X140547328Y-65569905D01*
X140518980Y-65553777D01*
X140350337Y-65461286D01*
X140188288Y-65372599D01*
X140148633Y-65350941D01*
X139983122Y-65293990D01*
X139741242Y-65265938D01*
X139594712Y-65262041D01*
X139331231Y-65248448D01*
X139135544Y-65204484D01*
X138975809Y-65119666D01*
X138856271Y-65018959D01*
X138781310Y-64964090D01*
X138752830Y-64954800D01*
X138698815Y-64923088D01*
X138595409Y-64840750D01*
X138489759Y-64747896D01*
X138314133Y-64608490D01*
X138101050Y-64467763D01*
X137958200Y-64388087D01*
X137767648Y-64291231D01*
X137585255Y-64196455D01*
X137475600Y-64137870D01*
X137316506Y-64084638D01*
X137091452Y-64051067D01*
X136834277Y-64037799D01*
X136578824Y-64045473D01*
X136358936Y-64074732D01*
X136231000Y-64114287D01*
X136062708Y-64190738D01*
X135867597Y-64275692D01*
X135683090Y-64353188D01*
X135546606Y-64407266D01*
X135529622Y-64413424D01*
X135465296Y-64466684D01*
X135453450Y-64579096D01*
X135456473Y-64611410D01*
X135484952Y-64730041D01*
X135553991Y-64781689D01*
X135619999Y-64793871D01*
X135766918Y-64788588D01*
X135870947Y-64759053D01*
X136285835Y-64581199D01*
X136642619Y-64480911D01*
X136750671Y-64464278D01*
X136880139Y-64452737D01*
X136988571Y-64457990D01*
X137101949Y-64487440D01*
X137246255Y-64548490D01*
X137447472Y-64648545D01*
X137509881Y-64680608D01*
X137714886Y-64792897D01*
X137887677Y-64899973D01*
X138006478Y-64987616D01*
X138046518Y-65031000D01*
X138127870Y-65144217D01*
X138181580Y-65195952D01*
X138390749Y-65357054D01*
X138536517Y-65464275D01*
X138634354Y-65527779D01*
X138699731Y-65557729D01*
X138742425Y-65564400D01*
X138844944Y-65589758D01*
X138875140Y-65609946D01*
X138944219Y-65632060D01*
X139089769Y-65653794D01*
X139286699Y-65671882D01*
X139406000Y-65679006D01*
X139694336Y-65705213D01*
X139933460Y-65750850D01*
X140108557Y-65811467D01*
X140204814Y-65882613D01*
X140218800Y-65923205D01*
X140170538Y-65939672D01*
X140035405Y-65948634D01*
X139827882Y-65949700D01*
X139562450Y-65942477D01*
X139539950Y-65941563D01*
X139258411Y-65931453D01*
X139060547Y-65929337D01*
X138928659Y-65936490D01*
X138845045Y-65954190D01*
X138792002Y-65983713D01*
X138777950Y-65996507D01*
X138703807Y-66113309D01*
X138720869Y-66232168D01*
X138832110Y-66362024D01*
X138923315Y-66433395D01*
X139044882Y-66525944D01*
X139119999Y-66593433D01*
X139133086Y-66616247D01*
X139082329Y-66603960D01*
X138964349Y-66554628D01*
X138802079Y-66478048D01*
X138756287Y-66455296D01*
X138577652Y-66369949D01*
X138428635Y-66306556D01*
X138336598Y-66276578D01*
X138327244Y-66275600D01*
X138259509Y-66239621D01*
X138151757Y-66145557D01*
X138034400Y-66021600D01*
X137916584Y-65892532D01*
X137823420Y-65801092D01*
X137776172Y-65767600D01*
X137717916Y-65741775D01*
X137597472Y-65673476D01*
X137437261Y-65576472D01*
X137259708Y-65464532D01*
X137087237Y-65351424D01*
X136990233Y-65285029D01*
X136837449Y-65219753D01*
X136647030Y-65193228D01*
X136458264Y-65205536D01*
X136310441Y-65256760D01*
X136276022Y-65283521D01*
X136198551Y-65341215D01*
X136057945Y-65419107D01*
X135843883Y-65522446D01*
X135546045Y-65656478D01*
X135519800Y-65668021D01*
X135427014Y-65705904D01*
X135268092Y-65768060D01*
X135072064Y-65843181D01*
X135000040Y-65870452D01*
X134808961Y-65946470D01*
X134656390Y-66014485D01*
X134566057Y-66063610D01*
X134552541Y-66075730D01*
X134486228Y-66108375D01*
X134365120Y-66123128D01*
X134355819Y-66123200D01*
X134181587Y-66161823D01*
X134035956Y-66261633D01*
X133944996Y-66398542D01*
X133928987Y-66517544D01*
X133955670Y-66614068D01*
X134027378Y-66657659D01*
X134122800Y-66670696D01*
X134279893Y-66664671D01*
X134471779Y-66633164D01*
X134554600Y-66612471D01*
X134701433Y-66565072D01*
X134891136Y-66496188D01*
X135099880Y-66415460D01*
X135303837Y-66332532D01*
X135479177Y-66257046D01*
X135602074Y-66198644D01*
X135646800Y-66170501D01*
X135702738Y-66136253D01*
X135825148Y-66074097D01*
X135987669Y-65997408D01*
X135989700Y-65996480D01*
X136148110Y-65919547D01*
X136261897Y-65855648D01*
X136307150Y-65818252D01*
X136307200Y-65817634D01*
X136350982Y-65769174D01*
X136457306Y-65717964D01*
X136588640Y-65678791D01*
X136692142Y-65666000D01*
X136826136Y-65712333D01*
X136974414Y-65843800D01*
X137077192Y-65949713D01*
X137157829Y-66013347D01*
X137179921Y-66021600D01*
X137243040Y-66051386D01*
X137359382Y-66128490D01*
X137504668Y-66234533D01*
X137654619Y-66351137D01*
X137784957Y-66459922D01*
X137871402Y-66542510D01*
X137877693Y-66549812D01*
X137963783Y-66610724D01*
X138108268Y-66675688D01*
X138199014Y-66706322D01*
X138405706Y-66780838D01*
X138620953Y-66877717D01*
X138687568Y-66912836D01*
X138990323Y-67028354D01*
X139171658Y-67049593D01*
X139334387Y-67044386D01*
X139334387Y-67044386D01*
G37*
X139334387Y-67044386D02*
X139442404Y-67007259D01*
X139541669Y-66919990D01*
X139566016Y-66893238D01*
X139657116Y-66768678D01*
X139707364Y-66656054D01*
X139710800Y-66630399D01*
X139725608Y-66568383D01*
X139786863Y-66537523D01*
X139919808Y-66526935D01*
X139952100Y-66526358D01*
X140267114Y-66510479D01*
X140495819Y-66468256D01*
X140651549Y-66393190D01*
X140747636Y-66278781D01*
X140797415Y-66118529D01*
X140798171Y-66113940D01*
X140800652Y-65887888D01*
X140719680Y-65711845D01*
X140547328Y-65569905D01*
X140518980Y-65553777D01*
X140350337Y-65461286D01*
X140188288Y-65372599D01*
X140148633Y-65350941D01*
X139983122Y-65293990D01*
X139741242Y-65265938D01*
X139594712Y-65262041D01*
X139331231Y-65248448D01*
X139135544Y-65204484D01*
X138975809Y-65119666D01*
X138856271Y-65018959D01*
X138781310Y-64964090D01*
X138752830Y-64954800D01*
X138698815Y-64923088D01*
X138595409Y-64840750D01*
X138489759Y-64747896D01*
X138314133Y-64608490D01*
X138101050Y-64467763D01*
X137958200Y-64388087D01*
X137767648Y-64291231D01*
X137585255Y-64196455D01*
X137475600Y-64137870D01*
X137316506Y-64084638D01*
X137091452Y-64051067D01*
X136834277Y-64037799D01*
X136578824Y-64045473D01*
X136358936Y-64074732D01*
X136231000Y-64114287D01*
X136062708Y-64190738D01*
X135867597Y-64275692D01*
X135683090Y-64353188D01*
X135546606Y-64407266D01*
X135529622Y-64413424D01*
X135465296Y-64466684D01*
X135453450Y-64579096D01*
X135456473Y-64611410D01*
X135484952Y-64730041D01*
X135553991Y-64781689D01*
X135619999Y-64793871D01*
X135766918Y-64788588D01*
X135870947Y-64759053D01*
X136285835Y-64581199D01*
X136642619Y-64480911D01*
X136750671Y-64464278D01*
X136880139Y-64452737D01*
X136988571Y-64457990D01*
X137101949Y-64487440D01*
X137246255Y-64548490D01*
X137447472Y-64648545D01*
X137509881Y-64680608D01*
X137714886Y-64792897D01*
X137887677Y-64899973D01*
X138006478Y-64987616D01*
X138046518Y-65031000D01*
X138127870Y-65144217D01*
X138181580Y-65195952D01*
X138390749Y-65357054D01*
X138536517Y-65464275D01*
X138634354Y-65527779D01*
X138699731Y-65557729D01*
X138742425Y-65564400D01*
X138844944Y-65589758D01*
X138875140Y-65609946D01*
X138944219Y-65632060D01*
X139089769Y-65653794D01*
X139286699Y-65671882D01*
X139406000Y-65679006D01*
X139694336Y-65705213D01*
X139933460Y-65750850D01*
X140108557Y-65811467D01*
X140204814Y-65882613D01*
X140218800Y-65923205D01*
X140170538Y-65939672D01*
X140035405Y-65948634D01*
X139827882Y-65949700D01*
X139562450Y-65942477D01*
X139539950Y-65941563D01*
X139258411Y-65931453D01*
X139060547Y-65929337D01*
X138928659Y-65936490D01*
X138845045Y-65954190D01*
X138792002Y-65983713D01*
X138777950Y-65996507D01*
X138703807Y-66113309D01*
X138720869Y-66232168D01*
X138832110Y-66362024D01*
X138923315Y-66433395D01*
X139044882Y-66525944D01*
X139119999Y-66593433D01*
X139133086Y-66616247D01*
X139082329Y-66603960D01*
X138964349Y-66554628D01*
X138802079Y-66478048D01*
X138756287Y-66455296D01*
X138577652Y-66369949D01*
X138428635Y-66306556D01*
X138336598Y-66276578D01*
X138327244Y-66275600D01*
X138259509Y-66239621D01*
X138151757Y-66145557D01*
X138034400Y-66021600D01*
X137916584Y-65892532D01*
X137823420Y-65801092D01*
X137776172Y-65767600D01*
X137717916Y-65741775D01*
X137597472Y-65673476D01*
X137437261Y-65576472D01*
X137259708Y-65464532D01*
X137087237Y-65351424D01*
X136990233Y-65285029D01*
X136837449Y-65219753D01*
X136647030Y-65193228D01*
X136458264Y-65205536D01*
X136310441Y-65256760D01*
X136276022Y-65283521D01*
X136198551Y-65341215D01*
X136057945Y-65419107D01*
X135843883Y-65522446D01*
X135546045Y-65656478D01*
X135519800Y-65668021D01*
X135427014Y-65705904D01*
X135268092Y-65768060D01*
X135072064Y-65843181D01*
X135000040Y-65870452D01*
X134808961Y-65946470D01*
X134656390Y-66014485D01*
X134566057Y-66063610D01*
X134552541Y-66075730D01*
X134486228Y-66108375D01*
X134365120Y-66123128D01*
X134355819Y-66123200D01*
X134181587Y-66161823D01*
X134035956Y-66261633D01*
X133944996Y-66398542D01*
X133928987Y-66517544D01*
X133955670Y-66614068D01*
X134027378Y-66657659D01*
X134122800Y-66670696D01*
X134279893Y-66664671D01*
X134471779Y-66633164D01*
X134554600Y-66612471D01*
X134701433Y-66565072D01*
X134891136Y-66496188D01*
X135099880Y-66415460D01*
X135303837Y-66332532D01*
X135479177Y-66257046D01*
X135602074Y-66198644D01*
X135646800Y-66170501D01*
X135702738Y-66136253D01*
X135825148Y-66074097D01*
X135987669Y-65997408D01*
X135989700Y-65996480D01*
X136148110Y-65919547D01*
X136261897Y-65855648D01*
X136307150Y-65818252D01*
X136307200Y-65817634D01*
X136350982Y-65769174D01*
X136457306Y-65717964D01*
X136588640Y-65678791D01*
X136692142Y-65666000D01*
X136826136Y-65712333D01*
X136974414Y-65843800D01*
X137077192Y-65949713D01*
X137157829Y-66013347D01*
X137179921Y-66021600D01*
X137243040Y-66051386D01*
X137359382Y-66128490D01*
X137504668Y-66234533D01*
X137654619Y-66351137D01*
X137784957Y-66459922D01*
X137871402Y-66542510D01*
X137877693Y-66549812D01*
X137963783Y-66610724D01*
X138108268Y-66675688D01*
X138199014Y-66706322D01*
X138405706Y-66780838D01*
X138620953Y-66877717D01*
X138687568Y-66912836D01*
X138990323Y-67028354D01*
X139171658Y-67049593D01*
X139334387Y-67044386D01*
G36*
X138186800Y-65996200D02*
X138161400Y-65970800D01*
X138136000Y-65996200D01*
X138161400Y-66021600D01*
X138186800Y-65996200D01*
X138186800Y-65996200D01*
G37*
X138186800Y-65996200D02*
X138161400Y-65970800D01*
X138136000Y-65996200D01*
X138161400Y-66021600D01*
X138186800Y-65996200D01*
G36*
X131638986Y-82016685D02*
X131996218Y-82011692D01*
X132299419Y-82002253D01*
X132533028Y-81988094D01*
X132629354Y-81977770D01*
X133120095Y-81897369D01*
X133542315Y-81800999D01*
X133885985Y-81691484D01*
X134141072Y-81571648D01*
X134194436Y-81537204D01*
X134299573Y-81480668D01*
X134362567Y-81464800D01*
X134460143Y-81440009D01*
X134621237Y-81373331D01*
X134822954Y-81276316D01*
X135042399Y-81160510D01*
X135256675Y-81037461D01*
X135436042Y-80923391D01*
X135619304Y-80784325D01*
X135789040Y-80631178D01*
X135907983Y-80497746D01*
X136012275Y-80370587D01*
X136108269Y-80280771D01*
X136144140Y-80259436D01*
X136217196Y-80211979D01*
X136327906Y-80119282D01*
X136451923Y-80004557D01*
X136564898Y-79891019D01*
X136642483Y-79801880D01*
X136662800Y-79764960D01*
X136690164Y-79711088D01*
X136760143Y-79604259D01*
X136815200Y-79526339D01*
X136903025Y-79393150D01*
X136958100Y-79286637D01*
X136967600Y-79251007D01*
X136999908Y-79160545D01*
X137031354Y-79118929D01*
X137137217Y-78986620D01*
X137261239Y-78801935D01*
X137382307Y-78599754D01*
X137479307Y-78414957D01*
X137525568Y-78302500D01*
X137574793Y-78181497D01*
X137623715Y-78115884D01*
X137634937Y-78112000D01*
X137661501Y-78080599D01*
X137653185Y-78060854D01*
X137658821Y-77989475D01*
X137713832Y-77880857D01*
X137726387Y-77862512D01*
X137796262Y-77755341D01*
X137830501Y-77685087D01*
X137831199Y-77680036D01*
X137850986Y-77614239D01*
X137899345Y-77500160D01*
X137906558Y-77484678D01*
X137950637Y-77364277D01*
X138005415Y-77176230D01*
X138061901Y-76952567D01*
X138086973Y-76842000D01*
X138139872Y-76605926D01*
X138192388Y-76383217D01*
X138236128Y-76209046D01*
X138250619Y-76156200D01*
X138270112Y-76033948D01*
X138285666Y-75827818D01*
X138297276Y-75555455D01*
X138304936Y-75234505D01*
X138308641Y-74882615D01*
X138308387Y-74517429D01*
X138304168Y-74156593D01*
X138295979Y-73817753D01*
X138283815Y-73518555D01*
X138267671Y-73276644D01*
X138251490Y-73133600D01*
X138218455Y-72914246D01*
X138177486Y-72637827D01*
X138135009Y-72347861D01*
X138112757Y-72194375D01*
X138053746Y-71827426D01*
X137994636Y-71550235D01*
X137932335Y-71351003D01*
X137863749Y-71217931D01*
X137852924Y-71203200D01*
X137796342Y-71113714D01*
X137720855Y-70974700D01*
X137641608Y-70816861D01*
X137573740Y-70670895D01*
X137532395Y-70567505D01*
X137526400Y-70541173D01*
X137499269Y-70478319D01*
X137429280Y-70362424D01*
X137361300Y-70261473D01*
X137259513Y-70113369D01*
X137176120Y-69987067D01*
X137143416Y-69934144D01*
X137071035Y-69821919D01*
X137034982Y-69773518D01*
X136985034Y-69676189D01*
X136944961Y-69543744D01*
X136899206Y-69423157D01*
X136836246Y-69354407D01*
X136834275Y-69353603D01*
X136782808Y-69305146D01*
X136786919Y-69277461D01*
X136775795Y-69211357D01*
X136711132Y-69109987D01*
X136617515Y-69003040D01*
X136519529Y-68920207D01*
X136470068Y-68894811D01*
X136384569Y-68835490D01*
X136291159Y-68727690D01*
X136281800Y-68714000D01*
X136189258Y-68602819D01*
X136098798Y-68535340D01*
X136090669Y-68532281D01*
X136006088Y-68473631D01*
X135907386Y-68363686D01*
X135883205Y-68329999D01*
X135704104Y-68127519D01*
X135447130Y-67938755D01*
X135164200Y-67784877D01*
X134978061Y-67676213D01*
X134798254Y-67543081D01*
X134732400Y-67483389D01*
X134553221Y-67324815D01*
X134330182Y-67157874D01*
X134084125Y-66994961D01*
X133835895Y-66848471D01*
X133606336Y-66730798D01*
X133416290Y-66654338D01*
X133298988Y-66630988D01*
X133188761Y-66608332D01*
X133033022Y-66550567D01*
X132933090Y-66503988D01*
X132772126Y-66432194D01*
X132631725Y-66386239D01*
X132573257Y-66377200D01*
X132469473Y-66362654D01*
X132428518Y-66342385D01*
X132362362Y-66302569D01*
X132241269Y-66246921D01*
X132204151Y-66231668D01*
X132090481Y-66207188D01*
X131889966Y-66186150D01*
X131617303Y-66168659D01*
X131287193Y-66154815D01*
X130914335Y-66144724D01*
X130513427Y-66138487D01*
X130099168Y-66136207D01*
X129686259Y-66137988D01*
X129289398Y-66143932D01*
X128923284Y-66154142D01*
X128602616Y-66168722D01*
X128342093Y-66187774D01*
X128204600Y-66203652D01*
X127759010Y-66268833D01*
X127403168Y-66323345D01*
X127126019Y-66369231D01*
X126916510Y-66408535D01*
X126763586Y-66443299D01*
X126656194Y-66475568D01*
X126595326Y-66501113D01*
X126460401Y-66553013D01*
X126273755Y-66606432D01*
X126137609Y-66637140D01*
X125947611Y-66688214D01*
X125779288Y-66756636D01*
X125697535Y-66806550D01*
X125584062Y-66891795D01*
X125422199Y-67005204D01*
X125267756Y-67108526D01*
X125013950Y-67293280D01*
X124722148Y-67536580D01*
X124413425Y-67817940D01*
X124108858Y-68116874D01*
X123829523Y-68412896D01*
X123596498Y-68685521D01*
X123467500Y-68858346D01*
X123363845Y-69013720D01*
X123287386Y-69135269D01*
X123252397Y-69200145D01*
X123251600Y-69203845D01*
X123221996Y-69255903D01*
X123145184Y-69360988D01*
X123059857Y-69468950D01*
X122932771Y-69638690D01*
X122817378Y-69815178D01*
X122767757Y-69903673D01*
X122671680Y-70091692D01*
X122608032Y-70206259D01*
X122564767Y-70265270D01*
X122529837Y-70286621D01*
X122508511Y-70288800D01*
X122461460Y-70333171D01*
X122425396Y-70441260D01*
X122423177Y-70453900D01*
X122385106Y-70646361D01*
X122334273Y-70849269D01*
X122280527Y-71027144D01*
X122233716Y-71144504D01*
X122229292Y-71152400D01*
X122156620Y-71282542D01*
X122098024Y-71411063D01*
X122052057Y-71550412D01*
X122017276Y-71713039D01*
X121992233Y-71911391D01*
X121975485Y-72157919D01*
X121965586Y-72465070D01*
X121961089Y-72845293D01*
X121960551Y-73311038D01*
X121960614Y-73336800D01*
X122389751Y-73336800D01*
X122393833Y-72835148D01*
X122404236Y-72426987D01*
X122421686Y-72104361D01*
X122446911Y-71859315D01*
X122480635Y-71683895D01*
X122523585Y-71570145D01*
X122554871Y-71527395D01*
X122586387Y-71450065D01*
X122591200Y-71400190D01*
X122618579Y-71303643D01*
X122687207Y-71170593D01*
X122718200Y-71122168D01*
X122796582Y-70989268D01*
X122841478Y-70879471D01*
X122845577Y-70853212D01*
X122870240Y-70775085D01*
X122935961Y-70634630D01*
X123030876Y-70456249D01*
X123082925Y-70365000D01*
X123204592Y-70154034D01*
X123321151Y-69947988D01*
X123412590Y-69782355D01*
X123433630Y-69743015D01*
X123544485Y-69555921D01*
X123683292Y-69355077D01*
X123835694Y-69157448D01*
X123987332Y-68979999D01*
X124123848Y-68839695D01*
X124230885Y-68753499D01*
X124286667Y-68735112D01*
X124315175Y-68733943D01*
X124304096Y-68726307D01*
X124311100Y-68679436D01*
X124372213Y-68583138D01*
X124431096Y-68509334D01*
X124553191Y-68363785D01*
X124665206Y-68226037D01*
X124699400Y-68182521D01*
X124809667Y-68065412D01*
X124967197Y-67928151D01*
X125142071Y-67793747D01*
X125304370Y-67685212D01*
X125423134Y-67625884D01*
X125526742Y-67567486D01*
X125652104Y-67463759D01*
X125694070Y-67421761D01*
X125889197Y-67264448D01*
X126163229Y-67112254D01*
X126493525Y-66973664D01*
X126857445Y-66857161D01*
X127232349Y-66771231D01*
X127544200Y-66728436D01*
X127796819Y-66706502D01*
X128017643Y-66688810D01*
X128221511Y-66674973D01*
X128423264Y-66664601D01*
X128637739Y-66657309D01*
X128879775Y-66652706D01*
X129164213Y-66650407D01*
X129505890Y-66650023D01*
X129919647Y-66651165D01*
X130414400Y-66653418D01*
X132217800Y-66662350D01*
X132573400Y-66802232D01*
X132899882Y-66933043D01*
X133148465Y-67039107D01*
X133337160Y-67129204D01*
X133483976Y-67212114D01*
X133606924Y-67296617D01*
X133640200Y-67322290D01*
X133810226Y-67445280D01*
X133991833Y-67560690D01*
X134046600Y-67591580D01*
X134345623Y-67758776D01*
X134572729Y-67902372D01*
X134750294Y-68036596D01*
X134762481Y-68046889D01*
X134896762Y-68155201D01*
X135021485Y-68246666D01*
X135036715Y-68256800D01*
X135175499Y-68360538D01*
X135358255Y-68516036D01*
X135567346Y-68706163D01*
X135785137Y-68913785D01*
X135993990Y-69121770D01*
X136176270Y-69312985D01*
X136314341Y-69470298D01*
X136384936Y-69566522D01*
X136457370Y-69672829D01*
X136513706Y-69727882D01*
X136521352Y-69730000D01*
X136560114Y-69768947D01*
X136561200Y-69780683D01*
X136588924Y-69846366D01*
X136660793Y-69964794D01*
X136739000Y-70078850D01*
X136834907Y-70225881D01*
X136899462Y-70350761D01*
X136916800Y-70411445D01*
X136939321Y-70485654D01*
X137001125Y-70630570D01*
X137093567Y-70827312D01*
X137208005Y-71056999D01*
X137246927Y-71132579D01*
X137371092Y-71382454D01*
X137478965Y-71619470D01*
X137560447Y-71819989D01*
X137605438Y-71960370D01*
X137609492Y-71981202D01*
X137641418Y-72138951D01*
X137680262Y-72265661D01*
X137689889Y-72287068D01*
X137723405Y-72395995D01*
X137760067Y-72589133D01*
X137798243Y-72849203D01*
X137836303Y-73158929D01*
X137872615Y-73501032D01*
X137905549Y-73858235D01*
X137933473Y-74213261D01*
X137954758Y-74548832D01*
X137967771Y-74847670D01*
X137970881Y-75092498D01*
X137966581Y-75218215D01*
X137873915Y-75907102D01*
X137688576Y-76602894D01*
X137429353Y-77256617D01*
X137352320Y-77431705D01*
X137296333Y-77576097D01*
X137272575Y-77660747D01*
X137272400Y-77664414D01*
X137244933Y-77756930D01*
X137196456Y-77842219D01*
X137142367Y-77939459D01*
X137066436Y-78101002D01*
X136982886Y-78296168D01*
X136961595Y-78348822D01*
X136875454Y-78556640D01*
X136793418Y-78728374D01*
X136702099Y-78882907D01*
X136588111Y-79039122D01*
X136438069Y-79215900D01*
X136238586Y-79432125D01*
X136062891Y-79616513D01*
X135931872Y-79766847D01*
X135829970Y-79909033D01*
X135780042Y-80010213D01*
X135718121Y-80120221D01*
X135646274Y-80144001D01*
X135549123Y-80179000D01*
X135431445Y-80266059D01*
X135400442Y-80296400D01*
X135289354Y-80392826D01*
X135191852Y-80445486D01*
X135171400Y-80448800D01*
X135099311Y-80474930D01*
X135088000Y-80501195D01*
X135046799Y-80560540D01*
X134999100Y-80586359D01*
X134918862Y-80632151D01*
X134791489Y-80719952D01*
X134647860Y-80826685D01*
X134518854Y-80929272D01*
X134435351Y-81004638D01*
X134427600Y-81013454D01*
X134364188Y-81050289D01*
X134275200Y-81082604D01*
X134133226Y-81131415D01*
X133995800Y-81186050D01*
X133887528Y-81220636D01*
X133704488Y-81266718D01*
X133472001Y-81318348D01*
X133215391Y-81369583D01*
X133208400Y-81370899D01*
X133026897Y-81403779D01*
X132860668Y-81430028D01*
X132695232Y-81450385D01*
X132516110Y-81465589D01*
X132308822Y-81476381D01*
X132058887Y-81483498D01*
X131751827Y-81487681D01*
X131373161Y-81489668D01*
X130908410Y-81490199D01*
X130871600Y-81490200D01*
X130376285Y-81489319D01*
X129968776Y-81486298D01*
X129635293Y-81480575D01*
X129362054Y-81471586D01*
X129135277Y-81458766D01*
X128941181Y-81441553D01*
X128765985Y-81419381D01*
X128636400Y-81398766D01*
X128343203Y-81349203D01*
X128019239Y-81295525D01*
X127719241Y-81246772D01*
X127620400Y-81231019D01*
X127023345Y-81115769D01*
X126522711Y-80974175D01*
X126401200Y-80930311D01*
X126241916Y-80875795D01*
X126097575Y-80835771D01*
X126090459Y-80834213D01*
X125976926Y-80790264D01*
X125821130Y-80706006D01*
X125697984Y-80627329D01*
X125553356Y-80533251D01*
X125438883Y-80468568D01*
X125386424Y-80448800D01*
X125336099Y-80411632D01*
X125334400Y-80399033D01*
X125292669Y-80348602D01*
X125189969Y-80279678D01*
X125060037Y-80210552D01*
X124936610Y-80159518D01*
X124864036Y-80144000D01*
X124799958Y-80103651D01*
X124714522Y-80001244D01*
X124671512Y-79934951D01*
X124580027Y-79790457D01*
X124496083Y-79672442D01*
X124470800Y-79641875D01*
X124403263Y-79564971D01*
X124291168Y-79434901D01*
X124155537Y-79276097D01*
X124115200Y-79228624D01*
X123985037Y-79075770D01*
X123880576Y-78954067D01*
X123818760Y-78883215D01*
X123810257Y-78874000D01*
X123727589Y-78767382D01*
X123627156Y-78605360D01*
X123530663Y-78426148D01*
X123459817Y-78267960D01*
X123449574Y-78239000D01*
X123393732Y-78091526D01*
X123337858Y-77977947D01*
X123325653Y-77959600D01*
X123269787Y-77861342D01*
X123209381Y-77722432D01*
X123203078Y-77705600D01*
X123142103Y-77552897D01*
X123060855Y-77365652D01*
X123018786Y-77273800D01*
X122931983Y-77067040D01*
X122849233Y-76835958D01*
X122819723Y-76740400D01*
X122764629Y-76550852D01*
X122694329Y-76312796D01*
X122623210Y-76074918D01*
X122617085Y-76054600D01*
X122548734Y-75796818D01*
X122494178Y-75515966D01*
X122452318Y-75198891D01*
X122422053Y-74832441D01*
X122402283Y-74403463D01*
X122391907Y-73898802D01*
X122389751Y-73336800D01*
X121960614Y-73336800D01*
X121960928Y-73463800D01*
X121966069Y-74082006D01*
X121977398Y-74619161D01*
X121994701Y-75071882D01*
X122017760Y-75436786D01*
X122046361Y-75710489D01*
X122080286Y-75889608D01*
X122119321Y-75970759D01*
X122120937Y-75971888D01*
X122161523Y-76042309D01*
X122208958Y-76194776D01*
X122258425Y-76410404D01*
X122305108Y-76670311D01*
X122314259Y-76729769D01*
X122350947Y-76883851D01*
X122420790Y-77104049D01*
X122513844Y-77364470D01*
X122620164Y-77639227D01*
X122729804Y-77902427D01*
X122832819Y-78128182D01*
X122903762Y-78264400D01*
X122963805Y-78379066D01*
X122981517Y-78416800D01*
X123027836Y-78498639D01*
X123044694Y-78518400D01*
X123091523Y-78578214D01*
X123134668Y-78645400D01*
X123332122Y-78971715D01*
X123485982Y-79218283D01*
X123602065Y-79394134D01*
X123686186Y-79508297D01*
X123703960Y-79529473D01*
X123778970Y-79634495D01*
X123810398Y-79716247D01*
X123810400Y-79716550D01*
X123852369Y-79783898D01*
X123904574Y-79811444D01*
X123990322Y-79874099D01*
X124077592Y-79988730D01*
X124088774Y-80008499D01*
X124191418Y-80141182D01*
X124319093Y-80237519D01*
X124328593Y-80241970D01*
X124452015Y-80324420D01*
X124530335Y-80422285D01*
X124610737Y-80524260D01*
X124734745Y-80615866D01*
X124742440Y-80619985D01*
X124869078Y-80694726D01*
X125036896Y-80804690D01*
X125182000Y-80906354D01*
X125335565Y-81009525D01*
X125465902Y-81082547D01*
X125542426Y-81109117D01*
X125636732Y-81144424D01*
X125711054Y-81205999D01*
X125805696Y-81268801D01*
X125968036Y-81312871D01*
X126163428Y-81338709D01*
X126381069Y-81366372D01*
X126589430Y-81403160D01*
X126731400Y-81437787D01*
X126920193Y-81494418D01*
X127126507Y-81551616D01*
X127375161Y-81615948D01*
X127690979Y-81693979D01*
X127798200Y-81719993D01*
X128047500Y-81780553D01*
X128302267Y-81842854D01*
X128516430Y-81895623D01*
X128560200Y-81906495D01*
X128703433Y-81929256D01*
X128932690Y-81950024D01*
X129232410Y-81968526D01*
X129587030Y-81984489D01*
X129980989Y-81997641D01*
X130398726Y-82007709D01*
X130824679Y-82014421D01*
X131243286Y-82017503D01*
X131638986Y-82016685D01*
X131638986Y-82016685D01*
G37*
X131638986Y-82016685D02*
X131996218Y-82011692D01*
X132299419Y-82002253D01*
X132533028Y-81988094D01*
X132629354Y-81977770D01*
X133120095Y-81897369D01*
X133542315Y-81800999D01*
X133885985Y-81691484D01*
X134141072Y-81571648D01*
X134194436Y-81537204D01*
X134299573Y-81480668D01*
X134362567Y-81464800D01*
X134460143Y-81440009D01*
X134621237Y-81373331D01*
X134822954Y-81276316D01*
X135042399Y-81160510D01*
X135256675Y-81037461D01*
X135436042Y-80923391D01*
X135619304Y-80784325D01*
X135789040Y-80631178D01*
X135907983Y-80497746D01*
X136012275Y-80370587D01*
X136108269Y-80280771D01*
X136144140Y-80259436D01*
X136217196Y-80211979D01*
X136327906Y-80119282D01*
X136451923Y-80004557D01*
X136564898Y-79891019D01*
X136642483Y-79801880D01*
X136662800Y-79764960D01*
X136690164Y-79711088D01*
X136760143Y-79604259D01*
X136815200Y-79526339D01*
X136903025Y-79393150D01*
X136958100Y-79286637D01*
X136967600Y-79251007D01*
X136999908Y-79160545D01*
X137031354Y-79118929D01*
X137137217Y-78986620D01*
X137261239Y-78801935D01*
X137382307Y-78599754D01*
X137479307Y-78414957D01*
X137525568Y-78302500D01*
X137574793Y-78181497D01*
X137623715Y-78115884D01*
X137634937Y-78112000D01*
X137661501Y-78080599D01*
X137653185Y-78060854D01*
X137658821Y-77989475D01*
X137713832Y-77880857D01*
X137726387Y-77862512D01*
X137796262Y-77755341D01*
X137830501Y-77685087D01*
X137831199Y-77680036D01*
X137850986Y-77614239D01*
X137899345Y-77500160D01*
X137906558Y-77484678D01*
X137950637Y-77364277D01*
X138005415Y-77176230D01*
X138061901Y-76952567D01*
X138086973Y-76842000D01*
X138139872Y-76605926D01*
X138192388Y-76383217D01*
X138236128Y-76209046D01*
X138250619Y-76156200D01*
X138270112Y-76033948D01*
X138285666Y-75827818D01*
X138297276Y-75555455D01*
X138304936Y-75234505D01*
X138308641Y-74882615D01*
X138308387Y-74517429D01*
X138304168Y-74156593D01*
X138295979Y-73817753D01*
X138283815Y-73518555D01*
X138267671Y-73276644D01*
X138251490Y-73133600D01*
X138218455Y-72914246D01*
X138177486Y-72637827D01*
X138135009Y-72347861D01*
X138112757Y-72194375D01*
X138053746Y-71827426D01*
X137994636Y-71550235D01*
X137932335Y-71351003D01*
X137863749Y-71217931D01*
X137852924Y-71203200D01*
X137796342Y-71113714D01*
X137720855Y-70974700D01*
X137641608Y-70816861D01*
X137573740Y-70670895D01*
X137532395Y-70567505D01*
X137526400Y-70541173D01*
X137499269Y-70478319D01*
X137429280Y-70362424D01*
X137361300Y-70261473D01*
X137259513Y-70113369D01*
X137176120Y-69987067D01*
X137143416Y-69934144D01*
X137071035Y-69821919D01*
X137034982Y-69773518D01*
X136985034Y-69676189D01*
X136944961Y-69543744D01*
X136899206Y-69423157D01*
X136836246Y-69354407D01*
X136834275Y-69353603D01*
X136782808Y-69305146D01*
X136786919Y-69277461D01*
X136775795Y-69211357D01*
X136711132Y-69109987D01*
X136617515Y-69003040D01*
X136519529Y-68920207D01*
X136470068Y-68894811D01*
X136384569Y-68835490D01*
X136291159Y-68727690D01*
X136281800Y-68714000D01*
X136189258Y-68602819D01*
X136098798Y-68535340D01*
X136090669Y-68532281D01*
X136006088Y-68473631D01*
X135907386Y-68363686D01*
X135883205Y-68329999D01*
X135704104Y-68127519D01*
X135447130Y-67938755D01*
X135164200Y-67784877D01*
X134978061Y-67676213D01*
X134798254Y-67543081D01*
X134732400Y-67483389D01*
X134553221Y-67324815D01*
X134330182Y-67157874D01*
X134084125Y-66994961D01*
X133835895Y-66848471D01*
X133606336Y-66730798D01*
X133416290Y-66654338D01*
X133298988Y-66630988D01*
X133188761Y-66608332D01*
X133033022Y-66550567D01*
X132933090Y-66503988D01*
X132772126Y-66432194D01*
X132631725Y-66386239D01*
X132573257Y-66377200D01*
X132469473Y-66362654D01*
X132428518Y-66342385D01*
X132362362Y-66302569D01*
X132241269Y-66246921D01*
X132204151Y-66231668D01*
X132090481Y-66207188D01*
X131889966Y-66186150D01*
X131617303Y-66168659D01*
X131287193Y-66154815D01*
X130914335Y-66144724D01*
X130513427Y-66138487D01*
X130099168Y-66136207D01*
X129686259Y-66137988D01*
X129289398Y-66143932D01*
X128923284Y-66154142D01*
X128602616Y-66168722D01*
X128342093Y-66187774D01*
X128204600Y-66203652D01*
X127759010Y-66268833D01*
X127403168Y-66323345D01*
X127126019Y-66369231D01*
X126916510Y-66408535D01*
X126763586Y-66443299D01*
X126656194Y-66475568D01*
X126595326Y-66501113D01*
X126460401Y-66553013D01*
X126273755Y-66606432D01*
X126137609Y-66637140D01*
X125947611Y-66688214D01*
X125779288Y-66756636D01*
X125697535Y-66806550D01*
X125584062Y-66891795D01*
X125422199Y-67005204D01*
X125267756Y-67108526D01*
X125013950Y-67293280D01*
X124722148Y-67536580D01*
X124413425Y-67817940D01*
X124108858Y-68116874D01*
X123829523Y-68412896D01*
X123596498Y-68685521D01*
X123467500Y-68858346D01*
X123363845Y-69013720D01*
X123287386Y-69135269D01*
X123252397Y-69200145D01*
X123251600Y-69203845D01*
X123221996Y-69255903D01*
X123145184Y-69360988D01*
X123059857Y-69468950D01*
X122932771Y-69638690D01*
X122817378Y-69815178D01*
X122767757Y-69903673D01*
X122671680Y-70091692D01*
X122608032Y-70206259D01*
X122564767Y-70265270D01*
X122529837Y-70286621D01*
X122508511Y-70288800D01*
X122461460Y-70333171D01*
X122425396Y-70441260D01*
X122423177Y-70453900D01*
X122385106Y-70646361D01*
X122334273Y-70849269D01*
X122280527Y-71027144D01*
X122233716Y-71144504D01*
X122229292Y-71152400D01*
X122156620Y-71282542D01*
X122098024Y-71411063D01*
X122052057Y-71550412D01*
X122017276Y-71713039D01*
X121992233Y-71911391D01*
X121975485Y-72157919D01*
X121965586Y-72465070D01*
X121961089Y-72845293D01*
X121960551Y-73311038D01*
X121960614Y-73336800D01*
X122389751Y-73336800D01*
X122393833Y-72835148D01*
X122404236Y-72426987D01*
X122421686Y-72104361D01*
X122446911Y-71859315D01*
X122480635Y-71683895D01*
X122523585Y-71570145D01*
X122554871Y-71527395D01*
X122586387Y-71450065D01*
X122591200Y-71400190D01*
X122618579Y-71303643D01*
X122687207Y-71170593D01*
X122718200Y-71122168D01*
X122796582Y-70989268D01*
X122841478Y-70879471D01*
X122845577Y-70853212D01*
X122870240Y-70775085D01*
X122935961Y-70634630D01*
X123030876Y-70456249D01*
X123082925Y-70365000D01*
X123204592Y-70154034D01*
X123321151Y-69947988D01*
X123412590Y-69782355D01*
X123433630Y-69743015D01*
X123544485Y-69555921D01*
X123683292Y-69355077D01*
X123835694Y-69157448D01*
X123987332Y-68979999D01*
X124123848Y-68839695D01*
X124230885Y-68753499D01*
X124286667Y-68735112D01*
X124315175Y-68733943D01*
X124304096Y-68726307D01*
X124311100Y-68679436D01*
X124372213Y-68583138D01*
X124431096Y-68509334D01*
X124553191Y-68363785D01*
X124665206Y-68226037D01*
X124699400Y-68182521D01*
X124809667Y-68065412D01*
X124967197Y-67928151D01*
X125142071Y-67793747D01*
X125304370Y-67685212D01*
X125423134Y-67625884D01*
X125526742Y-67567486D01*
X125652104Y-67463759D01*
X125694070Y-67421761D01*
X125889197Y-67264448D01*
X126163229Y-67112254D01*
X126493525Y-66973664D01*
X126857445Y-66857161D01*
X127232349Y-66771231D01*
X127544200Y-66728436D01*
X127796819Y-66706502D01*
X128017643Y-66688810D01*
X128221511Y-66674973D01*
X128423264Y-66664601D01*
X128637739Y-66657309D01*
X128879775Y-66652706D01*
X129164213Y-66650407D01*
X129505890Y-66650023D01*
X129919647Y-66651165D01*
X130414400Y-66653418D01*
X132217800Y-66662350D01*
X132573400Y-66802232D01*
X132899882Y-66933043D01*
X133148465Y-67039107D01*
X133337160Y-67129204D01*
X133483976Y-67212114D01*
X133606924Y-67296617D01*
X133640200Y-67322290D01*
X133810226Y-67445280D01*
X133991833Y-67560690D01*
X134046600Y-67591580D01*
X134345623Y-67758776D01*
X134572729Y-67902372D01*
X134750294Y-68036596D01*
X134762481Y-68046889D01*
X134896762Y-68155201D01*
X135021485Y-68246666D01*
X135036715Y-68256800D01*
X135175499Y-68360538D01*
X135358255Y-68516036D01*
X135567346Y-68706163D01*
X135785137Y-68913785D01*
X135993990Y-69121770D01*
X136176270Y-69312985D01*
X136314341Y-69470298D01*
X136384936Y-69566522D01*
X136457370Y-69672829D01*
X136513706Y-69727882D01*
X136521352Y-69730000D01*
X136560114Y-69768947D01*
X136561200Y-69780683D01*
X136588924Y-69846366D01*
X136660793Y-69964794D01*
X136739000Y-70078850D01*
X136834907Y-70225881D01*
X136899462Y-70350761D01*
X136916800Y-70411445D01*
X136939321Y-70485654D01*
X137001125Y-70630570D01*
X137093567Y-70827312D01*
X137208005Y-71056999D01*
X137246927Y-71132579D01*
X137371092Y-71382454D01*
X137478965Y-71619470D01*
X137560447Y-71819989D01*
X137605438Y-71960370D01*
X137609492Y-71981202D01*
X137641418Y-72138951D01*
X137680262Y-72265661D01*
X137689889Y-72287068D01*
X137723405Y-72395995D01*
X137760067Y-72589133D01*
X137798243Y-72849203D01*
X137836303Y-73158929D01*
X137872615Y-73501032D01*
X137905549Y-73858235D01*
X137933473Y-74213261D01*
X137954758Y-74548832D01*
X137967771Y-74847670D01*
X137970881Y-75092498D01*
X137966581Y-75218215D01*
X137873915Y-75907102D01*
X137688576Y-76602894D01*
X137429353Y-77256617D01*
X137352320Y-77431705D01*
X137296333Y-77576097D01*
X137272575Y-77660747D01*
X137272400Y-77664414D01*
X137244933Y-77756930D01*
X137196456Y-77842219D01*
X137142367Y-77939459D01*
X137066436Y-78101002D01*
X136982886Y-78296168D01*
X136961595Y-78348822D01*
X136875454Y-78556640D01*
X136793418Y-78728374D01*
X136702099Y-78882907D01*
X136588111Y-79039122D01*
X136438069Y-79215900D01*
X136238586Y-79432125D01*
X136062891Y-79616513D01*
X135931872Y-79766847D01*
X135829970Y-79909033D01*
X135780042Y-80010213D01*
X135718121Y-80120221D01*
X135646274Y-80144001D01*
X135549123Y-80179000D01*
X135431445Y-80266059D01*
X135400442Y-80296400D01*
X135289354Y-80392826D01*
X135191852Y-80445486D01*
X135171400Y-80448800D01*
X135099311Y-80474930D01*
X135088000Y-80501195D01*
X135046799Y-80560540D01*
X134999100Y-80586359D01*
X134918862Y-80632151D01*
X134791489Y-80719952D01*
X134647860Y-80826685D01*
X134518854Y-80929272D01*
X134435351Y-81004638D01*
X134427600Y-81013454D01*
X134364188Y-81050289D01*
X134275200Y-81082604D01*
X134133226Y-81131415D01*
X133995800Y-81186050D01*
X133887528Y-81220636D01*
X133704488Y-81266718D01*
X133472001Y-81318348D01*
X133215391Y-81369583D01*
X133208400Y-81370899D01*
X133026897Y-81403779D01*
X132860668Y-81430028D01*
X132695232Y-81450385D01*
X132516110Y-81465589D01*
X132308822Y-81476381D01*
X132058887Y-81483498D01*
X131751827Y-81487681D01*
X131373161Y-81489668D01*
X130908410Y-81490199D01*
X130871600Y-81490200D01*
X130376285Y-81489319D01*
X129968776Y-81486298D01*
X129635293Y-81480575D01*
X129362054Y-81471586D01*
X129135277Y-81458766D01*
X128941181Y-81441553D01*
X128765985Y-81419381D01*
X128636400Y-81398766D01*
X128343203Y-81349203D01*
X128019239Y-81295525D01*
X127719241Y-81246772D01*
X127620400Y-81231019D01*
X127023345Y-81115769D01*
X126522711Y-80974175D01*
X126401200Y-80930311D01*
X126241916Y-80875795D01*
X126097575Y-80835771D01*
X126090459Y-80834213D01*
X125976926Y-80790264D01*
X125821130Y-80706006D01*
X125697984Y-80627329D01*
X125553356Y-80533251D01*
X125438883Y-80468568D01*
X125386424Y-80448800D01*
X125336099Y-80411632D01*
X125334400Y-80399033D01*
X125292669Y-80348602D01*
X125189969Y-80279678D01*
X125060037Y-80210552D01*
X124936610Y-80159518D01*
X124864036Y-80144000D01*
X124799958Y-80103651D01*
X124714522Y-80001244D01*
X124671512Y-79934951D01*
X124580027Y-79790457D01*
X124496083Y-79672442D01*
X124470800Y-79641875D01*
X124403263Y-79564971D01*
X124291168Y-79434901D01*
X124155537Y-79276097D01*
X124115200Y-79228624D01*
X123985037Y-79075770D01*
X123880576Y-78954067D01*
X123818760Y-78883215D01*
X123810257Y-78874000D01*
X123727589Y-78767382D01*
X123627156Y-78605360D01*
X123530663Y-78426148D01*
X123459817Y-78267960D01*
X123449574Y-78239000D01*
X123393732Y-78091526D01*
X123337858Y-77977947D01*
X123325653Y-77959600D01*
X123269787Y-77861342D01*
X123209381Y-77722432D01*
X123203078Y-77705600D01*
X123142103Y-77552897D01*
X123060855Y-77365652D01*
X123018786Y-77273800D01*
X122931983Y-77067040D01*
X122849233Y-76835958D01*
X122819723Y-76740400D01*
X122764629Y-76550852D01*
X122694329Y-76312796D01*
X122623210Y-76074918D01*
X122617085Y-76054600D01*
X122548734Y-75796818D01*
X122494178Y-75515966D01*
X122452318Y-75198891D01*
X122422053Y-74832441D01*
X122402283Y-74403463D01*
X122391907Y-73898802D01*
X122389751Y-73336800D01*
X121960614Y-73336800D01*
X121960928Y-73463800D01*
X121966069Y-74082006D01*
X121977398Y-74619161D01*
X121994701Y-75071882D01*
X122017760Y-75436786D01*
X122046361Y-75710489D01*
X122080286Y-75889608D01*
X122119321Y-75970759D01*
X122120937Y-75971888D01*
X122161523Y-76042309D01*
X122208958Y-76194776D01*
X122258425Y-76410404D01*
X122305108Y-76670311D01*
X122314259Y-76729769D01*
X122350947Y-76883851D01*
X122420790Y-77104049D01*
X122513844Y-77364470D01*
X122620164Y-77639227D01*
X122729804Y-77902427D01*
X122832819Y-78128182D01*
X122903762Y-78264400D01*
X122963805Y-78379066D01*
X122981517Y-78416800D01*
X123027836Y-78498639D01*
X123044694Y-78518400D01*
X123091523Y-78578214D01*
X123134668Y-78645400D01*
X123332122Y-78971715D01*
X123485982Y-79218283D01*
X123602065Y-79394134D01*
X123686186Y-79508297D01*
X123703960Y-79529473D01*
X123778970Y-79634495D01*
X123810398Y-79716247D01*
X123810400Y-79716550D01*
X123852369Y-79783898D01*
X123904574Y-79811444D01*
X123990322Y-79874099D01*
X124077592Y-79988730D01*
X124088774Y-80008499D01*
X124191418Y-80141182D01*
X124319093Y-80237519D01*
X124328593Y-80241970D01*
X124452015Y-80324420D01*
X124530335Y-80422285D01*
X124610737Y-80524260D01*
X124734745Y-80615866D01*
X124742440Y-80619985D01*
X124869078Y-80694726D01*
X125036896Y-80804690D01*
X125182000Y-80906354D01*
X125335565Y-81009525D01*
X125465902Y-81082547D01*
X125542426Y-81109117D01*
X125636732Y-81144424D01*
X125711054Y-81205999D01*
X125805696Y-81268801D01*
X125968036Y-81312871D01*
X126163428Y-81338709D01*
X126381069Y-81366372D01*
X126589430Y-81403160D01*
X126731400Y-81437787D01*
X126920193Y-81494418D01*
X127126507Y-81551616D01*
X127375161Y-81615948D01*
X127690979Y-81693979D01*
X127798200Y-81719993D01*
X128047500Y-81780553D01*
X128302267Y-81842854D01*
X128516430Y-81895623D01*
X128560200Y-81906495D01*
X128703433Y-81929256D01*
X128932690Y-81950024D01*
X129232410Y-81968526D01*
X129587030Y-81984489D01*
X129980989Y-81997641D01*
X130398726Y-82007709D01*
X130824679Y-82014421D01*
X131243286Y-82017503D01*
X131638986Y-82016685D01*
G36*
X125639600Y-71717432D02*
X125724058Y-71602833D01*
X125800113Y-71446866D01*
X125851497Y-71278190D01*
X125857797Y-71242733D01*
X125904461Y-71088249D01*
X125990662Y-70909887D01*
X126042173Y-70827181D01*
X126130029Y-70686299D01*
X126186540Y-70570360D01*
X126198000Y-70525463D01*
X126234251Y-70446388D01*
X126324029Y-70345321D01*
X126350400Y-70321996D01*
X126448109Y-70227921D01*
X126500166Y-70154693D01*
X126502800Y-70143103D01*
X126544695Y-70088459D01*
X126601602Y-70061088D01*
X126681633Y-70002261D01*
X126783356Y-69883870D01*
X126853608Y-69780743D01*
X126965229Y-69624292D01*
X127084802Y-69493894D01*
X127148505Y-69442949D01*
X127276258Y-69354548D01*
X127372869Y-69275372D01*
X127562529Y-69110973D01*
X127717966Y-69015621D01*
X127780069Y-68991920D01*
X127919489Y-68941319D01*
X128121169Y-68858856D01*
X128355841Y-68756771D01*
X128509400Y-68686988D01*
X128828611Y-68571998D01*
X129223484Y-68480965D01*
X129670675Y-68415020D01*
X130146845Y-68375293D01*
X130628651Y-68362914D01*
X131092752Y-68379014D01*
X131515806Y-68424724D01*
X131874471Y-68501174D01*
X131938400Y-68520902D01*
X132152840Y-68600638D01*
X132356488Y-68691689D01*
X132507047Y-68775051D01*
X132513009Y-68779077D01*
X132676646Y-68869735D01*
X132881014Y-68954882D01*
X132995609Y-68991691D01*
X133170552Y-69044694D01*
X133316365Y-69096961D01*
X133379935Y-69125842D01*
X133489910Y-69146926D01*
X133569232Y-69087021D01*
X133601136Y-68965784D01*
X133591820Y-68877421D01*
X133554086Y-68780590D01*
X133474560Y-68702091D01*
X133329268Y-68620764D01*
X133269050Y-68592550D01*
X133066565Y-68495221D01*
X132832417Y-68375832D01*
X132651900Y-68279109D01*
X132437268Y-68174873D01*
X132176461Y-68068617D01*
X131922194Y-67981633D01*
X131896917Y-67974164D01*
X131732707Y-67929110D01*
X131584530Y-67896662D01*
X131430927Y-67874943D01*
X131250436Y-67862078D01*
X131021598Y-67856192D01*
X130722953Y-67855408D01*
X130548417Y-67856293D01*
X130246240Y-67859384D01*
X129974126Y-67864340D01*
X129750477Y-67870653D01*
X129593696Y-67877816D01*
X129525400Y-67884477D01*
X129117231Y-67977489D01*
X128787487Y-68061872D01*
X128514247Y-68144922D01*
X128275591Y-68233931D01*
X128049597Y-68336196D01*
X127838424Y-68445863D01*
X127622033Y-68566802D01*
X127431049Y-68679498D01*
X127288007Y-68770288D01*
X127220453Y-68820491D01*
X127095137Y-68905195D01*
X126998769Y-68943784D01*
X126884748Y-69008847D01*
X126795826Y-69110939D01*
X126728603Y-69201124D01*
X126607149Y-69342677D01*
X126449351Y-69515399D01*
X126291486Y-69680355D01*
X126039255Y-69945024D01*
X125859205Y-70150643D01*
X125746058Y-70303911D01*
X125694536Y-70411526D01*
X125690000Y-70443755D01*
X125668758Y-70513773D01*
X125612465Y-70648085D01*
X125532267Y-70820495D01*
X125512200Y-70861593D01*
X125389801Y-71153484D01*
X125331183Y-71397056D01*
X125335910Y-71584599D01*
X125403547Y-71708404D01*
X125533660Y-71760759D01*
X125563011Y-71762000D01*
X125639600Y-71717432D01*
X125639600Y-71717432D01*
G37*
X125639600Y-71717432D02*
X125724058Y-71602833D01*
X125800113Y-71446866D01*
X125851497Y-71278190D01*
X125857797Y-71242733D01*
X125904461Y-71088249D01*
X125990662Y-70909887D01*
X126042173Y-70827181D01*
X126130029Y-70686299D01*
X126186540Y-70570360D01*
X126198000Y-70525463D01*
X126234251Y-70446388D01*
X126324029Y-70345321D01*
X126350400Y-70321996D01*
X126448109Y-70227921D01*
X126500166Y-70154693D01*
X126502800Y-70143103D01*
X126544695Y-70088459D01*
X126601602Y-70061088D01*
X126681633Y-70002261D01*
X126783356Y-69883870D01*
X126853608Y-69780743D01*
X126965229Y-69624292D01*
X127084802Y-69493894D01*
X127148505Y-69442949D01*
X127276258Y-69354548D01*
X127372869Y-69275372D01*
X127562529Y-69110973D01*
X127717966Y-69015621D01*
X127780069Y-68991920D01*
X127919489Y-68941319D01*
X128121169Y-68858856D01*
X128355841Y-68756771D01*
X128509400Y-68686988D01*
X128828611Y-68571998D01*
X129223484Y-68480965D01*
X129670675Y-68415020D01*
X130146845Y-68375293D01*
X130628651Y-68362914D01*
X131092752Y-68379014D01*
X131515806Y-68424724D01*
X131874471Y-68501174D01*
X131938400Y-68520902D01*
X132152840Y-68600638D01*
X132356488Y-68691689D01*
X132507047Y-68775051D01*
X132513009Y-68779077D01*
X132676646Y-68869735D01*
X132881014Y-68954882D01*
X132995609Y-68991691D01*
X133170552Y-69044694D01*
X133316365Y-69096961D01*
X133379935Y-69125842D01*
X133489910Y-69146926D01*
X133569232Y-69087021D01*
X133601136Y-68965784D01*
X133591820Y-68877421D01*
X133554086Y-68780590D01*
X133474560Y-68702091D01*
X133329268Y-68620764D01*
X133269050Y-68592550D01*
X133066565Y-68495221D01*
X132832417Y-68375832D01*
X132651900Y-68279109D01*
X132437268Y-68174873D01*
X132176461Y-68068617D01*
X131922194Y-67981633D01*
X131896917Y-67974164D01*
X131732707Y-67929110D01*
X131584530Y-67896662D01*
X131430927Y-67874943D01*
X131250436Y-67862078D01*
X131021598Y-67856192D01*
X130722953Y-67855408D01*
X130548417Y-67856293D01*
X130246240Y-67859384D01*
X129974126Y-67864340D01*
X129750477Y-67870653D01*
X129593696Y-67877816D01*
X129525400Y-67884477D01*
X129117231Y-67977489D01*
X128787487Y-68061872D01*
X128514247Y-68144922D01*
X128275591Y-68233931D01*
X128049597Y-68336196D01*
X127838424Y-68445863D01*
X127622033Y-68566802D01*
X127431049Y-68679498D01*
X127288007Y-68770288D01*
X127220453Y-68820491D01*
X127095137Y-68905195D01*
X126998769Y-68943784D01*
X126884748Y-69008847D01*
X126795826Y-69110939D01*
X126728603Y-69201124D01*
X126607149Y-69342677D01*
X126449351Y-69515399D01*
X126291486Y-69680355D01*
X126039255Y-69945024D01*
X125859205Y-70150643D01*
X125746058Y-70303911D01*
X125694536Y-70411526D01*
X125690000Y-70443755D01*
X125668758Y-70513773D01*
X125612465Y-70648085D01*
X125532267Y-70820495D01*
X125512200Y-70861593D01*
X125389801Y-71153484D01*
X125331183Y-71397056D01*
X125335910Y-71584599D01*
X125403547Y-71708404D01*
X125533660Y-71760759D01*
X125563011Y-71762000D01*
X125639600Y-71717432D01*
G36*
X133696189Y-76350455D02*
X133908152Y-76284187D01*
X133949606Y-76267235D01*
X134152532Y-76167474D01*
X134291633Y-76054300D01*
X134378710Y-75906613D01*
X134425564Y-75703311D01*
X134443996Y-75423296D01*
X134444893Y-75381643D01*
X134445959Y-75158980D01*
X134435807Y-75009338D01*
X134409107Y-74904306D01*
X134360527Y-74815475D01*
X134330924Y-74774305D01*
X134137728Y-74600298D01*
X133873625Y-74495688D01*
X133542623Y-74461238D01*
X133148727Y-74497711D01*
X133014180Y-74523601D01*
X132810762Y-74586826D01*
X132694829Y-74668758D01*
X132685301Y-74683000D01*
X132659070Y-74778163D01*
X132638725Y-74946905D01*
X132627128Y-75161254D01*
X132625521Y-75267200D01*
X132635001Y-75580468D01*
X132670844Y-75812290D01*
X132741198Y-75981174D01*
X132854213Y-76105630D01*
X133018035Y-76204165D01*
X133043175Y-76215893D01*
X133297604Y-76318228D01*
X133503974Y-76362442D01*
X133696189Y-76350455D01*
X133696189Y-76350455D01*
G37*
X133696189Y-76350455D02*
X133908152Y-76284187D01*
X133949606Y-76267235D01*
X134152532Y-76167474D01*
X134291633Y-76054300D01*
X134378710Y-75906613D01*
X134425564Y-75703311D01*
X134443996Y-75423296D01*
X134444893Y-75381643D01*
X134445959Y-75158980D01*
X134435807Y-75009338D01*
X134409107Y-74904306D01*
X134360527Y-74815475D01*
X134330924Y-74774305D01*
X134137728Y-74600298D01*
X133873625Y-74495688D01*
X133542623Y-74461238D01*
X133148727Y-74497711D01*
X133014180Y-74523601D01*
X132810762Y-74586826D01*
X132694829Y-74668758D01*
X132685301Y-74683000D01*
X132659070Y-74778163D01*
X132638725Y-74946905D01*
X132627128Y-75161254D01*
X132625521Y-75267200D01*
X132635001Y-75580468D01*
X132670844Y-75812290D01*
X132741198Y-75981174D01*
X132854213Y-76105630D01*
X133018035Y-76204165D01*
X133043175Y-76215893D01*
X133297604Y-76318228D01*
X133503974Y-76362442D01*
X133696189Y-76350455D01*
G36*
X127667567Y-76971329D02*
X127881964Y-76911769D01*
X127947018Y-76890196D01*
X128199080Y-76776760D01*
X128364298Y-76627329D01*
X128455111Y-76424475D01*
X128483958Y-76150767D01*
X128484000Y-76137834D01*
X128449373Y-75807307D01*
X128350568Y-75523912D01*
X128195194Y-75303298D01*
X128014126Y-75171761D01*
X127851963Y-75102551D01*
X127715137Y-75076154D01*
X127552196Y-75085614D01*
X127468000Y-75097908D01*
X127346483Y-75130663D01*
X127183336Y-75190797D01*
X127103251Y-75225011D01*
X126952058Y-75304539D01*
X126863422Y-75393806D01*
X126802368Y-75531015D01*
X126790787Y-75566321D01*
X126754069Y-75706561D01*
X126741170Y-75844539D01*
X126751397Y-76015764D01*
X126778080Y-76216162D01*
X126818833Y-76455220D01*
X126865820Y-76617843D01*
X126933946Y-76728823D01*
X127038116Y-76812955D01*
X127183349Y-76890259D01*
X127352406Y-76960572D01*
X127502430Y-76987596D01*
X127667567Y-76971329D01*
X127667567Y-76971329D01*
G37*
X127667567Y-76971329D02*
X127881964Y-76911769D01*
X127947018Y-76890196D01*
X128199080Y-76776760D01*
X128364298Y-76627329D01*
X128455111Y-76424475D01*
X128483958Y-76150767D01*
X128484000Y-76137834D01*
X128449373Y-75807307D01*
X128350568Y-75523912D01*
X128195194Y-75303298D01*
X128014126Y-75171761D01*
X127851963Y-75102551D01*
X127715137Y-75076154D01*
X127552196Y-75085614D01*
X127468000Y-75097908D01*
X127346483Y-75130663D01*
X127183336Y-75190797D01*
X127103251Y-75225011D01*
X126952058Y-75304539D01*
X126863422Y-75393806D01*
X126802368Y-75531015D01*
X126790787Y-75566321D01*
X126754069Y-75706561D01*
X126741170Y-75844539D01*
X126751397Y-76015764D01*
X126778080Y-76216162D01*
X126818833Y-76455220D01*
X126865820Y-76617843D01*
X126933946Y-76728823D01*
X127038116Y-76812955D01*
X127183349Y-76890259D01*
X127352406Y-76960572D01*
X127502430Y-76987596D01*
X127667567Y-76971329D01*
D11*
X108666666Y-77857143D02*
X108714285Y-77904762D01*
X108857142Y-77952381D01*
X108952380Y-77952381D01*
X109095238Y-77904762D01*
X109190476Y-77809524D01*
X109238095Y-77714286D01*
X109285714Y-77523810D01*
X109285714Y-77380952D01*
X109238095Y-77190476D01*
X109190476Y-77095238D01*
X109095238Y-77000000D01*
X108952380Y-76952381D01*
X108857142Y-76952381D01*
X108714285Y-77000000D01*
X108666666Y-77047619D01*
X107714285Y-77952381D02*
X108285714Y-77952381D01*
X108000000Y-77952381D02*
X108000000Y-76952381D01*
X108095238Y-77095238D01*
X108190476Y-77190476D01*
X108285714Y-77238095D01*
X120666666Y-96857143D02*
X120714285Y-96904762D01*
X120857142Y-96952381D01*
X120952380Y-96952381D01*
X121095238Y-96904762D01*
X121190476Y-96809524D01*
X121238095Y-96714286D01*
X121285714Y-96523810D01*
X121285714Y-96380952D01*
X121238095Y-96190476D01*
X121190476Y-96095238D01*
X121095238Y-96000000D01*
X120952380Y-95952381D01*
X120857142Y-95952381D01*
X120714285Y-96000000D01*
X120666666Y-96047619D01*
X120285714Y-96047619D02*
X120238095Y-96000000D01*
X120142857Y-95952381D01*
X119904761Y-95952381D01*
X119809523Y-96000000D01*
X119761904Y-96047619D01*
X119714285Y-96142857D01*
X119714285Y-96238095D01*
X119761904Y-96380952D01*
X120333333Y-96952381D01*
X119714285Y-96952381D01*
X105357143Y-86333334D02*
X105404762Y-86285715D01*
X105452381Y-86142858D01*
X105452381Y-86047620D01*
X105404762Y-85904762D01*
X105309524Y-85809524D01*
X105214286Y-85761905D01*
X105023810Y-85714286D01*
X104880952Y-85714286D01*
X104690476Y-85761905D01*
X104595238Y-85809524D01*
X104500000Y-85904762D01*
X104452381Y-86047620D01*
X104452381Y-86142858D01*
X104500000Y-86285715D01*
X104547619Y-86333334D01*
X104452381Y-86666667D02*
X104452381Y-87285715D01*
X104833333Y-86952381D01*
X104833333Y-87095239D01*
X104880952Y-87190477D01*
X104928571Y-87238096D01*
X105023810Y-87285715D01*
X105261905Y-87285715D01*
X105357143Y-87238096D01*
X105404762Y-87190477D01*
X105452381Y-87095239D01*
X105452381Y-86809524D01*
X105404762Y-86714286D01*
X105357143Y-86666667D01*
X129357143Y-90333334D02*
X129404762Y-90285715D01*
X129452381Y-90142858D01*
X129452381Y-90047620D01*
X129404762Y-89904762D01*
X129309524Y-89809524D01*
X129214286Y-89761905D01*
X129023810Y-89714286D01*
X128880952Y-89714286D01*
X128690476Y-89761905D01*
X128595238Y-89809524D01*
X128500000Y-89904762D01*
X128452381Y-90047620D01*
X128452381Y-90142858D01*
X128500000Y-90285715D01*
X128547619Y-90333334D01*
X128785714Y-91190477D02*
X129452381Y-91190477D01*
X128404762Y-90952381D02*
X129119048Y-90714286D01*
X129119048Y-91333334D01*
X67988095Y-92452381D02*
X67988095Y-91452381D01*
X67750000Y-91452381D01*
X67607142Y-91500000D01*
X67511904Y-91595238D01*
X67464285Y-91690476D01*
X67416666Y-91880952D01*
X67416666Y-92023810D01*
X67464285Y-92214286D01*
X67511904Y-92309524D01*
X67607142Y-92404762D01*
X67750000Y-92452381D01*
X67988095Y-92452381D01*
X67035714Y-91547619D02*
X66988095Y-91500000D01*
X66892857Y-91452381D01*
X66654761Y-91452381D01*
X66559523Y-91500000D01*
X66511904Y-91547619D01*
X66464285Y-91642857D01*
X66464285Y-91738095D01*
X66511904Y-91880952D01*
X67083333Y-92452381D01*
X66464285Y-92452381D01*
X67988095Y-95452381D02*
X67988095Y-94452381D01*
X67750000Y-94452381D01*
X67607142Y-94500000D01*
X67511904Y-94595238D01*
X67464285Y-94690476D01*
X67416666Y-94880952D01*
X67416666Y-95023810D01*
X67464285Y-95214286D01*
X67511904Y-95309524D01*
X67607142Y-95404762D01*
X67750000Y-95452381D01*
X67988095Y-95452381D01*
X67083333Y-94452381D02*
X66464285Y-94452381D01*
X66797619Y-94833333D01*
X66654761Y-94833333D01*
X66559523Y-94880952D01*
X66511904Y-94928571D01*
X66464285Y-95023810D01*
X66464285Y-95261905D01*
X66511904Y-95357143D01*
X66559523Y-95404762D01*
X66654761Y-95452381D01*
X66940476Y-95452381D01*
X67035714Y-95404762D01*
X67083333Y-95357143D01*
X101238095Y-91452381D02*
X101238095Y-90452381D01*
X101000000Y-90452381D01*
X100857142Y-90500000D01*
X100761904Y-90595238D01*
X100714285Y-90690476D01*
X100666666Y-90880952D01*
X100666666Y-91023810D01*
X100714285Y-91214286D01*
X100761904Y-91309524D01*
X100857142Y-91404762D01*
X101000000Y-91452381D01*
X101238095Y-91452381D01*
X99761904Y-90452381D02*
X100238095Y-90452381D01*
X100285714Y-90928571D01*
X100238095Y-90880952D01*
X100142857Y-90833333D01*
X99904761Y-90833333D01*
X99809523Y-90880952D01*
X99761904Y-90928571D01*
X99714285Y-91023810D01*
X99714285Y-91261905D01*
X99761904Y-91357143D01*
X99809523Y-91404762D01*
X99904761Y-91452381D01*
X100142857Y-91452381D01*
X100238095Y-91404762D01*
X100285714Y-91357143D01*
X93976190Y-102132381D02*
X93976190Y-101132381D01*
X92928571Y-102037143D02*
X92976190Y-102084762D01*
X93119047Y-102132381D01*
X93214285Y-102132381D01*
X93357143Y-102084762D01*
X93452381Y-101989524D01*
X93500000Y-101894286D01*
X93547619Y-101703810D01*
X93547619Y-101560952D01*
X93500000Y-101370476D01*
X93452381Y-101275238D01*
X93357143Y-101180000D01*
X93214285Y-101132381D01*
X93119047Y-101132381D01*
X92976190Y-101180000D01*
X92928571Y-101227619D01*
X91976190Y-102132381D02*
X92547619Y-102132381D01*
X92261905Y-102132381D02*
X92261905Y-101132381D01*
X92357143Y-101275238D01*
X92452381Y-101370476D01*
X92547619Y-101418095D01*
X115297619Y-74154762D02*
X115250000Y-74059524D01*
X115154762Y-73964286D01*
X115011905Y-73821429D01*
X114964286Y-73726190D01*
X114964286Y-73630952D01*
X115202381Y-73678571D02*
X115154762Y-73583333D01*
X115059524Y-73488095D01*
X114869048Y-73440476D01*
X114535714Y-73440476D01*
X114345238Y-73488095D01*
X114250000Y-73583333D01*
X114202381Y-73678571D01*
X114202381Y-73869048D01*
X114250000Y-73964286D01*
X114345238Y-74059524D01*
X114535714Y-74107143D01*
X114869048Y-74107143D01*
X115059524Y-74059524D01*
X115154762Y-73964286D01*
X115202381Y-73869048D01*
X115202381Y-73678571D01*
X115202381Y-75059524D02*
X115202381Y-74488095D01*
X115202381Y-74773809D02*
X114202381Y-74773809D01*
X114345238Y-74678571D01*
X114440476Y-74583333D01*
X114488095Y-74488095D01*
X76666666Y-84452381D02*
X77000000Y-83976190D01*
X77238095Y-84452381D02*
X77238095Y-83452381D01*
X76857142Y-83452381D01*
X76761904Y-83500000D01*
X76714285Y-83547619D01*
X76666666Y-83642857D01*
X76666666Y-83785714D01*
X76714285Y-83880952D01*
X76761904Y-83928571D01*
X76857142Y-83976190D01*
X77238095Y-83976190D01*
X75714285Y-84452381D02*
X76285714Y-84452381D01*
X76000000Y-84452381D02*
X76000000Y-83452381D01*
X76095238Y-83595238D01*
X76190476Y-83690476D01*
X76285714Y-83738095D01*
X76666666Y-81452381D02*
X77000000Y-80976190D01*
X77238095Y-81452381D02*
X77238095Y-80452381D01*
X76857142Y-80452381D01*
X76761904Y-80500000D01*
X76714285Y-80547619D01*
X76666666Y-80642857D01*
X76666666Y-80785714D01*
X76714285Y-80880952D01*
X76761904Y-80928571D01*
X76857142Y-80976190D01*
X77238095Y-80976190D01*
X76285714Y-80547619D02*
X76238095Y-80500000D01*
X76142857Y-80452381D01*
X75904761Y-80452381D01*
X75809523Y-80500000D01*
X75761904Y-80547619D01*
X75714285Y-80642857D01*
X75714285Y-80738095D01*
X75761904Y-80880952D01*
X76333333Y-81452381D01*
X75714285Y-81452381D01*
X76666666Y-78452381D02*
X77000000Y-77976190D01*
X77238095Y-78452381D02*
X77238095Y-77452381D01*
X76857142Y-77452381D01*
X76761904Y-77500000D01*
X76714285Y-77547619D01*
X76666666Y-77642857D01*
X76666666Y-77785714D01*
X76714285Y-77880952D01*
X76761904Y-77928571D01*
X76857142Y-77976190D01*
X77238095Y-77976190D01*
X76333333Y-77452381D02*
X75714285Y-77452381D01*
X76047619Y-77833333D01*
X75904761Y-77833333D01*
X75809523Y-77880952D01*
X75761904Y-77928571D01*
X75714285Y-78023810D01*
X75714285Y-78261905D01*
X75761904Y-78357143D01*
X75809523Y-78404762D01*
X75904761Y-78452381D01*
X76190476Y-78452381D01*
X76285714Y-78404762D01*
X76333333Y-78357143D01*
X108666666Y-74952381D02*
X109000000Y-74476190D01*
X109238095Y-74952381D02*
X109238095Y-73952381D01*
X108857142Y-73952381D01*
X108761904Y-74000000D01*
X108714285Y-74047619D01*
X108666666Y-74142857D01*
X108666666Y-74285714D01*
X108714285Y-74380952D01*
X108761904Y-74428571D01*
X108857142Y-74476190D01*
X109238095Y-74476190D01*
X107809523Y-74285714D02*
X107809523Y-74952381D01*
X108047619Y-73904762D02*
X108285714Y-74619048D01*
X107666666Y-74619048D01*
X108666666Y-80952381D02*
X109000000Y-80476190D01*
X109238095Y-80952381D02*
X109238095Y-79952381D01*
X108857142Y-79952381D01*
X108761904Y-80000000D01*
X108714285Y-80047619D01*
X108666666Y-80142857D01*
X108666666Y-80285714D01*
X108714285Y-80380952D01*
X108761904Y-80428571D01*
X108857142Y-80476190D01*
X109238095Y-80476190D01*
X107761904Y-79952381D02*
X108238095Y-79952381D01*
X108285714Y-80428571D01*
X108238095Y-80380952D01*
X108142857Y-80333333D01*
X107904761Y-80333333D01*
X107809523Y-80380952D01*
X107761904Y-80428571D01*
X107714285Y-80523810D01*
X107714285Y-80761905D01*
X107761904Y-80857143D01*
X107809523Y-80904762D01*
X107904761Y-80952381D01*
X108142857Y-80952381D01*
X108238095Y-80904762D01*
X108285714Y-80857143D01*
X108666666Y-83952381D02*
X109000000Y-83476190D01*
X109238095Y-83952381D02*
X109238095Y-82952381D01*
X108857142Y-82952381D01*
X108761904Y-83000000D01*
X108714285Y-83047619D01*
X108666666Y-83142857D01*
X108666666Y-83285714D01*
X108714285Y-83380952D01*
X108761904Y-83428571D01*
X108857142Y-83476190D01*
X109238095Y-83476190D01*
X107809523Y-82952381D02*
X108000000Y-82952381D01*
X108095238Y-83000000D01*
X108142857Y-83047619D01*
X108238095Y-83190476D01*
X108285714Y-83380952D01*
X108285714Y-83761905D01*
X108238095Y-83857143D01*
X108190476Y-83904762D01*
X108095238Y-83952381D01*
X107904761Y-83952381D01*
X107809523Y-83904762D01*
X107761904Y-83857143D01*
X107714285Y-83761905D01*
X107714285Y-83523810D01*
X107761904Y-83428571D01*
X107809523Y-83380952D01*
X107904761Y-83333333D01*
X108095238Y-83333333D01*
X108190476Y-83380952D01*
X108238095Y-83428571D01*
X108285714Y-83523810D01*
X76666666Y-89452381D02*
X77000000Y-88976190D01*
X77238095Y-89452381D02*
X77238095Y-88452381D01*
X76857142Y-88452381D01*
X76761904Y-88500000D01*
X76714285Y-88547619D01*
X76666666Y-88642857D01*
X76666666Y-88785714D01*
X76714285Y-88880952D01*
X76761904Y-88928571D01*
X76857142Y-88976190D01*
X77238095Y-88976190D01*
X76333333Y-88452381D02*
X75666666Y-88452381D01*
X76095238Y-89452381D01*
X76666666Y-92452381D02*
X77000000Y-91976190D01*
X77238095Y-92452381D02*
X77238095Y-91452381D01*
X76857142Y-91452381D01*
X76761904Y-91500000D01*
X76714285Y-91547619D01*
X76666666Y-91642857D01*
X76666666Y-91785714D01*
X76714285Y-91880952D01*
X76761904Y-91928571D01*
X76857142Y-91976190D01*
X77238095Y-91976190D01*
X76095238Y-91880952D02*
X76190476Y-91833333D01*
X76238095Y-91785714D01*
X76285714Y-91690476D01*
X76285714Y-91642857D01*
X76238095Y-91547619D01*
X76190476Y-91500000D01*
X76095238Y-91452381D01*
X75904761Y-91452381D01*
X75809523Y-91500000D01*
X75761904Y-91547619D01*
X75714285Y-91642857D01*
X75714285Y-91690476D01*
X75761904Y-91785714D01*
X75809523Y-91833333D01*
X75904761Y-91880952D01*
X76095238Y-91880952D01*
X76190476Y-91928571D01*
X76238095Y-91976190D01*
X76285714Y-92071429D01*
X76285714Y-92261905D01*
X76238095Y-92357143D01*
X76190476Y-92404762D01*
X76095238Y-92452381D01*
X75904761Y-92452381D01*
X75809523Y-92404762D01*
X75761904Y-92357143D01*
X75714285Y-92261905D01*
X75714285Y-92071429D01*
X75761904Y-91976190D01*
X75809523Y-91928571D01*
X75904761Y-91880952D01*
X76666666Y-95452381D02*
X77000000Y-94976190D01*
X77238095Y-95452381D02*
X77238095Y-94452381D01*
X76857142Y-94452381D01*
X76761904Y-94500000D01*
X76714285Y-94547619D01*
X76666666Y-94642857D01*
X76666666Y-94785714D01*
X76714285Y-94880952D01*
X76761904Y-94928571D01*
X76857142Y-94976190D01*
X77238095Y-94976190D01*
X76190476Y-95452381D02*
X76000000Y-95452381D01*
X75904761Y-95404762D01*
X75857142Y-95357143D01*
X75761904Y-95214286D01*
X75714285Y-95023810D01*
X75714285Y-94642857D01*
X75761904Y-94547619D01*
X75809523Y-94500000D01*
X75904761Y-94452381D01*
X76095238Y-94452381D01*
X76190476Y-94500000D01*
X76238095Y-94547619D01*
X76285714Y-94642857D01*
X76285714Y-94880952D01*
X76238095Y-94976190D01*
X76190476Y-95023810D01*
X76095238Y-95071429D01*
X75904761Y-95071429D01*
X75809523Y-95023810D01*
X75761904Y-94976190D01*
X75714285Y-94880952D01*
X120642857Y-87952381D02*
X120976191Y-87476190D01*
X121214286Y-87952381D02*
X121214286Y-86952381D01*
X120833333Y-86952381D01*
X120738095Y-87000000D01*
X120690476Y-87047619D01*
X120642857Y-87142857D01*
X120642857Y-87285714D01*
X120690476Y-87380952D01*
X120738095Y-87428571D01*
X120833333Y-87476190D01*
X121214286Y-87476190D01*
X119690476Y-87952381D02*
X120261905Y-87952381D01*
X119976191Y-87952381D02*
X119976191Y-86952381D01*
X120071429Y-87095238D01*
X120166667Y-87190476D01*
X120261905Y-87238095D01*
X118738095Y-87952381D02*
X119309524Y-87952381D01*
X119023810Y-87952381D02*
X119023810Y-86952381D01*
X119119048Y-87095238D01*
X119214286Y-87190476D01*
X119309524Y-87238095D01*
X120642857Y-93952381D02*
X120976191Y-93476190D01*
X121214286Y-93952381D02*
X121214286Y-92952381D01*
X120833333Y-92952381D01*
X120738095Y-93000000D01*
X120690476Y-93047619D01*
X120642857Y-93142857D01*
X120642857Y-93285714D01*
X120690476Y-93380952D01*
X120738095Y-93428571D01*
X120833333Y-93476190D01*
X121214286Y-93476190D01*
X119690476Y-93952381D02*
X120261905Y-93952381D01*
X119976191Y-93952381D02*
X119976191Y-92952381D01*
X120071429Y-93095238D01*
X120166667Y-93190476D01*
X120261905Y-93238095D01*
X119309524Y-93047619D02*
X119261905Y-93000000D01*
X119166667Y-92952381D01*
X118928571Y-92952381D01*
X118833333Y-93000000D01*
X118785714Y-93047619D01*
X118738095Y-93142857D01*
X118738095Y-93238095D01*
X118785714Y-93380952D01*
X119357143Y-93952381D01*
X118738095Y-93952381D01*
X120642857Y-90952381D02*
X120976191Y-90476190D01*
X121214286Y-90952381D02*
X121214286Y-89952381D01*
X120833333Y-89952381D01*
X120738095Y-90000000D01*
X120690476Y-90047619D01*
X120642857Y-90142857D01*
X120642857Y-90285714D01*
X120690476Y-90380952D01*
X120738095Y-90428571D01*
X120833333Y-90476190D01*
X121214286Y-90476190D01*
X119690476Y-90952381D02*
X120261905Y-90952381D01*
X119976191Y-90952381D02*
X119976191Y-89952381D01*
X120071429Y-90095238D01*
X120166667Y-90190476D01*
X120261905Y-90238095D01*
X119357143Y-89952381D02*
X118738095Y-89952381D01*
X119071429Y-90333333D01*
X118928571Y-90333333D01*
X118833333Y-90380952D01*
X118785714Y-90428571D01*
X118738095Y-90523810D01*
X118738095Y-90761905D01*
X118785714Y-90857143D01*
X118833333Y-90904762D01*
X118928571Y-90952381D01*
X119214286Y-90952381D01*
X119309524Y-90904762D01*
X119357143Y-90857143D01*
X108452381Y-85357143D02*
X107976190Y-85023809D01*
X108452381Y-84785714D02*
X107452381Y-84785714D01*
X107452381Y-85166667D01*
X107500000Y-85261905D01*
X107547619Y-85309524D01*
X107642857Y-85357143D01*
X107785714Y-85357143D01*
X107880952Y-85309524D01*
X107928571Y-85261905D01*
X107976190Y-85166667D01*
X107976190Y-84785714D01*
X108452381Y-86309524D02*
X108452381Y-85738095D01*
X108452381Y-86023809D02*
X107452381Y-86023809D01*
X107595238Y-85928571D01*
X107690476Y-85833333D01*
X107738095Y-85738095D01*
X107785714Y-87166667D02*
X108452381Y-87166667D01*
X107404762Y-86928571D02*
X108119048Y-86690476D01*
X108119048Y-87309524D01*
X111142857Y-91452381D02*
X111476191Y-90976190D01*
X111714286Y-91452381D02*
X111714286Y-90452381D01*
X111333333Y-90452381D01*
X111238095Y-90500000D01*
X111190476Y-90547619D01*
X111142857Y-90642857D01*
X111142857Y-90785714D01*
X111190476Y-90880952D01*
X111238095Y-90928571D01*
X111333333Y-90976190D01*
X111714286Y-90976190D01*
X110190476Y-91452381D02*
X110761905Y-91452381D01*
X110476191Y-91452381D02*
X110476191Y-90452381D01*
X110571429Y-90595238D01*
X110666667Y-90690476D01*
X110761905Y-90738095D01*
X109285714Y-90452381D02*
X109761905Y-90452381D01*
X109809524Y-90928571D01*
X109761905Y-90880952D01*
X109666667Y-90833333D01*
X109428571Y-90833333D01*
X109333333Y-90880952D01*
X109285714Y-90928571D01*
X109238095Y-91023810D01*
X109238095Y-91261905D01*
X109285714Y-91357143D01*
X109333333Y-91404762D01*
X109428571Y-91452381D01*
X109666667Y-91452381D01*
X109761905Y-91404762D01*
X109809524Y-91357143D01*
X134142857Y-87452381D02*
X134476191Y-86976190D01*
X134714286Y-87452381D02*
X134714286Y-86452381D01*
X134333333Y-86452381D01*
X134238095Y-86500000D01*
X134190476Y-86547619D01*
X134142857Y-86642857D01*
X134142857Y-86785714D01*
X134190476Y-86880952D01*
X134238095Y-86928571D01*
X134333333Y-86976190D01*
X134714286Y-86976190D01*
X133190476Y-87452381D02*
X133761905Y-87452381D01*
X133476191Y-87452381D02*
X133476191Y-86452381D01*
X133571429Y-86595238D01*
X133666667Y-86690476D01*
X133761905Y-86738095D01*
X132333333Y-86452381D02*
X132523810Y-86452381D01*
X132619048Y-86500000D01*
X132666667Y-86547619D01*
X132761905Y-86690476D01*
X132809524Y-86880952D01*
X132809524Y-87261905D01*
X132761905Y-87357143D01*
X132714286Y-87404762D01*
X132619048Y-87452381D01*
X132428571Y-87452381D01*
X132333333Y-87404762D01*
X132285714Y-87357143D01*
X132238095Y-87261905D01*
X132238095Y-87023810D01*
X132285714Y-86928571D01*
X132333333Y-86880952D01*
X132428571Y-86833333D01*
X132619048Y-86833333D01*
X132714286Y-86880952D01*
X132761905Y-86928571D01*
X132809524Y-87023810D01*
X111142857Y-88452381D02*
X111476191Y-87976190D01*
X111714286Y-88452381D02*
X111714286Y-87452381D01*
X111333333Y-87452381D01*
X111238095Y-87500000D01*
X111190476Y-87547619D01*
X111142857Y-87642857D01*
X111142857Y-87785714D01*
X111190476Y-87880952D01*
X111238095Y-87928571D01*
X111333333Y-87976190D01*
X111714286Y-87976190D01*
X110190476Y-88452381D02*
X110761905Y-88452381D01*
X110476191Y-88452381D02*
X110476191Y-87452381D01*
X110571429Y-87595238D01*
X110666667Y-87690476D01*
X110761905Y-87738095D01*
X109857143Y-87452381D02*
X109190476Y-87452381D01*
X109619048Y-88452381D01*
X120642857Y-99952381D02*
X120976191Y-99476190D01*
X121214286Y-99952381D02*
X121214286Y-98952381D01*
X120833333Y-98952381D01*
X120738095Y-99000000D01*
X120690476Y-99047619D01*
X120642857Y-99142857D01*
X120642857Y-99285714D01*
X120690476Y-99380952D01*
X120738095Y-99428571D01*
X120833333Y-99476190D01*
X121214286Y-99476190D01*
X119690476Y-99952381D02*
X120261905Y-99952381D01*
X119976191Y-99952381D02*
X119976191Y-98952381D01*
X120071429Y-99095238D01*
X120166667Y-99190476D01*
X120261905Y-99238095D01*
X119119048Y-99380952D02*
X119214286Y-99333333D01*
X119261905Y-99285714D01*
X119309524Y-99190476D01*
X119309524Y-99142857D01*
X119261905Y-99047619D01*
X119214286Y-99000000D01*
X119119048Y-98952381D01*
X118928571Y-98952381D01*
X118833333Y-99000000D01*
X118785714Y-99047619D01*
X118738095Y-99142857D01*
X118738095Y-99190476D01*
X118785714Y-99285714D01*
X118833333Y-99333333D01*
X118928571Y-99380952D01*
X119119048Y-99380952D01*
X119214286Y-99428571D01*
X119261905Y-99476190D01*
X119309524Y-99571429D01*
X119309524Y-99761905D01*
X119261905Y-99857143D01*
X119214286Y-99904762D01*
X119119048Y-99952381D01*
X118928571Y-99952381D01*
X118833333Y-99904762D01*
X118785714Y-99857143D01*
X118738095Y-99761905D01*
X118738095Y-99571429D01*
X118785714Y-99476190D01*
X118833333Y-99428571D01*
X118928571Y-99380952D01*
X134142857Y-100452381D02*
X134476191Y-99976190D01*
X134714286Y-100452381D02*
X134714286Y-99452381D01*
X134333333Y-99452381D01*
X134238095Y-99500000D01*
X134190476Y-99547619D01*
X134142857Y-99642857D01*
X134142857Y-99785714D01*
X134190476Y-99880952D01*
X134238095Y-99928571D01*
X134333333Y-99976190D01*
X134714286Y-99976190D01*
X133190476Y-100452381D02*
X133761905Y-100452381D01*
X133476191Y-100452381D02*
X133476191Y-99452381D01*
X133571429Y-99595238D01*
X133666667Y-99690476D01*
X133761905Y-99738095D01*
X132714286Y-100452381D02*
X132523810Y-100452381D01*
X132428571Y-100404762D01*
X132380952Y-100357143D01*
X132285714Y-100214286D01*
X132238095Y-100023810D01*
X132238095Y-99642857D01*
X132285714Y-99547619D01*
X132333333Y-99500000D01*
X132428571Y-99452381D01*
X132619048Y-99452381D01*
X132714286Y-99500000D01*
X132761905Y-99547619D01*
X132809524Y-99642857D01*
X132809524Y-99880952D01*
X132761905Y-99976190D01*
X132714286Y-100023810D01*
X132619048Y-100071429D01*
X132428571Y-100071429D01*
X132333333Y-100023810D01*
X132285714Y-99976190D01*
X132238095Y-99880952D01*
X95642857Y-91452381D02*
X95976191Y-90976190D01*
X96214286Y-91452381D02*
X96214286Y-90452381D01*
X95833333Y-90452381D01*
X95738095Y-90500000D01*
X95690476Y-90547619D01*
X95642857Y-90642857D01*
X95642857Y-90785714D01*
X95690476Y-90880952D01*
X95738095Y-90928571D01*
X95833333Y-90976190D01*
X96214286Y-90976190D01*
X95261905Y-90547619D02*
X95214286Y-90500000D01*
X95119048Y-90452381D01*
X94880952Y-90452381D01*
X94785714Y-90500000D01*
X94738095Y-90547619D01*
X94690476Y-90642857D01*
X94690476Y-90738095D01*
X94738095Y-90880952D01*
X95309524Y-91452381D01*
X94690476Y-91452381D01*
X94071429Y-90452381D02*
X93976190Y-90452381D01*
X93880952Y-90500000D01*
X93833333Y-90547619D01*
X93785714Y-90642857D01*
X93738095Y-90833333D01*
X93738095Y-91071429D01*
X93785714Y-91261905D01*
X93833333Y-91357143D01*
X93880952Y-91404762D01*
X93976190Y-91452381D01*
X94071429Y-91452381D01*
X94166667Y-91404762D01*
X94214286Y-91357143D01*
X94261905Y-91261905D01*
X94309524Y-91071429D01*
X94309524Y-90833333D01*
X94261905Y-90642857D01*
X94214286Y-90547619D01*
X94166667Y-90500000D01*
X94071429Y-90452381D01*
X93261905Y-84202381D02*
X93261905Y-85011905D01*
X93214286Y-85107143D01*
X93166667Y-85154762D01*
X93071429Y-85202381D01*
X92880952Y-85202381D01*
X92785714Y-85154762D01*
X92738095Y-85107143D01*
X92690476Y-85011905D01*
X92690476Y-84202381D01*
X91690476Y-85202381D02*
X92261905Y-85202381D01*
X91976191Y-85202381D02*
X91976191Y-84202381D01*
X92071429Y-84345238D01*
X92166667Y-84440476D01*
X92261905Y-84488095D01*
X111261905Y-93952381D02*
X111261905Y-94761905D01*
X111214286Y-94857143D01*
X111166667Y-94904762D01*
X111071429Y-94952381D01*
X110880952Y-94952381D01*
X110785714Y-94904762D01*
X110738095Y-94857143D01*
X110690476Y-94761905D01*
X110690476Y-93952381D01*
X110261905Y-94047619D02*
X110214286Y-94000000D01*
X110119048Y-93952381D01*
X109880952Y-93952381D01*
X109785714Y-94000000D01*
X109738095Y-94047619D01*
X109690476Y-94142857D01*
X109690476Y-94238095D01*
X109738095Y-94380952D01*
X110309524Y-94952381D01*
X109690476Y-94952381D01*
X143011905Y-92452381D02*
X143011905Y-93261905D01*
X142964286Y-93357143D01*
X142916667Y-93404762D01*
X142821429Y-93452381D01*
X142630952Y-93452381D01*
X142535714Y-93404762D01*
X142488095Y-93357143D01*
X142440476Y-93261905D01*
X142440476Y-92452381D01*
X142059524Y-92452381D02*
X141440476Y-92452381D01*
X141773810Y-92833333D01*
X141630952Y-92833333D01*
X141535714Y-92880952D01*
X141488095Y-92928571D01*
X141440476Y-93023810D01*
X141440476Y-93261905D01*
X141488095Y-93357143D01*
X141535714Y-93404762D01*
X141630952Y-93452381D01*
X141916667Y-93452381D01*
X142011905Y-93404762D01*
X142059524Y-93357143D01*
X67738095Y-89452381D02*
X67738095Y-88452381D01*
X67500000Y-88452381D01*
X67357142Y-88500000D01*
X67261904Y-88595238D01*
X67214285Y-88690476D01*
X67166666Y-88880952D01*
X67166666Y-89023810D01*
X67214285Y-89214286D01*
X67261904Y-89309524D01*
X67357142Y-89404762D01*
X67500000Y-89452381D01*
X67738095Y-89452381D01*
X66214285Y-89452381D02*
X66785714Y-89452381D01*
X66500000Y-89452381D02*
X66500000Y-88452381D01*
X66595238Y-88595238D01*
X66690476Y-88690476D01*
X66785714Y-88738095D01*
M02*
