M48
;DRILL file {KiCad 4.0.5+dfsg1-4} date Tue May  9 17:57:49 2017
;FORMAT={-:-/ absolute / inch / decimal}
FMAT,2
INCH,TZ
T1C0.016
T2C0.020
T3C0.022
T4C0.024
T5C0.032
T6C0.039
T7C0.047
T8C0.083
T9C0.091
T10C0.098
%
G90
G05
M72
T1
X2.0315Y-2.0236
X2.0512Y-3.2283
X2.0906Y-2.3307
X2.0906Y-2.6299
X2.0984Y-2.7402
X2.1181Y-2.5472
X2.1654Y-2.4961
X2.2323Y-2.0197
X2.2402Y-2.6181
X2.252Y-2.4134
X2.2756Y-2.7244
X2.315Y-2.3425
X2.3583Y-2.2165
X2.4291Y-2.7047
X2.438Y-3.1309
X2.4764Y-2.1024
X2.5039Y-2.626
X2.5827Y-2.1772
X2.6614Y-2.9911
X2.6645Y-2.2743
X2.6919Y-2.3927
X2.6929Y-3.2047
X2.748Y-3.0035
X2.7638Y-2.8622
X2.8268Y-2.0197
X2.878Y-3.0236
X2.8819Y-3.2756
X3.0787Y-2.5709
X3.0787Y-3.2638
X3.0811Y-2.1701
X3.1142Y-3.0315
X3.1618Y-2.1579
X3.2598Y-2.0039
X3.3031Y-3.0354
X3.3622Y-3.0906
X3.3661Y-3.2283
X3.3661Y-3.3228
X3.3937Y-2.3543
X3.4055Y-2.8504
X3.4114Y-2.5315
X3.4695Y-2.3051
X3.5276Y-3.2047
X3.5512Y-2.4409
X3.5906Y-3.0906
X3.6663Y-2.2579
X3.6929Y-3.2323
X3.7717Y-2.0079
X3.7992Y-3.0866
X3.8268Y-2.4331
X3.8701Y-3.2913
X3.9193Y-2.686
X3.9724Y-3.4606
X3.9925Y-2.7866
X4.0551Y-3.2598
X4.0787Y-2.9252
X4.1378Y-2.5669
X4.1378Y-3.5236
X4.1496Y-2.7126
X4.1575Y-2.4291
X4.2008Y-3.3661
X4.2175Y-2.4605
X4.2279Y-2.7967
X4.2421Y-2.4322
X4.2544Y-2.7702
X4.2598Y-3.0118
X4.2738Y-2.9081
X4.278Y-2.1819
X4.2835Y-2.4252
X4.3071Y-2.6929
X4.3327Y-2.961
X4.3642Y-2.1685
X4.3886Y-2.922
X4.3996Y-2.5217
X4.4176Y-2.9791
X4.4232Y-3.3199
X4.4291Y-2.7795
X4.4488Y-2.2677
X4.4685Y-3.0118
X4.4731Y-2.9604
X4.4813Y-2.8917
X4.4843Y-3.1919
X4.5177Y-3.039
X4.5276Y-2.7717
X4.5541Y-3.1024
X4.5798Y-3.0471
X4.5906Y-2.6378
X4.6024Y-3.4685
X4.6193Y-2.2291
X4.6496Y-2.748
X4.6535Y-3.5039
X4.6692Y-2.8918
X4.6693Y-3.3228
X4.6935Y-2.912
X4.6965Y-2.9724
X4.705Y-2.8568
X4.7087Y-2.5748
X4.7165Y-3.2756
X4.7167Y-3.0039
X4.7195Y-2.2616
X4.7199Y-2.9384
X4.7402Y-2.3543
X4.748Y-2.4882
X4.78Y-2.376
X4.7831Y-3.2732
X4.7854Y-2.407
X4.7874Y-2.2756
X4.7874Y-2.5098
X4.7894Y-2.4587
X4.8031Y-3.5
X4.8427Y-3.3033
X4.8583Y-3.3701
X4.8618Y-2.5295
X4.8626Y-2.878
X4.8835Y-3.
X4.9006Y-2.1998
X4.9055Y-2.0079
X4.9134Y-3.1378
X4.9439Y-2.5502
X4.9449Y-2.4961
X4.9449Y-2.6949
X5.0157Y-2.
X5.0157Y-3.5394
X5.0443Y-2.5148
X5.0551Y-3.2992
X5.1024Y-3.3494
X5.1102Y-3.8622
X5.1181Y-3.4528
X5.1181Y-3.6417
X5.1193Y-3.0106
X5.1398Y-2.6933
X5.1654Y-3.378
X5.1969Y-2.5669
X5.2057Y-2.125
X5.2126Y-2.
X5.2276Y-3.0642
X5.2283Y-2.6063
X5.2323Y-2.6496
X5.252Y-3.3228
X5.2717Y-3.6102
X5.2835Y-2.4252
X5.2923Y-2.1102
X5.3071Y-3.378
X5.3465Y-2.8898
X5.3487Y-2.6314
X5.3504Y-3.563
X5.3622Y-2.378
X5.3623Y-2.9248
X5.374Y-2.6614
X5.3937Y-2.4961
X5.4016Y-2.5512
X5.4052Y-2.5874
X5.4055Y-2.7087
X5.4488Y-3.0157
X5.4961Y-2.3622
X5.5089Y-3.2451
X5.5148Y-2.1722
X5.5276Y-3.2156
X5.5276Y-3.3425
X5.5354Y-3.9055
X5.5669Y-2.
X5.5669Y-3.0866
X5.5709Y-3.4646
X5.5797Y-2.3081
X5.5807Y-2.8976
X5.5807Y-3.1427
X5.5827Y-3.5827
X5.5891Y-2.5448
X5.6211Y-2.8002
X5.622Y-2.311
X5.6299Y-3.0787
X5.6555Y-3.625
X5.6575Y-3.4646
X5.6614Y-2.8819
X5.6614Y-3.7087
X5.6929Y-2.252
X5.6929Y-2.4764
X5.7165Y-2.6024
X5.7165Y-2.6772
X5.7193Y-3.8646
X5.7205Y-3.2598
X5.7638Y-2.
X5.7717Y-2.1575
X5.7756Y-2.2795
X5.7756Y-2.3976
X5.7913Y-3.0748
X5.7913Y-3.1535
X5.7953Y-2.9528
X5.8071Y-3.2756
T5
X2.0276Y-2.9736
X2.0276Y-3.0736
X2.2441Y-3.3701
X2.2441Y-3.4488
X2.3441Y-3.3701
X2.3441Y-3.4488
X5.3134Y-3.6941
X5.3134Y-3.7941
X5.4134Y-3.6941
X5.4134Y-3.7941
X5.5134Y-3.6941
X5.5134Y-3.7941
X5.8449Y-3.025
X5.8449Y-3.225
X5.8449Y-3.425
X5.8449Y-3.625
X5.8449Y-3.825
X5.8465Y-2.0378
X5.8465Y-2.2378
X5.8465Y-2.4378
X5.8465Y-2.6378
X5.8465Y-2.8378
X5.8497Y-3.125
X5.8497Y-3.325
X5.8497Y-3.525
X5.8497Y-3.725
X5.8513Y-2.1378
X5.8513Y-2.3378
X5.8513Y-2.5378
X5.8513Y-2.7378
T6
X2.4568Y-2.189
X2.4568Y-2.289
X2.4568Y-2.369
X2.4568Y-2.469
X2.8213Y-3.4724
X2.9213Y-3.4724
X3.0013Y-3.4724
X3.1013Y-3.4724
T7
X2.9134Y-2.0866
X3.0134Y-2.0866
X3.1134Y-2.0866
X3.2134Y-2.0866
X3.3134Y-2.0866
X3.4134Y-2.0866
X3.5134Y-2.0866
X3.6134Y-2.0866
X3.7134Y-2.0866
X3.8134Y-2.0866
X3.9134Y-2.0866
X4.0134Y-2.0866
X4.1134Y-2.0866
X4.2134Y-2.0866
X4.3134Y-2.0866
X4.4134Y-2.0866
T8
X2.1654Y-2.8346
X2.1654Y-3.0236
X2.3307Y-2.8346
X2.3307Y-3.0236
X2.4961Y-2.8346
X2.4961Y-3.0236
T9
X2.0579Y-3.5551
X2.3518Y-2.049
X2.3518Y-2.589
X2.5303Y-3.5551
X2.6813Y-3.5774
X3.2213Y-3.5774
T10
X2.6969Y-2.0866
X2.6969Y-3.3071
X5.6496Y-2.0866
X5.6496Y-3.3071
T2
X3.9803Y-3.8135G85X3.9803Y-3.7879
G05
X4.4744Y-3.8135G85X4.4744Y-3.7879
G05
X4.5158Y-2.0448G85X4.5158Y-2.0704
G05
X4.7914Y-2.0448G85X4.7914Y-2.0704
G05
T3
X4.5611Y-2.1639G85X4.5492Y-2.1639
G05
X4.7579Y-2.1639G85X4.7461Y-2.1639
G05
T4
X4.6362Y-3.6559G85X4.6362Y-3.6992
G05
X4.6362Y-3.8264G85X4.6362Y-3.8579
G05
X4.9764Y-3.6559G85X4.9764Y-3.6992
G05
X4.9764Y-3.8264G85X4.9764Y-3.8579
G05
T0
M30
