G04 #@! TF.FileFunction,Soldermask,Bot*
%FSLAX46Y46*%
G04 Gerber Fmt 4.6, Leading zero omitted, Abs format (unit mm)*
G04 Created by KiCad (PCBNEW 4.0.5+dfsg1-4) date Tue Apr 25 09:23:24 2017*
%MOMM*%
%LPD*%
G01*
G04 APERTURE LIST*
%ADD10C,0.100000*%
%ADD11O,2.200000X3.000000*%
%ADD12C,3.400000*%
%ADD13C,1.901140*%
%ADD14C,3.399740*%
%ADD15C,1.299160*%
%ADD16C,1.924000*%
%ADD17C,3.100020*%
%ADD18C,3.900000*%
%ADD19O,1.400000X2.200000*%
%ADD20O,1.400000X2.500000*%
%ADD21C,1.050000*%
%ADD22R,1.150000X1.600000*%
%ADD23R,1.600000X1.150000*%
%ADD24R,1.797000X1.797000*%
%ADD25C,1.797000*%
%ADD26O,1.650000X1.650000*%
%ADD27O,2.200000X1.950000*%
%ADD28R,1.197560X1.197560*%
%ADD29R,1.300000X1.600000*%
%ADD30R,1.600000X1.300000*%
%ADD31R,0.950000X1.900000*%
%ADD32R,1.900000X0.950000*%
%ADD33R,1.950000X1.000000*%
%ADD34R,1.800000X1.600000*%
%ADD35R,2.550000X1.500000*%
G04 APERTURE END LIST*
D10*
D11*
X75000000Y-70000000D03*
X77540000Y-70000000D03*
X80080000Y-70000000D03*
X82620000Y-70000000D03*
X85160000Y-70000000D03*
X87700000Y-70000000D03*
X90240000Y-70000000D03*
X92780000Y-70000000D03*
X95320000Y-70000000D03*
X97860000Y-70000000D03*
X100400000Y-70000000D03*
X102940000Y-70000000D03*
X105480000Y-70000000D03*
X108020000Y-70000000D03*
X110560000Y-70000000D03*
X113100000Y-70000000D03*
D12*
X69500900Y-70000000D03*
X69500900Y-101000700D03*
X144499480Y-101000700D03*
X144499480Y-70000000D03*
D13*
X62102120Y-110712860D03*
X62102120Y-108172860D03*
X62102120Y-106140860D03*
X62102120Y-103600860D03*
D14*
X59435120Y-113760860D03*
X59435120Y-100044860D03*
D15*
X110600360Y-116649100D03*
X114999640Y-116649100D03*
D13*
X81912860Y-108997880D03*
X79372860Y-108997880D03*
X77340860Y-108997880D03*
X74800860Y-108997880D03*
D14*
X84960860Y-111664880D03*
X71244860Y-111664880D03*
D16*
X95460000Y-107000000D03*
X98000000Y-107000000D03*
X98000000Y-108998980D03*
X95460000Y-108998980D03*
D17*
X90730520Y-111699000D03*
X102729480Y-111699000D03*
D18*
X62600000Y-89600000D03*
X62600000Y-84800000D03*
X58400000Y-89600000D03*
X58400000Y-84800000D03*
X54200000Y-89600000D03*
X54200000Y-84800000D03*
D19*
X138260000Y-118890000D03*
X146900000Y-118890000D03*
D20*
X138260000Y-114710000D03*
X146900000Y-114710000D03*
D21*
X139690000Y-115210000D03*
X145470000Y-115210000D03*
D22*
X72100000Y-84850000D03*
X72100000Y-86750000D03*
D23*
X102050000Y-97500000D03*
X100150000Y-97500000D03*
D22*
X81500000Y-94750000D03*
X81500000Y-92850000D03*
X81400000Y-100650000D03*
X81400000Y-98750000D03*
D23*
X76350000Y-88400000D03*
X74450000Y-88400000D03*
D22*
X99700000Y-84150000D03*
X99700000Y-82250000D03*
D23*
X73550000Y-74400000D03*
X75450000Y-74400000D03*
X73450000Y-78900000D03*
X75350000Y-78900000D03*
D24*
X62540000Y-73530000D03*
D25*
X62540000Y-76070000D03*
X60000000Y-73530000D03*
X60000000Y-76070000D03*
X57460000Y-73530000D03*
X57460000Y-76070000D03*
D26*
X60800900Y-65762540D03*
X55800900Y-65762540D03*
D27*
X61800900Y-63062540D03*
X54800900Y-63062540D03*
D28*
X92250700Y-63500000D03*
X93749300Y-63500000D03*
X84650700Y-63500000D03*
X86149300Y-63500000D03*
X78849300Y-63400000D03*
X77350700Y-63400000D03*
X71049300Y-63300000D03*
X69550700Y-63300000D03*
D25*
X115580000Y-64660960D03*
X113040000Y-64539040D03*
X110500000Y-64660960D03*
X107960000Y-64539040D03*
X105420000Y-64660960D03*
X118120000Y-64539040D03*
X102880000Y-64539040D03*
D24*
X120660000Y-64660960D03*
D25*
X100340000Y-64660960D03*
D29*
X68400000Y-76300000D03*
X68400000Y-74100000D03*
D30*
X91700000Y-65300000D03*
X93900000Y-65300000D03*
X84300000Y-65300000D03*
X86500000Y-65300000D03*
X77100000Y-65300000D03*
X79300000Y-65300000D03*
X69100000Y-65200000D03*
X71300000Y-65200000D03*
D29*
X99700000Y-78800000D03*
X99700000Y-76600000D03*
D30*
X63700000Y-68400000D03*
X61500000Y-68400000D03*
X63700000Y-70400000D03*
X61500000Y-70400000D03*
X73400000Y-76600000D03*
X75600000Y-76600000D03*
D29*
X113100000Y-73800000D03*
X113100000Y-76000000D03*
D30*
X100100000Y-90800000D03*
X102300000Y-90800000D03*
X102300000Y-95200000D03*
X100100000Y-95200000D03*
X100100000Y-93000000D03*
X102300000Y-93000000D03*
D29*
X79400000Y-94900000D03*
X79400000Y-92700000D03*
D30*
X78100000Y-100400000D03*
X75900000Y-100400000D03*
X78000000Y-98500000D03*
X75800000Y-98500000D03*
X70200000Y-94000000D03*
X72400000Y-94000000D03*
X58500000Y-80400000D03*
X60700000Y-80400000D03*
X88600000Y-105100000D03*
X86400000Y-105100000D03*
D31*
X92300000Y-86500000D03*
X91500000Y-86500000D03*
X90700000Y-86500000D03*
X89900000Y-86500000D03*
X89100000Y-86500000D03*
X88300000Y-86500000D03*
X87500000Y-86500000D03*
X86700000Y-86500000D03*
X85900000Y-86500000D03*
X85100000Y-86500000D03*
X84300000Y-86500000D03*
D32*
X82600000Y-84800000D03*
X82600000Y-84000000D03*
X82600000Y-83200000D03*
X82600000Y-82400000D03*
X82600000Y-81600000D03*
X82600000Y-80800000D03*
X82600000Y-80000000D03*
X82600000Y-79200000D03*
X82600000Y-78400000D03*
X82600000Y-77600000D03*
X82600000Y-76800000D03*
D31*
X84300000Y-75100000D03*
X85100000Y-75100000D03*
X85900000Y-75100000D03*
X86700000Y-75100000D03*
X87500000Y-75100000D03*
X88300000Y-75100000D03*
X89100000Y-75100000D03*
X89900000Y-75100000D03*
X90700000Y-75100000D03*
X91500000Y-75100000D03*
X92300000Y-75100000D03*
D32*
X94000000Y-76800000D03*
X94000000Y-77600000D03*
X94000000Y-78400000D03*
X94000000Y-79200000D03*
X94000000Y-80000000D03*
X94000000Y-80800000D03*
X94000000Y-81600000D03*
X94000000Y-82400000D03*
X94000000Y-83200000D03*
X94000000Y-84000000D03*
X94000000Y-84800000D03*
D33*
X84900000Y-94905000D03*
X84900000Y-93635000D03*
X84900000Y-92365000D03*
X84900000Y-91095000D03*
X90300000Y-91095000D03*
X90300000Y-92365000D03*
X90300000Y-93635000D03*
X90300000Y-94905000D03*
X84900000Y-102005000D03*
X84900000Y-100735000D03*
X84900000Y-99465000D03*
X84900000Y-98195000D03*
X90300000Y-98195000D03*
X90300000Y-99465000D03*
X90300000Y-100735000D03*
X90300000Y-102005000D03*
D34*
X74300000Y-84800000D03*
X76500000Y-84800000D03*
X74300000Y-86400000D03*
X76500000Y-86400000D03*
D25*
X140580000Y-64760960D03*
X138040000Y-64639040D03*
X135500000Y-64760960D03*
X132960000Y-64639040D03*
X130420000Y-64760960D03*
X143120000Y-64639040D03*
X127880000Y-64639040D03*
D24*
X145660000Y-64760960D03*
D25*
X125340000Y-64760960D03*
D35*
X76075000Y-81800000D03*
X73125000Y-81800000D03*
D24*
X51900000Y-73430000D03*
D25*
X51900000Y-75970000D03*
D22*
X94800000Y-92750000D03*
X94800000Y-94650000D03*
X94700000Y-98950000D03*
X94700000Y-100850000D03*
X80500000Y-74850000D03*
X80500000Y-72950000D03*
D27*
X121999100Y-119137460D03*
X134550000Y-119137460D03*
M02*
