M48
;DRILL file {KiCad 4.0.5+dfsg1-4} date Tue Apr 25 09:23:26 2017
;FORMAT={-:-/ absolute / inch / decimal}
FMAT,2
INCH,TZ
T1C0.016
T2C0.020
T3C0.022
T4C0.024
T5C0.032
T6C0.039
T7C0.047
T8C0.083
T9C0.091
T10C0.098
%
G90
G05
M72
T1
X2.0276Y-3.1772
X2.1024Y-3.063
X2.252Y-3.8031
X2.3286Y-2.6517
X2.3504Y-2.6929
X2.3971Y-4.5359
X2.516Y-4.4584
X2.5433Y-4.2953
X2.5472Y-4.0039
X2.5866Y-4.1654
X2.5866Y-4.4646
X2.5866Y-4.6063
X2.5984Y-3.6417
X2.5984Y-3.7598
X2.622Y-3.8228
X2.6693Y-3.622
X2.7205Y-4.2953
X2.7264Y-2.9641
X2.8031Y-3.1063
X2.8121Y-2.6315
X2.8589Y-2.8689
X3.1024Y-3.1378
X3.2007Y-3.3124
X3.2046Y-2.8621
X3.2165Y-3.4409
X3.2621Y-3.3712
X3.2764Y-3.677
X3.2966Y-2.8943
X3.3016Y-3.0375
X3.3025Y-3.235
X3.3062Y-3.1028
X3.3409Y-3.1058
X3.3471Y-3.3443
X3.3504Y-4.2047
X3.374Y-3.0996
X3.378Y-3.1929
X3.3786Y-3.3026
X3.4567Y-4.3425
X3.5079Y-2.5236
X3.5276Y-3.1024
X3.5391Y-2.9073
X3.5394Y-3.189
X3.5836Y-3.0077
X3.5959Y-3.0979
X3.6063Y-3.5079
X3.6156Y-3.0182
X3.6309Y-3.6272
X3.6748Y-3.3695
X3.7619Y-3.1879
X3.7795Y-2.8858
X3.7828Y-3.1642
X3.8102Y-3.1141
X3.8228Y-2.5197
X3.8573Y-3.6249
X3.8598Y-3.669
X3.9106Y-2.6854
X4.0102Y-3.0289
X4.0394Y-2.9409
X4.1772Y-4.3937
X4.2756Y-2.9921
X4.378Y-4.4055
X4.4094Y-4.5748
X4.8189Y-2.6772
X4.8898Y-4.4606
X4.9055Y-4.6417
X4.937Y-4.4921
X5.1299Y-4.6772
X5.378Y-4.437
X5.5748Y-4.4291
X5.6575Y-4.4134
T5
X2.0433Y-2.8909
X2.0433Y-2.9909
X2.2622Y-2.8949
X2.2622Y-2.9949
X2.3622Y-2.8949
X2.3622Y-2.9949
X2.4622Y-2.8949
X2.4622Y-2.9949
X3.7583Y-4.2126
X3.7583Y-4.2913
X3.8583Y-4.2126
X3.8583Y-4.2913
X3.9504Y-2.5457
X4.0504Y-2.5409
X4.1504Y-2.5457
X4.2504Y-2.5409
X4.3504Y-2.5457
X4.4504Y-2.5409
X4.5504Y-2.5457
X4.6504Y-2.5409
X4.7504Y-2.5457
X4.9346Y-2.5496
X5.0346Y-2.5448
X5.1346Y-2.5496
X5.2346Y-2.5448
X5.3346Y-2.5496
X5.4346Y-2.5448
X5.5346Y-2.5496
X5.6346Y-2.5448
X5.7346Y-2.5496
T6
X2.445Y-4.0788
X2.445Y-4.1788
X2.445Y-4.2588
X2.445Y-4.3588
X2.9449Y-4.2913
X3.0449Y-4.2913
X3.1249Y-4.2913
X3.2249Y-4.2913
T7
X2.9528Y-2.7559
X3.0528Y-2.7559
X3.1528Y-2.7559
X3.2528Y-2.7559
X3.3528Y-2.7559
X3.4528Y-2.7559
X3.5528Y-2.7559
X3.6528Y-2.7559
X3.7528Y-2.7559
X3.8528Y-2.7559
X3.9528Y-2.7559
X4.0528Y-2.7559
X4.1528Y-2.7559
X4.2528Y-2.7559
X4.3528Y-2.7559
X4.4528Y-2.7559
T8
X2.1339Y-3.3386
X2.1339Y-3.5276
X2.2992Y-3.3386
X2.2992Y-3.5276
X2.4646Y-3.3386
X2.4646Y-3.5276
T9
X2.34Y-3.9388
X2.34Y-4.4788
X2.8049Y-4.3963
X3.3449Y-4.3963
X3.5721Y-4.3976
X4.0445Y-4.3976
T10
X2.7363Y-2.7559
X2.7363Y-3.9764
X5.689Y-2.7559
X5.689Y-3.9764
T2
X2.1575Y-2.47G85X2.1575Y-2.4956
G05
X2.4331Y-2.47G85X2.4331Y-2.4956
G05
X4.8031Y-4.7032G85X4.8031Y-4.6777
G05
X5.2972Y-4.7032G85X5.2972Y-4.6777
G05
T3
X2.2028Y-2.5891G85X2.191Y-2.5891
G05
X2.3996Y-2.5891G85X2.3878Y-2.5891
G05
T4
X5.4433Y-4.4945G85X5.4433Y-4.5378
G05
X5.4433Y-4.665G85X5.4433Y-4.6965
G05
X5.7835Y-4.4945G85X5.7835Y-4.5378
G05
X5.7835Y-4.665G85X5.7835Y-4.6965
G05
T0
M30
