G04 #@! TF.FileFunction,Copper,L2,Bot,Signal*
%FSLAX46Y46*%
G04 Gerber Fmt 4.6, Leading zero omitted, Abs format (unit mm)*
G04 Created by KiCad (PCBNEW 4.0.4+dfsg1-stable) date Wed Dec 21 21:58:14 2016*
%MOMM*%
%LPD*%
G01*
G04 APERTURE LIST*
%ADD10C,0.100000*%
%ADD11R,1.200000X0.750000*%
%ADD12R,0.750000X1.200000*%
%ADD13R,1.000000X1.000000*%
%ADD14R,0.797560X0.797560*%
%ADD15O,1.800000X2.600000*%
%ADD16C,3.000000*%
%ADD17R,1.700000X0.650000*%
%ADD18C,1.501140*%
%ADD19C,2.999740*%
%ADD20C,1.524000*%
%ADD21C,2.700020*%
%ADD22O,1.250000X1.250000*%
%ADD23O,1.800000X1.550000*%
%ADD24R,1.800860X0.800100*%
%ADD25R,1.200000X0.900000*%
%ADD26R,0.900000X1.200000*%
%ADD27R,1.400000X1.400000*%
%ADD28C,1.400000*%
%ADD29C,3.500000*%
%ADD30R,1.500000X0.600000*%
%ADD31R,1.550000X0.600000*%
%ADD32O,1.550000X1.800000*%
%ADD33R,2.032000X1.727200*%
%ADD34O,2.032000X1.727200*%
%ADD35O,1.000000X1.800000*%
%ADD36O,1.000000X2.100000*%
%ADD37C,0.600000*%
%ADD38C,0.600000*%
%ADD39C,0.300000*%
%ADD40C,0.400000*%
%ADD41C,0.254000*%
G04 APERTURE END LIST*
D10*
D11*
X106450000Y-77500000D03*
X104550000Y-77500000D03*
X124450000Y-96500000D03*
X122550000Y-96500000D03*
D12*
X105000000Y-90450000D03*
X105000000Y-88550000D03*
X129000000Y-94950000D03*
X129000000Y-93050000D03*
D13*
X71055000Y-92000000D03*
X68945000Y-92000000D03*
X71055000Y-95000000D03*
X68945000Y-95000000D03*
D14*
X98749300Y-91000000D03*
X97250700Y-91000000D03*
D15*
X75000000Y-70000000D03*
X77540000Y-70000000D03*
X80080000Y-70000000D03*
X82620000Y-70000000D03*
X85160000Y-70000000D03*
X87700000Y-70000000D03*
X90240000Y-70000000D03*
X92780000Y-70000000D03*
X95320000Y-70000000D03*
X97860000Y-70000000D03*
X100400000Y-70000000D03*
X102940000Y-70000000D03*
X105480000Y-70000000D03*
X108020000Y-70000000D03*
X110560000Y-70000000D03*
X113100000Y-70000000D03*
D16*
X69500900Y-70000000D03*
X69500900Y-101000700D03*
X144499480Y-101000700D03*
X144499480Y-70000000D03*
D17*
X89350000Y-99905000D03*
X89350000Y-98635000D03*
X89350000Y-97365000D03*
X89350000Y-96095000D03*
X96650000Y-96095000D03*
X96650000Y-97365000D03*
X96650000Y-98635000D03*
X96650000Y-99905000D03*
D18*
X71887140Y-62002120D03*
X74427140Y-62002120D03*
X76459140Y-62002120D03*
X78999140Y-62002120D03*
D19*
X68839140Y-59335120D03*
X82555140Y-59335120D03*
D20*
X96040000Y-64000000D03*
X93500000Y-64000000D03*
X93500000Y-62001020D03*
X96040000Y-62001020D03*
D21*
X100769480Y-59301000D03*
X88770520Y-59301000D03*
D22*
X129500900Y-54562540D03*
X124500900Y-54562540D03*
D23*
X130500900Y-51862540D03*
X123500900Y-51862540D03*
D22*
X124499100Y-116437460D03*
X129499100Y-116437460D03*
D23*
X123499100Y-119137460D03*
X130499100Y-119137460D03*
D18*
X78112860Y-108997880D03*
X75572860Y-108997880D03*
X73540860Y-108997880D03*
X71000860Y-108997880D03*
D19*
X81160860Y-111664880D03*
X67444860Y-111664880D03*
D20*
X93460000Y-107000000D03*
X96000000Y-107000000D03*
X96000000Y-108998980D03*
X93460000Y-108998980D03*
D21*
X88730520Y-111699000D03*
X100729480Y-111699000D03*
D24*
X111498860Y-76950000D03*
X111498860Y-75050000D03*
X114501140Y-76000000D03*
D25*
X80600000Y-84000000D03*
X78400000Y-84000000D03*
X80600000Y-81000000D03*
X78400000Y-81000000D03*
X80600000Y-78000000D03*
X78400000Y-78000000D03*
X106600000Y-74500000D03*
X104400000Y-74500000D03*
X106600000Y-80500000D03*
X104400000Y-80500000D03*
X106600000Y-83500000D03*
X104400000Y-83500000D03*
X80600000Y-89000000D03*
X78400000Y-89000000D03*
X80600000Y-92000000D03*
X78400000Y-92000000D03*
X80600000Y-95000000D03*
X78400000Y-95000000D03*
X122400000Y-87500000D03*
X124600000Y-87500000D03*
X124600000Y-93500000D03*
X122400000Y-93500000D03*
X122400000Y-90500000D03*
X124600000Y-90500000D03*
D26*
X108000000Y-90600000D03*
X108000000Y-88400000D03*
D25*
X112900000Y-91000000D03*
X115100000Y-91000000D03*
X138100000Y-87000000D03*
X135900000Y-87000000D03*
X115100000Y-88000000D03*
X112900000Y-88000000D03*
X124600000Y-99500000D03*
X122400000Y-99500000D03*
X138100000Y-100000000D03*
X135900000Y-100000000D03*
X90400000Y-91000000D03*
X92600000Y-91000000D03*
D27*
X61000000Y-72960000D03*
D28*
X61000000Y-78040000D03*
X63540000Y-75500000D03*
D29*
X54500000Y-95500000D03*
X54500000Y-100300000D03*
X58700000Y-95500000D03*
X58700000Y-100300000D03*
X62900000Y-95500000D03*
X62900000Y-100300000D03*
D30*
X87850000Y-82945000D03*
X87850000Y-81675000D03*
X87850000Y-80405000D03*
X87850000Y-79135000D03*
X87850000Y-77865000D03*
X87850000Y-76595000D03*
X87850000Y-75325000D03*
X87850000Y-74055000D03*
X97150000Y-74055000D03*
X97150000Y-75325000D03*
X97150000Y-76595000D03*
X97150000Y-77865000D03*
X97150000Y-79135000D03*
X97150000Y-80405000D03*
X97150000Y-81675000D03*
X97150000Y-82945000D03*
D31*
X113200000Y-96095000D03*
X113200000Y-97365000D03*
X113200000Y-98635000D03*
X113200000Y-99905000D03*
X107800000Y-99905000D03*
X107800000Y-98635000D03*
X107800000Y-97365000D03*
X107800000Y-96095000D03*
X134300000Y-94905000D03*
X134300000Y-93635000D03*
X134300000Y-92365000D03*
X134300000Y-91095000D03*
X139700000Y-91095000D03*
X139700000Y-92365000D03*
X139700000Y-93635000D03*
X139700000Y-94905000D03*
D22*
X54062540Y-82999100D03*
X54062540Y-87999100D03*
D32*
X51362540Y-81999100D03*
X51362540Y-88999100D03*
D33*
X52250000Y-106250000D03*
D34*
X52250000Y-108790000D03*
X52250000Y-111330000D03*
X52250000Y-113870000D03*
X52250000Y-116410000D03*
X52250000Y-118950000D03*
D13*
X68945000Y-89000000D03*
X71055000Y-89000000D03*
D35*
X146140000Y-52110000D03*
X137500000Y-52110000D03*
D36*
X146140000Y-56290000D03*
X137500000Y-56290000D03*
D35*
X137360000Y-118890000D03*
X146000000Y-118890000D03*
D36*
X137360000Y-114710000D03*
X146000000Y-114710000D03*
D37*
X119500000Y-119500000D03*
X133000000Y-119000000D03*
X132000000Y-116000000D03*
X119500000Y-114000000D03*
X103000000Y-107000000D03*
X133500000Y-51500000D03*
X119500000Y-51500000D03*
X119500000Y-57500000D03*
X106000000Y-60500000D03*
X103000000Y-82000000D03*
X99500000Y-83500000D03*
X84000000Y-73500000D03*
X63000000Y-70500000D03*
X83000000Y-82500000D03*
X60500000Y-91000000D03*
X89500000Y-88500000D03*
X77000000Y-86500000D03*
X86000000Y-64000000D03*
X137000000Y-94500000D03*
X76000000Y-90500000D03*
X114500000Y-94000000D03*
X110500000Y-95000000D03*
X102500000Y-99500000D03*
X93000000Y-95500000D03*
X94500000Y-89000000D03*
X57500000Y-88500000D03*
X66000000Y-66000000D03*
X80500000Y-75000000D03*
X75000000Y-100500000D03*
X116000000Y-85500000D03*
X81500000Y-101000000D03*
X92500000Y-79500000D03*
X113000000Y-61500000D03*
X104000000Y-114000000D03*
X54500000Y-113000000D03*
X54500000Y-104500000D03*
X72000000Y-115500000D03*
X52000000Y-97500000D03*
X60500000Y-104500000D03*
X120698400Y-93208000D03*
X112094200Y-78458100D03*
X112759900Y-93364700D03*
X124600000Y-98199400D03*
X63045100Y-85499100D03*
X69987400Y-92106000D03*
X77041400Y-113542800D03*
X93257900Y-87329900D03*
X94929400Y-85658400D03*
X95248300Y-97699000D03*
X111500000Y-97655500D03*
X102386000Y-83664400D03*
X99894900Y-86204100D03*
X144500000Y-58000000D03*
X139000000Y-58000000D03*
X122500000Y-117500000D03*
X126635000Y-117715000D03*
X124500000Y-56500000D03*
X127500000Y-56500000D03*
X125000000Y-115000000D03*
X128000000Y-115150000D03*
X123000000Y-54000000D03*
X128500000Y-53000000D03*
X139000000Y-113000000D03*
X144500000Y-113000000D03*
X140000000Y-55500000D03*
X143500000Y-55500000D03*
X140000000Y-115500000D03*
X143500000Y-115500000D03*
X63170400Y-84690600D03*
D38*
X62340000Y-73000000D02*
X77540000Y-73000000D01*
X62300000Y-72960000D02*
X62340000Y-73000000D01*
X61000000Y-72960000D02*
X62300000Y-72960000D01*
X101910000Y-85440000D02*
X102000000Y-85350000D01*
X101910000Y-96095000D02*
X101910000Y-85440000D01*
X141865000Y-93635000D02*
X139700000Y-93635000D01*
X143000000Y-92500000D02*
X141865000Y-93635000D01*
X143000000Y-86500000D02*
X143000000Y-92500000D01*
X140000000Y-83500000D02*
X143000000Y-86500000D01*
X106600000Y-83500000D02*
X140000000Y-83500000D01*
X80600000Y-87600000D02*
X80600000Y-89000000D01*
X78400000Y-85400000D02*
X80600000Y-87600000D01*
X78400000Y-84000000D02*
X78400000Y-85400000D01*
X77540000Y-73540000D02*
X77540000Y-73000000D01*
X78400000Y-74400000D02*
X77540000Y-73540000D01*
X78400000Y-78000000D02*
X78400000Y-74400000D01*
X77540000Y-73000000D02*
X77540000Y-70000000D01*
X78400000Y-78000000D02*
X78400000Y-81000000D01*
X78400000Y-81000000D02*
X78400000Y-84000000D01*
X96000000Y-86500000D02*
X97150000Y-85350000D01*
X89000000Y-86500000D02*
X96000000Y-86500000D01*
X86500000Y-89000000D02*
X89000000Y-86500000D01*
X80600000Y-89000000D02*
X86500000Y-89000000D01*
X97150000Y-85350000D02*
X97150000Y-82945000D01*
X106600000Y-83500000D02*
X106600000Y-80500000D01*
X97150000Y-85350000D02*
X102000000Y-85350000D01*
X106600000Y-84900000D02*
X106600000Y-83500000D01*
X106150000Y-85350000D02*
X106600000Y-84900000D01*
X102000000Y-85350000D02*
X106150000Y-85350000D01*
X98100000Y-99905000D02*
X101910000Y-96095000D01*
X96650000Y-99905000D02*
X98100000Y-99905000D01*
X101910000Y-96095000D02*
X107800000Y-96095000D01*
D39*
X106600000Y-77500000D02*
X106450000Y-77500000D01*
D38*
X106600000Y-80500000D02*
X106600000Y-77500000D01*
X106600000Y-77500000D02*
X106600000Y-74500000D01*
X72200000Y-89000000D02*
X71055000Y-89000000D01*
X77200000Y-84000000D02*
X72200000Y-89000000D01*
X78400000Y-84000000D02*
X77200000Y-84000000D01*
D40*
X54500000Y-104500000D02*
X54500000Y-113000000D01*
X60500000Y-104500000D02*
X54500000Y-104500000D01*
X52000000Y-102000000D02*
X54500000Y-104500000D01*
X51362540Y-96862540D02*
X51362540Y-88999100D01*
X51362540Y-96862540D02*
X52000000Y-97500000D01*
X52000000Y-97500000D02*
X52000000Y-102000000D01*
D39*
X135425300Y-88275000D02*
X135900000Y-87800300D01*
X135425300Y-91095000D02*
X135425300Y-88275000D01*
X135900000Y-87000000D02*
X135900000Y-87800300D01*
X122400000Y-99500000D02*
X121924900Y-99500000D01*
X121924900Y-99500000D02*
X121449700Y-99500000D01*
X134862700Y-91095000D02*
X135425300Y-91095000D01*
X134862700Y-91095000D02*
X134300000Y-91095000D01*
X122550000Y-98874900D02*
X122550000Y-97255700D01*
X121924900Y-99500000D02*
X122550000Y-98874900D01*
X121044700Y-99905000D02*
X113200000Y-99905000D01*
X121449700Y-99500000D02*
X121044700Y-99905000D01*
X75000000Y-70000000D02*
X73749700Y-70000000D01*
X68945000Y-95000000D02*
X69795300Y-95000000D01*
X89350000Y-96095000D02*
X88149700Y-96095000D01*
X129436900Y-91095000D02*
X134300000Y-91095000D01*
X125892700Y-94639200D02*
X129436900Y-91095000D01*
X125892700Y-96592200D02*
X125892700Y-94639200D01*
X125229200Y-97255700D02*
X125892700Y-96592200D01*
X122550000Y-97255700D02*
X125229200Y-97255700D01*
X90400000Y-91000000D02*
X90400000Y-91800300D01*
X87127500Y-95072800D02*
X90400000Y-91800300D01*
X86254300Y-94199600D02*
X87127500Y-95072800D01*
X79801100Y-94199600D02*
X86254300Y-94199600D01*
X79350400Y-94650300D02*
X79801100Y-94199600D01*
X79350400Y-95642000D02*
X79350400Y-94650300D01*
X79126900Y-95865500D02*
X79350400Y-95642000D01*
X70421600Y-95865500D02*
X79126900Y-95865500D01*
X69795300Y-95239200D02*
X70421600Y-95865500D01*
X69795300Y-95000000D02*
X69795300Y-95239200D01*
X87127500Y-95072800D02*
X88149700Y-96095000D01*
X122550000Y-97255700D02*
X122550000Y-96500000D01*
X122400000Y-95624700D02*
X122400000Y-93900100D01*
X122550000Y-95774700D02*
X122400000Y-95624700D01*
X122550000Y-96500000D02*
X122550000Y-95774700D01*
X122400000Y-93500000D02*
X122400000Y-93700000D01*
X122400000Y-93700000D02*
X122400000Y-93900100D01*
X111498900Y-77862800D02*
X111498900Y-76950000D01*
X112094200Y-78458100D02*
X111498900Y-77862800D01*
X121190400Y-93700000D02*
X120698400Y-93208000D01*
X122400000Y-93700000D02*
X121190400Y-93700000D01*
X87850000Y-74055000D02*
X88950300Y-74055000D01*
X75000000Y-70000000D02*
X76250300Y-70000000D01*
X90184400Y-67812200D02*
X88950300Y-69046300D01*
X110609100Y-67812200D02*
X90184400Y-67812200D01*
X111830000Y-69033100D02*
X110609100Y-67812200D01*
X111830000Y-72661000D02*
X111830000Y-69033100D01*
X112749700Y-73580700D02*
X111830000Y-72661000D01*
X112749700Y-75605400D02*
X112749700Y-73580700D01*
X112155500Y-76199600D02*
X112749700Y-75605400D01*
X111498900Y-76199600D02*
X112155500Y-76199600D01*
X88950300Y-74055000D02*
X88950300Y-69046300D01*
X76250300Y-69081900D02*
X76250300Y-70000000D01*
X76989500Y-68342700D02*
X76250300Y-69081900D01*
X88246700Y-68342700D02*
X76989500Y-68342700D01*
X88950300Y-69046300D02*
X88246700Y-68342700D01*
X51362500Y-88999100D02*
X51362500Y-87748800D01*
X54062500Y-87748800D02*
X51362500Y-87748800D01*
X54062500Y-82999100D02*
X54062500Y-87748800D01*
X54062500Y-87748800D02*
X54062500Y-87999100D01*
X111498900Y-76950000D02*
X111498900Y-76574800D01*
X111498900Y-76574800D02*
X111498900Y-76199600D01*
X105499600Y-75825100D02*
X104550000Y-76774700D01*
X105499600Y-73989100D02*
X105499600Y-75825100D01*
X105789100Y-73699600D02*
X105499600Y-73989100D01*
X108311000Y-73699600D02*
X105789100Y-73699600D01*
X111186200Y-76574800D02*
X108311000Y-73699600D01*
X111498900Y-76574800D02*
X111186200Y-76574800D01*
X104550000Y-77500000D02*
X104550000Y-76774700D01*
X68945000Y-92000000D02*
X68323200Y-92000000D01*
X68323200Y-93527900D02*
X68945000Y-94149700D01*
X68323200Y-92000000D02*
X68323200Y-93527900D01*
X68945000Y-95000000D02*
X68945000Y-94149700D01*
X59949700Y-76989700D02*
X61000000Y-78040000D01*
X59949700Y-72092900D02*
X59949700Y-76989700D01*
X60146100Y-71896500D02*
X59949700Y-72092900D01*
X71853200Y-71896500D02*
X60146100Y-71896500D01*
X73749700Y-70000000D02*
X71853200Y-71896500D01*
X61000000Y-84676800D02*
X68323200Y-92000000D01*
X61000000Y-78040000D02*
X61000000Y-84676800D01*
X124600000Y-87500000D02*
X124600000Y-90500000D01*
X124600000Y-90500000D02*
X124600000Y-93500000D01*
X124450000Y-94450300D02*
X124450000Y-96500000D01*
X124600000Y-94300300D02*
X124450000Y-94450300D01*
X124600000Y-93500000D02*
X124600000Y-94300300D01*
X112900000Y-88000000D02*
X112900000Y-91000000D01*
X105875300Y-90600000D02*
X105725300Y-90450000D01*
X108000000Y-90600000D02*
X105875300Y-90600000D01*
X105000000Y-90450000D02*
X105725300Y-90450000D01*
X113200000Y-96095000D02*
X112074700Y-96095000D01*
X112900000Y-91000000D02*
X112900000Y-91800300D01*
X108000000Y-90600000D02*
X108800300Y-90600000D01*
X110825900Y-92625600D02*
X108800300Y-90600000D01*
X112074700Y-92625600D02*
X110825900Y-92625600D01*
X112074700Y-96095000D02*
X112074700Y-92625600D01*
X112074700Y-92625600D02*
X112900000Y-91800300D01*
X121660000Y-91300300D02*
X122400000Y-91300300D01*
X114325300Y-98635000D02*
X121660000Y-91300300D01*
X122400000Y-90500000D02*
X122400000Y-91300300D01*
X113637600Y-98635000D02*
X114325300Y-98635000D01*
X107049700Y-88550000D02*
X107199700Y-88400000D01*
X105000000Y-88550000D02*
X107049700Y-88550000D01*
X108000000Y-88400000D02*
X107199700Y-88400000D01*
X105000000Y-88550000D02*
X104274700Y-88550000D01*
X113637600Y-98635000D02*
X113200000Y-98635000D01*
X113200000Y-98635000D02*
X112074700Y-98635000D01*
X111559900Y-98635000D02*
X112074700Y-98635000D01*
X110849700Y-97924800D02*
X111559900Y-98635000D01*
X110849700Y-97502500D02*
X110849700Y-97924800D01*
X106769700Y-93422500D02*
X110849700Y-97502500D01*
X106492100Y-93422500D02*
X106769700Y-93422500D01*
X104274700Y-91205100D02*
X106492100Y-93422500D01*
X104274700Y-88550000D02*
X104274700Y-91205100D01*
X129000000Y-94950000D02*
X129725300Y-94950000D01*
X131040300Y-93635000D02*
X134300000Y-93635000D01*
X129725300Y-94950000D02*
X131040300Y-93635000D01*
X134300000Y-93635000D02*
X135425300Y-93635000D01*
X115100000Y-88000000D02*
X115100000Y-88800300D01*
X114149600Y-89750700D02*
X115100000Y-88800300D01*
X114149600Y-91636100D02*
X114149600Y-89750700D01*
X114319000Y-91805500D02*
X114149600Y-91636100D01*
X116007200Y-91805500D02*
X114319000Y-91805500D01*
X121613000Y-86199700D02*
X116007200Y-91805500D01*
X136645200Y-86199700D02*
X121613000Y-86199700D01*
X136850400Y-86404900D02*
X136645200Y-86199700D01*
X136850400Y-92209900D02*
X136850400Y-86404900D01*
X135425300Y-93635000D02*
X136850400Y-92209900D01*
X112759900Y-93364600D02*
X112759900Y-93364700D01*
X114319000Y-91805500D02*
X112759900Y-93364600D01*
X130410300Y-92365000D02*
X129725300Y-93050000D01*
X134300000Y-92365000D02*
X130410300Y-92365000D01*
X129000000Y-93050000D02*
X129725300Y-93050000D01*
X129000000Y-93050000D02*
X128274700Y-93050000D01*
X124600000Y-99500000D02*
X124600000Y-98199400D01*
X128274700Y-94917700D02*
X128274700Y-93050000D01*
X124993000Y-98199400D02*
X128274700Y-94917700D01*
X124600000Y-98199400D02*
X124993000Y-98199400D01*
X75705700Y-88199600D02*
X71905300Y-92000000D01*
X79159900Y-88199600D02*
X75705700Y-88199600D01*
X79391800Y-88431500D02*
X79159900Y-88199600D01*
X79391800Y-93207900D02*
X79391800Y-88431500D01*
X78400000Y-94199700D02*
X79391800Y-93207900D01*
X78400000Y-95000000D02*
X78400000Y-94199700D01*
X71055000Y-92000000D02*
X71905300Y-92000000D01*
X67899500Y-90353500D02*
X63045100Y-85499100D01*
X69408500Y-90353500D02*
X67899500Y-90353500D01*
X71055000Y-92000000D02*
X69408500Y-90353500D01*
X71055000Y-95000000D02*
X71905300Y-95000000D01*
X69987400Y-93082100D02*
X71055000Y-94149700D01*
X69987400Y-92106000D02*
X69987400Y-93082100D01*
X71055000Y-95000000D02*
X71055000Y-94149700D01*
X74905300Y-92000000D02*
X71905300Y-95000000D01*
X78400000Y-92000000D02*
X74905300Y-92000000D01*
X78400000Y-89000000D02*
X78400000Y-89800300D01*
X78400000Y-92000000D02*
X78400000Y-89800300D01*
X98749300Y-91000000D02*
X98749300Y-91749100D01*
X96650000Y-97365000D02*
X97850300Y-97365000D01*
X97850300Y-95418600D02*
X97850300Y-97365000D01*
X98749300Y-94519600D02*
X98749300Y-91749100D01*
X97850300Y-95418600D02*
X98749300Y-94519600D01*
X77041400Y-113051700D02*
X77041400Y-113542800D01*
X84205500Y-105887600D02*
X77041400Y-113051700D01*
X85041800Y-105887600D02*
X84205500Y-105887600D01*
X94216000Y-96713400D02*
X85041800Y-105887600D01*
X94216000Y-96619300D02*
X94216000Y-96713400D01*
X95416700Y-95418600D02*
X94216000Y-96619300D01*
X97850300Y-95418600D02*
X95416700Y-95418600D01*
X92600000Y-91000000D02*
X97250700Y-91000000D01*
X82620000Y-75005300D02*
X82620000Y-70000000D01*
X86749700Y-79135000D02*
X82620000Y-75005300D01*
X87850000Y-79135000D02*
X86749700Y-79135000D01*
X85160000Y-76275300D02*
X85160000Y-70000000D01*
X86749700Y-77865000D02*
X85160000Y-76275300D01*
X87850000Y-77865000D02*
X86749700Y-77865000D01*
X86749700Y-72600600D02*
X87700000Y-71650300D01*
X86749700Y-76595000D02*
X86749700Y-72600600D01*
X87850000Y-76595000D02*
X86749700Y-76595000D01*
X87700000Y-70000000D02*
X87700000Y-71650300D01*
X99149700Y-73155600D02*
X99149700Y-70000000D01*
X98250300Y-74055000D02*
X99149700Y-73155600D01*
X97150000Y-74055000D02*
X98250300Y-74055000D01*
X100400000Y-70000000D02*
X99149700Y-70000000D01*
X102940000Y-70635300D02*
X102940000Y-70000000D01*
X98250300Y-75325000D02*
X102940000Y-70635300D01*
X97150000Y-75325000D02*
X98250300Y-75325000D01*
X104229700Y-70918100D02*
X104229700Y-70000000D01*
X98552800Y-76595000D02*
X104229700Y-70918100D01*
X97150000Y-76595000D02*
X98552800Y-76595000D01*
X105480000Y-70000000D02*
X104229700Y-70000000D01*
X106769700Y-70918100D02*
X106769700Y-70000000D01*
X105770900Y-71916900D02*
X106769700Y-70918100D01*
X104198400Y-71916900D02*
X105770900Y-71916900D01*
X98250300Y-77865000D02*
X104198400Y-71916900D01*
X97150000Y-77865000D02*
X98250300Y-77865000D01*
X108020000Y-70000000D02*
X106769700Y-70000000D01*
X114501100Y-70150800D02*
X114350300Y-70000000D01*
X114501100Y-76000000D02*
X114501100Y-70150800D01*
X113100000Y-70000000D02*
X114350300Y-70000000D01*
X50823000Y-115903900D02*
X51643000Y-115083900D01*
X51643000Y-115083900D02*
X52250000Y-115083900D01*
X52250000Y-113870000D02*
X52250000Y-115083900D01*
X80600000Y-92000000D02*
X80600000Y-91199700D01*
X89350000Y-98635000D02*
X90550300Y-98635000D01*
X89350000Y-98635000D02*
X88149700Y-98635000D01*
X103354700Y-80405000D02*
X103449700Y-80500000D01*
X97150000Y-80405000D02*
X103354700Y-80405000D01*
X104400000Y-80500000D02*
X103449700Y-80500000D01*
X96049700Y-84538100D02*
X94929400Y-85658400D01*
X96049700Y-80405000D02*
X96049700Y-84538100D01*
X97150000Y-80405000D02*
X96049700Y-80405000D01*
X50823000Y-116897000D02*
X50823000Y-115903900D01*
X51606000Y-117680000D02*
X50823000Y-116897000D01*
X70997700Y-117680000D02*
X51606000Y-117680000D01*
X87280200Y-101397500D02*
X70997700Y-117680000D01*
X87280200Y-99504500D02*
X87280200Y-101397500D01*
X88149700Y-98635000D02*
X87280200Y-99504500D01*
X91181600Y-89406200D02*
X93257900Y-87329900D01*
X91181600Y-90199600D02*
X91181600Y-89406200D01*
X81600100Y-90199600D02*
X91181600Y-90199600D01*
X80600000Y-91199700D02*
X81600100Y-90199600D01*
X91350400Y-97834900D02*
X90550300Y-98635000D01*
X91350400Y-90368400D02*
X91350400Y-97834900D01*
X91181600Y-90199600D02*
X91350400Y-90368400D01*
X89350000Y-97365000D02*
X88149700Y-97365000D01*
X80600000Y-97365000D02*
X88149700Y-97365000D01*
X80600000Y-97365000D02*
X80600000Y-95000000D01*
X69743000Y-116410000D02*
X52250000Y-116410000D01*
X76842900Y-109310100D02*
X69743000Y-116410000D01*
X76842900Y-101122100D02*
X76842900Y-109310100D01*
X80600000Y-97365000D02*
X76842900Y-101122100D01*
X114325300Y-96375000D02*
X122400000Y-88300300D01*
X114325300Y-97365000D02*
X114325300Y-96375000D01*
X113200000Y-97365000D02*
X114325300Y-97365000D01*
X122400000Y-87500000D02*
X122400000Y-88300300D01*
X96650000Y-96095000D02*
X95449700Y-96095000D01*
X95449700Y-97497600D02*
X95248300Y-97699000D01*
X95449700Y-96095000D02*
X95449700Y-97497600D01*
X95248300Y-100211600D02*
X95248300Y-97699000D01*
X95617100Y-100580400D02*
X95248300Y-100211600D01*
X105999300Y-100580400D02*
X95617100Y-100580400D01*
X106674700Y-99905000D02*
X105999300Y-100580400D01*
X107800000Y-99905000D02*
X106674700Y-99905000D01*
X111790500Y-97365000D02*
X113200000Y-97365000D01*
X111500000Y-97655500D02*
X111790500Y-97365000D01*
X104400000Y-83500000D02*
X104400000Y-82824800D01*
X99894900Y-96590400D02*
X99894900Y-86204100D01*
X97850300Y-98635000D02*
X99894900Y-96590400D01*
X102386000Y-82824800D02*
X104400000Y-82824800D01*
X101236200Y-81675000D02*
X102386000Y-82824800D01*
X97150000Y-81675000D02*
X101236200Y-81675000D01*
X102386000Y-82824800D02*
X102386000Y-83664400D01*
X96650000Y-98635000D02*
X97850300Y-98635000D01*
X139000000Y-58000000D02*
X144500000Y-58000000D01*
X73003000Y-60886200D02*
X71887100Y-62002100D01*
X80689900Y-60886200D02*
X73003000Y-60886200D01*
X81804700Y-62001000D02*
X80689900Y-60886200D01*
X93500000Y-62001000D02*
X81804700Y-62001000D01*
X56319200Y-93680800D02*
X54500000Y-95500000D01*
X56319200Y-73523200D02*
X56319200Y-93680800D01*
X67840300Y-62002100D02*
X56319200Y-73523200D01*
X71887100Y-62002100D02*
X67840300Y-62002100D01*
X58924600Y-91524600D02*
X62900000Y-95500000D01*
X58924600Y-71680500D02*
X58924600Y-91524600D01*
X61236400Y-69368700D02*
X58924600Y-71680500D01*
X66518900Y-69368700D02*
X61236400Y-69368700D01*
X73885500Y-62002100D02*
X66518900Y-69368700D01*
X74427100Y-62002100D02*
X73885500Y-62002100D01*
X127500000Y-56500000D02*
X124500000Y-56500000D01*
X124000000Y-117500000D02*
X122500000Y-117500000D01*
X124500000Y-118000000D02*
X124000000Y-117500000D01*
X125926000Y-118000000D02*
X124500000Y-118000000D01*
X126210000Y-117715000D02*
X125926000Y-118000000D01*
X126635000Y-117715000D02*
X126210000Y-117715000D01*
X101961000Y-117500000D02*
X93460000Y-108999000D01*
X122500000Y-117500000D02*
X101961000Y-117500000D01*
X117000000Y-64000000D02*
X96040000Y-64000000D01*
X124500000Y-56500000D02*
X117000000Y-64000000D01*
X79596700Y-65139700D02*
X76459100Y-62002100D01*
X94900300Y-65139700D02*
X79596700Y-65139700D01*
X96040000Y-64000000D02*
X94900300Y-65139700D01*
X74780400Y-63680800D02*
X76459100Y-62002100D01*
X72914500Y-63680800D02*
X74780400Y-63680800D01*
X65199200Y-71396100D02*
X72914500Y-63680800D01*
X59934800Y-71396100D02*
X65199200Y-71396100D01*
X59425000Y-71905900D02*
X59934800Y-71396100D01*
X59425000Y-87598800D02*
X59425000Y-71905900D01*
X75572900Y-103746700D02*
X59425000Y-87598800D01*
X75572900Y-108997900D02*
X75572900Y-103746700D01*
X144500000Y-113000000D02*
X139000000Y-113000000D01*
X143500000Y-55500000D02*
X140000000Y-55500000D01*
X125150000Y-115150000D02*
X125000000Y-115000000D01*
X128000000Y-115150000D02*
X125150000Y-115150000D01*
X118999000Y-108999000D02*
X125000000Y-115000000D01*
X96000000Y-108999000D02*
X118999000Y-108999000D01*
X143500000Y-56035300D02*
X143500000Y-55500000D01*
X146351100Y-58886400D02*
X143500000Y-56035300D01*
X146351100Y-111148900D02*
X146351100Y-58886400D01*
X144500000Y-113000000D02*
X146351100Y-111148900D01*
X123500000Y-54000000D02*
X123000000Y-54000000D01*
X124500000Y-53000000D02*
X123500000Y-54000000D01*
X128500000Y-53000000D02*
X124500000Y-53000000D01*
X94770000Y-62730000D02*
X93500000Y-64000000D01*
X94770000Y-61619200D02*
X94770000Y-62730000D01*
X100369700Y-56019500D02*
X94770000Y-61619200D01*
X120980500Y-56019500D02*
X100369700Y-56019500D01*
X123000000Y-54000000D02*
X120980500Y-56019500D01*
X124500900Y-54562500D02*
X129500900Y-54562500D01*
X130100300Y-52987800D02*
X129500900Y-53587200D01*
X130500900Y-52987800D02*
X130100300Y-52987800D01*
X129500900Y-54562500D02*
X129500900Y-53587200D01*
X130500900Y-51862500D02*
X130500900Y-52987800D01*
X143500000Y-115500000D02*
X140000000Y-115500000D01*
X129499100Y-116437500D02*
X129499100Y-117232400D01*
X128704200Y-116437500D02*
X124499100Y-116437500D01*
X129499100Y-117232400D02*
X128704200Y-116437500D01*
X130278900Y-118012200D02*
X129499100Y-117232400D01*
X130499100Y-118012200D02*
X130278900Y-118012200D01*
X130499100Y-119137500D02*
X130499100Y-118012200D01*
X111498900Y-75050000D02*
X111498900Y-74299600D01*
X104400000Y-74500000D02*
X104400000Y-73699700D01*
X106683200Y-72090700D02*
X109290000Y-72090700D01*
X105074200Y-73699700D02*
X106683200Y-72090700D01*
X104400000Y-73699700D02*
X105074200Y-73699700D01*
X109290000Y-69021200D02*
X109290000Y-72090700D01*
X108593100Y-68324300D02*
X109290000Y-69021200D01*
X97365500Y-68324300D02*
X108593100Y-68324300D01*
X96590000Y-69099800D02*
X97365500Y-68324300D01*
X96590000Y-70919200D02*
X96590000Y-69099800D01*
X92184200Y-75325000D02*
X96590000Y-70919200D01*
X87850000Y-75325000D02*
X92184200Y-75325000D01*
X109290000Y-72090700D02*
X111498900Y-74299600D01*
X85694700Y-84000000D02*
X80600000Y-84000000D01*
X86749700Y-82945000D02*
X85694700Y-84000000D01*
X87850000Y-82945000D02*
X86749700Y-82945000D01*
X82225300Y-81675000D02*
X81550300Y-81000000D01*
X87850000Y-81675000D02*
X82225300Y-81675000D01*
X80600000Y-81000000D02*
X81550300Y-81000000D01*
X82204700Y-80405000D02*
X80600000Y-78800300D01*
X87850000Y-80405000D02*
X82204700Y-80405000D01*
X80600000Y-78000000D02*
X80600000Y-78800300D01*
X138100000Y-87000000D02*
X138100000Y-86199700D01*
X115100000Y-91000000D02*
X115100000Y-90199700D01*
X138574700Y-88275000D02*
X138100000Y-87800300D01*
X138574700Y-91095000D02*
X138574700Y-88275000D01*
X139700000Y-91095000D02*
X138574700Y-91095000D01*
X138100000Y-87000000D02*
X138100000Y-87800300D01*
X119600300Y-85699400D02*
X115100000Y-90199700D01*
X137599700Y-85699400D02*
X119600300Y-85699400D01*
X138100000Y-86199700D02*
X137599700Y-85699400D01*
X138574700Y-98725000D02*
X138100000Y-99199700D01*
X138574700Y-94905000D02*
X138574700Y-98725000D01*
X139700000Y-94905000D02*
X138574700Y-94905000D01*
X138100000Y-100000000D02*
X138100000Y-99199700D01*
X135425300Y-98725000D02*
X135900000Y-99199700D01*
X135425300Y-94905000D02*
X135425300Y-98725000D01*
X134300000Y-94905000D02*
X135425300Y-94905000D01*
X135900000Y-100000000D02*
X135900000Y-99199700D01*
X108925300Y-97365000D02*
X108925300Y-98635000D01*
X107800000Y-97365000D02*
X108925300Y-97365000D01*
X107800000Y-98635000D02*
X108925300Y-98635000D01*
X88149700Y-101235700D02*
X88149700Y-99905000D01*
X70435400Y-118950000D02*
X88149700Y-101235700D01*
X52250000Y-118950000D02*
X70435400Y-118950000D01*
X89350000Y-99905000D02*
X88149700Y-99905000D01*
X68945000Y-89000000D02*
X68094700Y-89000000D01*
X63785300Y-84690600D02*
X63170400Y-84690600D01*
X68094700Y-89000000D02*
X63785300Y-84690600D01*
D41*
G36*
X136697434Y-50877362D02*
X136451397Y-51245582D01*
X136365000Y-51679928D01*
X136365000Y-52540072D01*
X136451397Y-52974418D01*
X136697434Y-53342638D01*
X137065654Y-53588675D01*
X137500000Y-53675072D01*
X137934346Y-53588675D01*
X138302566Y-53342638D01*
X138548603Y-52974418D01*
X138635000Y-52540072D01*
X138635000Y-51679928D01*
X138548603Y-51245582D01*
X138302566Y-50877362D01*
X138052091Y-50710000D01*
X145587909Y-50710000D01*
X145337434Y-50877362D01*
X145091397Y-51245582D01*
X145005000Y-51679928D01*
X145005000Y-52540072D01*
X145091397Y-52974418D01*
X145337434Y-53342638D01*
X145705654Y-53588675D01*
X146140000Y-53675072D01*
X146574346Y-53588675D01*
X146942566Y-53342638D01*
X147188603Y-52974418D01*
X147275000Y-52540072D01*
X147275000Y-51679928D01*
X147188603Y-51245582D01*
X146942566Y-50877362D01*
X146692091Y-50710000D01*
X149290000Y-50710000D01*
X149290000Y-120290000D01*
X146552091Y-120290000D01*
X146802566Y-120122638D01*
X147048603Y-119754418D01*
X147135000Y-119320072D01*
X147135000Y-118459928D01*
X147048603Y-118025582D01*
X146802566Y-117657362D01*
X146434346Y-117411325D01*
X146000000Y-117324928D01*
X145565654Y-117411325D01*
X145197434Y-117657362D01*
X144951397Y-118025582D01*
X144865000Y-118459928D01*
X144865000Y-119320072D01*
X144951397Y-119754418D01*
X145197434Y-120122638D01*
X145447909Y-120290000D01*
X137912091Y-120290000D01*
X138162566Y-120122638D01*
X138408603Y-119754418D01*
X138495000Y-119320072D01*
X138495000Y-118459928D01*
X138408603Y-118025582D01*
X138162566Y-117657362D01*
X137794346Y-117411325D01*
X137360000Y-117324928D01*
X136925654Y-117411325D01*
X136557434Y-117657362D01*
X136311397Y-118025582D01*
X136225000Y-118459928D01*
X136225000Y-119320072D01*
X136311397Y-119754418D01*
X136557434Y-120122638D01*
X136807909Y-120290000D01*
X131418442Y-120290000D01*
X131651193Y-120134481D01*
X131956842Y-119677044D01*
X132064172Y-119137460D01*
X131956842Y-118597876D01*
X131651193Y-118140439D01*
X131257250Y-117877215D01*
X131224345Y-117711794D01*
X131054179Y-117457121D01*
X130799506Y-117286955D01*
X130630120Y-117253262D01*
X130526201Y-117149343D01*
X130663188Y-116944326D01*
X130759100Y-116462145D01*
X130759100Y-116412775D01*
X130663188Y-115930594D01*
X130390055Y-115521820D01*
X129981281Y-115248687D01*
X129499100Y-115152775D01*
X129016919Y-115248687D01*
X128934867Y-115303512D01*
X128935162Y-114964833D01*
X128793117Y-114621057D01*
X128530327Y-114357808D01*
X128186799Y-114215162D01*
X127814833Y-114214838D01*
X127471057Y-114356883D01*
X127462926Y-114365000D01*
X125687245Y-114365000D01*
X125530327Y-114207808D01*
X125335695Y-114126989D01*
X136225000Y-114126989D01*
X136225000Y-115293011D01*
X136311397Y-115727357D01*
X136557434Y-116095577D01*
X136925654Y-116341614D01*
X137360000Y-116428011D01*
X137794346Y-116341614D01*
X138162566Y-116095577D01*
X138224717Y-116002562D01*
X138245493Y-116023374D01*
X138598206Y-116169833D01*
X138980118Y-116170167D01*
X139240472Y-116062591D01*
X139469673Y-116292192D01*
X139813201Y-116434838D01*
X140185167Y-116435162D01*
X140528943Y-116293117D01*
X140537074Y-116285000D01*
X142962494Y-116285000D01*
X142969673Y-116292192D01*
X143313201Y-116434838D01*
X143685167Y-116435162D01*
X144028943Y-116293117D01*
X144218764Y-116103627D01*
X144378206Y-116169833D01*
X144760118Y-116170167D01*
X145113086Y-116024323D01*
X145135124Y-116002324D01*
X145197434Y-116095577D01*
X145565654Y-116341614D01*
X146000000Y-116428011D01*
X146434346Y-116341614D01*
X146802566Y-116095577D01*
X147048603Y-115727357D01*
X147135000Y-115293011D01*
X147135000Y-114126989D01*
X147048603Y-113692643D01*
X146802566Y-113324423D01*
X146434346Y-113078386D01*
X146000000Y-112991989D01*
X145565654Y-113078386D01*
X145463545Y-113146613D01*
X146906179Y-111703979D01*
X147076345Y-111449306D01*
X147136100Y-111148900D01*
X147136100Y-58886400D01*
X147076345Y-58585994D01*
X147076345Y-58585993D01*
X146906179Y-58331321D01*
X146509392Y-57934534D01*
X146574346Y-57921614D01*
X146942566Y-57675577D01*
X147188603Y-57307357D01*
X147275000Y-56873011D01*
X147275000Y-55706989D01*
X147188603Y-55272643D01*
X146942566Y-54904423D01*
X146574346Y-54658386D01*
X146140000Y-54571989D01*
X145705654Y-54658386D01*
X145337434Y-54904423D01*
X145275283Y-54997438D01*
X145254507Y-54976626D01*
X144901794Y-54830167D01*
X144519882Y-54829833D01*
X144259528Y-54937409D01*
X144030327Y-54707808D01*
X143686799Y-54565162D01*
X143314833Y-54564838D01*
X142971057Y-54706883D01*
X142962926Y-54715000D01*
X140537506Y-54715000D01*
X140530327Y-54707808D01*
X140186799Y-54565162D01*
X139814833Y-54564838D01*
X139471057Y-54706883D01*
X139281236Y-54896373D01*
X139121794Y-54830167D01*
X138739882Y-54829833D01*
X138386914Y-54975677D01*
X138364876Y-54997676D01*
X138302566Y-54904423D01*
X137934346Y-54658386D01*
X137500000Y-54571989D01*
X137065654Y-54658386D01*
X136697434Y-54904423D01*
X136451397Y-55272643D01*
X136365000Y-55706989D01*
X136365000Y-56873011D01*
X136451397Y-57307357D01*
X136697434Y-57675577D01*
X137065654Y-57921614D01*
X137500000Y-58008011D01*
X137934346Y-57921614D01*
X138065144Y-57834218D01*
X138064838Y-58185167D01*
X138206883Y-58528943D01*
X138469673Y-58792192D01*
X138813201Y-58934838D01*
X139185167Y-58935162D01*
X139528943Y-58793117D01*
X139537074Y-58785000D01*
X143962494Y-58785000D01*
X143969673Y-58792192D01*
X144313201Y-58934838D01*
X144685167Y-58935162D01*
X145028943Y-58793117D01*
X145088353Y-58733811D01*
X145566100Y-59211558D01*
X145566100Y-68131156D01*
X144926021Y-67865372D01*
X144076665Y-67864630D01*
X143291680Y-68188980D01*
X142690571Y-68789041D01*
X142364852Y-69573459D01*
X142364110Y-70422815D01*
X142688460Y-71207800D01*
X143288521Y-71808909D01*
X144072939Y-72134628D01*
X144922295Y-72135370D01*
X145566100Y-71869355D01*
X145566100Y-99131856D01*
X144926021Y-98866072D01*
X144076665Y-98865330D01*
X143291680Y-99189680D01*
X142690571Y-99789741D01*
X142364852Y-100574159D01*
X142364110Y-101423515D01*
X142688460Y-102208500D01*
X143288521Y-102809609D01*
X144072939Y-103135328D01*
X144922295Y-103136070D01*
X145566100Y-102870055D01*
X145566100Y-110823742D01*
X144324995Y-112064847D01*
X144314833Y-112064838D01*
X143971057Y-112206883D01*
X143962926Y-112215000D01*
X139537506Y-112215000D01*
X139530327Y-112207808D01*
X139186799Y-112065162D01*
X138814833Y-112064838D01*
X138471057Y-112206883D01*
X138207808Y-112469673D01*
X138065162Y-112813201D01*
X138064838Y-113185167D01*
X138107050Y-113287328D01*
X137794346Y-113078386D01*
X137360000Y-112991989D01*
X136925654Y-113078386D01*
X136557434Y-113324423D01*
X136311397Y-113692643D01*
X136225000Y-114126989D01*
X125335695Y-114126989D01*
X125186799Y-114065162D01*
X125175310Y-114065152D01*
X119554079Y-108443921D01*
X119299407Y-108273755D01*
X118999000Y-108214000D01*
X97187209Y-108214000D01*
X97185010Y-108208677D01*
X96976168Y-107999470D01*
X97183629Y-107792370D01*
X97396757Y-107279100D01*
X97397242Y-106723339D01*
X97185010Y-106209697D01*
X96792370Y-105816371D01*
X96279100Y-105603243D01*
X95723339Y-105602758D01*
X95209697Y-105814990D01*
X94816371Y-106207630D01*
X94730051Y-106415512D01*
X94645010Y-106209697D01*
X94252370Y-105816371D01*
X93739100Y-105603243D01*
X93183339Y-105602758D01*
X92669697Y-105814990D01*
X92276371Y-106207630D01*
X92063243Y-106720900D01*
X92062758Y-107276661D01*
X92274990Y-107790303D01*
X92483832Y-107999510D01*
X92276371Y-108206610D01*
X92063243Y-108719880D01*
X92062758Y-109275641D01*
X92274990Y-109789283D01*
X92667630Y-110182609D01*
X93180900Y-110395737D01*
X93736661Y-110396222D01*
X93744022Y-110393180D01*
X101405919Y-118055076D01*
X101405921Y-118055079D01*
X101660594Y-118225245D01*
X101961000Y-118285000D01*
X121962494Y-118285000D01*
X121969673Y-118292192D01*
X122185678Y-118381886D01*
X122041358Y-118597876D01*
X121934028Y-119137460D01*
X122041358Y-119677044D01*
X122347007Y-120134481D01*
X122579758Y-120290000D01*
X53074872Y-120290000D01*
X53494415Y-120009670D01*
X53677944Y-119735000D01*
X70435400Y-119735000D01*
X70735807Y-119675245D01*
X70990479Y-119505079D01*
X76335972Y-114159586D01*
X76511073Y-114334992D01*
X76854601Y-114477638D01*
X77226567Y-114477962D01*
X77570343Y-114335917D01*
X77833592Y-114073127D01*
X77976238Y-113729599D01*
X77976562Y-113357633D01*
X77938278Y-113264980D01*
X79051925Y-112151333D01*
X79349950Y-112872607D01*
X79949974Y-113473680D01*
X80734345Y-113799379D01*
X81583649Y-113800120D01*
X82368587Y-113475790D01*
X82969660Y-112875766D01*
X83295061Y-112092111D01*
X86745166Y-112092111D01*
X87046729Y-112821949D01*
X87604634Y-113380829D01*
X88333945Y-113683665D01*
X89123631Y-113684354D01*
X89853469Y-113382791D01*
X90412349Y-112824886D01*
X90715185Y-112095575D01*
X90715874Y-111305889D01*
X90414311Y-110576051D01*
X89856406Y-110017171D01*
X89127095Y-109714335D01*
X88337409Y-109713646D01*
X87607571Y-110015209D01*
X87048691Y-110573114D01*
X86745855Y-111302425D01*
X86745166Y-112092111D01*
X83295061Y-112092111D01*
X83295359Y-112091395D01*
X83296100Y-111242091D01*
X82971770Y-110457153D01*
X82371746Y-109856080D01*
X81647790Y-109555468D01*
X84530658Y-106672600D01*
X85041800Y-106672600D01*
X85342207Y-106612845D01*
X85596879Y-106442679D01*
X94313276Y-97726282D01*
X94313138Y-97884167D01*
X94455183Y-98227943D01*
X94463300Y-98236074D01*
X94463300Y-100211600D01*
X94523055Y-100512007D01*
X94693221Y-100766679D01*
X95062021Y-101135479D01*
X95316693Y-101305645D01*
X95617100Y-101365400D01*
X105999300Y-101365400D01*
X106299707Y-101305645D01*
X106554379Y-101135479D01*
X106869007Y-100820851D01*
X107025000Y-100852440D01*
X108575000Y-100852440D01*
X108810317Y-100808162D01*
X109026441Y-100669090D01*
X109171431Y-100456890D01*
X109222440Y-100205000D01*
X109222440Y-100190750D01*
X111790000Y-100190750D01*
X111790000Y-100331310D01*
X111886673Y-100564699D01*
X112065302Y-100743327D01*
X112298691Y-100840000D01*
X112914250Y-100840000D01*
X113073000Y-100681250D01*
X113073000Y-100032000D01*
X113327000Y-100032000D01*
X113327000Y-100681250D01*
X113485750Y-100840000D01*
X114101309Y-100840000D01*
X114334698Y-100743327D01*
X114513327Y-100564699D01*
X114610000Y-100331310D01*
X114610000Y-100190750D01*
X114451250Y-100032000D01*
X113327000Y-100032000D01*
X113073000Y-100032000D01*
X111948750Y-100032000D01*
X111790000Y-100190750D01*
X109222440Y-100190750D01*
X109222440Y-99785750D01*
X121165000Y-99785750D01*
X121165000Y-100076310D01*
X121261673Y-100309699D01*
X121440302Y-100488327D01*
X121673691Y-100585000D01*
X122114250Y-100585000D01*
X122273000Y-100426250D01*
X122273000Y-99627000D01*
X121323750Y-99627000D01*
X121165000Y-99785750D01*
X109222440Y-99785750D01*
X109222440Y-99605000D01*
X109178165Y-99369701D01*
X109225706Y-99360245D01*
X109480379Y-99190079D01*
X109650545Y-98935406D01*
X109710300Y-98635000D01*
X109710300Y-97473258D01*
X110064700Y-97827658D01*
X110064700Y-97924800D01*
X110124455Y-98225207D01*
X110294621Y-98479879D01*
X111004819Y-99190076D01*
X111004821Y-99190079D01*
X111259494Y-99360245D01*
X111559900Y-99420000D01*
X111814310Y-99420000D01*
X111790000Y-99478690D01*
X111790000Y-99619250D01*
X111948750Y-99778000D01*
X113073000Y-99778000D01*
X113073000Y-99758000D01*
X113327000Y-99758000D01*
X113327000Y-99778000D01*
X114451250Y-99778000D01*
X114610000Y-99619250D01*
X114610000Y-99478690D01*
X114565869Y-99372148D01*
X114625707Y-99360245D01*
X114880379Y-99190079D01*
X115146768Y-98923690D01*
X121165000Y-98923690D01*
X121165000Y-99214250D01*
X121323750Y-99373000D01*
X122273000Y-99373000D01*
X122273000Y-98573750D01*
X122114250Y-98415000D01*
X121673691Y-98415000D01*
X121440302Y-98511673D01*
X121261673Y-98690301D01*
X121165000Y-98923690D01*
X115146768Y-98923690D01*
X117284708Y-96785750D01*
X121315000Y-96785750D01*
X121315000Y-97001310D01*
X121411673Y-97234699D01*
X121590302Y-97413327D01*
X121823691Y-97510000D01*
X122264250Y-97510000D01*
X122423000Y-97351250D01*
X122423000Y-96627000D01*
X121473750Y-96627000D01*
X121315000Y-96785750D01*
X117284708Y-96785750D01*
X118071768Y-95998690D01*
X121315000Y-95998690D01*
X121315000Y-96214250D01*
X121473750Y-96373000D01*
X122423000Y-96373000D01*
X122423000Y-95648750D01*
X122264250Y-95490000D01*
X121823691Y-95490000D01*
X121590302Y-95586673D01*
X121411673Y-95765301D01*
X121315000Y-95998690D01*
X118071768Y-95998690D01*
X120284708Y-93785750D01*
X121165000Y-93785750D01*
X121165000Y-94076310D01*
X121261673Y-94309699D01*
X121440302Y-94488327D01*
X121673691Y-94585000D01*
X122114250Y-94585000D01*
X122273000Y-94426250D01*
X122273000Y-93627000D01*
X121323750Y-93627000D01*
X121165000Y-93785750D01*
X120284708Y-93785750D01*
X121177892Y-92892566D01*
X121165000Y-92923690D01*
X121165000Y-93214250D01*
X121323750Y-93373000D01*
X122273000Y-93373000D01*
X122273000Y-92573750D01*
X122114250Y-92415000D01*
X121673691Y-92415000D01*
X121642565Y-92427893D01*
X121985158Y-92085300D01*
X122400000Y-92085300D01*
X122700406Y-92025545D01*
X122955079Y-91855379D01*
X123125245Y-91600706D01*
X123130790Y-91572830D01*
X123235317Y-91553162D01*
X123451441Y-91414090D01*
X123499134Y-91344289D01*
X123535910Y-91401441D01*
X123748110Y-91546431D01*
X123815000Y-91559977D01*
X123815000Y-92437370D01*
X123764683Y-92446838D01*
X123548559Y-92585910D01*
X123502031Y-92654006D01*
X123359698Y-92511673D01*
X123126309Y-92415000D01*
X122685750Y-92415000D01*
X122527000Y-92573750D01*
X122527000Y-93373000D01*
X122547000Y-93373000D01*
X122547000Y-93627000D01*
X122527000Y-93627000D01*
X122527000Y-94426250D01*
X122685750Y-94585000D01*
X123126309Y-94585000D01*
X123359698Y-94488327D01*
X123500936Y-94347090D01*
X123535910Y-94401441D01*
X123665000Y-94489644D01*
X123665000Y-95512370D01*
X123614683Y-95521838D01*
X123511354Y-95588329D01*
X123509698Y-95586673D01*
X123276309Y-95490000D01*
X122835750Y-95490000D01*
X122677000Y-95648750D01*
X122677000Y-96373000D01*
X122697000Y-96373000D01*
X122697000Y-96627000D01*
X122677000Y-96627000D01*
X122677000Y-97351250D01*
X122835750Y-97510000D01*
X123276309Y-97510000D01*
X123509698Y-97413327D01*
X123511068Y-97411957D01*
X123598110Y-97471431D01*
X123850000Y-97522440D01*
X123954697Y-97522440D01*
X123807808Y-97669073D01*
X123665162Y-98012601D01*
X123664838Y-98384567D01*
X123706135Y-98484513D01*
X123548559Y-98585910D01*
X123502031Y-98654006D01*
X123359698Y-98511673D01*
X123126309Y-98415000D01*
X122685750Y-98415000D01*
X122527000Y-98573750D01*
X122527000Y-99373000D01*
X122547000Y-99373000D01*
X122547000Y-99627000D01*
X122527000Y-99627000D01*
X122527000Y-100426250D01*
X122685750Y-100585000D01*
X123126309Y-100585000D01*
X123359698Y-100488327D01*
X123500936Y-100347090D01*
X123535910Y-100401441D01*
X123748110Y-100546431D01*
X124000000Y-100597440D01*
X125200000Y-100597440D01*
X125435317Y-100553162D01*
X125651441Y-100414090D01*
X125796431Y-100201890D01*
X125847440Y-99950000D01*
X125847440Y-99050000D01*
X125803162Y-98814683D01*
X125679716Y-98622842D01*
X128244204Y-96058354D01*
X128373110Y-96146431D01*
X128625000Y-96197440D01*
X129375000Y-96197440D01*
X129610317Y-96153162D01*
X129826441Y-96014090D01*
X129971431Y-95801890D01*
X129995876Y-95681179D01*
X130025707Y-95675245D01*
X130280379Y-95505079D01*
X131365458Y-94420000D01*
X132915023Y-94420000D01*
X132877560Y-94605000D01*
X132877560Y-95205000D01*
X132921838Y-95440317D01*
X133060910Y-95656441D01*
X133273110Y-95801431D01*
X133525000Y-95852440D01*
X134640300Y-95852440D01*
X134640300Y-98725000D01*
X134700055Y-99025407D01*
X134793917Y-99165881D01*
X134703569Y-99298110D01*
X134652560Y-99550000D01*
X134652560Y-100450000D01*
X134696838Y-100685317D01*
X134835910Y-100901441D01*
X135048110Y-101046431D01*
X135300000Y-101097440D01*
X136500000Y-101097440D01*
X136735317Y-101053162D01*
X136951441Y-100914090D01*
X136999134Y-100844289D01*
X137035910Y-100901441D01*
X137248110Y-101046431D01*
X137500000Y-101097440D01*
X138700000Y-101097440D01*
X138935317Y-101053162D01*
X139151441Y-100914090D01*
X139296431Y-100701890D01*
X139347440Y-100450000D01*
X139347440Y-99550000D01*
X139303162Y-99314683D01*
X139206759Y-99164869D01*
X139299945Y-99025407D01*
X139359700Y-98725000D01*
X139359700Y-95852440D01*
X140475000Y-95852440D01*
X140710317Y-95808162D01*
X140926441Y-95669090D01*
X141071431Y-95456890D01*
X141122440Y-95205000D01*
X141122440Y-94605000D01*
X141115854Y-94570000D01*
X141865000Y-94570000D01*
X142222809Y-94498827D01*
X142526145Y-94296145D01*
X143661145Y-93161145D01*
X143863827Y-92857809D01*
X143935000Y-92500000D01*
X143935000Y-86500000D01*
X143863827Y-86142191D01*
X143661145Y-85838855D01*
X140661145Y-82838855D01*
X140357809Y-82636173D01*
X140000000Y-82565000D01*
X107614975Y-82565000D01*
X107535000Y-82510356D01*
X107535000Y-81489018D01*
X107651441Y-81414090D01*
X107796431Y-81201890D01*
X107847440Y-80950000D01*
X107847440Y-80050000D01*
X107803162Y-79814683D01*
X107664090Y-79598559D01*
X107535000Y-79510356D01*
X107535000Y-78289975D01*
X107646431Y-78126890D01*
X107697440Y-77875000D01*
X107697440Y-77235750D01*
X109963430Y-77235750D01*
X109963430Y-77476359D01*
X110060103Y-77709748D01*
X110238731Y-77888377D01*
X110472120Y-77985050D01*
X111213110Y-77985050D01*
X111371860Y-77826300D01*
X111371860Y-77077000D01*
X111625860Y-77077000D01*
X111625860Y-77826300D01*
X111784610Y-77985050D01*
X112525600Y-77985050D01*
X112758989Y-77888377D01*
X112937617Y-77709748D01*
X113034290Y-77476359D01*
X113034290Y-77235750D01*
X112875540Y-77077000D01*
X111625860Y-77077000D01*
X111371860Y-77077000D01*
X110122180Y-77077000D01*
X109963430Y-77235750D01*
X107697440Y-77235750D01*
X107697440Y-77125000D01*
X107653162Y-76889683D01*
X107535000Y-76706054D01*
X107535000Y-75489018D01*
X107651441Y-75414090D01*
X107796431Y-75201890D01*
X107847440Y-74950000D01*
X107847440Y-74050000D01*
X107803162Y-73814683D01*
X107664090Y-73598559D01*
X107451890Y-73453569D01*
X107200000Y-73402560D01*
X106481498Y-73402560D01*
X107008358Y-72875700D01*
X108964842Y-72875700D01*
X110224880Y-74135738D01*
X110146989Y-74185860D01*
X110001999Y-74398060D01*
X109950990Y-74649950D01*
X109950990Y-75450050D01*
X109995268Y-75685367D01*
X110134340Y-75901491D01*
X110274089Y-75996977D01*
X110238731Y-76011623D01*
X110060103Y-76190252D01*
X109963430Y-76423641D01*
X109963430Y-76664250D01*
X110122180Y-76823000D01*
X111371860Y-76823000D01*
X111371860Y-76803000D01*
X111625860Y-76803000D01*
X111625860Y-76823000D01*
X112875540Y-76823000D01*
X113023243Y-76675297D01*
X113136620Y-76851491D01*
X113348820Y-76996481D01*
X113600710Y-77047490D01*
X115401570Y-77047490D01*
X115636887Y-77003212D01*
X115853011Y-76864140D01*
X115998001Y-76651940D01*
X116049010Y-76400050D01*
X116049010Y-75599950D01*
X116004732Y-75364633D01*
X115865660Y-75148509D01*
X115653460Y-75003519D01*
X115401570Y-74952510D01*
X115286100Y-74952510D01*
X115286100Y-70150800D01*
X115226345Y-69850394D01*
X115056179Y-69595721D01*
X114905379Y-69444921D01*
X114650707Y-69274755D01*
X114574844Y-69259665D01*
X114518155Y-68974672D01*
X114185409Y-68476682D01*
X113687419Y-68143936D01*
X113100000Y-68027091D01*
X112512581Y-68143936D01*
X112014591Y-68476682D01*
X111830000Y-68752942D01*
X111645409Y-68476682D01*
X111147419Y-68143936D01*
X110560000Y-68027091D01*
X109972581Y-68143936D01*
X109703013Y-68324055D01*
X109148179Y-67769221D01*
X108893507Y-67599055D01*
X108593100Y-67539300D01*
X97365505Y-67539300D01*
X97365500Y-67539299D01*
X97065094Y-67599055D01*
X96810421Y-67769221D01*
X96224104Y-68355538D01*
X95907419Y-68143936D01*
X95320000Y-68027091D01*
X94732581Y-68143936D01*
X94234591Y-68476682D01*
X94050000Y-68752942D01*
X93865409Y-68476682D01*
X93367419Y-68143936D01*
X92780000Y-68027091D01*
X92192581Y-68143936D01*
X91694591Y-68476682D01*
X91510000Y-68752942D01*
X91325409Y-68476682D01*
X90827419Y-68143936D01*
X90240000Y-68027091D01*
X89652581Y-68143936D01*
X89154591Y-68476682D01*
X88970000Y-68752942D01*
X88785409Y-68476682D01*
X88287419Y-68143936D01*
X87700000Y-68027091D01*
X87112581Y-68143936D01*
X86614591Y-68476682D01*
X86430000Y-68752942D01*
X86245409Y-68476682D01*
X85747419Y-68143936D01*
X85160000Y-68027091D01*
X84572581Y-68143936D01*
X84074591Y-68476682D01*
X83890000Y-68752942D01*
X83705409Y-68476682D01*
X83207419Y-68143936D01*
X82620000Y-68027091D01*
X82032581Y-68143936D01*
X81534591Y-68476682D01*
X81350000Y-68752942D01*
X81165409Y-68476682D01*
X80667419Y-68143936D01*
X80080000Y-68027091D01*
X79492581Y-68143936D01*
X78994591Y-68476682D01*
X78810000Y-68752942D01*
X78625409Y-68476682D01*
X78127419Y-68143936D01*
X77540000Y-68027091D01*
X76952581Y-68143936D01*
X76454591Y-68476682D01*
X76263808Y-68762210D01*
X75995606Y-68424788D01*
X75470086Y-68133244D01*
X75364740Y-68108964D01*
X75127000Y-68229622D01*
X75127000Y-69873000D01*
X75147000Y-69873000D01*
X75147000Y-70127000D01*
X75127000Y-70127000D01*
X75127000Y-71770378D01*
X75364740Y-71891036D01*
X75470086Y-71866756D01*
X75995606Y-71575212D01*
X76263808Y-71237790D01*
X76454591Y-71523318D01*
X76605000Y-71623818D01*
X76605000Y-72065000D01*
X70094023Y-72065000D01*
X70708700Y-71811020D01*
X71309809Y-71210959D01*
X71635528Y-70426541D01*
X71635789Y-70127000D01*
X73465000Y-70127000D01*
X73465000Y-70527000D01*
X73630446Y-71104752D01*
X74004394Y-71575212D01*
X74529914Y-71866756D01*
X74635260Y-71891036D01*
X74873000Y-71770378D01*
X74873000Y-70127000D01*
X73465000Y-70127000D01*
X71635789Y-70127000D01*
X71636270Y-69577185D01*
X71593222Y-69473000D01*
X73465000Y-69473000D01*
X73465000Y-69873000D01*
X74873000Y-69873000D01*
X74873000Y-68229622D01*
X74635260Y-68108964D01*
X74529914Y-68133244D01*
X74004394Y-68424788D01*
X73630446Y-68895248D01*
X73465000Y-69473000D01*
X71593222Y-69473000D01*
X71311920Y-68792200D01*
X70711859Y-68191091D01*
X69927441Y-67865372D01*
X69840162Y-67865296D01*
X73239658Y-64465800D01*
X74780400Y-64465800D01*
X75080807Y-64406045D01*
X75335479Y-64235879D01*
X76183908Y-63387450D01*
X76733538Y-63387930D01*
X76734411Y-63387569D01*
X79041619Y-65694776D01*
X79041621Y-65694779D01*
X79296294Y-65864945D01*
X79596700Y-65924700D01*
X94900300Y-65924700D01*
X95200707Y-65864945D01*
X95455379Y-65694779D01*
X95755601Y-65394557D01*
X95760900Y-65396757D01*
X96316661Y-65397242D01*
X96830303Y-65185010D01*
X97223629Y-64792370D01*
X97226689Y-64785000D01*
X117000000Y-64785000D01*
X117300407Y-64725245D01*
X117555079Y-64555079D01*
X124675005Y-57435153D01*
X124685167Y-57435162D01*
X125028943Y-57293117D01*
X125037074Y-57285000D01*
X126962494Y-57285000D01*
X126969673Y-57292192D01*
X127313201Y-57434838D01*
X127685167Y-57435162D01*
X128028943Y-57293117D01*
X128292192Y-57030327D01*
X128434838Y-56686799D01*
X128435162Y-56314833D01*
X128293117Y-55971057D01*
X128030327Y-55707808D01*
X127686799Y-55565162D01*
X127314833Y-55564838D01*
X126971057Y-55706883D01*
X126962926Y-55715000D01*
X125037506Y-55715000D01*
X125037475Y-55714968D01*
X125391855Y-55478180D01*
X125479172Y-55347500D01*
X128522628Y-55347500D01*
X128609945Y-55478180D01*
X129018719Y-55751313D01*
X129500900Y-55847225D01*
X129983081Y-55751313D01*
X130391855Y-55478180D01*
X130664988Y-55069406D01*
X130760900Y-54587225D01*
X130760900Y-54537855D01*
X130664988Y-54055674D01*
X130475978Y-53772800D01*
X130500900Y-53772800D01*
X130801306Y-53713045D01*
X131055979Y-53542879D01*
X131226145Y-53288206D01*
X131259050Y-53122785D01*
X131652993Y-52859561D01*
X131958642Y-52402124D01*
X132065972Y-51862540D01*
X131958642Y-51322956D01*
X131652993Y-50865519D01*
X131420242Y-50710000D01*
X136947909Y-50710000D01*
X136697434Y-50877362D01*
X136697434Y-50877362D01*
G37*
X136697434Y-50877362D02*
X136451397Y-51245582D01*
X136365000Y-51679928D01*
X136365000Y-52540072D01*
X136451397Y-52974418D01*
X136697434Y-53342638D01*
X137065654Y-53588675D01*
X137500000Y-53675072D01*
X137934346Y-53588675D01*
X138302566Y-53342638D01*
X138548603Y-52974418D01*
X138635000Y-52540072D01*
X138635000Y-51679928D01*
X138548603Y-51245582D01*
X138302566Y-50877362D01*
X138052091Y-50710000D01*
X145587909Y-50710000D01*
X145337434Y-50877362D01*
X145091397Y-51245582D01*
X145005000Y-51679928D01*
X145005000Y-52540072D01*
X145091397Y-52974418D01*
X145337434Y-53342638D01*
X145705654Y-53588675D01*
X146140000Y-53675072D01*
X146574346Y-53588675D01*
X146942566Y-53342638D01*
X147188603Y-52974418D01*
X147275000Y-52540072D01*
X147275000Y-51679928D01*
X147188603Y-51245582D01*
X146942566Y-50877362D01*
X146692091Y-50710000D01*
X149290000Y-50710000D01*
X149290000Y-120290000D01*
X146552091Y-120290000D01*
X146802566Y-120122638D01*
X147048603Y-119754418D01*
X147135000Y-119320072D01*
X147135000Y-118459928D01*
X147048603Y-118025582D01*
X146802566Y-117657362D01*
X146434346Y-117411325D01*
X146000000Y-117324928D01*
X145565654Y-117411325D01*
X145197434Y-117657362D01*
X144951397Y-118025582D01*
X144865000Y-118459928D01*
X144865000Y-119320072D01*
X144951397Y-119754418D01*
X145197434Y-120122638D01*
X145447909Y-120290000D01*
X137912091Y-120290000D01*
X138162566Y-120122638D01*
X138408603Y-119754418D01*
X138495000Y-119320072D01*
X138495000Y-118459928D01*
X138408603Y-118025582D01*
X138162566Y-117657362D01*
X137794346Y-117411325D01*
X137360000Y-117324928D01*
X136925654Y-117411325D01*
X136557434Y-117657362D01*
X136311397Y-118025582D01*
X136225000Y-118459928D01*
X136225000Y-119320072D01*
X136311397Y-119754418D01*
X136557434Y-120122638D01*
X136807909Y-120290000D01*
X131418442Y-120290000D01*
X131651193Y-120134481D01*
X131956842Y-119677044D01*
X132064172Y-119137460D01*
X131956842Y-118597876D01*
X131651193Y-118140439D01*
X131257250Y-117877215D01*
X131224345Y-117711794D01*
X131054179Y-117457121D01*
X130799506Y-117286955D01*
X130630120Y-117253262D01*
X130526201Y-117149343D01*
X130663188Y-116944326D01*
X130759100Y-116462145D01*
X130759100Y-116412775D01*
X130663188Y-115930594D01*
X130390055Y-115521820D01*
X129981281Y-115248687D01*
X129499100Y-115152775D01*
X129016919Y-115248687D01*
X128934867Y-115303512D01*
X128935162Y-114964833D01*
X128793117Y-114621057D01*
X128530327Y-114357808D01*
X128186799Y-114215162D01*
X127814833Y-114214838D01*
X127471057Y-114356883D01*
X127462926Y-114365000D01*
X125687245Y-114365000D01*
X125530327Y-114207808D01*
X125335695Y-114126989D01*
X136225000Y-114126989D01*
X136225000Y-115293011D01*
X136311397Y-115727357D01*
X136557434Y-116095577D01*
X136925654Y-116341614D01*
X137360000Y-116428011D01*
X137794346Y-116341614D01*
X138162566Y-116095577D01*
X138224717Y-116002562D01*
X138245493Y-116023374D01*
X138598206Y-116169833D01*
X138980118Y-116170167D01*
X139240472Y-116062591D01*
X139469673Y-116292192D01*
X139813201Y-116434838D01*
X140185167Y-116435162D01*
X140528943Y-116293117D01*
X140537074Y-116285000D01*
X142962494Y-116285000D01*
X142969673Y-116292192D01*
X143313201Y-116434838D01*
X143685167Y-116435162D01*
X144028943Y-116293117D01*
X144218764Y-116103627D01*
X144378206Y-116169833D01*
X144760118Y-116170167D01*
X145113086Y-116024323D01*
X145135124Y-116002324D01*
X145197434Y-116095577D01*
X145565654Y-116341614D01*
X146000000Y-116428011D01*
X146434346Y-116341614D01*
X146802566Y-116095577D01*
X147048603Y-115727357D01*
X147135000Y-115293011D01*
X147135000Y-114126989D01*
X147048603Y-113692643D01*
X146802566Y-113324423D01*
X146434346Y-113078386D01*
X146000000Y-112991989D01*
X145565654Y-113078386D01*
X145463545Y-113146613D01*
X146906179Y-111703979D01*
X147076345Y-111449306D01*
X147136100Y-111148900D01*
X147136100Y-58886400D01*
X147076345Y-58585994D01*
X147076345Y-58585993D01*
X146906179Y-58331321D01*
X146509392Y-57934534D01*
X146574346Y-57921614D01*
X146942566Y-57675577D01*
X147188603Y-57307357D01*
X147275000Y-56873011D01*
X147275000Y-55706989D01*
X147188603Y-55272643D01*
X146942566Y-54904423D01*
X146574346Y-54658386D01*
X146140000Y-54571989D01*
X145705654Y-54658386D01*
X145337434Y-54904423D01*
X145275283Y-54997438D01*
X145254507Y-54976626D01*
X144901794Y-54830167D01*
X144519882Y-54829833D01*
X144259528Y-54937409D01*
X144030327Y-54707808D01*
X143686799Y-54565162D01*
X143314833Y-54564838D01*
X142971057Y-54706883D01*
X142962926Y-54715000D01*
X140537506Y-54715000D01*
X140530327Y-54707808D01*
X140186799Y-54565162D01*
X139814833Y-54564838D01*
X139471057Y-54706883D01*
X139281236Y-54896373D01*
X139121794Y-54830167D01*
X138739882Y-54829833D01*
X138386914Y-54975677D01*
X138364876Y-54997676D01*
X138302566Y-54904423D01*
X137934346Y-54658386D01*
X137500000Y-54571989D01*
X137065654Y-54658386D01*
X136697434Y-54904423D01*
X136451397Y-55272643D01*
X136365000Y-55706989D01*
X136365000Y-56873011D01*
X136451397Y-57307357D01*
X136697434Y-57675577D01*
X137065654Y-57921614D01*
X137500000Y-58008011D01*
X137934346Y-57921614D01*
X138065144Y-57834218D01*
X138064838Y-58185167D01*
X138206883Y-58528943D01*
X138469673Y-58792192D01*
X138813201Y-58934838D01*
X139185167Y-58935162D01*
X139528943Y-58793117D01*
X139537074Y-58785000D01*
X143962494Y-58785000D01*
X143969673Y-58792192D01*
X144313201Y-58934838D01*
X144685167Y-58935162D01*
X145028943Y-58793117D01*
X145088353Y-58733811D01*
X145566100Y-59211558D01*
X145566100Y-68131156D01*
X144926021Y-67865372D01*
X144076665Y-67864630D01*
X143291680Y-68188980D01*
X142690571Y-68789041D01*
X142364852Y-69573459D01*
X142364110Y-70422815D01*
X142688460Y-71207800D01*
X143288521Y-71808909D01*
X144072939Y-72134628D01*
X144922295Y-72135370D01*
X145566100Y-71869355D01*
X145566100Y-99131856D01*
X144926021Y-98866072D01*
X144076665Y-98865330D01*
X143291680Y-99189680D01*
X142690571Y-99789741D01*
X142364852Y-100574159D01*
X142364110Y-101423515D01*
X142688460Y-102208500D01*
X143288521Y-102809609D01*
X144072939Y-103135328D01*
X144922295Y-103136070D01*
X145566100Y-102870055D01*
X145566100Y-110823742D01*
X144324995Y-112064847D01*
X144314833Y-112064838D01*
X143971057Y-112206883D01*
X143962926Y-112215000D01*
X139537506Y-112215000D01*
X139530327Y-112207808D01*
X139186799Y-112065162D01*
X138814833Y-112064838D01*
X138471057Y-112206883D01*
X138207808Y-112469673D01*
X138065162Y-112813201D01*
X138064838Y-113185167D01*
X138107050Y-113287328D01*
X137794346Y-113078386D01*
X137360000Y-112991989D01*
X136925654Y-113078386D01*
X136557434Y-113324423D01*
X136311397Y-113692643D01*
X136225000Y-114126989D01*
X125335695Y-114126989D01*
X125186799Y-114065162D01*
X125175310Y-114065152D01*
X119554079Y-108443921D01*
X119299407Y-108273755D01*
X118999000Y-108214000D01*
X97187209Y-108214000D01*
X97185010Y-108208677D01*
X96976168Y-107999470D01*
X97183629Y-107792370D01*
X97396757Y-107279100D01*
X97397242Y-106723339D01*
X97185010Y-106209697D01*
X96792370Y-105816371D01*
X96279100Y-105603243D01*
X95723339Y-105602758D01*
X95209697Y-105814990D01*
X94816371Y-106207630D01*
X94730051Y-106415512D01*
X94645010Y-106209697D01*
X94252370Y-105816371D01*
X93739100Y-105603243D01*
X93183339Y-105602758D01*
X92669697Y-105814990D01*
X92276371Y-106207630D01*
X92063243Y-106720900D01*
X92062758Y-107276661D01*
X92274990Y-107790303D01*
X92483832Y-107999510D01*
X92276371Y-108206610D01*
X92063243Y-108719880D01*
X92062758Y-109275641D01*
X92274990Y-109789283D01*
X92667630Y-110182609D01*
X93180900Y-110395737D01*
X93736661Y-110396222D01*
X93744022Y-110393180D01*
X101405919Y-118055076D01*
X101405921Y-118055079D01*
X101660594Y-118225245D01*
X101961000Y-118285000D01*
X121962494Y-118285000D01*
X121969673Y-118292192D01*
X122185678Y-118381886D01*
X122041358Y-118597876D01*
X121934028Y-119137460D01*
X122041358Y-119677044D01*
X122347007Y-120134481D01*
X122579758Y-120290000D01*
X53074872Y-120290000D01*
X53494415Y-120009670D01*
X53677944Y-119735000D01*
X70435400Y-119735000D01*
X70735807Y-119675245D01*
X70990479Y-119505079D01*
X76335972Y-114159586D01*
X76511073Y-114334992D01*
X76854601Y-114477638D01*
X77226567Y-114477962D01*
X77570343Y-114335917D01*
X77833592Y-114073127D01*
X77976238Y-113729599D01*
X77976562Y-113357633D01*
X77938278Y-113264980D01*
X79051925Y-112151333D01*
X79349950Y-112872607D01*
X79949974Y-113473680D01*
X80734345Y-113799379D01*
X81583649Y-113800120D01*
X82368587Y-113475790D01*
X82969660Y-112875766D01*
X83295061Y-112092111D01*
X86745166Y-112092111D01*
X87046729Y-112821949D01*
X87604634Y-113380829D01*
X88333945Y-113683665D01*
X89123631Y-113684354D01*
X89853469Y-113382791D01*
X90412349Y-112824886D01*
X90715185Y-112095575D01*
X90715874Y-111305889D01*
X90414311Y-110576051D01*
X89856406Y-110017171D01*
X89127095Y-109714335D01*
X88337409Y-109713646D01*
X87607571Y-110015209D01*
X87048691Y-110573114D01*
X86745855Y-111302425D01*
X86745166Y-112092111D01*
X83295061Y-112092111D01*
X83295359Y-112091395D01*
X83296100Y-111242091D01*
X82971770Y-110457153D01*
X82371746Y-109856080D01*
X81647790Y-109555468D01*
X84530658Y-106672600D01*
X85041800Y-106672600D01*
X85342207Y-106612845D01*
X85596879Y-106442679D01*
X94313276Y-97726282D01*
X94313138Y-97884167D01*
X94455183Y-98227943D01*
X94463300Y-98236074D01*
X94463300Y-100211600D01*
X94523055Y-100512007D01*
X94693221Y-100766679D01*
X95062021Y-101135479D01*
X95316693Y-101305645D01*
X95617100Y-101365400D01*
X105999300Y-101365400D01*
X106299707Y-101305645D01*
X106554379Y-101135479D01*
X106869007Y-100820851D01*
X107025000Y-100852440D01*
X108575000Y-100852440D01*
X108810317Y-100808162D01*
X109026441Y-100669090D01*
X109171431Y-100456890D01*
X109222440Y-100205000D01*
X109222440Y-100190750D01*
X111790000Y-100190750D01*
X111790000Y-100331310D01*
X111886673Y-100564699D01*
X112065302Y-100743327D01*
X112298691Y-100840000D01*
X112914250Y-100840000D01*
X113073000Y-100681250D01*
X113073000Y-100032000D01*
X113327000Y-100032000D01*
X113327000Y-100681250D01*
X113485750Y-100840000D01*
X114101309Y-100840000D01*
X114334698Y-100743327D01*
X114513327Y-100564699D01*
X114610000Y-100331310D01*
X114610000Y-100190750D01*
X114451250Y-100032000D01*
X113327000Y-100032000D01*
X113073000Y-100032000D01*
X111948750Y-100032000D01*
X111790000Y-100190750D01*
X109222440Y-100190750D01*
X109222440Y-99785750D01*
X121165000Y-99785750D01*
X121165000Y-100076310D01*
X121261673Y-100309699D01*
X121440302Y-100488327D01*
X121673691Y-100585000D01*
X122114250Y-100585000D01*
X122273000Y-100426250D01*
X122273000Y-99627000D01*
X121323750Y-99627000D01*
X121165000Y-99785750D01*
X109222440Y-99785750D01*
X109222440Y-99605000D01*
X109178165Y-99369701D01*
X109225706Y-99360245D01*
X109480379Y-99190079D01*
X109650545Y-98935406D01*
X109710300Y-98635000D01*
X109710300Y-97473258D01*
X110064700Y-97827658D01*
X110064700Y-97924800D01*
X110124455Y-98225207D01*
X110294621Y-98479879D01*
X111004819Y-99190076D01*
X111004821Y-99190079D01*
X111259494Y-99360245D01*
X111559900Y-99420000D01*
X111814310Y-99420000D01*
X111790000Y-99478690D01*
X111790000Y-99619250D01*
X111948750Y-99778000D01*
X113073000Y-99778000D01*
X113073000Y-99758000D01*
X113327000Y-99758000D01*
X113327000Y-99778000D01*
X114451250Y-99778000D01*
X114610000Y-99619250D01*
X114610000Y-99478690D01*
X114565869Y-99372148D01*
X114625707Y-99360245D01*
X114880379Y-99190079D01*
X115146768Y-98923690D01*
X121165000Y-98923690D01*
X121165000Y-99214250D01*
X121323750Y-99373000D01*
X122273000Y-99373000D01*
X122273000Y-98573750D01*
X122114250Y-98415000D01*
X121673691Y-98415000D01*
X121440302Y-98511673D01*
X121261673Y-98690301D01*
X121165000Y-98923690D01*
X115146768Y-98923690D01*
X117284708Y-96785750D01*
X121315000Y-96785750D01*
X121315000Y-97001310D01*
X121411673Y-97234699D01*
X121590302Y-97413327D01*
X121823691Y-97510000D01*
X122264250Y-97510000D01*
X122423000Y-97351250D01*
X122423000Y-96627000D01*
X121473750Y-96627000D01*
X121315000Y-96785750D01*
X117284708Y-96785750D01*
X118071768Y-95998690D01*
X121315000Y-95998690D01*
X121315000Y-96214250D01*
X121473750Y-96373000D01*
X122423000Y-96373000D01*
X122423000Y-95648750D01*
X122264250Y-95490000D01*
X121823691Y-95490000D01*
X121590302Y-95586673D01*
X121411673Y-95765301D01*
X121315000Y-95998690D01*
X118071768Y-95998690D01*
X120284708Y-93785750D01*
X121165000Y-93785750D01*
X121165000Y-94076310D01*
X121261673Y-94309699D01*
X121440302Y-94488327D01*
X121673691Y-94585000D01*
X122114250Y-94585000D01*
X122273000Y-94426250D01*
X122273000Y-93627000D01*
X121323750Y-93627000D01*
X121165000Y-93785750D01*
X120284708Y-93785750D01*
X121177892Y-92892566D01*
X121165000Y-92923690D01*
X121165000Y-93214250D01*
X121323750Y-93373000D01*
X122273000Y-93373000D01*
X122273000Y-92573750D01*
X122114250Y-92415000D01*
X121673691Y-92415000D01*
X121642565Y-92427893D01*
X121985158Y-92085300D01*
X122400000Y-92085300D01*
X122700406Y-92025545D01*
X122955079Y-91855379D01*
X123125245Y-91600706D01*
X123130790Y-91572830D01*
X123235317Y-91553162D01*
X123451441Y-91414090D01*
X123499134Y-91344289D01*
X123535910Y-91401441D01*
X123748110Y-91546431D01*
X123815000Y-91559977D01*
X123815000Y-92437370D01*
X123764683Y-92446838D01*
X123548559Y-92585910D01*
X123502031Y-92654006D01*
X123359698Y-92511673D01*
X123126309Y-92415000D01*
X122685750Y-92415000D01*
X122527000Y-92573750D01*
X122527000Y-93373000D01*
X122547000Y-93373000D01*
X122547000Y-93627000D01*
X122527000Y-93627000D01*
X122527000Y-94426250D01*
X122685750Y-94585000D01*
X123126309Y-94585000D01*
X123359698Y-94488327D01*
X123500936Y-94347090D01*
X123535910Y-94401441D01*
X123665000Y-94489644D01*
X123665000Y-95512370D01*
X123614683Y-95521838D01*
X123511354Y-95588329D01*
X123509698Y-95586673D01*
X123276309Y-95490000D01*
X122835750Y-95490000D01*
X122677000Y-95648750D01*
X122677000Y-96373000D01*
X122697000Y-96373000D01*
X122697000Y-96627000D01*
X122677000Y-96627000D01*
X122677000Y-97351250D01*
X122835750Y-97510000D01*
X123276309Y-97510000D01*
X123509698Y-97413327D01*
X123511068Y-97411957D01*
X123598110Y-97471431D01*
X123850000Y-97522440D01*
X123954697Y-97522440D01*
X123807808Y-97669073D01*
X123665162Y-98012601D01*
X123664838Y-98384567D01*
X123706135Y-98484513D01*
X123548559Y-98585910D01*
X123502031Y-98654006D01*
X123359698Y-98511673D01*
X123126309Y-98415000D01*
X122685750Y-98415000D01*
X122527000Y-98573750D01*
X122527000Y-99373000D01*
X122547000Y-99373000D01*
X122547000Y-99627000D01*
X122527000Y-99627000D01*
X122527000Y-100426250D01*
X122685750Y-100585000D01*
X123126309Y-100585000D01*
X123359698Y-100488327D01*
X123500936Y-100347090D01*
X123535910Y-100401441D01*
X123748110Y-100546431D01*
X124000000Y-100597440D01*
X125200000Y-100597440D01*
X125435317Y-100553162D01*
X125651441Y-100414090D01*
X125796431Y-100201890D01*
X125847440Y-99950000D01*
X125847440Y-99050000D01*
X125803162Y-98814683D01*
X125679716Y-98622842D01*
X128244204Y-96058354D01*
X128373110Y-96146431D01*
X128625000Y-96197440D01*
X129375000Y-96197440D01*
X129610317Y-96153162D01*
X129826441Y-96014090D01*
X129971431Y-95801890D01*
X129995876Y-95681179D01*
X130025707Y-95675245D01*
X130280379Y-95505079D01*
X131365458Y-94420000D01*
X132915023Y-94420000D01*
X132877560Y-94605000D01*
X132877560Y-95205000D01*
X132921838Y-95440317D01*
X133060910Y-95656441D01*
X133273110Y-95801431D01*
X133525000Y-95852440D01*
X134640300Y-95852440D01*
X134640300Y-98725000D01*
X134700055Y-99025407D01*
X134793917Y-99165881D01*
X134703569Y-99298110D01*
X134652560Y-99550000D01*
X134652560Y-100450000D01*
X134696838Y-100685317D01*
X134835910Y-100901441D01*
X135048110Y-101046431D01*
X135300000Y-101097440D01*
X136500000Y-101097440D01*
X136735317Y-101053162D01*
X136951441Y-100914090D01*
X136999134Y-100844289D01*
X137035910Y-100901441D01*
X137248110Y-101046431D01*
X137500000Y-101097440D01*
X138700000Y-101097440D01*
X138935317Y-101053162D01*
X139151441Y-100914090D01*
X139296431Y-100701890D01*
X139347440Y-100450000D01*
X139347440Y-99550000D01*
X139303162Y-99314683D01*
X139206759Y-99164869D01*
X139299945Y-99025407D01*
X139359700Y-98725000D01*
X139359700Y-95852440D01*
X140475000Y-95852440D01*
X140710317Y-95808162D01*
X140926441Y-95669090D01*
X141071431Y-95456890D01*
X141122440Y-95205000D01*
X141122440Y-94605000D01*
X141115854Y-94570000D01*
X141865000Y-94570000D01*
X142222809Y-94498827D01*
X142526145Y-94296145D01*
X143661145Y-93161145D01*
X143863827Y-92857809D01*
X143935000Y-92500000D01*
X143935000Y-86500000D01*
X143863827Y-86142191D01*
X143661145Y-85838855D01*
X140661145Y-82838855D01*
X140357809Y-82636173D01*
X140000000Y-82565000D01*
X107614975Y-82565000D01*
X107535000Y-82510356D01*
X107535000Y-81489018D01*
X107651441Y-81414090D01*
X107796431Y-81201890D01*
X107847440Y-80950000D01*
X107847440Y-80050000D01*
X107803162Y-79814683D01*
X107664090Y-79598559D01*
X107535000Y-79510356D01*
X107535000Y-78289975D01*
X107646431Y-78126890D01*
X107697440Y-77875000D01*
X107697440Y-77235750D01*
X109963430Y-77235750D01*
X109963430Y-77476359D01*
X110060103Y-77709748D01*
X110238731Y-77888377D01*
X110472120Y-77985050D01*
X111213110Y-77985050D01*
X111371860Y-77826300D01*
X111371860Y-77077000D01*
X111625860Y-77077000D01*
X111625860Y-77826300D01*
X111784610Y-77985050D01*
X112525600Y-77985050D01*
X112758989Y-77888377D01*
X112937617Y-77709748D01*
X113034290Y-77476359D01*
X113034290Y-77235750D01*
X112875540Y-77077000D01*
X111625860Y-77077000D01*
X111371860Y-77077000D01*
X110122180Y-77077000D01*
X109963430Y-77235750D01*
X107697440Y-77235750D01*
X107697440Y-77125000D01*
X107653162Y-76889683D01*
X107535000Y-76706054D01*
X107535000Y-75489018D01*
X107651441Y-75414090D01*
X107796431Y-75201890D01*
X107847440Y-74950000D01*
X107847440Y-74050000D01*
X107803162Y-73814683D01*
X107664090Y-73598559D01*
X107451890Y-73453569D01*
X107200000Y-73402560D01*
X106481498Y-73402560D01*
X107008358Y-72875700D01*
X108964842Y-72875700D01*
X110224880Y-74135738D01*
X110146989Y-74185860D01*
X110001999Y-74398060D01*
X109950990Y-74649950D01*
X109950990Y-75450050D01*
X109995268Y-75685367D01*
X110134340Y-75901491D01*
X110274089Y-75996977D01*
X110238731Y-76011623D01*
X110060103Y-76190252D01*
X109963430Y-76423641D01*
X109963430Y-76664250D01*
X110122180Y-76823000D01*
X111371860Y-76823000D01*
X111371860Y-76803000D01*
X111625860Y-76803000D01*
X111625860Y-76823000D01*
X112875540Y-76823000D01*
X113023243Y-76675297D01*
X113136620Y-76851491D01*
X113348820Y-76996481D01*
X113600710Y-77047490D01*
X115401570Y-77047490D01*
X115636887Y-77003212D01*
X115853011Y-76864140D01*
X115998001Y-76651940D01*
X116049010Y-76400050D01*
X116049010Y-75599950D01*
X116004732Y-75364633D01*
X115865660Y-75148509D01*
X115653460Y-75003519D01*
X115401570Y-74952510D01*
X115286100Y-74952510D01*
X115286100Y-70150800D01*
X115226345Y-69850394D01*
X115056179Y-69595721D01*
X114905379Y-69444921D01*
X114650707Y-69274755D01*
X114574844Y-69259665D01*
X114518155Y-68974672D01*
X114185409Y-68476682D01*
X113687419Y-68143936D01*
X113100000Y-68027091D01*
X112512581Y-68143936D01*
X112014591Y-68476682D01*
X111830000Y-68752942D01*
X111645409Y-68476682D01*
X111147419Y-68143936D01*
X110560000Y-68027091D01*
X109972581Y-68143936D01*
X109703013Y-68324055D01*
X109148179Y-67769221D01*
X108893507Y-67599055D01*
X108593100Y-67539300D01*
X97365505Y-67539300D01*
X97365500Y-67539299D01*
X97065094Y-67599055D01*
X96810421Y-67769221D01*
X96224104Y-68355538D01*
X95907419Y-68143936D01*
X95320000Y-68027091D01*
X94732581Y-68143936D01*
X94234591Y-68476682D01*
X94050000Y-68752942D01*
X93865409Y-68476682D01*
X93367419Y-68143936D01*
X92780000Y-68027091D01*
X92192581Y-68143936D01*
X91694591Y-68476682D01*
X91510000Y-68752942D01*
X91325409Y-68476682D01*
X90827419Y-68143936D01*
X90240000Y-68027091D01*
X89652581Y-68143936D01*
X89154591Y-68476682D01*
X88970000Y-68752942D01*
X88785409Y-68476682D01*
X88287419Y-68143936D01*
X87700000Y-68027091D01*
X87112581Y-68143936D01*
X86614591Y-68476682D01*
X86430000Y-68752942D01*
X86245409Y-68476682D01*
X85747419Y-68143936D01*
X85160000Y-68027091D01*
X84572581Y-68143936D01*
X84074591Y-68476682D01*
X83890000Y-68752942D01*
X83705409Y-68476682D01*
X83207419Y-68143936D01*
X82620000Y-68027091D01*
X82032581Y-68143936D01*
X81534591Y-68476682D01*
X81350000Y-68752942D01*
X81165409Y-68476682D01*
X80667419Y-68143936D01*
X80080000Y-68027091D01*
X79492581Y-68143936D01*
X78994591Y-68476682D01*
X78810000Y-68752942D01*
X78625409Y-68476682D01*
X78127419Y-68143936D01*
X77540000Y-68027091D01*
X76952581Y-68143936D01*
X76454591Y-68476682D01*
X76263808Y-68762210D01*
X75995606Y-68424788D01*
X75470086Y-68133244D01*
X75364740Y-68108964D01*
X75127000Y-68229622D01*
X75127000Y-69873000D01*
X75147000Y-69873000D01*
X75147000Y-70127000D01*
X75127000Y-70127000D01*
X75127000Y-71770378D01*
X75364740Y-71891036D01*
X75470086Y-71866756D01*
X75995606Y-71575212D01*
X76263808Y-71237790D01*
X76454591Y-71523318D01*
X76605000Y-71623818D01*
X76605000Y-72065000D01*
X70094023Y-72065000D01*
X70708700Y-71811020D01*
X71309809Y-71210959D01*
X71635528Y-70426541D01*
X71635789Y-70127000D01*
X73465000Y-70127000D01*
X73465000Y-70527000D01*
X73630446Y-71104752D01*
X74004394Y-71575212D01*
X74529914Y-71866756D01*
X74635260Y-71891036D01*
X74873000Y-71770378D01*
X74873000Y-70127000D01*
X73465000Y-70127000D01*
X71635789Y-70127000D01*
X71636270Y-69577185D01*
X71593222Y-69473000D01*
X73465000Y-69473000D01*
X73465000Y-69873000D01*
X74873000Y-69873000D01*
X74873000Y-68229622D01*
X74635260Y-68108964D01*
X74529914Y-68133244D01*
X74004394Y-68424788D01*
X73630446Y-68895248D01*
X73465000Y-69473000D01*
X71593222Y-69473000D01*
X71311920Y-68792200D01*
X70711859Y-68191091D01*
X69927441Y-67865372D01*
X69840162Y-67865296D01*
X73239658Y-64465800D01*
X74780400Y-64465800D01*
X75080807Y-64406045D01*
X75335479Y-64235879D01*
X76183908Y-63387450D01*
X76733538Y-63387930D01*
X76734411Y-63387569D01*
X79041619Y-65694776D01*
X79041621Y-65694779D01*
X79296294Y-65864945D01*
X79596700Y-65924700D01*
X94900300Y-65924700D01*
X95200707Y-65864945D01*
X95455379Y-65694779D01*
X95755601Y-65394557D01*
X95760900Y-65396757D01*
X96316661Y-65397242D01*
X96830303Y-65185010D01*
X97223629Y-64792370D01*
X97226689Y-64785000D01*
X117000000Y-64785000D01*
X117300407Y-64725245D01*
X117555079Y-64555079D01*
X124675005Y-57435153D01*
X124685167Y-57435162D01*
X125028943Y-57293117D01*
X125037074Y-57285000D01*
X126962494Y-57285000D01*
X126969673Y-57292192D01*
X127313201Y-57434838D01*
X127685167Y-57435162D01*
X128028943Y-57293117D01*
X128292192Y-57030327D01*
X128434838Y-56686799D01*
X128435162Y-56314833D01*
X128293117Y-55971057D01*
X128030327Y-55707808D01*
X127686799Y-55565162D01*
X127314833Y-55564838D01*
X126971057Y-55706883D01*
X126962926Y-55715000D01*
X125037506Y-55715000D01*
X125037475Y-55714968D01*
X125391855Y-55478180D01*
X125479172Y-55347500D01*
X128522628Y-55347500D01*
X128609945Y-55478180D01*
X129018719Y-55751313D01*
X129500900Y-55847225D01*
X129983081Y-55751313D01*
X130391855Y-55478180D01*
X130664988Y-55069406D01*
X130760900Y-54587225D01*
X130760900Y-54537855D01*
X130664988Y-54055674D01*
X130475978Y-53772800D01*
X130500900Y-53772800D01*
X130801306Y-53713045D01*
X131055979Y-53542879D01*
X131226145Y-53288206D01*
X131259050Y-53122785D01*
X131652993Y-52859561D01*
X131958642Y-52402124D01*
X132065972Y-51862540D01*
X131958642Y-51322956D01*
X131652993Y-50865519D01*
X131420242Y-50710000D01*
X136947909Y-50710000D01*
X136697434Y-50877362D01*
G36*
X77326973Y-110171824D02*
X77375548Y-110191994D01*
X70672542Y-116895000D01*
X70368158Y-116895000D01*
X77209256Y-110053902D01*
X77326973Y-110171824D01*
X77326973Y-110171824D01*
G37*
X77326973Y-110171824D02*
X77375548Y-110191994D01*
X70672542Y-116895000D01*
X70368158Y-116895000D01*
X77209256Y-110053902D01*
X77326973Y-110171824D01*
G36*
X99606531Y-110015209D02*
X99047651Y-110573114D01*
X98744815Y-111302425D01*
X98744126Y-112092111D01*
X99045689Y-112821949D01*
X99603594Y-113380829D01*
X100332905Y-113683665D01*
X101122591Y-113684354D01*
X101852429Y-113382791D01*
X102411309Y-112824886D01*
X102714145Y-112095575D01*
X102714834Y-111305889D01*
X102413271Y-110576051D01*
X101855366Y-110017171D01*
X101293827Y-109784000D01*
X118673842Y-109784000D01*
X124064847Y-115175005D01*
X124064838Y-115185167D01*
X124085451Y-115235055D01*
X124016919Y-115248687D01*
X123608145Y-115521820D01*
X123335012Y-115930594D01*
X123239100Y-116412775D01*
X123239100Y-116462145D01*
X123289396Y-116715000D01*
X123037506Y-116715000D01*
X123030327Y-116707808D01*
X122686799Y-116565162D01*
X122314833Y-116564838D01*
X121971057Y-116706883D01*
X121962926Y-116715000D01*
X115284163Y-116715000D01*
X115284408Y-116434310D01*
X115119638Y-116035537D01*
X114814807Y-115730174D01*
X114416323Y-115564709D01*
X113984850Y-115564332D01*
X113586077Y-115729102D01*
X113280714Y-116033933D01*
X113115249Y-116432417D01*
X113115002Y-116715000D01*
X110884883Y-116715000D01*
X110885128Y-116434310D01*
X110720358Y-116035537D01*
X110415527Y-115730174D01*
X110017043Y-115564709D01*
X109585570Y-115564332D01*
X109186797Y-115729102D01*
X108881434Y-116033933D01*
X108715969Y-116432417D01*
X108715722Y-116715000D01*
X102286157Y-116715000D01*
X95967110Y-110395952D01*
X96276661Y-110396222D01*
X96790303Y-110183990D01*
X97183629Y-109791350D01*
X97186681Y-109784000D01*
X100166099Y-109784000D01*
X99606531Y-110015209D01*
X99606531Y-110015209D01*
G37*
X99606531Y-110015209D02*
X99047651Y-110573114D01*
X98744815Y-111302425D01*
X98744126Y-112092111D01*
X99045689Y-112821949D01*
X99603594Y-113380829D01*
X100332905Y-113683665D01*
X101122591Y-113684354D01*
X101852429Y-113382791D01*
X102411309Y-112824886D01*
X102714145Y-112095575D01*
X102714834Y-111305889D01*
X102413271Y-110576051D01*
X101855366Y-110017171D01*
X101293827Y-109784000D01*
X118673842Y-109784000D01*
X124064847Y-115175005D01*
X124064838Y-115185167D01*
X124085451Y-115235055D01*
X124016919Y-115248687D01*
X123608145Y-115521820D01*
X123335012Y-115930594D01*
X123239100Y-116412775D01*
X123239100Y-116462145D01*
X123289396Y-116715000D01*
X123037506Y-116715000D01*
X123030327Y-116707808D01*
X122686799Y-116565162D01*
X122314833Y-116564838D01*
X121971057Y-116706883D01*
X121962926Y-116715000D01*
X115284163Y-116715000D01*
X115284408Y-116434310D01*
X115119638Y-116035537D01*
X114814807Y-115730174D01*
X114416323Y-115564709D01*
X113984850Y-115564332D01*
X113586077Y-115729102D01*
X113280714Y-116033933D01*
X113115249Y-116432417D01*
X113115002Y-116715000D01*
X110884883Y-116715000D01*
X110885128Y-116434310D01*
X110720358Y-116035537D01*
X110415527Y-115730174D01*
X110017043Y-115564709D01*
X109585570Y-115564332D01*
X109186797Y-115729102D01*
X108881434Y-116033933D01*
X108715969Y-116432417D01*
X108715722Y-116715000D01*
X102286157Y-116715000D01*
X95967110Y-110395952D01*
X96276661Y-110396222D01*
X96790303Y-110183990D01*
X97183629Y-109791350D01*
X97186681Y-109784000D01*
X100166099Y-109784000D01*
X99606531Y-110015209D01*
G36*
X122348807Y-50865519D02*
X122043158Y-51322956D01*
X121935828Y-51862540D01*
X122043158Y-52402124D01*
X122348807Y-52859561D01*
X122716706Y-53105383D01*
X122471057Y-53206883D01*
X122207808Y-53469673D01*
X122065162Y-53813201D01*
X122065152Y-53824690D01*
X120655342Y-55234500D01*
X114849665Y-55234500D01*
X115118566Y-54966067D01*
X115284031Y-54567583D01*
X115284408Y-54136110D01*
X115119638Y-53737337D01*
X114814807Y-53431974D01*
X114416323Y-53266509D01*
X113984850Y-53266132D01*
X113586077Y-53430902D01*
X113280714Y-53735733D01*
X113115249Y-54134217D01*
X113114872Y-54565690D01*
X113279642Y-54964463D01*
X113549209Y-55234500D01*
X110450385Y-55234500D01*
X110719286Y-54966067D01*
X110884751Y-54567583D01*
X110885128Y-54136110D01*
X110720358Y-53737337D01*
X110415527Y-53431974D01*
X110017043Y-53266509D01*
X109585570Y-53266132D01*
X109186797Y-53430902D01*
X108881434Y-53735733D01*
X108715969Y-54134217D01*
X108715592Y-54565690D01*
X108880362Y-54964463D01*
X109149929Y-55234500D01*
X100369700Y-55234500D01*
X100069294Y-55294255D01*
X99814621Y-55464421D01*
X94376937Y-60902105D01*
X94292370Y-60817391D01*
X93779100Y-60604263D01*
X93223339Y-60603778D01*
X92709697Y-60816010D01*
X92316371Y-61208650D01*
X92313319Y-61216000D01*
X89333901Y-61216000D01*
X89893469Y-60984791D01*
X90452349Y-60426886D01*
X90755185Y-59697575D01*
X90755874Y-58907889D01*
X90454311Y-58178051D01*
X89896406Y-57619171D01*
X89167095Y-57316335D01*
X88377409Y-57315646D01*
X87647571Y-57617209D01*
X87088691Y-58175114D01*
X86785855Y-58904425D01*
X86785166Y-59694111D01*
X87086729Y-60423949D01*
X87644634Y-60982829D01*
X88206173Y-61216000D01*
X83593527Y-61216000D01*
X83762867Y-61146030D01*
X84363940Y-60546006D01*
X84689639Y-59761635D01*
X84690380Y-58912331D01*
X84366050Y-58127393D01*
X83766026Y-57526320D01*
X82981655Y-57200621D01*
X82132351Y-57199880D01*
X81347413Y-57524210D01*
X80746340Y-58124234D01*
X80420641Y-58908605D01*
X80419900Y-59757909D01*
X80561745Y-60101200D01*
X73003000Y-60101200D01*
X72702594Y-60160955D01*
X72447921Y-60331121D01*
X72162252Y-60616790D01*
X71612742Y-60616310D01*
X71103303Y-60826806D01*
X70713196Y-61216233D01*
X70712836Y-61217100D01*
X69874865Y-61217100D01*
X70046867Y-61146030D01*
X70647940Y-60546006D01*
X70973639Y-59761635D01*
X70974380Y-58912331D01*
X70650050Y-58127393D01*
X70050026Y-57526320D01*
X69265655Y-57200621D01*
X68416351Y-57199880D01*
X67631413Y-57524210D01*
X67030340Y-58124234D01*
X66704641Y-58908605D01*
X66703900Y-59757909D01*
X67028230Y-60542847D01*
X67628254Y-61143920D01*
X67816089Y-61221916D01*
X67539894Y-61276855D01*
X67285221Y-61447021D01*
X55764121Y-72968121D01*
X55593955Y-73222793D01*
X55559641Y-73395301D01*
X55534200Y-73523200D01*
X55534200Y-93346997D01*
X54976487Y-93115415D01*
X54027675Y-93114587D01*
X53150771Y-93476916D01*
X52479274Y-94147242D01*
X52115415Y-95023513D01*
X52114587Y-95972325D01*
X52476916Y-96849229D01*
X53147242Y-97520726D01*
X54023513Y-97884585D01*
X54972325Y-97885413D01*
X55849229Y-97523084D01*
X56520726Y-96852758D01*
X56599745Y-96662460D01*
X56676916Y-96849229D01*
X57347242Y-97520726D01*
X58223513Y-97884585D01*
X59172325Y-97885413D01*
X60049229Y-97523084D01*
X60720726Y-96852758D01*
X60799745Y-96662460D01*
X60876916Y-96849229D01*
X61547242Y-97520726D01*
X62423513Y-97884585D01*
X63372325Y-97885413D01*
X64249229Y-97523084D01*
X64920726Y-96852758D01*
X65284585Y-95976487D01*
X65285413Y-95027675D01*
X64962706Y-94246664D01*
X69581812Y-98865770D01*
X69078085Y-98865330D01*
X68293100Y-99189680D01*
X67691991Y-99789741D01*
X67366272Y-100574159D01*
X67365530Y-101423515D01*
X67689880Y-102208500D01*
X68289941Y-102809609D01*
X69074359Y-103135328D01*
X69923715Y-103136070D01*
X70708700Y-102811720D01*
X71309809Y-102211659D01*
X71635528Y-101427241D01*
X71635971Y-100919929D01*
X74787900Y-104071858D01*
X74787900Y-107823687D01*
X74556797Y-108054387D01*
X74326747Y-107823936D01*
X73817676Y-107612551D01*
X73266462Y-107612070D01*
X72757023Y-107822566D01*
X72366916Y-108211993D01*
X72270885Y-108443261D01*
X72176174Y-108214043D01*
X71786747Y-107823936D01*
X71277676Y-107612551D01*
X70726462Y-107612070D01*
X70217023Y-107822566D01*
X69826916Y-108211993D01*
X69615531Y-108721064D01*
X69615050Y-109272278D01*
X69825546Y-109781717D01*
X70214973Y-110171824D01*
X70724044Y-110383209D01*
X71275258Y-110383690D01*
X71784697Y-110173194D01*
X72174804Y-109783767D01*
X72270835Y-109552499D01*
X72365546Y-109781717D01*
X72754973Y-110171824D01*
X73264044Y-110383209D01*
X73815258Y-110383690D01*
X74324697Y-110173194D01*
X74556923Y-109941373D01*
X74786973Y-110171824D01*
X74846359Y-110196483D01*
X69417842Y-115625000D01*
X53677944Y-115625000D01*
X53494415Y-115350330D01*
X53179634Y-115140000D01*
X53494415Y-114929670D01*
X53819271Y-114443489D01*
X53933345Y-113870000D01*
X53819271Y-113296511D01*
X53494415Y-112810330D01*
X53179634Y-112600000D01*
X53494415Y-112389670D01*
X53696205Y-112087669D01*
X65309620Y-112087669D01*
X65633950Y-112872607D01*
X66233974Y-113473680D01*
X67018345Y-113799379D01*
X67867649Y-113800120D01*
X68652587Y-113475790D01*
X69253660Y-112875766D01*
X69579359Y-112091395D01*
X69580100Y-111242091D01*
X69255770Y-110457153D01*
X68655746Y-109856080D01*
X67871375Y-109530381D01*
X67022071Y-109529640D01*
X66237133Y-109853970D01*
X65636060Y-110453994D01*
X65310361Y-111238365D01*
X65309620Y-112087669D01*
X53696205Y-112087669D01*
X53819271Y-111903489D01*
X53933345Y-111330000D01*
X53819271Y-110756511D01*
X53494415Y-110270330D01*
X53179634Y-110060000D01*
X53494415Y-109849670D01*
X53819271Y-109363489D01*
X53933345Y-108790000D01*
X53819271Y-108216511D01*
X53494415Y-107730330D01*
X53480087Y-107720757D01*
X53501317Y-107716762D01*
X53717441Y-107577690D01*
X53862431Y-107365490D01*
X53913440Y-107113600D01*
X53913440Y-105386400D01*
X53869162Y-105151083D01*
X53730090Y-104934959D01*
X53517890Y-104789969D01*
X53266000Y-104738960D01*
X51234000Y-104738960D01*
X50998683Y-104783238D01*
X50782559Y-104922310D01*
X50710000Y-105028504D01*
X50710000Y-100772325D01*
X52114587Y-100772325D01*
X52476916Y-101649229D01*
X53147242Y-102320726D01*
X54023513Y-102684585D01*
X54972325Y-102685413D01*
X55849229Y-102323084D01*
X56520726Y-101652758D01*
X56599745Y-101462460D01*
X56676916Y-101649229D01*
X57347242Y-102320726D01*
X58223513Y-102684585D01*
X59172325Y-102685413D01*
X60049229Y-102323084D01*
X60720726Y-101652758D01*
X60799745Y-101462460D01*
X60876916Y-101649229D01*
X61547242Y-102320726D01*
X62423513Y-102684585D01*
X63372325Y-102685413D01*
X64249229Y-102323084D01*
X64920726Y-101652758D01*
X65284585Y-100776487D01*
X65285413Y-99827675D01*
X64923084Y-98950771D01*
X64252758Y-98279274D01*
X63376487Y-97915415D01*
X62427675Y-97914587D01*
X61550771Y-98276916D01*
X60879274Y-98947242D01*
X60800255Y-99137540D01*
X60723084Y-98950771D01*
X60052758Y-98279274D01*
X59176487Y-97915415D01*
X58227675Y-97914587D01*
X57350771Y-98276916D01*
X56679274Y-98947242D01*
X56600255Y-99137540D01*
X56523084Y-98950771D01*
X55852758Y-98279274D01*
X54976487Y-97915415D01*
X54027675Y-97914587D01*
X53150771Y-98276916D01*
X52479274Y-98947242D01*
X52115415Y-99823513D01*
X52114587Y-100772325D01*
X50710000Y-100772325D01*
X50710000Y-90347513D01*
X51017428Y-90491213D01*
X51235540Y-90368888D01*
X51235540Y-89126100D01*
X51489540Y-89126100D01*
X51489540Y-90368888D01*
X51707652Y-90491213D01*
X52189646Y-90265917D01*
X52563641Y-89862481D01*
X52754779Y-89346634D01*
X52613700Y-89126100D01*
X51489540Y-89126100D01*
X51235540Y-89126100D01*
X51215540Y-89126100D01*
X51215540Y-88872100D01*
X51235540Y-88872100D01*
X51235540Y-87629312D01*
X51489540Y-87629312D01*
X51489540Y-88872100D01*
X52613700Y-88872100D01*
X52754779Y-88651566D01*
X52632161Y-88320640D01*
X52844258Y-88320640D01*
X52973712Y-88633199D01*
X53299253Y-89001608D01*
X53740998Y-89217394D01*
X53935540Y-89093945D01*
X53935540Y-88126100D01*
X54189540Y-88126100D01*
X54189540Y-89093945D01*
X54384082Y-89217394D01*
X54825827Y-89001608D01*
X55151368Y-88633199D01*
X55280822Y-88320640D01*
X55156442Y-88126100D01*
X54189540Y-88126100D01*
X53935540Y-88126100D01*
X52968638Y-88126100D01*
X52844258Y-88320640D01*
X52632161Y-88320640D01*
X52563641Y-88135719D01*
X52189646Y-87732283D01*
X52072573Y-87677560D01*
X52844258Y-87677560D01*
X52968638Y-87872100D01*
X53935540Y-87872100D01*
X53935540Y-86904255D01*
X54189540Y-86904255D01*
X54189540Y-87872100D01*
X55156442Y-87872100D01*
X55280822Y-87677560D01*
X55151368Y-87365001D01*
X54825827Y-86996592D01*
X54384082Y-86780806D01*
X54189540Y-86904255D01*
X53935540Y-86904255D01*
X53740998Y-86780806D01*
X53299253Y-86996592D01*
X52973712Y-87365001D01*
X52844258Y-87677560D01*
X52072573Y-87677560D01*
X51707652Y-87506987D01*
X51489540Y-87629312D01*
X51235540Y-87629312D01*
X51017428Y-87506987D01*
X50710000Y-87650687D01*
X50710000Y-83347513D01*
X51017428Y-83491213D01*
X51235540Y-83368888D01*
X51235540Y-82126100D01*
X51489540Y-82126100D01*
X51489540Y-83368888D01*
X51707652Y-83491213D01*
X52072572Y-83320640D01*
X52844258Y-83320640D01*
X52973712Y-83633199D01*
X53299253Y-84001608D01*
X53740998Y-84217394D01*
X53935540Y-84093945D01*
X53935540Y-83126100D01*
X54189540Y-83126100D01*
X54189540Y-84093945D01*
X54384082Y-84217394D01*
X54825827Y-84001608D01*
X55151368Y-83633199D01*
X55280822Y-83320640D01*
X55156442Y-83126100D01*
X54189540Y-83126100D01*
X53935540Y-83126100D01*
X52968638Y-83126100D01*
X52844258Y-83320640D01*
X52072572Y-83320640D01*
X52189646Y-83265917D01*
X52563641Y-82862481D01*
X52632160Y-82677560D01*
X52844258Y-82677560D01*
X52968638Y-82872100D01*
X53935540Y-82872100D01*
X53935540Y-81904255D01*
X54189540Y-81904255D01*
X54189540Y-82872100D01*
X55156442Y-82872100D01*
X55280822Y-82677560D01*
X55151368Y-82365001D01*
X54825827Y-81996592D01*
X54384082Y-81780806D01*
X54189540Y-81904255D01*
X53935540Y-81904255D01*
X53740998Y-81780806D01*
X53299253Y-81996592D01*
X52973712Y-82365001D01*
X52844258Y-82677560D01*
X52632160Y-82677560D01*
X52754779Y-82346634D01*
X52613700Y-82126100D01*
X51489540Y-82126100D01*
X51235540Y-82126100D01*
X51215540Y-82126100D01*
X51215540Y-81872100D01*
X51235540Y-81872100D01*
X51235540Y-80629312D01*
X51489540Y-80629312D01*
X51489540Y-81872100D01*
X52613700Y-81872100D01*
X52754779Y-81651566D01*
X52563641Y-81135719D01*
X52189646Y-80732283D01*
X51707652Y-80506987D01*
X51489540Y-80629312D01*
X51235540Y-80629312D01*
X51017428Y-80506987D01*
X50710000Y-80650687D01*
X50710000Y-50710000D01*
X122581558Y-50710000D01*
X122348807Y-50865519D01*
X122348807Y-50865519D01*
G37*
X122348807Y-50865519D02*
X122043158Y-51322956D01*
X121935828Y-51862540D01*
X122043158Y-52402124D01*
X122348807Y-52859561D01*
X122716706Y-53105383D01*
X122471057Y-53206883D01*
X122207808Y-53469673D01*
X122065162Y-53813201D01*
X122065152Y-53824690D01*
X120655342Y-55234500D01*
X114849665Y-55234500D01*
X115118566Y-54966067D01*
X115284031Y-54567583D01*
X115284408Y-54136110D01*
X115119638Y-53737337D01*
X114814807Y-53431974D01*
X114416323Y-53266509D01*
X113984850Y-53266132D01*
X113586077Y-53430902D01*
X113280714Y-53735733D01*
X113115249Y-54134217D01*
X113114872Y-54565690D01*
X113279642Y-54964463D01*
X113549209Y-55234500D01*
X110450385Y-55234500D01*
X110719286Y-54966067D01*
X110884751Y-54567583D01*
X110885128Y-54136110D01*
X110720358Y-53737337D01*
X110415527Y-53431974D01*
X110017043Y-53266509D01*
X109585570Y-53266132D01*
X109186797Y-53430902D01*
X108881434Y-53735733D01*
X108715969Y-54134217D01*
X108715592Y-54565690D01*
X108880362Y-54964463D01*
X109149929Y-55234500D01*
X100369700Y-55234500D01*
X100069294Y-55294255D01*
X99814621Y-55464421D01*
X94376937Y-60902105D01*
X94292370Y-60817391D01*
X93779100Y-60604263D01*
X93223339Y-60603778D01*
X92709697Y-60816010D01*
X92316371Y-61208650D01*
X92313319Y-61216000D01*
X89333901Y-61216000D01*
X89893469Y-60984791D01*
X90452349Y-60426886D01*
X90755185Y-59697575D01*
X90755874Y-58907889D01*
X90454311Y-58178051D01*
X89896406Y-57619171D01*
X89167095Y-57316335D01*
X88377409Y-57315646D01*
X87647571Y-57617209D01*
X87088691Y-58175114D01*
X86785855Y-58904425D01*
X86785166Y-59694111D01*
X87086729Y-60423949D01*
X87644634Y-60982829D01*
X88206173Y-61216000D01*
X83593527Y-61216000D01*
X83762867Y-61146030D01*
X84363940Y-60546006D01*
X84689639Y-59761635D01*
X84690380Y-58912331D01*
X84366050Y-58127393D01*
X83766026Y-57526320D01*
X82981655Y-57200621D01*
X82132351Y-57199880D01*
X81347413Y-57524210D01*
X80746340Y-58124234D01*
X80420641Y-58908605D01*
X80419900Y-59757909D01*
X80561745Y-60101200D01*
X73003000Y-60101200D01*
X72702594Y-60160955D01*
X72447921Y-60331121D01*
X72162252Y-60616790D01*
X71612742Y-60616310D01*
X71103303Y-60826806D01*
X70713196Y-61216233D01*
X70712836Y-61217100D01*
X69874865Y-61217100D01*
X70046867Y-61146030D01*
X70647940Y-60546006D01*
X70973639Y-59761635D01*
X70974380Y-58912331D01*
X70650050Y-58127393D01*
X70050026Y-57526320D01*
X69265655Y-57200621D01*
X68416351Y-57199880D01*
X67631413Y-57524210D01*
X67030340Y-58124234D01*
X66704641Y-58908605D01*
X66703900Y-59757909D01*
X67028230Y-60542847D01*
X67628254Y-61143920D01*
X67816089Y-61221916D01*
X67539894Y-61276855D01*
X67285221Y-61447021D01*
X55764121Y-72968121D01*
X55593955Y-73222793D01*
X55559641Y-73395301D01*
X55534200Y-73523200D01*
X55534200Y-93346997D01*
X54976487Y-93115415D01*
X54027675Y-93114587D01*
X53150771Y-93476916D01*
X52479274Y-94147242D01*
X52115415Y-95023513D01*
X52114587Y-95972325D01*
X52476916Y-96849229D01*
X53147242Y-97520726D01*
X54023513Y-97884585D01*
X54972325Y-97885413D01*
X55849229Y-97523084D01*
X56520726Y-96852758D01*
X56599745Y-96662460D01*
X56676916Y-96849229D01*
X57347242Y-97520726D01*
X58223513Y-97884585D01*
X59172325Y-97885413D01*
X60049229Y-97523084D01*
X60720726Y-96852758D01*
X60799745Y-96662460D01*
X60876916Y-96849229D01*
X61547242Y-97520726D01*
X62423513Y-97884585D01*
X63372325Y-97885413D01*
X64249229Y-97523084D01*
X64920726Y-96852758D01*
X65284585Y-95976487D01*
X65285413Y-95027675D01*
X64962706Y-94246664D01*
X69581812Y-98865770D01*
X69078085Y-98865330D01*
X68293100Y-99189680D01*
X67691991Y-99789741D01*
X67366272Y-100574159D01*
X67365530Y-101423515D01*
X67689880Y-102208500D01*
X68289941Y-102809609D01*
X69074359Y-103135328D01*
X69923715Y-103136070D01*
X70708700Y-102811720D01*
X71309809Y-102211659D01*
X71635528Y-101427241D01*
X71635971Y-100919929D01*
X74787900Y-104071858D01*
X74787900Y-107823687D01*
X74556797Y-108054387D01*
X74326747Y-107823936D01*
X73817676Y-107612551D01*
X73266462Y-107612070D01*
X72757023Y-107822566D01*
X72366916Y-108211993D01*
X72270885Y-108443261D01*
X72176174Y-108214043D01*
X71786747Y-107823936D01*
X71277676Y-107612551D01*
X70726462Y-107612070D01*
X70217023Y-107822566D01*
X69826916Y-108211993D01*
X69615531Y-108721064D01*
X69615050Y-109272278D01*
X69825546Y-109781717D01*
X70214973Y-110171824D01*
X70724044Y-110383209D01*
X71275258Y-110383690D01*
X71784697Y-110173194D01*
X72174804Y-109783767D01*
X72270835Y-109552499D01*
X72365546Y-109781717D01*
X72754973Y-110171824D01*
X73264044Y-110383209D01*
X73815258Y-110383690D01*
X74324697Y-110173194D01*
X74556923Y-109941373D01*
X74786973Y-110171824D01*
X74846359Y-110196483D01*
X69417842Y-115625000D01*
X53677944Y-115625000D01*
X53494415Y-115350330D01*
X53179634Y-115140000D01*
X53494415Y-114929670D01*
X53819271Y-114443489D01*
X53933345Y-113870000D01*
X53819271Y-113296511D01*
X53494415Y-112810330D01*
X53179634Y-112600000D01*
X53494415Y-112389670D01*
X53696205Y-112087669D01*
X65309620Y-112087669D01*
X65633950Y-112872607D01*
X66233974Y-113473680D01*
X67018345Y-113799379D01*
X67867649Y-113800120D01*
X68652587Y-113475790D01*
X69253660Y-112875766D01*
X69579359Y-112091395D01*
X69580100Y-111242091D01*
X69255770Y-110457153D01*
X68655746Y-109856080D01*
X67871375Y-109530381D01*
X67022071Y-109529640D01*
X66237133Y-109853970D01*
X65636060Y-110453994D01*
X65310361Y-111238365D01*
X65309620Y-112087669D01*
X53696205Y-112087669D01*
X53819271Y-111903489D01*
X53933345Y-111330000D01*
X53819271Y-110756511D01*
X53494415Y-110270330D01*
X53179634Y-110060000D01*
X53494415Y-109849670D01*
X53819271Y-109363489D01*
X53933345Y-108790000D01*
X53819271Y-108216511D01*
X53494415Y-107730330D01*
X53480087Y-107720757D01*
X53501317Y-107716762D01*
X53717441Y-107577690D01*
X53862431Y-107365490D01*
X53913440Y-107113600D01*
X53913440Y-105386400D01*
X53869162Y-105151083D01*
X53730090Y-104934959D01*
X53517890Y-104789969D01*
X53266000Y-104738960D01*
X51234000Y-104738960D01*
X50998683Y-104783238D01*
X50782559Y-104922310D01*
X50710000Y-105028504D01*
X50710000Y-100772325D01*
X52114587Y-100772325D01*
X52476916Y-101649229D01*
X53147242Y-102320726D01*
X54023513Y-102684585D01*
X54972325Y-102685413D01*
X55849229Y-102323084D01*
X56520726Y-101652758D01*
X56599745Y-101462460D01*
X56676916Y-101649229D01*
X57347242Y-102320726D01*
X58223513Y-102684585D01*
X59172325Y-102685413D01*
X60049229Y-102323084D01*
X60720726Y-101652758D01*
X60799745Y-101462460D01*
X60876916Y-101649229D01*
X61547242Y-102320726D01*
X62423513Y-102684585D01*
X63372325Y-102685413D01*
X64249229Y-102323084D01*
X64920726Y-101652758D01*
X65284585Y-100776487D01*
X65285413Y-99827675D01*
X64923084Y-98950771D01*
X64252758Y-98279274D01*
X63376487Y-97915415D01*
X62427675Y-97914587D01*
X61550771Y-98276916D01*
X60879274Y-98947242D01*
X60800255Y-99137540D01*
X60723084Y-98950771D01*
X60052758Y-98279274D01*
X59176487Y-97915415D01*
X58227675Y-97914587D01*
X57350771Y-98276916D01*
X56679274Y-98947242D01*
X56600255Y-99137540D01*
X56523084Y-98950771D01*
X55852758Y-98279274D01*
X54976487Y-97915415D01*
X54027675Y-97914587D01*
X53150771Y-98276916D01*
X52479274Y-98947242D01*
X52115415Y-99823513D01*
X52114587Y-100772325D01*
X50710000Y-100772325D01*
X50710000Y-90347513D01*
X51017428Y-90491213D01*
X51235540Y-90368888D01*
X51235540Y-89126100D01*
X51489540Y-89126100D01*
X51489540Y-90368888D01*
X51707652Y-90491213D01*
X52189646Y-90265917D01*
X52563641Y-89862481D01*
X52754779Y-89346634D01*
X52613700Y-89126100D01*
X51489540Y-89126100D01*
X51235540Y-89126100D01*
X51215540Y-89126100D01*
X51215540Y-88872100D01*
X51235540Y-88872100D01*
X51235540Y-87629312D01*
X51489540Y-87629312D01*
X51489540Y-88872100D01*
X52613700Y-88872100D01*
X52754779Y-88651566D01*
X52632161Y-88320640D01*
X52844258Y-88320640D01*
X52973712Y-88633199D01*
X53299253Y-89001608D01*
X53740998Y-89217394D01*
X53935540Y-89093945D01*
X53935540Y-88126100D01*
X54189540Y-88126100D01*
X54189540Y-89093945D01*
X54384082Y-89217394D01*
X54825827Y-89001608D01*
X55151368Y-88633199D01*
X55280822Y-88320640D01*
X55156442Y-88126100D01*
X54189540Y-88126100D01*
X53935540Y-88126100D01*
X52968638Y-88126100D01*
X52844258Y-88320640D01*
X52632161Y-88320640D01*
X52563641Y-88135719D01*
X52189646Y-87732283D01*
X52072573Y-87677560D01*
X52844258Y-87677560D01*
X52968638Y-87872100D01*
X53935540Y-87872100D01*
X53935540Y-86904255D01*
X54189540Y-86904255D01*
X54189540Y-87872100D01*
X55156442Y-87872100D01*
X55280822Y-87677560D01*
X55151368Y-87365001D01*
X54825827Y-86996592D01*
X54384082Y-86780806D01*
X54189540Y-86904255D01*
X53935540Y-86904255D01*
X53740998Y-86780806D01*
X53299253Y-86996592D01*
X52973712Y-87365001D01*
X52844258Y-87677560D01*
X52072573Y-87677560D01*
X51707652Y-87506987D01*
X51489540Y-87629312D01*
X51235540Y-87629312D01*
X51017428Y-87506987D01*
X50710000Y-87650687D01*
X50710000Y-83347513D01*
X51017428Y-83491213D01*
X51235540Y-83368888D01*
X51235540Y-82126100D01*
X51489540Y-82126100D01*
X51489540Y-83368888D01*
X51707652Y-83491213D01*
X52072572Y-83320640D01*
X52844258Y-83320640D01*
X52973712Y-83633199D01*
X53299253Y-84001608D01*
X53740998Y-84217394D01*
X53935540Y-84093945D01*
X53935540Y-83126100D01*
X54189540Y-83126100D01*
X54189540Y-84093945D01*
X54384082Y-84217394D01*
X54825827Y-84001608D01*
X55151368Y-83633199D01*
X55280822Y-83320640D01*
X55156442Y-83126100D01*
X54189540Y-83126100D01*
X53935540Y-83126100D01*
X52968638Y-83126100D01*
X52844258Y-83320640D01*
X52072572Y-83320640D01*
X52189646Y-83265917D01*
X52563641Y-82862481D01*
X52632160Y-82677560D01*
X52844258Y-82677560D01*
X52968638Y-82872100D01*
X53935540Y-82872100D01*
X53935540Y-81904255D01*
X54189540Y-81904255D01*
X54189540Y-82872100D01*
X55156442Y-82872100D01*
X55280822Y-82677560D01*
X55151368Y-82365001D01*
X54825827Y-81996592D01*
X54384082Y-81780806D01*
X54189540Y-81904255D01*
X53935540Y-81904255D01*
X53740998Y-81780806D01*
X53299253Y-81996592D01*
X52973712Y-82365001D01*
X52844258Y-82677560D01*
X52632160Y-82677560D01*
X52754779Y-82346634D01*
X52613700Y-82126100D01*
X51489540Y-82126100D01*
X51235540Y-82126100D01*
X51215540Y-82126100D01*
X51215540Y-81872100D01*
X51235540Y-81872100D01*
X51235540Y-80629312D01*
X51489540Y-80629312D01*
X51489540Y-81872100D01*
X52613700Y-81872100D01*
X52754779Y-81651566D01*
X52563641Y-81135719D01*
X52189646Y-80732283D01*
X51707652Y-80506987D01*
X51489540Y-80629312D01*
X51235540Y-80629312D01*
X51017428Y-80506987D01*
X50710000Y-80650687D01*
X50710000Y-50710000D01*
X122581558Y-50710000D01*
X122348807Y-50865519D01*
G36*
X86725121Y-98949421D02*
X86554955Y-99204093D01*
X86513711Y-99411441D01*
X86495200Y-99504500D01*
X86495200Y-101072342D01*
X79307274Y-108260268D01*
X79288174Y-108214043D01*
X78898747Y-107823936D01*
X78389676Y-107612551D01*
X77838462Y-107612070D01*
X77627900Y-107699072D01*
X77627900Y-101447258D01*
X80925158Y-98150000D01*
X87524542Y-98150000D01*
X86725121Y-98949421D01*
X86725121Y-98949421D01*
G37*
X86725121Y-98949421D02*
X86554955Y-99204093D01*
X86513711Y-99411441D01*
X86495200Y-99504500D01*
X86495200Y-101072342D01*
X79307274Y-108260268D01*
X79288174Y-108214043D01*
X78898747Y-107823936D01*
X78389676Y-107612551D01*
X77838462Y-107612070D01*
X77627900Y-107699072D01*
X77627900Y-101447258D01*
X80925158Y-98150000D01*
X87524542Y-98150000D01*
X86725121Y-98949421D01*
G36*
X77335910Y-92901441D02*
X77548110Y-93046431D01*
X77800000Y-93097440D01*
X78392102Y-93097440D01*
X77844921Y-93644621D01*
X77674755Y-93899293D01*
X77669210Y-93927170D01*
X77564683Y-93946838D01*
X77348559Y-94085910D01*
X77203569Y-94298110D01*
X77152560Y-94550000D01*
X77152560Y-95450000D01*
X77196838Y-95685317D01*
X77335910Y-95901441D01*
X77548110Y-96046431D01*
X77800000Y-96097440D01*
X79000000Y-96097440D01*
X79235317Y-96053162D01*
X79451441Y-95914090D01*
X79499134Y-95844289D01*
X79535910Y-95901441D01*
X79748110Y-96046431D01*
X79815000Y-96059977D01*
X79815000Y-97039842D01*
X76287821Y-100567021D01*
X76117655Y-100821693D01*
X76101792Y-100901441D01*
X76057900Y-101122100D01*
X76057900Y-103121542D01*
X69071358Y-96135000D01*
X69072002Y-96135000D01*
X69072002Y-95976252D01*
X69230750Y-96135000D01*
X69571309Y-96135000D01*
X69804698Y-96038327D01*
X69983327Y-95859699D01*
X70002340Y-95813799D01*
X70090910Y-95951441D01*
X70303110Y-96096431D01*
X70555000Y-96147440D01*
X71555000Y-96147440D01*
X71790317Y-96103162D01*
X72006441Y-95964090D01*
X72151431Y-95751890D01*
X72154775Y-95735376D01*
X72205707Y-95725245D01*
X72460379Y-95555079D01*
X75230458Y-92785000D01*
X77260982Y-92785000D01*
X77335910Y-92901441D01*
X77335910Y-92901441D01*
G37*
X77335910Y-92901441D02*
X77548110Y-93046431D01*
X77800000Y-93097440D01*
X78392102Y-93097440D01*
X77844921Y-93644621D01*
X77674755Y-93899293D01*
X77669210Y-93927170D01*
X77564683Y-93946838D01*
X77348559Y-94085910D01*
X77203569Y-94298110D01*
X77152560Y-94550000D01*
X77152560Y-95450000D01*
X77196838Y-95685317D01*
X77335910Y-95901441D01*
X77548110Y-96046431D01*
X77800000Y-96097440D01*
X79000000Y-96097440D01*
X79235317Y-96053162D01*
X79451441Y-95914090D01*
X79499134Y-95844289D01*
X79535910Y-95901441D01*
X79748110Y-96046431D01*
X79815000Y-96059977D01*
X79815000Y-97039842D01*
X76287821Y-100567021D01*
X76117655Y-100821693D01*
X76101792Y-100901441D01*
X76057900Y-101122100D01*
X76057900Y-103121542D01*
X69071358Y-96135000D01*
X69072002Y-96135000D01*
X69072002Y-95976252D01*
X69230750Y-96135000D01*
X69571309Y-96135000D01*
X69804698Y-96038327D01*
X69983327Y-95859699D01*
X70002340Y-95813799D01*
X70090910Y-95951441D01*
X70303110Y-96096431D01*
X70555000Y-96147440D01*
X71555000Y-96147440D01*
X71790317Y-96103162D01*
X72006441Y-95964090D01*
X72151431Y-95751890D01*
X72154775Y-95735376D01*
X72205707Y-95725245D01*
X72460379Y-95555079D01*
X75230458Y-92785000D01*
X77260982Y-92785000D01*
X77335910Y-92901441D01*
G36*
X106377560Y-97065000D02*
X106377560Y-97665000D01*
X106421838Y-97900317D01*
X106485678Y-97999528D01*
X106428569Y-98083110D01*
X106377560Y-98335000D01*
X106377560Y-98935000D01*
X106421835Y-99170299D01*
X106374294Y-99179755D01*
X106119621Y-99349921D01*
X105674142Y-99795400D01*
X99531890Y-99795400D01*
X102297290Y-97030000D01*
X106384648Y-97030000D01*
X106377560Y-97065000D01*
X106377560Y-97065000D01*
G37*
X106377560Y-97065000D02*
X106377560Y-97665000D01*
X106421838Y-97900317D01*
X106485678Y-97999528D01*
X106428569Y-98083110D01*
X106377560Y-98335000D01*
X106377560Y-98935000D01*
X106421835Y-99170299D01*
X106374294Y-99179755D01*
X106119621Y-99349921D01*
X105674142Y-99795400D01*
X99531890Y-99795400D01*
X102297290Y-97030000D01*
X106384648Y-97030000D01*
X106377560Y-97065000D01*
G36*
X137789700Y-88600158D02*
X137789700Y-91095000D01*
X137849455Y-91395406D01*
X138019621Y-91650079D01*
X138274294Y-91820245D01*
X138325078Y-91830347D01*
X138277560Y-92065000D01*
X138277560Y-92665000D01*
X138321838Y-92900317D01*
X138385678Y-92999528D01*
X138328569Y-93083110D01*
X138277560Y-93335000D01*
X138277560Y-93935000D01*
X138321835Y-94170299D01*
X138274294Y-94179755D01*
X138019621Y-94349921D01*
X137849455Y-94604594D01*
X137789700Y-94905000D01*
X137789700Y-98399842D01*
X137544921Y-98644621D01*
X137374755Y-98899293D01*
X137369210Y-98927170D01*
X137264683Y-98946838D01*
X137048559Y-99085910D01*
X137000866Y-99155711D01*
X136964090Y-99098559D01*
X136751890Y-98953569D01*
X136631179Y-98929124D01*
X136625245Y-98899293D01*
X136455079Y-98644621D01*
X136210300Y-98399842D01*
X136210300Y-94905000D01*
X136150545Y-94604594D01*
X135980379Y-94349921D01*
X135860768Y-94270000D01*
X135980379Y-94190079D01*
X137405479Y-92764979D01*
X137575645Y-92510306D01*
X137635400Y-92209900D01*
X137635400Y-88445858D01*
X137789700Y-88600158D01*
X137789700Y-88600158D01*
G37*
X137789700Y-88600158D02*
X137789700Y-91095000D01*
X137849455Y-91395406D01*
X138019621Y-91650079D01*
X138274294Y-91820245D01*
X138325078Y-91830347D01*
X138277560Y-92065000D01*
X138277560Y-92665000D01*
X138321838Y-92900317D01*
X138385678Y-92999528D01*
X138328569Y-93083110D01*
X138277560Y-93335000D01*
X138277560Y-93935000D01*
X138321835Y-94170299D01*
X138274294Y-94179755D01*
X138019621Y-94349921D01*
X137849455Y-94604594D01*
X137789700Y-94905000D01*
X137789700Y-98399842D01*
X137544921Y-98644621D01*
X137374755Y-98899293D01*
X137369210Y-98927170D01*
X137264683Y-98946838D01*
X137048559Y-99085910D01*
X137000866Y-99155711D01*
X136964090Y-99098559D01*
X136751890Y-98953569D01*
X136631179Y-98929124D01*
X136625245Y-98899293D01*
X136455079Y-98644621D01*
X136210300Y-98399842D01*
X136210300Y-94905000D01*
X136150545Y-94604594D01*
X135980379Y-94349921D01*
X135860768Y-94270000D01*
X135980379Y-94190079D01*
X137405479Y-92764979D01*
X137575645Y-92510306D01*
X137635400Y-92209900D01*
X137635400Y-88445858D01*
X137789700Y-88600158D01*
G36*
X96387830Y-91850221D02*
X96600030Y-91995211D01*
X96851920Y-92046220D01*
X97649480Y-92046220D01*
X97884797Y-92001942D01*
X97964300Y-91950783D01*
X97964300Y-94194442D01*
X97525142Y-94633600D01*
X95416700Y-94633600D01*
X95116293Y-94693355D01*
X94861621Y-94863521D01*
X93660921Y-96064221D01*
X93490755Y-96318893D01*
X93488373Y-96330869D01*
X92135400Y-97683842D01*
X92135400Y-92097440D01*
X93200000Y-92097440D01*
X93435317Y-92053162D01*
X93651441Y-91914090D01*
X93739644Y-91785000D01*
X96345861Y-91785000D01*
X96387830Y-91850221D01*
X96387830Y-91850221D01*
G37*
X96387830Y-91850221D02*
X96600030Y-91995211D01*
X96851920Y-92046220D01*
X97649480Y-92046220D01*
X97884797Y-92001942D01*
X97964300Y-91950783D01*
X97964300Y-94194442D01*
X97525142Y-94633600D01*
X95416700Y-94633600D01*
X95116293Y-94693355D01*
X94861621Y-94863521D01*
X93660921Y-96064221D01*
X93490755Y-96318893D01*
X93488373Y-96330869D01*
X92135400Y-97683842D01*
X92135400Y-92097440D01*
X93200000Y-92097440D01*
X93435317Y-92053162D01*
X93651441Y-91914090D01*
X93739644Y-91785000D01*
X96345861Y-91785000D01*
X96387830Y-91850221D01*
G36*
X106946838Y-91435317D02*
X107085910Y-91651441D01*
X107298110Y-91796431D01*
X107550000Y-91847440D01*
X108450000Y-91847440D01*
X108685317Y-91803162D01*
X108811870Y-91721728D01*
X110270821Y-93180679D01*
X110525493Y-93350845D01*
X110825900Y-93410600D01*
X111289700Y-93410600D01*
X111289700Y-96095000D01*
X111349455Y-96395406D01*
X111510068Y-96635782D01*
X111490093Y-96639755D01*
X111369421Y-96720386D01*
X111314833Y-96720338D01*
X111217792Y-96760434D01*
X107324779Y-92867421D01*
X107070107Y-92697255D01*
X106829067Y-92649309D01*
X105745763Y-91566005D01*
X105826441Y-91514090D01*
X105914644Y-91385000D01*
X106937370Y-91385000D01*
X106946838Y-91435317D01*
X106946838Y-91435317D01*
G37*
X106946838Y-91435317D02*
X107085910Y-91651441D01*
X107298110Y-91796431D01*
X107550000Y-91847440D01*
X108450000Y-91847440D01*
X108685317Y-91803162D01*
X108811870Y-91721728D01*
X110270821Y-93180679D01*
X110525493Y-93350845D01*
X110825900Y-93410600D01*
X111289700Y-93410600D01*
X111289700Y-96095000D01*
X111349455Y-96395406D01*
X111510068Y-96635782D01*
X111490093Y-96639755D01*
X111369421Y-96720386D01*
X111314833Y-96720338D01*
X111217792Y-96760434D01*
X107324779Y-92867421D01*
X107070107Y-92697255D01*
X106829067Y-92649309D01*
X105745763Y-91566005D01*
X105826441Y-91514090D01*
X105914644Y-91385000D01*
X106937370Y-91385000D01*
X106946838Y-91435317D01*
G36*
X90547000Y-91127000D02*
X90527000Y-91127000D01*
X90527000Y-91926250D01*
X90565400Y-91964650D01*
X90565400Y-95237375D01*
X90559698Y-95231673D01*
X90326309Y-95135000D01*
X89635750Y-95135000D01*
X89477000Y-95293750D01*
X89477000Y-95968000D01*
X89497000Y-95968000D01*
X89497000Y-96222000D01*
X89477000Y-96222000D01*
X89477000Y-96242000D01*
X89223000Y-96242000D01*
X89223000Y-96222000D01*
X88023750Y-96222000D01*
X87865000Y-96380750D01*
X87865000Y-96546310D01*
X87878955Y-96580000D01*
X81385000Y-96580000D01*
X81385000Y-96062630D01*
X81435317Y-96053162D01*
X81651441Y-95914090D01*
X81796431Y-95701890D01*
X81808216Y-95643690D01*
X87865000Y-95643690D01*
X87865000Y-95809250D01*
X88023750Y-95968000D01*
X89223000Y-95968000D01*
X89223000Y-95293750D01*
X89064250Y-95135000D01*
X88373691Y-95135000D01*
X88140302Y-95231673D01*
X87961673Y-95410301D01*
X87865000Y-95643690D01*
X81808216Y-95643690D01*
X81847440Y-95450000D01*
X81847440Y-94550000D01*
X81803162Y-94314683D01*
X81664090Y-94098559D01*
X81451890Y-93953569D01*
X81200000Y-93902560D01*
X80000000Y-93902560D01*
X79764683Y-93946838D01*
X79760018Y-93949840D01*
X79946879Y-93762979D01*
X80117045Y-93508307D01*
X80176800Y-93207900D01*
X80176800Y-93097440D01*
X81200000Y-93097440D01*
X81435317Y-93053162D01*
X81651441Y-92914090D01*
X81796431Y-92701890D01*
X81847440Y-92450000D01*
X81847440Y-91550000D01*
X81803162Y-91314683D01*
X81784545Y-91285750D01*
X89165000Y-91285750D01*
X89165000Y-91576310D01*
X89261673Y-91809699D01*
X89440302Y-91988327D01*
X89673691Y-92085000D01*
X90114250Y-92085000D01*
X90273000Y-91926250D01*
X90273000Y-91127000D01*
X89323750Y-91127000D01*
X89165000Y-91285750D01*
X81784545Y-91285750D01*
X81721728Y-91188130D01*
X81925258Y-90984600D01*
X90547000Y-90984600D01*
X90547000Y-91127000D01*
X90547000Y-91127000D01*
G37*
X90547000Y-91127000D02*
X90527000Y-91127000D01*
X90527000Y-91926250D01*
X90565400Y-91964650D01*
X90565400Y-95237375D01*
X90559698Y-95231673D01*
X90326309Y-95135000D01*
X89635750Y-95135000D01*
X89477000Y-95293750D01*
X89477000Y-95968000D01*
X89497000Y-95968000D01*
X89497000Y-96222000D01*
X89477000Y-96222000D01*
X89477000Y-96242000D01*
X89223000Y-96242000D01*
X89223000Y-96222000D01*
X88023750Y-96222000D01*
X87865000Y-96380750D01*
X87865000Y-96546310D01*
X87878955Y-96580000D01*
X81385000Y-96580000D01*
X81385000Y-96062630D01*
X81435317Y-96053162D01*
X81651441Y-95914090D01*
X81796431Y-95701890D01*
X81808216Y-95643690D01*
X87865000Y-95643690D01*
X87865000Y-95809250D01*
X88023750Y-95968000D01*
X89223000Y-95968000D01*
X89223000Y-95293750D01*
X89064250Y-95135000D01*
X88373691Y-95135000D01*
X88140302Y-95231673D01*
X87961673Y-95410301D01*
X87865000Y-95643690D01*
X81808216Y-95643690D01*
X81847440Y-95450000D01*
X81847440Y-94550000D01*
X81803162Y-94314683D01*
X81664090Y-94098559D01*
X81451890Y-93953569D01*
X81200000Y-93902560D01*
X80000000Y-93902560D01*
X79764683Y-93946838D01*
X79760018Y-93949840D01*
X79946879Y-93762979D01*
X80117045Y-93508307D01*
X80176800Y-93207900D01*
X80176800Y-93097440D01*
X81200000Y-93097440D01*
X81435317Y-93053162D01*
X81651441Y-92914090D01*
X81796431Y-92701890D01*
X81847440Y-92450000D01*
X81847440Y-91550000D01*
X81803162Y-91314683D01*
X81784545Y-91285750D01*
X89165000Y-91285750D01*
X89165000Y-91576310D01*
X89261673Y-91809699D01*
X89440302Y-91988327D01*
X89673691Y-92085000D01*
X90114250Y-92085000D01*
X90273000Y-91926250D01*
X90273000Y-91127000D01*
X89323750Y-91127000D01*
X89165000Y-91285750D01*
X81784545Y-91285750D01*
X81721728Y-91188130D01*
X81925258Y-90984600D01*
X90547000Y-90984600D01*
X90547000Y-91127000D01*
G36*
X136047000Y-87127000D02*
X136027000Y-87127000D01*
X136027000Y-87926250D01*
X136065400Y-87964650D01*
X136065400Y-91884742D01*
X135722440Y-92227702D01*
X135722440Y-92065000D01*
X135678162Y-91829683D01*
X135619822Y-91739020D01*
X135710000Y-91521310D01*
X135710000Y-91380750D01*
X135551250Y-91222000D01*
X134427000Y-91222000D01*
X134427000Y-91242000D01*
X134173000Y-91242000D01*
X134173000Y-91222000D01*
X133048750Y-91222000D01*
X132890000Y-91380750D01*
X132890000Y-91521310D01*
X132914310Y-91580000D01*
X130410300Y-91580000D01*
X130109893Y-91639755D01*
X129855221Y-91809921D01*
X129736607Y-91928535D01*
X129626890Y-91853569D01*
X129375000Y-91802560D01*
X128625000Y-91802560D01*
X128389683Y-91846838D01*
X128173559Y-91985910D01*
X128028569Y-92198110D01*
X128004124Y-92318821D01*
X127974294Y-92324755D01*
X127719621Y-92494921D01*
X127549455Y-92749594D01*
X127489700Y-93050000D01*
X127489700Y-94592542D01*
X125697440Y-96384802D01*
X125697440Y-96125000D01*
X125653162Y-95889683D01*
X125514090Y-95673559D01*
X125301890Y-95528569D01*
X125235000Y-95515023D01*
X125235000Y-94735768D01*
X125325245Y-94600707D01*
X125330790Y-94572830D01*
X125435317Y-94553162D01*
X125651441Y-94414090D01*
X125796431Y-94201890D01*
X125847440Y-93950000D01*
X125847440Y-93050000D01*
X125803162Y-92814683D01*
X125664090Y-92598559D01*
X125451890Y-92453569D01*
X125385000Y-92440023D01*
X125385000Y-91562630D01*
X125435317Y-91553162D01*
X125651441Y-91414090D01*
X125796431Y-91201890D01*
X125847440Y-90950000D01*
X125847440Y-90668690D01*
X132890000Y-90668690D01*
X132890000Y-90809250D01*
X133048750Y-90968000D01*
X134173000Y-90968000D01*
X134173000Y-90318750D01*
X134427000Y-90318750D01*
X134427000Y-90968000D01*
X135551250Y-90968000D01*
X135710000Y-90809250D01*
X135710000Y-90668690D01*
X135613327Y-90435301D01*
X135434698Y-90256673D01*
X135201309Y-90160000D01*
X134585750Y-90160000D01*
X134427000Y-90318750D01*
X134173000Y-90318750D01*
X134014250Y-90160000D01*
X133398691Y-90160000D01*
X133165302Y-90256673D01*
X132986673Y-90435301D01*
X132890000Y-90668690D01*
X125847440Y-90668690D01*
X125847440Y-90050000D01*
X125803162Y-89814683D01*
X125664090Y-89598559D01*
X125451890Y-89453569D01*
X125385000Y-89440023D01*
X125385000Y-88562630D01*
X125435317Y-88553162D01*
X125651441Y-88414090D01*
X125796431Y-88201890D01*
X125847440Y-87950000D01*
X125847440Y-87285750D01*
X134665000Y-87285750D01*
X134665000Y-87576310D01*
X134761673Y-87809699D01*
X134940302Y-87988327D01*
X135173691Y-88085000D01*
X135614250Y-88085000D01*
X135773000Y-87926250D01*
X135773000Y-87127000D01*
X134823750Y-87127000D01*
X134665000Y-87285750D01*
X125847440Y-87285750D01*
X125847440Y-87050000D01*
X125835153Y-86984700D01*
X136047000Y-86984700D01*
X136047000Y-87127000D01*
X136047000Y-87127000D01*
G37*
X136047000Y-87127000D02*
X136027000Y-87127000D01*
X136027000Y-87926250D01*
X136065400Y-87964650D01*
X136065400Y-91884742D01*
X135722440Y-92227702D01*
X135722440Y-92065000D01*
X135678162Y-91829683D01*
X135619822Y-91739020D01*
X135710000Y-91521310D01*
X135710000Y-91380750D01*
X135551250Y-91222000D01*
X134427000Y-91222000D01*
X134427000Y-91242000D01*
X134173000Y-91242000D01*
X134173000Y-91222000D01*
X133048750Y-91222000D01*
X132890000Y-91380750D01*
X132890000Y-91521310D01*
X132914310Y-91580000D01*
X130410300Y-91580000D01*
X130109893Y-91639755D01*
X129855221Y-91809921D01*
X129736607Y-91928535D01*
X129626890Y-91853569D01*
X129375000Y-91802560D01*
X128625000Y-91802560D01*
X128389683Y-91846838D01*
X128173559Y-91985910D01*
X128028569Y-92198110D01*
X128004124Y-92318821D01*
X127974294Y-92324755D01*
X127719621Y-92494921D01*
X127549455Y-92749594D01*
X127489700Y-93050000D01*
X127489700Y-94592542D01*
X125697440Y-96384802D01*
X125697440Y-96125000D01*
X125653162Y-95889683D01*
X125514090Y-95673559D01*
X125301890Y-95528569D01*
X125235000Y-95515023D01*
X125235000Y-94735768D01*
X125325245Y-94600707D01*
X125330790Y-94572830D01*
X125435317Y-94553162D01*
X125651441Y-94414090D01*
X125796431Y-94201890D01*
X125847440Y-93950000D01*
X125847440Y-93050000D01*
X125803162Y-92814683D01*
X125664090Y-92598559D01*
X125451890Y-92453569D01*
X125385000Y-92440023D01*
X125385000Y-91562630D01*
X125435317Y-91553162D01*
X125651441Y-91414090D01*
X125796431Y-91201890D01*
X125847440Y-90950000D01*
X125847440Y-90668690D01*
X132890000Y-90668690D01*
X132890000Y-90809250D01*
X133048750Y-90968000D01*
X134173000Y-90968000D01*
X134173000Y-90318750D01*
X134427000Y-90318750D01*
X134427000Y-90968000D01*
X135551250Y-90968000D01*
X135710000Y-90809250D01*
X135710000Y-90668690D01*
X135613327Y-90435301D01*
X135434698Y-90256673D01*
X135201309Y-90160000D01*
X134585750Y-90160000D01*
X134427000Y-90318750D01*
X134173000Y-90318750D01*
X134014250Y-90160000D01*
X133398691Y-90160000D01*
X133165302Y-90256673D01*
X132986673Y-90435301D01*
X132890000Y-90668690D01*
X125847440Y-90668690D01*
X125847440Y-90050000D01*
X125803162Y-89814683D01*
X125664090Y-89598559D01*
X125451890Y-89453569D01*
X125385000Y-89440023D01*
X125385000Y-88562630D01*
X125435317Y-88553162D01*
X125651441Y-88414090D01*
X125796431Y-88201890D01*
X125847440Y-87950000D01*
X125847440Y-87285750D01*
X134665000Y-87285750D01*
X134665000Y-87576310D01*
X134761673Y-87809699D01*
X134940302Y-87988327D01*
X135173691Y-88085000D01*
X135614250Y-88085000D01*
X135773000Y-87926250D01*
X135773000Y-87127000D01*
X134823750Y-87127000D01*
X134665000Y-87285750D01*
X125847440Y-87285750D01*
X125847440Y-87050000D01*
X125835153Y-86984700D01*
X136047000Y-86984700D01*
X136047000Y-87127000D01*
G36*
X121152560Y-87950000D02*
X121196838Y-88185317D01*
X121278272Y-88311870D01*
X114324725Y-95265417D01*
X114226890Y-95198569D01*
X113975000Y-95147560D01*
X112859700Y-95147560D01*
X112859700Y-94299788D01*
X112945067Y-94299862D01*
X113288843Y-94157817D01*
X113552092Y-93895027D01*
X113694738Y-93551499D01*
X113694748Y-93539910D01*
X114644158Y-92590500D01*
X116007200Y-92590500D01*
X116307607Y-92530745D01*
X116562279Y-92360579D01*
X121152560Y-87770298D01*
X121152560Y-87950000D01*
X121152560Y-87950000D01*
G37*
X121152560Y-87950000D02*
X121196838Y-88185317D01*
X121278272Y-88311870D01*
X114324725Y-95265417D01*
X114226890Y-95198569D01*
X113975000Y-95147560D01*
X112859700Y-95147560D01*
X112859700Y-94299788D01*
X112945067Y-94299862D01*
X113288843Y-94157817D01*
X113552092Y-93895027D01*
X113694738Y-93551499D01*
X113694748Y-93539910D01*
X114644158Y-92590500D01*
X116007200Y-92590500D01*
X116307607Y-92530745D01*
X116562279Y-92360579D01*
X121152560Y-87770298D01*
X121152560Y-87950000D01*
G36*
X142065000Y-86887290D02*
X142065000Y-92112710D01*
X141477710Y-92700000D01*
X141115352Y-92700000D01*
X141122440Y-92665000D01*
X141122440Y-92065000D01*
X141078162Y-91829683D01*
X141014322Y-91730472D01*
X141071431Y-91646890D01*
X141122440Y-91395000D01*
X141122440Y-90795000D01*
X141078162Y-90559683D01*
X140939090Y-90343559D01*
X140726890Y-90198569D01*
X140475000Y-90147560D01*
X139359700Y-90147560D01*
X139359700Y-88275000D01*
X139330082Y-88126100D01*
X139299945Y-87974593D01*
X139206083Y-87834119D01*
X139296431Y-87701890D01*
X139347440Y-87450000D01*
X139347440Y-86550000D01*
X139303162Y-86314683D01*
X139164090Y-86098559D01*
X138951890Y-85953569D01*
X138831179Y-85929124D01*
X138825245Y-85899293D01*
X138655079Y-85644621D01*
X138154779Y-85144321D01*
X137900107Y-84974155D01*
X137599700Y-84914400D01*
X119600300Y-84914400D01*
X119299893Y-84974155D01*
X119045221Y-85144321D01*
X116347440Y-87842102D01*
X116347440Y-87550000D01*
X116303162Y-87314683D01*
X116164090Y-87098559D01*
X115951890Y-86953569D01*
X115700000Y-86902560D01*
X114500000Y-86902560D01*
X114264683Y-86946838D01*
X114048559Y-87085910D01*
X114000866Y-87155711D01*
X113964090Y-87098559D01*
X113751890Y-86953569D01*
X113500000Y-86902560D01*
X112300000Y-86902560D01*
X112064683Y-86946838D01*
X111848559Y-87085910D01*
X111703569Y-87298110D01*
X111652560Y-87550000D01*
X111652560Y-88450000D01*
X111696838Y-88685317D01*
X111835910Y-88901441D01*
X112048110Y-89046431D01*
X112115000Y-89059977D01*
X112115000Y-89937370D01*
X112064683Y-89946838D01*
X111848559Y-90085910D01*
X111703569Y-90298110D01*
X111652560Y-90550000D01*
X111652560Y-91450000D01*
X111696838Y-91685317D01*
X111778272Y-91811870D01*
X111749542Y-91840600D01*
X111151058Y-91840600D01*
X109355379Y-90044921D01*
X109100707Y-89874755D01*
X109072830Y-89869210D01*
X109053162Y-89764683D01*
X108914090Y-89548559D01*
X108844289Y-89500866D01*
X108901441Y-89464090D01*
X109046431Y-89251890D01*
X109097440Y-89000000D01*
X109097440Y-87800000D01*
X109053162Y-87564683D01*
X108914090Y-87348559D01*
X108701890Y-87203569D01*
X108450000Y-87152560D01*
X107550000Y-87152560D01*
X107314683Y-87196838D01*
X107098559Y-87335910D01*
X106953569Y-87548110D01*
X106929124Y-87668821D01*
X106899293Y-87674755D01*
X106764232Y-87765000D01*
X105987630Y-87765000D01*
X105978162Y-87714683D01*
X105839090Y-87498559D01*
X105626890Y-87353569D01*
X105375000Y-87302560D01*
X104625000Y-87302560D01*
X104389683Y-87346838D01*
X104173559Y-87485910D01*
X104028569Y-87698110D01*
X104004124Y-87818821D01*
X103974294Y-87824755D01*
X103719621Y-87994921D01*
X103549455Y-88249594D01*
X103489700Y-88550000D01*
X103489700Y-91205100D01*
X103549455Y-91505507D01*
X103719621Y-91760179D01*
X105937021Y-93977579D01*
X106191693Y-94147745D01*
X106432733Y-94195691D01*
X107384602Y-95147560D01*
X107025000Y-95147560D01*
X106958887Y-95160000D01*
X102845000Y-95160000D01*
X102845000Y-86285000D01*
X106150000Y-86285000D01*
X106507809Y-86213827D01*
X106811145Y-86011145D01*
X107261145Y-85561145D01*
X107463827Y-85257809D01*
X107535000Y-84900000D01*
X107535000Y-84489018D01*
X107618946Y-84435000D01*
X139612710Y-84435000D01*
X142065000Y-86887290D01*
X142065000Y-86887290D01*
G37*
X142065000Y-86887290D02*
X142065000Y-92112710D01*
X141477710Y-92700000D01*
X141115352Y-92700000D01*
X141122440Y-92665000D01*
X141122440Y-92065000D01*
X141078162Y-91829683D01*
X141014322Y-91730472D01*
X141071431Y-91646890D01*
X141122440Y-91395000D01*
X141122440Y-90795000D01*
X141078162Y-90559683D01*
X140939090Y-90343559D01*
X140726890Y-90198569D01*
X140475000Y-90147560D01*
X139359700Y-90147560D01*
X139359700Y-88275000D01*
X139330082Y-88126100D01*
X139299945Y-87974593D01*
X139206083Y-87834119D01*
X139296431Y-87701890D01*
X139347440Y-87450000D01*
X139347440Y-86550000D01*
X139303162Y-86314683D01*
X139164090Y-86098559D01*
X138951890Y-85953569D01*
X138831179Y-85929124D01*
X138825245Y-85899293D01*
X138655079Y-85644621D01*
X138154779Y-85144321D01*
X137900107Y-84974155D01*
X137599700Y-84914400D01*
X119600300Y-84914400D01*
X119299893Y-84974155D01*
X119045221Y-85144321D01*
X116347440Y-87842102D01*
X116347440Y-87550000D01*
X116303162Y-87314683D01*
X116164090Y-87098559D01*
X115951890Y-86953569D01*
X115700000Y-86902560D01*
X114500000Y-86902560D01*
X114264683Y-86946838D01*
X114048559Y-87085910D01*
X114000866Y-87155711D01*
X113964090Y-87098559D01*
X113751890Y-86953569D01*
X113500000Y-86902560D01*
X112300000Y-86902560D01*
X112064683Y-86946838D01*
X111848559Y-87085910D01*
X111703569Y-87298110D01*
X111652560Y-87550000D01*
X111652560Y-88450000D01*
X111696838Y-88685317D01*
X111835910Y-88901441D01*
X112048110Y-89046431D01*
X112115000Y-89059977D01*
X112115000Y-89937370D01*
X112064683Y-89946838D01*
X111848559Y-90085910D01*
X111703569Y-90298110D01*
X111652560Y-90550000D01*
X111652560Y-91450000D01*
X111696838Y-91685317D01*
X111778272Y-91811870D01*
X111749542Y-91840600D01*
X111151058Y-91840600D01*
X109355379Y-90044921D01*
X109100707Y-89874755D01*
X109072830Y-89869210D01*
X109053162Y-89764683D01*
X108914090Y-89548559D01*
X108844289Y-89500866D01*
X108901441Y-89464090D01*
X109046431Y-89251890D01*
X109097440Y-89000000D01*
X109097440Y-87800000D01*
X109053162Y-87564683D01*
X108914090Y-87348559D01*
X108701890Y-87203569D01*
X108450000Y-87152560D01*
X107550000Y-87152560D01*
X107314683Y-87196838D01*
X107098559Y-87335910D01*
X106953569Y-87548110D01*
X106929124Y-87668821D01*
X106899293Y-87674755D01*
X106764232Y-87765000D01*
X105987630Y-87765000D01*
X105978162Y-87714683D01*
X105839090Y-87498559D01*
X105626890Y-87353569D01*
X105375000Y-87302560D01*
X104625000Y-87302560D01*
X104389683Y-87346838D01*
X104173559Y-87485910D01*
X104028569Y-87698110D01*
X104004124Y-87818821D01*
X103974294Y-87824755D01*
X103719621Y-87994921D01*
X103549455Y-88249594D01*
X103489700Y-88550000D01*
X103489700Y-91205100D01*
X103549455Y-91505507D01*
X103719621Y-91760179D01*
X105937021Y-93977579D01*
X106191693Y-94147745D01*
X106432733Y-94195691D01*
X107384602Y-95147560D01*
X107025000Y-95147560D01*
X106958887Y-95160000D01*
X102845000Y-95160000D01*
X102845000Y-86285000D01*
X106150000Y-86285000D01*
X106507809Y-86213827D01*
X106811145Y-86011145D01*
X107261145Y-85561145D01*
X107463827Y-85257809D01*
X107535000Y-84900000D01*
X107535000Y-84489018D01*
X107618946Y-84435000D01*
X139612710Y-84435000D01*
X142065000Y-86887290D01*
G36*
X62340000Y-73935001D02*
X62340005Y-73935000D01*
X76701023Y-73935000D01*
X76878855Y-74201145D01*
X77465000Y-74787290D01*
X77465000Y-77010982D01*
X77348559Y-77085910D01*
X77203569Y-77298110D01*
X77152560Y-77550000D01*
X77152560Y-78450000D01*
X77196838Y-78685317D01*
X77335910Y-78901441D01*
X77465000Y-78989644D01*
X77465000Y-80010982D01*
X77348559Y-80085910D01*
X77203569Y-80298110D01*
X77152560Y-80550000D01*
X77152560Y-81450000D01*
X77196838Y-81685317D01*
X77335910Y-81901441D01*
X77465000Y-81989644D01*
X77465000Y-83010982D01*
X77381054Y-83065000D01*
X77200000Y-83065000D01*
X76842191Y-83136173D01*
X76538855Y-83338855D01*
X71906251Y-87971459D01*
X71806890Y-87903569D01*
X71555000Y-87852560D01*
X70555000Y-87852560D01*
X70319683Y-87896838D01*
X70103559Y-88035910D01*
X69999217Y-88188620D01*
X69909090Y-88048559D01*
X69696890Y-87903569D01*
X69445000Y-87852560D01*
X68445000Y-87852560D01*
X68209683Y-87896838D01*
X68143977Y-87939119D01*
X64340379Y-84135521D01*
X64085707Y-83965355D01*
X63785300Y-83905600D01*
X63707906Y-83905600D01*
X63700727Y-83898408D01*
X63357199Y-83755762D01*
X62985233Y-83755438D01*
X62641457Y-83897483D01*
X62378208Y-84160273D01*
X62235562Y-84503801D01*
X62235238Y-84875767D01*
X62267605Y-84954102D01*
X62252908Y-84968773D01*
X62110262Y-85312301D01*
X62109938Y-85684267D01*
X62251983Y-86028043D01*
X62514773Y-86291292D01*
X62858301Y-86433938D01*
X62869790Y-86433948D01*
X67344421Y-90908579D01*
X67599093Y-91078745D01*
X67899500Y-91138500D01*
X67908474Y-91138500D01*
X67906673Y-91140301D01*
X67810000Y-91373690D01*
X67810000Y-91714250D01*
X67968750Y-91873000D01*
X68818000Y-91873000D01*
X68818000Y-91853000D01*
X69072000Y-91853000D01*
X69072000Y-91872389D01*
X69052562Y-91919201D01*
X69052238Y-92291167D01*
X69072000Y-92338995D01*
X69072000Y-92976250D01*
X69208496Y-93112746D01*
X69262155Y-93382507D01*
X69432321Y-93637179D01*
X69722957Y-93927815D01*
X69571309Y-93865000D01*
X69230750Y-93865000D01*
X69072000Y-94023750D01*
X69072000Y-94873000D01*
X69092000Y-94873000D01*
X69092000Y-95127000D01*
X69072000Y-95127000D01*
X69072000Y-95147000D01*
X68818000Y-95147000D01*
X68818000Y-95127000D01*
X68798000Y-95127000D01*
X68798000Y-94873000D01*
X68818000Y-94873000D01*
X68818000Y-94023750D01*
X68659250Y-93865000D01*
X68318691Y-93865000D01*
X68085302Y-93961673D01*
X67906673Y-94140301D01*
X67810000Y-94373690D01*
X67810000Y-94714250D01*
X67968748Y-94872998D01*
X67810000Y-94872998D01*
X67810000Y-94873642D01*
X65222108Y-92285750D01*
X67810000Y-92285750D01*
X67810000Y-92626310D01*
X67906673Y-92859699D01*
X68085302Y-93038327D01*
X68318691Y-93135000D01*
X68659250Y-93135000D01*
X68818000Y-92976250D01*
X68818000Y-92127000D01*
X67968750Y-92127000D01*
X67810000Y-92285750D01*
X65222108Y-92285750D01*
X60210000Y-87273642D01*
X60210000Y-79009608D01*
X60244331Y-78975277D01*
X60306169Y-79211042D01*
X60807122Y-79387419D01*
X61337440Y-79358664D01*
X61693831Y-79211042D01*
X61755669Y-78975275D01*
X61000000Y-78219605D01*
X60985858Y-78233748D01*
X60806252Y-78054142D01*
X60820395Y-78040000D01*
X61179605Y-78040000D01*
X61935275Y-78795669D01*
X62171042Y-78733831D01*
X62347419Y-78232878D01*
X62318664Y-77702560D01*
X62171042Y-77346169D01*
X61935275Y-77284331D01*
X61179605Y-78040000D01*
X60820395Y-78040000D01*
X60806252Y-78025858D01*
X60985858Y-77846252D01*
X61000000Y-77860395D01*
X61755669Y-77104725D01*
X61693831Y-76868958D01*
X61192878Y-76692581D01*
X60662560Y-76721336D01*
X60306169Y-76868958D01*
X60244331Y-77104723D01*
X60210000Y-77070392D01*
X60210000Y-75764383D01*
X62204769Y-75764383D01*
X62407582Y-76255229D01*
X62782796Y-76631098D01*
X63273287Y-76834768D01*
X63804383Y-76835231D01*
X64295229Y-76632418D01*
X64671098Y-76257204D01*
X64874768Y-75766713D01*
X64875231Y-75235617D01*
X64672418Y-74744771D01*
X64297204Y-74368902D01*
X63806713Y-74165232D01*
X63275617Y-74164769D01*
X62784771Y-74367582D01*
X62408902Y-74742796D01*
X62205232Y-75233287D01*
X62204769Y-75764383D01*
X60210000Y-75764383D01*
X60210000Y-74289215D01*
X60300000Y-74307440D01*
X61700000Y-74307440D01*
X61935317Y-74263162D01*
X62151441Y-74124090D01*
X62287742Y-73924606D01*
X62340000Y-73935001D01*
X62340000Y-73935001D01*
G37*
X62340000Y-73935001D02*
X62340005Y-73935000D01*
X76701023Y-73935000D01*
X76878855Y-74201145D01*
X77465000Y-74787290D01*
X77465000Y-77010982D01*
X77348559Y-77085910D01*
X77203569Y-77298110D01*
X77152560Y-77550000D01*
X77152560Y-78450000D01*
X77196838Y-78685317D01*
X77335910Y-78901441D01*
X77465000Y-78989644D01*
X77465000Y-80010982D01*
X77348559Y-80085910D01*
X77203569Y-80298110D01*
X77152560Y-80550000D01*
X77152560Y-81450000D01*
X77196838Y-81685317D01*
X77335910Y-81901441D01*
X77465000Y-81989644D01*
X77465000Y-83010982D01*
X77381054Y-83065000D01*
X77200000Y-83065000D01*
X76842191Y-83136173D01*
X76538855Y-83338855D01*
X71906251Y-87971459D01*
X71806890Y-87903569D01*
X71555000Y-87852560D01*
X70555000Y-87852560D01*
X70319683Y-87896838D01*
X70103559Y-88035910D01*
X69999217Y-88188620D01*
X69909090Y-88048559D01*
X69696890Y-87903569D01*
X69445000Y-87852560D01*
X68445000Y-87852560D01*
X68209683Y-87896838D01*
X68143977Y-87939119D01*
X64340379Y-84135521D01*
X64085707Y-83965355D01*
X63785300Y-83905600D01*
X63707906Y-83905600D01*
X63700727Y-83898408D01*
X63357199Y-83755762D01*
X62985233Y-83755438D01*
X62641457Y-83897483D01*
X62378208Y-84160273D01*
X62235562Y-84503801D01*
X62235238Y-84875767D01*
X62267605Y-84954102D01*
X62252908Y-84968773D01*
X62110262Y-85312301D01*
X62109938Y-85684267D01*
X62251983Y-86028043D01*
X62514773Y-86291292D01*
X62858301Y-86433938D01*
X62869790Y-86433948D01*
X67344421Y-90908579D01*
X67599093Y-91078745D01*
X67899500Y-91138500D01*
X67908474Y-91138500D01*
X67906673Y-91140301D01*
X67810000Y-91373690D01*
X67810000Y-91714250D01*
X67968750Y-91873000D01*
X68818000Y-91873000D01*
X68818000Y-91853000D01*
X69072000Y-91853000D01*
X69072000Y-91872389D01*
X69052562Y-91919201D01*
X69052238Y-92291167D01*
X69072000Y-92338995D01*
X69072000Y-92976250D01*
X69208496Y-93112746D01*
X69262155Y-93382507D01*
X69432321Y-93637179D01*
X69722957Y-93927815D01*
X69571309Y-93865000D01*
X69230750Y-93865000D01*
X69072000Y-94023750D01*
X69072000Y-94873000D01*
X69092000Y-94873000D01*
X69092000Y-95127000D01*
X69072000Y-95127000D01*
X69072000Y-95147000D01*
X68818000Y-95147000D01*
X68818000Y-95127000D01*
X68798000Y-95127000D01*
X68798000Y-94873000D01*
X68818000Y-94873000D01*
X68818000Y-94023750D01*
X68659250Y-93865000D01*
X68318691Y-93865000D01*
X68085302Y-93961673D01*
X67906673Y-94140301D01*
X67810000Y-94373690D01*
X67810000Y-94714250D01*
X67968748Y-94872998D01*
X67810000Y-94872998D01*
X67810000Y-94873642D01*
X65222108Y-92285750D01*
X67810000Y-92285750D01*
X67810000Y-92626310D01*
X67906673Y-92859699D01*
X68085302Y-93038327D01*
X68318691Y-93135000D01*
X68659250Y-93135000D01*
X68818000Y-92976250D01*
X68818000Y-92127000D01*
X67968750Y-92127000D01*
X67810000Y-92285750D01*
X65222108Y-92285750D01*
X60210000Y-87273642D01*
X60210000Y-79009608D01*
X60244331Y-78975277D01*
X60306169Y-79211042D01*
X60807122Y-79387419D01*
X61337440Y-79358664D01*
X61693831Y-79211042D01*
X61755669Y-78975275D01*
X61000000Y-78219605D01*
X60985858Y-78233748D01*
X60806252Y-78054142D01*
X60820395Y-78040000D01*
X61179605Y-78040000D01*
X61935275Y-78795669D01*
X62171042Y-78733831D01*
X62347419Y-78232878D01*
X62318664Y-77702560D01*
X62171042Y-77346169D01*
X61935275Y-77284331D01*
X61179605Y-78040000D01*
X60820395Y-78040000D01*
X60806252Y-78025858D01*
X60985858Y-77846252D01*
X61000000Y-77860395D01*
X61755669Y-77104725D01*
X61693831Y-76868958D01*
X61192878Y-76692581D01*
X60662560Y-76721336D01*
X60306169Y-76868958D01*
X60244331Y-77104723D01*
X60210000Y-77070392D01*
X60210000Y-75764383D01*
X62204769Y-75764383D01*
X62407582Y-76255229D01*
X62782796Y-76631098D01*
X63273287Y-76834768D01*
X63804383Y-76835231D01*
X64295229Y-76632418D01*
X64671098Y-76257204D01*
X64874768Y-75766713D01*
X64875231Y-75235617D01*
X64672418Y-74744771D01*
X64297204Y-74368902D01*
X63806713Y-74165232D01*
X63275617Y-74164769D01*
X62784771Y-74367582D01*
X62408902Y-74742796D01*
X62205232Y-75233287D01*
X62204769Y-75764383D01*
X60210000Y-75764383D01*
X60210000Y-74289215D01*
X60300000Y-74307440D01*
X61700000Y-74307440D01*
X61935317Y-74263162D01*
X62151441Y-74124090D01*
X62287742Y-73924606D01*
X62340000Y-73935001D01*
G36*
X77152560Y-89450000D02*
X77196838Y-89685317D01*
X77335910Y-89901441D01*
X77548110Y-90046431D01*
X77615000Y-90059977D01*
X77615000Y-90937370D01*
X77564683Y-90946838D01*
X77348559Y-91085910D01*
X77260356Y-91215000D01*
X74905300Y-91215000D01*
X74604894Y-91274755D01*
X74350221Y-91444921D01*
X71857199Y-93937943D01*
X71806890Y-93903569D01*
X71790376Y-93900225D01*
X71780245Y-93849294D01*
X71610079Y-93594621D01*
X71162898Y-93147440D01*
X71555000Y-93147440D01*
X71790317Y-93103162D01*
X72006441Y-92964090D01*
X72151431Y-92751890D01*
X72154775Y-92735376D01*
X72205707Y-92725245D01*
X72460379Y-92555079D01*
X76030858Y-88984600D01*
X77152560Y-88984600D01*
X77152560Y-89450000D01*
X77152560Y-89450000D01*
G37*
X77152560Y-89450000D02*
X77196838Y-89685317D01*
X77335910Y-89901441D01*
X77548110Y-90046431D01*
X77615000Y-90059977D01*
X77615000Y-90937370D01*
X77564683Y-90946838D01*
X77348559Y-91085910D01*
X77260356Y-91215000D01*
X74905300Y-91215000D01*
X74604894Y-91274755D01*
X74350221Y-91444921D01*
X71857199Y-93937943D01*
X71806890Y-93903569D01*
X71790376Y-93900225D01*
X71780245Y-93849294D01*
X71610079Y-93594621D01*
X71162898Y-93147440D01*
X71555000Y-93147440D01*
X71790317Y-93103162D01*
X72006441Y-92964090D01*
X72151431Y-92751890D01*
X72154775Y-92735376D01*
X72205707Y-92725245D01*
X72460379Y-92555079D01*
X76030858Y-88984600D01*
X77152560Y-88984600D01*
X77152560Y-89450000D01*
G36*
X58139600Y-91524600D02*
X58199355Y-91825007D01*
X58369521Y-92079679D01*
X59567704Y-93277862D01*
X59176487Y-93115415D01*
X58227675Y-93114587D01*
X57350771Y-93476916D01*
X57093712Y-93733527D01*
X57104200Y-93680800D01*
X57104200Y-73848358D01*
X58139600Y-72812958D01*
X58139600Y-91524600D01*
X58139600Y-91524600D01*
G37*
X58139600Y-91524600D02*
X58199355Y-91825007D01*
X58369521Y-92079679D01*
X59567704Y-93277862D01*
X59176487Y-93115415D01*
X58227675Y-93114587D01*
X57350771Y-93476916D01*
X57093712Y-93733527D01*
X57104200Y-93680800D01*
X57104200Y-73848358D01*
X58139600Y-72812958D01*
X58139600Y-91524600D01*
G36*
X64154527Y-93438485D02*
X63376487Y-93115415D01*
X62427675Y-93114587D01*
X61859507Y-93349349D01*
X59709600Y-91199442D01*
X59709600Y-88993558D01*
X64154527Y-93438485D01*
X64154527Y-93438485D01*
G37*
X64154527Y-93438485D02*
X63376487Y-93115415D01*
X62427675Y-93114587D01*
X61859507Y-93349349D01*
X59709600Y-91199442D01*
X59709600Y-88993558D01*
X64154527Y-93438485D01*
G36*
X77465000Y-85400000D02*
X77536173Y-85757809D01*
X77738855Y-86061145D01*
X79092310Y-87414600D01*
X75705700Y-87414600D01*
X75405293Y-87474355D01*
X75150621Y-87644521D01*
X71857199Y-90937943D01*
X71806890Y-90903569D01*
X71555000Y-90852560D01*
X71017718Y-90852560D01*
X70172017Y-90006859D01*
X70303110Y-90096431D01*
X70555000Y-90147440D01*
X71555000Y-90147440D01*
X71790317Y-90103162D01*
X72006441Y-89964090D01*
X72026317Y-89935000D01*
X72200000Y-89935000D01*
X72557809Y-89863827D01*
X72861145Y-89661145D01*
X77465000Y-85057290D01*
X77465000Y-85400000D01*
X77465000Y-85400000D01*
G37*
X77465000Y-85400000D02*
X77536173Y-85757809D01*
X77738855Y-86061145D01*
X79092310Y-87414600D01*
X75705700Y-87414600D01*
X75405293Y-87474355D01*
X75150621Y-87644521D01*
X71857199Y-90937943D01*
X71806890Y-90903569D01*
X71555000Y-90852560D01*
X71017718Y-90852560D01*
X70172017Y-90006859D01*
X70303110Y-90096431D01*
X70555000Y-90147440D01*
X71555000Y-90147440D01*
X71790317Y-90103162D01*
X72006441Y-89964090D01*
X72026317Y-89935000D01*
X72200000Y-89935000D01*
X72557809Y-89863827D01*
X72861145Y-89661145D01*
X77465000Y-85057290D01*
X77465000Y-85400000D01*
G36*
X98959738Y-86389267D02*
X99101783Y-86733043D01*
X99109900Y-86741174D01*
X99109900Y-89953780D01*
X98350520Y-89953780D01*
X98115203Y-89998058D01*
X98000007Y-90072185D01*
X97901370Y-90004789D01*
X97649480Y-89953780D01*
X96851920Y-89953780D01*
X96616603Y-89998058D01*
X96400479Y-90137130D01*
X96347273Y-90215000D01*
X93739018Y-90215000D01*
X93664090Y-90098559D01*
X93451890Y-89953569D01*
X93200000Y-89902560D01*
X92000000Y-89902560D01*
X91969004Y-89908392D01*
X91966600Y-89904795D01*
X91966600Y-89731358D01*
X93432905Y-88265053D01*
X93443067Y-88265062D01*
X93786843Y-88123017D01*
X94050092Y-87860227D01*
X94192738Y-87516699D01*
X94192809Y-87435000D01*
X96000000Y-87435000D01*
X96357809Y-87363827D01*
X96661145Y-87161145D01*
X97537290Y-86285000D01*
X98959829Y-86285000D01*
X98959738Y-86389267D01*
X98959738Y-86389267D01*
G37*
X98959738Y-86389267D02*
X99101783Y-86733043D01*
X99109900Y-86741174D01*
X99109900Y-89953780D01*
X98350520Y-89953780D01*
X98115203Y-89998058D01*
X98000007Y-90072185D01*
X97901370Y-90004789D01*
X97649480Y-89953780D01*
X96851920Y-89953780D01*
X96616603Y-89998058D01*
X96400479Y-90137130D01*
X96347273Y-90215000D01*
X93739018Y-90215000D01*
X93664090Y-90098559D01*
X93451890Y-89953569D01*
X93200000Y-89902560D01*
X92000000Y-89902560D01*
X91969004Y-89908392D01*
X91966600Y-89904795D01*
X91966600Y-89731358D01*
X93432905Y-88265053D01*
X93443067Y-88265062D01*
X93786843Y-88123017D01*
X94050092Y-87860227D01*
X94192738Y-87516699D01*
X94192809Y-87435000D01*
X96000000Y-87435000D01*
X96357809Y-87363827D01*
X96661145Y-87161145D01*
X97537290Y-86285000D01*
X98959829Y-86285000D01*
X98959738Y-86389267D01*
G36*
X90626521Y-88851121D02*
X90456355Y-89105793D01*
X90407270Y-89352560D01*
X90396600Y-89406200D01*
X90396600Y-89414600D01*
X87407690Y-89414600D01*
X89387290Y-87435000D01*
X92042642Y-87435000D01*
X90626521Y-88851121D01*
X90626521Y-88851121D01*
G37*
X90626521Y-88851121D02*
X90456355Y-89105793D01*
X90407270Y-89352560D01*
X90396600Y-89406200D01*
X90396600Y-89414600D01*
X87407690Y-89414600D01*
X89387290Y-87435000D01*
X92042642Y-87435000D01*
X90626521Y-88851121D01*
G36*
X97272581Y-71856064D02*
X97860000Y-71972909D01*
X98364700Y-71872518D01*
X98364700Y-72830442D01*
X98055993Y-73139149D01*
X97900000Y-73107560D01*
X96400000Y-73107560D01*
X96164683Y-73151838D01*
X95948559Y-73290910D01*
X95803569Y-73503110D01*
X95752560Y-73755000D01*
X95752560Y-74355000D01*
X95796838Y-74590317D01*
X95860678Y-74689528D01*
X95803569Y-74773110D01*
X95752560Y-75025000D01*
X95752560Y-75625000D01*
X95796838Y-75860317D01*
X95860678Y-75959528D01*
X95803569Y-76043110D01*
X95752560Y-76295000D01*
X95752560Y-76895000D01*
X95796838Y-77130317D01*
X95860678Y-77229528D01*
X95803569Y-77313110D01*
X95752560Y-77565000D01*
X95752560Y-78165000D01*
X95796838Y-78400317D01*
X95860678Y-78499528D01*
X95803569Y-78583110D01*
X95752560Y-78835000D01*
X95752560Y-79435000D01*
X95796835Y-79670299D01*
X95749294Y-79679755D01*
X95494621Y-79849921D01*
X95324455Y-80104594D01*
X95264700Y-80405000D01*
X95264700Y-84212942D01*
X94754395Y-84723247D01*
X94744233Y-84723238D01*
X94400457Y-84865283D01*
X94137208Y-85128073D01*
X93994562Y-85471601D01*
X93994481Y-85565000D01*
X89000000Y-85565000D01*
X88642191Y-85636173D01*
X88338855Y-85838855D01*
X86112710Y-88065000D01*
X81614975Y-88065000D01*
X81535000Y-88010356D01*
X81535000Y-87600000D01*
X81463827Y-87242191D01*
X81261145Y-86938855D01*
X79335000Y-85012710D01*
X79335000Y-84989018D01*
X79451441Y-84914090D01*
X79499134Y-84844289D01*
X79535910Y-84901441D01*
X79748110Y-85046431D01*
X80000000Y-85097440D01*
X81200000Y-85097440D01*
X81435317Y-85053162D01*
X81651441Y-84914090D01*
X81739644Y-84785000D01*
X85694700Y-84785000D01*
X85995107Y-84725245D01*
X86249779Y-84555079D01*
X86944007Y-83860851D01*
X87100000Y-83892440D01*
X88600000Y-83892440D01*
X88835317Y-83848162D01*
X89051441Y-83709090D01*
X89196431Y-83496890D01*
X89247440Y-83245000D01*
X89247440Y-82645000D01*
X89203162Y-82409683D01*
X89139322Y-82310472D01*
X89196431Y-82226890D01*
X89247440Y-81975000D01*
X89247440Y-81375000D01*
X89203162Y-81139683D01*
X89139322Y-81040472D01*
X89196431Y-80956890D01*
X89247440Y-80705000D01*
X89247440Y-80105000D01*
X89203162Y-79869683D01*
X89139322Y-79770472D01*
X89196431Y-79686890D01*
X89247440Y-79435000D01*
X89247440Y-78835000D01*
X89203162Y-78599683D01*
X89139322Y-78500472D01*
X89196431Y-78416890D01*
X89247440Y-78165000D01*
X89247440Y-77565000D01*
X89203162Y-77329683D01*
X89139322Y-77230472D01*
X89196431Y-77146890D01*
X89247440Y-76895000D01*
X89247440Y-76295000D01*
X89212630Y-76110000D01*
X92184200Y-76110000D01*
X92484607Y-76050245D01*
X92739279Y-75880079D01*
X96967286Y-71652072D01*
X97272581Y-71856064D01*
X97272581Y-71856064D01*
G37*
X97272581Y-71856064D02*
X97860000Y-71972909D01*
X98364700Y-71872518D01*
X98364700Y-72830442D01*
X98055993Y-73139149D01*
X97900000Y-73107560D01*
X96400000Y-73107560D01*
X96164683Y-73151838D01*
X95948559Y-73290910D01*
X95803569Y-73503110D01*
X95752560Y-73755000D01*
X95752560Y-74355000D01*
X95796838Y-74590317D01*
X95860678Y-74689528D01*
X95803569Y-74773110D01*
X95752560Y-75025000D01*
X95752560Y-75625000D01*
X95796838Y-75860317D01*
X95860678Y-75959528D01*
X95803569Y-76043110D01*
X95752560Y-76295000D01*
X95752560Y-76895000D01*
X95796838Y-77130317D01*
X95860678Y-77229528D01*
X95803569Y-77313110D01*
X95752560Y-77565000D01*
X95752560Y-78165000D01*
X95796838Y-78400317D01*
X95860678Y-78499528D01*
X95803569Y-78583110D01*
X95752560Y-78835000D01*
X95752560Y-79435000D01*
X95796835Y-79670299D01*
X95749294Y-79679755D01*
X95494621Y-79849921D01*
X95324455Y-80104594D01*
X95264700Y-80405000D01*
X95264700Y-84212942D01*
X94754395Y-84723247D01*
X94744233Y-84723238D01*
X94400457Y-84865283D01*
X94137208Y-85128073D01*
X93994562Y-85471601D01*
X93994481Y-85565000D01*
X89000000Y-85565000D01*
X88642191Y-85636173D01*
X88338855Y-85838855D01*
X86112710Y-88065000D01*
X81614975Y-88065000D01*
X81535000Y-88010356D01*
X81535000Y-87600000D01*
X81463827Y-87242191D01*
X81261145Y-86938855D01*
X79335000Y-85012710D01*
X79335000Y-84989018D01*
X79451441Y-84914090D01*
X79499134Y-84844289D01*
X79535910Y-84901441D01*
X79748110Y-85046431D01*
X80000000Y-85097440D01*
X81200000Y-85097440D01*
X81435317Y-85053162D01*
X81651441Y-84914090D01*
X81739644Y-84785000D01*
X85694700Y-84785000D01*
X85995107Y-84725245D01*
X86249779Y-84555079D01*
X86944007Y-83860851D01*
X87100000Y-83892440D01*
X88600000Y-83892440D01*
X88835317Y-83848162D01*
X89051441Y-83709090D01*
X89196431Y-83496890D01*
X89247440Y-83245000D01*
X89247440Y-82645000D01*
X89203162Y-82409683D01*
X89139322Y-82310472D01*
X89196431Y-82226890D01*
X89247440Y-81975000D01*
X89247440Y-81375000D01*
X89203162Y-81139683D01*
X89139322Y-81040472D01*
X89196431Y-80956890D01*
X89247440Y-80705000D01*
X89247440Y-80105000D01*
X89203162Y-79869683D01*
X89139322Y-79770472D01*
X89196431Y-79686890D01*
X89247440Y-79435000D01*
X89247440Y-78835000D01*
X89203162Y-78599683D01*
X89139322Y-78500472D01*
X89196431Y-78416890D01*
X89247440Y-78165000D01*
X89247440Y-77565000D01*
X89203162Y-77329683D01*
X89139322Y-77230472D01*
X89196431Y-77146890D01*
X89247440Y-76895000D01*
X89247440Y-76295000D01*
X89212630Y-76110000D01*
X92184200Y-76110000D01*
X92484607Y-76050245D01*
X92739279Y-75880079D01*
X96967286Y-71652072D01*
X97272581Y-71856064D01*
G36*
X101591257Y-83140215D02*
X101451162Y-83477601D01*
X101450838Y-83849567D01*
X101592883Y-84193343D01*
X101814154Y-84415000D01*
X98085000Y-84415000D01*
X98085000Y-83857630D01*
X98135317Y-83848162D01*
X98351441Y-83709090D01*
X98496431Y-83496890D01*
X98547440Y-83245000D01*
X98547440Y-82645000D01*
X98512630Y-82460000D01*
X100911042Y-82460000D01*
X101591257Y-83140215D01*
X101591257Y-83140215D01*
G37*
X101591257Y-83140215D02*
X101451162Y-83477601D01*
X101450838Y-83849567D01*
X101592883Y-84193343D01*
X101814154Y-84415000D01*
X98085000Y-84415000D01*
X98085000Y-83857630D01*
X98135317Y-83848162D01*
X98351441Y-83709090D01*
X98496431Y-83496890D01*
X98547440Y-83245000D01*
X98547440Y-82645000D01*
X98512630Y-82460000D01*
X100911042Y-82460000D01*
X101591257Y-83140215D01*
G36*
X79535910Y-81901441D02*
X79748110Y-82046431D01*
X80000000Y-82097440D01*
X81200000Y-82097440D01*
X81435317Y-82053162D01*
X81470600Y-82030458D01*
X81670221Y-82230079D01*
X81924893Y-82400245D01*
X82225300Y-82460000D01*
X86124542Y-82460000D01*
X85369542Y-83215000D01*
X81739018Y-83215000D01*
X81664090Y-83098559D01*
X81451890Y-82953569D01*
X81200000Y-82902560D01*
X80000000Y-82902560D01*
X79764683Y-82946838D01*
X79548559Y-83085910D01*
X79500866Y-83155711D01*
X79464090Y-83098559D01*
X79335000Y-83010356D01*
X79335000Y-81989018D01*
X79451441Y-81914090D01*
X79499134Y-81844289D01*
X79535910Y-81901441D01*
X79535910Y-81901441D01*
G37*
X79535910Y-81901441D02*
X79748110Y-82046431D01*
X80000000Y-82097440D01*
X81200000Y-82097440D01*
X81435317Y-82053162D01*
X81470600Y-82030458D01*
X81670221Y-82230079D01*
X81924893Y-82400245D01*
X82225300Y-82460000D01*
X86124542Y-82460000D01*
X85369542Y-83215000D01*
X81739018Y-83215000D01*
X81664090Y-83098559D01*
X81451890Y-82953569D01*
X81200000Y-82902560D01*
X80000000Y-82902560D01*
X79764683Y-82946838D01*
X79548559Y-83085910D01*
X79500866Y-83155711D01*
X79464090Y-83098559D01*
X79335000Y-83010356D01*
X79335000Y-81989018D01*
X79451441Y-81914090D01*
X79499134Y-81844289D01*
X79535910Y-81901441D01*
G36*
X103149293Y-81225245D02*
X103233281Y-81241951D01*
X103335910Y-81401441D01*
X103548110Y-81546431D01*
X103800000Y-81597440D01*
X105000000Y-81597440D01*
X105235317Y-81553162D01*
X105451441Y-81414090D01*
X105499134Y-81344289D01*
X105535910Y-81401441D01*
X105665000Y-81489644D01*
X105665000Y-82510982D01*
X105548559Y-82585910D01*
X105500866Y-82655711D01*
X105464090Y-82598559D01*
X105251890Y-82453569D01*
X105050699Y-82412827D01*
X104955079Y-82269721D01*
X104700406Y-82099555D01*
X104400000Y-82039800D01*
X102711158Y-82039800D01*
X101861358Y-81190000D01*
X103096545Y-81190000D01*
X103149293Y-81225245D01*
X103149293Y-81225245D01*
G37*
X103149293Y-81225245D02*
X103233281Y-81241951D01*
X103335910Y-81401441D01*
X103548110Y-81546431D01*
X103800000Y-81597440D01*
X105000000Y-81597440D01*
X105235317Y-81553162D01*
X105451441Y-81414090D01*
X105499134Y-81344289D01*
X105535910Y-81401441D01*
X105665000Y-81489644D01*
X105665000Y-82510982D01*
X105548559Y-82585910D01*
X105500866Y-82655711D01*
X105464090Y-82598559D01*
X105251890Y-82453569D01*
X105050699Y-82412827D01*
X104955079Y-82269721D01*
X104700406Y-82099555D01*
X104400000Y-82039800D01*
X102711158Y-82039800D01*
X101861358Y-81190000D01*
X103096545Y-81190000D01*
X103149293Y-81225245D01*
G36*
X103152560Y-74950000D02*
X103196838Y-75185317D01*
X103335910Y-75401441D01*
X103548110Y-75546431D01*
X103800000Y-75597440D01*
X105000000Y-75597440D01*
X105235317Y-75553162D01*
X105451441Y-75414090D01*
X105499134Y-75344289D01*
X105535910Y-75401441D01*
X105665000Y-75489644D01*
X105665000Y-76512370D01*
X105614683Y-76521838D01*
X105511354Y-76588329D01*
X105509698Y-76586673D01*
X105276309Y-76490000D01*
X104835750Y-76490000D01*
X104677000Y-76648750D01*
X104677000Y-77373000D01*
X104697000Y-77373000D01*
X104697000Y-77627000D01*
X104677000Y-77627000D01*
X104677000Y-78351250D01*
X104835750Y-78510000D01*
X105276309Y-78510000D01*
X105509698Y-78413327D01*
X105511068Y-78411957D01*
X105598110Y-78471431D01*
X105665000Y-78484977D01*
X105665000Y-79510982D01*
X105548559Y-79585910D01*
X105500866Y-79655711D01*
X105464090Y-79598559D01*
X105251890Y-79453569D01*
X105000000Y-79402560D01*
X103800000Y-79402560D01*
X103564683Y-79446838D01*
X103348559Y-79585910D01*
X103325266Y-79620000D01*
X98509977Y-79620000D01*
X98547440Y-79435000D01*
X98547440Y-78835000D01*
X98503166Y-78599702D01*
X98550707Y-78590245D01*
X98805379Y-78420079D01*
X99439708Y-77785750D01*
X103315000Y-77785750D01*
X103315000Y-78001310D01*
X103411673Y-78234699D01*
X103590302Y-78413327D01*
X103823691Y-78510000D01*
X104264250Y-78510000D01*
X104423000Y-78351250D01*
X104423000Y-77627000D01*
X103473750Y-77627000D01*
X103315000Y-77785750D01*
X99439708Y-77785750D01*
X100226768Y-76998690D01*
X103315000Y-76998690D01*
X103315000Y-77214250D01*
X103473750Y-77373000D01*
X104423000Y-77373000D01*
X104423000Y-76648750D01*
X104264250Y-76490000D01*
X103823691Y-76490000D01*
X103590302Y-76586673D01*
X103411673Y-76765301D01*
X103315000Y-76998690D01*
X100226768Y-76998690D01*
X103152560Y-74072898D01*
X103152560Y-74950000D01*
X103152560Y-74950000D01*
G37*
X103152560Y-74950000D02*
X103196838Y-75185317D01*
X103335910Y-75401441D01*
X103548110Y-75546431D01*
X103800000Y-75597440D01*
X105000000Y-75597440D01*
X105235317Y-75553162D01*
X105451441Y-75414090D01*
X105499134Y-75344289D01*
X105535910Y-75401441D01*
X105665000Y-75489644D01*
X105665000Y-76512370D01*
X105614683Y-76521838D01*
X105511354Y-76588329D01*
X105509698Y-76586673D01*
X105276309Y-76490000D01*
X104835750Y-76490000D01*
X104677000Y-76648750D01*
X104677000Y-77373000D01*
X104697000Y-77373000D01*
X104697000Y-77627000D01*
X104677000Y-77627000D01*
X104677000Y-78351250D01*
X104835750Y-78510000D01*
X105276309Y-78510000D01*
X105509698Y-78413327D01*
X105511068Y-78411957D01*
X105598110Y-78471431D01*
X105665000Y-78484977D01*
X105665000Y-79510982D01*
X105548559Y-79585910D01*
X105500866Y-79655711D01*
X105464090Y-79598559D01*
X105251890Y-79453569D01*
X105000000Y-79402560D01*
X103800000Y-79402560D01*
X103564683Y-79446838D01*
X103348559Y-79585910D01*
X103325266Y-79620000D01*
X98509977Y-79620000D01*
X98547440Y-79435000D01*
X98547440Y-78835000D01*
X98503166Y-78599702D01*
X98550707Y-78590245D01*
X98805379Y-78420079D01*
X99439708Y-77785750D01*
X103315000Y-77785750D01*
X103315000Y-78001310D01*
X103411673Y-78234699D01*
X103590302Y-78413327D01*
X103823691Y-78510000D01*
X104264250Y-78510000D01*
X104423000Y-78351250D01*
X104423000Y-77627000D01*
X103473750Y-77627000D01*
X103315000Y-77785750D01*
X99439708Y-77785750D01*
X100226768Y-76998690D01*
X103315000Y-76998690D01*
X103315000Y-77214250D01*
X103473750Y-77373000D01*
X104423000Y-77373000D01*
X104423000Y-76648750D01*
X104264250Y-76490000D01*
X103823691Y-76490000D01*
X103590302Y-76586673D01*
X103411673Y-76765301D01*
X103315000Y-76998690D01*
X100226768Y-76998690D01*
X103152560Y-74072898D01*
X103152560Y-74950000D01*
G36*
X81534591Y-71523318D02*
X81835000Y-71724045D01*
X81835000Y-75005300D01*
X81894755Y-75305707D01*
X82064921Y-75560379D01*
X86124542Y-79620000D01*
X82529857Y-79620000D01*
X81721465Y-78811607D01*
X81796431Y-78701890D01*
X81847440Y-78450000D01*
X81847440Y-77550000D01*
X81803162Y-77314683D01*
X81664090Y-77098559D01*
X81451890Y-76953569D01*
X81200000Y-76902560D01*
X80000000Y-76902560D01*
X79764683Y-76946838D01*
X79548559Y-77085910D01*
X79500866Y-77155711D01*
X79464090Y-77098559D01*
X79335000Y-77010356D01*
X79335000Y-74400000D01*
X79263827Y-74042191D01*
X79061145Y-73738855D01*
X78475000Y-73152710D01*
X78475000Y-71623818D01*
X78625409Y-71523318D01*
X78810000Y-71247058D01*
X78994591Y-71523318D01*
X79492581Y-71856064D01*
X80080000Y-71972909D01*
X80667419Y-71856064D01*
X81165409Y-71523318D01*
X81350000Y-71247058D01*
X81534591Y-71523318D01*
X81534591Y-71523318D01*
G37*
X81534591Y-71523318D02*
X81835000Y-71724045D01*
X81835000Y-75005300D01*
X81894755Y-75305707D01*
X82064921Y-75560379D01*
X86124542Y-79620000D01*
X82529857Y-79620000D01*
X81721465Y-78811607D01*
X81796431Y-78701890D01*
X81847440Y-78450000D01*
X81847440Y-77550000D01*
X81803162Y-77314683D01*
X81664090Y-77098559D01*
X81451890Y-76953569D01*
X81200000Y-76902560D01*
X80000000Y-76902560D01*
X79764683Y-76946838D01*
X79548559Y-77085910D01*
X79500866Y-77155711D01*
X79464090Y-77098559D01*
X79335000Y-77010356D01*
X79335000Y-74400000D01*
X79263827Y-74042191D01*
X79061145Y-73738855D01*
X78475000Y-73152710D01*
X78475000Y-71623818D01*
X78625409Y-71523318D01*
X78810000Y-71247058D01*
X78994591Y-71523318D01*
X79492581Y-71856064D01*
X80080000Y-71972909D01*
X80667419Y-71856064D01*
X81165409Y-71523318D01*
X81350000Y-71247058D01*
X81534591Y-71523318D01*
G36*
X84074591Y-71523318D02*
X84375000Y-71724045D01*
X84375000Y-75650142D01*
X83405000Y-74680142D01*
X83405000Y-71724045D01*
X83705409Y-71523318D01*
X83890000Y-71247058D01*
X84074591Y-71523318D01*
X84074591Y-71523318D01*
G37*
X84074591Y-71523318D02*
X84375000Y-71724045D01*
X84375000Y-75650142D01*
X83405000Y-74680142D01*
X83405000Y-71724045D01*
X83705409Y-71523318D01*
X83890000Y-71247058D01*
X84074591Y-71523318D01*
G36*
X112014591Y-71523318D02*
X112512581Y-71856064D01*
X113100000Y-71972909D01*
X113687419Y-71856064D01*
X113716100Y-71836900D01*
X113716100Y-74952510D01*
X113600710Y-74952510D01*
X113365393Y-74996788D01*
X113149269Y-75135860D01*
X113046730Y-75285931D01*
X113046730Y-74649950D01*
X113002452Y-74414633D01*
X112863380Y-74198509D01*
X112651180Y-74053519D01*
X112399290Y-74002510D01*
X112224805Y-74002510D01*
X112224327Y-74000107D01*
X112224145Y-73999193D01*
X112053979Y-73744521D01*
X110213430Y-71903972D01*
X110560000Y-71972909D01*
X111147419Y-71856064D01*
X111645409Y-71523318D01*
X111830000Y-71247058D01*
X112014591Y-71523318D01*
X112014591Y-71523318D01*
G37*
X112014591Y-71523318D02*
X112512581Y-71856064D01*
X113100000Y-71972909D01*
X113687419Y-71856064D01*
X113716100Y-71836900D01*
X113716100Y-74952510D01*
X113600710Y-74952510D01*
X113365393Y-74996788D01*
X113149269Y-75135860D01*
X113046730Y-75285931D01*
X113046730Y-74649950D01*
X113002452Y-74414633D01*
X112863380Y-74198509D01*
X112651180Y-74053519D01*
X112399290Y-74002510D01*
X112224805Y-74002510D01*
X112224327Y-74000107D01*
X112224145Y-73999193D01*
X112053979Y-73744521D01*
X110213430Y-71903972D01*
X110560000Y-71972909D01*
X111147419Y-71856064D01*
X111645409Y-71523318D01*
X111830000Y-71247058D01*
X112014591Y-71523318D01*
G36*
X94234591Y-71523318D02*
X94618922Y-71780120D01*
X91859042Y-74540000D01*
X89210690Y-74540000D01*
X89235000Y-74481310D01*
X89235000Y-74340750D01*
X89076250Y-74182000D01*
X87977000Y-74182000D01*
X87977000Y-74202000D01*
X87723000Y-74202000D01*
X87723000Y-74182000D01*
X87703000Y-74182000D01*
X87703000Y-73928000D01*
X87723000Y-73928000D01*
X87723000Y-73278750D01*
X87977000Y-73278750D01*
X87977000Y-73928000D01*
X89076250Y-73928000D01*
X89235000Y-73769250D01*
X89235000Y-73628690D01*
X89138327Y-73395301D01*
X88959698Y-73216673D01*
X88726309Y-73120000D01*
X88135750Y-73120000D01*
X87977000Y-73278750D01*
X87723000Y-73278750D01*
X87564250Y-73120000D01*
X87534700Y-73120000D01*
X87534700Y-72925758D01*
X88255079Y-72205379D01*
X88425245Y-71950707D01*
X88468083Y-71735348D01*
X88785409Y-71523318D01*
X88970000Y-71247058D01*
X89154591Y-71523318D01*
X89652581Y-71856064D01*
X90240000Y-71972909D01*
X90827419Y-71856064D01*
X91325409Y-71523318D01*
X91510000Y-71247058D01*
X91694591Y-71523318D01*
X92192581Y-71856064D01*
X92780000Y-71972909D01*
X93367419Y-71856064D01*
X93865409Y-71523318D01*
X94050000Y-71247058D01*
X94234591Y-71523318D01*
X94234591Y-71523318D01*
G37*
X94234591Y-71523318D02*
X94618922Y-71780120D01*
X91859042Y-74540000D01*
X89210690Y-74540000D01*
X89235000Y-74481310D01*
X89235000Y-74340750D01*
X89076250Y-74182000D01*
X87977000Y-74182000D01*
X87977000Y-74202000D01*
X87723000Y-74202000D01*
X87723000Y-74182000D01*
X87703000Y-74182000D01*
X87703000Y-73928000D01*
X87723000Y-73928000D01*
X87723000Y-73278750D01*
X87977000Y-73278750D01*
X87977000Y-73928000D01*
X89076250Y-73928000D01*
X89235000Y-73769250D01*
X89235000Y-73628690D01*
X89138327Y-73395301D01*
X88959698Y-73216673D01*
X88726309Y-73120000D01*
X88135750Y-73120000D01*
X87977000Y-73278750D01*
X87723000Y-73278750D01*
X87564250Y-73120000D01*
X87534700Y-73120000D01*
X87534700Y-72925758D01*
X88255079Y-72205379D01*
X88425245Y-71950707D01*
X88468083Y-71735348D01*
X88785409Y-71523318D01*
X88970000Y-71247058D01*
X89154591Y-71523318D01*
X89652581Y-71856064D01*
X90240000Y-71972909D01*
X90827419Y-71856064D01*
X91325409Y-71523318D01*
X91510000Y-71247058D01*
X91694591Y-71523318D01*
X92192581Y-71856064D01*
X92780000Y-71972909D01*
X93367419Y-71856064D01*
X93865409Y-71523318D01*
X94050000Y-71247058D01*
X94234591Y-71523318D01*
G36*
X64874042Y-70611100D02*
X61104158Y-70611100D01*
X61561558Y-70153700D01*
X65331442Y-70153700D01*
X64874042Y-70611100D01*
X64874042Y-70611100D01*
G37*
X64874042Y-70611100D02*
X61104158Y-70611100D01*
X61561558Y-70153700D01*
X65331442Y-70153700D01*
X64874042Y-70611100D01*
G36*
X71101253Y-63176064D02*
X71454639Y-63322803D01*
X66193742Y-68583700D01*
X62368858Y-68583700D01*
X68165458Y-62787100D01*
X70712967Y-62787100D01*
X71101253Y-63176064D01*
X71101253Y-63176064D01*
G37*
X71101253Y-63176064D02*
X71454639Y-63322803D01*
X66193742Y-68583700D01*
X62368858Y-68583700D01*
X68165458Y-62787100D01*
X70712967Y-62787100D01*
X71101253Y-63176064D01*
G36*
X81249621Y-62556079D02*
X81504293Y-62726245D01*
X81804700Y-62786000D01*
X92312791Y-62786000D01*
X92314990Y-62791323D01*
X92523832Y-63000530D01*
X92316371Y-63207630D01*
X92103243Y-63720900D01*
X92102758Y-64276661D01*
X92135003Y-64354700D01*
X79921857Y-64354700D01*
X78954809Y-63387652D01*
X79273538Y-63387930D01*
X79782977Y-63177434D01*
X80173084Y-62788007D01*
X80384469Y-62278936D01*
X80384950Y-61727722D01*
X80361596Y-61671200D01*
X80364742Y-61671200D01*
X81249621Y-62556079D01*
X81249621Y-62556079D01*
G37*
X81249621Y-62556079D02*
X81504293Y-62726245D01*
X81804700Y-62786000D01*
X92312791Y-62786000D01*
X92314990Y-62791323D01*
X92523832Y-63000530D01*
X92316371Y-63207630D01*
X92103243Y-63720900D01*
X92102758Y-64276661D01*
X92135003Y-64354700D01*
X79921857Y-64354700D01*
X78954809Y-63387652D01*
X79273538Y-63387930D01*
X79782977Y-63177434D01*
X80173084Y-62788007D01*
X80384469Y-62278936D01*
X80384950Y-61727722D01*
X80361596Y-61671200D01*
X80364742Y-61671200D01*
X81249621Y-62556079D01*
G36*
X123336812Y-55069406D02*
X123609945Y-55478180D01*
X123963506Y-55714421D01*
X123707808Y-55969673D01*
X123565162Y-56313201D01*
X123565152Y-56324690D01*
X116674842Y-63215000D01*
X97227201Y-63215000D01*
X97225010Y-63209697D01*
X97016168Y-63000490D01*
X97223629Y-62793390D01*
X97436757Y-62280120D01*
X97437242Y-61724359D01*
X97225010Y-61210717D01*
X96832370Y-60817391D01*
X96726096Y-60773262D01*
X98919648Y-58579710D01*
X98784815Y-58904425D01*
X98784126Y-59694111D01*
X99085689Y-60423949D01*
X99643594Y-60982829D01*
X100372905Y-61285665D01*
X101162591Y-61286354D01*
X101892429Y-60984791D01*
X102451309Y-60426886D01*
X102754145Y-59697575D01*
X102754834Y-58907889D01*
X102453271Y-58178051D01*
X101895366Y-57619171D01*
X101166055Y-57316335D01*
X100376369Y-57315646D01*
X100048056Y-57451302D01*
X100694858Y-56804500D01*
X120980500Y-56804500D01*
X121280907Y-56744745D01*
X121535579Y-56574579D01*
X123175005Y-54935153D01*
X123185167Y-54935162D01*
X123300620Y-54887458D01*
X123336812Y-55069406D01*
X123336812Y-55069406D01*
G37*
X123336812Y-55069406D02*
X123609945Y-55478180D01*
X123963506Y-55714421D01*
X123707808Y-55969673D01*
X123565162Y-56313201D01*
X123565152Y-56324690D01*
X116674842Y-63215000D01*
X97227201Y-63215000D01*
X97225010Y-63209697D01*
X97016168Y-63000490D01*
X97223629Y-62793390D01*
X97436757Y-62280120D01*
X97437242Y-61724359D01*
X97225010Y-61210717D01*
X96832370Y-60817391D01*
X96726096Y-60773262D01*
X98919648Y-58579710D01*
X98784815Y-58904425D01*
X98784126Y-59694111D01*
X99085689Y-60423949D01*
X99643594Y-60982829D01*
X100372905Y-61285665D01*
X101162591Y-61286354D01*
X101892429Y-60984791D01*
X102451309Y-60426886D01*
X102754145Y-59697575D01*
X102754834Y-58907889D01*
X102453271Y-58178051D01*
X101895366Y-57619171D01*
X101166055Y-57316335D01*
X100376369Y-57315646D01*
X100048056Y-57451302D01*
X100694858Y-56804500D01*
X120980500Y-56804500D01*
X121280907Y-56744745D01*
X121535579Y-56574579D01*
X123175005Y-54935153D01*
X123185167Y-54935162D01*
X123300620Y-54887458D01*
X123336812Y-55069406D01*
M02*
