G04 #@! TF.FileFunction,Soldermask,Top*
%FSLAX46Y46*%
G04 Gerber Fmt 4.6, Leading zero omitted, Abs format (unit mm)*
G04 Created by KiCad (PCBNEW 4.0.5+dfsg1-4) date Tue Apr 25 09:23:24 2017*
%MOMM*%
%LPD*%
G01*
G04 APERTURE LIST*
%ADD10C,0.100000*%
%ADD11O,2.200000X3.000000*%
%ADD12C,3.400000*%
%ADD13C,1.901140*%
%ADD14C,3.399740*%
%ADD15R,0.900380X2.701240*%
%ADD16R,2.398980X2.899360*%
%ADD17C,1.299160*%
%ADD18C,1.924000*%
%ADD19C,3.100020*%
%ADD20C,3.900000*%
%ADD21O,1.400000X2.200000*%
%ADD22O,1.400000X2.500000*%
%ADD23C,1.050000*%
%ADD24R,0.700000X1.540000*%
%ADD25R,1.797000X1.797000*%
%ADD26C,1.797000*%
%ADD27R,0.800000X1.750000*%
%ADD28O,1.650000X1.650000*%
%ADD29O,2.200000X1.950000*%
G04 APERTURE END LIST*
D10*
D11*
X75000000Y-70000000D03*
X77540000Y-70000000D03*
X80080000Y-70000000D03*
X82620000Y-70000000D03*
X85160000Y-70000000D03*
X87700000Y-70000000D03*
X90240000Y-70000000D03*
X92780000Y-70000000D03*
X95320000Y-70000000D03*
X97860000Y-70000000D03*
X100400000Y-70000000D03*
X102940000Y-70000000D03*
X105480000Y-70000000D03*
X108020000Y-70000000D03*
X110560000Y-70000000D03*
X113100000Y-70000000D03*
D12*
X69500900Y-70000000D03*
X69500900Y-101000700D03*
X144499480Y-101000700D03*
X144499480Y-70000000D03*
D13*
X62102120Y-110712860D03*
X62102120Y-108172860D03*
X62102120Y-106140860D03*
X62102120Y-103600860D03*
D14*
X59435120Y-113760860D03*
X59435120Y-100044860D03*
D15*
X111199800Y-114050680D03*
X111999900Y-114050680D03*
X112800000Y-114050680D03*
X113600100Y-114050680D03*
X114400200Y-114050680D03*
D16*
X108349920Y-114149740D03*
X108349920Y-119648840D03*
X117250080Y-114149740D03*
X117250080Y-119648840D03*
D17*
X110600360Y-116649100D03*
X114999640Y-116649100D03*
D13*
X81912860Y-108997880D03*
X79372860Y-108997880D03*
X77340860Y-108997880D03*
X74800860Y-108997880D03*
D14*
X84960860Y-111664880D03*
X71244860Y-111664880D03*
D18*
X95460000Y-107000000D03*
X98000000Y-107000000D03*
X98000000Y-108998980D03*
X95460000Y-108998980D03*
D19*
X90730520Y-111699000D03*
X102729480Y-111699000D03*
D20*
X62600000Y-89600000D03*
X62600000Y-84800000D03*
X58400000Y-89600000D03*
X58400000Y-84800000D03*
X54200000Y-89600000D03*
X54200000Y-84800000D03*
D21*
X138260000Y-118890000D03*
X146900000Y-118890000D03*
D22*
X138260000Y-114710000D03*
X146900000Y-114710000D03*
D23*
X139690000Y-115210000D03*
X145470000Y-115210000D03*
D24*
X140830000Y-114140000D03*
X141330000Y-114140000D03*
X141830000Y-114140000D03*
X142330000Y-114140000D03*
X142830000Y-114140000D03*
X143330000Y-114140000D03*
X143830000Y-114140000D03*
X144330000Y-114140000D03*
X139230000Y-114140000D03*
X139530000Y-114140000D03*
X140030000Y-114140000D03*
X140330000Y-114140000D03*
X144830000Y-114140000D03*
X145130000Y-114140000D03*
X145630000Y-114140000D03*
X145930000Y-114140000D03*
D25*
X62540000Y-73530000D03*
D26*
X62540000Y-76070000D03*
X60000000Y-73530000D03*
X60000000Y-76070000D03*
X57460000Y-73530000D03*
X57460000Y-76070000D03*
D27*
X59600900Y-65762540D03*
X58950900Y-65762540D03*
X58300900Y-65762540D03*
X57650900Y-65762540D03*
X57000900Y-65762540D03*
D28*
X60800900Y-65762540D03*
X55800900Y-65762540D03*
D29*
X61800900Y-63062540D03*
X54800900Y-63062540D03*
D26*
X115580000Y-64660960D03*
X113040000Y-64539040D03*
X110500000Y-64660960D03*
X107960000Y-64539040D03*
X105420000Y-64660960D03*
X118120000Y-64539040D03*
X102880000Y-64539040D03*
D25*
X120660000Y-64660960D03*
D26*
X100340000Y-64660960D03*
X140580000Y-64760960D03*
X138040000Y-64639040D03*
X135500000Y-64760960D03*
X132960000Y-64639040D03*
X130420000Y-64760960D03*
X143120000Y-64639040D03*
X127880000Y-64639040D03*
D25*
X145660000Y-64760960D03*
D26*
X125340000Y-64760960D03*
D25*
X51900000Y-73430000D03*
D26*
X51900000Y-75970000D03*
D27*
X133500000Y-116437460D03*
X132850000Y-116437460D03*
X125499100Y-116437460D03*
X131550000Y-116437460D03*
X130900000Y-116437460D03*
X124199100Y-116437460D03*
X124849100Y-116437460D03*
X132200000Y-116437460D03*
X126149100Y-116437460D03*
X126799100Y-116437460D03*
D29*
X121999100Y-119137460D03*
X134550000Y-119137460D03*
M02*
