M48
;DRILL file {KiCad 4.0.4+dfsg1-stable} date Wed Dec 21 21:58:19 2016
;FORMAT={-:-/ absolute / inch / decimal}
FMAT,2
INCH,TZ
T1C0.016
T2C0.020
T3C0.022
T4C0.024
T5C0.028
T6C0.032
T7C0.039
T8C0.040
T9C0.047
T10C0.083
T11C0.091
T12C0.098
%
G90
G05
M72
T1
X2.0472Y-3.8386
X2.1457Y-4.1142
X2.1457Y-4.4488
X2.2638Y-3.4843
X2.3819Y-3.5827
X2.3819Y-4.1142
X2.4803Y-2.7756
X2.4821Y-3.3661
X2.487Y-3.3343
X2.5984Y-2.5984
X2.7554Y-3.6262
X2.8346Y-4.5472
X2.9528Y-3.9567
X2.9921Y-3.563
X3.0315Y-3.4055
X3.0331Y-4.4702
X3.1693Y-2.9528
X3.2087Y-3.9764
X3.2677Y-3.248
X3.3071Y-2.8937
X3.3858Y-2.5197
X3.5236Y-3.4843
X3.6417Y-3.1299
X3.6614Y-3.7598
X3.6716Y-3.4382
X3.7205Y-3.5039
X3.7374Y-3.3724
X3.7499Y-3.8464
X3.9173Y-3.2874
X3.9329Y-3.3939
X4.0309Y-3.2939
X4.0354Y-3.9173
X4.0551Y-3.2283
X4.0551Y-4.2126
X4.0945Y-4.4882
X4.1732Y-2.3819
X4.3504Y-3.7402
X4.3898Y-3.8447
X4.4132Y-3.0889
X4.4394Y-3.6758
X4.4488Y-2.4213
X4.5079Y-3.7008
X4.5669Y-3.3661
X4.7047Y-2.0276
X4.7047Y-2.2638
X4.7047Y-4.4882
X4.7047Y-4.7047
X4.7519Y-3.6696
X4.8228Y-4.626
X4.8425Y-2.126
X4.9016Y-2.2244
X4.9055Y-3.8661
X4.9213Y-4.5276
X4.9856Y-4.6344
X5.0197Y-2.2244
X5.0394Y-4.5335
X5.0591Y-2.0866
X5.1969Y-4.5669
X5.2362Y-4.685
X5.2559Y-2.0276
X5.3937Y-3.7205
X5.4724Y-2.2835
X5.4724Y-4.4488
X5.5118Y-2.185
X5.5118Y-4.5472
X5.6496Y-2.185
X5.6496Y-4.5472
X5.689Y-2.2835
X5.689Y-4.4488
T5
X2.4016Y-2.8724
X2.4016Y-3.0724
X2.5016Y-2.9724
T6
X3.6795Y-4.2126
X3.6795Y-4.2913
X3.6811Y-2.441
X3.6811Y-2.5197
X3.7795Y-4.2126
X3.7795Y-4.2913
X3.7811Y-2.441
X3.7811Y-2.5197
T7
X2.7953Y-4.2913
X2.8302Y-2.441
X2.8953Y-4.2913
X2.9302Y-2.441
X2.9753Y-4.2913
X3.0102Y-2.441
X3.0753Y-4.2913
X3.1102Y-2.441
T8
X2.0571Y-4.1831
X2.0571Y-4.2831
X2.0571Y-4.3831
X2.0571Y-4.4831
X2.0571Y-4.5831
X2.0571Y-4.6831
T9
X2.9528Y-2.7559
X3.0528Y-2.7559
X3.1528Y-2.7559
X3.2528Y-2.7559
X3.3528Y-2.7559
X3.4528Y-2.7559
X3.5528Y-2.7559
X3.6528Y-2.7559
X3.7528Y-2.7559
X3.8528Y-2.7559
X3.9528Y-2.7559
X4.0528Y-2.7559
X4.1528Y-2.7559
X4.2528Y-2.7559
X4.3528Y-2.7559
X4.4528Y-2.7559
T10
X2.1457Y-3.7598
X2.1457Y-3.9488
X2.311Y-3.7598
X2.311Y-3.9488
X2.4764Y-3.7598
X2.4764Y-3.9488
T11
X2.6553Y-4.3963
X2.7102Y-2.336
X3.1953Y-4.3963
X3.2502Y-2.336
X3.4933Y-4.3976
X3.4949Y-2.3347
X3.9657Y-4.3976
X3.9673Y-2.3347
T12
X2.7363Y-2.7559
X2.7363Y-3.9764
X5.689Y-2.7559
X5.689Y-3.9764
T2
X2.0094Y-3.2283G85X2.0349Y-3.2283
G05
X2.0094Y-3.5039G85X2.0349Y-3.5039
G05
X4.8622Y-4.7032G85X4.8622Y-4.6777
G05
X4.8622Y-2.029G85X4.8622Y-2.0546
G05
X5.1378Y-4.7032G85X5.1378Y-4.6777
G05
X5.1378Y-2.029G85X5.1378Y-2.0546
G05
T3
X2.1284Y-3.2618G85X2.1284Y-3.2736
G05
X2.1284Y-3.4586G85X2.1284Y-3.4704
G05
X4.8956Y-4.5842G85X4.9074Y-4.5842
G05
X4.9075Y-2.1481G85X4.8957Y-2.1481
G05
X5.0925Y-4.5842G85X5.1043Y-4.5842
G05
X5.1044Y-2.1481G85X5.0926Y-2.1481
G05
T4
X5.4079Y-4.4945G85X5.4079Y-4.5378
G05
X5.4079Y-4.665G85X5.4079Y-4.6965
G05
X5.4134Y-2.0673G85X5.4134Y-2.0358
G05
X5.4134Y-2.2378G85X5.4134Y-2.1945
G05
X5.748Y-4.4945G85X5.748Y-4.5378
G05
X5.748Y-4.665G85X5.748Y-4.6965
G05
X5.7535Y-2.0673G85X5.7535Y-2.0358
G05
X5.7535Y-2.2378G85X5.7535Y-2.1945
G05
T0
M30
