G04 #@! TF.FileFunction,Soldermask,Bot*
%FSLAX46Y46*%
G04 Gerber Fmt 4.6, Leading zero omitted, Abs format (unit mm)*
G04 Created by KiCad (PCBNEW 4.0.4+dfsg1-stable) date Wed Dec 21 21:58:14 2016*
%MOMM*%
%LPD*%
G01*
G04 APERTURE LIST*
%ADD10C,0.100000*%
%ADD11R,1.600000X1.150000*%
%ADD12R,1.150000X1.600000*%
%ADD13R,1.400000X1.400000*%
%ADD14R,1.197560X1.197560*%
%ADD15O,2.200000X3.000000*%
%ADD16C,3.400000*%
%ADD17R,2.100000X1.050000*%
%ADD18C,1.901140*%
%ADD19C,3.399740*%
%ADD20C,1.924000*%
%ADD21C,3.100020*%
%ADD22C,1.299160*%
%ADD23O,1.650000X1.650000*%
%ADD24O,2.200000X1.950000*%
%ADD25R,2.200860X1.200100*%
%ADD26R,1.600000X1.300000*%
%ADD27R,1.300000X1.600000*%
%ADD28R,1.800000X1.800000*%
%ADD29C,1.800000*%
%ADD30C,3.900000*%
%ADD31R,1.900000X1.000000*%
%ADD32R,1.950000X1.000000*%
%ADD33O,1.950000X2.200000*%
%ADD34R,2.432000X2.127200*%
%ADD35O,2.432000X2.127200*%
%ADD36O,1.400000X2.200000*%
%ADD37O,1.400000X2.500000*%
%ADD38C,1.050000*%
G04 APERTURE END LIST*
D10*
D11*
X106450000Y-77500000D03*
X104550000Y-77500000D03*
X124450000Y-96500000D03*
X122550000Y-96500000D03*
D12*
X105000000Y-90450000D03*
X105000000Y-88550000D03*
X129000000Y-94950000D03*
X129000000Y-93050000D03*
D13*
X71055000Y-92000000D03*
X68945000Y-92000000D03*
X71055000Y-95000000D03*
X68945000Y-95000000D03*
D14*
X98749300Y-91000000D03*
X97250700Y-91000000D03*
D15*
X75000000Y-70000000D03*
X77540000Y-70000000D03*
X80080000Y-70000000D03*
X82620000Y-70000000D03*
X85160000Y-70000000D03*
X87700000Y-70000000D03*
X90240000Y-70000000D03*
X92780000Y-70000000D03*
X95320000Y-70000000D03*
X97860000Y-70000000D03*
X100400000Y-70000000D03*
X102940000Y-70000000D03*
X105480000Y-70000000D03*
X108020000Y-70000000D03*
X110560000Y-70000000D03*
X113100000Y-70000000D03*
D16*
X69500900Y-70000000D03*
X69500900Y-101000700D03*
X144499480Y-101000700D03*
X144499480Y-70000000D03*
D17*
X89350000Y-99905000D03*
X89350000Y-98635000D03*
X89350000Y-97365000D03*
X89350000Y-96095000D03*
X96650000Y-96095000D03*
X96650000Y-97365000D03*
X96650000Y-98635000D03*
X96650000Y-99905000D03*
D18*
X71887140Y-62002120D03*
X74427140Y-62002120D03*
X76459140Y-62002120D03*
X78999140Y-62002120D03*
D19*
X68839140Y-59335120D03*
X82555140Y-59335120D03*
D20*
X96040000Y-64000000D03*
X93500000Y-64000000D03*
X93500000Y-62001020D03*
X96040000Y-62001020D03*
D21*
X100769480Y-59301000D03*
X88770520Y-59301000D03*
D22*
X114199640Y-54350900D03*
X109800360Y-54350900D03*
D23*
X129500900Y-54562540D03*
X124500900Y-54562540D03*
D24*
X130500900Y-51862540D03*
X123500900Y-51862540D03*
D22*
X109800360Y-116649100D03*
X114199640Y-116649100D03*
D23*
X124499100Y-116437460D03*
X129499100Y-116437460D03*
D24*
X123499100Y-119137460D03*
X130499100Y-119137460D03*
D18*
X78112860Y-108997880D03*
X75572860Y-108997880D03*
X73540860Y-108997880D03*
X71000860Y-108997880D03*
D19*
X81160860Y-111664880D03*
X67444860Y-111664880D03*
D20*
X93460000Y-107000000D03*
X96000000Y-107000000D03*
X96000000Y-108998980D03*
X93460000Y-108998980D03*
D21*
X88730520Y-111699000D03*
X100729480Y-111699000D03*
D25*
X111498860Y-76950000D03*
X111498860Y-75050000D03*
X114501140Y-76000000D03*
D26*
X80600000Y-84000000D03*
X78400000Y-84000000D03*
X80600000Y-81000000D03*
X78400000Y-81000000D03*
X80600000Y-78000000D03*
X78400000Y-78000000D03*
X106600000Y-74500000D03*
X104400000Y-74500000D03*
X106600000Y-80500000D03*
X104400000Y-80500000D03*
X106600000Y-83500000D03*
X104400000Y-83500000D03*
X80600000Y-89000000D03*
X78400000Y-89000000D03*
X80600000Y-92000000D03*
X78400000Y-92000000D03*
X80600000Y-95000000D03*
X78400000Y-95000000D03*
X122400000Y-87500000D03*
X124600000Y-87500000D03*
X124600000Y-93500000D03*
X122400000Y-93500000D03*
X122400000Y-90500000D03*
X124600000Y-90500000D03*
D27*
X108000000Y-90600000D03*
X108000000Y-88400000D03*
D26*
X112900000Y-91000000D03*
X115100000Y-91000000D03*
X138100000Y-87000000D03*
X135900000Y-87000000D03*
X115100000Y-88000000D03*
X112900000Y-88000000D03*
X124600000Y-99500000D03*
X122400000Y-99500000D03*
X138100000Y-100000000D03*
X135900000Y-100000000D03*
X90400000Y-91000000D03*
X92600000Y-91000000D03*
D28*
X61000000Y-72960000D03*
D29*
X61000000Y-78040000D03*
X63540000Y-75500000D03*
D30*
X54500000Y-95500000D03*
X54500000Y-100300000D03*
X58700000Y-95500000D03*
X58700000Y-100300000D03*
X62900000Y-95500000D03*
X62900000Y-100300000D03*
D31*
X87850000Y-82945000D03*
X87850000Y-81675000D03*
X87850000Y-80405000D03*
X87850000Y-79135000D03*
X87850000Y-77865000D03*
X87850000Y-76595000D03*
X87850000Y-75325000D03*
X87850000Y-74055000D03*
X97150000Y-74055000D03*
X97150000Y-75325000D03*
X97150000Y-76595000D03*
X97150000Y-77865000D03*
X97150000Y-79135000D03*
X97150000Y-80405000D03*
X97150000Y-81675000D03*
X97150000Y-82945000D03*
D32*
X113200000Y-96095000D03*
X113200000Y-97365000D03*
X113200000Y-98635000D03*
X113200000Y-99905000D03*
X107800000Y-99905000D03*
X107800000Y-98635000D03*
X107800000Y-97365000D03*
X107800000Y-96095000D03*
X134300000Y-94905000D03*
X134300000Y-93635000D03*
X134300000Y-92365000D03*
X134300000Y-91095000D03*
X139700000Y-91095000D03*
X139700000Y-92365000D03*
X139700000Y-93635000D03*
X139700000Y-94905000D03*
D23*
X54062540Y-82999100D03*
X54062540Y-87999100D03*
D33*
X51362540Y-81999100D03*
X51362540Y-88999100D03*
D34*
X52250000Y-106250000D03*
D35*
X52250000Y-108790000D03*
X52250000Y-111330000D03*
X52250000Y-113870000D03*
X52250000Y-116410000D03*
X52250000Y-118950000D03*
D13*
X68945000Y-89000000D03*
X71055000Y-89000000D03*
D36*
X146140000Y-52110000D03*
X137500000Y-52110000D03*
D37*
X146140000Y-56290000D03*
X137500000Y-56290000D03*
D38*
X144710000Y-55790000D03*
X138930000Y-55790000D03*
D36*
X137360000Y-118890000D03*
X146000000Y-118890000D03*
D37*
X137360000Y-114710000D03*
X146000000Y-114710000D03*
D38*
X138790000Y-115210000D03*
X144570000Y-115210000D03*
M02*
