G04 #@! TF.FileFunction,Soldermask,Top*
%FSLAX46Y46*%
G04 Gerber Fmt 4.6, Leading zero omitted, Abs format (unit mm)*
G04 Created by KiCad (PCBNEW 4.0.4+dfsg1-stable) date Wed Dec 21 21:58:14 2016*
%MOMM*%
%LPD*%
G01*
G04 APERTURE LIST*
%ADD10C,0.100000*%
%ADD11R,1.600000X1.150000*%
%ADD12R,1.197560X1.197560*%
%ADD13O,2.200000X3.000000*%
%ADD14C,3.400000*%
%ADD15C,1.901140*%
%ADD16C,3.399740*%
%ADD17C,1.924000*%
%ADD18C,3.100020*%
%ADD19R,0.900380X2.701240*%
%ADD20R,2.398980X2.899360*%
%ADD21C,1.299160*%
%ADD22R,0.800000X1.750000*%
%ADD23O,1.650000X1.650000*%
%ADD24O,2.200000X1.950000*%
%ADD25R,1.600000X1.300000*%
%ADD26R,1.800000X1.800000*%
%ADD27C,1.800000*%
%ADD28C,3.900000*%
%ADD29R,1.750000X0.800000*%
%ADD30O,1.950000X2.200000*%
%ADD31R,2.432000X2.127200*%
%ADD32O,2.432000X2.127200*%
%ADD33O,1.400000X2.200000*%
%ADD34O,1.400000X2.500000*%
%ADD35C,1.050000*%
%ADD36R,0.700000X1.540000*%
G04 APERTURE END LIST*
D10*
D11*
X61450000Y-82000000D03*
X59550000Y-82000000D03*
X61450000Y-84000000D03*
X59550000Y-84000000D03*
D12*
X61249300Y-89000000D03*
X59750700Y-89000000D03*
D13*
X75000000Y-70000000D03*
X77540000Y-70000000D03*
X80080000Y-70000000D03*
X82620000Y-70000000D03*
X85160000Y-70000000D03*
X87700000Y-70000000D03*
X90240000Y-70000000D03*
X92780000Y-70000000D03*
X95320000Y-70000000D03*
X97860000Y-70000000D03*
X100400000Y-70000000D03*
X102940000Y-70000000D03*
X105480000Y-70000000D03*
X108020000Y-70000000D03*
X110560000Y-70000000D03*
X113100000Y-70000000D03*
D14*
X69500900Y-70000000D03*
X69500900Y-101000700D03*
X144499480Y-101000700D03*
X144499480Y-70000000D03*
D15*
X71887140Y-62002120D03*
X74427140Y-62002120D03*
X76459140Y-62002120D03*
X78999140Y-62002120D03*
D16*
X68839140Y-59335120D03*
X82555140Y-59335120D03*
D17*
X96040000Y-64000000D03*
X93500000Y-64000000D03*
X93500000Y-62001020D03*
X96040000Y-62001020D03*
D18*
X100769480Y-59301000D03*
X88770520Y-59301000D03*
D19*
X113600200Y-56949320D03*
X112800100Y-56949320D03*
X112000000Y-56949320D03*
X111199900Y-56949320D03*
X110399800Y-56949320D03*
D20*
X116450080Y-56850260D03*
X116450080Y-51351160D03*
X107549920Y-56850260D03*
X107549920Y-51351160D03*
D21*
X114199640Y-54350900D03*
X109800360Y-54350900D03*
D22*
X128300900Y-54562540D03*
X127650900Y-54562540D03*
X127000900Y-54562540D03*
X126350900Y-54562540D03*
X125700900Y-54562540D03*
D23*
X129500900Y-54562540D03*
X124500900Y-54562540D03*
D24*
X130500900Y-51862540D03*
X123500900Y-51862540D03*
D19*
X110399800Y-114050680D03*
X111199900Y-114050680D03*
X112000000Y-114050680D03*
X112800100Y-114050680D03*
X113600200Y-114050680D03*
D20*
X107549920Y-114149740D03*
X107549920Y-119648840D03*
X116450080Y-114149740D03*
X116450080Y-119648840D03*
D21*
X109800360Y-116649100D03*
X114199640Y-116649100D03*
D22*
X125699100Y-116437460D03*
X126349100Y-116437460D03*
X126999100Y-116437460D03*
X127649100Y-116437460D03*
X128299100Y-116437460D03*
D23*
X124499100Y-116437460D03*
X129499100Y-116437460D03*
D24*
X123499100Y-119137460D03*
X130499100Y-119137460D03*
D15*
X78112860Y-108997880D03*
X75572860Y-108997880D03*
X73540860Y-108997880D03*
X71000860Y-108997880D03*
D16*
X81160860Y-111664880D03*
X67444860Y-111664880D03*
D17*
X93460000Y-107000000D03*
X96000000Y-107000000D03*
X96000000Y-108998980D03*
X93460000Y-108998980D03*
D18*
X88730520Y-111699000D03*
X100729480Y-111699000D03*
D25*
X59400000Y-87000000D03*
X61600000Y-87000000D03*
D26*
X61000000Y-72960000D03*
D27*
X61000000Y-78040000D03*
X63540000Y-75500000D03*
D28*
X54500000Y-95500000D03*
X54500000Y-100300000D03*
X58700000Y-95500000D03*
X58700000Y-100300000D03*
X62900000Y-95500000D03*
X62900000Y-100300000D03*
D29*
X54062540Y-84199100D03*
X54062540Y-84849100D03*
X54062540Y-85499100D03*
X54062540Y-86149100D03*
X54062540Y-86799100D03*
D23*
X54062540Y-82999100D03*
X54062540Y-87999100D03*
D30*
X51362540Y-81999100D03*
X51362540Y-88999100D03*
D31*
X52250000Y-106250000D03*
D32*
X52250000Y-108790000D03*
X52250000Y-111330000D03*
X52250000Y-113870000D03*
X52250000Y-116410000D03*
X52250000Y-118950000D03*
D33*
X146140000Y-52110000D03*
X137500000Y-52110000D03*
D34*
X146140000Y-56290000D03*
X137500000Y-56290000D03*
D35*
X144710000Y-55790000D03*
X138930000Y-55790000D03*
D36*
X143570000Y-56860000D03*
X143070000Y-56860000D03*
X142570000Y-56860000D03*
X142070000Y-56860000D03*
X141570000Y-56860000D03*
X141070000Y-56860000D03*
X140570000Y-56860000D03*
X140070000Y-56860000D03*
X145170000Y-56860000D03*
X144870000Y-56860000D03*
X144370000Y-56860000D03*
X144070000Y-56860000D03*
X139570000Y-56860000D03*
X139270000Y-56860000D03*
X138770000Y-56860000D03*
X138470000Y-56860000D03*
D33*
X137360000Y-118890000D03*
X146000000Y-118890000D03*
D34*
X137360000Y-114710000D03*
X146000000Y-114710000D03*
D35*
X138790000Y-115210000D03*
X144570000Y-115210000D03*
D36*
X139930000Y-114140000D03*
X140430000Y-114140000D03*
X140930000Y-114140000D03*
X141430000Y-114140000D03*
X141930000Y-114140000D03*
X142430000Y-114140000D03*
X142930000Y-114140000D03*
X143430000Y-114140000D03*
X138330000Y-114140000D03*
X138630000Y-114140000D03*
X139130000Y-114140000D03*
X139430000Y-114140000D03*
X143930000Y-114140000D03*
X144230000Y-114140000D03*
X144730000Y-114140000D03*
X145030000Y-114140000D03*
M02*
