G04 #@! TF.FileFunction,Copper,L1,Top,Signal*
%FSLAX46Y46*%
G04 Gerber Fmt 4.6, Leading zero omitted, Abs format (unit mm)*
G04 Created by KiCad (PCBNEW 4.0.5+dfsg1-4) date Sun Feb 26 13:13:11 2017*
%MOMM*%
%LPD*%
G01*
G04 APERTURE LIST*
%ADD10C,0.100000*%
%ADD11O,1.800000X2.600000*%
%ADD12C,3.000000*%
%ADD13C,1.501140*%
%ADD14C,2.999740*%
%ADD15C,1.524000*%
%ADD16C,2.700020*%
%ADD17R,0.500380X2.301240*%
%ADD18R,1.998980X2.499360*%
%ADD19R,0.400000X1.350000*%
%ADD20O,1.250000X1.250000*%
%ADD21O,1.800000X1.550000*%
%ADD22C,3.500000*%
%ADD23O,1.000000X1.800000*%
%ADD24O,1.000000X2.100000*%
%ADD25R,0.300000X1.140000*%
%ADD26R,1.397000X1.397000*%
%ADD27C,1.397000*%
%ADD28R,1.350000X0.400000*%
%ADD29O,1.550000X1.800000*%
%ADD30R,0.797560X0.797560*%
%ADD31R,1.200000X0.900000*%
%ADD32C,0.600000*%
%ADD33C,0.300000*%
%ADD34C,0.400000*%
%ADD35C,0.254000*%
G04 APERTURE END LIST*
D10*
D11*
X75000000Y-70000000D03*
X77540000Y-70000000D03*
X80080000Y-70000000D03*
X82620000Y-70000000D03*
X85160000Y-70000000D03*
X87700000Y-70000000D03*
X90240000Y-70000000D03*
X92780000Y-70000000D03*
X95320000Y-70000000D03*
X97860000Y-70000000D03*
X100400000Y-70000000D03*
X102940000Y-70000000D03*
X105480000Y-70000000D03*
X108020000Y-70000000D03*
X110560000Y-70000000D03*
X113100000Y-70000000D03*
D12*
X69500900Y-70000000D03*
X69500900Y-101000700D03*
X144499480Y-101000700D03*
X144499480Y-70000000D03*
D13*
X71887140Y-62002120D03*
X74427140Y-62002120D03*
X76459140Y-62002120D03*
X78999140Y-62002120D03*
D14*
X68839140Y-59335120D03*
X82555140Y-59335120D03*
D15*
X96040000Y-64000000D03*
X93500000Y-64000000D03*
X93500000Y-62001020D03*
X96040000Y-62001020D03*
D16*
X100769480Y-59301000D03*
X88770520Y-59301000D03*
D17*
X113600200Y-56949320D03*
X112800100Y-56949320D03*
X112000000Y-56949320D03*
X111199900Y-56949320D03*
X110399800Y-56949320D03*
D18*
X116450080Y-56850260D03*
X116450080Y-51351160D03*
X107549920Y-56850260D03*
X107549920Y-51351160D03*
D19*
X128300900Y-54562540D03*
X127650900Y-54562540D03*
X127000900Y-54562540D03*
X126350900Y-54562540D03*
X125700900Y-54562540D03*
D20*
X129500900Y-54562540D03*
X124500900Y-54562540D03*
D21*
X130500900Y-51862540D03*
X123500900Y-51862540D03*
D17*
X110399800Y-114050680D03*
X111199900Y-114050680D03*
X112000000Y-114050680D03*
X112800100Y-114050680D03*
X113600200Y-114050680D03*
D18*
X107549920Y-114149740D03*
X107549920Y-119648840D03*
X116450080Y-114149740D03*
X116450080Y-119648840D03*
D19*
X125699100Y-116437460D03*
X126349100Y-116437460D03*
X126999100Y-116437460D03*
X127649100Y-116437460D03*
X128299100Y-116437460D03*
D20*
X124499100Y-116437460D03*
X129499100Y-116437460D03*
D21*
X123499100Y-119137460D03*
X130499100Y-119137460D03*
D13*
X78112860Y-108997880D03*
X75572860Y-108997880D03*
X73540860Y-108997880D03*
X71000860Y-108997880D03*
D14*
X81160860Y-111664880D03*
X67444860Y-111664880D03*
D15*
X93460000Y-107000000D03*
X96000000Y-107000000D03*
X96000000Y-108998980D03*
X93460000Y-108998980D03*
D16*
X88730520Y-111699000D03*
X100729480Y-111699000D03*
D22*
X54500000Y-95500000D03*
X54500000Y-100300000D03*
X58700000Y-95500000D03*
X58700000Y-100300000D03*
X62900000Y-95500000D03*
X62900000Y-100300000D03*
D23*
X146140000Y-52110000D03*
X137500000Y-52110000D03*
D24*
X146140000Y-56290000D03*
X137500000Y-56290000D03*
D25*
X143570000Y-56860000D03*
X143070000Y-56860000D03*
X142570000Y-56860000D03*
X142070000Y-56860000D03*
X141570000Y-56860000D03*
X141070000Y-56860000D03*
X140570000Y-56860000D03*
X140070000Y-56860000D03*
X145170000Y-56860000D03*
X144870000Y-56860000D03*
X144370000Y-56860000D03*
X144070000Y-56860000D03*
X139570000Y-56860000D03*
X139270000Y-56860000D03*
X138770000Y-56860000D03*
X138470000Y-56860000D03*
D23*
X137360000Y-118890000D03*
X146000000Y-118890000D03*
D24*
X137360000Y-114710000D03*
X146000000Y-114710000D03*
D25*
X139930000Y-114140000D03*
X140430000Y-114140000D03*
X140930000Y-114140000D03*
X141430000Y-114140000D03*
X141930000Y-114140000D03*
X142430000Y-114140000D03*
X142930000Y-114140000D03*
X143430000Y-114140000D03*
X138330000Y-114140000D03*
X138630000Y-114140000D03*
X139130000Y-114140000D03*
X139430000Y-114140000D03*
X143930000Y-114140000D03*
X144230000Y-114140000D03*
X144730000Y-114140000D03*
X145030000Y-114140000D03*
D26*
X61640000Y-61230000D03*
D27*
X61640000Y-63770000D03*
X59100000Y-61230000D03*
X59100000Y-63770000D03*
X56560000Y-61230000D03*
X56560000Y-63770000D03*
D28*
X54162540Y-84099100D03*
X54162540Y-84749100D03*
X54162540Y-85399100D03*
X54162540Y-86049100D03*
X54162540Y-86699100D03*
D20*
X54162540Y-82899100D03*
X54162540Y-87899100D03*
D29*
X51462540Y-81899100D03*
X51462540Y-88899100D03*
D30*
X52650700Y-70400000D03*
X54149300Y-70400000D03*
X52650700Y-72500000D03*
X54149300Y-72500000D03*
X54149300Y-74700000D03*
X52650700Y-74700000D03*
X54149300Y-76900000D03*
X52650700Y-76900000D03*
D27*
X140380000Y-106560960D03*
X137840000Y-106439040D03*
X135300000Y-106560960D03*
X132760000Y-106439040D03*
X130220000Y-106560960D03*
X142920000Y-106439040D03*
X127680000Y-106439040D03*
D26*
X145460000Y-106560960D03*
D27*
X125140000Y-106560960D03*
D31*
X57700000Y-70400000D03*
X59900000Y-70400000D03*
X57700000Y-72500000D03*
X59900000Y-72500000D03*
X57700000Y-74700000D03*
X59900000Y-74700000D03*
X57700000Y-76900000D03*
X59900000Y-76900000D03*
X62200000Y-86300000D03*
X60000000Y-86300000D03*
X62200000Y-84200000D03*
X60000000Y-84200000D03*
D27*
X140580000Y-64760960D03*
X138040000Y-64639040D03*
X135500000Y-64760960D03*
X132960000Y-64639040D03*
X130420000Y-64760960D03*
X143120000Y-64639040D03*
X127880000Y-64639040D03*
D26*
X145660000Y-64760960D03*
D27*
X125340000Y-64760960D03*
D32*
X98000000Y-116700000D03*
X103500000Y-114800000D03*
X79900000Y-94900000D03*
X88900000Y-105600000D03*
X121100000Y-114700000D03*
X98600000Y-92100000D03*
X113100000Y-87000000D03*
X127700000Y-90100000D03*
X122300000Y-87700000D03*
X109700000Y-86800000D03*
X134600000Y-94000000D03*
X130300000Y-82000000D03*
X117700000Y-95200000D03*
X123300000Y-102100000D03*
X134100000Y-76800000D03*
X138700000Y-76800000D03*
X126200000Y-74800000D03*
X117500000Y-69200000D03*
X89900000Y-72700000D03*
X87100000Y-75300000D03*
X92900000Y-74700000D03*
X84000000Y-74100000D03*
X113800000Y-61600000D03*
X106500000Y-61500000D03*
X74500000Y-64600000D03*
X81100000Y-64100000D03*
X60300000Y-82000000D03*
X61300000Y-90900000D03*
X62500000Y-70600000D03*
X65000000Y-69100000D03*
X59300000Y-66600000D03*
X62500000Y-75600000D03*
X86545100Y-81441400D03*
X119498600Y-91739700D03*
X144500000Y-58000000D03*
X139000000Y-58000000D03*
X124500000Y-56500000D03*
X127500000Y-56500000D03*
X122500000Y-117500000D03*
X126635000Y-117715000D03*
X123000000Y-54000000D03*
X128500000Y-53000000D03*
X140000000Y-55500000D03*
X143500000Y-55500000D03*
X125000000Y-115000000D03*
X128000000Y-115150000D03*
X139000000Y-113000000D03*
X144500000Y-113000000D03*
X140000000Y-115500000D03*
X143500000Y-115500000D03*
X81131700Y-85306200D03*
X73172000Y-84897800D03*
X98017100Y-86610500D03*
X107105100Y-86610500D03*
X95492300Y-86794400D03*
X95505800Y-80744500D03*
X80633200Y-87138700D03*
X66449200Y-83296200D03*
X85642400Y-88051000D03*
X65467400Y-71658000D03*
X84601000Y-88949900D03*
X65771700Y-81683400D03*
X81123200Y-87914900D03*
X62389300Y-79926800D03*
X90258400Y-75698500D03*
X89406800Y-76834400D03*
X88021100Y-85057500D03*
X83950600Y-88299600D03*
X92020300Y-81771600D03*
X91938000Y-84844200D03*
X91997800Y-86138400D03*
X92485300Y-87817300D03*
X85417400Y-87123700D03*
X80217100Y-81982700D03*
X89575000Y-92277500D03*
X90074800Y-89744100D03*
X124242500Y-80797200D03*
X89711400Y-82450300D03*
X95052500Y-83125300D03*
D33*
X98000000Y-116700000D02*
X99900000Y-114800000D01*
X99900000Y-114800000D02*
X103500000Y-114800000D01*
X79900000Y-94900000D02*
X79900000Y-96600000D01*
X79900000Y-96600000D02*
X88900000Y-105600000D01*
X113100000Y-87000000D02*
X109900000Y-87000000D01*
X113800000Y-87700000D02*
X113100000Y-87000000D01*
X127700000Y-90100000D02*
X124700000Y-90100000D01*
X124700000Y-90100000D02*
X122300000Y-87700000D01*
X122300000Y-87700000D02*
X113800000Y-87700000D01*
X109900000Y-87000000D02*
X109700000Y-86800000D01*
X127700000Y-90100000D02*
X130700000Y-90100000D01*
X130700000Y-90100000D02*
X134600000Y-94000000D01*
X130300000Y-87500000D02*
X127700000Y-90100000D01*
X134100000Y-76800000D02*
X134100000Y-78200000D01*
X134100000Y-78200000D02*
X130300000Y-82000000D01*
X130300000Y-82000000D02*
X130300000Y-87500000D01*
X117700000Y-95200000D02*
X117700000Y-96500000D01*
X117700000Y-96500000D02*
X123300000Y-102100000D01*
X138700000Y-76800000D02*
X134100000Y-76800000D01*
X113800000Y-61600000D02*
X113800000Y-65500000D01*
X113800000Y-65500000D02*
X117500000Y-69200000D01*
X89900000Y-72700000D02*
X90900000Y-72700000D01*
X85160000Y-70000000D02*
X85160000Y-73360000D01*
X85160000Y-73360000D02*
X87100000Y-75300000D01*
X90900000Y-72700000D02*
X92900000Y-74700000D01*
X83173700Y-73700000D02*
X83600000Y-73700000D01*
X83600000Y-73700000D02*
X84000000Y-74100000D01*
X143120000Y-63420000D02*
X141300000Y-61600000D01*
X141300000Y-61600000D02*
X113800000Y-61600000D01*
X143120000Y-64639040D02*
X143120000Y-63420000D01*
X74500000Y-64600000D02*
X80600000Y-64600000D01*
X74059250Y-65040750D02*
X74500000Y-64600000D01*
X73359250Y-65040750D02*
X74059250Y-65040750D01*
X80600000Y-64600000D02*
X81100000Y-64100000D01*
X54162540Y-86699100D02*
X57099100Y-86699100D01*
X57099100Y-86699100D02*
X61300000Y-90900000D01*
X62500000Y-70600000D02*
X63500000Y-70600000D01*
X63500000Y-70600000D02*
X65000000Y-69100000D01*
X59300000Y-66600000D02*
X56560000Y-63860000D01*
X56560000Y-63770000D02*
X56560000Y-63860000D01*
X78806300Y-71654100D02*
X78500000Y-71654100D01*
X75000000Y-70000000D02*
X75000000Y-70400000D01*
X75000000Y-70400000D02*
X76254100Y-71654100D01*
X76254100Y-71654100D02*
X78500000Y-71654100D01*
X85160000Y-70000000D02*
X84787781Y-70000000D01*
X84787781Y-70000000D02*
X83173700Y-71614081D01*
X83173700Y-71614081D02*
X83173700Y-71654100D01*
X54162500Y-86049100D02*
X53649900Y-86049100D01*
X54162500Y-86699100D02*
X53137200Y-86699100D01*
X52650700Y-85263500D02*
X53436300Y-86049100D01*
X52650700Y-76900000D02*
X52650700Y-85263500D01*
X53649900Y-86049100D02*
X53436300Y-86049100D01*
X53137200Y-86348200D02*
X53137200Y-86699100D01*
X53436300Y-86049100D02*
X53137200Y-86348200D01*
X52650700Y-74700000D02*
X52650700Y-76900000D01*
X57654200Y-62675800D02*
X56560000Y-63770000D01*
X70994300Y-62675800D02*
X57654200Y-62675800D01*
X76200600Y-67882100D02*
X73359250Y-65040750D01*
X73359250Y-65040750D02*
X70994300Y-62675800D01*
X77668400Y-67882100D02*
X76200600Y-67882100D01*
X78806300Y-69020000D02*
X77668400Y-67882100D01*
X78806300Y-71654100D02*
X78806300Y-69020000D01*
X51901600Y-73201800D02*
X52650700Y-73950900D01*
X51901600Y-68428400D02*
X51901600Y-73201800D01*
X56560000Y-63770000D02*
X51901600Y-68428400D01*
X52650700Y-74700000D02*
X52650700Y-73950900D01*
X83173700Y-78070000D02*
X86545100Y-81441400D01*
X83173700Y-71654100D02*
X83173700Y-73700000D01*
X83173700Y-73700000D02*
X83173700Y-78070000D01*
X78806300Y-71654100D02*
X83173700Y-71654100D01*
X118222200Y-93016100D02*
X119498600Y-91739700D01*
X61183900Y-93016100D02*
X118222200Y-93016100D01*
X58700000Y-95500000D02*
X61183900Y-93016100D01*
X57700000Y-72500000D02*
X54149300Y-72500000D01*
X106186000Y-65114700D02*
X112050000Y-59250100D01*
X95543000Y-65114700D02*
X106186000Y-65114700D01*
X94770000Y-64341700D02*
X95543000Y-65114700D01*
X94770000Y-63271000D02*
X94770000Y-64341700D01*
X93500000Y-62001000D02*
X94770000Y-63271000D01*
X145170000Y-57330000D02*
X145170000Y-56860000D01*
X144500000Y-58000000D02*
X145170000Y-57330000D01*
X145170000Y-56860000D02*
X144870000Y-56860000D01*
X138470000Y-56860000D02*
X138770000Y-56860000D01*
X138770000Y-57770000D02*
X139000000Y-58000000D01*
X138770000Y-56860000D02*
X138770000Y-57770000D01*
X111200000Y-58399900D02*
X111200000Y-58037200D01*
X112050000Y-59250100D02*
X111200000Y-58399900D01*
X111200000Y-58037200D02*
X111200000Y-57674600D01*
X111199900Y-58037100D02*
X111199900Y-56949300D01*
X111200000Y-58037200D02*
X111199900Y-58037100D01*
X125701000Y-55112700D02*
X125701000Y-54562500D01*
X125700900Y-55112600D02*
X125700900Y-54562500D01*
X125701000Y-55112700D02*
X125700900Y-55112600D01*
X127188000Y-57150000D02*
X125701000Y-55662900D01*
X127850000Y-57150000D02*
X127188000Y-57150000D01*
X128500000Y-56500000D02*
X127850000Y-57150000D01*
X134793000Y-56500000D02*
X128500000Y-56500000D01*
X137443000Y-59150000D02*
X134793000Y-56500000D01*
X142057000Y-59150000D02*
X137443000Y-59150000D01*
X143207000Y-58000000D02*
X142057000Y-59150000D01*
X144500000Y-58000000D02*
X143207000Y-58000000D01*
X125701000Y-55662900D02*
X125701000Y-55112700D01*
X112300000Y-59500000D02*
X112050000Y-59250100D01*
X122462000Y-59500000D02*
X112300000Y-59500000D01*
X125701000Y-56261100D02*
X122462000Y-59500000D01*
X125701000Y-55738300D02*
X125701000Y-56261100D01*
X125701000Y-55738300D02*
X125701000Y-55662900D01*
X75539700Y-60889500D02*
X74427100Y-62002100D01*
X79804200Y-60889500D02*
X75539700Y-60889500D01*
X80100100Y-61185400D02*
X79804200Y-60889500D01*
X91317700Y-61185400D02*
X80100100Y-61185400D01*
X91668300Y-60834800D02*
X91317700Y-61185400D01*
X94873800Y-60834800D02*
X91668300Y-60834800D01*
X96040000Y-62001000D02*
X94873800Y-60834800D01*
X100569000Y-62001000D02*
X96040000Y-62001000D01*
X102779000Y-59790700D02*
X100569000Y-62001000D01*
X102779000Y-58849100D02*
X102779000Y-59790700D01*
X106378000Y-55250200D02*
X102779000Y-58849100D01*
X111849000Y-55250200D02*
X106378000Y-55250200D01*
X112000000Y-55099300D02*
X111849000Y-55250200D01*
X141070000Y-55430000D02*
X141500000Y-55000000D01*
X141070000Y-56860000D02*
X141070000Y-55430000D01*
X142070000Y-55570000D02*
X142070000Y-56860000D01*
X141500000Y-55000000D02*
X142070000Y-55570000D01*
X127001000Y-53537100D02*
X127001000Y-53587500D01*
X128188000Y-52350000D02*
X127001000Y-53537100D01*
X128812000Y-52350000D02*
X128188000Y-52350000D01*
X129462000Y-53000000D02*
X128812000Y-52350000D01*
X130207000Y-53000000D02*
X129462000Y-53000000D01*
X131207000Y-54000000D02*
X130207000Y-53000000D01*
X140500000Y-54000000D02*
X131207000Y-54000000D01*
X141500000Y-55000000D02*
X140500000Y-54000000D01*
X112000000Y-54500000D02*
X112000000Y-55099300D01*
X113500000Y-53000000D02*
X112000000Y-54500000D01*
X126413000Y-53000000D02*
X113500000Y-53000000D01*
X127001000Y-53587500D02*
X126413000Y-53000000D01*
X112000000Y-55099300D02*
X112000000Y-56949300D01*
X127001000Y-53587500D02*
X127001000Y-53831200D01*
X127001000Y-53831200D02*
X127001000Y-54075000D01*
X127000900Y-53831300D02*
X127000900Y-54562500D01*
X127001000Y-53831200D02*
X127000900Y-53831300D01*
X128000000Y-56000000D02*
X127500000Y-56500000D01*
X128113000Y-56000000D02*
X128000000Y-56000000D01*
X126938000Y-117412000D02*
X126635000Y-117715000D01*
X126999000Y-117412000D02*
X126938000Y-117412000D01*
X140500000Y-116920000D02*
X141920000Y-115500000D01*
X140500000Y-117000000D02*
X140500000Y-116920000D01*
X133293000Y-117000000D02*
X140500000Y-117000000D01*
X132793000Y-117500000D02*
X133293000Y-117000000D01*
X129000000Y-117500000D02*
X132793000Y-117500000D01*
X128587000Y-117913000D02*
X129000000Y-117500000D01*
X127500000Y-117913000D02*
X128587000Y-117913000D01*
X126999000Y-117412000D02*
X127500000Y-117913000D01*
X141430000Y-115010000D02*
X141920000Y-115500000D01*
X141430000Y-114140000D02*
X141430000Y-115010000D01*
X141920000Y-115500000D02*
X142000000Y-115420000D01*
X141920000Y-115500000D02*
X142000000Y-115420000D01*
X142430000Y-115010000D02*
X142430000Y-114140000D01*
X142380000Y-115060000D02*
X142430000Y-115010000D01*
X142360000Y-115060000D02*
X142380000Y-115060000D01*
X142000000Y-115420000D02*
X142360000Y-115060000D01*
X126999000Y-116924000D02*
X126999000Y-116438000D01*
X112000000Y-115501000D02*
X112000000Y-114051000D01*
X112348000Y-115850000D02*
X112000000Y-115501000D01*
X114583000Y-115850000D02*
X112348000Y-115850000D01*
X114734000Y-116000000D02*
X114583000Y-115850000D01*
X121000000Y-116000000D02*
X114734000Y-116000000D01*
X122500000Y-117500000D02*
X121000000Y-116000000D01*
X126999000Y-116924000D02*
X126999000Y-117412000D01*
X126999000Y-116438000D02*
X126999000Y-116924000D01*
X141570000Y-58070000D02*
X142000000Y-58500000D01*
X141570000Y-56860000D02*
X141570000Y-58070000D01*
X142570000Y-57930000D02*
X142570000Y-56860000D01*
X142000000Y-58500000D02*
X142570000Y-57930000D01*
X127651000Y-55537500D02*
X127651000Y-55050000D01*
X128113000Y-56000000D02*
X127651000Y-55537500D01*
X135000000Y-56000000D02*
X128113000Y-56000000D01*
X137650000Y-58650000D02*
X135000000Y-56000000D01*
X139312000Y-58650000D02*
X137650000Y-58650000D01*
X139462000Y-58500000D02*
X139312000Y-58650000D01*
X142000000Y-58500000D02*
X139462000Y-58500000D01*
X126999000Y-116437500D02*
X126999100Y-116437500D01*
X126999000Y-116437000D02*
X126999000Y-116437500D01*
X126999000Y-116437500D02*
X126999000Y-116438000D01*
X127651000Y-54562600D02*
X127651000Y-55050000D01*
X127650900Y-54562500D02*
X127651000Y-54562600D01*
X112000000Y-114050700D02*
X112000000Y-114051000D01*
X112800000Y-58399900D02*
X112800000Y-57674600D01*
X113400000Y-59000000D02*
X112800000Y-58399900D01*
X122000000Y-59000000D02*
X113400000Y-59000000D01*
X124500000Y-56500000D02*
X122000000Y-59000000D01*
X112800000Y-57674600D02*
X112800000Y-56949300D01*
X112800100Y-57674500D02*
X112800100Y-56949300D01*
X112800000Y-57674600D02*
X112800100Y-57674500D01*
X76689500Y-107881000D02*
X75572900Y-108997900D01*
X92342300Y-107881000D02*
X76689500Y-107881000D01*
X93460000Y-108999000D02*
X92342300Y-107881000D01*
X75572900Y-108997900D02*
X75572900Y-108998000D01*
X91502100Y-62002100D02*
X78999100Y-62002100D01*
X93500000Y-64000000D02*
X91502100Y-62002100D01*
X128888000Y-53388400D02*
X128500000Y-53000000D01*
X128888000Y-53500000D02*
X128888000Y-53388400D01*
X139270000Y-56860000D02*
X139570000Y-56860000D01*
X139570000Y-56010000D02*
X139570000Y-56860000D01*
X139700000Y-55880000D02*
X139570000Y-56010000D01*
X139700000Y-55800000D02*
X139700000Y-55880000D01*
X140000000Y-55500000D02*
X139700000Y-55800000D01*
X144000000Y-56000000D02*
X143500000Y-55500000D01*
X144000000Y-56079000D02*
X144000000Y-56000000D01*
X144070000Y-56149000D02*
X144000000Y-56079000D01*
X144070000Y-56860000D02*
X144070000Y-56149000D01*
X144370000Y-56860000D02*
X144070000Y-56860000D01*
X138630000Y-113370000D02*
X138630000Y-114140000D01*
X139000000Y-113000000D02*
X138630000Y-113370000D01*
X145030000Y-113530000D02*
X144500000Y-113000000D01*
X145030000Y-114140000D02*
X145030000Y-113530000D01*
X145030000Y-114140000D02*
X144730000Y-114140000D01*
X138330000Y-114140000D02*
X138630000Y-114140000D01*
X128299000Y-115449000D02*
X128299000Y-115962000D01*
X128000000Y-115150000D02*
X128299000Y-115449000D01*
X137000000Y-113000000D02*
X139000000Y-113000000D01*
X135000000Y-115000000D02*
X137000000Y-113000000D01*
X129262000Y-115000000D02*
X135000000Y-115000000D01*
X128299000Y-115962000D02*
X129262000Y-115000000D01*
X112800000Y-112600000D02*
X112800000Y-113326000D01*
X113400000Y-112000000D02*
X112800000Y-112600000D01*
X122000000Y-112000000D02*
X113400000Y-112000000D01*
X125000000Y-115000000D02*
X122000000Y-112000000D01*
X130000000Y-53500000D02*
X128888000Y-53500000D01*
X131000000Y-54500000D02*
X130000000Y-53500000D01*
X139000000Y-54500000D02*
X131000000Y-54500000D01*
X140000000Y-55500000D02*
X139000000Y-54500000D01*
X128301000Y-54087500D02*
X128301000Y-54206200D01*
X128888000Y-53500000D02*
X128301000Y-54087500D01*
X128301000Y-54206200D02*
X128301000Y-54325000D01*
X128300900Y-54206300D02*
X128300900Y-54562500D01*
X128301000Y-54206200D02*
X128300900Y-54206300D01*
X112800000Y-114050600D02*
X112800000Y-113326000D01*
X112800100Y-114050700D02*
X112800000Y-114050600D01*
X128299000Y-116438000D02*
X128299000Y-116200000D01*
X128299000Y-116200000D02*
X128299000Y-115962000D01*
X128299100Y-116200100D02*
X128299100Y-116437500D01*
X128299000Y-116200000D02*
X128299100Y-116200100D01*
X113600000Y-56048900D02*
X113600000Y-56274000D01*
X114499000Y-55150500D02*
X113600000Y-56048900D01*
X121850000Y-55150500D02*
X114499000Y-55150500D01*
X123000000Y-54000000D02*
X121850000Y-55150500D01*
X113600000Y-56274000D02*
X113600000Y-56499100D01*
X113600200Y-56274200D02*
X113600200Y-56949300D01*
X113600000Y-56274000D02*
X113600200Y-56274200D01*
X78113000Y-108998000D02*
X78112900Y-108998000D01*
X90920400Y-108998000D02*
X78113000Y-108998000D01*
X92041000Y-110118000D02*
X90920400Y-108998000D01*
X94880500Y-110118000D02*
X92041000Y-110118000D01*
X96000000Y-108999000D02*
X94880500Y-110118000D01*
X78113000Y-108998000D02*
X78112900Y-108997900D01*
X82555100Y-59335100D02*
X68839100Y-59335100D01*
X88770500Y-59301000D02*
X100769500Y-59301000D01*
X100769500Y-59301000D02*
X100770000Y-59301000D01*
X130500900Y-51862500D02*
X130501000Y-51862500D01*
X129251000Y-51862500D02*
X130500900Y-51862500D01*
X129192000Y-51804100D02*
X129251000Y-51862500D01*
X124810000Y-51804100D02*
X129192000Y-51804100D01*
X124751000Y-51862500D02*
X124810000Y-51804100D01*
X123501000Y-51862500D02*
X124751000Y-51862500D01*
X123501000Y-51862500D02*
X123500900Y-51862500D01*
X139430000Y-114930000D02*
X139430000Y-114140000D01*
X140000000Y-115500000D02*
X139430000Y-114930000D01*
X143895000Y-115105000D02*
X143500000Y-115500000D01*
X143895000Y-114886000D02*
X143895000Y-115105000D01*
X143930000Y-114851000D02*
X143895000Y-114886000D01*
X143930000Y-114140000D02*
X143930000Y-114851000D01*
X143930000Y-114140000D02*
X144230000Y-114140000D01*
X139130000Y-114140000D02*
X139430000Y-114140000D01*
X126500000Y-118500000D02*
X125699000Y-117699000D01*
X129000000Y-118500000D02*
X126500000Y-118500000D01*
X129500000Y-118000000D02*
X129000000Y-118500000D01*
X133000000Y-118000000D02*
X129500000Y-118000000D01*
X133500000Y-117500000D02*
X133000000Y-118000000D01*
X141500000Y-117500000D02*
X133500000Y-117500000D01*
X143500000Y-115500000D02*
X141500000Y-117500000D01*
X125699000Y-117068000D02*
X125699000Y-116438000D01*
X97158000Y-108158000D02*
X97158000Y-109487000D01*
X96000000Y-107000000D02*
X97158000Y-108158000D01*
X125699000Y-117699000D02*
X125699000Y-117068000D01*
X125699000Y-117068000D02*
X125699000Y-116438000D01*
X125699000Y-116437500D02*
X125699100Y-116437500D01*
X125699000Y-116438000D02*
X125699000Y-116437500D01*
X125699000Y-116437500D02*
X125699000Y-116437000D01*
X63197900Y-108997900D02*
X71000900Y-108997900D01*
X54500000Y-100300000D02*
X63197900Y-108997900D01*
X71000900Y-108998000D02*
X71000900Y-108997900D01*
X72129600Y-110127000D02*
X71000900Y-108998000D01*
X79258900Y-110127000D02*
X72129600Y-110127000D01*
X79586900Y-109799000D02*
X79258900Y-110127000D01*
X89739900Y-109799000D02*
X79586900Y-109799000D01*
X90560200Y-110619000D02*
X89739900Y-109799000D01*
X96025900Y-110619000D02*
X90560200Y-110619000D01*
X97158000Y-109487000D02*
X96025900Y-110619000D01*
X110400000Y-112550000D02*
X110400000Y-114225000D01*
X107337000Y-109487000D02*
X110400000Y-112550000D01*
X97158000Y-109487000D02*
X107337000Y-109487000D01*
X123263000Y-117699000D02*
X125699000Y-117699000D01*
X122812000Y-118150000D02*
X123263000Y-117699000D01*
X122150000Y-118150000D02*
X122812000Y-118150000D01*
X121449000Y-117449000D02*
X122150000Y-118150000D01*
X111949000Y-117449000D02*
X121449000Y-117449000D01*
X110400000Y-115900000D02*
X111949000Y-117449000D01*
X110400000Y-114225000D02*
X110400000Y-115900000D01*
X110399800Y-114224800D02*
X110399800Y-114050700D01*
X110400000Y-114225000D02*
X110399800Y-114224800D01*
X140930000Y-113290000D02*
X140930000Y-113500000D01*
X140930000Y-113070000D02*
X140930000Y-113290000D01*
X141500000Y-112500000D02*
X140930000Y-113070000D01*
X141930000Y-112930000D02*
X141500000Y-112500000D01*
X141930000Y-114140000D02*
X141930000Y-112930000D01*
X134793000Y-114500000D02*
X127000000Y-114500000D01*
X137293000Y-112000000D02*
X134793000Y-114500000D01*
X141000000Y-112000000D02*
X137293000Y-112000000D01*
X141500000Y-112500000D02*
X141000000Y-112000000D01*
X111200000Y-112600000D02*
X111200000Y-113326000D01*
X111242000Y-112558000D02*
X111200000Y-112600000D01*
X112300000Y-111500000D02*
X111242000Y-112558000D01*
X124000000Y-111500000D02*
X112300000Y-111500000D01*
X127000000Y-114500000D02*
X124000000Y-111500000D01*
X94577700Y-105882000D02*
X93460000Y-107000000D01*
X104566000Y-105882000D02*
X94577700Y-105882000D01*
X111242000Y-112558000D02*
X104566000Y-105882000D01*
X140930000Y-114140000D02*
X140930000Y-113500000D01*
X140930000Y-113500000D02*
X140930000Y-113290000D01*
X74131600Y-108407300D02*
X73540900Y-108998000D01*
X74131500Y-108407300D02*
X73540900Y-108997900D01*
X74131600Y-108407300D02*
X74131500Y-108407300D01*
X75538800Y-107000000D02*
X74131600Y-108407300D01*
X93460000Y-107000000D02*
X75538800Y-107000000D01*
X111200000Y-114050600D02*
X111200000Y-113326000D01*
X111199900Y-114050700D02*
X111200000Y-114050600D01*
X126349000Y-116438000D02*
X126349000Y-115794500D01*
X126349000Y-115151000D02*
X127000000Y-114500000D01*
X126349000Y-115794500D02*
X126349000Y-115151000D01*
X126349100Y-115794600D02*
X126349100Y-116437500D01*
X126349000Y-115794500D02*
X126349100Y-115794600D01*
X123499000Y-119138000D02*
X123499600Y-119138000D01*
X123499600Y-119138000D02*
X123499100Y-119137500D01*
X123499600Y-119138000D02*
X130499000Y-119138000D01*
X130499000Y-119137600D02*
X130499000Y-119138000D01*
X130499100Y-119137500D02*
X130499000Y-119137600D01*
X81160800Y-111665000D02*
X81160900Y-111665000D01*
X81160800Y-111665000D02*
X81160900Y-111664900D01*
X67444900Y-111665000D02*
X67445000Y-111665000D01*
X67445000Y-111665000D02*
X81160800Y-111665000D01*
X67445000Y-111665000D02*
X67444900Y-111664900D01*
X100730000Y-111699000D02*
X100729500Y-111699000D01*
X100729500Y-111699000D02*
X88730500Y-111699000D01*
X57700000Y-70400000D02*
X54149300Y-70400000D01*
X73580400Y-85306200D02*
X81131700Y-85306200D01*
X73172000Y-84897800D02*
X73580400Y-85306200D01*
X107105100Y-86610500D02*
X98017100Y-86610500D01*
X95676200Y-86610500D02*
X95492300Y-86794400D01*
X98017100Y-86610500D02*
X95676200Y-86610500D01*
D34*
X52650700Y-72500000D02*
X52650700Y-71700900D01*
X52650700Y-70400000D02*
X52650700Y-71700900D01*
X54162500Y-84099100D02*
X55237800Y-84099100D01*
X61640000Y-63770000D02*
X61640000Y-67491200D01*
X75031200Y-67491200D02*
X61640000Y-67491200D01*
X77540000Y-70000000D02*
X75031200Y-67491200D01*
X53502900Y-69547800D02*
X52650700Y-70400000D01*
X58899600Y-69547800D02*
X53502900Y-69547800D01*
X60956200Y-67491200D02*
X61640000Y-67491200D01*
X58899600Y-69547800D02*
X60956200Y-67491200D01*
X58899600Y-76449600D02*
X58899600Y-69547800D01*
X59350000Y-76900000D02*
X58899600Y-76449600D01*
X59900000Y-76900000D02*
X59350000Y-76900000D01*
X59350000Y-79986900D02*
X55237800Y-84099100D01*
X59350000Y-76900000D02*
X59350000Y-79986900D01*
X99815500Y-80744500D02*
X95505800Y-80744500D01*
X110560000Y-70000000D02*
X99815500Y-80744500D01*
D33*
X70291700Y-87138700D02*
X66449200Y-83296200D01*
X80633200Y-87138700D02*
X70291700Y-87138700D01*
X66108900Y-72299500D02*
X65467400Y-71658000D01*
X72311000Y-72299500D02*
X66108900Y-72299500D01*
X86100600Y-86089100D02*
X72311000Y-72299500D01*
X86100600Y-87592800D02*
X86100600Y-86089100D01*
X85642400Y-88051000D02*
X86100600Y-87592800D01*
X70000800Y-85912500D02*
X65771700Y-81683400D01*
X80410800Y-85912500D02*
X70000800Y-85912500D01*
X83448200Y-88949900D02*
X80410800Y-85912500D01*
X84601000Y-88949900D02*
X83448200Y-88949900D01*
X70148300Y-87914900D02*
X81123200Y-87914900D01*
X62389300Y-80155900D02*
X70148300Y-87914900D01*
X62389300Y-79926800D02*
X62389300Y-80155900D01*
X82808600Y-89600300D02*
X81123200Y-87914900D01*
X85942700Y-89600300D02*
X82808600Y-89600300D01*
X91750700Y-83792300D02*
X85942700Y-89600300D01*
X122167100Y-83792300D02*
X91750700Y-83792300D01*
X140580000Y-65379400D02*
X122167100Y-83792300D01*
X140580000Y-64761000D02*
X140580000Y-65379400D01*
X58500600Y-84749100D02*
X54162500Y-84749100D01*
X59049700Y-84200000D02*
X58500600Y-84749100D01*
X60000000Y-84200000D02*
X59049700Y-84200000D01*
X56400000Y-85399100D02*
X54162500Y-85399100D01*
X60000000Y-86300000D02*
X59100000Y-86300000D01*
X59100000Y-86300000D02*
X58199100Y-85399100D01*
X58199100Y-85399100D02*
X56400000Y-85399100D01*
X57700000Y-74700000D02*
X54149300Y-74700000D01*
X57700000Y-76900000D02*
X54149300Y-76900000D01*
X80080000Y-70000000D02*
X80080000Y-69600000D01*
X111843800Y-68343800D02*
X113100000Y-69600000D01*
X80080000Y-69600000D02*
X81336200Y-68343800D01*
X81336200Y-68343800D02*
X111843800Y-68343800D01*
X113100000Y-69600000D02*
X113100000Y-70000000D01*
X87700000Y-70000000D02*
X87700000Y-73140100D01*
X87700000Y-73140100D02*
X90258400Y-75698500D01*
X89406800Y-76834400D02*
X93000000Y-76834400D01*
X100400000Y-70000000D02*
X100400000Y-70400000D01*
X100400000Y-70400000D02*
X93965600Y-76834400D01*
X93965600Y-76834400D02*
X93000000Y-76834400D01*
X102940000Y-70000000D02*
X102940000Y-70400000D01*
X105540000Y-73000000D02*
X105540000Y-73535050D01*
X99731250Y-79343800D02*
X90481900Y-79343800D01*
X102940000Y-70400000D02*
X105540000Y-73000000D01*
X88021100Y-81804600D02*
X88021100Y-85057500D01*
X105540000Y-73535050D02*
X99731250Y-79343800D01*
X90481900Y-79343800D02*
X88021100Y-81804600D01*
X105480000Y-70000000D02*
X105480000Y-70400000D01*
X105480000Y-70400000D02*
X107000000Y-71920000D01*
X88681300Y-85931800D02*
X85911800Y-88701300D01*
X107000000Y-71920000D02*
X107000000Y-72782170D01*
X107000000Y-72782170D02*
X99688070Y-80094100D01*
X99688070Y-80094100D02*
X90439100Y-80094100D01*
X90439100Y-80094100D02*
X88521400Y-82011800D01*
X88521400Y-82011800D02*
X88521400Y-83307600D01*
X88521400Y-83307600D02*
X88681300Y-83467500D01*
X88681300Y-83467500D02*
X88681300Y-85931800D01*
X85373100Y-88701300D02*
X84971400Y-88299600D01*
X85911800Y-88701300D02*
X85373100Y-88701300D01*
X84971400Y-88299600D02*
X83950600Y-88299600D01*
X92020300Y-81771600D02*
X92160800Y-81912100D01*
X92160800Y-81912100D02*
X122187900Y-81912100D01*
X122187900Y-81912100D02*
X124100000Y-80000000D01*
X124100000Y-80000000D02*
X125252280Y-80000000D01*
X125252280Y-80000000D02*
X138040000Y-67212280D01*
X138040000Y-67212280D02*
X138040000Y-64639040D01*
X140380000Y-106560960D02*
X138419040Y-104600000D01*
X138419040Y-104600000D02*
X134753240Y-104600000D01*
X134753240Y-104600000D02*
X119653240Y-89500000D01*
X119653240Y-89500000D02*
X96593800Y-89500000D01*
X96593800Y-89500000D02*
X91938000Y-84844200D01*
X59900000Y-74700000D02*
X59900000Y-75500300D01*
X60100100Y-75500300D02*
X59900000Y-75500300D01*
X61607400Y-77007600D02*
X60100100Y-75500300D01*
X61607400Y-80081500D02*
X61607400Y-77007600D01*
X71626600Y-90100700D02*
X61607400Y-80081500D01*
X86681500Y-90100700D02*
X71626600Y-90100700D01*
X91938000Y-84844200D02*
X86681500Y-90100700D01*
X91997800Y-86138400D02*
X93659400Y-87800000D01*
X119500000Y-90053880D02*
X95913280Y-90053880D01*
X95913280Y-90053880D02*
X93659400Y-87800000D01*
X136500960Y-105100000D02*
X134546120Y-105100000D01*
X134546120Y-105100000D02*
X119500000Y-90053880D01*
X137840000Y-106439040D02*
X136500960Y-105100000D01*
X95262100Y-90594100D02*
X92485300Y-87817300D01*
X119333100Y-90594100D02*
X95262100Y-90594100D01*
X135300000Y-106561000D02*
X119333100Y-90594100D01*
X59900000Y-70400000D02*
X59900000Y-71200300D01*
X85417400Y-86189500D02*
X85417400Y-87123700D01*
X72027800Y-72799900D02*
X85417400Y-86189500D01*
X62299900Y-72799900D02*
X72027800Y-72799900D01*
X60700300Y-71200300D02*
X62299900Y-72799900D01*
X59900000Y-71200300D02*
X60700300Y-71200300D01*
X59900000Y-72500000D02*
X59900000Y-73300300D01*
X71534700Y-73300300D02*
X80217100Y-81982700D01*
X59900000Y-73300300D02*
X71534700Y-73300300D01*
X62200000Y-86300000D02*
X66400000Y-86300000D01*
X66400000Y-86300000D02*
X70100000Y-90000000D01*
X71212770Y-91101110D02*
X88398610Y-91101110D01*
X70100000Y-90000000D02*
X70111660Y-90000000D01*
X70111660Y-90000000D02*
X71212770Y-91101110D01*
X88398610Y-91101110D02*
X89575000Y-92277500D01*
X62200000Y-84200000D02*
X65000000Y-84200000D01*
X65000000Y-84200000D02*
X66700000Y-85900000D01*
X66700000Y-85900000D02*
X66718780Y-85900000D01*
X66718780Y-85900000D02*
X71419880Y-90601100D01*
X71419880Y-90601100D02*
X89217800Y-90601100D01*
X89217800Y-90601100D02*
X90074800Y-89744100D01*
X122589400Y-82450300D02*
X124242500Y-80797200D01*
X89711400Y-82450300D02*
X122589400Y-82450300D01*
X89375500Y-83125300D02*
X95052500Y-83125300D01*
X89021700Y-82771500D02*
X89375500Y-83125300D01*
X89021700Y-82219000D02*
X89021700Y-82771500D01*
X90143800Y-81096900D02*
X89021700Y-82219000D01*
X92854600Y-81096900D02*
X90143800Y-81096900D01*
X93169500Y-81411800D02*
X92854600Y-81096900D01*
X111107200Y-81411800D02*
X93169500Y-81411800D01*
X127880000Y-64639000D02*
X111107200Y-81411800D01*
D35*
G36*
X105902990Y-52600840D02*
X105947268Y-52836157D01*
X106086340Y-53052281D01*
X106298540Y-53197271D01*
X106550430Y-53248280D01*
X108549410Y-53248280D01*
X108784727Y-53204002D01*
X109000851Y-53064930D01*
X109145841Y-52852730D01*
X109196850Y-52600840D01*
X109196850Y-50710000D01*
X114803150Y-50710000D01*
X114803150Y-52215000D01*
X113500000Y-52215000D01*
X113199593Y-52274755D01*
X112944921Y-52444921D01*
X111444921Y-53944921D01*
X111274755Y-54199593D01*
X111237621Y-54386279D01*
X111221922Y-54465200D01*
X110884840Y-54465200D01*
X110885128Y-54136110D01*
X110720358Y-53737337D01*
X110415527Y-53431974D01*
X110017043Y-53266509D01*
X109585570Y-53266132D01*
X109186797Y-53430902D01*
X108881434Y-53735733D01*
X108715969Y-54134217D01*
X108715680Y-54465200D01*
X106378000Y-54465200D01*
X106228584Y-54494921D01*
X106077604Y-54524951D01*
X106077600Y-54524954D01*
X106077594Y-54524955D01*
X105971857Y-54595606D01*
X105822929Y-54695113D01*
X102396633Y-58121314D01*
X101895366Y-57619171D01*
X101166055Y-57316335D01*
X100376369Y-57315646D01*
X99646531Y-57617209D01*
X99087651Y-58175114D01*
X98946103Y-58516000D01*
X90593949Y-58516000D01*
X90454311Y-58178051D01*
X89896406Y-57619171D01*
X89167095Y-57316335D01*
X88377409Y-57315646D01*
X87647571Y-57617209D01*
X87088691Y-58175114D01*
X86785855Y-58904425D01*
X86785166Y-59694111D01*
X87076999Y-60400400D01*
X84424401Y-60400400D01*
X84689639Y-59761635D01*
X84690380Y-58912331D01*
X84366050Y-58127393D01*
X83766026Y-57526320D01*
X82981655Y-57200621D01*
X82132351Y-57199880D01*
X81347413Y-57524210D01*
X80746340Y-58124234D01*
X80569505Y-58550100D01*
X70824709Y-58550100D01*
X70650050Y-58127393D01*
X70050026Y-57526320D01*
X69265655Y-57200621D01*
X68416351Y-57199880D01*
X67631413Y-57524210D01*
X67030340Y-58124234D01*
X66704641Y-58908605D01*
X66703900Y-59757909D01*
X67028230Y-60542847D01*
X67628254Y-61143920D01*
X68412625Y-61469619D01*
X69261929Y-61470360D01*
X70046867Y-61146030D01*
X70647940Y-60546006D01*
X70824791Y-60120100D01*
X75461274Y-60120100D01*
X75239293Y-60164255D01*
X74984621Y-60334421D01*
X74702252Y-60616790D01*
X74152742Y-60616310D01*
X73643303Y-60826806D01*
X73253196Y-61216233D01*
X73157165Y-61447501D01*
X73062454Y-61218283D01*
X72673027Y-60828176D01*
X72163956Y-60616791D01*
X71612742Y-60616310D01*
X71103303Y-60826806D01*
X70713196Y-61216233D01*
X70501811Y-61725304D01*
X70501330Y-62276518D01*
X70711826Y-62785957D01*
X71101253Y-63176064D01*
X71610324Y-63387449D01*
X72161538Y-63387930D01*
X72670977Y-63177434D01*
X73061084Y-62788007D01*
X73157115Y-62556739D01*
X73251826Y-62785957D01*
X73641253Y-63176064D01*
X74150324Y-63387449D01*
X74701538Y-63387930D01*
X75210977Y-63177434D01*
X75443203Y-62945613D01*
X75673253Y-63176064D01*
X76182324Y-63387449D01*
X76733538Y-63387930D01*
X77242977Y-63177434D01*
X77633084Y-62788007D01*
X77729115Y-62556739D01*
X77823826Y-62785957D01*
X78213253Y-63176064D01*
X78722324Y-63387449D01*
X79273538Y-63387930D01*
X79782977Y-63177434D01*
X80173084Y-62788007D01*
X80173461Y-62787100D01*
X91176942Y-62787100D01*
X92105443Y-63715601D01*
X92103243Y-63720900D01*
X92102758Y-64276661D01*
X92314990Y-64790303D01*
X92707630Y-65183629D01*
X93220900Y-65396757D01*
X93776661Y-65397242D01*
X94290303Y-65185010D01*
X94396820Y-65078678D01*
X94987921Y-65669779D01*
X95242593Y-65839945D01*
X95543000Y-65899700D01*
X106186000Y-65899700D01*
X106186020Y-65899696D01*
X106186040Y-65899700D01*
X106331802Y-65870698D01*
X106486406Y-65839945D01*
X106486424Y-65839933D01*
X106486444Y-65839929D01*
X106607950Y-65758733D01*
X106741079Y-65669779D01*
X106741091Y-65669760D01*
X106741107Y-65669750D01*
X112154287Y-60256016D01*
X112300000Y-60285000D01*
X122462000Y-60285000D01*
X122632761Y-60251033D01*
X122762395Y-60225249D01*
X122762399Y-60225246D01*
X122762406Y-60225245D01*
X122922268Y-60118429D01*
X123017070Y-60055087D01*
X123017076Y-60055081D01*
X123017079Y-60055079D01*
X123017081Y-60055076D01*
X126000067Y-57072182D01*
X126632902Y-57705060D01*
X126632913Y-57705068D01*
X126632921Y-57705079D01*
X126766601Y-57794400D01*
X126887569Y-57875234D01*
X126887581Y-57875236D01*
X126887594Y-57875245D01*
X127046422Y-57906838D01*
X127187973Y-57935000D01*
X127187987Y-57934997D01*
X127188000Y-57935000D01*
X127850000Y-57935000D01*
X128150407Y-57875245D01*
X128405079Y-57705079D01*
X128825158Y-57285000D01*
X134467842Y-57285000D01*
X136887921Y-59705079D01*
X137142594Y-59875245D01*
X137443000Y-59935000D01*
X142057000Y-59935000D01*
X142357407Y-59875245D01*
X142612079Y-59705079D01*
X143532158Y-58785000D01*
X143962494Y-58785000D01*
X143969673Y-58792192D01*
X144313201Y-58934838D01*
X144685167Y-58935162D01*
X145028943Y-58793117D01*
X145292192Y-58530327D01*
X145434838Y-58186799D01*
X145434848Y-58175310D01*
X145616125Y-57994033D01*
X145723233Y-57925111D01*
X146140000Y-58008011D01*
X146574346Y-57921614D01*
X146942566Y-57675577D01*
X147188603Y-57307357D01*
X147275000Y-56873011D01*
X147275000Y-55706989D01*
X147188603Y-55272643D01*
X146942566Y-54904423D01*
X146574346Y-54658386D01*
X146140000Y-54571989D01*
X145705654Y-54658386D01*
X145337434Y-54904423D01*
X145275283Y-54997438D01*
X145254507Y-54976626D01*
X144901794Y-54830167D01*
X144519882Y-54829833D01*
X144259528Y-54937409D01*
X144030327Y-54707808D01*
X143686799Y-54565162D01*
X143314833Y-54564838D01*
X142971057Y-54706883D01*
X142707808Y-54969673D01*
X142664513Y-55073938D01*
X142625079Y-55014921D01*
X141055079Y-53444921D01*
X140800407Y-53274755D01*
X140500000Y-53215000D01*
X138387851Y-53215000D01*
X138548603Y-52974418D01*
X138635000Y-52540072D01*
X138635000Y-51679928D01*
X138548603Y-51245582D01*
X138302566Y-50877362D01*
X138052091Y-50710000D01*
X145587909Y-50710000D01*
X145337434Y-50877362D01*
X145091397Y-51245582D01*
X145005000Y-51679928D01*
X145005000Y-52540072D01*
X145091397Y-52974418D01*
X145337434Y-53342638D01*
X145705654Y-53588675D01*
X146140000Y-53675072D01*
X146574346Y-53588675D01*
X146942566Y-53342638D01*
X147188603Y-52974418D01*
X147275000Y-52540072D01*
X147275000Y-51679928D01*
X147188603Y-51245582D01*
X146942566Y-50877362D01*
X146692091Y-50710000D01*
X149290000Y-50710000D01*
X149290000Y-120290000D01*
X146552091Y-120290000D01*
X146802566Y-120122638D01*
X147048603Y-119754418D01*
X147135000Y-119320072D01*
X147135000Y-118459928D01*
X147048603Y-118025582D01*
X146802566Y-117657362D01*
X146434346Y-117411325D01*
X146000000Y-117324928D01*
X145565654Y-117411325D01*
X145197434Y-117657362D01*
X144951397Y-118025582D01*
X144865000Y-118459928D01*
X144865000Y-119320072D01*
X144951397Y-119754418D01*
X145197434Y-120122638D01*
X145447909Y-120290000D01*
X137912091Y-120290000D01*
X138162566Y-120122638D01*
X138408603Y-119754418D01*
X138495000Y-119320072D01*
X138495000Y-118459928D01*
X138460205Y-118285000D01*
X141500000Y-118285000D01*
X141800407Y-118225245D01*
X142055079Y-118055079D01*
X143675005Y-116435153D01*
X143685167Y-116435162D01*
X144028943Y-116293117D01*
X144218764Y-116103627D01*
X144378206Y-116169833D01*
X144760118Y-116170167D01*
X145113086Y-116024323D01*
X145135124Y-116002324D01*
X145197434Y-116095577D01*
X145565654Y-116341614D01*
X146000000Y-116428011D01*
X146434346Y-116341614D01*
X146802566Y-116095577D01*
X147048603Y-115727357D01*
X147135000Y-115293011D01*
X147135000Y-114126989D01*
X147048603Y-113692643D01*
X146802566Y-113324423D01*
X146434346Y-113078386D01*
X146000000Y-112991989D01*
X145643823Y-113062837D01*
X145585079Y-112974921D01*
X145435153Y-112824995D01*
X145435162Y-112814833D01*
X145293117Y-112471057D01*
X145030327Y-112207808D01*
X144686799Y-112065162D01*
X144314833Y-112064838D01*
X143971057Y-112206883D01*
X143707808Y-112469673D01*
X143565162Y-112813201D01*
X143565067Y-112922560D01*
X143280000Y-112922560D01*
X143176329Y-112942067D01*
X143080000Y-112922560D01*
X142780000Y-112922560D01*
X142715000Y-112934791D01*
X142715000Y-112930000D01*
X142655245Y-112629594D01*
X142485079Y-112374921D01*
X141555079Y-111444921D01*
X141300407Y-111274755D01*
X141000000Y-111215000D01*
X137293000Y-111215000D01*
X136992594Y-111274755D01*
X136737921Y-111444921D01*
X134467842Y-113715000D01*
X127325158Y-113715000D01*
X124555079Y-110944921D01*
X124300407Y-110774755D01*
X124000000Y-110715000D01*
X112300000Y-110715000D01*
X111999593Y-110774755D01*
X111744921Y-110944921D01*
X111242000Y-111447842D01*
X105121079Y-105326921D01*
X104866407Y-105156755D01*
X104566000Y-105097000D01*
X94577700Y-105097000D01*
X94577648Y-105097010D01*
X94577595Y-105097000D01*
X94426018Y-105127172D01*
X94277294Y-105156755D01*
X94277250Y-105156784D01*
X94277196Y-105156795D01*
X94147515Y-105243470D01*
X94022621Y-105326921D01*
X94022591Y-105326965D01*
X94022547Y-105326995D01*
X93744240Y-105605377D01*
X93739100Y-105603243D01*
X93183339Y-105602758D01*
X92669697Y-105814990D01*
X92276371Y-106207630D01*
X92273311Y-106215000D01*
X75538800Y-106215000D01*
X75538786Y-106215003D01*
X75538772Y-106215000D01*
X75391978Y-106244205D01*
X75238394Y-106274755D01*
X75238382Y-106274763D01*
X75238368Y-106274766D01*
X75113618Y-106358127D01*
X74983721Y-106444921D01*
X74983713Y-106444933D01*
X74983701Y-106444941D01*
X73816175Y-107612550D01*
X73266462Y-107612070D01*
X72757023Y-107822566D01*
X72366916Y-108211993D01*
X72270885Y-108443261D01*
X72176174Y-108214043D01*
X71786747Y-107823936D01*
X71277676Y-107612551D01*
X70726462Y-107612070D01*
X70217023Y-107822566D01*
X69826916Y-108211993D01*
X69826539Y-108212900D01*
X63523058Y-108212900D01*
X57832296Y-102522138D01*
X58223513Y-102684585D01*
X59172325Y-102685413D01*
X60049229Y-102323084D01*
X60720726Y-101652758D01*
X60799745Y-101462460D01*
X60876916Y-101649229D01*
X61547242Y-102320726D01*
X62423513Y-102684585D01*
X63372325Y-102685413D01*
X64249229Y-102323084D01*
X64920726Y-101652758D01*
X65015915Y-101423515D01*
X67365530Y-101423515D01*
X67689880Y-102208500D01*
X68289941Y-102809609D01*
X69074359Y-103135328D01*
X69923715Y-103136070D01*
X70708700Y-102811720D01*
X71309809Y-102211659D01*
X71635528Y-101427241D01*
X71636270Y-100577885D01*
X71311920Y-99792900D01*
X70711859Y-99191791D01*
X69927441Y-98866072D01*
X69078085Y-98865330D01*
X68293100Y-99189680D01*
X67691991Y-99789741D01*
X67366272Y-100574159D01*
X67365530Y-101423515D01*
X65015915Y-101423515D01*
X65284585Y-100776487D01*
X65285413Y-99827675D01*
X64923084Y-98950771D01*
X64252758Y-98279274D01*
X63376487Y-97915415D01*
X62427675Y-97914587D01*
X61550771Y-98276916D01*
X60879274Y-98947242D01*
X60800255Y-99137540D01*
X60723084Y-98950771D01*
X60052758Y-98279274D01*
X59176487Y-97915415D01*
X58227675Y-97914587D01*
X57350771Y-98276916D01*
X56679274Y-98947242D01*
X56600255Y-99137540D01*
X56523084Y-98950771D01*
X55852758Y-98279274D01*
X54976487Y-97915415D01*
X54027675Y-97914587D01*
X53150771Y-98276916D01*
X52479274Y-98947242D01*
X52115415Y-99823513D01*
X52114587Y-100772325D01*
X52476916Y-101649229D01*
X53147242Y-102320726D01*
X54023513Y-102684585D01*
X54972325Y-102685413D01*
X55540493Y-102450651D01*
X62642821Y-109552979D01*
X62897493Y-109723145D01*
X63197900Y-109782900D01*
X66409135Y-109782900D01*
X66237133Y-109853970D01*
X65636060Y-110453994D01*
X65310361Y-111238365D01*
X65309620Y-112087669D01*
X65633950Y-112872607D01*
X66233974Y-113473680D01*
X67018345Y-113799379D01*
X67867649Y-113800120D01*
X68652587Y-113475790D01*
X69253660Y-112875766D01*
X69430453Y-112450000D01*
X79175332Y-112450000D01*
X79349950Y-112872607D01*
X79949974Y-113473680D01*
X80734345Y-113799379D01*
X81583649Y-113800120D01*
X82368587Y-113475790D01*
X82969660Y-112875766D01*
X83295359Y-112091395D01*
X83296100Y-111242091D01*
X83024182Y-110584000D01*
X87044171Y-110584000D01*
X86745855Y-111302425D01*
X86745166Y-112092111D01*
X87046729Y-112821949D01*
X87604634Y-113380829D01*
X88333945Y-113683665D01*
X89123631Y-113684354D01*
X89853469Y-113382791D01*
X90412349Y-112824886D01*
X90553897Y-112484000D01*
X98906051Y-112484000D01*
X99045689Y-112821949D01*
X99603594Y-113380829D01*
X100332905Y-113683665D01*
X101122591Y-113684354D01*
X101852429Y-113382791D01*
X102336003Y-112900060D01*
X105902990Y-112900060D01*
X105902990Y-115399420D01*
X105947268Y-115634737D01*
X106086340Y-115850861D01*
X106298540Y-115995851D01*
X106550430Y-116046860D01*
X108549410Y-116046860D01*
X108784727Y-116002582D01*
X109000851Y-115863510D01*
X109145841Y-115651310D01*
X109196850Y-115399420D01*
X109196850Y-112900060D01*
X109152572Y-112664743D01*
X109013500Y-112448619D01*
X108801300Y-112303629D01*
X108549410Y-112252620D01*
X106550430Y-112252620D01*
X106315113Y-112296898D01*
X106098989Y-112435970D01*
X105953999Y-112648170D01*
X105902990Y-112900060D01*
X102336003Y-112900060D01*
X102411309Y-112824886D01*
X102714145Y-112095575D01*
X102714834Y-111305889D01*
X102413271Y-110576051D01*
X102109750Y-110272000D01*
X107011842Y-110272000D01*
X109525364Y-112785522D01*
X109502170Y-112900060D01*
X109502170Y-115201300D01*
X109546448Y-115436617D01*
X109615000Y-115543150D01*
X109615000Y-115564358D01*
X109585570Y-115564332D01*
X109186797Y-115729102D01*
X108881434Y-116033933D01*
X108715969Y-116432417D01*
X108715592Y-116863890D01*
X108880362Y-117262663D01*
X109185193Y-117568026D01*
X109583677Y-117733491D01*
X110015150Y-117733868D01*
X110413923Y-117569098D01*
X110686669Y-117296827D01*
X111393921Y-118004079D01*
X111648594Y-118174245D01*
X111949000Y-118234000D01*
X114836596Y-118234000D01*
X114803150Y-118399160D01*
X114803150Y-120290000D01*
X109196850Y-120290000D01*
X109196850Y-118399160D01*
X109152572Y-118163843D01*
X109013500Y-117947719D01*
X108801300Y-117802729D01*
X108549410Y-117751720D01*
X106550430Y-117751720D01*
X106315113Y-117795998D01*
X106098989Y-117935070D01*
X105953999Y-118147270D01*
X105902990Y-118399160D01*
X105902990Y-120290000D01*
X50710000Y-120290000D01*
X50710000Y-90214550D01*
X50922956Y-90356842D01*
X51462540Y-90464172D01*
X52002124Y-90356842D01*
X52459561Y-90051193D01*
X52765210Y-89593756D01*
X52872540Y-89054172D01*
X52872540Y-88744028D01*
X52765210Y-88204444D01*
X52459561Y-87747007D01*
X52002124Y-87441358D01*
X51462540Y-87334028D01*
X50922956Y-87441358D01*
X50710000Y-87583650D01*
X50710000Y-83214550D01*
X50922956Y-83356842D01*
X51462540Y-83464172D01*
X52002124Y-83356842D01*
X52459561Y-83051193D01*
X52765210Y-82593756D01*
X52872540Y-82054172D01*
X52872540Y-81744028D01*
X52765210Y-81204444D01*
X52459561Y-80747007D01*
X52002124Y-80441358D01*
X51462540Y-80334028D01*
X50922956Y-80441358D01*
X50710000Y-80583650D01*
X50710000Y-77185750D01*
X51616920Y-77185750D01*
X51616920Y-77425090D01*
X51713593Y-77658479D01*
X51892222Y-77837107D01*
X52125611Y-77933780D01*
X52364950Y-77933780D01*
X52523700Y-77775030D01*
X52523700Y-77027000D01*
X51775670Y-77027000D01*
X51616920Y-77185750D01*
X50710000Y-77185750D01*
X50710000Y-76374910D01*
X51616920Y-76374910D01*
X51616920Y-76614250D01*
X51775670Y-76773000D01*
X52523700Y-76773000D01*
X52523700Y-76024970D01*
X52364950Y-75866220D01*
X52125611Y-75866220D01*
X51892222Y-75962893D01*
X51713593Y-76141521D01*
X51616920Y-76374910D01*
X50710000Y-76374910D01*
X50710000Y-74985750D01*
X51616920Y-74985750D01*
X51616920Y-75225090D01*
X51713593Y-75458479D01*
X51892222Y-75637107D01*
X52125611Y-75733780D01*
X52364950Y-75733780D01*
X52523700Y-75575030D01*
X52523700Y-74827000D01*
X51775670Y-74827000D01*
X51616920Y-74985750D01*
X50710000Y-74985750D01*
X50710000Y-74174910D01*
X51616920Y-74174910D01*
X51616920Y-74414250D01*
X51775670Y-74573000D01*
X52523700Y-74573000D01*
X52523700Y-73824970D01*
X52364950Y-73666220D01*
X52125611Y-73666220D01*
X51892222Y-73762893D01*
X51713593Y-73941521D01*
X51616920Y-74174910D01*
X50710000Y-74174910D01*
X50710000Y-70001220D01*
X51604480Y-70001220D01*
X51604480Y-70798780D01*
X51648758Y-71034097D01*
X51787830Y-71250221D01*
X51815700Y-71269264D01*
X51815700Y-71627336D01*
X51800479Y-71637130D01*
X51655489Y-71849330D01*
X51604480Y-72101220D01*
X51604480Y-72898780D01*
X51648758Y-73134097D01*
X51787830Y-73350221D01*
X52000030Y-73495211D01*
X52251920Y-73546220D01*
X53049480Y-73546220D01*
X53284797Y-73501942D01*
X53399993Y-73427815D01*
X53498630Y-73495211D01*
X53750520Y-73546220D01*
X54548080Y-73546220D01*
X54783397Y-73501942D01*
X54999521Y-73362870D01*
X55052727Y-73285000D01*
X56560982Y-73285000D01*
X56635910Y-73401441D01*
X56848110Y-73546431D01*
X57100000Y-73597440D01*
X58064600Y-73597440D01*
X58064600Y-73602560D01*
X57100000Y-73602560D01*
X56864683Y-73646838D01*
X56648559Y-73785910D01*
X56560356Y-73915000D01*
X55054139Y-73915000D01*
X55012170Y-73849779D01*
X54799970Y-73704789D01*
X54548080Y-73653780D01*
X53750520Y-73653780D01*
X53515203Y-73698058D01*
X53411241Y-73764956D01*
X53409178Y-73762893D01*
X53175789Y-73666220D01*
X52936450Y-73666220D01*
X52777700Y-73824970D01*
X52777700Y-74573000D01*
X52797700Y-74573000D01*
X52797700Y-74827000D01*
X52777700Y-74827000D01*
X52777700Y-75575030D01*
X52936450Y-75733780D01*
X53175789Y-75733780D01*
X53409178Y-75637107D01*
X53410970Y-75635315D01*
X53498630Y-75695211D01*
X53750520Y-75746220D01*
X54548080Y-75746220D01*
X54783397Y-75701942D01*
X54999521Y-75562870D01*
X55052727Y-75485000D01*
X56560982Y-75485000D01*
X56635910Y-75601441D01*
X56848110Y-75746431D01*
X57100000Y-75797440D01*
X58064600Y-75797440D01*
X58064600Y-75802560D01*
X57100000Y-75802560D01*
X56864683Y-75846838D01*
X56648559Y-75985910D01*
X56560356Y-76115000D01*
X55054139Y-76115000D01*
X55012170Y-76049779D01*
X54799970Y-75904789D01*
X54548080Y-75853780D01*
X53750520Y-75853780D01*
X53515203Y-75898058D01*
X53411241Y-75964956D01*
X53409178Y-75962893D01*
X53175789Y-75866220D01*
X52936450Y-75866220D01*
X52777700Y-76024970D01*
X52777700Y-76773000D01*
X52797700Y-76773000D01*
X52797700Y-77027000D01*
X52777700Y-77027000D01*
X52777700Y-77775030D01*
X52936450Y-77933780D01*
X53175789Y-77933780D01*
X53409178Y-77837107D01*
X53410970Y-77835315D01*
X53498630Y-77895211D01*
X53750520Y-77946220D01*
X54548080Y-77946220D01*
X54783397Y-77901942D01*
X54999521Y-77762870D01*
X55052727Y-77685000D01*
X56560982Y-77685000D01*
X56635910Y-77801441D01*
X56848110Y-77946431D01*
X57100000Y-77997440D01*
X58300000Y-77997440D01*
X58515000Y-77956985D01*
X58515000Y-79641032D01*
X55415653Y-82740379D01*
X55351313Y-82416919D01*
X55078180Y-82008145D01*
X54669406Y-81735012D01*
X54187225Y-81639100D01*
X54137855Y-81639100D01*
X53655674Y-81735012D01*
X53246900Y-82008145D01*
X52973767Y-82416919D01*
X52877855Y-82899100D01*
X52973767Y-83381281D01*
X53022736Y-83454568D01*
X52891109Y-83647210D01*
X52840100Y-83899100D01*
X52840100Y-84299100D01*
X52864484Y-84428689D01*
X52840100Y-84549100D01*
X52840100Y-84949100D01*
X52864484Y-85078689D01*
X52840100Y-85199100D01*
X52840100Y-85599100D01*
X52859990Y-85704805D01*
X52852540Y-85722790D01*
X52852540Y-85790350D01*
X52881544Y-85819354D01*
X52884378Y-85834417D01*
X53023450Y-86050541D01*
X53032138Y-86056477D01*
X52949213Y-86139401D01*
X52898460Y-86261930D01*
X52852540Y-86307850D01*
X52852540Y-86440350D01*
X52898460Y-86486270D01*
X52949213Y-86608799D01*
X53127842Y-86787427D01*
X53156023Y-86799100D01*
X53011290Y-86799100D01*
X52852540Y-86957850D01*
X52852540Y-87025410D01*
X52949213Y-87258799D01*
X53027266Y-87336852D01*
X52973767Y-87416919D01*
X52877855Y-87899100D01*
X52973767Y-88381281D01*
X53246900Y-88790055D01*
X53655674Y-89063188D01*
X54137855Y-89159100D01*
X54187225Y-89159100D01*
X54669406Y-89063188D01*
X55078180Y-88790055D01*
X55351313Y-88381281D01*
X55447225Y-87899100D01*
X55351313Y-87416919D01*
X55297814Y-87336852D01*
X55375867Y-87258799D01*
X55472540Y-87025410D01*
X55472540Y-86957850D01*
X55313790Y-86799100D01*
X55169057Y-86799100D01*
X55197238Y-86787427D01*
X55375867Y-86608799D01*
X55426620Y-86486270D01*
X55472540Y-86440350D01*
X55472540Y-86307850D01*
X55426620Y-86261930D01*
X55394382Y-86184100D01*
X57873942Y-86184100D01*
X58544921Y-86855079D01*
X58799593Y-87025245D01*
X58825898Y-87030477D01*
X58935910Y-87201441D01*
X59148110Y-87346431D01*
X59400000Y-87397440D01*
X60600000Y-87397440D01*
X60835317Y-87353162D01*
X61051441Y-87214090D01*
X61099134Y-87144289D01*
X61135910Y-87201441D01*
X61348110Y-87346431D01*
X61600000Y-87397440D01*
X62800000Y-87397440D01*
X63035317Y-87353162D01*
X63251441Y-87214090D01*
X63339644Y-87085000D01*
X66074842Y-87085000D01*
X69544921Y-90555079D01*
X69580060Y-90578558D01*
X70657691Y-91656189D01*
X70912364Y-91826355D01*
X71212770Y-91886110D01*
X88073452Y-91886110D01*
X88418442Y-92231100D01*
X61183900Y-92231100D01*
X60883493Y-92290855D01*
X60628821Y-92461021D01*
X59740308Y-93349534D01*
X59176487Y-93115415D01*
X58227675Y-93114587D01*
X57350771Y-93476916D01*
X56679274Y-94147242D01*
X56600255Y-94337540D01*
X56523084Y-94150771D01*
X55852758Y-93479274D01*
X54976487Y-93115415D01*
X54027675Y-93114587D01*
X53150771Y-93476916D01*
X52479274Y-94147242D01*
X52115415Y-95023513D01*
X52114587Y-95972325D01*
X52476916Y-96849229D01*
X53147242Y-97520726D01*
X54023513Y-97884585D01*
X54972325Y-97885413D01*
X55849229Y-97523084D01*
X56520726Y-96852758D01*
X56599745Y-96662460D01*
X56676916Y-96849229D01*
X57347242Y-97520726D01*
X58223513Y-97884585D01*
X59172325Y-97885413D01*
X60049229Y-97523084D01*
X60720726Y-96852758D01*
X60799745Y-96662460D01*
X60876916Y-96849229D01*
X61547242Y-97520726D01*
X62423513Y-97884585D01*
X63372325Y-97885413D01*
X64249229Y-97523084D01*
X64920726Y-96852758D01*
X65284585Y-95976487D01*
X65285413Y-95027675D01*
X64923084Y-94150771D01*
X64574023Y-93801100D01*
X118222200Y-93801100D01*
X118522607Y-93741345D01*
X118777279Y-93571179D01*
X119673605Y-92674853D01*
X119683767Y-92674862D01*
X120027543Y-92532817D01*
X120094660Y-92465817D01*
X132734360Y-105105517D01*
X132495914Y-105105309D01*
X132005620Y-105307894D01*
X131630173Y-105682687D01*
X131464656Y-106081296D01*
X131351146Y-105806580D01*
X130976353Y-105431133D01*
X130486413Y-105227692D01*
X129955914Y-105227229D01*
X129465620Y-105429814D01*
X129090173Y-105804607D01*
X128975157Y-106081597D01*
X128811146Y-105684660D01*
X128436353Y-105309213D01*
X127946413Y-105105772D01*
X127415914Y-105105309D01*
X126925620Y-105307894D01*
X126550173Y-105682687D01*
X126384656Y-106081296D01*
X126271146Y-105806580D01*
X125896353Y-105431133D01*
X125406413Y-105227692D01*
X124875914Y-105227229D01*
X124385620Y-105429814D01*
X124010173Y-105804607D01*
X123806732Y-106294547D01*
X123806269Y-106825046D01*
X124008854Y-107315340D01*
X124383647Y-107690787D01*
X124873587Y-107894228D01*
X125404086Y-107894691D01*
X125894380Y-107692106D01*
X126269827Y-107317313D01*
X126435344Y-106918704D01*
X126548854Y-107193420D01*
X126923647Y-107568867D01*
X127413587Y-107772308D01*
X127944086Y-107772771D01*
X128434380Y-107570186D01*
X128809827Y-107195393D01*
X128924843Y-106918403D01*
X129088854Y-107315340D01*
X129463647Y-107690787D01*
X129953587Y-107894228D01*
X130484086Y-107894691D01*
X130974380Y-107692106D01*
X131349827Y-107317313D01*
X131515344Y-106918704D01*
X131628854Y-107193420D01*
X132003647Y-107568867D01*
X132493587Y-107772308D01*
X133024086Y-107772771D01*
X133514380Y-107570186D01*
X133889827Y-107195393D01*
X134004843Y-106918403D01*
X134168854Y-107315340D01*
X134543647Y-107690787D01*
X135033587Y-107894228D01*
X135564086Y-107894691D01*
X136054380Y-107692106D01*
X136429827Y-107317313D01*
X136595344Y-106918704D01*
X136708854Y-107193420D01*
X137083647Y-107568867D01*
X137573587Y-107772308D01*
X138104086Y-107772771D01*
X138594380Y-107570186D01*
X138969827Y-107195393D01*
X139084843Y-106918403D01*
X139248854Y-107315340D01*
X139623647Y-107690787D01*
X140113587Y-107894228D01*
X140644086Y-107894691D01*
X141134380Y-107692106D01*
X141453814Y-107373228D01*
X142165417Y-107373228D01*
X142227071Y-107608840D01*
X142727480Y-107784967D01*
X143257199Y-107756188D01*
X143612929Y-107608840D01*
X143674583Y-107373228D01*
X142920000Y-106618645D01*
X142165417Y-107373228D01*
X141453814Y-107373228D01*
X141509827Y-107317313D01*
X141668595Y-106934957D01*
X141750200Y-107131969D01*
X141985812Y-107193623D01*
X142740395Y-106439040D01*
X143099605Y-106439040D01*
X143854188Y-107193623D01*
X144089800Y-107131969D01*
X144114060Y-107063042D01*
X144114060Y-107259460D01*
X144158338Y-107494777D01*
X144297410Y-107710901D01*
X144509610Y-107855891D01*
X144761500Y-107906900D01*
X146158500Y-107906900D01*
X146393817Y-107862622D01*
X146609941Y-107723550D01*
X146754931Y-107511350D01*
X146805940Y-107259460D01*
X146805940Y-105862460D01*
X146761662Y-105627143D01*
X146622590Y-105411019D01*
X146410390Y-105266029D01*
X146158500Y-105215020D01*
X144761500Y-105215020D01*
X144526183Y-105259298D01*
X144310059Y-105398370D01*
X144165069Y-105610570D01*
X144121919Y-105823653D01*
X144089800Y-105746111D01*
X143854188Y-105684457D01*
X143099605Y-106439040D01*
X142740395Y-106439040D01*
X141985812Y-105684457D01*
X141750200Y-105746111D01*
X141628744Y-106091190D01*
X141511146Y-105806580D01*
X141209944Y-105504852D01*
X142165417Y-105504852D01*
X142920000Y-106259435D01*
X143674583Y-105504852D01*
X143612929Y-105269240D01*
X143112520Y-105093113D01*
X142582801Y-105121892D01*
X142227071Y-105269240D01*
X142165417Y-105504852D01*
X141209944Y-105504852D01*
X141136353Y-105431133D01*
X140646413Y-105227692D01*
X140156462Y-105227264D01*
X138974119Y-104044921D01*
X138719447Y-103874755D01*
X138419040Y-103815000D01*
X135078398Y-103815000D01*
X132686913Y-101423515D01*
X142364110Y-101423515D01*
X142688460Y-102208500D01*
X143288521Y-102809609D01*
X144072939Y-103135328D01*
X144922295Y-103136070D01*
X145707280Y-102811720D01*
X146308389Y-102211659D01*
X146634108Y-101427241D01*
X146634850Y-100577885D01*
X146310500Y-99792900D01*
X145710439Y-99191791D01*
X144926021Y-98866072D01*
X144076665Y-98865330D01*
X143291680Y-99189680D01*
X142690571Y-99789741D01*
X142364852Y-100574159D01*
X142364110Y-101423515D01*
X132686913Y-101423515D01*
X120208319Y-88944921D01*
X119953647Y-88774755D01*
X119653240Y-88715000D01*
X96918957Y-88715000D01*
X95858654Y-87654697D01*
X96021243Y-87587517D01*
X96213595Y-87395500D01*
X97479594Y-87395500D01*
X97486773Y-87402692D01*
X97830301Y-87545338D01*
X98202267Y-87545662D01*
X98546043Y-87403617D01*
X98554174Y-87395500D01*
X106567594Y-87395500D01*
X106574773Y-87402692D01*
X106918301Y-87545338D01*
X107290267Y-87545662D01*
X107634043Y-87403617D01*
X107897292Y-87140827D01*
X108039938Y-86797299D01*
X108040262Y-86425333D01*
X107898217Y-86081557D01*
X107635427Y-85818308D01*
X107291899Y-85675662D01*
X106919933Y-85675338D01*
X106576157Y-85817383D01*
X106568026Y-85825500D01*
X98554606Y-85825500D01*
X98547427Y-85818308D01*
X98203899Y-85675662D01*
X97831933Y-85675338D01*
X97488157Y-85817383D01*
X97480026Y-85825500D01*
X95676200Y-85825500D01*
X95505720Y-85859411D01*
X95307133Y-85859238D01*
X94963357Y-86001283D01*
X94700108Y-86264073D01*
X94632015Y-86428058D01*
X92873153Y-84669195D01*
X92873162Y-84659033D01*
X92839391Y-84577300D01*
X122167100Y-84577300D01*
X122467507Y-84517545D01*
X122722179Y-84347379D01*
X136646743Y-70422815D01*
X142364110Y-70422815D01*
X142688460Y-71207800D01*
X143288521Y-71808909D01*
X144072939Y-72134628D01*
X144922295Y-72135370D01*
X145707280Y-71811020D01*
X146308389Y-71210959D01*
X146634108Y-70426541D01*
X146634850Y-69577185D01*
X146310500Y-68792200D01*
X145710439Y-68191091D01*
X144926021Y-67865372D01*
X144076665Y-67864630D01*
X143291680Y-68188980D01*
X142690571Y-68789041D01*
X142364852Y-69573459D01*
X142364110Y-70422815D01*
X136646743Y-70422815D01*
X141066954Y-66002604D01*
X141334380Y-65892106D01*
X141653814Y-65573228D01*
X142365417Y-65573228D01*
X142427071Y-65808840D01*
X142927480Y-65984967D01*
X143457199Y-65956188D01*
X143812929Y-65808840D01*
X143874583Y-65573228D01*
X143120000Y-64818645D01*
X142365417Y-65573228D01*
X141653814Y-65573228D01*
X141709827Y-65517313D01*
X141868595Y-65134957D01*
X141950200Y-65331969D01*
X142185812Y-65393623D01*
X142940395Y-64639040D01*
X143299605Y-64639040D01*
X144054188Y-65393623D01*
X144289800Y-65331969D01*
X144314060Y-65263042D01*
X144314060Y-65459460D01*
X144358338Y-65694777D01*
X144497410Y-65910901D01*
X144709610Y-66055891D01*
X144961500Y-66106900D01*
X146358500Y-66106900D01*
X146593817Y-66062622D01*
X146809941Y-65923550D01*
X146954931Y-65711350D01*
X147005940Y-65459460D01*
X147005940Y-64062460D01*
X146961662Y-63827143D01*
X146822590Y-63611019D01*
X146610390Y-63466029D01*
X146358500Y-63415020D01*
X144961500Y-63415020D01*
X144726183Y-63459298D01*
X144510059Y-63598370D01*
X144365069Y-63810570D01*
X144321919Y-64023653D01*
X144289800Y-63946111D01*
X144054188Y-63884457D01*
X143299605Y-64639040D01*
X142940395Y-64639040D01*
X142185812Y-63884457D01*
X141950200Y-63946111D01*
X141828744Y-64291190D01*
X141711146Y-64006580D01*
X141409944Y-63704852D01*
X142365417Y-63704852D01*
X143120000Y-64459435D01*
X143874583Y-63704852D01*
X143812929Y-63469240D01*
X143312520Y-63293113D01*
X142782801Y-63321892D01*
X142427071Y-63469240D01*
X142365417Y-63704852D01*
X141409944Y-63704852D01*
X141336353Y-63631133D01*
X140846413Y-63427692D01*
X140315914Y-63427229D01*
X139825620Y-63629814D01*
X139450173Y-64004607D01*
X139335157Y-64281597D01*
X139171146Y-63884660D01*
X138796353Y-63509213D01*
X138306413Y-63305772D01*
X137775914Y-63305309D01*
X137285620Y-63507894D01*
X136910173Y-63882687D01*
X136744656Y-64281296D01*
X136631146Y-64006580D01*
X136256353Y-63631133D01*
X135766413Y-63427692D01*
X135235914Y-63427229D01*
X134745620Y-63629814D01*
X134370173Y-64004607D01*
X134255157Y-64281597D01*
X134091146Y-63884660D01*
X133716353Y-63509213D01*
X133226413Y-63305772D01*
X132695914Y-63305309D01*
X132205620Y-63507894D01*
X131830173Y-63882687D01*
X131664656Y-64281296D01*
X131551146Y-64006580D01*
X131176353Y-63631133D01*
X130686413Y-63427692D01*
X130155914Y-63427229D01*
X129665620Y-63629814D01*
X129290173Y-64004607D01*
X129175157Y-64281597D01*
X129011146Y-63884660D01*
X128636353Y-63509213D01*
X128146413Y-63305772D01*
X127615914Y-63305309D01*
X127125620Y-63507894D01*
X126750173Y-63882687D01*
X126584656Y-64281296D01*
X126471146Y-64006580D01*
X126096353Y-63631133D01*
X125606413Y-63427692D01*
X125075914Y-63427229D01*
X124585620Y-63629814D01*
X124210173Y-64004607D01*
X124006732Y-64494547D01*
X124006269Y-65025046D01*
X124208854Y-65515340D01*
X124583647Y-65890787D01*
X125073587Y-66094228D01*
X125314404Y-66094438D01*
X110782042Y-80626800D01*
X101114068Y-80626800D01*
X109919963Y-71820905D01*
X109972581Y-71856064D01*
X110560000Y-71972909D01*
X111147419Y-71856064D01*
X111645409Y-71523318D01*
X111830000Y-71247058D01*
X112014591Y-71523318D01*
X112512581Y-71856064D01*
X113100000Y-71972909D01*
X113687419Y-71856064D01*
X114185409Y-71523318D01*
X114518155Y-71025328D01*
X114635000Y-70437909D01*
X114635000Y-69562091D01*
X114518155Y-68974672D01*
X114185409Y-68476682D01*
X113687419Y-68143936D01*
X113100000Y-68027091D01*
X112714024Y-68103866D01*
X112398879Y-67788721D01*
X112144207Y-67618555D01*
X111843800Y-67558800D01*
X81336200Y-67558800D01*
X81035793Y-67618555D01*
X80781121Y-67788721D01*
X80465976Y-68103866D01*
X80080000Y-68027091D01*
X79492581Y-68143936D01*
X78994591Y-68476682D01*
X78810000Y-68752942D01*
X78625409Y-68476682D01*
X78127419Y-68143936D01*
X77540000Y-68027091D01*
X76952581Y-68143936D01*
X76899963Y-68179095D01*
X75621634Y-66900766D01*
X75350741Y-66719761D01*
X75031200Y-66656200D01*
X62475000Y-66656200D01*
X62475000Y-64820666D01*
X62769827Y-64526353D01*
X62973268Y-64036413D01*
X62973731Y-63505914D01*
X62771146Y-63015620D01*
X62396353Y-62640173D01*
X62241663Y-62575940D01*
X62338500Y-62575940D01*
X62573817Y-62531662D01*
X62789941Y-62392590D01*
X62934931Y-62180390D01*
X62985940Y-61928500D01*
X62985940Y-60531500D01*
X62941662Y-60296183D01*
X62802590Y-60080059D01*
X62590390Y-59935069D01*
X62338500Y-59884060D01*
X60941500Y-59884060D01*
X60706183Y-59928338D01*
X60490059Y-60067410D01*
X60345069Y-60279610D01*
X60294060Y-60531500D01*
X60294060Y-60627884D01*
X60231146Y-60475620D01*
X59856353Y-60100173D01*
X59366413Y-59896732D01*
X58835914Y-59896269D01*
X58345620Y-60098854D01*
X57970173Y-60473647D01*
X57829906Y-60811446D01*
X57691146Y-60475620D01*
X57316353Y-60100173D01*
X56826413Y-59896732D01*
X56295914Y-59896269D01*
X55805620Y-60098854D01*
X55430173Y-60473647D01*
X55226732Y-60963587D01*
X55226269Y-61494086D01*
X55428854Y-61984380D01*
X55803647Y-62359827D01*
X56125118Y-62493314D01*
X55867071Y-62600200D01*
X55805417Y-62835812D01*
X56560000Y-63590395D01*
X57314583Y-62835812D01*
X57252929Y-62600200D01*
X56973688Y-62501917D01*
X57314380Y-62361146D01*
X57689827Y-61986353D01*
X57830094Y-61648554D01*
X57968854Y-61984380D01*
X58343647Y-62359827D01*
X58681446Y-62500094D01*
X58345620Y-62638854D01*
X57970173Y-63013647D01*
X57836686Y-63335118D01*
X57729800Y-63077071D01*
X57494188Y-63015417D01*
X56739605Y-63770000D01*
X57494188Y-64524583D01*
X57729800Y-64462929D01*
X57828083Y-64183688D01*
X57968854Y-64524380D01*
X58343647Y-64899827D01*
X58833587Y-65103268D01*
X59364086Y-65103731D01*
X59854380Y-64901146D01*
X60229827Y-64526353D01*
X60370094Y-64188554D01*
X60508854Y-64524380D01*
X60805000Y-64821043D01*
X60805000Y-66686275D01*
X60636660Y-66719760D01*
X60365766Y-66900766D01*
X58553732Y-68712800D01*
X53502900Y-68712800D01*
X53183359Y-68776361D01*
X53125532Y-68815000D01*
X52912466Y-68957366D01*
X52516052Y-69353780D01*
X52251920Y-69353780D01*
X52016603Y-69398058D01*
X51800479Y-69537130D01*
X51655489Y-69749330D01*
X51604480Y-70001220D01*
X50710000Y-70001220D01*
X50710000Y-64704188D01*
X55805417Y-64704188D01*
X55867071Y-64939800D01*
X56367480Y-65115927D01*
X56897199Y-65087148D01*
X57252929Y-64939800D01*
X57314583Y-64704188D01*
X56560000Y-63949605D01*
X55805417Y-64704188D01*
X50710000Y-64704188D01*
X50710000Y-63577480D01*
X55214073Y-63577480D01*
X55242852Y-64107199D01*
X55390200Y-64462929D01*
X55625812Y-64524583D01*
X56380395Y-63770000D01*
X55625812Y-63015417D01*
X55390200Y-63077071D01*
X55214073Y-63577480D01*
X50710000Y-63577480D01*
X50710000Y-50710000D01*
X105902990Y-50710000D01*
X105902990Y-52600840D01*
X105902990Y-52600840D01*
G37*
X105902990Y-52600840D02*
X105947268Y-52836157D01*
X106086340Y-53052281D01*
X106298540Y-53197271D01*
X106550430Y-53248280D01*
X108549410Y-53248280D01*
X108784727Y-53204002D01*
X109000851Y-53064930D01*
X109145841Y-52852730D01*
X109196850Y-52600840D01*
X109196850Y-50710000D01*
X114803150Y-50710000D01*
X114803150Y-52215000D01*
X113500000Y-52215000D01*
X113199593Y-52274755D01*
X112944921Y-52444921D01*
X111444921Y-53944921D01*
X111274755Y-54199593D01*
X111237621Y-54386279D01*
X111221922Y-54465200D01*
X110884840Y-54465200D01*
X110885128Y-54136110D01*
X110720358Y-53737337D01*
X110415527Y-53431974D01*
X110017043Y-53266509D01*
X109585570Y-53266132D01*
X109186797Y-53430902D01*
X108881434Y-53735733D01*
X108715969Y-54134217D01*
X108715680Y-54465200D01*
X106378000Y-54465200D01*
X106228584Y-54494921D01*
X106077604Y-54524951D01*
X106077600Y-54524954D01*
X106077594Y-54524955D01*
X105971857Y-54595606D01*
X105822929Y-54695113D01*
X102396633Y-58121314D01*
X101895366Y-57619171D01*
X101166055Y-57316335D01*
X100376369Y-57315646D01*
X99646531Y-57617209D01*
X99087651Y-58175114D01*
X98946103Y-58516000D01*
X90593949Y-58516000D01*
X90454311Y-58178051D01*
X89896406Y-57619171D01*
X89167095Y-57316335D01*
X88377409Y-57315646D01*
X87647571Y-57617209D01*
X87088691Y-58175114D01*
X86785855Y-58904425D01*
X86785166Y-59694111D01*
X87076999Y-60400400D01*
X84424401Y-60400400D01*
X84689639Y-59761635D01*
X84690380Y-58912331D01*
X84366050Y-58127393D01*
X83766026Y-57526320D01*
X82981655Y-57200621D01*
X82132351Y-57199880D01*
X81347413Y-57524210D01*
X80746340Y-58124234D01*
X80569505Y-58550100D01*
X70824709Y-58550100D01*
X70650050Y-58127393D01*
X70050026Y-57526320D01*
X69265655Y-57200621D01*
X68416351Y-57199880D01*
X67631413Y-57524210D01*
X67030340Y-58124234D01*
X66704641Y-58908605D01*
X66703900Y-59757909D01*
X67028230Y-60542847D01*
X67628254Y-61143920D01*
X68412625Y-61469619D01*
X69261929Y-61470360D01*
X70046867Y-61146030D01*
X70647940Y-60546006D01*
X70824791Y-60120100D01*
X75461274Y-60120100D01*
X75239293Y-60164255D01*
X74984621Y-60334421D01*
X74702252Y-60616790D01*
X74152742Y-60616310D01*
X73643303Y-60826806D01*
X73253196Y-61216233D01*
X73157165Y-61447501D01*
X73062454Y-61218283D01*
X72673027Y-60828176D01*
X72163956Y-60616791D01*
X71612742Y-60616310D01*
X71103303Y-60826806D01*
X70713196Y-61216233D01*
X70501811Y-61725304D01*
X70501330Y-62276518D01*
X70711826Y-62785957D01*
X71101253Y-63176064D01*
X71610324Y-63387449D01*
X72161538Y-63387930D01*
X72670977Y-63177434D01*
X73061084Y-62788007D01*
X73157115Y-62556739D01*
X73251826Y-62785957D01*
X73641253Y-63176064D01*
X74150324Y-63387449D01*
X74701538Y-63387930D01*
X75210977Y-63177434D01*
X75443203Y-62945613D01*
X75673253Y-63176064D01*
X76182324Y-63387449D01*
X76733538Y-63387930D01*
X77242977Y-63177434D01*
X77633084Y-62788007D01*
X77729115Y-62556739D01*
X77823826Y-62785957D01*
X78213253Y-63176064D01*
X78722324Y-63387449D01*
X79273538Y-63387930D01*
X79782977Y-63177434D01*
X80173084Y-62788007D01*
X80173461Y-62787100D01*
X91176942Y-62787100D01*
X92105443Y-63715601D01*
X92103243Y-63720900D01*
X92102758Y-64276661D01*
X92314990Y-64790303D01*
X92707630Y-65183629D01*
X93220900Y-65396757D01*
X93776661Y-65397242D01*
X94290303Y-65185010D01*
X94396820Y-65078678D01*
X94987921Y-65669779D01*
X95242593Y-65839945D01*
X95543000Y-65899700D01*
X106186000Y-65899700D01*
X106186020Y-65899696D01*
X106186040Y-65899700D01*
X106331802Y-65870698D01*
X106486406Y-65839945D01*
X106486424Y-65839933D01*
X106486444Y-65839929D01*
X106607950Y-65758733D01*
X106741079Y-65669779D01*
X106741091Y-65669760D01*
X106741107Y-65669750D01*
X112154287Y-60256016D01*
X112300000Y-60285000D01*
X122462000Y-60285000D01*
X122632761Y-60251033D01*
X122762395Y-60225249D01*
X122762399Y-60225246D01*
X122762406Y-60225245D01*
X122922268Y-60118429D01*
X123017070Y-60055087D01*
X123017076Y-60055081D01*
X123017079Y-60055079D01*
X123017081Y-60055076D01*
X126000067Y-57072182D01*
X126632902Y-57705060D01*
X126632913Y-57705068D01*
X126632921Y-57705079D01*
X126766601Y-57794400D01*
X126887569Y-57875234D01*
X126887581Y-57875236D01*
X126887594Y-57875245D01*
X127046422Y-57906838D01*
X127187973Y-57935000D01*
X127187987Y-57934997D01*
X127188000Y-57935000D01*
X127850000Y-57935000D01*
X128150407Y-57875245D01*
X128405079Y-57705079D01*
X128825158Y-57285000D01*
X134467842Y-57285000D01*
X136887921Y-59705079D01*
X137142594Y-59875245D01*
X137443000Y-59935000D01*
X142057000Y-59935000D01*
X142357407Y-59875245D01*
X142612079Y-59705079D01*
X143532158Y-58785000D01*
X143962494Y-58785000D01*
X143969673Y-58792192D01*
X144313201Y-58934838D01*
X144685167Y-58935162D01*
X145028943Y-58793117D01*
X145292192Y-58530327D01*
X145434838Y-58186799D01*
X145434848Y-58175310D01*
X145616125Y-57994033D01*
X145723233Y-57925111D01*
X146140000Y-58008011D01*
X146574346Y-57921614D01*
X146942566Y-57675577D01*
X147188603Y-57307357D01*
X147275000Y-56873011D01*
X147275000Y-55706989D01*
X147188603Y-55272643D01*
X146942566Y-54904423D01*
X146574346Y-54658386D01*
X146140000Y-54571989D01*
X145705654Y-54658386D01*
X145337434Y-54904423D01*
X145275283Y-54997438D01*
X145254507Y-54976626D01*
X144901794Y-54830167D01*
X144519882Y-54829833D01*
X144259528Y-54937409D01*
X144030327Y-54707808D01*
X143686799Y-54565162D01*
X143314833Y-54564838D01*
X142971057Y-54706883D01*
X142707808Y-54969673D01*
X142664513Y-55073938D01*
X142625079Y-55014921D01*
X141055079Y-53444921D01*
X140800407Y-53274755D01*
X140500000Y-53215000D01*
X138387851Y-53215000D01*
X138548603Y-52974418D01*
X138635000Y-52540072D01*
X138635000Y-51679928D01*
X138548603Y-51245582D01*
X138302566Y-50877362D01*
X138052091Y-50710000D01*
X145587909Y-50710000D01*
X145337434Y-50877362D01*
X145091397Y-51245582D01*
X145005000Y-51679928D01*
X145005000Y-52540072D01*
X145091397Y-52974418D01*
X145337434Y-53342638D01*
X145705654Y-53588675D01*
X146140000Y-53675072D01*
X146574346Y-53588675D01*
X146942566Y-53342638D01*
X147188603Y-52974418D01*
X147275000Y-52540072D01*
X147275000Y-51679928D01*
X147188603Y-51245582D01*
X146942566Y-50877362D01*
X146692091Y-50710000D01*
X149290000Y-50710000D01*
X149290000Y-120290000D01*
X146552091Y-120290000D01*
X146802566Y-120122638D01*
X147048603Y-119754418D01*
X147135000Y-119320072D01*
X147135000Y-118459928D01*
X147048603Y-118025582D01*
X146802566Y-117657362D01*
X146434346Y-117411325D01*
X146000000Y-117324928D01*
X145565654Y-117411325D01*
X145197434Y-117657362D01*
X144951397Y-118025582D01*
X144865000Y-118459928D01*
X144865000Y-119320072D01*
X144951397Y-119754418D01*
X145197434Y-120122638D01*
X145447909Y-120290000D01*
X137912091Y-120290000D01*
X138162566Y-120122638D01*
X138408603Y-119754418D01*
X138495000Y-119320072D01*
X138495000Y-118459928D01*
X138460205Y-118285000D01*
X141500000Y-118285000D01*
X141800407Y-118225245D01*
X142055079Y-118055079D01*
X143675005Y-116435153D01*
X143685167Y-116435162D01*
X144028943Y-116293117D01*
X144218764Y-116103627D01*
X144378206Y-116169833D01*
X144760118Y-116170167D01*
X145113086Y-116024323D01*
X145135124Y-116002324D01*
X145197434Y-116095577D01*
X145565654Y-116341614D01*
X146000000Y-116428011D01*
X146434346Y-116341614D01*
X146802566Y-116095577D01*
X147048603Y-115727357D01*
X147135000Y-115293011D01*
X147135000Y-114126989D01*
X147048603Y-113692643D01*
X146802566Y-113324423D01*
X146434346Y-113078386D01*
X146000000Y-112991989D01*
X145643823Y-113062837D01*
X145585079Y-112974921D01*
X145435153Y-112824995D01*
X145435162Y-112814833D01*
X145293117Y-112471057D01*
X145030327Y-112207808D01*
X144686799Y-112065162D01*
X144314833Y-112064838D01*
X143971057Y-112206883D01*
X143707808Y-112469673D01*
X143565162Y-112813201D01*
X143565067Y-112922560D01*
X143280000Y-112922560D01*
X143176329Y-112942067D01*
X143080000Y-112922560D01*
X142780000Y-112922560D01*
X142715000Y-112934791D01*
X142715000Y-112930000D01*
X142655245Y-112629594D01*
X142485079Y-112374921D01*
X141555079Y-111444921D01*
X141300407Y-111274755D01*
X141000000Y-111215000D01*
X137293000Y-111215000D01*
X136992594Y-111274755D01*
X136737921Y-111444921D01*
X134467842Y-113715000D01*
X127325158Y-113715000D01*
X124555079Y-110944921D01*
X124300407Y-110774755D01*
X124000000Y-110715000D01*
X112300000Y-110715000D01*
X111999593Y-110774755D01*
X111744921Y-110944921D01*
X111242000Y-111447842D01*
X105121079Y-105326921D01*
X104866407Y-105156755D01*
X104566000Y-105097000D01*
X94577700Y-105097000D01*
X94577648Y-105097010D01*
X94577595Y-105097000D01*
X94426018Y-105127172D01*
X94277294Y-105156755D01*
X94277250Y-105156784D01*
X94277196Y-105156795D01*
X94147515Y-105243470D01*
X94022621Y-105326921D01*
X94022591Y-105326965D01*
X94022547Y-105326995D01*
X93744240Y-105605377D01*
X93739100Y-105603243D01*
X93183339Y-105602758D01*
X92669697Y-105814990D01*
X92276371Y-106207630D01*
X92273311Y-106215000D01*
X75538800Y-106215000D01*
X75538786Y-106215003D01*
X75538772Y-106215000D01*
X75391978Y-106244205D01*
X75238394Y-106274755D01*
X75238382Y-106274763D01*
X75238368Y-106274766D01*
X75113618Y-106358127D01*
X74983721Y-106444921D01*
X74983713Y-106444933D01*
X74983701Y-106444941D01*
X73816175Y-107612550D01*
X73266462Y-107612070D01*
X72757023Y-107822566D01*
X72366916Y-108211993D01*
X72270885Y-108443261D01*
X72176174Y-108214043D01*
X71786747Y-107823936D01*
X71277676Y-107612551D01*
X70726462Y-107612070D01*
X70217023Y-107822566D01*
X69826916Y-108211993D01*
X69826539Y-108212900D01*
X63523058Y-108212900D01*
X57832296Y-102522138D01*
X58223513Y-102684585D01*
X59172325Y-102685413D01*
X60049229Y-102323084D01*
X60720726Y-101652758D01*
X60799745Y-101462460D01*
X60876916Y-101649229D01*
X61547242Y-102320726D01*
X62423513Y-102684585D01*
X63372325Y-102685413D01*
X64249229Y-102323084D01*
X64920726Y-101652758D01*
X65015915Y-101423515D01*
X67365530Y-101423515D01*
X67689880Y-102208500D01*
X68289941Y-102809609D01*
X69074359Y-103135328D01*
X69923715Y-103136070D01*
X70708700Y-102811720D01*
X71309809Y-102211659D01*
X71635528Y-101427241D01*
X71636270Y-100577885D01*
X71311920Y-99792900D01*
X70711859Y-99191791D01*
X69927441Y-98866072D01*
X69078085Y-98865330D01*
X68293100Y-99189680D01*
X67691991Y-99789741D01*
X67366272Y-100574159D01*
X67365530Y-101423515D01*
X65015915Y-101423515D01*
X65284585Y-100776487D01*
X65285413Y-99827675D01*
X64923084Y-98950771D01*
X64252758Y-98279274D01*
X63376487Y-97915415D01*
X62427675Y-97914587D01*
X61550771Y-98276916D01*
X60879274Y-98947242D01*
X60800255Y-99137540D01*
X60723084Y-98950771D01*
X60052758Y-98279274D01*
X59176487Y-97915415D01*
X58227675Y-97914587D01*
X57350771Y-98276916D01*
X56679274Y-98947242D01*
X56600255Y-99137540D01*
X56523084Y-98950771D01*
X55852758Y-98279274D01*
X54976487Y-97915415D01*
X54027675Y-97914587D01*
X53150771Y-98276916D01*
X52479274Y-98947242D01*
X52115415Y-99823513D01*
X52114587Y-100772325D01*
X52476916Y-101649229D01*
X53147242Y-102320726D01*
X54023513Y-102684585D01*
X54972325Y-102685413D01*
X55540493Y-102450651D01*
X62642821Y-109552979D01*
X62897493Y-109723145D01*
X63197900Y-109782900D01*
X66409135Y-109782900D01*
X66237133Y-109853970D01*
X65636060Y-110453994D01*
X65310361Y-111238365D01*
X65309620Y-112087669D01*
X65633950Y-112872607D01*
X66233974Y-113473680D01*
X67018345Y-113799379D01*
X67867649Y-113800120D01*
X68652587Y-113475790D01*
X69253660Y-112875766D01*
X69430453Y-112450000D01*
X79175332Y-112450000D01*
X79349950Y-112872607D01*
X79949974Y-113473680D01*
X80734345Y-113799379D01*
X81583649Y-113800120D01*
X82368587Y-113475790D01*
X82969660Y-112875766D01*
X83295359Y-112091395D01*
X83296100Y-111242091D01*
X83024182Y-110584000D01*
X87044171Y-110584000D01*
X86745855Y-111302425D01*
X86745166Y-112092111D01*
X87046729Y-112821949D01*
X87604634Y-113380829D01*
X88333945Y-113683665D01*
X89123631Y-113684354D01*
X89853469Y-113382791D01*
X90412349Y-112824886D01*
X90553897Y-112484000D01*
X98906051Y-112484000D01*
X99045689Y-112821949D01*
X99603594Y-113380829D01*
X100332905Y-113683665D01*
X101122591Y-113684354D01*
X101852429Y-113382791D01*
X102336003Y-112900060D01*
X105902990Y-112900060D01*
X105902990Y-115399420D01*
X105947268Y-115634737D01*
X106086340Y-115850861D01*
X106298540Y-115995851D01*
X106550430Y-116046860D01*
X108549410Y-116046860D01*
X108784727Y-116002582D01*
X109000851Y-115863510D01*
X109145841Y-115651310D01*
X109196850Y-115399420D01*
X109196850Y-112900060D01*
X109152572Y-112664743D01*
X109013500Y-112448619D01*
X108801300Y-112303629D01*
X108549410Y-112252620D01*
X106550430Y-112252620D01*
X106315113Y-112296898D01*
X106098989Y-112435970D01*
X105953999Y-112648170D01*
X105902990Y-112900060D01*
X102336003Y-112900060D01*
X102411309Y-112824886D01*
X102714145Y-112095575D01*
X102714834Y-111305889D01*
X102413271Y-110576051D01*
X102109750Y-110272000D01*
X107011842Y-110272000D01*
X109525364Y-112785522D01*
X109502170Y-112900060D01*
X109502170Y-115201300D01*
X109546448Y-115436617D01*
X109615000Y-115543150D01*
X109615000Y-115564358D01*
X109585570Y-115564332D01*
X109186797Y-115729102D01*
X108881434Y-116033933D01*
X108715969Y-116432417D01*
X108715592Y-116863890D01*
X108880362Y-117262663D01*
X109185193Y-117568026D01*
X109583677Y-117733491D01*
X110015150Y-117733868D01*
X110413923Y-117569098D01*
X110686669Y-117296827D01*
X111393921Y-118004079D01*
X111648594Y-118174245D01*
X111949000Y-118234000D01*
X114836596Y-118234000D01*
X114803150Y-118399160D01*
X114803150Y-120290000D01*
X109196850Y-120290000D01*
X109196850Y-118399160D01*
X109152572Y-118163843D01*
X109013500Y-117947719D01*
X108801300Y-117802729D01*
X108549410Y-117751720D01*
X106550430Y-117751720D01*
X106315113Y-117795998D01*
X106098989Y-117935070D01*
X105953999Y-118147270D01*
X105902990Y-118399160D01*
X105902990Y-120290000D01*
X50710000Y-120290000D01*
X50710000Y-90214550D01*
X50922956Y-90356842D01*
X51462540Y-90464172D01*
X52002124Y-90356842D01*
X52459561Y-90051193D01*
X52765210Y-89593756D01*
X52872540Y-89054172D01*
X52872540Y-88744028D01*
X52765210Y-88204444D01*
X52459561Y-87747007D01*
X52002124Y-87441358D01*
X51462540Y-87334028D01*
X50922956Y-87441358D01*
X50710000Y-87583650D01*
X50710000Y-83214550D01*
X50922956Y-83356842D01*
X51462540Y-83464172D01*
X52002124Y-83356842D01*
X52459561Y-83051193D01*
X52765210Y-82593756D01*
X52872540Y-82054172D01*
X52872540Y-81744028D01*
X52765210Y-81204444D01*
X52459561Y-80747007D01*
X52002124Y-80441358D01*
X51462540Y-80334028D01*
X50922956Y-80441358D01*
X50710000Y-80583650D01*
X50710000Y-77185750D01*
X51616920Y-77185750D01*
X51616920Y-77425090D01*
X51713593Y-77658479D01*
X51892222Y-77837107D01*
X52125611Y-77933780D01*
X52364950Y-77933780D01*
X52523700Y-77775030D01*
X52523700Y-77027000D01*
X51775670Y-77027000D01*
X51616920Y-77185750D01*
X50710000Y-77185750D01*
X50710000Y-76374910D01*
X51616920Y-76374910D01*
X51616920Y-76614250D01*
X51775670Y-76773000D01*
X52523700Y-76773000D01*
X52523700Y-76024970D01*
X52364950Y-75866220D01*
X52125611Y-75866220D01*
X51892222Y-75962893D01*
X51713593Y-76141521D01*
X51616920Y-76374910D01*
X50710000Y-76374910D01*
X50710000Y-74985750D01*
X51616920Y-74985750D01*
X51616920Y-75225090D01*
X51713593Y-75458479D01*
X51892222Y-75637107D01*
X52125611Y-75733780D01*
X52364950Y-75733780D01*
X52523700Y-75575030D01*
X52523700Y-74827000D01*
X51775670Y-74827000D01*
X51616920Y-74985750D01*
X50710000Y-74985750D01*
X50710000Y-74174910D01*
X51616920Y-74174910D01*
X51616920Y-74414250D01*
X51775670Y-74573000D01*
X52523700Y-74573000D01*
X52523700Y-73824970D01*
X52364950Y-73666220D01*
X52125611Y-73666220D01*
X51892222Y-73762893D01*
X51713593Y-73941521D01*
X51616920Y-74174910D01*
X50710000Y-74174910D01*
X50710000Y-70001220D01*
X51604480Y-70001220D01*
X51604480Y-70798780D01*
X51648758Y-71034097D01*
X51787830Y-71250221D01*
X51815700Y-71269264D01*
X51815700Y-71627336D01*
X51800479Y-71637130D01*
X51655489Y-71849330D01*
X51604480Y-72101220D01*
X51604480Y-72898780D01*
X51648758Y-73134097D01*
X51787830Y-73350221D01*
X52000030Y-73495211D01*
X52251920Y-73546220D01*
X53049480Y-73546220D01*
X53284797Y-73501942D01*
X53399993Y-73427815D01*
X53498630Y-73495211D01*
X53750520Y-73546220D01*
X54548080Y-73546220D01*
X54783397Y-73501942D01*
X54999521Y-73362870D01*
X55052727Y-73285000D01*
X56560982Y-73285000D01*
X56635910Y-73401441D01*
X56848110Y-73546431D01*
X57100000Y-73597440D01*
X58064600Y-73597440D01*
X58064600Y-73602560D01*
X57100000Y-73602560D01*
X56864683Y-73646838D01*
X56648559Y-73785910D01*
X56560356Y-73915000D01*
X55054139Y-73915000D01*
X55012170Y-73849779D01*
X54799970Y-73704789D01*
X54548080Y-73653780D01*
X53750520Y-73653780D01*
X53515203Y-73698058D01*
X53411241Y-73764956D01*
X53409178Y-73762893D01*
X53175789Y-73666220D01*
X52936450Y-73666220D01*
X52777700Y-73824970D01*
X52777700Y-74573000D01*
X52797700Y-74573000D01*
X52797700Y-74827000D01*
X52777700Y-74827000D01*
X52777700Y-75575030D01*
X52936450Y-75733780D01*
X53175789Y-75733780D01*
X53409178Y-75637107D01*
X53410970Y-75635315D01*
X53498630Y-75695211D01*
X53750520Y-75746220D01*
X54548080Y-75746220D01*
X54783397Y-75701942D01*
X54999521Y-75562870D01*
X55052727Y-75485000D01*
X56560982Y-75485000D01*
X56635910Y-75601441D01*
X56848110Y-75746431D01*
X57100000Y-75797440D01*
X58064600Y-75797440D01*
X58064600Y-75802560D01*
X57100000Y-75802560D01*
X56864683Y-75846838D01*
X56648559Y-75985910D01*
X56560356Y-76115000D01*
X55054139Y-76115000D01*
X55012170Y-76049779D01*
X54799970Y-75904789D01*
X54548080Y-75853780D01*
X53750520Y-75853780D01*
X53515203Y-75898058D01*
X53411241Y-75964956D01*
X53409178Y-75962893D01*
X53175789Y-75866220D01*
X52936450Y-75866220D01*
X52777700Y-76024970D01*
X52777700Y-76773000D01*
X52797700Y-76773000D01*
X52797700Y-77027000D01*
X52777700Y-77027000D01*
X52777700Y-77775030D01*
X52936450Y-77933780D01*
X53175789Y-77933780D01*
X53409178Y-77837107D01*
X53410970Y-77835315D01*
X53498630Y-77895211D01*
X53750520Y-77946220D01*
X54548080Y-77946220D01*
X54783397Y-77901942D01*
X54999521Y-77762870D01*
X55052727Y-77685000D01*
X56560982Y-77685000D01*
X56635910Y-77801441D01*
X56848110Y-77946431D01*
X57100000Y-77997440D01*
X58300000Y-77997440D01*
X58515000Y-77956985D01*
X58515000Y-79641032D01*
X55415653Y-82740379D01*
X55351313Y-82416919D01*
X55078180Y-82008145D01*
X54669406Y-81735012D01*
X54187225Y-81639100D01*
X54137855Y-81639100D01*
X53655674Y-81735012D01*
X53246900Y-82008145D01*
X52973767Y-82416919D01*
X52877855Y-82899100D01*
X52973767Y-83381281D01*
X53022736Y-83454568D01*
X52891109Y-83647210D01*
X52840100Y-83899100D01*
X52840100Y-84299100D01*
X52864484Y-84428689D01*
X52840100Y-84549100D01*
X52840100Y-84949100D01*
X52864484Y-85078689D01*
X52840100Y-85199100D01*
X52840100Y-85599100D01*
X52859990Y-85704805D01*
X52852540Y-85722790D01*
X52852540Y-85790350D01*
X52881544Y-85819354D01*
X52884378Y-85834417D01*
X53023450Y-86050541D01*
X53032138Y-86056477D01*
X52949213Y-86139401D01*
X52898460Y-86261930D01*
X52852540Y-86307850D01*
X52852540Y-86440350D01*
X52898460Y-86486270D01*
X52949213Y-86608799D01*
X53127842Y-86787427D01*
X53156023Y-86799100D01*
X53011290Y-86799100D01*
X52852540Y-86957850D01*
X52852540Y-87025410D01*
X52949213Y-87258799D01*
X53027266Y-87336852D01*
X52973767Y-87416919D01*
X52877855Y-87899100D01*
X52973767Y-88381281D01*
X53246900Y-88790055D01*
X53655674Y-89063188D01*
X54137855Y-89159100D01*
X54187225Y-89159100D01*
X54669406Y-89063188D01*
X55078180Y-88790055D01*
X55351313Y-88381281D01*
X55447225Y-87899100D01*
X55351313Y-87416919D01*
X55297814Y-87336852D01*
X55375867Y-87258799D01*
X55472540Y-87025410D01*
X55472540Y-86957850D01*
X55313790Y-86799100D01*
X55169057Y-86799100D01*
X55197238Y-86787427D01*
X55375867Y-86608799D01*
X55426620Y-86486270D01*
X55472540Y-86440350D01*
X55472540Y-86307850D01*
X55426620Y-86261930D01*
X55394382Y-86184100D01*
X57873942Y-86184100D01*
X58544921Y-86855079D01*
X58799593Y-87025245D01*
X58825898Y-87030477D01*
X58935910Y-87201441D01*
X59148110Y-87346431D01*
X59400000Y-87397440D01*
X60600000Y-87397440D01*
X60835317Y-87353162D01*
X61051441Y-87214090D01*
X61099134Y-87144289D01*
X61135910Y-87201441D01*
X61348110Y-87346431D01*
X61600000Y-87397440D01*
X62800000Y-87397440D01*
X63035317Y-87353162D01*
X63251441Y-87214090D01*
X63339644Y-87085000D01*
X66074842Y-87085000D01*
X69544921Y-90555079D01*
X69580060Y-90578558D01*
X70657691Y-91656189D01*
X70912364Y-91826355D01*
X71212770Y-91886110D01*
X88073452Y-91886110D01*
X88418442Y-92231100D01*
X61183900Y-92231100D01*
X60883493Y-92290855D01*
X60628821Y-92461021D01*
X59740308Y-93349534D01*
X59176487Y-93115415D01*
X58227675Y-93114587D01*
X57350771Y-93476916D01*
X56679274Y-94147242D01*
X56600255Y-94337540D01*
X56523084Y-94150771D01*
X55852758Y-93479274D01*
X54976487Y-93115415D01*
X54027675Y-93114587D01*
X53150771Y-93476916D01*
X52479274Y-94147242D01*
X52115415Y-95023513D01*
X52114587Y-95972325D01*
X52476916Y-96849229D01*
X53147242Y-97520726D01*
X54023513Y-97884585D01*
X54972325Y-97885413D01*
X55849229Y-97523084D01*
X56520726Y-96852758D01*
X56599745Y-96662460D01*
X56676916Y-96849229D01*
X57347242Y-97520726D01*
X58223513Y-97884585D01*
X59172325Y-97885413D01*
X60049229Y-97523084D01*
X60720726Y-96852758D01*
X60799745Y-96662460D01*
X60876916Y-96849229D01*
X61547242Y-97520726D01*
X62423513Y-97884585D01*
X63372325Y-97885413D01*
X64249229Y-97523084D01*
X64920726Y-96852758D01*
X65284585Y-95976487D01*
X65285413Y-95027675D01*
X64923084Y-94150771D01*
X64574023Y-93801100D01*
X118222200Y-93801100D01*
X118522607Y-93741345D01*
X118777279Y-93571179D01*
X119673605Y-92674853D01*
X119683767Y-92674862D01*
X120027543Y-92532817D01*
X120094660Y-92465817D01*
X132734360Y-105105517D01*
X132495914Y-105105309D01*
X132005620Y-105307894D01*
X131630173Y-105682687D01*
X131464656Y-106081296D01*
X131351146Y-105806580D01*
X130976353Y-105431133D01*
X130486413Y-105227692D01*
X129955914Y-105227229D01*
X129465620Y-105429814D01*
X129090173Y-105804607D01*
X128975157Y-106081597D01*
X128811146Y-105684660D01*
X128436353Y-105309213D01*
X127946413Y-105105772D01*
X127415914Y-105105309D01*
X126925620Y-105307894D01*
X126550173Y-105682687D01*
X126384656Y-106081296D01*
X126271146Y-105806580D01*
X125896353Y-105431133D01*
X125406413Y-105227692D01*
X124875914Y-105227229D01*
X124385620Y-105429814D01*
X124010173Y-105804607D01*
X123806732Y-106294547D01*
X123806269Y-106825046D01*
X124008854Y-107315340D01*
X124383647Y-107690787D01*
X124873587Y-107894228D01*
X125404086Y-107894691D01*
X125894380Y-107692106D01*
X126269827Y-107317313D01*
X126435344Y-106918704D01*
X126548854Y-107193420D01*
X126923647Y-107568867D01*
X127413587Y-107772308D01*
X127944086Y-107772771D01*
X128434380Y-107570186D01*
X128809827Y-107195393D01*
X128924843Y-106918403D01*
X129088854Y-107315340D01*
X129463647Y-107690787D01*
X129953587Y-107894228D01*
X130484086Y-107894691D01*
X130974380Y-107692106D01*
X131349827Y-107317313D01*
X131515344Y-106918704D01*
X131628854Y-107193420D01*
X132003647Y-107568867D01*
X132493587Y-107772308D01*
X133024086Y-107772771D01*
X133514380Y-107570186D01*
X133889827Y-107195393D01*
X134004843Y-106918403D01*
X134168854Y-107315340D01*
X134543647Y-107690787D01*
X135033587Y-107894228D01*
X135564086Y-107894691D01*
X136054380Y-107692106D01*
X136429827Y-107317313D01*
X136595344Y-106918704D01*
X136708854Y-107193420D01*
X137083647Y-107568867D01*
X137573587Y-107772308D01*
X138104086Y-107772771D01*
X138594380Y-107570186D01*
X138969827Y-107195393D01*
X139084843Y-106918403D01*
X139248854Y-107315340D01*
X139623647Y-107690787D01*
X140113587Y-107894228D01*
X140644086Y-107894691D01*
X141134380Y-107692106D01*
X141453814Y-107373228D01*
X142165417Y-107373228D01*
X142227071Y-107608840D01*
X142727480Y-107784967D01*
X143257199Y-107756188D01*
X143612929Y-107608840D01*
X143674583Y-107373228D01*
X142920000Y-106618645D01*
X142165417Y-107373228D01*
X141453814Y-107373228D01*
X141509827Y-107317313D01*
X141668595Y-106934957D01*
X141750200Y-107131969D01*
X141985812Y-107193623D01*
X142740395Y-106439040D01*
X143099605Y-106439040D01*
X143854188Y-107193623D01*
X144089800Y-107131969D01*
X144114060Y-107063042D01*
X144114060Y-107259460D01*
X144158338Y-107494777D01*
X144297410Y-107710901D01*
X144509610Y-107855891D01*
X144761500Y-107906900D01*
X146158500Y-107906900D01*
X146393817Y-107862622D01*
X146609941Y-107723550D01*
X146754931Y-107511350D01*
X146805940Y-107259460D01*
X146805940Y-105862460D01*
X146761662Y-105627143D01*
X146622590Y-105411019D01*
X146410390Y-105266029D01*
X146158500Y-105215020D01*
X144761500Y-105215020D01*
X144526183Y-105259298D01*
X144310059Y-105398370D01*
X144165069Y-105610570D01*
X144121919Y-105823653D01*
X144089800Y-105746111D01*
X143854188Y-105684457D01*
X143099605Y-106439040D01*
X142740395Y-106439040D01*
X141985812Y-105684457D01*
X141750200Y-105746111D01*
X141628744Y-106091190D01*
X141511146Y-105806580D01*
X141209944Y-105504852D01*
X142165417Y-105504852D01*
X142920000Y-106259435D01*
X143674583Y-105504852D01*
X143612929Y-105269240D01*
X143112520Y-105093113D01*
X142582801Y-105121892D01*
X142227071Y-105269240D01*
X142165417Y-105504852D01*
X141209944Y-105504852D01*
X141136353Y-105431133D01*
X140646413Y-105227692D01*
X140156462Y-105227264D01*
X138974119Y-104044921D01*
X138719447Y-103874755D01*
X138419040Y-103815000D01*
X135078398Y-103815000D01*
X132686913Y-101423515D01*
X142364110Y-101423515D01*
X142688460Y-102208500D01*
X143288521Y-102809609D01*
X144072939Y-103135328D01*
X144922295Y-103136070D01*
X145707280Y-102811720D01*
X146308389Y-102211659D01*
X146634108Y-101427241D01*
X146634850Y-100577885D01*
X146310500Y-99792900D01*
X145710439Y-99191791D01*
X144926021Y-98866072D01*
X144076665Y-98865330D01*
X143291680Y-99189680D01*
X142690571Y-99789741D01*
X142364852Y-100574159D01*
X142364110Y-101423515D01*
X132686913Y-101423515D01*
X120208319Y-88944921D01*
X119953647Y-88774755D01*
X119653240Y-88715000D01*
X96918957Y-88715000D01*
X95858654Y-87654697D01*
X96021243Y-87587517D01*
X96213595Y-87395500D01*
X97479594Y-87395500D01*
X97486773Y-87402692D01*
X97830301Y-87545338D01*
X98202267Y-87545662D01*
X98546043Y-87403617D01*
X98554174Y-87395500D01*
X106567594Y-87395500D01*
X106574773Y-87402692D01*
X106918301Y-87545338D01*
X107290267Y-87545662D01*
X107634043Y-87403617D01*
X107897292Y-87140827D01*
X108039938Y-86797299D01*
X108040262Y-86425333D01*
X107898217Y-86081557D01*
X107635427Y-85818308D01*
X107291899Y-85675662D01*
X106919933Y-85675338D01*
X106576157Y-85817383D01*
X106568026Y-85825500D01*
X98554606Y-85825500D01*
X98547427Y-85818308D01*
X98203899Y-85675662D01*
X97831933Y-85675338D01*
X97488157Y-85817383D01*
X97480026Y-85825500D01*
X95676200Y-85825500D01*
X95505720Y-85859411D01*
X95307133Y-85859238D01*
X94963357Y-86001283D01*
X94700108Y-86264073D01*
X94632015Y-86428058D01*
X92873153Y-84669195D01*
X92873162Y-84659033D01*
X92839391Y-84577300D01*
X122167100Y-84577300D01*
X122467507Y-84517545D01*
X122722179Y-84347379D01*
X136646743Y-70422815D01*
X142364110Y-70422815D01*
X142688460Y-71207800D01*
X143288521Y-71808909D01*
X144072939Y-72134628D01*
X144922295Y-72135370D01*
X145707280Y-71811020D01*
X146308389Y-71210959D01*
X146634108Y-70426541D01*
X146634850Y-69577185D01*
X146310500Y-68792200D01*
X145710439Y-68191091D01*
X144926021Y-67865372D01*
X144076665Y-67864630D01*
X143291680Y-68188980D01*
X142690571Y-68789041D01*
X142364852Y-69573459D01*
X142364110Y-70422815D01*
X136646743Y-70422815D01*
X141066954Y-66002604D01*
X141334380Y-65892106D01*
X141653814Y-65573228D01*
X142365417Y-65573228D01*
X142427071Y-65808840D01*
X142927480Y-65984967D01*
X143457199Y-65956188D01*
X143812929Y-65808840D01*
X143874583Y-65573228D01*
X143120000Y-64818645D01*
X142365417Y-65573228D01*
X141653814Y-65573228D01*
X141709827Y-65517313D01*
X141868595Y-65134957D01*
X141950200Y-65331969D01*
X142185812Y-65393623D01*
X142940395Y-64639040D01*
X143299605Y-64639040D01*
X144054188Y-65393623D01*
X144289800Y-65331969D01*
X144314060Y-65263042D01*
X144314060Y-65459460D01*
X144358338Y-65694777D01*
X144497410Y-65910901D01*
X144709610Y-66055891D01*
X144961500Y-66106900D01*
X146358500Y-66106900D01*
X146593817Y-66062622D01*
X146809941Y-65923550D01*
X146954931Y-65711350D01*
X147005940Y-65459460D01*
X147005940Y-64062460D01*
X146961662Y-63827143D01*
X146822590Y-63611019D01*
X146610390Y-63466029D01*
X146358500Y-63415020D01*
X144961500Y-63415020D01*
X144726183Y-63459298D01*
X144510059Y-63598370D01*
X144365069Y-63810570D01*
X144321919Y-64023653D01*
X144289800Y-63946111D01*
X144054188Y-63884457D01*
X143299605Y-64639040D01*
X142940395Y-64639040D01*
X142185812Y-63884457D01*
X141950200Y-63946111D01*
X141828744Y-64291190D01*
X141711146Y-64006580D01*
X141409944Y-63704852D01*
X142365417Y-63704852D01*
X143120000Y-64459435D01*
X143874583Y-63704852D01*
X143812929Y-63469240D01*
X143312520Y-63293113D01*
X142782801Y-63321892D01*
X142427071Y-63469240D01*
X142365417Y-63704852D01*
X141409944Y-63704852D01*
X141336353Y-63631133D01*
X140846413Y-63427692D01*
X140315914Y-63427229D01*
X139825620Y-63629814D01*
X139450173Y-64004607D01*
X139335157Y-64281597D01*
X139171146Y-63884660D01*
X138796353Y-63509213D01*
X138306413Y-63305772D01*
X137775914Y-63305309D01*
X137285620Y-63507894D01*
X136910173Y-63882687D01*
X136744656Y-64281296D01*
X136631146Y-64006580D01*
X136256353Y-63631133D01*
X135766413Y-63427692D01*
X135235914Y-63427229D01*
X134745620Y-63629814D01*
X134370173Y-64004607D01*
X134255157Y-64281597D01*
X134091146Y-63884660D01*
X133716353Y-63509213D01*
X133226413Y-63305772D01*
X132695914Y-63305309D01*
X132205620Y-63507894D01*
X131830173Y-63882687D01*
X131664656Y-64281296D01*
X131551146Y-64006580D01*
X131176353Y-63631133D01*
X130686413Y-63427692D01*
X130155914Y-63427229D01*
X129665620Y-63629814D01*
X129290173Y-64004607D01*
X129175157Y-64281597D01*
X129011146Y-63884660D01*
X128636353Y-63509213D01*
X128146413Y-63305772D01*
X127615914Y-63305309D01*
X127125620Y-63507894D01*
X126750173Y-63882687D01*
X126584656Y-64281296D01*
X126471146Y-64006580D01*
X126096353Y-63631133D01*
X125606413Y-63427692D01*
X125075914Y-63427229D01*
X124585620Y-63629814D01*
X124210173Y-64004607D01*
X124006732Y-64494547D01*
X124006269Y-65025046D01*
X124208854Y-65515340D01*
X124583647Y-65890787D01*
X125073587Y-66094228D01*
X125314404Y-66094438D01*
X110782042Y-80626800D01*
X101114068Y-80626800D01*
X109919963Y-71820905D01*
X109972581Y-71856064D01*
X110560000Y-71972909D01*
X111147419Y-71856064D01*
X111645409Y-71523318D01*
X111830000Y-71247058D01*
X112014591Y-71523318D01*
X112512581Y-71856064D01*
X113100000Y-71972909D01*
X113687419Y-71856064D01*
X114185409Y-71523318D01*
X114518155Y-71025328D01*
X114635000Y-70437909D01*
X114635000Y-69562091D01*
X114518155Y-68974672D01*
X114185409Y-68476682D01*
X113687419Y-68143936D01*
X113100000Y-68027091D01*
X112714024Y-68103866D01*
X112398879Y-67788721D01*
X112144207Y-67618555D01*
X111843800Y-67558800D01*
X81336200Y-67558800D01*
X81035793Y-67618555D01*
X80781121Y-67788721D01*
X80465976Y-68103866D01*
X80080000Y-68027091D01*
X79492581Y-68143936D01*
X78994591Y-68476682D01*
X78810000Y-68752942D01*
X78625409Y-68476682D01*
X78127419Y-68143936D01*
X77540000Y-68027091D01*
X76952581Y-68143936D01*
X76899963Y-68179095D01*
X75621634Y-66900766D01*
X75350741Y-66719761D01*
X75031200Y-66656200D01*
X62475000Y-66656200D01*
X62475000Y-64820666D01*
X62769827Y-64526353D01*
X62973268Y-64036413D01*
X62973731Y-63505914D01*
X62771146Y-63015620D01*
X62396353Y-62640173D01*
X62241663Y-62575940D01*
X62338500Y-62575940D01*
X62573817Y-62531662D01*
X62789941Y-62392590D01*
X62934931Y-62180390D01*
X62985940Y-61928500D01*
X62985940Y-60531500D01*
X62941662Y-60296183D01*
X62802590Y-60080059D01*
X62590390Y-59935069D01*
X62338500Y-59884060D01*
X60941500Y-59884060D01*
X60706183Y-59928338D01*
X60490059Y-60067410D01*
X60345069Y-60279610D01*
X60294060Y-60531500D01*
X60294060Y-60627884D01*
X60231146Y-60475620D01*
X59856353Y-60100173D01*
X59366413Y-59896732D01*
X58835914Y-59896269D01*
X58345620Y-60098854D01*
X57970173Y-60473647D01*
X57829906Y-60811446D01*
X57691146Y-60475620D01*
X57316353Y-60100173D01*
X56826413Y-59896732D01*
X56295914Y-59896269D01*
X55805620Y-60098854D01*
X55430173Y-60473647D01*
X55226732Y-60963587D01*
X55226269Y-61494086D01*
X55428854Y-61984380D01*
X55803647Y-62359827D01*
X56125118Y-62493314D01*
X55867071Y-62600200D01*
X55805417Y-62835812D01*
X56560000Y-63590395D01*
X57314583Y-62835812D01*
X57252929Y-62600200D01*
X56973688Y-62501917D01*
X57314380Y-62361146D01*
X57689827Y-61986353D01*
X57830094Y-61648554D01*
X57968854Y-61984380D01*
X58343647Y-62359827D01*
X58681446Y-62500094D01*
X58345620Y-62638854D01*
X57970173Y-63013647D01*
X57836686Y-63335118D01*
X57729800Y-63077071D01*
X57494188Y-63015417D01*
X56739605Y-63770000D01*
X57494188Y-64524583D01*
X57729800Y-64462929D01*
X57828083Y-64183688D01*
X57968854Y-64524380D01*
X58343647Y-64899827D01*
X58833587Y-65103268D01*
X59364086Y-65103731D01*
X59854380Y-64901146D01*
X60229827Y-64526353D01*
X60370094Y-64188554D01*
X60508854Y-64524380D01*
X60805000Y-64821043D01*
X60805000Y-66686275D01*
X60636660Y-66719760D01*
X60365766Y-66900766D01*
X58553732Y-68712800D01*
X53502900Y-68712800D01*
X53183359Y-68776361D01*
X53125532Y-68815000D01*
X52912466Y-68957366D01*
X52516052Y-69353780D01*
X52251920Y-69353780D01*
X52016603Y-69398058D01*
X51800479Y-69537130D01*
X51655489Y-69749330D01*
X51604480Y-70001220D01*
X50710000Y-70001220D01*
X50710000Y-64704188D01*
X55805417Y-64704188D01*
X55867071Y-64939800D01*
X56367480Y-65115927D01*
X56897199Y-65087148D01*
X57252929Y-64939800D01*
X57314583Y-64704188D01*
X56560000Y-63949605D01*
X55805417Y-64704188D01*
X50710000Y-64704188D01*
X50710000Y-63577480D01*
X55214073Y-63577480D01*
X55242852Y-64107199D01*
X55390200Y-64462929D01*
X55625812Y-64524583D01*
X56380395Y-63770000D01*
X55625812Y-63015417D01*
X55390200Y-63077071D01*
X55214073Y-63577480D01*
X50710000Y-63577480D01*
X50710000Y-50710000D01*
X105902990Y-50710000D01*
X105902990Y-52600840D01*
G36*
X91467473Y-86930592D02*
X91811001Y-87073238D01*
X91822490Y-87073248D01*
X91864811Y-87115569D01*
X91693108Y-87286973D01*
X91550462Y-87630501D01*
X91550138Y-88002467D01*
X91692183Y-88346243D01*
X91954973Y-88609492D01*
X92298501Y-88752138D01*
X92309990Y-88752148D01*
X94707021Y-91149179D01*
X94961693Y-91319345D01*
X95262100Y-91379100D01*
X118635931Y-91379100D01*
X118563762Y-91552901D01*
X118563752Y-91564390D01*
X117897042Y-92231100D01*
X90510041Y-92231100D01*
X90510162Y-92092333D01*
X90368117Y-91748557D01*
X90105327Y-91485308D01*
X89761799Y-91342662D01*
X89750310Y-91342652D01*
X89647567Y-91239909D01*
X89772879Y-91156179D01*
X90249805Y-90679253D01*
X90259967Y-90679262D01*
X90603743Y-90537217D01*
X90866992Y-90274427D01*
X91009638Y-89930899D01*
X91009962Y-89558933D01*
X90867917Y-89215157D01*
X90605127Y-88951908D01*
X90261599Y-88809262D01*
X89889633Y-88808938D01*
X89545857Y-88950983D01*
X89282608Y-89213773D01*
X89139962Y-89557301D01*
X89139952Y-89568790D01*
X88892642Y-89816100D01*
X88076258Y-89816100D01*
X91214840Y-86677518D01*
X91467473Y-86930592D01*
X91467473Y-86930592D01*
G37*
X91467473Y-86930592D02*
X91811001Y-87073238D01*
X91822490Y-87073248D01*
X91864811Y-87115569D01*
X91693108Y-87286973D01*
X91550462Y-87630501D01*
X91550138Y-88002467D01*
X91692183Y-88346243D01*
X91954973Y-88609492D01*
X92298501Y-88752138D01*
X92309990Y-88752148D01*
X94707021Y-91149179D01*
X94961693Y-91319345D01*
X95262100Y-91379100D01*
X118635931Y-91379100D01*
X118563762Y-91552901D01*
X118563752Y-91564390D01*
X117897042Y-92231100D01*
X90510041Y-92231100D01*
X90510162Y-92092333D01*
X90368117Y-91748557D01*
X90105327Y-91485308D01*
X89761799Y-91342662D01*
X89750310Y-91342652D01*
X89647567Y-91239909D01*
X89772879Y-91156179D01*
X90249805Y-90679253D01*
X90259967Y-90679262D01*
X90603743Y-90537217D01*
X90866992Y-90274427D01*
X91009638Y-89930899D01*
X91009962Y-89558933D01*
X90867917Y-89215157D01*
X90605127Y-88951908D01*
X90261599Y-88809262D01*
X89889633Y-88808938D01*
X89545857Y-88950983D01*
X89282608Y-89213773D01*
X89139962Y-89557301D01*
X89139952Y-89568790D01*
X88892642Y-89816100D01*
X88076258Y-89816100D01*
X91214840Y-86677518D01*
X91467473Y-86930592D01*
G36*
X79281947Y-82157705D02*
X79281938Y-82167867D01*
X79423983Y-82511643D01*
X79686773Y-82774892D01*
X80030301Y-82917538D01*
X80402267Y-82917862D01*
X80746043Y-82775817D01*
X80819865Y-82702123D01*
X84632400Y-86514658D01*
X84632400Y-86586194D01*
X84625208Y-86593373D01*
X84482562Y-86936901D01*
X84482238Y-87308867D01*
X84567245Y-87514600D01*
X84488106Y-87514600D01*
X84480927Y-87507408D01*
X84137399Y-87364762D01*
X83765433Y-87364438D01*
X83421657Y-87506483D01*
X83268165Y-87659707D01*
X81684230Y-86075772D01*
X81923892Y-85836527D01*
X82066538Y-85492999D01*
X82066862Y-85121033D01*
X81924817Y-84777257D01*
X81662027Y-84514008D01*
X81318499Y-84371362D01*
X80946533Y-84371038D01*
X80602757Y-84513083D01*
X80594626Y-84521200D01*
X74028064Y-84521200D01*
X73965117Y-84368857D01*
X73702327Y-84105608D01*
X73358799Y-83962962D01*
X72986833Y-83962638D01*
X72643057Y-84104683D01*
X72379808Y-84367473D01*
X72237162Y-84711001D01*
X72236838Y-85082967D01*
X72255239Y-85127500D01*
X70325958Y-85127500D01*
X66706853Y-81508395D01*
X66706862Y-81498233D01*
X66564817Y-81154457D01*
X66302027Y-80891208D01*
X65958499Y-80748562D01*
X65586533Y-80748238D01*
X65242757Y-80890283D01*
X64979508Y-81153073D01*
X64837829Y-81494271D01*
X63324254Y-79980696D01*
X63324462Y-79741633D01*
X63182417Y-79397857D01*
X62919627Y-79134608D01*
X62576099Y-78991962D01*
X62392400Y-78991802D01*
X62392400Y-77007600D01*
X62332645Y-76707194D01*
X62332645Y-76707193D01*
X62162479Y-76452521D01*
X61099027Y-75389069D01*
X61147440Y-75150000D01*
X61147440Y-74250000D01*
X61116450Y-74085300D01*
X71209542Y-74085300D01*
X79281947Y-82157705D01*
X79281947Y-82157705D01*
G37*
X79281947Y-82157705D02*
X79281938Y-82167867D01*
X79423983Y-82511643D01*
X79686773Y-82774892D01*
X80030301Y-82917538D01*
X80402267Y-82917862D01*
X80746043Y-82775817D01*
X80819865Y-82702123D01*
X84632400Y-86514658D01*
X84632400Y-86586194D01*
X84625208Y-86593373D01*
X84482562Y-86936901D01*
X84482238Y-87308867D01*
X84567245Y-87514600D01*
X84488106Y-87514600D01*
X84480927Y-87507408D01*
X84137399Y-87364762D01*
X83765433Y-87364438D01*
X83421657Y-87506483D01*
X83268165Y-87659707D01*
X81684230Y-86075772D01*
X81923892Y-85836527D01*
X82066538Y-85492999D01*
X82066862Y-85121033D01*
X81924817Y-84777257D01*
X81662027Y-84514008D01*
X81318499Y-84371362D01*
X80946533Y-84371038D01*
X80602757Y-84513083D01*
X80594626Y-84521200D01*
X74028064Y-84521200D01*
X73965117Y-84368857D01*
X73702327Y-84105608D01*
X73358799Y-83962962D01*
X72986833Y-83962638D01*
X72643057Y-84104683D01*
X72379808Y-84367473D01*
X72237162Y-84711001D01*
X72236838Y-85082967D01*
X72255239Y-85127500D01*
X70325958Y-85127500D01*
X66706853Y-81508395D01*
X66706862Y-81498233D01*
X66564817Y-81154457D01*
X66302027Y-80891208D01*
X65958499Y-80748562D01*
X65586533Y-80748238D01*
X65242757Y-80890283D01*
X64979508Y-81153073D01*
X64837829Y-81494271D01*
X63324254Y-79980696D01*
X63324462Y-79741633D01*
X63182417Y-79397857D01*
X62919627Y-79134608D01*
X62576099Y-78991962D01*
X62392400Y-78991802D01*
X62392400Y-77007600D01*
X62332645Y-76707194D01*
X62332645Y-76707193D01*
X62162479Y-76452521D01*
X61099027Y-75389069D01*
X61147440Y-75150000D01*
X61147440Y-74250000D01*
X61116450Y-74085300D01*
X71209542Y-74085300D01*
X79281947Y-82157705D01*
G36*
X74004394Y-68424788D02*
X73630446Y-68895248D01*
X73465000Y-69473000D01*
X73465000Y-69873000D01*
X74873000Y-69873000D01*
X74873000Y-69853000D01*
X75127000Y-69853000D01*
X75127000Y-69873000D01*
X75147000Y-69873000D01*
X75147000Y-70127000D01*
X75127000Y-70127000D01*
X75127000Y-71770378D01*
X75364740Y-71891036D01*
X75470086Y-71866756D01*
X75995606Y-71575212D01*
X76263808Y-71237790D01*
X76454591Y-71523318D01*
X76952581Y-71856064D01*
X77540000Y-71972909D01*
X78127419Y-71856064D01*
X78625409Y-71523318D01*
X78810000Y-71247058D01*
X78994591Y-71523318D01*
X79492581Y-71856064D01*
X80080000Y-71972909D01*
X80667419Y-71856064D01*
X81165409Y-71523318D01*
X81350000Y-71247058D01*
X81534591Y-71523318D01*
X82032581Y-71856064D01*
X82620000Y-71972909D01*
X83207419Y-71856064D01*
X83705409Y-71523318D01*
X83896192Y-71237790D01*
X84164394Y-71575212D01*
X84689914Y-71866756D01*
X84795260Y-71891036D01*
X85033000Y-71770378D01*
X85033000Y-70127000D01*
X85013000Y-70127000D01*
X85013000Y-69873000D01*
X85033000Y-69873000D01*
X85033000Y-69853000D01*
X85287000Y-69853000D01*
X85287000Y-69873000D01*
X85307000Y-69873000D01*
X85307000Y-70127000D01*
X85287000Y-70127000D01*
X85287000Y-71770378D01*
X85524740Y-71891036D01*
X85630086Y-71866756D01*
X86155606Y-71575212D01*
X86423808Y-71237790D01*
X86614591Y-71523318D01*
X86915000Y-71724045D01*
X86915000Y-73140100D01*
X86974755Y-73440507D01*
X87144921Y-73695179D01*
X89323247Y-75873505D01*
X89323238Y-75883667D01*
X89329711Y-75899332D01*
X89221633Y-75899238D01*
X88877857Y-76041283D01*
X88614608Y-76304073D01*
X88471962Y-76647601D01*
X88471638Y-77019567D01*
X88613683Y-77363343D01*
X88876473Y-77626592D01*
X89220001Y-77769238D01*
X89591967Y-77769562D01*
X89935743Y-77627517D01*
X89943874Y-77619400D01*
X93965600Y-77619400D01*
X94266007Y-77559645D01*
X94520679Y-77389479D01*
X100014024Y-71896134D01*
X100400000Y-71972909D01*
X100987419Y-71856064D01*
X101485409Y-71523318D01*
X101670000Y-71247058D01*
X101854591Y-71523318D01*
X102352581Y-71856064D01*
X102940000Y-71972909D01*
X103325976Y-71896134D01*
X104697367Y-73267525D01*
X99406092Y-78558800D01*
X90481900Y-78558800D01*
X90181494Y-78618555D01*
X89926821Y-78788721D01*
X87466021Y-81249521D01*
X87295855Y-81504193D01*
X87278908Y-81589392D01*
X87236100Y-81804600D01*
X87236100Y-84519994D01*
X87228908Y-84527173D01*
X87086262Y-84870701D01*
X87085938Y-85242667D01*
X87227983Y-85586443D01*
X87490773Y-85849692D01*
X87605579Y-85897364D01*
X86885600Y-86617343D01*
X86885600Y-86089100D01*
X86838237Y-85850990D01*
X86825845Y-85788693D01*
X86655679Y-85534021D01*
X72866079Y-71744421D01*
X72611407Y-71574255D01*
X72311000Y-71514500D01*
X71005738Y-71514500D01*
X71309809Y-71210959D01*
X71635528Y-70426541D01*
X71635789Y-70127000D01*
X73465000Y-70127000D01*
X73465000Y-70527000D01*
X73630446Y-71104752D01*
X74004394Y-71575212D01*
X74529914Y-71866756D01*
X74635260Y-71891036D01*
X74873000Y-71770378D01*
X74873000Y-70127000D01*
X73465000Y-70127000D01*
X71635789Y-70127000D01*
X71636270Y-69577185D01*
X71311920Y-68792200D01*
X70846732Y-68326200D01*
X74182103Y-68326200D01*
X74004394Y-68424788D01*
X74004394Y-68424788D01*
G37*
X74004394Y-68424788D02*
X73630446Y-68895248D01*
X73465000Y-69473000D01*
X73465000Y-69873000D01*
X74873000Y-69873000D01*
X74873000Y-69853000D01*
X75127000Y-69853000D01*
X75127000Y-69873000D01*
X75147000Y-69873000D01*
X75147000Y-70127000D01*
X75127000Y-70127000D01*
X75127000Y-71770378D01*
X75364740Y-71891036D01*
X75470086Y-71866756D01*
X75995606Y-71575212D01*
X76263808Y-71237790D01*
X76454591Y-71523318D01*
X76952581Y-71856064D01*
X77540000Y-71972909D01*
X78127419Y-71856064D01*
X78625409Y-71523318D01*
X78810000Y-71247058D01*
X78994591Y-71523318D01*
X79492581Y-71856064D01*
X80080000Y-71972909D01*
X80667419Y-71856064D01*
X81165409Y-71523318D01*
X81350000Y-71247058D01*
X81534591Y-71523318D01*
X82032581Y-71856064D01*
X82620000Y-71972909D01*
X83207419Y-71856064D01*
X83705409Y-71523318D01*
X83896192Y-71237790D01*
X84164394Y-71575212D01*
X84689914Y-71866756D01*
X84795260Y-71891036D01*
X85033000Y-71770378D01*
X85033000Y-70127000D01*
X85013000Y-70127000D01*
X85013000Y-69873000D01*
X85033000Y-69873000D01*
X85033000Y-69853000D01*
X85287000Y-69853000D01*
X85287000Y-69873000D01*
X85307000Y-69873000D01*
X85307000Y-70127000D01*
X85287000Y-70127000D01*
X85287000Y-71770378D01*
X85524740Y-71891036D01*
X85630086Y-71866756D01*
X86155606Y-71575212D01*
X86423808Y-71237790D01*
X86614591Y-71523318D01*
X86915000Y-71724045D01*
X86915000Y-73140100D01*
X86974755Y-73440507D01*
X87144921Y-73695179D01*
X89323247Y-75873505D01*
X89323238Y-75883667D01*
X89329711Y-75899332D01*
X89221633Y-75899238D01*
X88877857Y-76041283D01*
X88614608Y-76304073D01*
X88471962Y-76647601D01*
X88471638Y-77019567D01*
X88613683Y-77363343D01*
X88876473Y-77626592D01*
X89220001Y-77769238D01*
X89591967Y-77769562D01*
X89935743Y-77627517D01*
X89943874Y-77619400D01*
X93965600Y-77619400D01*
X94266007Y-77559645D01*
X94520679Y-77389479D01*
X100014024Y-71896134D01*
X100400000Y-71972909D01*
X100987419Y-71856064D01*
X101485409Y-71523318D01*
X101670000Y-71247058D01*
X101854591Y-71523318D01*
X102352581Y-71856064D01*
X102940000Y-71972909D01*
X103325976Y-71896134D01*
X104697367Y-73267525D01*
X99406092Y-78558800D01*
X90481900Y-78558800D01*
X90181494Y-78618555D01*
X89926821Y-78788721D01*
X87466021Y-81249521D01*
X87295855Y-81504193D01*
X87278908Y-81589392D01*
X87236100Y-81804600D01*
X87236100Y-84519994D01*
X87228908Y-84527173D01*
X87086262Y-84870701D01*
X87085938Y-85242667D01*
X87227983Y-85586443D01*
X87490773Y-85849692D01*
X87605579Y-85897364D01*
X86885600Y-86617343D01*
X86885600Y-86089100D01*
X86838237Y-85850990D01*
X86825845Y-85788693D01*
X86655679Y-85534021D01*
X72866079Y-71744421D01*
X72611407Y-71574255D01*
X72311000Y-71514500D01*
X71005738Y-71514500D01*
X71309809Y-71210959D01*
X71635528Y-70426541D01*
X71635789Y-70127000D01*
X73465000Y-70127000D01*
X73465000Y-70527000D01*
X73630446Y-71104752D01*
X74004394Y-71575212D01*
X74529914Y-71866756D01*
X74635260Y-71891036D01*
X74873000Y-71770378D01*
X74873000Y-70127000D01*
X73465000Y-70127000D01*
X71635789Y-70127000D01*
X71636270Y-69577185D01*
X71311920Y-68792200D01*
X70846732Y-68326200D01*
X74182103Y-68326200D01*
X74004394Y-68424788D01*
G36*
X60822400Y-80081500D02*
X60882155Y-80381907D01*
X61052321Y-80636579D01*
X63830742Y-83415000D01*
X63339018Y-83415000D01*
X63264090Y-83298559D01*
X63051890Y-83153569D01*
X62800000Y-83102560D01*
X61600000Y-83102560D01*
X61364683Y-83146838D01*
X61148559Y-83285910D01*
X61100866Y-83355711D01*
X61064090Y-83298559D01*
X60851890Y-83153569D01*
X60600000Y-83102560D01*
X59400000Y-83102560D01*
X59164683Y-83146838D01*
X58948559Y-83285910D01*
X58830574Y-83458587D01*
X58749294Y-83474755D01*
X58494621Y-83644921D01*
X58175442Y-83964100D01*
X56553668Y-83964100D01*
X59940434Y-80577334D01*
X59994249Y-80496794D01*
X60121439Y-80306441D01*
X60185000Y-79986900D01*
X60185000Y-77997440D01*
X60500000Y-77997440D01*
X60735317Y-77953162D01*
X60822400Y-77897126D01*
X60822400Y-80081500D01*
X60822400Y-80081500D01*
G37*
X60822400Y-80081500D02*
X60882155Y-80381907D01*
X61052321Y-80636579D01*
X63830742Y-83415000D01*
X63339018Y-83415000D01*
X63264090Y-83298559D01*
X63051890Y-83153569D01*
X62800000Y-83102560D01*
X61600000Y-83102560D01*
X61364683Y-83146838D01*
X61148559Y-83285910D01*
X61100866Y-83355711D01*
X61064090Y-83298559D01*
X60851890Y-83153569D01*
X60600000Y-83102560D01*
X59400000Y-83102560D01*
X59164683Y-83146838D01*
X58948559Y-83285910D01*
X58830574Y-83458587D01*
X58749294Y-83474755D01*
X58494621Y-83644921D01*
X58175442Y-83964100D01*
X56553668Y-83964100D01*
X59940434Y-80577334D01*
X59994249Y-80496794D01*
X60121439Y-80306441D01*
X60185000Y-79986900D01*
X60185000Y-77997440D01*
X60500000Y-77997440D01*
X60735317Y-77953162D01*
X60822400Y-77897126D01*
X60822400Y-80081500D01*
G36*
X134368854Y-65515340D02*
X134743647Y-65890787D01*
X135233587Y-66094228D01*
X135764086Y-66094691D01*
X136254380Y-65892106D01*
X136629827Y-65517313D01*
X136795344Y-65118704D01*
X136908854Y-65393420D01*
X137255000Y-65740170D01*
X137255000Y-66887122D01*
X124927122Y-79215000D01*
X124100000Y-79215000D01*
X123799594Y-79274755D01*
X123544921Y-79444921D01*
X121862742Y-81127100D01*
X112502058Y-81127100D01*
X127656812Y-65972346D01*
X128144086Y-65972771D01*
X128634380Y-65770186D01*
X129009827Y-65395393D01*
X129124843Y-65118403D01*
X129288854Y-65515340D01*
X129663647Y-65890787D01*
X130153587Y-66094228D01*
X130684086Y-66094691D01*
X131174380Y-65892106D01*
X131549827Y-65517313D01*
X131715344Y-65118704D01*
X131828854Y-65393420D01*
X132203647Y-65768867D01*
X132693587Y-65972308D01*
X133224086Y-65972771D01*
X133714380Y-65770186D01*
X134089827Y-65395393D01*
X134204843Y-65118403D01*
X134368854Y-65515340D01*
X134368854Y-65515340D01*
G37*
X134368854Y-65515340D02*
X134743647Y-65890787D01*
X135233587Y-66094228D01*
X135764086Y-66094691D01*
X136254380Y-65892106D01*
X136629827Y-65517313D01*
X136795344Y-65118704D01*
X136908854Y-65393420D01*
X137255000Y-65740170D01*
X137255000Y-66887122D01*
X124927122Y-79215000D01*
X124100000Y-79215000D01*
X123799594Y-79274755D01*
X123544921Y-79444921D01*
X121862742Y-81127100D01*
X112502058Y-81127100D01*
X127656812Y-65972346D01*
X128144086Y-65972771D01*
X128634380Y-65770186D01*
X129009827Y-65395393D01*
X129124843Y-65118403D01*
X129288854Y-65515340D01*
X129663647Y-65890787D01*
X130153587Y-66094228D01*
X130684086Y-66094691D01*
X131174380Y-65892106D01*
X131549827Y-65517313D01*
X131715344Y-65118704D01*
X131828854Y-65393420D01*
X132203647Y-65768867D01*
X132693587Y-65972308D01*
X133224086Y-65972771D01*
X133714380Y-65770186D01*
X134089827Y-65395393D01*
X134204843Y-65118403D01*
X134368854Y-65515340D01*
G36*
X96774591Y-71523318D02*
X97272581Y-71856064D01*
X97740669Y-71949173D01*
X93640442Y-76049400D01*
X91125097Y-76049400D01*
X91193238Y-75885299D01*
X91193562Y-75513333D01*
X91051517Y-75169557D01*
X90788727Y-74906308D01*
X90445199Y-74763662D01*
X90433710Y-74763652D01*
X88485000Y-72814942D01*
X88485000Y-71724045D01*
X88785409Y-71523318D01*
X88970000Y-71247058D01*
X89154591Y-71523318D01*
X89652581Y-71856064D01*
X90240000Y-71972909D01*
X90827419Y-71856064D01*
X91325409Y-71523318D01*
X91510000Y-71247058D01*
X91694591Y-71523318D01*
X92192581Y-71856064D01*
X92780000Y-71972909D01*
X93367419Y-71856064D01*
X93865409Y-71523318D01*
X94050000Y-71247058D01*
X94234591Y-71523318D01*
X94732581Y-71856064D01*
X95320000Y-71972909D01*
X95907419Y-71856064D01*
X96405409Y-71523318D01*
X96590000Y-71247058D01*
X96774591Y-71523318D01*
X96774591Y-71523318D01*
G37*
X96774591Y-71523318D02*
X97272581Y-71856064D01*
X97740669Y-71949173D01*
X93640442Y-76049400D01*
X91125097Y-76049400D01*
X91193238Y-75885299D01*
X91193562Y-75513333D01*
X91051517Y-75169557D01*
X90788727Y-74906308D01*
X90445199Y-74763662D01*
X90433710Y-74763652D01*
X88485000Y-72814942D01*
X88485000Y-71724045D01*
X88785409Y-71523318D01*
X88970000Y-71247058D01*
X89154591Y-71523318D01*
X89652581Y-71856064D01*
X90240000Y-71972909D01*
X90827419Y-71856064D01*
X91325409Y-71523318D01*
X91510000Y-71247058D01*
X91694591Y-71523318D01*
X92192581Y-71856064D01*
X92780000Y-71972909D01*
X93367419Y-71856064D01*
X93865409Y-71523318D01*
X94050000Y-71247058D01*
X94234591Y-71523318D01*
X94732581Y-71856064D01*
X95320000Y-71972909D01*
X95907419Y-71856064D01*
X96405409Y-71523318D01*
X96590000Y-71247058D01*
X96774591Y-71523318D01*
G36*
X67691991Y-68789041D02*
X67366272Y-69573459D01*
X67365530Y-70422815D01*
X67689880Y-71207800D01*
X67996045Y-71514500D01*
X66434058Y-71514500D01*
X66402553Y-71482995D01*
X66402562Y-71472833D01*
X66260517Y-71129057D01*
X65997727Y-70865808D01*
X65654199Y-70723162D01*
X65282233Y-70722838D01*
X64938457Y-70864883D01*
X64675208Y-71127673D01*
X64532562Y-71471201D01*
X64532238Y-71843167D01*
X64603196Y-72014900D01*
X62625058Y-72014900D01*
X61255379Y-70645221D01*
X61147440Y-70573099D01*
X61147440Y-69950000D01*
X61103162Y-69714683D01*
X60964090Y-69498559D01*
X60751890Y-69353569D01*
X60500000Y-69302560D01*
X60325708Y-69302560D01*
X61302068Y-68326200D01*
X68155640Y-68326200D01*
X67691991Y-68789041D01*
X67691991Y-68789041D01*
G37*
X67691991Y-68789041D02*
X67366272Y-69573459D01*
X67365530Y-70422815D01*
X67689880Y-71207800D01*
X67996045Y-71514500D01*
X66434058Y-71514500D01*
X66402553Y-71482995D01*
X66402562Y-71472833D01*
X66260517Y-71129057D01*
X65997727Y-70865808D01*
X65654199Y-70723162D01*
X65282233Y-70722838D01*
X64938457Y-70864883D01*
X64675208Y-71127673D01*
X64532562Y-71471201D01*
X64532238Y-71843167D01*
X64603196Y-72014900D01*
X62625058Y-72014900D01*
X61255379Y-70645221D01*
X61147440Y-70573099D01*
X61147440Y-69950000D01*
X61103162Y-69714683D01*
X60964090Y-69498559D01*
X60751890Y-69353569D01*
X60500000Y-69302560D01*
X60325708Y-69302560D01*
X61302068Y-68326200D01*
X68155640Y-68326200D01*
X67691991Y-68789041D01*
G36*
X124064847Y-115175005D02*
X124064838Y-115185167D01*
X124085451Y-115235055D01*
X124016919Y-115248687D01*
X123608145Y-115521820D01*
X123335012Y-115930594D01*
X123239100Y-116412775D01*
X123239100Y-116462145D01*
X123328980Y-116914000D01*
X123263000Y-116914000D01*
X123240606Y-116918454D01*
X123030327Y-116707808D01*
X122686799Y-116565162D01*
X122675310Y-116565152D01*
X121555079Y-115444921D01*
X121300407Y-115274755D01*
X121000000Y-115215000D01*
X118097010Y-115215000D01*
X118097010Y-112900060D01*
X118075360Y-112785000D01*
X121674842Y-112785000D01*
X124064847Y-115175005D01*
X124064847Y-115175005D01*
G37*
X124064847Y-115175005D02*
X124064838Y-115185167D01*
X124085451Y-115235055D01*
X124016919Y-115248687D01*
X123608145Y-115521820D01*
X123335012Y-115930594D01*
X123239100Y-116412775D01*
X123239100Y-116462145D01*
X123328980Y-116914000D01*
X123263000Y-116914000D01*
X123240606Y-116918454D01*
X123030327Y-116707808D01*
X122686799Y-116565162D01*
X122675310Y-116565152D01*
X121555079Y-115444921D01*
X121300407Y-115274755D01*
X121000000Y-115215000D01*
X118097010Y-115215000D01*
X118097010Y-112900060D01*
X118075360Y-112785000D01*
X121674842Y-112785000D01*
X124064847Y-115175005D01*
G36*
X109502170Y-58099940D02*
X109546448Y-58335257D01*
X109685520Y-58551381D01*
X109897720Y-58696371D01*
X110149610Y-58747380D01*
X110506209Y-58747380D01*
X110560232Y-58828232D01*
X110644856Y-58954914D01*
X110939936Y-59250063D01*
X105860819Y-64329700D01*
X97415746Y-64329700D01*
X97436757Y-64279100D01*
X97437242Y-63723339D01*
X97225010Y-63209697D01*
X97016168Y-63000490D01*
X97223629Y-62793390D01*
X97226698Y-62786000D01*
X100569000Y-62786000D01*
X100569026Y-62785995D01*
X100569053Y-62786000D01*
X100715695Y-62756820D01*
X100869406Y-62726245D01*
X100869430Y-62726229D01*
X100869456Y-62726224D01*
X100992479Y-62644011D01*
X101124079Y-62556079D01*
X101124095Y-62556055D01*
X101124116Y-62556041D01*
X103334076Y-60345781D01*
X103334079Y-60345779D01*
X103334081Y-60345776D01*
X103334116Y-60345741D01*
X103415238Y-60224315D01*
X103504245Y-60091106D01*
X103504250Y-60091079D01*
X103504265Y-60091057D01*
X103533717Y-59942941D01*
X103564000Y-59790700D01*
X103564000Y-59174264D01*
X105902990Y-56835339D01*
X105902990Y-58099940D01*
X105947268Y-58335257D01*
X106086340Y-58551381D01*
X106298540Y-58696371D01*
X106550430Y-58747380D01*
X108549410Y-58747380D01*
X108784727Y-58703102D01*
X109000851Y-58564030D01*
X109145841Y-58351830D01*
X109196850Y-58099940D01*
X109196850Y-56035200D01*
X109502170Y-56035200D01*
X109502170Y-58099940D01*
X109502170Y-58099940D01*
G37*
X109502170Y-58099940D02*
X109546448Y-58335257D01*
X109685520Y-58551381D01*
X109897720Y-58696371D01*
X110149610Y-58747380D01*
X110506209Y-58747380D01*
X110560232Y-58828232D01*
X110644856Y-58954914D01*
X110939936Y-59250063D01*
X105860819Y-64329700D01*
X97415746Y-64329700D01*
X97436757Y-64279100D01*
X97437242Y-63723339D01*
X97225010Y-63209697D01*
X97016168Y-63000490D01*
X97223629Y-62793390D01*
X97226698Y-62786000D01*
X100569000Y-62786000D01*
X100569026Y-62785995D01*
X100569053Y-62786000D01*
X100715695Y-62756820D01*
X100869406Y-62726245D01*
X100869430Y-62726229D01*
X100869456Y-62726224D01*
X100992479Y-62644011D01*
X101124079Y-62556079D01*
X101124095Y-62556055D01*
X101124116Y-62556041D01*
X103334076Y-60345781D01*
X103334079Y-60345779D01*
X103334081Y-60345776D01*
X103334116Y-60345741D01*
X103415238Y-60224315D01*
X103504245Y-60091106D01*
X103504250Y-60091079D01*
X103504265Y-60091057D01*
X103533717Y-59942941D01*
X103564000Y-59790700D01*
X103564000Y-59174264D01*
X105902990Y-56835339D01*
X105902990Y-58099940D01*
X105947268Y-58335257D01*
X106086340Y-58551381D01*
X106298540Y-58696371D01*
X106550430Y-58747380D01*
X108549410Y-58747380D01*
X108784727Y-58703102D01*
X109000851Y-58564030D01*
X109145841Y-58351830D01*
X109196850Y-58099940D01*
X109196850Y-56035200D01*
X109502170Y-56035200D01*
X109502170Y-58099940D01*
M02*
