G04 #@! TF.FileFunction,Copper,L2,Bot,Signal*
%FSLAX46Y46*%
G04 Gerber Fmt 4.6, Leading zero omitted, Abs format (unit mm)*
G04 Created by KiCad (PCBNEW 4.0.5+dfsg1-4) date Sun Feb 26 13:13:11 2017*
%MOMM*%
%LPD*%
G01*
G04 APERTURE LIST*
%ADD10C,0.100000*%
%ADD11O,1.800000X2.600000*%
%ADD12C,3.000000*%
%ADD13C,1.501140*%
%ADD14C,2.999740*%
%ADD15C,1.524000*%
%ADD16C,2.700020*%
%ADD17O,1.250000X1.250000*%
%ADD18O,1.800000X1.550000*%
%ADD19C,3.500000*%
%ADD20O,1.000000X1.800000*%
%ADD21O,1.000000X2.100000*%
%ADD22R,0.750000X1.200000*%
%ADD23R,1.200000X0.750000*%
%ADD24R,1.397000X1.397000*%
%ADD25C,1.397000*%
%ADD26O,1.550000X1.800000*%
%ADD27R,0.900000X1.200000*%
%ADD28R,1.200000X0.900000*%
%ADD29R,0.550000X1.500000*%
%ADD30R,1.500000X0.550000*%
%ADD31R,1.550000X0.600000*%
%ADD32R,1.400000X1.200000*%
%ADD33R,2.150000X1.100000*%
%ADD34C,0.600000*%
%ADD35C,0.300000*%
%ADD36C,0.400000*%
%ADD37C,0.254000*%
G04 APERTURE END LIST*
D10*
D11*
X75000000Y-70000000D03*
X77540000Y-70000000D03*
X80080000Y-70000000D03*
X82620000Y-70000000D03*
X85160000Y-70000000D03*
X87700000Y-70000000D03*
X90240000Y-70000000D03*
X92780000Y-70000000D03*
X95320000Y-70000000D03*
X97860000Y-70000000D03*
X100400000Y-70000000D03*
X102940000Y-70000000D03*
X105480000Y-70000000D03*
X108020000Y-70000000D03*
X110560000Y-70000000D03*
X113100000Y-70000000D03*
D12*
X69500900Y-70000000D03*
X69500900Y-101000700D03*
X144499480Y-101000700D03*
X144499480Y-70000000D03*
D13*
X71887140Y-62002120D03*
X74427140Y-62002120D03*
X76459140Y-62002120D03*
X78999140Y-62002120D03*
D14*
X68839140Y-59335120D03*
X82555140Y-59335120D03*
D15*
X96040000Y-64000000D03*
X93500000Y-64000000D03*
X93500000Y-62001020D03*
X96040000Y-62001020D03*
D16*
X100769480Y-59301000D03*
X88770520Y-59301000D03*
D17*
X129500900Y-54562540D03*
X124500900Y-54562540D03*
D18*
X130500900Y-51862540D03*
X123500900Y-51862540D03*
D17*
X124499100Y-116437460D03*
X129499100Y-116437460D03*
D18*
X123499100Y-119137460D03*
X130499100Y-119137460D03*
D13*
X78112860Y-108997880D03*
X75572860Y-108997880D03*
X73540860Y-108997880D03*
X71000860Y-108997880D03*
D14*
X81160860Y-111664880D03*
X67444860Y-111664880D03*
D15*
X93460000Y-107000000D03*
X96000000Y-107000000D03*
X96000000Y-108998980D03*
X93460000Y-108998980D03*
D16*
X88730520Y-111699000D03*
X100729480Y-111699000D03*
D19*
X54500000Y-95500000D03*
X54500000Y-100300000D03*
X58700000Y-95500000D03*
X58700000Y-100300000D03*
X62900000Y-95500000D03*
X62900000Y-100300000D03*
D20*
X146140000Y-52110000D03*
X137500000Y-52110000D03*
D21*
X146140000Y-56290000D03*
X137500000Y-56290000D03*
D20*
X137360000Y-118890000D03*
X146000000Y-118890000D03*
D21*
X137360000Y-114710000D03*
X146000000Y-114710000D03*
D22*
X71700000Y-85050000D03*
X71700000Y-86950000D03*
D23*
X119950000Y-90400000D03*
X118050000Y-90400000D03*
D22*
X106600000Y-84350000D03*
X106600000Y-82450000D03*
X124600000Y-92350000D03*
X124600000Y-90450000D03*
D23*
X76450000Y-89500000D03*
X74550000Y-89500000D03*
D22*
X98900000Y-86650000D03*
X98900000Y-84750000D03*
D23*
X73550000Y-74400000D03*
X75450000Y-74400000D03*
X73450000Y-78900000D03*
X75350000Y-78900000D03*
D24*
X61640000Y-61230000D03*
D25*
X61640000Y-63770000D03*
X59100000Y-61230000D03*
X59100000Y-63770000D03*
X56560000Y-61230000D03*
X56560000Y-63770000D03*
D17*
X54162540Y-82899100D03*
X54162540Y-87899100D03*
D26*
X51462540Y-81899100D03*
X51462540Y-88899100D03*
D25*
X140380000Y-106560960D03*
X137840000Y-106439040D03*
X135300000Y-106560960D03*
X132760000Y-106439040D03*
X130220000Y-106560960D03*
X142920000Y-106439040D03*
X127680000Y-106439040D03*
D24*
X145460000Y-106560960D03*
D25*
X125140000Y-106560960D03*
D27*
X135000000Y-74300000D03*
X135000000Y-72100000D03*
X99000000Y-81600000D03*
X99000000Y-79400000D03*
D28*
X73400000Y-76600000D03*
X75600000Y-76600000D03*
D27*
X113000000Y-74600000D03*
X113000000Y-76800000D03*
D28*
X117800000Y-83800000D03*
X120000000Y-83800000D03*
X120000000Y-88200000D03*
X117800000Y-88200000D03*
X117800000Y-86000000D03*
X120000000Y-86000000D03*
D27*
X108600000Y-84600000D03*
X108600000Y-82400000D03*
D28*
X117800000Y-79700000D03*
X120000000Y-79700000D03*
X133300000Y-79800000D03*
X131100000Y-79800000D03*
X120000000Y-81800000D03*
X117800000Y-81800000D03*
X120000000Y-92700000D03*
X117800000Y-92700000D03*
X133200000Y-92400000D03*
X131000000Y-92400000D03*
D29*
X92100000Y-91000000D03*
X91300000Y-91000000D03*
X90500000Y-91000000D03*
X89700000Y-91000000D03*
X88900000Y-91000000D03*
X88100000Y-91000000D03*
X87300000Y-91000000D03*
X86500000Y-91000000D03*
X85700000Y-91000000D03*
X84900000Y-91000000D03*
X84100000Y-91000000D03*
D30*
X82400000Y-89300000D03*
X82400000Y-88500000D03*
X82400000Y-87700000D03*
X82400000Y-86900000D03*
X82400000Y-86100000D03*
X82400000Y-85300000D03*
X82400000Y-84500000D03*
X82400000Y-83700000D03*
X82400000Y-82900000D03*
X82400000Y-82100000D03*
X82400000Y-81300000D03*
D29*
X84100000Y-79600000D03*
X84900000Y-79600000D03*
X85700000Y-79600000D03*
X86500000Y-79600000D03*
X87300000Y-79600000D03*
X88100000Y-79600000D03*
X88900000Y-79600000D03*
X89700000Y-79600000D03*
X90500000Y-79600000D03*
X91300000Y-79600000D03*
X92100000Y-79600000D03*
D30*
X93800000Y-81300000D03*
X93800000Y-82100000D03*
X93800000Y-82900000D03*
X93800000Y-83700000D03*
X93800000Y-84500000D03*
X93800000Y-85300000D03*
X93800000Y-86100000D03*
X93800000Y-86900000D03*
X93800000Y-87700000D03*
X93800000Y-88500000D03*
X93800000Y-89300000D03*
D31*
X110400000Y-89095000D03*
X110400000Y-90365000D03*
X110400000Y-91635000D03*
X110400000Y-92905000D03*
X105000000Y-92905000D03*
X105000000Y-91635000D03*
X105000000Y-90365000D03*
X105000000Y-89095000D03*
X129400000Y-87905000D03*
X129400000Y-86635000D03*
X129400000Y-85365000D03*
X129400000Y-84095000D03*
X134800000Y-84095000D03*
X134800000Y-85365000D03*
X134800000Y-86635000D03*
X134800000Y-87905000D03*
D32*
X74500000Y-85000000D03*
X76700000Y-85000000D03*
X74500000Y-86600000D03*
X76700000Y-86600000D03*
D25*
X140580000Y-64760960D03*
X138040000Y-64639040D03*
X135500000Y-64760960D03*
X132960000Y-64639040D03*
X130420000Y-64760960D03*
X143120000Y-64639040D03*
X127880000Y-64639040D03*
D24*
X145660000Y-64760960D03*
D25*
X125340000Y-64760960D03*
D33*
X76075000Y-81800000D03*
X73125000Y-81800000D03*
D34*
X98000000Y-116700000D03*
X103500000Y-114800000D03*
X79900000Y-94900000D03*
X88900000Y-105600000D03*
X121100000Y-114700000D03*
X98600000Y-92100000D03*
X113100000Y-87000000D03*
X127700000Y-90100000D03*
X122300000Y-87700000D03*
X109700000Y-86800000D03*
X134600000Y-94000000D03*
X130300000Y-82000000D03*
X117700000Y-95200000D03*
X123300000Y-102100000D03*
X134100000Y-76800000D03*
X138700000Y-76800000D03*
X126200000Y-74800000D03*
X117500000Y-69200000D03*
X89900000Y-72700000D03*
X87100000Y-75300000D03*
X92900000Y-74700000D03*
X84000000Y-74100000D03*
X113800000Y-61600000D03*
X106500000Y-61500000D03*
X74500000Y-64600000D03*
X81100000Y-64100000D03*
X60300000Y-82000000D03*
X61300000Y-90900000D03*
X62500000Y-70600000D03*
X65000000Y-69100000D03*
X59300000Y-66600000D03*
X62500000Y-75600000D03*
X86545100Y-81441400D03*
X119498600Y-91739700D03*
X144500000Y-58000000D03*
X139000000Y-58000000D03*
X124500000Y-56500000D03*
X127500000Y-56500000D03*
X122500000Y-117500000D03*
X126635000Y-117715000D03*
X123000000Y-54000000D03*
X128500000Y-53000000D03*
X140000000Y-55500000D03*
X143500000Y-55500000D03*
X125000000Y-115000000D03*
X128000000Y-115150000D03*
X139000000Y-113000000D03*
X144500000Y-113000000D03*
X140000000Y-115500000D03*
X143500000Y-115500000D03*
X81131700Y-85306200D03*
X73172000Y-84897800D03*
X98017100Y-86610500D03*
X107105100Y-86610500D03*
X95492300Y-86794400D03*
X95505800Y-80744500D03*
X80633200Y-87138700D03*
X66449200Y-83296200D03*
X85642400Y-88051000D03*
X65467400Y-71658000D03*
X84601000Y-88949900D03*
X65771700Y-81683400D03*
X81123200Y-87914900D03*
X62389300Y-79926800D03*
X90258400Y-75698500D03*
X89406800Y-76834400D03*
X88021100Y-85057500D03*
X83950600Y-88299600D03*
X92020300Y-81771600D03*
X91938000Y-84844200D03*
X91997800Y-86138400D03*
X92485300Y-87817300D03*
X85417400Y-87123700D03*
X80217100Y-81982700D03*
X89575000Y-92277500D03*
X90074800Y-89744100D03*
X124242500Y-80797200D03*
X89711400Y-82450300D03*
X95052500Y-83125300D03*
D35*
X103500000Y-114800000D02*
X121000000Y-114800000D01*
X88900000Y-107600000D02*
X98000000Y-116700000D01*
X74550000Y-89550000D02*
X79900000Y-94900000D01*
X88900000Y-105600000D02*
X88900000Y-107600000D01*
X121000000Y-114800000D02*
X121100000Y-114700000D01*
X117700000Y-95200000D02*
X101700000Y-95200000D01*
X101700000Y-95200000D02*
X98600000Y-92100000D01*
X117800000Y-95100000D02*
X117700000Y-95200000D01*
X117800000Y-92700000D02*
X117800000Y-95100000D01*
X74550000Y-89500000D02*
X74550000Y-89550000D01*
X134100000Y-76800000D02*
X131100000Y-79800000D01*
X131100000Y-79800000D02*
X131100000Y-79700000D01*
X131100000Y-79700000D02*
X126200000Y-74800000D01*
X87300000Y-75300000D02*
X89900000Y-72700000D01*
X87100000Y-75300000D02*
X87300000Y-75300000D01*
X113800000Y-61600000D02*
X106600000Y-61600000D01*
X106600000Y-61600000D02*
X106500000Y-61500000D01*
X56560000Y-63770000D02*
X56560000Y-78260000D01*
X56560000Y-78260000D02*
X60300000Y-82000000D01*
X62500000Y-75600000D02*
X62500000Y-70600000D01*
X59300000Y-67400000D02*
X62500000Y-70600000D01*
X59300000Y-66600000D02*
X59300000Y-67400000D01*
X73550000Y-74400000D02*
X73550000Y-73500000D01*
X75000000Y-70000000D02*
X75000000Y-71600000D01*
X75000000Y-71600000D02*
X73550000Y-73050000D01*
X73550000Y-73050000D02*
X73550000Y-73500000D01*
X73400000Y-76600000D02*
X73400000Y-75799700D01*
X73450000Y-80574700D02*
X73450000Y-78900000D01*
X73125000Y-80899700D02*
X73450000Y-80574700D01*
X73450000Y-77450300D02*
X73400000Y-77400300D01*
X73450000Y-78900000D02*
X73450000Y-77450300D01*
X73400000Y-76600000D02*
X73400000Y-77400300D01*
X73550000Y-75649700D02*
X73550000Y-74400000D01*
X73400000Y-75799700D02*
X73550000Y-75649700D01*
X118050000Y-90400000D02*
X118050000Y-91125300D01*
X117800000Y-89424700D02*
X118050000Y-89674700D01*
X117800000Y-88200000D02*
X117800000Y-89424700D01*
X118050000Y-90400000D02*
X118050000Y-89674700D01*
X73125000Y-81349800D02*
X73125000Y-80899700D01*
X117800000Y-91375300D02*
X118050000Y-91125300D01*
X117800000Y-92700000D02*
X117800000Y-91375300D01*
X117800000Y-92700000D02*
X117800000Y-93100100D01*
X110400000Y-92905000D02*
X111525300Y-92905000D01*
X74550000Y-89500000D02*
X74550000Y-88780000D01*
X71700000Y-86950000D02*
X72425300Y-86950000D01*
X82400000Y-86900000D02*
X83500300Y-86900000D01*
X117800000Y-88200000D02*
X117800000Y-87399700D01*
X129400000Y-84095000D02*
X128274700Y-84095000D01*
X111720400Y-93100100D02*
X117800000Y-93100100D01*
X111525300Y-92905000D02*
X111720400Y-93100100D01*
X131504100Y-95023100D02*
X142920000Y-106439000D01*
X119723000Y-95023100D02*
X131504100Y-95023100D01*
X117800000Y-93100100D02*
X119723000Y-95023100D01*
X73125000Y-81349800D02*
X73125000Y-81800000D01*
X74550000Y-88780000D02*
X74550000Y-88271800D01*
X73747100Y-88271800D02*
X72425300Y-86950000D01*
X74550000Y-88271800D02*
X73747100Y-88271800D01*
X73125000Y-81800000D02*
X73125000Y-82700300D01*
X84100000Y-79790600D02*
X84100000Y-80700300D01*
X84100000Y-79790600D02*
X84100000Y-79730900D01*
X84100000Y-79600000D02*
X84100000Y-79730900D01*
X76981000Y-82856400D02*
X75581200Y-84256200D01*
X77181500Y-82856400D02*
X76981000Y-82856400D01*
X80307000Y-79730900D02*
X77181500Y-82856400D01*
X84100000Y-79730900D02*
X80307000Y-79730900D01*
X74025300Y-82700300D02*
X75581200Y-84256200D01*
X73125000Y-82700300D02*
X74025300Y-82700300D01*
X74648000Y-88271800D02*
X74550000Y-88271800D01*
X75581200Y-87338600D02*
X74648000Y-88271800D01*
X75581200Y-84256200D02*
X75581200Y-87338600D01*
X110400000Y-92905000D02*
X109274700Y-92905000D01*
X102935300Y-84750000D02*
X98900000Y-84750000D01*
X108220100Y-90034800D02*
X102935300Y-84750000D01*
X108220100Y-91850400D02*
X108220100Y-90034800D01*
X109274700Y-92905000D02*
X108220100Y-91850400D01*
X97699700Y-82100000D02*
X94900300Y-82100000D01*
X98199700Y-81600000D02*
X97699700Y-82100000D01*
X99000000Y-81600000D02*
X98199700Y-81600000D01*
X93800000Y-82100000D02*
X94900300Y-82100000D01*
X84100000Y-86300300D02*
X83500300Y-86900000D01*
X84100000Y-80700300D02*
X84100000Y-86300300D01*
X98900000Y-84750000D02*
X98174700Y-84750000D01*
X93800000Y-88500000D02*
X94900300Y-88500000D01*
X98174700Y-85225600D02*
X98174700Y-84750000D01*
X94900300Y-88500000D02*
X98174700Y-85225600D01*
X104600300Y-76800000D02*
X99800300Y-81600000D01*
X113000000Y-76800000D02*
X104600300Y-76800000D01*
X99000000Y-81600000D02*
X99800300Y-81600000D01*
X131100000Y-79800000D02*
X131100000Y-78999700D01*
X130999900Y-78899600D02*
X131100000Y-78999700D01*
X119175100Y-78899600D02*
X130999900Y-78899600D01*
X119011700Y-79063000D02*
X119175100Y-78899600D01*
X119011700Y-80969100D02*
X119011700Y-79063000D01*
X119011700Y-86388100D02*
X119011700Y-80969100D01*
X118000100Y-87399700D02*
X119011700Y-86388100D01*
X117800000Y-87399700D02*
X118000100Y-87399700D01*
X126620700Y-84095000D02*
X128274700Y-84095000D01*
X123494800Y-80969100D02*
X126620700Y-84095000D01*
X119011700Y-80969100D02*
X123494800Y-80969100D01*
X131100000Y-71525900D02*
X131100000Y-78999700D01*
X136770000Y-65855900D02*
X131100000Y-71525900D01*
X141903100Y-65855900D02*
X136770000Y-65855900D01*
X143120000Y-64639000D02*
X141903100Y-65855900D01*
X114595400Y-76800000D02*
X113000000Y-76800000D01*
X125585500Y-65809900D02*
X114595400Y-76800000D01*
X128273200Y-65809900D02*
X125585500Y-65809900D01*
X129126900Y-64956200D02*
X128273200Y-65809900D01*
X129126900Y-64566000D02*
X129126900Y-64956200D01*
X130102800Y-63590100D02*
X129126900Y-64566000D01*
X135834800Y-63590100D02*
X130102800Y-63590100D01*
X136770000Y-64525300D02*
X135834800Y-63590100D01*
X136770000Y-65855900D02*
X136770000Y-64525300D01*
X86545100Y-83208300D02*
X87717400Y-84380600D01*
X86545100Y-81441400D02*
X86545100Y-83208300D01*
X87322500Y-84775500D02*
X87717400Y-84380600D01*
X87322500Y-85565100D02*
X87322500Y-84775500D01*
X88900000Y-87142600D02*
X87322500Y-85565100D01*
X88900000Y-91000000D02*
X88900000Y-87142600D01*
X92171300Y-88500000D02*
X93800000Y-88500000D01*
X89090100Y-85418800D02*
X92171300Y-88500000D01*
X89090100Y-85206700D02*
X89090100Y-85418800D01*
X88264000Y-84380600D02*
X89090100Y-85206700D01*
X87717400Y-84380600D02*
X88264000Y-84380600D01*
X129400000Y-86635000D02*
X128274700Y-86635000D01*
X124600000Y-92350000D02*
X123874700Y-92350000D01*
X123874700Y-86074900D02*
X123874700Y-86635000D01*
X120400100Y-82600300D02*
X123874700Y-86074900D01*
X120000000Y-82600300D02*
X120400100Y-82600300D01*
X123874700Y-86635000D02*
X128274700Y-86635000D01*
X120000000Y-81800000D02*
X120000000Y-82600300D01*
X123874700Y-86635000D02*
X123874700Y-91739700D01*
X123874700Y-91739700D02*
X123874700Y-92350000D01*
X123874700Y-91739700D02*
X119498600Y-91739700D01*
X58700000Y-100300000D02*
X63132600Y-104732600D01*
X73102400Y-110119700D02*
X79289800Y-110119700D01*
X63132600Y-104732600D02*
X68292900Y-104732600D01*
X68292900Y-104732600D02*
X72270900Y-108710600D01*
X144007500Y-105457300D02*
X131750600Y-93200400D01*
X72270900Y-108710600D02*
X72270900Y-109288200D01*
X72270900Y-109288200D02*
X73102400Y-110119700D01*
X79289800Y-110119700D02*
X83521900Y-105887600D01*
X142778600Y-108110900D02*
X144007500Y-106882000D01*
X83521900Y-105887600D02*
X83521900Y-105878100D01*
X83521900Y-105878100D02*
X85247990Y-104152010D01*
X85247990Y-104152010D02*
X119651290Y-104152010D01*
X119651290Y-104152010D02*
X123610180Y-108110900D01*
X123610180Y-108110900D02*
X142778600Y-108110900D01*
X144007500Y-106882000D02*
X144007500Y-105457300D01*
X124600000Y-90450000D02*
X125325300Y-90450000D01*
X125325300Y-90450000D02*
X125325300Y-93117100D01*
X129400000Y-85365000D02*
X130525300Y-85365000D01*
X120000000Y-92700000D02*
X120475200Y-92700000D01*
X121075600Y-93300400D02*
X120475200Y-92700000D01*
X125142000Y-93300400D02*
X121075600Y-93300400D01*
X125325300Y-93117100D02*
X125142000Y-93300400D01*
X125408600Y-93200400D02*
X125325300Y-93117100D01*
X131750600Y-93200400D02*
X125408600Y-93200400D01*
X131950400Y-93000600D02*
X131750600Y-93200400D01*
X131950400Y-86790100D02*
X131950400Y-93000600D01*
X130525300Y-85365000D02*
X131950400Y-86790100D01*
X139000000Y-58000000D02*
X144500000Y-58000000D01*
X73003000Y-60886200D02*
X71887100Y-62002100D01*
X80689900Y-60886200D02*
X73003000Y-60886200D01*
X81804700Y-62001000D02*
X80689900Y-60886200D01*
X93500000Y-62001000D02*
X81804700Y-62001000D01*
X55169500Y-95500000D02*
X54500000Y-95500000D01*
X67136200Y-83533300D02*
X55169500Y-95500000D01*
X67136200Y-66753000D02*
X67136200Y-83533300D01*
X71887100Y-62002100D02*
X67136200Y-66753000D01*
X74427100Y-62002100D02*
X74156300Y-62002100D01*
X74156300Y-62002100D02*
X73885500Y-62002100D01*
X67636600Y-90763400D02*
X62900000Y-95500000D01*
X67636600Y-68521800D02*
X67636600Y-90763400D01*
X74156300Y-62002100D02*
X67636600Y-68521800D01*
X114800000Y-64000000D02*
X122300000Y-56500000D01*
X122300000Y-56500000D02*
X124500000Y-56500000D01*
X96040000Y-64000000D02*
X114800000Y-64000000D01*
X127500000Y-56500000D02*
X124500000Y-56500000D01*
X124000000Y-117500000D02*
X122500000Y-117500000D01*
X124500000Y-118000000D02*
X124000000Y-117500000D01*
X125926000Y-118000000D02*
X124500000Y-118000000D01*
X126210000Y-117715000D02*
X125926000Y-118000000D01*
X126635000Y-117715000D02*
X126210000Y-117715000D01*
X101961000Y-117500000D02*
X93460000Y-108999000D01*
X122500000Y-117500000D02*
X101961000Y-117500000D01*
X94872000Y-65168000D02*
X96040000Y-64000000D01*
X76459100Y-65168000D02*
X94872000Y-65168000D01*
X76459100Y-65168000D02*
X76459100Y-62002100D01*
X76459100Y-65956300D02*
X76459100Y-65168000D01*
X70961500Y-71453900D02*
X76459100Y-65956300D01*
X70961500Y-87686500D02*
X70961500Y-71453900D01*
X75572900Y-92297900D02*
X70961500Y-87686500D01*
X75572900Y-108997900D02*
X75572900Y-92297900D01*
X94770000Y-62730000D02*
X93500000Y-64000000D01*
X94770000Y-61619200D02*
X94770000Y-62730000D01*
X100370000Y-56019500D02*
X94770000Y-61619200D01*
X120980000Y-56019500D02*
X100370000Y-56019500D01*
X123000000Y-54000000D02*
X120980000Y-56019500D01*
X123500000Y-54000000D02*
X123000000Y-54000000D01*
X124500000Y-53000000D02*
X123500000Y-54000000D01*
X128500000Y-53000000D02*
X124500000Y-53000000D01*
X143500000Y-55500000D02*
X140000000Y-55500000D01*
X144500000Y-113000000D02*
X139000000Y-113000000D01*
X125150000Y-115150000D02*
X125000000Y-115000000D01*
X128000000Y-115150000D02*
X125150000Y-115150000D01*
X118999000Y-108999000D02*
X125000000Y-115000000D01*
X96000000Y-108999000D02*
X118999000Y-108999000D01*
X146708900Y-110791100D02*
X144500000Y-113000000D01*
X146708900Y-59116000D02*
X146708900Y-110791100D01*
X143500000Y-55907100D02*
X146708900Y-59116000D01*
X143500000Y-55500000D02*
X143500000Y-55907100D01*
X130501000Y-51862500D02*
X130501000Y-52425100D01*
X129501000Y-54562500D02*
X129500900Y-54562500D01*
X129501000Y-53587200D02*
X129501000Y-54562500D01*
X130100000Y-52987800D02*
X129501000Y-53587200D01*
X130501000Y-52987800D02*
X130100000Y-52987800D01*
X130501000Y-52425100D02*
X130501000Y-52987800D01*
X130500900Y-52425000D02*
X130500900Y-51862500D01*
X130501000Y-52425100D02*
X130500900Y-52425000D01*
X129500900Y-54562500D02*
X124501000Y-54562500D01*
X124501000Y-54562500D02*
X124500900Y-54562500D01*
X143500000Y-115500000D02*
X140000000Y-115500000D01*
X64843000Y-100300000D02*
X62900000Y-100300000D01*
X73540900Y-108997900D02*
X64843000Y-100300000D01*
X129499000Y-116438000D02*
X129499000Y-117232000D01*
X124499600Y-116438000D02*
X124499000Y-116438000D01*
X128704000Y-116438000D02*
X124499600Y-116438000D01*
X129499000Y-117232000D02*
X128704000Y-116438000D01*
X124499600Y-116438000D02*
X124499100Y-116437500D01*
X129499000Y-116437600D02*
X129499000Y-116438000D01*
X129499100Y-116437500D02*
X129499000Y-116437600D01*
X130499100Y-119137500D02*
X130499000Y-119137500D01*
X130499000Y-119138000D02*
X130499000Y-119137500D01*
X130279000Y-118012000D02*
X129499000Y-117232000D01*
X130499000Y-118012000D02*
X130279000Y-118012000D01*
X130499000Y-119137500D02*
X130499000Y-118012000D01*
X71700000Y-85050000D02*
X72425300Y-85050000D01*
X74500000Y-85000000D02*
X73449700Y-85000000D01*
X82400000Y-85300000D02*
X81299700Y-85300000D01*
X72577500Y-84897800D02*
X73172000Y-84897800D01*
X72425300Y-85050000D02*
X72577500Y-84897800D01*
X73347500Y-84897800D02*
X73172000Y-84897800D01*
X73449700Y-85000000D02*
X73347500Y-84897800D01*
X81293500Y-85306200D02*
X81131700Y-85306200D01*
X81299700Y-85300000D02*
X81293500Y-85306200D01*
X119950000Y-89050300D02*
X119950000Y-90400000D01*
X120000000Y-89000300D02*
X119950000Y-89050300D01*
X120000000Y-88200000D02*
X120000000Y-87399700D01*
X120000000Y-83800000D02*
X120000000Y-86000000D01*
X120000000Y-86000000D02*
X120000000Y-87399700D01*
X120000000Y-88200000D02*
X120000000Y-89000300D01*
X106600000Y-84350000D02*
X107325300Y-84350000D01*
X107575300Y-84600000D02*
X107325300Y-84350000D01*
X108600000Y-84600000D02*
X107575300Y-84600000D01*
X108600000Y-84600000D02*
X109400300Y-84600000D01*
X110400000Y-89095000D02*
X111525300Y-89095000D01*
X111525300Y-89095000D02*
X111525300Y-86725000D01*
X111525300Y-86725000D02*
X109400300Y-84600000D01*
X117800000Y-79700000D02*
X117800000Y-80500300D01*
X116450300Y-81800000D02*
X117800000Y-81800000D01*
X111525300Y-86725000D02*
X116450300Y-81800000D01*
X117800000Y-81800000D02*
X117800000Y-80500300D01*
X117800000Y-86000000D02*
X117800000Y-86800300D01*
X107749700Y-82450000D02*
X107799700Y-82400000D01*
X106600000Y-82450000D02*
X107749700Y-82450000D01*
X108600000Y-82400000D02*
X107799700Y-82400000D01*
X112165000Y-91635000D02*
X110400000Y-91635000D01*
X116999700Y-86800300D02*
X112165000Y-91635000D01*
X117800000Y-86800300D02*
X116999700Y-86800300D01*
X110400000Y-91635000D02*
X109274700Y-91635000D01*
X106600000Y-82450000D02*
X105874700Y-82450000D01*
X105874700Y-86981900D02*
X105874700Y-82450000D01*
X109274700Y-90381900D02*
X105874700Y-86981900D01*
X109274700Y-91635000D02*
X109274700Y-90381900D01*
X76700000Y-88524700D02*
X76450000Y-88774700D01*
X76700000Y-86600000D02*
X76700000Y-88524700D01*
X76450000Y-89500000D02*
X76450000Y-88774700D01*
X82400000Y-86100000D02*
X83500300Y-86100000D01*
X76700000Y-86600000D02*
X77750300Y-86600000D01*
X77750300Y-83456600D02*
X77750300Y-86600000D01*
X80532300Y-80674600D02*
X77750300Y-83456600D01*
X83354300Y-80674600D02*
X80532300Y-80674600D01*
X83500300Y-80820600D02*
X83354300Y-80674600D01*
X83500300Y-86100000D02*
X83500300Y-80820600D01*
X117290000Y-84600300D02*
X117800000Y-84600300D01*
X111525300Y-90365000D02*
X117290000Y-84600300D01*
X110400000Y-90365000D02*
X111525300Y-90365000D01*
X117800000Y-83800000D02*
X117800000Y-84600300D01*
X107105100Y-87462200D02*
X107105100Y-86610500D01*
X110007900Y-90365000D02*
X107105100Y-87462200D01*
X110400000Y-90365000D02*
X110007900Y-90365000D01*
X104127800Y-86650000D02*
X99625300Y-86650000D01*
X106660600Y-89182800D02*
X104127800Y-86650000D01*
X106660600Y-92369700D02*
X106660600Y-89182800D01*
X106125300Y-92905000D02*
X106660600Y-92369700D01*
X105000000Y-92905000D02*
X106125300Y-92905000D01*
X98900000Y-86650000D02*
X99625300Y-86650000D01*
X98056600Y-86650000D02*
X98017100Y-86610500D01*
X98900000Y-86650000D02*
X98056600Y-86650000D01*
X93800000Y-87700000D02*
X94900300Y-87700000D01*
X95492300Y-87108000D02*
X95492300Y-86794400D01*
X94900300Y-87700000D02*
X95492300Y-87108000D01*
D36*
X75450000Y-74400000D02*
X75450000Y-73900000D01*
X77540000Y-70000000D02*
X77540000Y-71700000D01*
X77540000Y-71700000D02*
X75450000Y-73790000D01*
X75450000Y-73790000D02*
X75450000Y-73900000D01*
X105000000Y-89095000D02*
X103824700Y-89095000D01*
X79240300Y-68299700D02*
X77540000Y-70000000D01*
X110560000Y-68299700D02*
X79240300Y-68299700D01*
X103619700Y-89300000D02*
X103824700Y-89095000D01*
X94950300Y-89300000D02*
X103619700Y-89300000D01*
X93800000Y-89300000D02*
X94950300Y-89300000D01*
X88100000Y-91000000D02*
X88100000Y-92150300D01*
X114888500Y-68299700D02*
X110560000Y-68299700D01*
X120178600Y-63009600D02*
X114888500Y-68299700D01*
X143908600Y-63009600D02*
X120178600Y-63009600D01*
X145660000Y-64761000D02*
X143908600Y-63009600D01*
X134800000Y-86635000D02*
X135975300Y-86635000D01*
X135000000Y-74300000D02*
X135850300Y-74300000D01*
X145660000Y-64761000D02*
X145660000Y-65859800D01*
X135975300Y-95977500D02*
X135975300Y-86635000D01*
X145460000Y-105462200D02*
X135975300Y-95977500D01*
X145460000Y-106561000D02*
X145460000Y-105462200D01*
X137094800Y-74425000D02*
X145660000Y-65859800D01*
X135975300Y-74425000D02*
X137094800Y-74425000D01*
X135975300Y-86635000D02*
X135975300Y-74425000D01*
X135975300Y-74425000D02*
X135850300Y-74300000D01*
X76075000Y-80400300D02*
X75350000Y-79675300D01*
X76075000Y-81800000D02*
X76075000Y-80400300D01*
X75350000Y-78900000D02*
X75350000Y-79287600D01*
X75350000Y-79287600D02*
X75350000Y-79675300D01*
X75600000Y-79037600D02*
X75600000Y-76600000D01*
X75350000Y-79287600D02*
X75600000Y-79037600D01*
X75600000Y-76600000D02*
X75600000Y-75749700D01*
X75450000Y-75599700D02*
X75600000Y-75749700D01*
X75450000Y-74400000D02*
X75450000Y-75599700D01*
X91300000Y-91000000D02*
X91300000Y-92000200D01*
X110560000Y-69637200D02*
X110560000Y-68299700D01*
X110560000Y-69637200D02*
X110560000Y-70000000D01*
X93800000Y-90898400D02*
X93800000Y-89300000D01*
X92501400Y-92197000D02*
X93800000Y-90898400D01*
X91300000Y-92197000D02*
X92501400Y-92197000D01*
X90492000Y-93005000D02*
X91300000Y-92197000D01*
X88954700Y-93005000D02*
X90492000Y-93005000D01*
X88100000Y-92150300D02*
X88954700Y-93005000D01*
X91300000Y-92197000D02*
X91300000Y-92000200D01*
X93800000Y-81300000D02*
X94950300Y-81300000D01*
X94950300Y-81300000D02*
X95505800Y-80744500D01*
X82400000Y-87700000D02*
X83550300Y-87700000D01*
X84900000Y-77360000D02*
X84900000Y-79600000D01*
X77540000Y-70000000D02*
X84900000Y-77360000D01*
X87300000Y-91000000D02*
X87300000Y-89849700D01*
X87300000Y-89849700D02*
X88100000Y-89849700D01*
X88100000Y-91000000D02*
X88100000Y-89849700D01*
X84900000Y-79600000D02*
X84900000Y-86353600D01*
X84896700Y-86353600D02*
X83550300Y-87700000D01*
X84900000Y-86353600D02*
X84896700Y-86353600D01*
X85642900Y-86353600D02*
X84900000Y-86353600D01*
X87300000Y-88010700D02*
X85642900Y-86353600D01*
X87300000Y-89849700D02*
X87300000Y-88010700D01*
D35*
X80471000Y-87300900D02*
X80633200Y-87138700D01*
X80471000Y-88891400D02*
X80471000Y-87300900D01*
X81545100Y-89965500D02*
X80471000Y-88891400D01*
X83516500Y-89965500D02*
X81545100Y-89965500D01*
X83582300Y-89899700D02*
X83516500Y-89965500D01*
X84100000Y-89899700D02*
X83582300Y-89899700D01*
X61640000Y-61230000D02*
X61640000Y-62278800D01*
X66449200Y-67088000D02*
X66449200Y-83296200D01*
X61640000Y-62278800D02*
X66449200Y-67088000D01*
X84100000Y-91000000D02*
X84100000Y-89899700D01*
X65467400Y-71658000D02*
X65467400Y-71233736D01*
X65467400Y-71233736D02*
X60370000Y-66136336D01*
X60370000Y-66136336D02*
X60370000Y-62500000D01*
X60370000Y-62500000D02*
X59100000Y-61230000D01*
X85642400Y-89842100D02*
X85642400Y-88051000D01*
X85700000Y-89899700D02*
X85642400Y-89842100D01*
X85700000Y-91000000D02*
X85700000Y-89899700D01*
X58330010Y-65527818D02*
X58330010Y-74241710D01*
X58330010Y-74241710D02*
X65771700Y-81683400D01*
X59100000Y-63770000D02*
X59100000Y-64757828D01*
X59100000Y-64757828D02*
X58330010Y-65527818D01*
X84900000Y-91000000D02*
X84900000Y-89899700D01*
X84601000Y-89600700D02*
X84601000Y-88949900D01*
X84900000Y-89899700D02*
X84601000Y-89600700D01*
X137203100Y-72100000D02*
X135000000Y-72100000D01*
X144209900Y-65093200D02*
X137203100Y-72100000D01*
X144209900Y-64230300D02*
X144209900Y-65093200D01*
X143539600Y-63560000D02*
X144209900Y-64230300D01*
X141781000Y-63560000D02*
X143539600Y-63560000D01*
X140580000Y-64761000D02*
X141781000Y-63560000D01*
X82400000Y-88500000D02*
X81299700Y-88500000D01*
X81299700Y-88091400D02*
X81123200Y-87914900D01*
X81299700Y-88500000D02*
X81299700Y-88091400D01*
X57830000Y-75367500D02*
X62389300Y-79926800D01*
X57830000Y-62500000D02*
X57830000Y-75367500D01*
X56560000Y-61230000D02*
X57830000Y-62500000D01*
X113100000Y-73549700D02*
X113100000Y-70000000D01*
X113000000Y-73649700D02*
X113100000Y-73549700D01*
X113000000Y-74600000D02*
X113000000Y-73649700D01*
X85700000Y-79600000D02*
X85700000Y-73900000D01*
X82620000Y-70000000D02*
X82620000Y-70400000D01*
X82620000Y-70400000D02*
X85700000Y-73480000D01*
X85700000Y-73480000D02*
X85700000Y-73900000D01*
X90500000Y-79600000D02*
X90500000Y-78499700D01*
X90258400Y-78258100D02*
X90500000Y-78499700D01*
X90258400Y-75698500D02*
X90258400Y-78258100D01*
X87741500Y-78499700D02*
X89406800Y-76834400D01*
X87300000Y-78499700D02*
X87741500Y-78499700D01*
X87300000Y-79600000D02*
X87300000Y-78499700D01*
X92100000Y-89136400D02*
X88021100Y-85057500D01*
X92100000Y-91000000D02*
X92100000Y-89136400D01*
X82400000Y-89300000D02*
X83500300Y-89300000D01*
X83950600Y-88849700D02*
X83950600Y-88299600D01*
X83500300Y-89300000D02*
X83950600Y-88849700D01*
X108020000Y-70000000D02*
X108020000Y-71600000D01*
X108020000Y-71600000D02*
X106702000Y-72918000D01*
X106702000Y-72918000D02*
X92081700Y-72918000D01*
X92081700Y-72918000D02*
X86500000Y-78499700D01*
X86500000Y-78499700D02*
X86500000Y-79600000D01*
X93800000Y-86900000D02*
X92699700Y-86900000D01*
X92020300Y-83862200D02*
X92020300Y-81771600D01*
X92699700Y-84541600D02*
X92020300Y-83862200D01*
X92699700Y-86900000D02*
X92699700Y-84541600D01*
X114928800Y-79027600D02*
X122556400Y-71400000D01*
X132260960Y-68000000D02*
X125956400Y-68000000D01*
X125956400Y-68000000D02*
X122556400Y-71400000D01*
X135500000Y-64760960D02*
X132260960Y-68000000D01*
X107410300Y-79027600D02*
X114928800Y-79027600D01*
X102638200Y-83799700D02*
X107410300Y-79027600D01*
X97714300Y-83799700D02*
X102638200Y-83799700D01*
X95414000Y-86100000D02*
X97714300Y-83799700D01*
X93800000Y-86100000D02*
X95414000Y-86100000D01*
X123710800Y-69100000D02*
X114400200Y-78410600D01*
X130299040Y-67300000D02*
X125510800Y-67300000D01*
X125510800Y-67300000D02*
X123710800Y-69100000D01*
X132960000Y-64639040D02*
X130299040Y-67300000D01*
X95400000Y-85300000D02*
X93800000Y-85300000D01*
X97525200Y-83174800D02*
X95400000Y-85300000D01*
X102073000Y-83174800D02*
X97525200Y-83174800D01*
X106837200Y-78410600D02*
X102073000Y-83174800D01*
X114400200Y-78410600D02*
X106837200Y-78410600D01*
X91300000Y-79600000D02*
X91300000Y-80700300D01*
X91362300Y-80762600D02*
X91300000Y-80700300D01*
X91362300Y-84268500D02*
X91362300Y-80762600D01*
X91938000Y-84844200D02*
X91362300Y-84268500D01*
X89700000Y-79600000D02*
X89700000Y-80700300D01*
X90862000Y-81862300D02*
X89700000Y-80700300D01*
X90862000Y-85002600D02*
X90862000Y-81862300D01*
X91997800Y-86138400D02*
X90862000Y-85002600D01*
X88900000Y-79600000D02*
X88900000Y-80700300D01*
X90361700Y-82162000D02*
X88900000Y-80700300D01*
X90361700Y-85693700D02*
X90361700Y-82162000D01*
X92485300Y-87817300D02*
X90361700Y-85693700D01*
X82400000Y-84500000D02*
X81299700Y-84500000D01*
X123327500Y-97006500D02*
X132760000Y-106439000D01*
X87791400Y-97006500D02*
X123327500Y-97006500D01*
X79968600Y-89183700D02*
X87791400Y-97006500D01*
X79968600Y-85495800D02*
X79968600Y-89183700D01*
X80964400Y-84500000D02*
X79968600Y-85495800D01*
X81299700Y-84500000D02*
X80964400Y-84500000D01*
X87518400Y-97506900D02*
X120900000Y-97506900D01*
X123120780Y-97506900D02*
X120900000Y-97506900D01*
X130220000Y-104606120D02*
X123120780Y-97506900D01*
X130220000Y-106560960D02*
X130220000Y-104606120D01*
X82400000Y-83700000D02*
X81299700Y-83700000D01*
X79465000Y-89453500D02*
X87518400Y-97506900D01*
X79465000Y-85291900D02*
X79465000Y-89453500D01*
X81056900Y-83700000D02*
X79465000Y-85291900D01*
X81299700Y-83700000D02*
X81056900Y-83700000D01*
X78405200Y-89809100D02*
X92248100Y-103652000D01*
X82400000Y-82100000D02*
X81299700Y-82100000D01*
X126508500Y-107610500D02*
X127680000Y-106439000D01*
X123816900Y-107610500D02*
X126508500Y-107610500D01*
X119858400Y-103652000D02*
X123816900Y-107610500D01*
X92248100Y-103652000D02*
X119858400Y-103652000D01*
X78405200Y-84936700D02*
X78405200Y-89809100D01*
X81241900Y-82100000D02*
X78405200Y-84936700D01*
X81299700Y-82100000D02*
X81241900Y-82100000D01*
X78905600Y-89601800D02*
X87203800Y-97900000D01*
X125140000Y-100233240D02*
X122913670Y-98006910D01*
X122913670Y-98006910D02*
X87310710Y-98006910D01*
X87310710Y-98006910D02*
X87203800Y-97900000D01*
X125140000Y-106560960D02*
X125140000Y-100233240D01*
X82400000Y-82900000D02*
X81299700Y-82900000D01*
X78905600Y-85143800D02*
X78905600Y-89601800D01*
X81149400Y-82900000D02*
X78905600Y-85143800D01*
X81299700Y-82900000D02*
X81149400Y-82900000D01*
X85634800Y-87123700D02*
X85417400Y-87123700D01*
X86500000Y-87988900D02*
X85634800Y-87123700D01*
X86500000Y-91000000D02*
X86500000Y-87988900D01*
X82400000Y-81300000D02*
X81299700Y-81300000D01*
X80899800Y-81300000D02*
X80217100Y-81982700D01*
X81299700Y-81300000D02*
X80899800Y-81300000D01*
X92100000Y-79600000D02*
X92100000Y-78499700D01*
X99000000Y-79400000D02*
X98199700Y-79400000D01*
X97299400Y-78499700D02*
X98199700Y-79400000D01*
X92100000Y-78499700D02*
X97299400Y-78499700D01*
X89575000Y-92225300D02*
X89575000Y-92277500D01*
X89700000Y-92100300D02*
X89575000Y-92225300D01*
X89700000Y-91000000D02*
X89700000Y-92100300D01*
X90230400Y-89899700D02*
X90074800Y-89744100D01*
X90500000Y-89899700D02*
X90230400Y-89899700D01*
X90500000Y-91000000D02*
X90500000Y-89899700D01*
X134800000Y-84095000D02*
X133674700Y-84095000D01*
X133300000Y-79800000D02*
X133300000Y-80475200D01*
X120000000Y-79700000D02*
X120950300Y-79700000D01*
X133300000Y-80475200D02*
X133300000Y-80630000D01*
X133674700Y-81004700D02*
X133674700Y-84095000D01*
X133300000Y-80630000D02*
X133674700Y-81004700D01*
X128110900Y-80630000D02*
X133300000Y-80630000D01*
X127180900Y-79700000D02*
X128110900Y-80630000D01*
X120950300Y-79700000D02*
X127180900Y-79700000D01*
X133674700Y-91125000D02*
X133200000Y-91599700D01*
X133674700Y-87905000D02*
X133674700Y-91125000D01*
X134800000Y-87905000D02*
X133674700Y-87905000D01*
X133200000Y-92400000D02*
X133200000Y-91599700D01*
X130525300Y-91125000D02*
X131000000Y-91599700D01*
X130525300Y-87905000D02*
X130525300Y-91125000D01*
X129400000Y-87905000D02*
X130525300Y-87905000D01*
X131000000Y-92400000D02*
X131000000Y-91599700D01*
X88100000Y-79600000D02*
X88100000Y-80700300D01*
X134800000Y-85365000D02*
X133674700Y-85365000D01*
X89711400Y-82311700D02*
X89711400Y-82450300D01*
X88100000Y-80700300D02*
X89711400Y-82311700D01*
X131400300Y-83090600D02*
X133674700Y-85365000D01*
X126535900Y-83090600D02*
X131400300Y-83090600D01*
X124242500Y-80797200D02*
X126535900Y-83090600D01*
X93800000Y-82900000D02*
X92699700Y-82900000D01*
X92699700Y-80814200D02*
X92699700Y-82900000D01*
X93424000Y-80089900D02*
X92699700Y-80814200D01*
X96857500Y-80089900D02*
X93424000Y-80089900D01*
X97118000Y-80350400D02*
X96857500Y-80089900D01*
X99595200Y-80350400D02*
X97118000Y-80350400D01*
X104096000Y-75849600D02*
X99595200Y-80350400D01*
X114251400Y-75849600D02*
X104096000Y-75849600D01*
X125340000Y-64761000D02*
X114251400Y-75849600D01*
X94900300Y-83277500D02*
X95052500Y-83125300D01*
X94900300Y-83700000D02*
X94900300Y-83277500D01*
X93800000Y-83700000D02*
X94900300Y-83700000D01*
X93800000Y-84500000D02*
X94900300Y-84500000D01*
X96725800Y-82674500D02*
X94900300Y-84500000D01*
X100888100Y-82674500D02*
X96725800Y-82674500D01*
X105695400Y-77867200D02*
X100888100Y-82674500D01*
X114235900Y-77867200D02*
X105695400Y-77867200D01*
X125639100Y-66464000D02*
X114235900Y-77867200D01*
X128717000Y-66464000D02*
X125639100Y-66464000D01*
X130420000Y-64761000D02*
X128717000Y-66464000D01*
X106125300Y-90365000D02*
X106125300Y-91635000D01*
X105000000Y-90365000D02*
X106125300Y-90365000D01*
X105000000Y-91635000D02*
X106125300Y-91635000D01*
D37*
G36*
X122348807Y-50865519D02*
X122043158Y-51322956D01*
X121935828Y-51862540D01*
X122043158Y-52402124D01*
X122348807Y-52859561D01*
X122716706Y-53105383D01*
X122471057Y-53206883D01*
X122207808Y-53469673D01*
X122065162Y-53813201D01*
X122065152Y-53824596D01*
X120654899Y-55234500D01*
X114849665Y-55234500D01*
X115118566Y-54966067D01*
X115284031Y-54567583D01*
X115284408Y-54136110D01*
X115119638Y-53737337D01*
X114814807Y-53431974D01*
X114416323Y-53266509D01*
X113984850Y-53266132D01*
X113586077Y-53430902D01*
X113280714Y-53735733D01*
X113115249Y-54134217D01*
X113114872Y-54565690D01*
X113279642Y-54964463D01*
X113549209Y-55234500D01*
X110450385Y-55234500D01*
X110719286Y-54966067D01*
X110884751Y-54567583D01*
X110885128Y-54136110D01*
X110720358Y-53737337D01*
X110415527Y-53431974D01*
X110017043Y-53266509D01*
X109585570Y-53266132D01*
X109186797Y-53430902D01*
X108881434Y-53735733D01*
X108715969Y-54134217D01*
X108715592Y-54565690D01*
X108880362Y-54964463D01*
X109149929Y-55234500D01*
X100370000Y-55234500D01*
X100220594Y-55264219D01*
X100069613Y-55294247D01*
X100069604Y-55294253D01*
X100069594Y-55294255D01*
X99945988Y-55376845D01*
X99814936Y-55464406D01*
X94376941Y-60902110D01*
X94292370Y-60817391D01*
X93779100Y-60604263D01*
X93223339Y-60603778D01*
X92709697Y-60816010D01*
X92316371Y-61208650D01*
X92313319Y-61216000D01*
X89333901Y-61216000D01*
X89893469Y-60984791D01*
X90452349Y-60426886D01*
X90755185Y-59697575D01*
X90755874Y-58907889D01*
X90454311Y-58178051D01*
X89896406Y-57619171D01*
X89167095Y-57316335D01*
X88377409Y-57315646D01*
X87647571Y-57617209D01*
X87088691Y-58175114D01*
X86785855Y-58904425D01*
X86785166Y-59694111D01*
X87086729Y-60423949D01*
X87644634Y-60982829D01*
X88206173Y-61216000D01*
X83593527Y-61216000D01*
X83762867Y-61146030D01*
X84363940Y-60546006D01*
X84689639Y-59761635D01*
X84690380Y-58912331D01*
X84366050Y-58127393D01*
X83766026Y-57526320D01*
X82981655Y-57200621D01*
X82132351Y-57199880D01*
X81347413Y-57524210D01*
X80746340Y-58124234D01*
X80420641Y-58908605D01*
X80419900Y-59757909D01*
X80561745Y-60101200D01*
X73003000Y-60101200D01*
X72702594Y-60160955D01*
X72447921Y-60331121D01*
X72162252Y-60616790D01*
X71612742Y-60616310D01*
X71103303Y-60826806D01*
X70713196Y-61216233D01*
X70501811Y-61725304D01*
X70501330Y-62276518D01*
X70501679Y-62277363D01*
X66625200Y-66153842D01*
X62819982Y-62348624D01*
X62934931Y-62180390D01*
X62985940Y-61928500D01*
X62985940Y-60531500D01*
X62941662Y-60296183D01*
X62802590Y-60080059D01*
X62590390Y-59935069D01*
X62338500Y-59884060D01*
X60941500Y-59884060D01*
X60706183Y-59928338D01*
X60490059Y-60067410D01*
X60345069Y-60279610D01*
X60294060Y-60531500D01*
X60294060Y-60627884D01*
X60231146Y-60475620D01*
X59856353Y-60100173D01*
X59366413Y-59896732D01*
X58835914Y-59896269D01*
X58345620Y-60098854D01*
X57970173Y-60473647D01*
X57829906Y-60811446D01*
X57691146Y-60475620D01*
X57316353Y-60100173D01*
X56826413Y-59896732D01*
X56295914Y-59896269D01*
X55805620Y-60098854D01*
X55430173Y-60473647D01*
X55226732Y-60963587D01*
X55226269Y-61494086D01*
X55428854Y-61984380D01*
X55803647Y-62359827D01*
X56125118Y-62493314D01*
X55867071Y-62600200D01*
X55805417Y-62835812D01*
X56560000Y-63590395D01*
X56574143Y-63576253D01*
X56753748Y-63755858D01*
X56739605Y-63770000D01*
X56753748Y-63784143D01*
X56574143Y-63963748D01*
X56560000Y-63949605D01*
X55805417Y-64704188D01*
X55867071Y-64939800D01*
X56367480Y-65115927D01*
X56897199Y-65087148D01*
X57045000Y-65025927D01*
X57045000Y-75367500D01*
X57104755Y-75667907D01*
X57274921Y-75922579D01*
X61454147Y-80101805D01*
X61454138Y-80111967D01*
X61596183Y-80455743D01*
X61858973Y-80718992D01*
X62202501Y-80861638D01*
X62574467Y-80861962D01*
X62918243Y-80719917D01*
X63181492Y-80457127D01*
X63255952Y-80277810D01*
X64836547Y-81858405D01*
X64836538Y-81868567D01*
X64978583Y-82212343D01*
X65241373Y-82475592D01*
X65584901Y-82618238D01*
X65664200Y-82618307D01*
X65664200Y-82758694D01*
X65657008Y-82765873D01*
X65514362Y-83109401D01*
X65514038Y-83481367D01*
X65656083Y-83825143D01*
X65695107Y-83864235D01*
X55966314Y-93593028D01*
X55852758Y-93479274D01*
X54976487Y-93115415D01*
X54027675Y-93114587D01*
X53150771Y-93476916D01*
X52479274Y-94147242D01*
X52115415Y-95023513D01*
X52114587Y-95972325D01*
X52476916Y-96849229D01*
X53147242Y-97520726D01*
X54023513Y-97884585D01*
X54972325Y-97885413D01*
X55849229Y-97523084D01*
X56520726Y-96852758D01*
X56599745Y-96662460D01*
X56676916Y-96849229D01*
X57347242Y-97520726D01*
X58223513Y-97884585D01*
X59172325Y-97885413D01*
X60049229Y-97523084D01*
X60720726Y-96852758D01*
X60799745Y-96662460D01*
X60876916Y-96849229D01*
X61547242Y-97520726D01*
X62423513Y-97884585D01*
X63372325Y-97885413D01*
X64249229Y-97523084D01*
X64920726Y-96852758D01*
X65284585Y-95976487D01*
X65285413Y-95027675D01*
X65050651Y-94459507D01*
X68191679Y-91318479D01*
X68361845Y-91063807D01*
X68421600Y-90763400D01*
X68421600Y-71863579D01*
X69074359Y-72134628D01*
X69923715Y-72135370D01*
X70176500Y-72030921D01*
X70176500Y-87686500D01*
X70236255Y-87986907D01*
X70406421Y-88241579D01*
X74787900Y-92623058D01*
X74787900Y-107823687D01*
X74556797Y-108054387D01*
X74326747Y-107823936D01*
X73817676Y-107612551D01*
X73266462Y-107612070D01*
X73265589Y-107612431D01*
X68585490Y-102932332D01*
X69074359Y-103135328D01*
X69923715Y-103136070D01*
X70708700Y-102811720D01*
X71309809Y-102211659D01*
X71635528Y-101427241D01*
X71636270Y-100577885D01*
X71311920Y-99792900D01*
X70711859Y-99191791D01*
X69927441Y-98866072D01*
X69078085Y-98865330D01*
X68293100Y-99189680D01*
X67691991Y-99789741D01*
X67366272Y-100574159D01*
X67365530Y-101423515D01*
X67568925Y-101915767D01*
X65398079Y-99744921D01*
X65195211Y-99609369D01*
X64923084Y-98950771D01*
X64252758Y-98279274D01*
X63376487Y-97915415D01*
X62427675Y-97914587D01*
X61550771Y-98276916D01*
X60879274Y-98947242D01*
X60800255Y-99137540D01*
X60723084Y-98950771D01*
X60052758Y-98279274D01*
X59176487Y-97915415D01*
X58227675Y-97914587D01*
X57350771Y-98276916D01*
X56679274Y-98947242D01*
X56600255Y-99137540D01*
X56523084Y-98950771D01*
X55852758Y-98279274D01*
X54976487Y-97915415D01*
X54027675Y-97914587D01*
X53150771Y-98276916D01*
X52479274Y-98947242D01*
X52115415Y-99823513D01*
X52114587Y-100772325D01*
X52476916Y-101649229D01*
X53147242Y-102320726D01*
X54023513Y-102684585D01*
X54972325Y-102685413D01*
X55849229Y-102323084D01*
X56520726Y-101652758D01*
X56599745Y-101462460D01*
X56676916Y-101649229D01*
X57347242Y-102320726D01*
X58223513Y-102684585D01*
X59172325Y-102685413D01*
X59740493Y-102450651D01*
X62577521Y-105287679D01*
X62832193Y-105457845D01*
X63132600Y-105517600D01*
X67967742Y-105517600D01*
X70256427Y-107806285D01*
X70217023Y-107822566D01*
X69826916Y-108211993D01*
X69615531Y-108721064D01*
X69615050Y-109272278D01*
X69825546Y-109781717D01*
X70214973Y-110171824D01*
X70724044Y-110383209D01*
X71275258Y-110383690D01*
X71784697Y-110173194D01*
X71915330Y-110042788D01*
X72547321Y-110674779D01*
X72801994Y-110844945D01*
X73102400Y-110904701D01*
X73102405Y-110904700D01*
X79164911Y-110904700D01*
X79026361Y-111238365D01*
X79025620Y-112087669D01*
X79349950Y-112872607D01*
X79949974Y-113473680D01*
X80734345Y-113799379D01*
X81583649Y-113800120D01*
X82368587Y-113475790D01*
X82969660Y-112875766D01*
X83295061Y-112092111D01*
X86745166Y-112092111D01*
X87046729Y-112821949D01*
X87604634Y-113380829D01*
X88333945Y-113683665D01*
X89123631Y-113684354D01*
X89853469Y-113382791D01*
X90412349Y-112824886D01*
X90715185Y-112095575D01*
X90715874Y-111305889D01*
X90414311Y-110576051D01*
X89856406Y-110017171D01*
X89127095Y-109714335D01*
X88337409Y-109713646D01*
X87607571Y-110015209D01*
X87048691Y-110573114D01*
X86745855Y-111302425D01*
X86745166Y-112092111D01*
X83295061Y-112092111D01*
X83295359Y-112091395D01*
X83296100Y-111242091D01*
X82971770Y-110457153D01*
X82371746Y-109856080D01*
X81587375Y-109530381D01*
X80989798Y-109529860D01*
X84076979Y-106442679D01*
X84096109Y-106414049D01*
X85573148Y-104937010D01*
X119326132Y-104937010D01*
X123055101Y-108665979D01*
X123309774Y-108836145D01*
X123610180Y-108895900D01*
X142778600Y-108895900D01*
X143079007Y-108836145D01*
X143333679Y-108665979D01*
X144294022Y-107705636D01*
X144297410Y-107710901D01*
X144509610Y-107855891D01*
X144761500Y-107906900D01*
X145923900Y-107906900D01*
X145923900Y-110465942D01*
X144324995Y-112064847D01*
X144314833Y-112064838D01*
X143971057Y-112206883D01*
X143962926Y-112215000D01*
X139537506Y-112215000D01*
X139530327Y-112207808D01*
X139186799Y-112065162D01*
X138814833Y-112064838D01*
X138471057Y-112206883D01*
X138207808Y-112469673D01*
X138065162Y-112813201D01*
X138064838Y-113185167D01*
X138107050Y-113287328D01*
X137794346Y-113078386D01*
X137360000Y-112991989D01*
X136925654Y-113078386D01*
X136557434Y-113324423D01*
X136311397Y-113692643D01*
X136225000Y-114126989D01*
X136225000Y-115293011D01*
X136311397Y-115727357D01*
X136557434Y-116095577D01*
X136925654Y-116341614D01*
X137360000Y-116428011D01*
X137794346Y-116341614D01*
X138162566Y-116095577D01*
X138224717Y-116002562D01*
X138245493Y-116023374D01*
X138598206Y-116169833D01*
X138980118Y-116170167D01*
X139240472Y-116062591D01*
X139469673Y-116292192D01*
X139813201Y-116434838D01*
X140185167Y-116435162D01*
X140528943Y-116293117D01*
X140537074Y-116285000D01*
X142962494Y-116285000D01*
X142969673Y-116292192D01*
X143313201Y-116434838D01*
X143685167Y-116435162D01*
X144028943Y-116293117D01*
X144218764Y-116103627D01*
X144378206Y-116169833D01*
X144760118Y-116170167D01*
X145113086Y-116024323D01*
X145135124Y-116002324D01*
X145197434Y-116095577D01*
X145565654Y-116341614D01*
X146000000Y-116428011D01*
X146434346Y-116341614D01*
X146802566Y-116095577D01*
X147048603Y-115727357D01*
X147135000Y-115293011D01*
X147135000Y-114126989D01*
X147048603Y-113692643D01*
X146802566Y-113324423D01*
X146434346Y-113078386D01*
X146000000Y-112991989D01*
X145565654Y-113078386D01*
X145463545Y-113146613D01*
X147263979Y-111346179D01*
X147434145Y-111091507D01*
X147493900Y-110791100D01*
X147493900Y-59116000D01*
X147434145Y-58815594D01*
X147263979Y-58560921D01*
X146604514Y-57901456D01*
X146942566Y-57675577D01*
X147188603Y-57307357D01*
X147275000Y-56873011D01*
X147275000Y-55706989D01*
X147188603Y-55272643D01*
X146942566Y-54904423D01*
X146574346Y-54658386D01*
X146140000Y-54571989D01*
X145705654Y-54658386D01*
X145337434Y-54904423D01*
X145275283Y-54997438D01*
X145254507Y-54976626D01*
X144901794Y-54830167D01*
X144519882Y-54829833D01*
X144259528Y-54937409D01*
X144030327Y-54707808D01*
X143686799Y-54565162D01*
X143314833Y-54564838D01*
X142971057Y-54706883D01*
X142962926Y-54715000D01*
X140537506Y-54715000D01*
X140530327Y-54707808D01*
X140186799Y-54565162D01*
X139814833Y-54564838D01*
X139471057Y-54706883D01*
X139281236Y-54896373D01*
X139121794Y-54830167D01*
X138739882Y-54829833D01*
X138386914Y-54975677D01*
X138364876Y-54997676D01*
X138302566Y-54904423D01*
X137934346Y-54658386D01*
X137500000Y-54571989D01*
X137065654Y-54658386D01*
X136697434Y-54904423D01*
X136451397Y-55272643D01*
X136365000Y-55706989D01*
X136365000Y-56873011D01*
X136451397Y-57307357D01*
X136697434Y-57675577D01*
X137065654Y-57921614D01*
X137500000Y-58008011D01*
X137934346Y-57921614D01*
X138065144Y-57834218D01*
X138064838Y-58185167D01*
X138206883Y-58528943D01*
X138469673Y-58792192D01*
X138813201Y-58934838D01*
X139185167Y-58935162D01*
X139528943Y-58793117D01*
X139537074Y-58785000D01*
X143962494Y-58785000D01*
X143969673Y-58792192D01*
X144313201Y-58934838D01*
X144685167Y-58935162D01*
X145028943Y-58793117D01*
X145152509Y-58669767D01*
X145923900Y-59441158D01*
X145923900Y-63415020D01*
X145494888Y-63415020D01*
X144499034Y-62419166D01*
X144459260Y-62392590D01*
X144228141Y-62238161D01*
X143908600Y-62174600D01*
X120178600Y-62174600D01*
X119859059Y-62238161D01*
X119627940Y-62392590D01*
X119588166Y-62419166D01*
X114542632Y-67464700D01*
X79240300Y-67464700D01*
X78920759Y-67528261D01*
X78748922Y-67643079D01*
X78649866Y-67709266D01*
X78180037Y-68179095D01*
X78127419Y-68143936D01*
X77540000Y-68027091D01*
X76952581Y-68143936D01*
X76454591Y-68476682D01*
X76263808Y-68762210D01*
X75995606Y-68424788D01*
X75470086Y-68133244D01*
X75406881Y-68118677D01*
X77014176Y-66511381D01*
X77014179Y-66511379D01*
X77184345Y-66256706D01*
X77244100Y-65956300D01*
X77244100Y-65953000D01*
X94872000Y-65953000D01*
X95172407Y-65893245D01*
X95427079Y-65723079D01*
X95755601Y-65394557D01*
X95760900Y-65396757D01*
X96316661Y-65397242D01*
X96830303Y-65185010D01*
X97223629Y-64792370D01*
X97226689Y-64785000D01*
X114800000Y-64785000D01*
X115100407Y-64725245D01*
X115355079Y-64555079D01*
X122625158Y-57285000D01*
X123962494Y-57285000D01*
X123969673Y-57292192D01*
X124313201Y-57434838D01*
X124685167Y-57435162D01*
X125028943Y-57293117D01*
X125037074Y-57285000D01*
X126962494Y-57285000D01*
X126969673Y-57292192D01*
X127313201Y-57434838D01*
X127685167Y-57435162D01*
X128028943Y-57293117D01*
X128292192Y-57030327D01*
X128434838Y-56686799D01*
X128435162Y-56314833D01*
X128293117Y-55971057D01*
X128030327Y-55707808D01*
X127686799Y-55565162D01*
X127314833Y-55564838D01*
X126971057Y-55706883D01*
X126962926Y-55715000D01*
X125037506Y-55715000D01*
X125037475Y-55714968D01*
X125391855Y-55478180D01*
X125479172Y-55347500D01*
X128522628Y-55347500D01*
X128609945Y-55478180D01*
X129018719Y-55751313D01*
X129500900Y-55847225D01*
X129983081Y-55751313D01*
X130391855Y-55478180D01*
X130664988Y-55069406D01*
X130760900Y-54587225D01*
X130760900Y-54537855D01*
X130664988Y-54055674D01*
X130475978Y-53772800D01*
X130501000Y-53772800D01*
X130801406Y-53713045D01*
X131056079Y-53542879D01*
X131226245Y-53288206D01*
X131259165Y-53122708D01*
X131652993Y-52859561D01*
X131958642Y-52402124D01*
X132065972Y-51862540D01*
X131958642Y-51322956D01*
X131652993Y-50865519D01*
X131420242Y-50710000D01*
X136947909Y-50710000D01*
X136697434Y-50877362D01*
X136451397Y-51245582D01*
X136365000Y-51679928D01*
X136365000Y-52540072D01*
X136451397Y-52974418D01*
X136697434Y-53342638D01*
X137065654Y-53588675D01*
X137500000Y-53675072D01*
X137934346Y-53588675D01*
X138302566Y-53342638D01*
X138548603Y-52974418D01*
X138635000Y-52540072D01*
X138635000Y-51679928D01*
X138548603Y-51245582D01*
X138302566Y-50877362D01*
X138052091Y-50710000D01*
X145587909Y-50710000D01*
X145337434Y-50877362D01*
X145091397Y-51245582D01*
X145005000Y-51679928D01*
X145005000Y-52540072D01*
X145091397Y-52974418D01*
X145337434Y-53342638D01*
X145705654Y-53588675D01*
X146140000Y-53675072D01*
X146574346Y-53588675D01*
X146942566Y-53342638D01*
X147188603Y-52974418D01*
X147275000Y-52540072D01*
X147275000Y-51679928D01*
X147188603Y-51245582D01*
X146942566Y-50877362D01*
X146692091Y-50710000D01*
X149290000Y-50710000D01*
X149290000Y-120290000D01*
X146552091Y-120290000D01*
X146802566Y-120122638D01*
X147048603Y-119754418D01*
X147135000Y-119320072D01*
X147135000Y-118459928D01*
X147048603Y-118025582D01*
X146802566Y-117657362D01*
X146434346Y-117411325D01*
X146000000Y-117324928D01*
X145565654Y-117411325D01*
X145197434Y-117657362D01*
X144951397Y-118025582D01*
X144865000Y-118459928D01*
X144865000Y-119320072D01*
X144951397Y-119754418D01*
X145197434Y-120122638D01*
X145447909Y-120290000D01*
X137912091Y-120290000D01*
X138162566Y-120122638D01*
X138408603Y-119754418D01*
X138495000Y-119320072D01*
X138495000Y-118459928D01*
X138408603Y-118025582D01*
X138162566Y-117657362D01*
X137794346Y-117411325D01*
X137360000Y-117324928D01*
X136925654Y-117411325D01*
X136557434Y-117657362D01*
X136311397Y-118025582D01*
X136225000Y-118459928D01*
X136225000Y-119320072D01*
X136311397Y-119754418D01*
X136557434Y-120122638D01*
X136807909Y-120290000D01*
X131418442Y-120290000D01*
X131651193Y-120134481D01*
X131956842Y-119677044D01*
X132064172Y-119137460D01*
X131956842Y-118597876D01*
X131651193Y-118140439D01*
X131257180Y-117877169D01*
X131224245Y-117711594D01*
X131054079Y-117456921D01*
X130799406Y-117286755D01*
X130630269Y-117253111D01*
X130526321Y-117149163D01*
X130663188Y-116944326D01*
X130759100Y-116462145D01*
X130759100Y-116412775D01*
X130663188Y-115930594D01*
X130390055Y-115521820D01*
X129981281Y-115248687D01*
X129499100Y-115152775D01*
X129016919Y-115248687D01*
X128934867Y-115303512D01*
X128935162Y-114964833D01*
X128793117Y-114621057D01*
X128530327Y-114357808D01*
X128186799Y-114215162D01*
X127814833Y-114214838D01*
X127471057Y-114356883D01*
X127462926Y-114365000D01*
X125687245Y-114365000D01*
X125530327Y-114207808D01*
X125186799Y-114065162D01*
X125175310Y-114065152D01*
X119554079Y-108443921D01*
X119299407Y-108273755D01*
X118999000Y-108214000D01*
X97187209Y-108214000D01*
X97185010Y-108208677D01*
X96976168Y-107999470D01*
X97183629Y-107792370D01*
X97396757Y-107279100D01*
X97397242Y-106723339D01*
X97185010Y-106209697D01*
X96792370Y-105816371D01*
X96279100Y-105603243D01*
X95723339Y-105602758D01*
X95209697Y-105814990D01*
X94816371Y-106207630D01*
X94730051Y-106415512D01*
X94645010Y-106209697D01*
X94252370Y-105816371D01*
X93739100Y-105603243D01*
X93183339Y-105602758D01*
X92669697Y-105814990D01*
X92276371Y-106207630D01*
X92063243Y-106720900D01*
X92062758Y-107276661D01*
X92274990Y-107790303D01*
X92483832Y-107999510D01*
X92276371Y-108206610D01*
X92063243Y-108719880D01*
X92062758Y-109275641D01*
X92274990Y-109789283D01*
X92667630Y-110182609D01*
X93180900Y-110395737D01*
X93736661Y-110396222D01*
X93744022Y-110393180D01*
X101405919Y-118055076D01*
X101405921Y-118055079D01*
X101660594Y-118225245D01*
X101961000Y-118285000D01*
X121962494Y-118285000D01*
X121969673Y-118292192D01*
X122185678Y-118381886D01*
X122041358Y-118597876D01*
X121934028Y-119137460D01*
X122041358Y-119677044D01*
X122347007Y-120134481D01*
X122579758Y-120290000D01*
X50710000Y-120290000D01*
X50710000Y-112087669D01*
X65309620Y-112087669D01*
X65633950Y-112872607D01*
X66233974Y-113473680D01*
X67018345Y-113799379D01*
X67867649Y-113800120D01*
X68652587Y-113475790D01*
X69253660Y-112875766D01*
X69579359Y-112091395D01*
X69580100Y-111242091D01*
X69255770Y-110457153D01*
X68655746Y-109856080D01*
X67871375Y-109530381D01*
X67022071Y-109529640D01*
X66237133Y-109853970D01*
X65636060Y-110453994D01*
X65310361Y-111238365D01*
X65309620Y-112087669D01*
X50710000Y-112087669D01*
X50710000Y-90214550D01*
X50922956Y-90356842D01*
X51462540Y-90464172D01*
X52002124Y-90356842D01*
X52459561Y-90051193D01*
X52765210Y-89593756D01*
X52872540Y-89054172D01*
X52872540Y-88744028D01*
X52765210Y-88204444D01*
X52561187Y-87899100D01*
X52877855Y-87899100D01*
X52973767Y-88381281D01*
X53246900Y-88790055D01*
X53655674Y-89063188D01*
X54137855Y-89159100D01*
X54187225Y-89159100D01*
X54669406Y-89063188D01*
X55078180Y-88790055D01*
X55351313Y-88381281D01*
X55447225Y-87899100D01*
X55351313Y-87416919D01*
X55078180Y-87008145D01*
X54669406Y-86735012D01*
X54187225Y-86639100D01*
X54137855Y-86639100D01*
X53655674Y-86735012D01*
X53246900Y-87008145D01*
X52973767Y-87416919D01*
X52877855Y-87899100D01*
X52561187Y-87899100D01*
X52459561Y-87747007D01*
X52002124Y-87441358D01*
X51462540Y-87334028D01*
X50922956Y-87441358D01*
X50710000Y-87583650D01*
X50710000Y-83214550D01*
X50922956Y-83356842D01*
X51462540Y-83464172D01*
X52002124Y-83356842D01*
X52459561Y-83051193D01*
X52561186Y-82899100D01*
X52877855Y-82899100D01*
X52973767Y-83381281D01*
X53246900Y-83790055D01*
X53655674Y-84063188D01*
X54137855Y-84159100D01*
X54187225Y-84159100D01*
X54669406Y-84063188D01*
X55078180Y-83790055D01*
X55351313Y-83381281D01*
X55447225Y-82899100D01*
X55351313Y-82416919D01*
X55078180Y-82008145D01*
X54669406Y-81735012D01*
X54187225Y-81639100D01*
X54137855Y-81639100D01*
X53655674Y-81735012D01*
X53246900Y-82008145D01*
X52973767Y-82416919D01*
X52877855Y-82899100D01*
X52561186Y-82899100D01*
X52765210Y-82593756D01*
X52872540Y-82054172D01*
X52872540Y-81744028D01*
X52765210Y-81204444D01*
X52459561Y-80747007D01*
X52002124Y-80441358D01*
X51462540Y-80334028D01*
X50922956Y-80441358D01*
X50710000Y-80583650D01*
X50710000Y-63577480D01*
X55214073Y-63577480D01*
X55242852Y-64107199D01*
X55390200Y-64462929D01*
X55625812Y-64524583D01*
X56380395Y-63770000D01*
X55625812Y-63015417D01*
X55390200Y-63077071D01*
X55214073Y-63577480D01*
X50710000Y-63577480D01*
X50710000Y-59757909D01*
X66703900Y-59757909D01*
X67028230Y-60542847D01*
X67628254Y-61143920D01*
X68412625Y-61469619D01*
X69261929Y-61470360D01*
X70046867Y-61146030D01*
X70647940Y-60546006D01*
X70973639Y-59761635D01*
X70974380Y-58912331D01*
X70650050Y-58127393D01*
X70050026Y-57526320D01*
X69265655Y-57200621D01*
X68416351Y-57199880D01*
X67631413Y-57524210D01*
X67030340Y-58124234D01*
X66704641Y-58908605D01*
X66703900Y-59757909D01*
X50710000Y-59757909D01*
X50710000Y-50710000D01*
X122581558Y-50710000D01*
X122348807Y-50865519D01*
X122348807Y-50865519D01*
G37*
X122348807Y-50865519D02*
X122043158Y-51322956D01*
X121935828Y-51862540D01*
X122043158Y-52402124D01*
X122348807Y-52859561D01*
X122716706Y-53105383D01*
X122471057Y-53206883D01*
X122207808Y-53469673D01*
X122065162Y-53813201D01*
X122065152Y-53824596D01*
X120654899Y-55234500D01*
X114849665Y-55234500D01*
X115118566Y-54966067D01*
X115284031Y-54567583D01*
X115284408Y-54136110D01*
X115119638Y-53737337D01*
X114814807Y-53431974D01*
X114416323Y-53266509D01*
X113984850Y-53266132D01*
X113586077Y-53430902D01*
X113280714Y-53735733D01*
X113115249Y-54134217D01*
X113114872Y-54565690D01*
X113279642Y-54964463D01*
X113549209Y-55234500D01*
X110450385Y-55234500D01*
X110719286Y-54966067D01*
X110884751Y-54567583D01*
X110885128Y-54136110D01*
X110720358Y-53737337D01*
X110415527Y-53431974D01*
X110017043Y-53266509D01*
X109585570Y-53266132D01*
X109186797Y-53430902D01*
X108881434Y-53735733D01*
X108715969Y-54134217D01*
X108715592Y-54565690D01*
X108880362Y-54964463D01*
X109149929Y-55234500D01*
X100370000Y-55234500D01*
X100220594Y-55264219D01*
X100069613Y-55294247D01*
X100069604Y-55294253D01*
X100069594Y-55294255D01*
X99945988Y-55376845D01*
X99814936Y-55464406D01*
X94376941Y-60902110D01*
X94292370Y-60817391D01*
X93779100Y-60604263D01*
X93223339Y-60603778D01*
X92709697Y-60816010D01*
X92316371Y-61208650D01*
X92313319Y-61216000D01*
X89333901Y-61216000D01*
X89893469Y-60984791D01*
X90452349Y-60426886D01*
X90755185Y-59697575D01*
X90755874Y-58907889D01*
X90454311Y-58178051D01*
X89896406Y-57619171D01*
X89167095Y-57316335D01*
X88377409Y-57315646D01*
X87647571Y-57617209D01*
X87088691Y-58175114D01*
X86785855Y-58904425D01*
X86785166Y-59694111D01*
X87086729Y-60423949D01*
X87644634Y-60982829D01*
X88206173Y-61216000D01*
X83593527Y-61216000D01*
X83762867Y-61146030D01*
X84363940Y-60546006D01*
X84689639Y-59761635D01*
X84690380Y-58912331D01*
X84366050Y-58127393D01*
X83766026Y-57526320D01*
X82981655Y-57200621D01*
X82132351Y-57199880D01*
X81347413Y-57524210D01*
X80746340Y-58124234D01*
X80420641Y-58908605D01*
X80419900Y-59757909D01*
X80561745Y-60101200D01*
X73003000Y-60101200D01*
X72702594Y-60160955D01*
X72447921Y-60331121D01*
X72162252Y-60616790D01*
X71612742Y-60616310D01*
X71103303Y-60826806D01*
X70713196Y-61216233D01*
X70501811Y-61725304D01*
X70501330Y-62276518D01*
X70501679Y-62277363D01*
X66625200Y-66153842D01*
X62819982Y-62348624D01*
X62934931Y-62180390D01*
X62985940Y-61928500D01*
X62985940Y-60531500D01*
X62941662Y-60296183D01*
X62802590Y-60080059D01*
X62590390Y-59935069D01*
X62338500Y-59884060D01*
X60941500Y-59884060D01*
X60706183Y-59928338D01*
X60490059Y-60067410D01*
X60345069Y-60279610D01*
X60294060Y-60531500D01*
X60294060Y-60627884D01*
X60231146Y-60475620D01*
X59856353Y-60100173D01*
X59366413Y-59896732D01*
X58835914Y-59896269D01*
X58345620Y-60098854D01*
X57970173Y-60473647D01*
X57829906Y-60811446D01*
X57691146Y-60475620D01*
X57316353Y-60100173D01*
X56826413Y-59896732D01*
X56295914Y-59896269D01*
X55805620Y-60098854D01*
X55430173Y-60473647D01*
X55226732Y-60963587D01*
X55226269Y-61494086D01*
X55428854Y-61984380D01*
X55803647Y-62359827D01*
X56125118Y-62493314D01*
X55867071Y-62600200D01*
X55805417Y-62835812D01*
X56560000Y-63590395D01*
X56574143Y-63576253D01*
X56753748Y-63755858D01*
X56739605Y-63770000D01*
X56753748Y-63784143D01*
X56574143Y-63963748D01*
X56560000Y-63949605D01*
X55805417Y-64704188D01*
X55867071Y-64939800D01*
X56367480Y-65115927D01*
X56897199Y-65087148D01*
X57045000Y-65025927D01*
X57045000Y-75367500D01*
X57104755Y-75667907D01*
X57274921Y-75922579D01*
X61454147Y-80101805D01*
X61454138Y-80111967D01*
X61596183Y-80455743D01*
X61858973Y-80718992D01*
X62202501Y-80861638D01*
X62574467Y-80861962D01*
X62918243Y-80719917D01*
X63181492Y-80457127D01*
X63255952Y-80277810D01*
X64836547Y-81858405D01*
X64836538Y-81868567D01*
X64978583Y-82212343D01*
X65241373Y-82475592D01*
X65584901Y-82618238D01*
X65664200Y-82618307D01*
X65664200Y-82758694D01*
X65657008Y-82765873D01*
X65514362Y-83109401D01*
X65514038Y-83481367D01*
X65656083Y-83825143D01*
X65695107Y-83864235D01*
X55966314Y-93593028D01*
X55852758Y-93479274D01*
X54976487Y-93115415D01*
X54027675Y-93114587D01*
X53150771Y-93476916D01*
X52479274Y-94147242D01*
X52115415Y-95023513D01*
X52114587Y-95972325D01*
X52476916Y-96849229D01*
X53147242Y-97520726D01*
X54023513Y-97884585D01*
X54972325Y-97885413D01*
X55849229Y-97523084D01*
X56520726Y-96852758D01*
X56599745Y-96662460D01*
X56676916Y-96849229D01*
X57347242Y-97520726D01*
X58223513Y-97884585D01*
X59172325Y-97885413D01*
X60049229Y-97523084D01*
X60720726Y-96852758D01*
X60799745Y-96662460D01*
X60876916Y-96849229D01*
X61547242Y-97520726D01*
X62423513Y-97884585D01*
X63372325Y-97885413D01*
X64249229Y-97523084D01*
X64920726Y-96852758D01*
X65284585Y-95976487D01*
X65285413Y-95027675D01*
X65050651Y-94459507D01*
X68191679Y-91318479D01*
X68361845Y-91063807D01*
X68421600Y-90763400D01*
X68421600Y-71863579D01*
X69074359Y-72134628D01*
X69923715Y-72135370D01*
X70176500Y-72030921D01*
X70176500Y-87686500D01*
X70236255Y-87986907D01*
X70406421Y-88241579D01*
X74787900Y-92623058D01*
X74787900Y-107823687D01*
X74556797Y-108054387D01*
X74326747Y-107823936D01*
X73817676Y-107612551D01*
X73266462Y-107612070D01*
X73265589Y-107612431D01*
X68585490Y-102932332D01*
X69074359Y-103135328D01*
X69923715Y-103136070D01*
X70708700Y-102811720D01*
X71309809Y-102211659D01*
X71635528Y-101427241D01*
X71636270Y-100577885D01*
X71311920Y-99792900D01*
X70711859Y-99191791D01*
X69927441Y-98866072D01*
X69078085Y-98865330D01*
X68293100Y-99189680D01*
X67691991Y-99789741D01*
X67366272Y-100574159D01*
X67365530Y-101423515D01*
X67568925Y-101915767D01*
X65398079Y-99744921D01*
X65195211Y-99609369D01*
X64923084Y-98950771D01*
X64252758Y-98279274D01*
X63376487Y-97915415D01*
X62427675Y-97914587D01*
X61550771Y-98276916D01*
X60879274Y-98947242D01*
X60800255Y-99137540D01*
X60723084Y-98950771D01*
X60052758Y-98279274D01*
X59176487Y-97915415D01*
X58227675Y-97914587D01*
X57350771Y-98276916D01*
X56679274Y-98947242D01*
X56600255Y-99137540D01*
X56523084Y-98950771D01*
X55852758Y-98279274D01*
X54976487Y-97915415D01*
X54027675Y-97914587D01*
X53150771Y-98276916D01*
X52479274Y-98947242D01*
X52115415Y-99823513D01*
X52114587Y-100772325D01*
X52476916Y-101649229D01*
X53147242Y-102320726D01*
X54023513Y-102684585D01*
X54972325Y-102685413D01*
X55849229Y-102323084D01*
X56520726Y-101652758D01*
X56599745Y-101462460D01*
X56676916Y-101649229D01*
X57347242Y-102320726D01*
X58223513Y-102684585D01*
X59172325Y-102685413D01*
X59740493Y-102450651D01*
X62577521Y-105287679D01*
X62832193Y-105457845D01*
X63132600Y-105517600D01*
X67967742Y-105517600D01*
X70256427Y-107806285D01*
X70217023Y-107822566D01*
X69826916Y-108211993D01*
X69615531Y-108721064D01*
X69615050Y-109272278D01*
X69825546Y-109781717D01*
X70214973Y-110171824D01*
X70724044Y-110383209D01*
X71275258Y-110383690D01*
X71784697Y-110173194D01*
X71915330Y-110042788D01*
X72547321Y-110674779D01*
X72801994Y-110844945D01*
X73102400Y-110904701D01*
X73102405Y-110904700D01*
X79164911Y-110904700D01*
X79026361Y-111238365D01*
X79025620Y-112087669D01*
X79349950Y-112872607D01*
X79949974Y-113473680D01*
X80734345Y-113799379D01*
X81583649Y-113800120D01*
X82368587Y-113475790D01*
X82969660Y-112875766D01*
X83295061Y-112092111D01*
X86745166Y-112092111D01*
X87046729Y-112821949D01*
X87604634Y-113380829D01*
X88333945Y-113683665D01*
X89123631Y-113684354D01*
X89853469Y-113382791D01*
X90412349Y-112824886D01*
X90715185Y-112095575D01*
X90715874Y-111305889D01*
X90414311Y-110576051D01*
X89856406Y-110017171D01*
X89127095Y-109714335D01*
X88337409Y-109713646D01*
X87607571Y-110015209D01*
X87048691Y-110573114D01*
X86745855Y-111302425D01*
X86745166Y-112092111D01*
X83295061Y-112092111D01*
X83295359Y-112091395D01*
X83296100Y-111242091D01*
X82971770Y-110457153D01*
X82371746Y-109856080D01*
X81587375Y-109530381D01*
X80989798Y-109529860D01*
X84076979Y-106442679D01*
X84096109Y-106414049D01*
X85573148Y-104937010D01*
X119326132Y-104937010D01*
X123055101Y-108665979D01*
X123309774Y-108836145D01*
X123610180Y-108895900D01*
X142778600Y-108895900D01*
X143079007Y-108836145D01*
X143333679Y-108665979D01*
X144294022Y-107705636D01*
X144297410Y-107710901D01*
X144509610Y-107855891D01*
X144761500Y-107906900D01*
X145923900Y-107906900D01*
X145923900Y-110465942D01*
X144324995Y-112064847D01*
X144314833Y-112064838D01*
X143971057Y-112206883D01*
X143962926Y-112215000D01*
X139537506Y-112215000D01*
X139530327Y-112207808D01*
X139186799Y-112065162D01*
X138814833Y-112064838D01*
X138471057Y-112206883D01*
X138207808Y-112469673D01*
X138065162Y-112813201D01*
X138064838Y-113185167D01*
X138107050Y-113287328D01*
X137794346Y-113078386D01*
X137360000Y-112991989D01*
X136925654Y-113078386D01*
X136557434Y-113324423D01*
X136311397Y-113692643D01*
X136225000Y-114126989D01*
X136225000Y-115293011D01*
X136311397Y-115727357D01*
X136557434Y-116095577D01*
X136925654Y-116341614D01*
X137360000Y-116428011D01*
X137794346Y-116341614D01*
X138162566Y-116095577D01*
X138224717Y-116002562D01*
X138245493Y-116023374D01*
X138598206Y-116169833D01*
X138980118Y-116170167D01*
X139240472Y-116062591D01*
X139469673Y-116292192D01*
X139813201Y-116434838D01*
X140185167Y-116435162D01*
X140528943Y-116293117D01*
X140537074Y-116285000D01*
X142962494Y-116285000D01*
X142969673Y-116292192D01*
X143313201Y-116434838D01*
X143685167Y-116435162D01*
X144028943Y-116293117D01*
X144218764Y-116103627D01*
X144378206Y-116169833D01*
X144760118Y-116170167D01*
X145113086Y-116024323D01*
X145135124Y-116002324D01*
X145197434Y-116095577D01*
X145565654Y-116341614D01*
X146000000Y-116428011D01*
X146434346Y-116341614D01*
X146802566Y-116095577D01*
X147048603Y-115727357D01*
X147135000Y-115293011D01*
X147135000Y-114126989D01*
X147048603Y-113692643D01*
X146802566Y-113324423D01*
X146434346Y-113078386D01*
X146000000Y-112991989D01*
X145565654Y-113078386D01*
X145463545Y-113146613D01*
X147263979Y-111346179D01*
X147434145Y-111091507D01*
X147493900Y-110791100D01*
X147493900Y-59116000D01*
X147434145Y-58815594D01*
X147263979Y-58560921D01*
X146604514Y-57901456D01*
X146942566Y-57675577D01*
X147188603Y-57307357D01*
X147275000Y-56873011D01*
X147275000Y-55706989D01*
X147188603Y-55272643D01*
X146942566Y-54904423D01*
X146574346Y-54658386D01*
X146140000Y-54571989D01*
X145705654Y-54658386D01*
X145337434Y-54904423D01*
X145275283Y-54997438D01*
X145254507Y-54976626D01*
X144901794Y-54830167D01*
X144519882Y-54829833D01*
X144259528Y-54937409D01*
X144030327Y-54707808D01*
X143686799Y-54565162D01*
X143314833Y-54564838D01*
X142971057Y-54706883D01*
X142962926Y-54715000D01*
X140537506Y-54715000D01*
X140530327Y-54707808D01*
X140186799Y-54565162D01*
X139814833Y-54564838D01*
X139471057Y-54706883D01*
X139281236Y-54896373D01*
X139121794Y-54830167D01*
X138739882Y-54829833D01*
X138386914Y-54975677D01*
X138364876Y-54997676D01*
X138302566Y-54904423D01*
X137934346Y-54658386D01*
X137500000Y-54571989D01*
X137065654Y-54658386D01*
X136697434Y-54904423D01*
X136451397Y-55272643D01*
X136365000Y-55706989D01*
X136365000Y-56873011D01*
X136451397Y-57307357D01*
X136697434Y-57675577D01*
X137065654Y-57921614D01*
X137500000Y-58008011D01*
X137934346Y-57921614D01*
X138065144Y-57834218D01*
X138064838Y-58185167D01*
X138206883Y-58528943D01*
X138469673Y-58792192D01*
X138813201Y-58934838D01*
X139185167Y-58935162D01*
X139528943Y-58793117D01*
X139537074Y-58785000D01*
X143962494Y-58785000D01*
X143969673Y-58792192D01*
X144313201Y-58934838D01*
X144685167Y-58935162D01*
X145028943Y-58793117D01*
X145152509Y-58669767D01*
X145923900Y-59441158D01*
X145923900Y-63415020D01*
X145494888Y-63415020D01*
X144499034Y-62419166D01*
X144459260Y-62392590D01*
X144228141Y-62238161D01*
X143908600Y-62174600D01*
X120178600Y-62174600D01*
X119859059Y-62238161D01*
X119627940Y-62392590D01*
X119588166Y-62419166D01*
X114542632Y-67464700D01*
X79240300Y-67464700D01*
X78920759Y-67528261D01*
X78748922Y-67643079D01*
X78649866Y-67709266D01*
X78180037Y-68179095D01*
X78127419Y-68143936D01*
X77540000Y-68027091D01*
X76952581Y-68143936D01*
X76454591Y-68476682D01*
X76263808Y-68762210D01*
X75995606Y-68424788D01*
X75470086Y-68133244D01*
X75406881Y-68118677D01*
X77014176Y-66511381D01*
X77014179Y-66511379D01*
X77184345Y-66256706D01*
X77244100Y-65956300D01*
X77244100Y-65953000D01*
X94872000Y-65953000D01*
X95172407Y-65893245D01*
X95427079Y-65723079D01*
X95755601Y-65394557D01*
X95760900Y-65396757D01*
X96316661Y-65397242D01*
X96830303Y-65185010D01*
X97223629Y-64792370D01*
X97226689Y-64785000D01*
X114800000Y-64785000D01*
X115100407Y-64725245D01*
X115355079Y-64555079D01*
X122625158Y-57285000D01*
X123962494Y-57285000D01*
X123969673Y-57292192D01*
X124313201Y-57434838D01*
X124685167Y-57435162D01*
X125028943Y-57293117D01*
X125037074Y-57285000D01*
X126962494Y-57285000D01*
X126969673Y-57292192D01*
X127313201Y-57434838D01*
X127685167Y-57435162D01*
X128028943Y-57293117D01*
X128292192Y-57030327D01*
X128434838Y-56686799D01*
X128435162Y-56314833D01*
X128293117Y-55971057D01*
X128030327Y-55707808D01*
X127686799Y-55565162D01*
X127314833Y-55564838D01*
X126971057Y-55706883D01*
X126962926Y-55715000D01*
X125037506Y-55715000D01*
X125037475Y-55714968D01*
X125391855Y-55478180D01*
X125479172Y-55347500D01*
X128522628Y-55347500D01*
X128609945Y-55478180D01*
X129018719Y-55751313D01*
X129500900Y-55847225D01*
X129983081Y-55751313D01*
X130391855Y-55478180D01*
X130664988Y-55069406D01*
X130760900Y-54587225D01*
X130760900Y-54537855D01*
X130664988Y-54055674D01*
X130475978Y-53772800D01*
X130501000Y-53772800D01*
X130801406Y-53713045D01*
X131056079Y-53542879D01*
X131226245Y-53288206D01*
X131259165Y-53122708D01*
X131652993Y-52859561D01*
X131958642Y-52402124D01*
X132065972Y-51862540D01*
X131958642Y-51322956D01*
X131652993Y-50865519D01*
X131420242Y-50710000D01*
X136947909Y-50710000D01*
X136697434Y-50877362D01*
X136451397Y-51245582D01*
X136365000Y-51679928D01*
X136365000Y-52540072D01*
X136451397Y-52974418D01*
X136697434Y-53342638D01*
X137065654Y-53588675D01*
X137500000Y-53675072D01*
X137934346Y-53588675D01*
X138302566Y-53342638D01*
X138548603Y-52974418D01*
X138635000Y-52540072D01*
X138635000Y-51679928D01*
X138548603Y-51245582D01*
X138302566Y-50877362D01*
X138052091Y-50710000D01*
X145587909Y-50710000D01*
X145337434Y-50877362D01*
X145091397Y-51245582D01*
X145005000Y-51679928D01*
X145005000Y-52540072D01*
X145091397Y-52974418D01*
X145337434Y-53342638D01*
X145705654Y-53588675D01*
X146140000Y-53675072D01*
X146574346Y-53588675D01*
X146942566Y-53342638D01*
X147188603Y-52974418D01*
X147275000Y-52540072D01*
X147275000Y-51679928D01*
X147188603Y-51245582D01*
X146942566Y-50877362D01*
X146692091Y-50710000D01*
X149290000Y-50710000D01*
X149290000Y-120290000D01*
X146552091Y-120290000D01*
X146802566Y-120122638D01*
X147048603Y-119754418D01*
X147135000Y-119320072D01*
X147135000Y-118459928D01*
X147048603Y-118025582D01*
X146802566Y-117657362D01*
X146434346Y-117411325D01*
X146000000Y-117324928D01*
X145565654Y-117411325D01*
X145197434Y-117657362D01*
X144951397Y-118025582D01*
X144865000Y-118459928D01*
X144865000Y-119320072D01*
X144951397Y-119754418D01*
X145197434Y-120122638D01*
X145447909Y-120290000D01*
X137912091Y-120290000D01*
X138162566Y-120122638D01*
X138408603Y-119754418D01*
X138495000Y-119320072D01*
X138495000Y-118459928D01*
X138408603Y-118025582D01*
X138162566Y-117657362D01*
X137794346Y-117411325D01*
X137360000Y-117324928D01*
X136925654Y-117411325D01*
X136557434Y-117657362D01*
X136311397Y-118025582D01*
X136225000Y-118459928D01*
X136225000Y-119320072D01*
X136311397Y-119754418D01*
X136557434Y-120122638D01*
X136807909Y-120290000D01*
X131418442Y-120290000D01*
X131651193Y-120134481D01*
X131956842Y-119677044D01*
X132064172Y-119137460D01*
X131956842Y-118597876D01*
X131651193Y-118140439D01*
X131257180Y-117877169D01*
X131224245Y-117711594D01*
X131054079Y-117456921D01*
X130799406Y-117286755D01*
X130630269Y-117253111D01*
X130526321Y-117149163D01*
X130663188Y-116944326D01*
X130759100Y-116462145D01*
X130759100Y-116412775D01*
X130663188Y-115930594D01*
X130390055Y-115521820D01*
X129981281Y-115248687D01*
X129499100Y-115152775D01*
X129016919Y-115248687D01*
X128934867Y-115303512D01*
X128935162Y-114964833D01*
X128793117Y-114621057D01*
X128530327Y-114357808D01*
X128186799Y-114215162D01*
X127814833Y-114214838D01*
X127471057Y-114356883D01*
X127462926Y-114365000D01*
X125687245Y-114365000D01*
X125530327Y-114207808D01*
X125186799Y-114065162D01*
X125175310Y-114065152D01*
X119554079Y-108443921D01*
X119299407Y-108273755D01*
X118999000Y-108214000D01*
X97187209Y-108214000D01*
X97185010Y-108208677D01*
X96976168Y-107999470D01*
X97183629Y-107792370D01*
X97396757Y-107279100D01*
X97397242Y-106723339D01*
X97185010Y-106209697D01*
X96792370Y-105816371D01*
X96279100Y-105603243D01*
X95723339Y-105602758D01*
X95209697Y-105814990D01*
X94816371Y-106207630D01*
X94730051Y-106415512D01*
X94645010Y-106209697D01*
X94252370Y-105816371D01*
X93739100Y-105603243D01*
X93183339Y-105602758D01*
X92669697Y-105814990D01*
X92276371Y-106207630D01*
X92063243Y-106720900D01*
X92062758Y-107276661D01*
X92274990Y-107790303D01*
X92483832Y-107999510D01*
X92276371Y-108206610D01*
X92063243Y-108719880D01*
X92062758Y-109275641D01*
X92274990Y-109789283D01*
X92667630Y-110182609D01*
X93180900Y-110395737D01*
X93736661Y-110396222D01*
X93744022Y-110393180D01*
X101405919Y-118055076D01*
X101405921Y-118055079D01*
X101660594Y-118225245D01*
X101961000Y-118285000D01*
X121962494Y-118285000D01*
X121969673Y-118292192D01*
X122185678Y-118381886D01*
X122041358Y-118597876D01*
X121934028Y-119137460D01*
X122041358Y-119677044D01*
X122347007Y-120134481D01*
X122579758Y-120290000D01*
X50710000Y-120290000D01*
X50710000Y-112087669D01*
X65309620Y-112087669D01*
X65633950Y-112872607D01*
X66233974Y-113473680D01*
X67018345Y-113799379D01*
X67867649Y-113800120D01*
X68652587Y-113475790D01*
X69253660Y-112875766D01*
X69579359Y-112091395D01*
X69580100Y-111242091D01*
X69255770Y-110457153D01*
X68655746Y-109856080D01*
X67871375Y-109530381D01*
X67022071Y-109529640D01*
X66237133Y-109853970D01*
X65636060Y-110453994D01*
X65310361Y-111238365D01*
X65309620Y-112087669D01*
X50710000Y-112087669D01*
X50710000Y-90214550D01*
X50922956Y-90356842D01*
X51462540Y-90464172D01*
X52002124Y-90356842D01*
X52459561Y-90051193D01*
X52765210Y-89593756D01*
X52872540Y-89054172D01*
X52872540Y-88744028D01*
X52765210Y-88204444D01*
X52561187Y-87899100D01*
X52877855Y-87899100D01*
X52973767Y-88381281D01*
X53246900Y-88790055D01*
X53655674Y-89063188D01*
X54137855Y-89159100D01*
X54187225Y-89159100D01*
X54669406Y-89063188D01*
X55078180Y-88790055D01*
X55351313Y-88381281D01*
X55447225Y-87899100D01*
X55351313Y-87416919D01*
X55078180Y-87008145D01*
X54669406Y-86735012D01*
X54187225Y-86639100D01*
X54137855Y-86639100D01*
X53655674Y-86735012D01*
X53246900Y-87008145D01*
X52973767Y-87416919D01*
X52877855Y-87899100D01*
X52561187Y-87899100D01*
X52459561Y-87747007D01*
X52002124Y-87441358D01*
X51462540Y-87334028D01*
X50922956Y-87441358D01*
X50710000Y-87583650D01*
X50710000Y-83214550D01*
X50922956Y-83356842D01*
X51462540Y-83464172D01*
X52002124Y-83356842D01*
X52459561Y-83051193D01*
X52561186Y-82899100D01*
X52877855Y-82899100D01*
X52973767Y-83381281D01*
X53246900Y-83790055D01*
X53655674Y-84063188D01*
X54137855Y-84159100D01*
X54187225Y-84159100D01*
X54669406Y-84063188D01*
X55078180Y-83790055D01*
X55351313Y-83381281D01*
X55447225Y-82899100D01*
X55351313Y-82416919D01*
X55078180Y-82008145D01*
X54669406Y-81735012D01*
X54187225Y-81639100D01*
X54137855Y-81639100D01*
X53655674Y-81735012D01*
X53246900Y-82008145D01*
X52973767Y-82416919D01*
X52877855Y-82899100D01*
X52561186Y-82899100D01*
X52765210Y-82593756D01*
X52872540Y-82054172D01*
X52872540Y-81744028D01*
X52765210Y-81204444D01*
X52459561Y-80747007D01*
X52002124Y-80441358D01*
X51462540Y-80334028D01*
X50922956Y-80441358D01*
X50710000Y-80583650D01*
X50710000Y-63577480D01*
X55214073Y-63577480D01*
X55242852Y-64107199D01*
X55390200Y-64462929D01*
X55625812Y-64524583D01*
X56380395Y-63770000D01*
X55625812Y-63015417D01*
X55390200Y-63077071D01*
X55214073Y-63577480D01*
X50710000Y-63577480D01*
X50710000Y-59757909D01*
X66703900Y-59757909D01*
X67028230Y-60542847D01*
X67628254Y-61143920D01*
X68412625Y-61469619D01*
X69261929Y-61470360D01*
X70046867Y-61146030D01*
X70647940Y-60546006D01*
X70973639Y-59761635D01*
X70974380Y-58912331D01*
X70650050Y-58127393D01*
X70050026Y-57526320D01*
X69265655Y-57200621D01*
X68416351Y-57199880D01*
X67631413Y-57524210D01*
X67030340Y-58124234D01*
X66704641Y-58908605D01*
X66703900Y-59757909D01*
X50710000Y-59757909D01*
X50710000Y-50710000D01*
X122581558Y-50710000D01*
X122348807Y-50865519D01*
G36*
X99606531Y-110015209D02*
X99047651Y-110573114D01*
X98744815Y-111302425D01*
X98744126Y-112092111D01*
X99045689Y-112821949D01*
X99603594Y-113380829D01*
X100332905Y-113683665D01*
X101122591Y-113684354D01*
X101852429Y-113382791D01*
X102411309Y-112824886D01*
X102714145Y-112095575D01*
X102714834Y-111305889D01*
X102413271Y-110576051D01*
X101855366Y-110017171D01*
X101293827Y-109784000D01*
X118673842Y-109784000D01*
X124064847Y-115175005D01*
X124064838Y-115185167D01*
X124085451Y-115235055D01*
X124016919Y-115248687D01*
X123608145Y-115521820D01*
X123335012Y-115930594D01*
X123239100Y-116412775D01*
X123239100Y-116462145D01*
X123289396Y-116715000D01*
X123037506Y-116715000D01*
X123030327Y-116707808D01*
X122686799Y-116565162D01*
X122314833Y-116564838D01*
X121971057Y-116706883D01*
X121962926Y-116715000D01*
X115284163Y-116715000D01*
X115284408Y-116434310D01*
X115119638Y-116035537D01*
X114814807Y-115730174D01*
X114416323Y-115564709D01*
X113984850Y-115564332D01*
X113586077Y-115729102D01*
X113280714Y-116033933D01*
X113115249Y-116432417D01*
X113115002Y-116715000D01*
X110884883Y-116715000D01*
X110885128Y-116434310D01*
X110720358Y-116035537D01*
X110415527Y-115730174D01*
X110017043Y-115564709D01*
X109585570Y-115564332D01*
X109186797Y-115729102D01*
X108881434Y-116033933D01*
X108715969Y-116432417D01*
X108715722Y-116715000D01*
X102286157Y-116715000D01*
X95967110Y-110395952D01*
X96276661Y-110396222D01*
X96790303Y-110183990D01*
X97183629Y-109791350D01*
X97186681Y-109784000D01*
X100166099Y-109784000D01*
X99606531Y-110015209D01*
X99606531Y-110015209D01*
G37*
X99606531Y-110015209D02*
X99047651Y-110573114D01*
X98744815Y-111302425D01*
X98744126Y-112092111D01*
X99045689Y-112821949D01*
X99603594Y-113380829D01*
X100332905Y-113683665D01*
X101122591Y-113684354D01*
X101852429Y-113382791D01*
X102411309Y-112824886D01*
X102714145Y-112095575D01*
X102714834Y-111305889D01*
X102413271Y-110576051D01*
X101855366Y-110017171D01*
X101293827Y-109784000D01*
X118673842Y-109784000D01*
X124064847Y-115175005D01*
X124064838Y-115185167D01*
X124085451Y-115235055D01*
X124016919Y-115248687D01*
X123608145Y-115521820D01*
X123335012Y-115930594D01*
X123239100Y-116412775D01*
X123239100Y-116462145D01*
X123289396Y-116715000D01*
X123037506Y-116715000D01*
X123030327Y-116707808D01*
X122686799Y-116565162D01*
X122314833Y-116564838D01*
X121971057Y-116706883D01*
X121962926Y-116715000D01*
X115284163Y-116715000D01*
X115284408Y-116434310D01*
X115119638Y-116035537D01*
X114814807Y-115730174D01*
X114416323Y-115564709D01*
X113984850Y-115564332D01*
X113586077Y-115729102D01*
X113280714Y-116033933D01*
X113115249Y-116432417D01*
X113115002Y-116715000D01*
X110884883Y-116715000D01*
X110885128Y-116434310D01*
X110720358Y-116035537D01*
X110415527Y-115730174D01*
X110017043Y-115564709D01*
X109585570Y-115564332D01*
X109186797Y-115729102D01*
X108881434Y-116033933D01*
X108715969Y-116432417D01*
X108715722Y-116715000D01*
X102286157Y-116715000D01*
X95967110Y-110395952D01*
X96276661Y-110396222D01*
X96790303Y-110183990D01*
X97183629Y-109791350D01*
X97186681Y-109784000D01*
X100166099Y-109784000D01*
X99606531Y-110015209D01*
G36*
X77679955Y-90109507D02*
X77850121Y-90364179D01*
X90852952Y-103367010D01*
X85247990Y-103367010D01*
X84947584Y-103426765D01*
X84692911Y-103596931D01*
X82966821Y-105323021D01*
X82947691Y-105351651D01*
X79498603Y-108800739D01*
X79498670Y-108723482D01*
X79288174Y-108214043D01*
X78898747Y-107823936D01*
X78389676Y-107612551D01*
X77838462Y-107612070D01*
X77329023Y-107822566D01*
X76938916Y-108211993D01*
X76842885Y-108443261D01*
X76748174Y-108214043D01*
X76358747Y-107823936D01*
X76357900Y-107823584D01*
X76357900Y-92297900D01*
X76298145Y-91997494D01*
X76127979Y-91742821D01*
X74895158Y-90510000D01*
X75276309Y-90510000D01*
X75509698Y-90413327D01*
X75511068Y-90411957D01*
X75598110Y-90471431D01*
X75850000Y-90522440D01*
X77050000Y-90522440D01*
X77285317Y-90478162D01*
X77501441Y-90339090D01*
X77646431Y-90126890D01*
X77665087Y-90034762D01*
X77679955Y-90109507D01*
X77679955Y-90109507D01*
G37*
X77679955Y-90109507D02*
X77850121Y-90364179D01*
X90852952Y-103367010D01*
X85247990Y-103367010D01*
X84947584Y-103426765D01*
X84692911Y-103596931D01*
X82966821Y-105323021D01*
X82947691Y-105351651D01*
X79498603Y-108800739D01*
X79498670Y-108723482D01*
X79288174Y-108214043D01*
X78898747Y-107823936D01*
X78389676Y-107612551D01*
X77838462Y-107612070D01*
X77329023Y-107822566D01*
X76938916Y-108211993D01*
X76842885Y-108443261D01*
X76748174Y-108214043D01*
X76358747Y-107823936D01*
X76357900Y-107823584D01*
X76357900Y-92297900D01*
X76298145Y-91997494D01*
X76127979Y-91742821D01*
X74895158Y-90510000D01*
X75276309Y-90510000D01*
X75509698Y-90413327D01*
X75511068Y-90411957D01*
X75598110Y-90471431D01*
X75850000Y-90522440D01*
X77050000Y-90522440D01*
X77285317Y-90478162D01*
X77501441Y-90339090D01*
X77646431Y-90126890D01*
X77665087Y-90034762D01*
X77679955Y-90109507D01*
G36*
X117927000Y-88073000D02*
X117947000Y-88073000D01*
X117947000Y-88327000D01*
X117927000Y-88327000D01*
X117927000Y-89126250D01*
X118085750Y-89285000D01*
X118526309Y-89285000D01*
X118759698Y-89188327D01*
X118900936Y-89047090D01*
X118935910Y-89101441D01*
X119148110Y-89246431D01*
X119165000Y-89249851D01*
X119165000Y-89412370D01*
X119114683Y-89421838D01*
X119011354Y-89488329D01*
X119009698Y-89486673D01*
X118776309Y-89390000D01*
X118335750Y-89390000D01*
X118177000Y-89548750D01*
X118177000Y-90273000D01*
X118197000Y-90273000D01*
X118197000Y-90527000D01*
X118177000Y-90527000D01*
X118177000Y-91251250D01*
X118335750Y-91410000D01*
X118623100Y-91410000D01*
X118563762Y-91552901D01*
X118563694Y-91630486D01*
X118526309Y-91615000D01*
X118085750Y-91615000D01*
X117927000Y-91773750D01*
X117927000Y-92573000D01*
X117947000Y-92573000D01*
X117947000Y-92827000D01*
X117927000Y-92827000D01*
X117927000Y-93626250D01*
X118085750Y-93785000D01*
X118526309Y-93785000D01*
X118759698Y-93688327D01*
X118900936Y-93547090D01*
X118935910Y-93601441D01*
X119148110Y-93746431D01*
X119400000Y-93797440D01*
X120462482Y-93797440D01*
X120520521Y-93855479D01*
X120775194Y-94025645D01*
X121075600Y-94085400D01*
X125142000Y-94085400D01*
X125442407Y-94025645D01*
X125502638Y-93985400D01*
X131425442Y-93985400D01*
X142568046Y-105128004D01*
X142227071Y-105269240D01*
X142165417Y-105504852D01*
X142920000Y-106259435D01*
X142934143Y-106245293D01*
X143113748Y-106424898D01*
X143099605Y-106439040D01*
X143113748Y-106453183D01*
X142934143Y-106632788D01*
X142920000Y-106618645D01*
X142905858Y-106632788D01*
X142726253Y-106453183D01*
X142740395Y-106439040D01*
X141985812Y-105684457D01*
X141750200Y-105746111D01*
X141628744Y-106091190D01*
X141511146Y-105806580D01*
X141136353Y-105431133D01*
X140646413Y-105227692D01*
X140115914Y-105227229D01*
X139625620Y-105429814D01*
X139250173Y-105804607D01*
X139135157Y-106081597D01*
X138971146Y-105684660D01*
X138596353Y-105309213D01*
X138106413Y-105105772D01*
X137575914Y-105105309D01*
X137085620Y-105307894D01*
X136710173Y-105682687D01*
X136544656Y-106081296D01*
X136431146Y-105806580D01*
X136056353Y-105431133D01*
X135566413Y-105227692D01*
X135035914Y-105227229D01*
X134545620Y-105429814D01*
X134170173Y-105804607D01*
X134055157Y-106081597D01*
X133891146Y-105684660D01*
X133516353Y-105309213D01*
X133026413Y-105105772D01*
X132536502Y-105105344D01*
X123882579Y-96451421D01*
X123627907Y-96281255D01*
X123327500Y-96221500D01*
X88116558Y-96221500D01*
X84292498Y-92397440D01*
X84375000Y-92397440D01*
X84504589Y-92373056D01*
X84625000Y-92397440D01*
X85175000Y-92397440D01*
X85304589Y-92373056D01*
X85425000Y-92397440D01*
X85975000Y-92397440D01*
X86104589Y-92373056D01*
X86225000Y-92397440D01*
X86775000Y-92397440D01*
X86904589Y-92373056D01*
X87025000Y-92397440D01*
X87314159Y-92397440D01*
X87328561Y-92469841D01*
X87472633Y-92685460D01*
X87509566Y-92740734D01*
X88364266Y-93595434D01*
X88635159Y-93776439D01*
X88954700Y-93840000D01*
X90492000Y-93840000D01*
X90811541Y-93776439D01*
X91082434Y-93595434D01*
X91645868Y-93032000D01*
X92501400Y-93032000D01*
X92820941Y-92968439D01*
X93091834Y-92787434D01*
X94390434Y-91488834D01*
X94571440Y-91217940D01*
X94635000Y-90898400D01*
X94635000Y-90206446D01*
X94785317Y-90178162D01*
X94852393Y-90135000D01*
X103577560Y-90135000D01*
X103577560Y-90665000D01*
X103621838Y-90900317D01*
X103685678Y-90999528D01*
X103628569Y-91083110D01*
X103577560Y-91335000D01*
X103577560Y-91935000D01*
X103621838Y-92170317D01*
X103685678Y-92269528D01*
X103628569Y-92353110D01*
X103577560Y-92605000D01*
X103577560Y-93205000D01*
X103621838Y-93440317D01*
X103760910Y-93656441D01*
X103973110Y-93801431D01*
X104225000Y-93852440D01*
X105775000Y-93852440D01*
X106010317Y-93808162D01*
X106224660Y-93670236D01*
X106425707Y-93630245D01*
X106680379Y-93460079D01*
X106949707Y-93190750D01*
X108990000Y-93190750D01*
X108990000Y-93331310D01*
X109086673Y-93564699D01*
X109265302Y-93743327D01*
X109498691Y-93840000D01*
X110114250Y-93840000D01*
X110273000Y-93681250D01*
X110273000Y-93032000D01*
X110527000Y-93032000D01*
X110527000Y-93681250D01*
X110685750Y-93840000D01*
X111301309Y-93840000D01*
X111534698Y-93743327D01*
X111713327Y-93564699D01*
X111810000Y-93331310D01*
X111810000Y-93190750D01*
X111651250Y-93032000D01*
X110527000Y-93032000D01*
X110273000Y-93032000D01*
X109148750Y-93032000D01*
X108990000Y-93190750D01*
X106949707Y-93190750D01*
X107154707Y-92985750D01*
X116565000Y-92985750D01*
X116565000Y-93276310D01*
X116661673Y-93509699D01*
X116840302Y-93688327D01*
X117073691Y-93785000D01*
X117514250Y-93785000D01*
X117673000Y-93626250D01*
X117673000Y-92827000D01*
X116723750Y-92827000D01*
X116565000Y-92985750D01*
X107154707Y-92985750D01*
X107215676Y-92924781D01*
X107215679Y-92924779D01*
X107385845Y-92670106D01*
X107398876Y-92604594D01*
X107445601Y-92369700D01*
X107445600Y-92369695D01*
X107445600Y-89662958D01*
X108489700Y-90707058D01*
X108489700Y-91635000D01*
X108549455Y-91935406D01*
X108719621Y-92190079D01*
X108974294Y-92360245D01*
X109034131Y-92372148D01*
X108990000Y-92478690D01*
X108990000Y-92619250D01*
X109148750Y-92778000D01*
X110273000Y-92778000D01*
X110273000Y-92758000D01*
X110527000Y-92758000D01*
X110527000Y-92778000D01*
X111651250Y-92778000D01*
X111810000Y-92619250D01*
X111810000Y-92478690D01*
X111785690Y-92420000D01*
X112165000Y-92420000D01*
X112465407Y-92360245D01*
X112720079Y-92190079D01*
X112786468Y-92123690D01*
X116565000Y-92123690D01*
X116565000Y-92414250D01*
X116723750Y-92573000D01*
X117673000Y-92573000D01*
X117673000Y-91773750D01*
X117514250Y-91615000D01*
X117073691Y-91615000D01*
X116840302Y-91711673D01*
X116661673Y-91890301D01*
X116565000Y-92123690D01*
X112786468Y-92123690D01*
X114224408Y-90685750D01*
X116815000Y-90685750D01*
X116815000Y-90901310D01*
X116911673Y-91134699D01*
X117090302Y-91313327D01*
X117323691Y-91410000D01*
X117764250Y-91410000D01*
X117923000Y-91251250D01*
X117923000Y-90527000D01*
X116973750Y-90527000D01*
X116815000Y-90685750D01*
X114224408Y-90685750D01*
X115011468Y-89898690D01*
X116815000Y-89898690D01*
X116815000Y-90114250D01*
X116973750Y-90273000D01*
X117923000Y-90273000D01*
X117923000Y-89548750D01*
X117764250Y-89390000D01*
X117323691Y-89390000D01*
X117090302Y-89486673D01*
X116911673Y-89665301D01*
X116815000Y-89898690D01*
X115011468Y-89898690D01*
X116583156Y-88327002D01*
X116723748Y-88327002D01*
X116565000Y-88485750D01*
X116565000Y-88776310D01*
X116661673Y-89009699D01*
X116840302Y-89188327D01*
X117073691Y-89285000D01*
X117514250Y-89285000D01*
X117673000Y-89126250D01*
X117673000Y-88327000D01*
X117653000Y-88327000D01*
X117653000Y-88073000D01*
X117673000Y-88073000D01*
X117673000Y-88053000D01*
X117927000Y-88053000D01*
X117927000Y-88073000D01*
X117927000Y-88073000D01*
G37*
X117927000Y-88073000D02*
X117947000Y-88073000D01*
X117947000Y-88327000D01*
X117927000Y-88327000D01*
X117927000Y-89126250D01*
X118085750Y-89285000D01*
X118526309Y-89285000D01*
X118759698Y-89188327D01*
X118900936Y-89047090D01*
X118935910Y-89101441D01*
X119148110Y-89246431D01*
X119165000Y-89249851D01*
X119165000Y-89412370D01*
X119114683Y-89421838D01*
X119011354Y-89488329D01*
X119009698Y-89486673D01*
X118776309Y-89390000D01*
X118335750Y-89390000D01*
X118177000Y-89548750D01*
X118177000Y-90273000D01*
X118197000Y-90273000D01*
X118197000Y-90527000D01*
X118177000Y-90527000D01*
X118177000Y-91251250D01*
X118335750Y-91410000D01*
X118623100Y-91410000D01*
X118563762Y-91552901D01*
X118563694Y-91630486D01*
X118526309Y-91615000D01*
X118085750Y-91615000D01*
X117927000Y-91773750D01*
X117927000Y-92573000D01*
X117947000Y-92573000D01*
X117947000Y-92827000D01*
X117927000Y-92827000D01*
X117927000Y-93626250D01*
X118085750Y-93785000D01*
X118526309Y-93785000D01*
X118759698Y-93688327D01*
X118900936Y-93547090D01*
X118935910Y-93601441D01*
X119148110Y-93746431D01*
X119400000Y-93797440D01*
X120462482Y-93797440D01*
X120520521Y-93855479D01*
X120775194Y-94025645D01*
X121075600Y-94085400D01*
X125142000Y-94085400D01*
X125442407Y-94025645D01*
X125502638Y-93985400D01*
X131425442Y-93985400D01*
X142568046Y-105128004D01*
X142227071Y-105269240D01*
X142165417Y-105504852D01*
X142920000Y-106259435D01*
X142934143Y-106245293D01*
X143113748Y-106424898D01*
X143099605Y-106439040D01*
X143113748Y-106453183D01*
X142934143Y-106632788D01*
X142920000Y-106618645D01*
X142905858Y-106632788D01*
X142726253Y-106453183D01*
X142740395Y-106439040D01*
X141985812Y-105684457D01*
X141750200Y-105746111D01*
X141628744Y-106091190D01*
X141511146Y-105806580D01*
X141136353Y-105431133D01*
X140646413Y-105227692D01*
X140115914Y-105227229D01*
X139625620Y-105429814D01*
X139250173Y-105804607D01*
X139135157Y-106081597D01*
X138971146Y-105684660D01*
X138596353Y-105309213D01*
X138106413Y-105105772D01*
X137575914Y-105105309D01*
X137085620Y-105307894D01*
X136710173Y-105682687D01*
X136544656Y-106081296D01*
X136431146Y-105806580D01*
X136056353Y-105431133D01*
X135566413Y-105227692D01*
X135035914Y-105227229D01*
X134545620Y-105429814D01*
X134170173Y-105804607D01*
X134055157Y-106081597D01*
X133891146Y-105684660D01*
X133516353Y-105309213D01*
X133026413Y-105105772D01*
X132536502Y-105105344D01*
X123882579Y-96451421D01*
X123627907Y-96281255D01*
X123327500Y-96221500D01*
X88116558Y-96221500D01*
X84292498Y-92397440D01*
X84375000Y-92397440D01*
X84504589Y-92373056D01*
X84625000Y-92397440D01*
X85175000Y-92397440D01*
X85304589Y-92373056D01*
X85425000Y-92397440D01*
X85975000Y-92397440D01*
X86104589Y-92373056D01*
X86225000Y-92397440D01*
X86775000Y-92397440D01*
X86904589Y-92373056D01*
X87025000Y-92397440D01*
X87314159Y-92397440D01*
X87328561Y-92469841D01*
X87472633Y-92685460D01*
X87509566Y-92740734D01*
X88364266Y-93595434D01*
X88635159Y-93776439D01*
X88954700Y-93840000D01*
X90492000Y-93840000D01*
X90811541Y-93776439D01*
X91082434Y-93595434D01*
X91645868Y-93032000D01*
X92501400Y-93032000D01*
X92820941Y-92968439D01*
X93091834Y-92787434D01*
X94390434Y-91488834D01*
X94571440Y-91217940D01*
X94635000Y-90898400D01*
X94635000Y-90206446D01*
X94785317Y-90178162D01*
X94852393Y-90135000D01*
X103577560Y-90135000D01*
X103577560Y-90665000D01*
X103621838Y-90900317D01*
X103685678Y-90999528D01*
X103628569Y-91083110D01*
X103577560Y-91335000D01*
X103577560Y-91935000D01*
X103621838Y-92170317D01*
X103685678Y-92269528D01*
X103628569Y-92353110D01*
X103577560Y-92605000D01*
X103577560Y-93205000D01*
X103621838Y-93440317D01*
X103760910Y-93656441D01*
X103973110Y-93801431D01*
X104225000Y-93852440D01*
X105775000Y-93852440D01*
X106010317Y-93808162D01*
X106224660Y-93670236D01*
X106425707Y-93630245D01*
X106680379Y-93460079D01*
X106949707Y-93190750D01*
X108990000Y-93190750D01*
X108990000Y-93331310D01*
X109086673Y-93564699D01*
X109265302Y-93743327D01*
X109498691Y-93840000D01*
X110114250Y-93840000D01*
X110273000Y-93681250D01*
X110273000Y-93032000D01*
X110527000Y-93032000D01*
X110527000Y-93681250D01*
X110685750Y-93840000D01*
X111301309Y-93840000D01*
X111534698Y-93743327D01*
X111713327Y-93564699D01*
X111810000Y-93331310D01*
X111810000Y-93190750D01*
X111651250Y-93032000D01*
X110527000Y-93032000D01*
X110273000Y-93032000D01*
X109148750Y-93032000D01*
X108990000Y-93190750D01*
X106949707Y-93190750D01*
X107154707Y-92985750D01*
X116565000Y-92985750D01*
X116565000Y-93276310D01*
X116661673Y-93509699D01*
X116840302Y-93688327D01*
X117073691Y-93785000D01*
X117514250Y-93785000D01*
X117673000Y-93626250D01*
X117673000Y-92827000D01*
X116723750Y-92827000D01*
X116565000Y-92985750D01*
X107154707Y-92985750D01*
X107215676Y-92924781D01*
X107215679Y-92924779D01*
X107385845Y-92670106D01*
X107398876Y-92604594D01*
X107445601Y-92369700D01*
X107445600Y-92369695D01*
X107445600Y-89662958D01*
X108489700Y-90707058D01*
X108489700Y-91635000D01*
X108549455Y-91935406D01*
X108719621Y-92190079D01*
X108974294Y-92360245D01*
X109034131Y-92372148D01*
X108990000Y-92478690D01*
X108990000Y-92619250D01*
X109148750Y-92778000D01*
X110273000Y-92778000D01*
X110273000Y-92758000D01*
X110527000Y-92758000D01*
X110527000Y-92778000D01*
X111651250Y-92778000D01*
X111810000Y-92619250D01*
X111810000Y-92478690D01*
X111785690Y-92420000D01*
X112165000Y-92420000D01*
X112465407Y-92360245D01*
X112720079Y-92190079D01*
X112786468Y-92123690D01*
X116565000Y-92123690D01*
X116565000Y-92414250D01*
X116723750Y-92573000D01*
X117673000Y-92573000D01*
X117673000Y-91773750D01*
X117514250Y-91615000D01*
X117073691Y-91615000D01*
X116840302Y-91711673D01*
X116661673Y-91890301D01*
X116565000Y-92123690D01*
X112786468Y-92123690D01*
X114224408Y-90685750D01*
X116815000Y-90685750D01*
X116815000Y-90901310D01*
X116911673Y-91134699D01*
X117090302Y-91313327D01*
X117323691Y-91410000D01*
X117764250Y-91410000D01*
X117923000Y-91251250D01*
X117923000Y-90527000D01*
X116973750Y-90527000D01*
X116815000Y-90685750D01*
X114224408Y-90685750D01*
X115011468Y-89898690D01*
X116815000Y-89898690D01*
X116815000Y-90114250D01*
X116973750Y-90273000D01*
X117923000Y-90273000D01*
X117923000Y-89548750D01*
X117764250Y-89390000D01*
X117323691Y-89390000D01*
X117090302Y-89486673D01*
X116911673Y-89665301D01*
X116815000Y-89898690D01*
X115011468Y-89898690D01*
X116583156Y-88327002D01*
X116723748Y-88327002D01*
X116565000Y-88485750D01*
X116565000Y-88776310D01*
X116661673Y-89009699D01*
X116840302Y-89188327D01*
X117073691Y-89285000D01*
X117514250Y-89285000D01*
X117673000Y-89126250D01*
X117673000Y-88327000D01*
X117653000Y-88327000D01*
X117653000Y-88073000D01*
X117673000Y-88073000D01*
X117673000Y-88053000D01*
X117927000Y-88053000D01*
X117927000Y-88073000D01*
G36*
X124355000Y-100558398D02*
X124355000Y-105460381D01*
X124010173Y-105804607D01*
X123806732Y-106294547D01*
X123806561Y-106490003D01*
X120413479Y-103096921D01*
X120158807Y-102926755D01*
X119858400Y-102867000D01*
X92573258Y-102867000D01*
X88498168Y-98791910D01*
X122588512Y-98791910D01*
X124355000Y-100558398D01*
X124355000Y-100558398D01*
G37*
X124355000Y-100558398D02*
X124355000Y-105460381D01*
X124010173Y-105804607D01*
X123806732Y-106294547D01*
X123806561Y-106490003D01*
X120413479Y-103096921D01*
X120158807Y-102926755D01*
X119858400Y-102867000D01*
X92573258Y-102867000D01*
X88498168Y-98791910D01*
X122588512Y-98791910D01*
X124355000Y-100558398D01*
G36*
X142364110Y-70422815D02*
X142688460Y-71207800D01*
X143288521Y-71808909D01*
X144072939Y-72134628D01*
X144922295Y-72135370D01*
X145707280Y-71811020D01*
X145923900Y-71594778D01*
X145923900Y-99405625D01*
X145710439Y-99191791D01*
X144926021Y-98866072D01*
X144076665Y-98865330D01*
X143291680Y-99189680D01*
X142690571Y-99789741D01*
X142364852Y-100574159D01*
X142364318Y-101185650D01*
X136810300Y-95631632D01*
X136810300Y-75260000D01*
X137094800Y-75260000D01*
X137414341Y-75196439D01*
X137685234Y-75015434D01*
X142364185Y-70336483D01*
X142364110Y-70422815D01*
X142364110Y-70422815D01*
G37*
X142364110Y-70422815D02*
X142688460Y-71207800D01*
X143288521Y-71808909D01*
X144072939Y-72134628D01*
X144922295Y-72135370D01*
X145707280Y-71811020D01*
X145923900Y-71594778D01*
X145923900Y-99405625D01*
X145710439Y-99191791D01*
X144926021Y-98866072D01*
X144076665Y-98865330D01*
X143291680Y-99189680D01*
X142690571Y-99789741D01*
X142364852Y-100574159D01*
X142364318Y-101185650D01*
X136810300Y-95631632D01*
X136810300Y-75260000D01*
X137094800Y-75260000D01*
X137414341Y-75196439D01*
X137685234Y-75015434D01*
X142364185Y-70336483D01*
X142364110Y-70422815D01*
G36*
X135140300Y-95479942D02*
X133157798Y-93497440D01*
X133800000Y-93497440D01*
X134035317Y-93453162D01*
X134251441Y-93314090D01*
X134396431Y-93101890D01*
X134447440Y-92850000D01*
X134447440Y-91950000D01*
X134403162Y-91714683D01*
X134306759Y-91564869D01*
X134399945Y-91425407D01*
X134459700Y-91125000D01*
X134459700Y-88852440D01*
X135140300Y-88852440D01*
X135140300Y-95479942D01*
X135140300Y-95479942D01*
G37*
X135140300Y-95479942D02*
X133157798Y-93497440D01*
X133800000Y-93497440D01*
X134035317Y-93453162D01*
X134251441Y-93314090D01*
X134396431Y-93101890D01*
X134447440Y-92850000D01*
X134447440Y-91950000D01*
X134403162Y-91714683D01*
X134306759Y-91564869D01*
X134399945Y-91425407D01*
X134459700Y-91125000D01*
X134459700Y-88852440D01*
X135140300Y-88852440D01*
X135140300Y-95479942D01*
G36*
X66851600Y-90438242D02*
X63940308Y-93349534D01*
X63376487Y-93115415D01*
X62427675Y-93114587D01*
X61550771Y-93476916D01*
X60879274Y-94147242D01*
X60800255Y-94337540D01*
X60723084Y-94150771D01*
X60052758Y-93479274D01*
X59176487Y-93115415D01*
X58664690Y-93114968D01*
X66851600Y-84928058D01*
X66851600Y-90438242D01*
X66851600Y-90438242D01*
G37*
X66851600Y-90438242D02*
X63940308Y-93349534D01*
X63376487Y-93115415D01*
X62427675Y-93114587D01*
X61550771Y-93476916D01*
X60879274Y-94147242D01*
X60800255Y-94337540D01*
X60723084Y-94150771D01*
X60052758Y-93479274D01*
X59176487Y-93115415D01*
X58664690Y-93114968D01*
X66851600Y-84928058D01*
X66851600Y-90438242D01*
G36*
X127977560Y-87605000D02*
X127977560Y-88205000D01*
X128021838Y-88440317D01*
X128160910Y-88656441D01*
X128373110Y-88801431D01*
X128625000Y-88852440D01*
X129740300Y-88852440D01*
X129740300Y-91125000D01*
X129800055Y-91425407D01*
X129893917Y-91565881D01*
X129803569Y-91698110D01*
X129752560Y-91950000D01*
X129752560Y-92415400D01*
X126110300Y-92415400D01*
X126110300Y-90450000D01*
X126050545Y-90149594D01*
X125880379Y-89894921D01*
X125625706Y-89724755D01*
X125597830Y-89719210D01*
X125578162Y-89614683D01*
X125439090Y-89398559D01*
X125226890Y-89253569D01*
X124975000Y-89202560D01*
X124659700Y-89202560D01*
X124659700Y-87420000D01*
X128015023Y-87420000D01*
X127977560Y-87605000D01*
X127977560Y-87605000D01*
G37*
X127977560Y-87605000D02*
X127977560Y-88205000D01*
X128021838Y-88440317D01*
X128160910Y-88656441D01*
X128373110Y-88801431D01*
X128625000Y-88852440D01*
X129740300Y-88852440D01*
X129740300Y-91125000D01*
X129800055Y-91425407D01*
X129893917Y-91565881D01*
X129803569Y-91698110D01*
X129752560Y-91950000D01*
X129752560Y-92415400D01*
X126110300Y-92415400D01*
X126110300Y-90450000D01*
X126050545Y-90149594D01*
X125880379Y-89894921D01*
X125625706Y-89724755D01*
X125597830Y-89719210D01*
X125578162Y-89614683D01*
X125439090Y-89398559D01*
X125226890Y-89253569D01*
X124975000Y-89202560D01*
X124659700Y-89202560D01*
X124659700Y-87420000D01*
X128015023Y-87420000D01*
X127977560Y-87605000D01*
G36*
X123089700Y-86400058D02*
X123089700Y-90954700D01*
X121161050Y-90954700D01*
X121197440Y-90775000D01*
X121197440Y-90025000D01*
X121153162Y-89789683D01*
X121014090Y-89573559D01*
X120801890Y-89428569D01*
X120735000Y-89415023D01*
X120735000Y-89272038D01*
X120835317Y-89253162D01*
X121051441Y-89114090D01*
X121196431Y-88901890D01*
X121247440Y-88650000D01*
X121247440Y-87750000D01*
X121203162Y-87514683D01*
X121064090Y-87298559D01*
X120851890Y-87153569D01*
X120785000Y-87140023D01*
X120785000Y-87062630D01*
X120835317Y-87053162D01*
X121051441Y-86914090D01*
X121196431Y-86701890D01*
X121247440Y-86450000D01*
X121247440Y-85550000D01*
X121203162Y-85314683D01*
X121064090Y-85098559D01*
X120851890Y-84953569D01*
X120785000Y-84940023D01*
X120785000Y-84862630D01*
X120835317Y-84853162D01*
X121051441Y-84714090D01*
X121194442Y-84504800D01*
X123089700Y-86400058D01*
X123089700Y-86400058D01*
G37*
X123089700Y-86400058D02*
X123089700Y-90954700D01*
X121161050Y-90954700D01*
X121197440Y-90775000D01*
X121197440Y-90025000D01*
X121153162Y-89789683D01*
X121014090Y-89573559D01*
X120801890Y-89428569D01*
X120735000Y-89415023D01*
X120735000Y-89272038D01*
X120835317Y-89253162D01*
X121051441Y-89114090D01*
X121196431Y-88901890D01*
X121247440Y-88650000D01*
X121247440Y-87750000D01*
X121203162Y-87514683D01*
X121064090Y-87298559D01*
X120851890Y-87153569D01*
X120785000Y-87140023D01*
X120785000Y-87062630D01*
X120835317Y-87053162D01*
X121051441Y-86914090D01*
X121196431Y-86701890D01*
X121247440Y-86450000D01*
X121247440Y-85550000D01*
X121203162Y-85314683D01*
X121064090Y-85098559D01*
X120851890Y-84953569D01*
X120785000Y-84940023D01*
X120785000Y-84862630D01*
X120835317Y-84853162D01*
X121051441Y-84714090D01*
X121194442Y-84504800D01*
X123089700Y-86400058D01*
G36*
X123307662Y-80610401D02*
X123307338Y-80982367D01*
X123449383Y-81326143D01*
X123712173Y-81589392D01*
X124055701Y-81732038D01*
X124067190Y-81732048D01*
X125980821Y-83645679D01*
X126235493Y-83815845D01*
X126535900Y-83875600D01*
X128056350Y-83875600D01*
X128148750Y-83968000D01*
X129273000Y-83968000D01*
X129273000Y-83948000D01*
X129527000Y-83948000D01*
X129527000Y-83968000D01*
X130651250Y-83968000D01*
X130743650Y-83875600D01*
X131075142Y-83875600D01*
X133119621Y-85920079D01*
X133374293Y-86090245D01*
X133425078Y-86100347D01*
X133377560Y-86335000D01*
X133377560Y-86935000D01*
X133421835Y-87170299D01*
X133374294Y-87179755D01*
X133119621Y-87349921D01*
X132949455Y-87604594D01*
X132889700Y-87905000D01*
X132889700Y-90799842D01*
X132735400Y-90954142D01*
X132735400Y-86790100D01*
X132675645Y-86489694D01*
X132505479Y-86235021D01*
X131080379Y-84809921D01*
X130825707Y-84639755D01*
X130765869Y-84627852D01*
X130810000Y-84521310D01*
X130810000Y-84380750D01*
X130651250Y-84222000D01*
X129527000Y-84222000D01*
X129527000Y-84242000D01*
X129273000Y-84242000D01*
X129273000Y-84222000D01*
X128148750Y-84222000D01*
X127990000Y-84380750D01*
X127990000Y-84521310D01*
X128079806Y-84738122D01*
X128028569Y-84813110D01*
X127977560Y-85065000D01*
X127977560Y-85665000D01*
X128012370Y-85850000D01*
X124614964Y-85850000D01*
X124599945Y-85774494D01*
X124429779Y-85519821D01*
X121232708Y-82322750D01*
X121247440Y-82250000D01*
X121247440Y-81350000D01*
X121203162Y-81114683D01*
X121064090Y-80898559D01*
X120851890Y-80753569D01*
X120838803Y-80750919D01*
X121051441Y-80614090D01*
X121139644Y-80485000D01*
X123359733Y-80485000D01*
X123307662Y-80610401D01*
X123307662Y-80610401D01*
G37*
X123307662Y-80610401D02*
X123307338Y-80982367D01*
X123449383Y-81326143D01*
X123712173Y-81589392D01*
X124055701Y-81732038D01*
X124067190Y-81732048D01*
X125980821Y-83645679D01*
X126235493Y-83815845D01*
X126535900Y-83875600D01*
X128056350Y-83875600D01*
X128148750Y-83968000D01*
X129273000Y-83968000D01*
X129273000Y-83948000D01*
X129527000Y-83948000D01*
X129527000Y-83968000D01*
X130651250Y-83968000D01*
X130743650Y-83875600D01*
X131075142Y-83875600D01*
X133119621Y-85920079D01*
X133374293Y-86090245D01*
X133425078Y-86100347D01*
X133377560Y-86335000D01*
X133377560Y-86935000D01*
X133421835Y-87170299D01*
X133374294Y-87179755D01*
X133119621Y-87349921D01*
X132949455Y-87604594D01*
X132889700Y-87905000D01*
X132889700Y-90799842D01*
X132735400Y-90954142D01*
X132735400Y-86790100D01*
X132675645Y-86489694D01*
X132505479Y-86235021D01*
X131080379Y-84809921D01*
X130825707Y-84639755D01*
X130765869Y-84627852D01*
X130810000Y-84521310D01*
X130810000Y-84380750D01*
X130651250Y-84222000D01*
X129527000Y-84222000D01*
X129527000Y-84242000D01*
X129273000Y-84242000D01*
X129273000Y-84222000D01*
X128148750Y-84222000D01*
X127990000Y-84380750D01*
X127990000Y-84521310D01*
X128079806Y-84738122D01*
X128028569Y-84813110D01*
X127977560Y-85065000D01*
X127977560Y-85665000D01*
X128012370Y-85850000D01*
X124614964Y-85850000D01*
X124599945Y-85774494D01*
X124429779Y-85519821D01*
X121232708Y-82322750D01*
X121247440Y-82250000D01*
X121247440Y-81350000D01*
X121203162Y-81114683D01*
X121064090Y-80898559D01*
X120851890Y-80753569D01*
X120838803Y-80750919D01*
X121051441Y-80614090D01*
X121139644Y-80485000D01*
X123359733Y-80485000D01*
X123307662Y-80610401D01*
G36*
X87025000Y-80997440D02*
X87374105Y-80997440D01*
X87374755Y-81000707D01*
X87544921Y-81255379D01*
X88776367Y-82486825D01*
X88776238Y-82635467D01*
X88918283Y-82979243D01*
X89181073Y-83242492D01*
X89524601Y-83385138D01*
X89576700Y-83385183D01*
X89576700Y-85502942D01*
X88956253Y-84882495D01*
X88956262Y-84872333D01*
X88814217Y-84528557D01*
X88551427Y-84265308D01*
X88207899Y-84122662D01*
X87835933Y-84122338D01*
X87492157Y-84264383D01*
X87228908Y-84527173D01*
X87086262Y-84870701D01*
X87085938Y-85242667D01*
X87227983Y-85586443D01*
X87490773Y-85849692D01*
X87834301Y-85992338D01*
X87845790Y-85992348D01*
X91315000Y-89461558D01*
X91315000Y-89602560D01*
X91225895Y-89602560D01*
X91225245Y-89599294D01*
X91055079Y-89344621D01*
X90870432Y-89221245D01*
X90867917Y-89215157D01*
X90605127Y-88951908D01*
X90261599Y-88809262D01*
X89889633Y-88808938D01*
X89545857Y-88950983D01*
X89282608Y-89213773D01*
X89139962Y-89557301D01*
X89139872Y-89660878D01*
X89089349Y-89711401D01*
X88973559Y-89785910D01*
X88933867Y-89844002D01*
X88871439Y-89530159D01*
X88690434Y-89259266D01*
X88419541Y-89078261D01*
X88135000Y-89021662D01*
X88135000Y-88010700D01*
X88071439Y-87691159D01*
X87890434Y-87420266D01*
X86233334Y-85763166D01*
X86171276Y-85721700D01*
X85962441Y-85582161D01*
X85735000Y-85536920D01*
X85735000Y-80997440D01*
X85975000Y-80997440D01*
X86104589Y-80973056D01*
X86225000Y-80997440D01*
X86775000Y-80997440D01*
X86904589Y-80973056D01*
X87025000Y-80997440D01*
X87025000Y-80997440D01*
G37*
X87025000Y-80997440D02*
X87374105Y-80997440D01*
X87374755Y-81000707D01*
X87544921Y-81255379D01*
X88776367Y-82486825D01*
X88776238Y-82635467D01*
X88918283Y-82979243D01*
X89181073Y-83242492D01*
X89524601Y-83385138D01*
X89576700Y-83385183D01*
X89576700Y-85502942D01*
X88956253Y-84882495D01*
X88956262Y-84872333D01*
X88814217Y-84528557D01*
X88551427Y-84265308D01*
X88207899Y-84122662D01*
X87835933Y-84122338D01*
X87492157Y-84264383D01*
X87228908Y-84527173D01*
X87086262Y-84870701D01*
X87085938Y-85242667D01*
X87227983Y-85586443D01*
X87490773Y-85849692D01*
X87834301Y-85992338D01*
X87845790Y-85992348D01*
X91315000Y-89461558D01*
X91315000Y-89602560D01*
X91225895Y-89602560D01*
X91225245Y-89599294D01*
X91055079Y-89344621D01*
X90870432Y-89221245D01*
X90867917Y-89215157D01*
X90605127Y-88951908D01*
X90261599Y-88809262D01*
X89889633Y-88808938D01*
X89545857Y-88950983D01*
X89282608Y-89213773D01*
X89139962Y-89557301D01*
X89139872Y-89660878D01*
X89089349Y-89711401D01*
X88973559Y-89785910D01*
X88933867Y-89844002D01*
X88871439Y-89530159D01*
X88690434Y-89259266D01*
X88419541Y-89078261D01*
X88135000Y-89021662D01*
X88135000Y-88010700D01*
X88071439Y-87691159D01*
X87890434Y-87420266D01*
X86233334Y-85763166D01*
X86171276Y-85721700D01*
X85962441Y-85582161D01*
X85735000Y-85536920D01*
X85735000Y-80997440D01*
X85975000Y-80997440D01*
X86104589Y-80973056D01*
X86225000Y-80997440D01*
X86775000Y-80997440D01*
X86904589Y-80973056D01*
X87025000Y-80997440D01*
G36*
X72985201Y-85832638D02*
X73186416Y-85832813D01*
X73152560Y-86000000D01*
X73152560Y-87200000D01*
X73196838Y-87435317D01*
X73335910Y-87651441D01*
X73548110Y-87796431D01*
X73800000Y-87847440D01*
X75200000Y-87847440D01*
X75435317Y-87803162D01*
X75601477Y-87696241D01*
X75748110Y-87796431D01*
X75915000Y-87830227D01*
X75915000Y-88199542D01*
X75894921Y-88219621D01*
X75724755Y-88474293D01*
X75719210Y-88502170D01*
X75614683Y-88521838D01*
X75511354Y-88588329D01*
X75509698Y-88586673D01*
X75276309Y-88490000D01*
X74835750Y-88490000D01*
X74677000Y-88648750D01*
X74677000Y-89373000D01*
X74697000Y-89373000D01*
X74697000Y-89627000D01*
X74677000Y-89627000D01*
X74677000Y-89647000D01*
X74423000Y-89647000D01*
X74423000Y-89627000D01*
X74403000Y-89627000D01*
X74403000Y-89373000D01*
X74423000Y-89373000D01*
X74423000Y-88648750D01*
X74264250Y-88490000D01*
X73823691Y-88490000D01*
X73590302Y-88586673D01*
X73411673Y-88765301D01*
X73335165Y-88950007D01*
X72454092Y-88068934D01*
X72613327Y-87909698D01*
X72710000Y-87676309D01*
X72710000Y-87235750D01*
X72551250Y-87077000D01*
X71827000Y-87077000D01*
X71827000Y-87097000D01*
X71746500Y-87097000D01*
X71746500Y-86803000D01*
X71827000Y-86803000D01*
X71827000Y-86823000D01*
X72551250Y-86823000D01*
X72710000Y-86664250D01*
X72710000Y-86223691D01*
X72613327Y-85990302D01*
X72611957Y-85988932D01*
X72671431Y-85901890D01*
X72695876Y-85781179D01*
X72725707Y-85775245D01*
X72772189Y-85744187D01*
X72985201Y-85832638D01*
X72985201Y-85832638D01*
G37*
X72985201Y-85832638D02*
X73186416Y-85832813D01*
X73152560Y-86000000D01*
X73152560Y-87200000D01*
X73196838Y-87435317D01*
X73335910Y-87651441D01*
X73548110Y-87796431D01*
X73800000Y-87847440D01*
X75200000Y-87847440D01*
X75435317Y-87803162D01*
X75601477Y-87696241D01*
X75748110Y-87796431D01*
X75915000Y-87830227D01*
X75915000Y-88199542D01*
X75894921Y-88219621D01*
X75724755Y-88474293D01*
X75719210Y-88502170D01*
X75614683Y-88521838D01*
X75511354Y-88588329D01*
X75509698Y-88586673D01*
X75276309Y-88490000D01*
X74835750Y-88490000D01*
X74677000Y-88648750D01*
X74677000Y-89373000D01*
X74697000Y-89373000D01*
X74697000Y-89627000D01*
X74677000Y-89627000D01*
X74677000Y-89647000D01*
X74423000Y-89647000D01*
X74423000Y-89627000D01*
X74403000Y-89627000D01*
X74403000Y-89373000D01*
X74423000Y-89373000D01*
X74423000Y-88648750D01*
X74264250Y-88490000D01*
X73823691Y-88490000D01*
X73590302Y-88586673D01*
X73411673Y-88765301D01*
X73335165Y-88950007D01*
X72454092Y-88068934D01*
X72613327Y-87909698D01*
X72710000Y-87676309D01*
X72710000Y-87235750D01*
X72551250Y-87077000D01*
X71827000Y-87077000D01*
X71827000Y-87097000D01*
X71746500Y-87097000D01*
X71746500Y-86803000D01*
X71827000Y-86803000D01*
X71827000Y-86823000D01*
X72551250Y-86823000D01*
X72710000Y-86664250D01*
X72710000Y-86223691D01*
X72613327Y-85990302D01*
X72611957Y-85988932D01*
X72671431Y-85901890D01*
X72695876Y-85781179D01*
X72725707Y-85775245D01*
X72772189Y-85744187D01*
X72985201Y-85832638D01*
G36*
X116735910Y-82701441D02*
X116881083Y-82800633D01*
X116748559Y-82885910D01*
X116603569Y-83098110D01*
X116552560Y-83350000D01*
X116552560Y-84227582D01*
X112310300Y-88469842D01*
X112310300Y-87050158D01*
X116705804Y-82654654D01*
X116735910Y-82701441D01*
X116735910Y-82701441D01*
G37*
X116735910Y-82701441D02*
X116881083Y-82800633D01*
X116748559Y-82885910D01*
X116603569Y-83098110D01*
X116552560Y-83350000D01*
X116552560Y-84227582D01*
X112310300Y-88469842D01*
X112310300Y-87050158D01*
X116705804Y-82654654D01*
X116735910Y-82701441D01*
G36*
X105089700Y-86501742D02*
X104682879Y-86094921D01*
X104428207Y-85924755D01*
X104127800Y-85865000D01*
X99887630Y-85865000D01*
X99878162Y-85814683D01*
X99811671Y-85711354D01*
X99813327Y-85709698D01*
X99910000Y-85476309D01*
X99910000Y-85035750D01*
X99751250Y-84877000D01*
X99027000Y-84877000D01*
X99027000Y-84897000D01*
X98773000Y-84897000D01*
X98773000Y-84877000D01*
X98048750Y-84877000D01*
X97890000Y-85035750D01*
X97890000Y-85476309D01*
X97972491Y-85675460D01*
X97831933Y-85675338D01*
X97488157Y-85817383D01*
X97224908Y-86080173D01*
X97082262Y-86423701D01*
X97081938Y-86795667D01*
X97223983Y-87139443D01*
X97486773Y-87402692D01*
X97830301Y-87545338D01*
X97960533Y-87545451D01*
X98060910Y-87701441D01*
X98273110Y-87846431D01*
X98525000Y-87897440D01*
X99275000Y-87897440D01*
X99510317Y-87853162D01*
X99726441Y-87714090D01*
X99871431Y-87501890D01*
X99884977Y-87435000D01*
X103802642Y-87435000D01*
X104515202Y-88147560D01*
X104225000Y-88147560D01*
X103989683Y-88191838D01*
X103883756Y-88260000D01*
X103824700Y-88260000D01*
X103505160Y-88323560D01*
X103293481Y-88465000D01*
X95185000Y-88465000D01*
X95185000Y-88428369D01*
X95200707Y-88425245D01*
X95455379Y-88255079D01*
X96047379Y-87663079D01*
X96088653Y-87601307D01*
X96217545Y-87408406D01*
X96221727Y-87387383D01*
X96284492Y-87324727D01*
X96427138Y-86981199D01*
X96427462Y-86609233D01*
X96306844Y-86317314D01*
X98024954Y-84599204D01*
X98048750Y-84623000D01*
X98773000Y-84623000D01*
X98773000Y-84603000D01*
X99027000Y-84603000D01*
X99027000Y-84623000D01*
X99751250Y-84623000D01*
X99789550Y-84584700D01*
X102638200Y-84584700D01*
X102938607Y-84524945D01*
X103193279Y-84354779D01*
X105089700Y-82458358D01*
X105089700Y-86501742D01*
X105089700Y-86501742D01*
G37*
X105089700Y-86501742D02*
X104682879Y-86094921D01*
X104428207Y-85924755D01*
X104127800Y-85865000D01*
X99887630Y-85865000D01*
X99878162Y-85814683D01*
X99811671Y-85711354D01*
X99813327Y-85709698D01*
X99910000Y-85476309D01*
X99910000Y-85035750D01*
X99751250Y-84877000D01*
X99027000Y-84877000D01*
X99027000Y-84897000D01*
X98773000Y-84897000D01*
X98773000Y-84877000D01*
X98048750Y-84877000D01*
X97890000Y-85035750D01*
X97890000Y-85476309D01*
X97972491Y-85675460D01*
X97831933Y-85675338D01*
X97488157Y-85817383D01*
X97224908Y-86080173D01*
X97082262Y-86423701D01*
X97081938Y-86795667D01*
X97223983Y-87139443D01*
X97486773Y-87402692D01*
X97830301Y-87545338D01*
X97960533Y-87545451D01*
X98060910Y-87701441D01*
X98273110Y-87846431D01*
X98525000Y-87897440D01*
X99275000Y-87897440D01*
X99510317Y-87853162D01*
X99726441Y-87714090D01*
X99871431Y-87501890D01*
X99884977Y-87435000D01*
X103802642Y-87435000D01*
X104515202Y-88147560D01*
X104225000Y-88147560D01*
X103989683Y-88191838D01*
X103883756Y-88260000D01*
X103824700Y-88260000D01*
X103505160Y-88323560D01*
X103293481Y-88465000D01*
X95185000Y-88465000D01*
X95185000Y-88428369D01*
X95200707Y-88425245D01*
X95455379Y-88255079D01*
X96047379Y-87663079D01*
X96088653Y-87601307D01*
X96217545Y-87408406D01*
X96221727Y-87387383D01*
X96284492Y-87324727D01*
X96427138Y-86981199D01*
X96427462Y-86609233D01*
X96306844Y-86317314D01*
X98024954Y-84599204D01*
X98048750Y-84623000D01*
X98773000Y-84623000D01*
X98773000Y-84603000D01*
X99027000Y-84603000D01*
X99027000Y-84623000D01*
X99751250Y-84623000D01*
X99789550Y-84584700D01*
X102638200Y-84584700D01*
X102938607Y-84524945D01*
X103193279Y-84354779D01*
X105089700Y-82458358D01*
X105089700Y-86501742D01*
G36*
X107535895Y-85377162D02*
X107546838Y-85435317D01*
X107685910Y-85651441D01*
X107898110Y-85796431D01*
X108150000Y-85847440D01*
X109050000Y-85847440D01*
X109285317Y-85803162D01*
X109411870Y-85721728D01*
X110740300Y-87050158D01*
X110740300Y-88147560D01*
X109625000Y-88147560D01*
X109389683Y-88191838D01*
X109173559Y-88330910D01*
X109137192Y-88384134D01*
X107895587Y-87142529D01*
X107897292Y-87140827D01*
X108039938Y-86797299D01*
X108040262Y-86425333D01*
X107898217Y-86081557D01*
X107635427Y-85818308D01*
X107291899Y-85675662D01*
X106919933Y-85675338D01*
X106659700Y-85782864D01*
X106659700Y-85597440D01*
X106975000Y-85597440D01*
X107210317Y-85553162D01*
X107426441Y-85414090D01*
X107461750Y-85362413D01*
X107535895Y-85377162D01*
X107535895Y-85377162D01*
G37*
X107535895Y-85377162D02*
X107546838Y-85435317D01*
X107685910Y-85651441D01*
X107898110Y-85796431D01*
X108150000Y-85847440D01*
X109050000Y-85847440D01*
X109285317Y-85803162D01*
X109411870Y-85721728D01*
X110740300Y-87050158D01*
X110740300Y-88147560D01*
X109625000Y-88147560D01*
X109389683Y-88191838D01*
X109173559Y-88330910D01*
X109137192Y-88384134D01*
X107895587Y-87142529D01*
X107897292Y-87140827D01*
X108039938Y-86797299D01*
X108040262Y-86425333D01*
X107898217Y-86081557D01*
X107635427Y-85818308D01*
X107291899Y-85675662D01*
X106919933Y-85675338D01*
X106659700Y-85782864D01*
X106659700Y-85597440D01*
X106975000Y-85597440D01*
X107210317Y-85553162D01*
X107426441Y-85414090D01*
X107461750Y-85362413D01*
X107535895Y-85377162D01*
G36*
X143313748Y-64624898D02*
X143299605Y-64639040D01*
X143313748Y-64653183D01*
X143134143Y-64832788D01*
X143120000Y-64818645D01*
X142365417Y-65573228D01*
X142418159Y-65774783D01*
X136877942Y-71315000D01*
X136062630Y-71315000D01*
X136053162Y-71264683D01*
X135914090Y-71048559D01*
X135701890Y-70903569D01*
X135450000Y-70852560D01*
X134550000Y-70852560D01*
X134314683Y-70896838D01*
X134098559Y-71035910D01*
X133953569Y-71248110D01*
X133902560Y-71500000D01*
X133902560Y-72700000D01*
X133946838Y-72935317D01*
X134085910Y-73151441D01*
X134155711Y-73199134D01*
X134098559Y-73235910D01*
X133953569Y-73448110D01*
X133902560Y-73700000D01*
X133902560Y-74900000D01*
X133946838Y-75135317D01*
X134085910Y-75351441D01*
X134298110Y-75496431D01*
X134550000Y-75547440D01*
X135140300Y-75547440D01*
X135140300Y-83147560D01*
X134459700Y-83147560D01*
X134459700Y-81004700D01*
X134399945Y-80704294D01*
X134379273Y-80673356D01*
X134496431Y-80501890D01*
X134547440Y-80250000D01*
X134547440Y-79350000D01*
X134503162Y-79114683D01*
X134364090Y-78898559D01*
X134151890Y-78753569D01*
X133900000Y-78702560D01*
X132700000Y-78702560D01*
X132464683Y-78746838D01*
X132248559Y-78885910D01*
X132202031Y-78954006D01*
X132059698Y-78811673D01*
X131826309Y-78715000D01*
X131385750Y-78715000D01*
X131227000Y-78873750D01*
X131227000Y-79673000D01*
X131247000Y-79673000D01*
X131247000Y-79845000D01*
X128436058Y-79845000D01*
X127814748Y-79223690D01*
X129865000Y-79223690D01*
X129865000Y-79514250D01*
X130023750Y-79673000D01*
X130973000Y-79673000D01*
X130973000Y-78873750D01*
X130814250Y-78715000D01*
X130373691Y-78715000D01*
X130140302Y-78811673D01*
X129961673Y-78990301D01*
X129865000Y-79223690D01*
X127814748Y-79223690D01*
X127735979Y-79144921D01*
X127481307Y-78974755D01*
X127180900Y-78915000D01*
X121139018Y-78915000D01*
X121064090Y-78798559D01*
X120851890Y-78653569D01*
X120600000Y-78602560D01*
X119400000Y-78602560D01*
X119164683Y-78646838D01*
X118948559Y-78785910D01*
X118900866Y-78855711D01*
X118864090Y-78798559D01*
X118651890Y-78653569D01*
X118400000Y-78602560D01*
X117200000Y-78602560D01*
X116964683Y-78646838D01*
X116748559Y-78785910D01*
X116603569Y-78998110D01*
X116552560Y-79250000D01*
X116552560Y-80150000D01*
X116596838Y-80385317D01*
X116735910Y-80601441D01*
X116948110Y-80746431D01*
X116961197Y-80749081D01*
X116748559Y-80885910D01*
X116660356Y-81015000D01*
X116450300Y-81015000D01*
X116149894Y-81074755D01*
X115895221Y-81244921D01*
X111525300Y-85614842D01*
X109955379Y-84044921D01*
X109700707Y-83874755D01*
X109672830Y-83869210D01*
X109653162Y-83764683D01*
X109514090Y-83548559D01*
X109444289Y-83500866D01*
X109501441Y-83464090D01*
X109646431Y-83251890D01*
X109697440Y-83000000D01*
X109697440Y-81800000D01*
X109653162Y-81564683D01*
X109514090Y-81348559D01*
X109301890Y-81203569D01*
X109050000Y-81152560D01*
X108150000Y-81152560D01*
X107914683Y-81196838D01*
X107698559Y-81335910D01*
X107553569Y-81548110D01*
X107549202Y-81569677D01*
X107439090Y-81398559D01*
X107226890Y-81253569D01*
X106975000Y-81202560D01*
X106345497Y-81202560D01*
X107735457Y-79812600D01*
X114928800Y-79812600D01*
X115229207Y-79752845D01*
X115483879Y-79582679D01*
X126281558Y-68785000D01*
X132260960Y-68785000D01*
X132561367Y-68725245D01*
X132816039Y-68555079D01*
X135276852Y-66094266D01*
X135764086Y-66094691D01*
X136254380Y-65892106D01*
X136629827Y-65517313D01*
X136795344Y-65118704D01*
X136908854Y-65393420D01*
X137283647Y-65768867D01*
X137773587Y-65972308D01*
X138304086Y-65972771D01*
X138794380Y-65770186D01*
X139169827Y-65395393D01*
X139284843Y-65118403D01*
X139448854Y-65515340D01*
X139823647Y-65890787D01*
X140313587Y-66094228D01*
X140844086Y-66094691D01*
X141334380Y-65892106D01*
X141709827Y-65517313D01*
X141868595Y-65134957D01*
X141950200Y-65331969D01*
X142185812Y-65393623D01*
X142940395Y-64639040D01*
X142926253Y-64624898D01*
X143105858Y-64445293D01*
X143120000Y-64459435D01*
X143134143Y-64445293D01*
X143313748Y-64624898D01*
X143313748Y-64624898D01*
G37*
X143313748Y-64624898D02*
X143299605Y-64639040D01*
X143313748Y-64653183D01*
X143134143Y-64832788D01*
X143120000Y-64818645D01*
X142365417Y-65573228D01*
X142418159Y-65774783D01*
X136877942Y-71315000D01*
X136062630Y-71315000D01*
X136053162Y-71264683D01*
X135914090Y-71048559D01*
X135701890Y-70903569D01*
X135450000Y-70852560D01*
X134550000Y-70852560D01*
X134314683Y-70896838D01*
X134098559Y-71035910D01*
X133953569Y-71248110D01*
X133902560Y-71500000D01*
X133902560Y-72700000D01*
X133946838Y-72935317D01*
X134085910Y-73151441D01*
X134155711Y-73199134D01*
X134098559Y-73235910D01*
X133953569Y-73448110D01*
X133902560Y-73700000D01*
X133902560Y-74900000D01*
X133946838Y-75135317D01*
X134085910Y-75351441D01*
X134298110Y-75496431D01*
X134550000Y-75547440D01*
X135140300Y-75547440D01*
X135140300Y-83147560D01*
X134459700Y-83147560D01*
X134459700Y-81004700D01*
X134399945Y-80704294D01*
X134379273Y-80673356D01*
X134496431Y-80501890D01*
X134547440Y-80250000D01*
X134547440Y-79350000D01*
X134503162Y-79114683D01*
X134364090Y-78898559D01*
X134151890Y-78753569D01*
X133900000Y-78702560D01*
X132700000Y-78702560D01*
X132464683Y-78746838D01*
X132248559Y-78885910D01*
X132202031Y-78954006D01*
X132059698Y-78811673D01*
X131826309Y-78715000D01*
X131385750Y-78715000D01*
X131227000Y-78873750D01*
X131227000Y-79673000D01*
X131247000Y-79673000D01*
X131247000Y-79845000D01*
X128436058Y-79845000D01*
X127814748Y-79223690D01*
X129865000Y-79223690D01*
X129865000Y-79514250D01*
X130023750Y-79673000D01*
X130973000Y-79673000D01*
X130973000Y-78873750D01*
X130814250Y-78715000D01*
X130373691Y-78715000D01*
X130140302Y-78811673D01*
X129961673Y-78990301D01*
X129865000Y-79223690D01*
X127814748Y-79223690D01*
X127735979Y-79144921D01*
X127481307Y-78974755D01*
X127180900Y-78915000D01*
X121139018Y-78915000D01*
X121064090Y-78798559D01*
X120851890Y-78653569D01*
X120600000Y-78602560D01*
X119400000Y-78602560D01*
X119164683Y-78646838D01*
X118948559Y-78785910D01*
X118900866Y-78855711D01*
X118864090Y-78798559D01*
X118651890Y-78653569D01*
X118400000Y-78602560D01*
X117200000Y-78602560D01*
X116964683Y-78646838D01*
X116748559Y-78785910D01*
X116603569Y-78998110D01*
X116552560Y-79250000D01*
X116552560Y-80150000D01*
X116596838Y-80385317D01*
X116735910Y-80601441D01*
X116948110Y-80746431D01*
X116961197Y-80749081D01*
X116748559Y-80885910D01*
X116660356Y-81015000D01*
X116450300Y-81015000D01*
X116149894Y-81074755D01*
X115895221Y-81244921D01*
X111525300Y-85614842D01*
X109955379Y-84044921D01*
X109700707Y-83874755D01*
X109672830Y-83869210D01*
X109653162Y-83764683D01*
X109514090Y-83548559D01*
X109444289Y-83500866D01*
X109501441Y-83464090D01*
X109646431Y-83251890D01*
X109697440Y-83000000D01*
X109697440Y-81800000D01*
X109653162Y-81564683D01*
X109514090Y-81348559D01*
X109301890Y-81203569D01*
X109050000Y-81152560D01*
X108150000Y-81152560D01*
X107914683Y-81196838D01*
X107698559Y-81335910D01*
X107553569Y-81548110D01*
X107549202Y-81569677D01*
X107439090Y-81398559D01*
X107226890Y-81253569D01*
X106975000Y-81202560D01*
X106345497Y-81202560D01*
X107735457Y-79812600D01*
X114928800Y-79812600D01*
X115229207Y-79752845D01*
X115483879Y-79582679D01*
X126281558Y-68785000D01*
X132260960Y-68785000D01*
X132561367Y-68725245D01*
X132816039Y-68555079D01*
X135276852Y-66094266D01*
X135764086Y-66094691D01*
X136254380Y-65892106D01*
X136629827Y-65517313D01*
X136795344Y-65118704D01*
X136908854Y-65393420D01*
X137283647Y-65768867D01*
X137773587Y-65972308D01*
X138304086Y-65972771D01*
X138794380Y-65770186D01*
X139169827Y-65395393D01*
X139284843Y-65118403D01*
X139448854Y-65515340D01*
X139823647Y-65890787D01*
X140313587Y-66094228D01*
X140844086Y-66094691D01*
X141334380Y-65892106D01*
X141709827Y-65517313D01*
X141868595Y-65134957D01*
X141950200Y-65331969D01*
X142185812Y-65393623D01*
X142940395Y-64639040D01*
X142926253Y-64624898D01*
X143105858Y-64445293D01*
X143120000Y-64459435D01*
X143134143Y-64445293D01*
X143313748Y-64624898D01*
G36*
X75127000Y-69873000D02*
X75147000Y-69873000D01*
X75147000Y-70127000D01*
X75127000Y-70127000D01*
X75127000Y-71770378D01*
X75364740Y-71891036D01*
X75470086Y-71866756D01*
X75995606Y-71575212D01*
X76263808Y-71237790D01*
X76454591Y-71523318D01*
X76503281Y-71555851D01*
X74859566Y-73199566D01*
X74724907Y-73401098D01*
X74614683Y-73421838D01*
X74511354Y-73488329D01*
X74509698Y-73486673D01*
X74276309Y-73390000D01*
X73835750Y-73390000D01*
X73677000Y-73548750D01*
X73677000Y-74273000D01*
X73697000Y-74273000D01*
X73697000Y-74527000D01*
X73677000Y-74527000D01*
X73677000Y-75251250D01*
X73835750Y-75410000D01*
X74276309Y-75410000D01*
X74509698Y-75313327D01*
X74511068Y-75311957D01*
X74598110Y-75371431D01*
X74615000Y-75374851D01*
X74615000Y-75599700D01*
X74622663Y-75638225D01*
X74548559Y-75685910D01*
X74502031Y-75754006D01*
X74359698Y-75611673D01*
X74126309Y-75515000D01*
X73685750Y-75515000D01*
X73527000Y-75673750D01*
X73527000Y-76473000D01*
X73547000Y-76473000D01*
X73547000Y-76727000D01*
X73527000Y-76727000D01*
X73527000Y-77526250D01*
X73685750Y-77685000D01*
X74126309Y-77685000D01*
X74359698Y-77588327D01*
X74500936Y-77447090D01*
X74535910Y-77501441D01*
X74748110Y-77646431D01*
X74765000Y-77649851D01*
X74765000Y-77877560D01*
X74750000Y-77877560D01*
X74514683Y-77921838D01*
X74411354Y-77988329D01*
X74409698Y-77986673D01*
X74176309Y-77890000D01*
X73735750Y-77890000D01*
X73577000Y-78048750D01*
X73577000Y-78773000D01*
X73597000Y-78773000D01*
X73597000Y-79027000D01*
X73577000Y-79027000D01*
X73577000Y-79751250D01*
X73735750Y-79910000D01*
X74176309Y-79910000D01*
X74409698Y-79813327D01*
X74411068Y-79811957D01*
X74498110Y-79871431D01*
X74556359Y-79883227D01*
X74578561Y-79994841D01*
X74679042Y-80145221D01*
X74759566Y-80265734D01*
X75096392Y-80602560D01*
X75000000Y-80602560D01*
X74764683Y-80646838D01*
X74600507Y-80752482D01*
X74559698Y-80711673D01*
X74326309Y-80615000D01*
X73410750Y-80615000D01*
X73252000Y-80773750D01*
X73252000Y-81673000D01*
X73272000Y-81673000D01*
X73272000Y-81927000D01*
X73252000Y-81927000D01*
X73252000Y-82826250D01*
X73410750Y-82985000D01*
X74326309Y-82985000D01*
X74559698Y-82888327D01*
X74601660Y-82846366D01*
X74748110Y-82946431D01*
X75000000Y-82997440D01*
X77131130Y-82997440D01*
X77025055Y-83156193D01*
X76976639Y-83399593D01*
X76965300Y-83456600D01*
X76965300Y-83752560D01*
X76000000Y-83752560D01*
X75764683Y-83796838D01*
X75598523Y-83903759D01*
X75451890Y-83803569D01*
X75200000Y-83752560D01*
X73800000Y-83752560D01*
X73564683Y-83796838D01*
X73348559Y-83935910D01*
X73330092Y-83962937D01*
X72986833Y-83962638D01*
X72643057Y-84104683D01*
X72634926Y-84112800D01*
X72612602Y-84112800D01*
X72539090Y-83998559D01*
X72326890Y-83853569D01*
X72075000Y-83802560D01*
X71746500Y-83802560D01*
X71746500Y-82911605D01*
X71923691Y-82985000D01*
X72839250Y-82985000D01*
X72998000Y-82826250D01*
X72998000Y-81927000D01*
X72978000Y-81927000D01*
X72978000Y-81673000D01*
X72998000Y-81673000D01*
X72998000Y-80773750D01*
X72839250Y-80615000D01*
X71923691Y-80615000D01*
X71746500Y-80688395D01*
X71746500Y-79185750D01*
X72215000Y-79185750D01*
X72215000Y-79401310D01*
X72311673Y-79634699D01*
X72490302Y-79813327D01*
X72723691Y-79910000D01*
X73164250Y-79910000D01*
X73323000Y-79751250D01*
X73323000Y-79027000D01*
X72373750Y-79027000D01*
X72215000Y-79185750D01*
X71746500Y-79185750D01*
X71746500Y-78398690D01*
X72215000Y-78398690D01*
X72215000Y-78614250D01*
X72373750Y-78773000D01*
X73323000Y-78773000D01*
X73323000Y-78048750D01*
X73164250Y-77890000D01*
X72723691Y-77890000D01*
X72490302Y-77986673D01*
X72311673Y-78165301D01*
X72215000Y-78398690D01*
X71746500Y-78398690D01*
X71746500Y-76885750D01*
X72165000Y-76885750D01*
X72165000Y-77176310D01*
X72261673Y-77409699D01*
X72440302Y-77588327D01*
X72673691Y-77685000D01*
X73114250Y-77685000D01*
X73273000Y-77526250D01*
X73273000Y-76727000D01*
X72323750Y-76727000D01*
X72165000Y-76885750D01*
X71746500Y-76885750D01*
X71746500Y-76023690D01*
X72165000Y-76023690D01*
X72165000Y-76314250D01*
X72323750Y-76473000D01*
X73273000Y-76473000D01*
X73273000Y-75673750D01*
X73114250Y-75515000D01*
X72673691Y-75515000D01*
X72440302Y-75611673D01*
X72261673Y-75790301D01*
X72165000Y-76023690D01*
X71746500Y-76023690D01*
X71746500Y-74685750D01*
X72315000Y-74685750D01*
X72315000Y-74901310D01*
X72411673Y-75134699D01*
X72590302Y-75313327D01*
X72823691Y-75410000D01*
X73264250Y-75410000D01*
X73423000Y-75251250D01*
X73423000Y-74527000D01*
X72473750Y-74527000D01*
X72315000Y-74685750D01*
X71746500Y-74685750D01*
X71746500Y-73898690D01*
X72315000Y-73898690D01*
X72315000Y-74114250D01*
X72473750Y-74273000D01*
X73423000Y-74273000D01*
X73423000Y-73548750D01*
X73264250Y-73390000D01*
X72823691Y-73390000D01*
X72590302Y-73486673D01*
X72411673Y-73665301D01*
X72315000Y-73898690D01*
X71746500Y-73898690D01*
X71746500Y-71779058D01*
X73465000Y-70060558D01*
X73465000Y-70527000D01*
X73630446Y-71104752D01*
X74004394Y-71575212D01*
X74529914Y-71866756D01*
X74635260Y-71891036D01*
X74873000Y-71770378D01*
X74873000Y-70127000D01*
X74853000Y-70127000D01*
X74853000Y-69873000D01*
X74873000Y-69873000D01*
X74873000Y-69853000D01*
X75127000Y-69853000D01*
X75127000Y-69873000D01*
X75127000Y-69873000D01*
G37*
X75127000Y-69873000D02*
X75147000Y-69873000D01*
X75147000Y-70127000D01*
X75127000Y-70127000D01*
X75127000Y-71770378D01*
X75364740Y-71891036D01*
X75470086Y-71866756D01*
X75995606Y-71575212D01*
X76263808Y-71237790D01*
X76454591Y-71523318D01*
X76503281Y-71555851D01*
X74859566Y-73199566D01*
X74724907Y-73401098D01*
X74614683Y-73421838D01*
X74511354Y-73488329D01*
X74509698Y-73486673D01*
X74276309Y-73390000D01*
X73835750Y-73390000D01*
X73677000Y-73548750D01*
X73677000Y-74273000D01*
X73697000Y-74273000D01*
X73697000Y-74527000D01*
X73677000Y-74527000D01*
X73677000Y-75251250D01*
X73835750Y-75410000D01*
X74276309Y-75410000D01*
X74509698Y-75313327D01*
X74511068Y-75311957D01*
X74598110Y-75371431D01*
X74615000Y-75374851D01*
X74615000Y-75599700D01*
X74622663Y-75638225D01*
X74548559Y-75685910D01*
X74502031Y-75754006D01*
X74359698Y-75611673D01*
X74126309Y-75515000D01*
X73685750Y-75515000D01*
X73527000Y-75673750D01*
X73527000Y-76473000D01*
X73547000Y-76473000D01*
X73547000Y-76727000D01*
X73527000Y-76727000D01*
X73527000Y-77526250D01*
X73685750Y-77685000D01*
X74126309Y-77685000D01*
X74359698Y-77588327D01*
X74500936Y-77447090D01*
X74535910Y-77501441D01*
X74748110Y-77646431D01*
X74765000Y-77649851D01*
X74765000Y-77877560D01*
X74750000Y-77877560D01*
X74514683Y-77921838D01*
X74411354Y-77988329D01*
X74409698Y-77986673D01*
X74176309Y-77890000D01*
X73735750Y-77890000D01*
X73577000Y-78048750D01*
X73577000Y-78773000D01*
X73597000Y-78773000D01*
X73597000Y-79027000D01*
X73577000Y-79027000D01*
X73577000Y-79751250D01*
X73735750Y-79910000D01*
X74176309Y-79910000D01*
X74409698Y-79813327D01*
X74411068Y-79811957D01*
X74498110Y-79871431D01*
X74556359Y-79883227D01*
X74578561Y-79994841D01*
X74679042Y-80145221D01*
X74759566Y-80265734D01*
X75096392Y-80602560D01*
X75000000Y-80602560D01*
X74764683Y-80646838D01*
X74600507Y-80752482D01*
X74559698Y-80711673D01*
X74326309Y-80615000D01*
X73410750Y-80615000D01*
X73252000Y-80773750D01*
X73252000Y-81673000D01*
X73272000Y-81673000D01*
X73272000Y-81927000D01*
X73252000Y-81927000D01*
X73252000Y-82826250D01*
X73410750Y-82985000D01*
X74326309Y-82985000D01*
X74559698Y-82888327D01*
X74601660Y-82846366D01*
X74748110Y-82946431D01*
X75000000Y-82997440D01*
X77131130Y-82997440D01*
X77025055Y-83156193D01*
X76976639Y-83399593D01*
X76965300Y-83456600D01*
X76965300Y-83752560D01*
X76000000Y-83752560D01*
X75764683Y-83796838D01*
X75598523Y-83903759D01*
X75451890Y-83803569D01*
X75200000Y-83752560D01*
X73800000Y-83752560D01*
X73564683Y-83796838D01*
X73348559Y-83935910D01*
X73330092Y-83962937D01*
X72986833Y-83962638D01*
X72643057Y-84104683D01*
X72634926Y-84112800D01*
X72612602Y-84112800D01*
X72539090Y-83998559D01*
X72326890Y-83853569D01*
X72075000Y-83802560D01*
X71746500Y-83802560D01*
X71746500Y-82911605D01*
X71923691Y-82985000D01*
X72839250Y-82985000D01*
X72998000Y-82826250D01*
X72998000Y-81927000D01*
X72978000Y-81927000D01*
X72978000Y-81673000D01*
X72998000Y-81673000D01*
X72998000Y-80773750D01*
X72839250Y-80615000D01*
X71923691Y-80615000D01*
X71746500Y-80688395D01*
X71746500Y-79185750D01*
X72215000Y-79185750D01*
X72215000Y-79401310D01*
X72311673Y-79634699D01*
X72490302Y-79813327D01*
X72723691Y-79910000D01*
X73164250Y-79910000D01*
X73323000Y-79751250D01*
X73323000Y-79027000D01*
X72373750Y-79027000D01*
X72215000Y-79185750D01*
X71746500Y-79185750D01*
X71746500Y-78398690D01*
X72215000Y-78398690D01*
X72215000Y-78614250D01*
X72373750Y-78773000D01*
X73323000Y-78773000D01*
X73323000Y-78048750D01*
X73164250Y-77890000D01*
X72723691Y-77890000D01*
X72490302Y-77986673D01*
X72311673Y-78165301D01*
X72215000Y-78398690D01*
X71746500Y-78398690D01*
X71746500Y-76885750D01*
X72165000Y-76885750D01*
X72165000Y-77176310D01*
X72261673Y-77409699D01*
X72440302Y-77588327D01*
X72673691Y-77685000D01*
X73114250Y-77685000D01*
X73273000Y-77526250D01*
X73273000Y-76727000D01*
X72323750Y-76727000D01*
X72165000Y-76885750D01*
X71746500Y-76885750D01*
X71746500Y-76023690D01*
X72165000Y-76023690D01*
X72165000Y-76314250D01*
X72323750Y-76473000D01*
X73273000Y-76473000D01*
X73273000Y-75673750D01*
X73114250Y-75515000D01*
X72673691Y-75515000D01*
X72440302Y-75611673D01*
X72261673Y-75790301D01*
X72165000Y-76023690D01*
X71746500Y-76023690D01*
X71746500Y-74685750D01*
X72315000Y-74685750D01*
X72315000Y-74901310D01*
X72411673Y-75134699D01*
X72590302Y-75313327D01*
X72823691Y-75410000D01*
X73264250Y-75410000D01*
X73423000Y-75251250D01*
X73423000Y-74527000D01*
X72473750Y-74527000D01*
X72315000Y-74685750D01*
X71746500Y-74685750D01*
X71746500Y-73898690D01*
X72315000Y-73898690D01*
X72315000Y-74114250D01*
X72473750Y-74273000D01*
X73423000Y-74273000D01*
X73423000Y-73548750D01*
X73264250Y-73390000D01*
X72823691Y-73390000D01*
X72590302Y-73486673D01*
X72411673Y-73665301D01*
X72315000Y-73898690D01*
X71746500Y-73898690D01*
X71746500Y-71779058D01*
X73465000Y-70060558D01*
X73465000Y-70527000D01*
X73630446Y-71104752D01*
X74004394Y-71575212D01*
X74529914Y-71866756D01*
X74635260Y-71891036D01*
X74873000Y-71770378D01*
X74873000Y-70127000D01*
X74853000Y-70127000D01*
X74853000Y-69873000D01*
X74873000Y-69873000D01*
X74873000Y-69853000D01*
X75127000Y-69853000D01*
X75127000Y-69873000D01*
G36*
X127555821Y-81185079D02*
X127810494Y-81355245D01*
X128110900Y-81415001D01*
X128110905Y-81415000D01*
X132889700Y-81415000D01*
X132889700Y-83469842D01*
X131955379Y-82535521D01*
X131700707Y-82365355D01*
X131400300Y-82305600D01*
X126861058Y-82305600D01*
X125177653Y-80622195D01*
X125177662Y-80612033D01*
X125125173Y-80485000D01*
X126855742Y-80485000D01*
X127555821Y-81185079D01*
X127555821Y-81185079D01*
G37*
X127555821Y-81185079D02*
X127810494Y-81355245D01*
X128110900Y-81415001D01*
X128110905Y-81415000D01*
X132889700Y-81415000D01*
X132889700Y-83469842D01*
X131955379Y-82535521D01*
X131700707Y-82365355D01*
X131400300Y-82305600D01*
X126861058Y-82305600D01*
X125177653Y-80622195D01*
X125177662Y-80612033D01*
X125125173Y-80485000D01*
X126855742Y-80485000D01*
X127555821Y-81185079D01*
G36*
X113996096Y-76996846D02*
X113926250Y-76927000D01*
X113127000Y-76927000D01*
X113127000Y-76947000D01*
X112873000Y-76947000D01*
X112873000Y-76927000D01*
X112073750Y-76927000D01*
X111918550Y-77082200D01*
X105695400Y-77082200D01*
X105394994Y-77141955D01*
X105140321Y-77312121D01*
X100562942Y-81889500D01*
X100085000Y-81889500D01*
X100085000Y-81885750D01*
X99926250Y-81727000D01*
X99127000Y-81727000D01*
X99127000Y-81747000D01*
X98873000Y-81747000D01*
X98873000Y-81727000D01*
X98073750Y-81727000D01*
X97915000Y-81885750D01*
X97915000Y-81889500D01*
X96725800Y-81889500D01*
X96425394Y-81949255D01*
X96170721Y-82119421D01*
X95769767Y-82520375D01*
X95582827Y-82333108D01*
X95239299Y-82190462D01*
X95024847Y-82190275D01*
X95014090Y-82173559D01*
X94955998Y-82133867D01*
X95269841Y-82071439D01*
X95540734Y-81890434D01*
X95794133Y-81637035D01*
X96034743Y-81537617D01*
X96297992Y-81274827D01*
X96440638Y-80931299D01*
X96440687Y-80874900D01*
X96532342Y-80874900D01*
X96562921Y-80905479D01*
X96817594Y-81075645D01*
X97118000Y-81135401D01*
X97118005Y-81135400D01*
X97915000Y-81135400D01*
X97915000Y-81314250D01*
X98073750Y-81473000D01*
X98873000Y-81473000D01*
X98873000Y-81453000D01*
X99127000Y-81453000D01*
X99127000Y-81473000D01*
X99926250Y-81473000D01*
X100085000Y-81314250D01*
X100085000Y-80949097D01*
X100150279Y-80905479D01*
X104421158Y-76634600D01*
X112035350Y-76634600D01*
X112073750Y-76673000D01*
X112873000Y-76673000D01*
X112873000Y-76653000D01*
X113127000Y-76653000D01*
X113127000Y-76673000D01*
X113926250Y-76673000D01*
X113964650Y-76634600D01*
X114251400Y-76634600D01*
X114384896Y-76608046D01*
X113996096Y-76996846D01*
X113996096Y-76996846D01*
G37*
X113996096Y-76996846D02*
X113926250Y-76927000D01*
X113127000Y-76927000D01*
X113127000Y-76947000D01*
X112873000Y-76947000D01*
X112873000Y-76927000D01*
X112073750Y-76927000D01*
X111918550Y-77082200D01*
X105695400Y-77082200D01*
X105394994Y-77141955D01*
X105140321Y-77312121D01*
X100562942Y-81889500D01*
X100085000Y-81889500D01*
X100085000Y-81885750D01*
X99926250Y-81727000D01*
X99127000Y-81727000D01*
X99127000Y-81747000D01*
X98873000Y-81747000D01*
X98873000Y-81727000D01*
X98073750Y-81727000D01*
X97915000Y-81885750D01*
X97915000Y-81889500D01*
X96725800Y-81889500D01*
X96425394Y-81949255D01*
X96170721Y-82119421D01*
X95769767Y-82520375D01*
X95582827Y-82333108D01*
X95239299Y-82190462D01*
X95024847Y-82190275D01*
X95014090Y-82173559D01*
X94955998Y-82133867D01*
X95269841Y-82071439D01*
X95540734Y-81890434D01*
X95794133Y-81637035D01*
X96034743Y-81537617D01*
X96297992Y-81274827D01*
X96440638Y-80931299D01*
X96440687Y-80874900D01*
X96532342Y-80874900D01*
X96562921Y-80905479D01*
X96817594Y-81075645D01*
X97118000Y-81135401D01*
X97118005Y-81135400D01*
X97915000Y-81135400D01*
X97915000Y-81314250D01*
X98073750Y-81473000D01*
X98873000Y-81473000D01*
X98873000Y-81453000D01*
X99127000Y-81453000D01*
X99127000Y-81473000D01*
X99926250Y-81473000D01*
X100085000Y-81314250D01*
X100085000Y-80949097D01*
X100150279Y-80905479D01*
X104421158Y-76634600D01*
X112035350Y-76634600D01*
X112073750Y-76673000D01*
X112873000Y-76673000D01*
X112873000Y-76653000D01*
X113127000Y-76653000D01*
X113127000Y-76673000D01*
X113926250Y-76673000D01*
X113964650Y-76634600D01*
X114251400Y-76634600D01*
X114384896Y-76608046D01*
X113996096Y-76996846D01*
G36*
X84065000Y-77705868D02*
X84065000Y-78215000D01*
X83972998Y-78215000D01*
X83972998Y-78373748D01*
X83814250Y-78215000D01*
X83698690Y-78215000D01*
X83465301Y-78311673D01*
X83286673Y-78490302D01*
X83190000Y-78723691D01*
X83190000Y-79314250D01*
X83348750Y-79473000D01*
X83973000Y-79473000D01*
X83973000Y-79453000D01*
X83977560Y-79453000D01*
X83977560Y-79747000D01*
X83973000Y-79747000D01*
X83973000Y-79727000D01*
X83348750Y-79727000D01*
X83190000Y-79885750D01*
X83190000Y-79889600D01*
X80532300Y-79889600D01*
X80231893Y-79949355D01*
X79977221Y-80119521D01*
X77797440Y-82299302D01*
X77797440Y-81250000D01*
X77753162Y-81014683D01*
X77614090Y-80798559D01*
X77401890Y-80653569D01*
X77150000Y-80602560D01*
X76910000Y-80602560D01*
X76910000Y-80400300D01*
X76846439Y-80080759D01*
X76665434Y-79809866D01*
X76479871Y-79624303D01*
X76546431Y-79526890D01*
X76597440Y-79275000D01*
X76597440Y-78525000D01*
X76553162Y-78289683D01*
X76435000Y-78106054D01*
X76435000Y-77653222D01*
X76435317Y-77653162D01*
X76651441Y-77514090D01*
X76796431Y-77301890D01*
X76847440Y-77050000D01*
X76847440Y-76150000D01*
X76803162Y-75914683D01*
X76664090Y-75698559D01*
X76451890Y-75553569D01*
X76393641Y-75541773D01*
X76371439Y-75430159D01*
X76321247Y-75355042D01*
X76501441Y-75239090D01*
X76646431Y-75026890D01*
X76697440Y-74775000D01*
X76697440Y-74025000D01*
X76653162Y-73789683D01*
X76644557Y-73776311D01*
X78130434Y-72290434D01*
X78195701Y-72192755D01*
X78311439Y-72019541D01*
X78322594Y-71963462D01*
X84065000Y-77705868D01*
X84065000Y-77705868D01*
G37*
X84065000Y-77705868D02*
X84065000Y-78215000D01*
X83972998Y-78215000D01*
X83972998Y-78373748D01*
X83814250Y-78215000D01*
X83698690Y-78215000D01*
X83465301Y-78311673D01*
X83286673Y-78490302D01*
X83190000Y-78723691D01*
X83190000Y-79314250D01*
X83348750Y-79473000D01*
X83973000Y-79473000D01*
X83973000Y-79453000D01*
X83977560Y-79453000D01*
X83977560Y-79747000D01*
X83973000Y-79747000D01*
X83973000Y-79727000D01*
X83348750Y-79727000D01*
X83190000Y-79885750D01*
X83190000Y-79889600D01*
X80532300Y-79889600D01*
X80231893Y-79949355D01*
X79977221Y-80119521D01*
X77797440Y-82299302D01*
X77797440Y-81250000D01*
X77753162Y-81014683D01*
X77614090Y-80798559D01*
X77401890Y-80653569D01*
X77150000Y-80602560D01*
X76910000Y-80602560D01*
X76910000Y-80400300D01*
X76846439Y-80080759D01*
X76665434Y-79809866D01*
X76479871Y-79624303D01*
X76546431Y-79526890D01*
X76597440Y-79275000D01*
X76597440Y-78525000D01*
X76553162Y-78289683D01*
X76435000Y-78106054D01*
X76435000Y-77653222D01*
X76435317Y-77653162D01*
X76651441Y-77514090D01*
X76796431Y-77301890D01*
X76847440Y-77050000D01*
X76847440Y-76150000D01*
X76803162Y-75914683D01*
X76664090Y-75698559D01*
X76451890Y-75553569D01*
X76393641Y-75541773D01*
X76371439Y-75430159D01*
X76321247Y-75355042D01*
X76501441Y-75239090D01*
X76646431Y-75026890D01*
X76697440Y-74775000D01*
X76697440Y-74025000D01*
X76653162Y-73789683D01*
X76644557Y-73776311D01*
X78130434Y-72290434D01*
X78195701Y-72192755D01*
X78311439Y-72019541D01*
X78322594Y-71963462D01*
X84065000Y-77705868D01*
G36*
X59585000Y-66136336D02*
X59644755Y-66436743D01*
X59814921Y-66691415D01*
X64550796Y-71427290D01*
X64532562Y-71471201D01*
X64532238Y-71843167D01*
X64674283Y-72186943D01*
X64937073Y-72450192D01*
X65280601Y-72592838D01*
X65652567Y-72593162D01*
X65664200Y-72588355D01*
X65664200Y-80465742D01*
X59115010Y-73916552D01*
X59115010Y-65852976D01*
X59585000Y-65382986D01*
X59585000Y-66136336D01*
X59585000Y-66136336D01*
G37*
X59585000Y-66136336D02*
X59644755Y-66436743D01*
X59814921Y-66691415D01*
X64550796Y-71427290D01*
X64532562Y-71471201D01*
X64532238Y-71843167D01*
X64674283Y-72186943D01*
X64937073Y-72450192D01*
X65280601Y-72592838D01*
X65652567Y-72593162D01*
X65664200Y-72588355D01*
X65664200Y-80465742D01*
X59115010Y-73916552D01*
X59115010Y-65852976D01*
X59585000Y-65382986D01*
X59585000Y-66136336D01*
G36*
X112014591Y-71523318D02*
X112315000Y-71724045D01*
X112315000Y-73289062D01*
X112274755Y-73349293D01*
X112258049Y-73433281D01*
X112098559Y-73535910D01*
X111953569Y-73748110D01*
X111902560Y-74000000D01*
X111902560Y-75064600D01*
X104096000Y-75064600D01*
X103795594Y-75124355D01*
X103687712Y-75196439D01*
X103540921Y-75294521D01*
X100087622Y-78747820D01*
X100053162Y-78564683D01*
X99914090Y-78348559D01*
X99701890Y-78203569D01*
X99450000Y-78152560D01*
X98550000Y-78152560D01*
X98314683Y-78196838D01*
X98188130Y-78278273D01*
X97854479Y-77944621D01*
X97599807Y-77774455D01*
X97299400Y-77714700D01*
X92100000Y-77714700D01*
X91799594Y-77774455D01*
X91544921Y-77944621D01*
X91374755Y-78199294D01*
X91374105Y-78202560D01*
X91225895Y-78202560D01*
X91225245Y-78199293D01*
X91055079Y-77944621D01*
X91043400Y-77932942D01*
X91043400Y-76236006D01*
X91050592Y-76228827D01*
X91193238Y-75885299D01*
X91193562Y-75513333D01*
X91051517Y-75169557D01*
X90995958Y-75113900D01*
X92406858Y-73703000D01*
X106702000Y-73703000D01*
X107002407Y-73643245D01*
X107257079Y-73473079D01*
X108575076Y-72155081D01*
X108575079Y-72155079D01*
X108745245Y-71900406D01*
X108776544Y-71743059D01*
X109105409Y-71523318D01*
X109290000Y-71247058D01*
X109474591Y-71523318D01*
X109972581Y-71856064D01*
X110560000Y-71972909D01*
X111147419Y-71856064D01*
X111645409Y-71523318D01*
X111830000Y-71247058D01*
X112014591Y-71523318D01*
X112014591Y-71523318D01*
G37*
X112014591Y-71523318D02*
X112315000Y-71724045D01*
X112315000Y-73289062D01*
X112274755Y-73349293D01*
X112258049Y-73433281D01*
X112098559Y-73535910D01*
X111953569Y-73748110D01*
X111902560Y-74000000D01*
X111902560Y-75064600D01*
X104096000Y-75064600D01*
X103795594Y-75124355D01*
X103687712Y-75196439D01*
X103540921Y-75294521D01*
X100087622Y-78747820D01*
X100053162Y-78564683D01*
X99914090Y-78348559D01*
X99701890Y-78203569D01*
X99450000Y-78152560D01*
X98550000Y-78152560D01*
X98314683Y-78196838D01*
X98188130Y-78278273D01*
X97854479Y-77944621D01*
X97599807Y-77774455D01*
X97299400Y-77714700D01*
X92100000Y-77714700D01*
X91799594Y-77774455D01*
X91544921Y-77944621D01*
X91374755Y-78199294D01*
X91374105Y-78202560D01*
X91225895Y-78202560D01*
X91225245Y-78199293D01*
X91055079Y-77944621D01*
X91043400Y-77932942D01*
X91043400Y-76236006D01*
X91050592Y-76228827D01*
X91193238Y-75885299D01*
X91193562Y-75513333D01*
X91051517Y-75169557D01*
X90995958Y-75113900D01*
X92406858Y-73703000D01*
X106702000Y-73703000D01*
X107002407Y-73643245D01*
X107257079Y-73473079D01*
X108575076Y-72155081D01*
X108575079Y-72155079D01*
X108745245Y-71900406D01*
X108776544Y-71743059D01*
X109105409Y-71523318D01*
X109290000Y-71247058D01*
X109474591Y-71523318D01*
X109972581Y-71856064D01*
X110560000Y-71972909D01*
X111147419Y-71856064D01*
X111645409Y-71523318D01*
X111830000Y-71247058D01*
X112014591Y-71523318D01*
G36*
X86614591Y-71523318D02*
X87112581Y-71856064D01*
X87700000Y-71972909D01*
X88287419Y-71856064D01*
X88785409Y-71523318D01*
X88970000Y-71247058D01*
X89154591Y-71523318D01*
X89652581Y-71856064D01*
X90240000Y-71972909D01*
X90827419Y-71856064D01*
X91325409Y-71523318D01*
X91510000Y-71247058D01*
X91694591Y-71523318D01*
X92192581Y-71856064D01*
X92780000Y-71972909D01*
X93367419Y-71856064D01*
X93865409Y-71523318D01*
X94050000Y-71247058D01*
X94234591Y-71523318D01*
X94732581Y-71856064D01*
X95320000Y-71972909D01*
X95907419Y-71856064D01*
X96405409Y-71523318D01*
X96590000Y-71247058D01*
X96774591Y-71523318D01*
X97272581Y-71856064D01*
X97860000Y-71972909D01*
X98447419Y-71856064D01*
X98945409Y-71523318D01*
X99130000Y-71247058D01*
X99314591Y-71523318D01*
X99812581Y-71856064D01*
X100400000Y-71972909D01*
X100987419Y-71856064D01*
X101485409Y-71523318D01*
X101670000Y-71247058D01*
X101854591Y-71523318D01*
X102352581Y-71856064D01*
X102940000Y-71972909D01*
X103527419Y-71856064D01*
X104025409Y-71523318D01*
X104210000Y-71247058D01*
X104394591Y-71523318D01*
X104892581Y-71856064D01*
X105480000Y-71972909D01*
X106067419Y-71856064D01*
X106565409Y-71523318D01*
X106750000Y-71247058D01*
X106934591Y-71523318D01*
X106965723Y-71544120D01*
X106376842Y-72133000D01*
X92081700Y-72133000D01*
X91781294Y-72192755D01*
X91526621Y-72362921D01*
X86485000Y-77404542D01*
X86485000Y-73480000D01*
X86425245Y-73179594D01*
X86255079Y-72924921D01*
X85265158Y-71935000D01*
X85287002Y-71935000D01*
X85287002Y-71770379D01*
X85524740Y-71891036D01*
X85630086Y-71866756D01*
X86155606Y-71575212D01*
X86423808Y-71237790D01*
X86614591Y-71523318D01*
X86614591Y-71523318D01*
G37*
X86614591Y-71523318D02*
X87112581Y-71856064D01*
X87700000Y-71972909D01*
X88287419Y-71856064D01*
X88785409Y-71523318D01*
X88970000Y-71247058D01*
X89154591Y-71523318D01*
X89652581Y-71856064D01*
X90240000Y-71972909D01*
X90827419Y-71856064D01*
X91325409Y-71523318D01*
X91510000Y-71247058D01*
X91694591Y-71523318D01*
X92192581Y-71856064D01*
X92780000Y-71972909D01*
X93367419Y-71856064D01*
X93865409Y-71523318D01*
X94050000Y-71247058D01*
X94234591Y-71523318D01*
X94732581Y-71856064D01*
X95320000Y-71972909D01*
X95907419Y-71856064D01*
X96405409Y-71523318D01*
X96590000Y-71247058D01*
X96774591Y-71523318D01*
X97272581Y-71856064D01*
X97860000Y-71972909D01*
X98447419Y-71856064D01*
X98945409Y-71523318D01*
X99130000Y-71247058D01*
X99314591Y-71523318D01*
X99812581Y-71856064D01*
X100400000Y-71972909D01*
X100987419Y-71856064D01*
X101485409Y-71523318D01*
X101670000Y-71247058D01*
X101854591Y-71523318D01*
X102352581Y-71856064D01*
X102940000Y-71972909D01*
X103527419Y-71856064D01*
X104025409Y-71523318D01*
X104210000Y-71247058D01*
X104394591Y-71523318D01*
X104892581Y-71856064D01*
X105480000Y-71972909D01*
X106067419Y-71856064D01*
X106565409Y-71523318D01*
X106750000Y-71247058D01*
X106934591Y-71523318D01*
X106965723Y-71544120D01*
X106376842Y-72133000D01*
X92081700Y-72133000D01*
X91781294Y-72192755D01*
X91526621Y-72362921D01*
X86485000Y-77404542D01*
X86485000Y-73480000D01*
X86425245Y-73179594D01*
X86255079Y-72924921D01*
X85265158Y-71935000D01*
X85287002Y-71935000D01*
X85287002Y-71770379D01*
X85524740Y-71891036D01*
X85630086Y-71866756D01*
X86155606Y-71575212D01*
X86423808Y-71237790D01*
X86614591Y-71523318D01*
G36*
X81534591Y-71523318D02*
X82032581Y-71856064D01*
X82620000Y-71972909D01*
X83005976Y-71896134D01*
X84915000Y-73805158D01*
X84915000Y-76194132D01*
X80591945Y-71871077D01*
X80667419Y-71856064D01*
X81165409Y-71523318D01*
X81350000Y-71247058D01*
X81534591Y-71523318D01*
X81534591Y-71523318D01*
G37*
X81534591Y-71523318D02*
X82032581Y-71856064D01*
X82620000Y-71972909D01*
X83005976Y-71896134D01*
X84915000Y-73805158D01*
X84915000Y-76194132D01*
X80591945Y-71871077D01*
X80667419Y-71856064D01*
X81165409Y-71523318D01*
X81350000Y-71247058D01*
X81534591Y-71523318D01*
G36*
X124210173Y-64004607D02*
X124006732Y-64494547D01*
X124006304Y-64984539D01*
X114097440Y-74893402D01*
X114097440Y-74000000D01*
X114053162Y-73764683D01*
X113914090Y-73548559D01*
X113885000Y-73528683D01*
X113885000Y-71724045D01*
X114185409Y-71523318D01*
X114518155Y-71025328D01*
X114635000Y-70437909D01*
X114635000Y-69562091D01*
X114549987Y-69134700D01*
X114888500Y-69134700D01*
X115208041Y-69071139D01*
X115478934Y-68890134D01*
X120524468Y-63844600D01*
X124370459Y-63844600D01*
X124210173Y-64004607D01*
X124210173Y-64004607D01*
G37*
X124210173Y-64004607D02*
X124006732Y-64494547D01*
X124006304Y-64984539D01*
X114097440Y-74893402D01*
X114097440Y-74000000D01*
X114053162Y-73764683D01*
X113914090Y-73548559D01*
X113885000Y-73528683D01*
X113885000Y-71724045D01*
X114185409Y-71523318D01*
X114518155Y-71025328D01*
X114635000Y-70437909D01*
X114635000Y-69562091D01*
X114549987Y-69134700D01*
X114888500Y-69134700D01*
X115208041Y-69071139D01*
X115478934Y-68890134D01*
X120524468Y-63844600D01*
X124370459Y-63844600D01*
X124210173Y-64004607D01*
G36*
X65664200Y-67413158D02*
X65664200Y-70320378D01*
X61155000Y-65811178D01*
X61155000Y-65012503D01*
X61373587Y-65103268D01*
X61904086Y-65103731D01*
X62394380Y-64901146D01*
X62769827Y-64526353D01*
X62772047Y-64521005D01*
X65664200Y-67413158D01*
X65664200Y-67413158D01*
G37*
X65664200Y-67413158D02*
X65664200Y-70320378D01*
X61155000Y-65811178D01*
X61155000Y-65012503D01*
X61373587Y-65103268D01*
X61904086Y-65103731D01*
X62394380Y-64901146D01*
X62769827Y-64526353D01*
X62772047Y-64521005D01*
X65664200Y-67413158D01*
G36*
X85287000Y-69873000D02*
X85307000Y-69873000D01*
X85307000Y-70127000D01*
X85287000Y-70127000D01*
X85287000Y-70147000D01*
X85033000Y-70147000D01*
X85033000Y-70127000D01*
X85013000Y-70127000D01*
X85013000Y-69873000D01*
X85033000Y-69873000D01*
X85033000Y-69853000D01*
X85287000Y-69853000D01*
X85287000Y-69873000D01*
X85287000Y-69873000D01*
G37*
X85287000Y-69873000D02*
X85307000Y-69873000D01*
X85307000Y-70127000D01*
X85287000Y-70127000D01*
X85287000Y-70147000D01*
X85033000Y-70147000D01*
X85033000Y-70127000D01*
X85013000Y-70127000D01*
X85013000Y-69873000D01*
X85033000Y-69873000D01*
X85033000Y-69853000D01*
X85287000Y-69853000D01*
X85287000Y-69873000D01*
G36*
X75673253Y-63176064D02*
X75674100Y-63176416D01*
X75674100Y-65631143D01*
X71636190Y-69669052D01*
X71636270Y-69577185D01*
X71311920Y-68792200D01*
X70711859Y-68191091D01*
X69927441Y-67865372D01*
X69403644Y-67864914D01*
X73960098Y-63308460D01*
X74150324Y-63387449D01*
X74701538Y-63387930D01*
X75210977Y-63177434D01*
X75443203Y-62945613D01*
X75673253Y-63176064D01*
X75673253Y-63176064D01*
G37*
X75673253Y-63176064D02*
X75674100Y-63176416D01*
X75674100Y-65631143D01*
X71636190Y-69669052D01*
X71636270Y-69577185D01*
X71311920Y-68792200D01*
X70711859Y-68191091D01*
X69927441Y-67865372D01*
X69403644Y-67864914D01*
X73960098Y-63308460D01*
X74150324Y-63387449D01*
X74701538Y-63387930D01*
X75210977Y-63177434D01*
X75443203Y-62945613D01*
X75673253Y-63176064D01*
G36*
X81249621Y-62556079D02*
X81504293Y-62726245D01*
X81804700Y-62786000D01*
X92312791Y-62786000D01*
X92314990Y-62791323D01*
X92523832Y-63000530D01*
X92316371Y-63207630D01*
X92103243Y-63720900D01*
X92102758Y-64276661D01*
X92146696Y-64383000D01*
X77244100Y-64383000D01*
X77244100Y-63176313D01*
X77633084Y-62788007D01*
X77729115Y-62556739D01*
X77823826Y-62785957D01*
X78213253Y-63176064D01*
X78722324Y-63387449D01*
X79273538Y-63387930D01*
X79782977Y-63177434D01*
X80173084Y-62788007D01*
X80384469Y-62278936D01*
X80384950Y-61727722D01*
X80361596Y-61671200D01*
X80364742Y-61671200D01*
X81249621Y-62556079D01*
X81249621Y-62556079D01*
G37*
X81249621Y-62556079D02*
X81504293Y-62726245D01*
X81804700Y-62786000D01*
X92312791Y-62786000D01*
X92314990Y-62791323D01*
X92523832Y-63000530D01*
X92316371Y-63207630D01*
X92103243Y-63720900D01*
X92102758Y-64276661D01*
X92146696Y-64383000D01*
X77244100Y-64383000D01*
X77244100Y-63176313D01*
X77633084Y-62788007D01*
X77729115Y-62556739D01*
X77823826Y-62785957D01*
X78213253Y-63176064D01*
X78722324Y-63387449D01*
X79273538Y-63387930D01*
X79782977Y-63177434D01*
X80173084Y-62788007D01*
X80384469Y-62278936D01*
X80384950Y-61727722D01*
X80361596Y-61671200D01*
X80364742Y-61671200D01*
X81249621Y-62556079D01*
G36*
X114474842Y-63215000D02*
X97227201Y-63215000D01*
X97225010Y-63209697D01*
X97016168Y-63000490D01*
X97223629Y-62793390D01*
X97436757Y-62280120D01*
X97437242Y-61724359D01*
X97225010Y-61210717D01*
X96832370Y-60817391D01*
X96726149Y-60773284D01*
X98919512Y-58580039D01*
X98784815Y-58904425D01*
X98784126Y-59694111D01*
X99085689Y-60423949D01*
X99643594Y-60982829D01*
X100372905Y-61285665D01*
X101162591Y-61286354D01*
X101892429Y-60984791D01*
X102451309Y-60426886D01*
X102754145Y-59697575D01*
X102754834Y-58907889D01*
X102453271Y-58178051D01*
X101895366Y-57619171D01*
X101166055Y-57316335D01*
X100376369Y-57315646D01*
X100048487Y-57451124D01*
X100695146Y-56804500D01*
X120885342Y-56804500D01*
X114474842Y-63215000D01*
X114474842Y-63215000D01*
G37*
X114474842Y-63215000D02*
X97227201Y-63215000D01*
X97225010Y-63209697D01*
X97016168Y-63000490D01*
X97223629Y-62793390D01*
X97436757Y-62280120D01*
X97437242Y-61724359D01*
X97225010Y-61210717D01*
X96832370Y-60817391D01*
X96726149Y-60773284D01*
X98919512Y-58580039D01*
X98784815Y-58904425D01*
X98784126Y-59694111D01*
X99085689Y-60423949D01*
X99643594Y-60982829D01*
X100372905Y-61285665D01*
X101162591Y-61286354D01*
X101892429Y-60984791D01*
X102451309Y-60426886D01*
X102754145Y-59697575D01*
X102754834Y-58907889D01*
X102453271Y-58178051D01*
X101895366Y-57619171D01*
X101166055Y-57316335D01*
X100376369Y-57315646D01*
X100048487Y-57451124D01*
X100695146Y-56804500D01*
X120885342Y-56804500D01*
X114474842Y-63215000D01*
M02*
