G04 #@! TF.FileFunction,Legend,Top*
%FSLAX46Y46*%
G04 Gerber Fmt 4.6, Leading zero omitted, Abs format (unit mm)*
G04 Created by KiCad (PCBNEW 4.0.5+dfsg1-4) date Tue Apr 25 09:23:24 2017*
%MOMM*%
%LPD*%
G01*
G04 APERTURE LIST*
%ADD10C,0.100000*%
%ADD11C,0.150000*%
%ADD12C,0.200000*%
%ADD13C,0.254000*%
G04 APERTURE END LIST*
D10*
D11*
X110538094Y-107152381D02*
X110538094Y-106152381D01*
X110966666Y-107152381D02*
X110966666Y-106628571D01*
X110919047Y-106533333D01*
X110823809Y-106485714D01*
X110680951Y-106485714D01*
X110585713Y-106533333D01*
X110538094Y-106580952D01*
X111299999Y-106485714D02*
X111680951Y-106485714D01*
X111442856Y-106152381D02*
X111442856Y-107009524D01*
X111490475Y-107104762D01*
X111585713Y-107152381D01*
X111680951Y-107152381D01*
X111871428Y-106485714D02*
X112252380Y-106485714D01*
X112014285Y-106152381D02*
X112014285Y-107009524D01*
X112061904Y-107104762D01*
X112157142Y-107152381D01*
X112252380Y-107152381D01*
X112585714Y-106485714D02*
X112585714Y-107485714D01*
X112585714Y-106533333D02*
X112680952Y-106485714D01*
X112871429Y-106485714D01*
X112966667Y-106533333D01*
X113014286Y-106580952D01*
X113061905Y-106676190D01*
X113061905Y-106961905D01*
X113014286Y-107057143D01*
X112966667Y-107104762D01*
X112871429Y-107152381D01*
X112680952Y-107152381D01*
X112585714Y-107104762D01*
X113442857Y-107104762D02*
X113538095Y-107152381D01*
X113728571Y-107152381D01*
X113823810Y-107104762D01*
X113871429Y-107009524D01*
X113871429Y-106961905D01*
X113823810Y-106866667D01*
X113728571Y-106819048D01*
X113585714Y-106819048D01*
X113490476Y-106771429D01*
X113442857Y-106676190D01*
X113442857Y-106628571D01*
X113490476Y-106533333D01*
X113585714Y-106485714D01*
X113728571Y-106485714D01*
X113823810Y-106533333D01*
X114300000Y-107057143D02*
X114347619Y-107104762D01*
X114300000Y-107152381D01*
X114252381Y-107104762D01*
X114300000Y-107057143D01*
X114300000Y-107152381D01*
X114300000Y-106533333D02*
X114347619Y-106580952D01*
X114300000Y-106628571D01*
X114252381Y-106580952D01*
X114300000Y-106533333D01*
X114300000Y-106628571D01*
X115490476Y-106104762D02*
X114633333Y-107390476D01*
X116538095Y-106104762D02*
X115680952Y-107390476D01*
X117300000Y-106485714D02*
X117300000Y-107295238D01*
X117252381Y-107390476D01*
X117204762Y-107438095D01*
X117109523Y-107485714D01*
X116966666Y-107485714D01*
X116871428Y-107438095D01*
X117300000Y-107104762D02*
X117204762Y-107152381D01*
X117014285Y-107152381D01*
X116919047Y-107104762D01*
X116871428Y-107057143D01*
X116823809Y-106961905D01*
X116823809Y-106676190D01*
X116871428Y-106580952D01*
X116919047Y-106533333D01*
X117014285Y-106485714D01*
X117204762Y-106485714D01*
X117300000Y-106533333D01*
X117776190Y-107152381D02*
X117776190Y-106485714D01*
X117776190Y-106152381D02*
X117728571Y-106200000D01*
X117776190Y-106247619D01*
X117823809Y-106200000D01*
X117776190Y-106152381D01*
X117776190Y-106247619D01*
X118109523Y-106485714D02*
X118490475Y-106485714D01*
X118252380Y-106152381D02*
X118252380Y-107009524D01*
X118299999Y-107104762D01*
X118395237Y-107152381D01*
X118490475Y-107152381D01*
X118823809Y-107152381D02*
X118823809Y-106152381D01*
X119252381Y-107152381D02*
X119252381Y-106628571D01*
X119204762Y-106533333D01*
X119109524Y-106485714D01*
X118966666Y-106485714D01*
X118871428Y-106533333D01*
X118823809Y-106580952D01*
X120157143Y-106485714D02*
X120157143Y-107152381D01*
X119728571Y-106485714D02*
X119728571Y-107009524D01*
X119776190Y-107104762D01*
X119871428Y-107152381D01*
X120014286Y-107152381D01*
X120109524Y-107104762D01*
X120157143Y-107057143D01*
X120633333Y-107152381D02*
X120633333Y-106152381D01*
X120633333Y-106533333D02*
X120728571Y-106485714D01*
X120919048Y-106485714D01*
X121014286Y-106533333D01*
X121061905Y-106580952D01*
X121109524Y-106676190D01*
X121109524Y-106961905D01*
X121061905Y-107057143D01*
X121014286Y-107104762D01*
X120919048Y-107152381D01*
X120728571Y-107152381D01*
X120633333Y-107104762D01*
X121538095Y-107057143D02*
X121585714Y-107104762D01*
X121538095Y-107152381D01*
X121490476Y-107104762D01*
X121538095Y-107057143D01*
X121538095Y-107152381D01*
X122442857Y-107104762D02*
X122347619Y-107152381D01*
X122157142Y-107152381D01*
X122061904Y-107104762D01*
X122014285Y-107057143D01*
X121966666Y-106961905D01*
X121966666Y-106676190D01*
X122014285Y-106580952D01*
X122061904Y-106533333D01*
X122157142Y-106485714D01*
X122347619Y-106485714D01*
X122442857Y-106533333D01*
X123014285Y-107152381D02*
X122919047Y-107104762D01*
X122871428Y-107057143D01*
X122823809Y-106961905D01*
X122823809Y-106676190D01*
X122871428Y-106580952D01*
X122919047Y-106533333D01*
X123014285Y-106485714D01*
X123157143Y-106485714D01*
X123252381Y-106533333D01*
X123300000Y-106580952D01*
X123347619Y-106676190D01*
X123347619Y-106961905D01*
X123300000Y-107057143D01*
X123252381Y-107104762D01*
X123157143Y-107152381D01*
X123014285Y-107152381D01*
X123776190Y-107152381D02*
X123776190Y-106485714D01*
X123776190Y-106580952D02*
X123823809Y-106533333D01*
X123919047Y-106485714D01*
X124061905Y-106485714D01*
X124157143Y-106533333D01*
X124204762Y-106628571D01*
X124204762Y-107152381D01*
X124204762Y-106628571D02*
X124252381Y-106533333D01*
X124347619Y-106485714D01*
X124490476Y-106485714D01*
X124585714Y-106533333D01*
X124633333Y-106628571D01*
X124633333Y-107152381D01*
X125823809Y-106104762D02*
X124966666Y-107390476D01*
X126109523Y-107104762D02*
X126204761Y-107152381D01*
X126395237Y-107152381D01*
X126490476Y-107104762D01*
X126538095Y-107009524D01*
X126538095Y-106961905D01*
X126490476Y-106866667D01*
X126395237Y-106819048D01*
X126252380Y-106819048D01*
X126157142Y-106771429D01*
X126109523Y-106676190D01*
X126109523Y-106628571D01*
X126157142Y-106533333D01*
X126252380Y-106485714D01*
X126395237Y-106485714D01*
X126490476Y-106533333D01*
X126871428Y-106485714D02*
X127395238Y-106485714D01*
X126871428Y-107152381D01*
X127395238Y-107152381D01*
X128204762Y-107152381D02*
X128204762Y-106152381D01*
X128204762Y-107104762D02*
X128109524Y-107152381D01*
X127919047Y-107152381D01*
X127823809Y-107104762D01*
X127776190Y-107057143D01*
X127728571Y-106961905D01*
X127728571Y-106676190D01*
X127776190Y-106580952D01*
X127823809Y-106533333D01*
X127919047Y-106485714D01*
X128109524Y-106485714D01*
X128204762Y-106533333D01*
X128680952Y-107152381D02*
X128680952Y-106485714D01*
X128680952Y-106152381D02*
X128633333Y-106200000D01*
X128680952Y-106247619D01*
X128728571Y-106200000D01*
X128680952Y-106152381D01*
X128680952Y-106247619D01*
X129061904Y-106485714D02*
X129299999Y-107152381D01*
X129538095Y-106485714D02*
X129299999Y-107152381D01*
X129204761Y-107390476D01*
X129157142Y-107438095D01*
X129061904Y-107485714D01*
X130633333Y-106104762D02*
X129776190Y-107390476D01*
X130966666Y-106152381D02*
X130966666Y-106961905D01*
X131014285Y-107057143D01*
X131061904Y-107104762D01*
X131157142Y-107152381D01*
X131347619Y-107152381D01*
X131442857Y-107104762D01*
X131490476Y-107057143D01*
X131538095Y-106961905D01*
X131538095Y-106152381D01*
X131966666Y-107104762D02*
X132109523Y-107152381D01*
X132347619Y-107152381D01*
X132442857Y-107104762D01*
X132490476Y-107057143D01*
X132538095Y-106961905D01*
X132538095Y-106866667D01*
X132490476Y-106771429D01*
X132442857Y-106723810D01*
X132347619Y-106676190D01*
X132157142Y-106628571D01*
X132061904Y-106580952D01*
X132014285Y-106533333D01*
X131966666Y-106438095D01*
X131966666Y-106342857D01*
X132014285Y-106247619D01*
X132061904Y-106200000D01*
X132157142Y-106152381D01*
X132395238Y-106152381D01*
X132538095Y-106200000D01*
X133300000Y-106628571D02*
X133442857Y-106676190D01*
X133490476Y-106723810D01*
X133538095Y-106819048D01*
X133538095Y-106961905D01*
X133490476Y-107057143D01*
X133442857Y-107104762D01*
X133347619Y-107152381D01*
X132966666Y-107152381D01*
X132966666Y-106152381D01*
X133300000Y-106152381D01*
X133395238Y-106200000D01*
X133442857Y-106247619D01*
X133490476Y-106342857D01*
X133490476Y-106438095D01*
X133442857Y-106533333D01*
X133395238Y-106580952D01*
X133300000Y-106628571D01*
X132966666Y-106628571D01*
X134395238Y-107104762D02*
X134300000Y-107152381D01*
X134109523Y-107152381D01*
X134014285Y-107104762D01*
X133966666Y-107057143D01*
X133919047Y-106961905D01*
X133919047Y-106676190D01*
X133966666Y-106580952D01*
X134014285Y-106533333D01*
X134109523Y-106485714D01*
X134300000Y-106485714D01*
X134395238Y-106533333D01*
X135252381Y-107152381D02*
X135252381Y-106628571D01*
X135204762Y-106533333D01*
X135109524Y-106485714D01*
X134919047Y-106485714D01*
X134823809Y-106533333D01*
X135252381Y-107104762D02*
X135157143Y-107152381D01*
X134919047Y-107152381D01*
X134823809Y-107104762D01*
X134776190Y-107009524D01*
X134776190Y-106914286D01*
X134823809Y-106819048D01*
X134919047Y-106771429D01*
X135157143Y-106771429D01*
X135252381Y-106723810D01*
X135728571Y-107152381D02*
X135728571Y-106152381D01*
X135728571Y-106533333D02*
X135823809Y-106485714D01*
X136014286Y-106485714D01*
X136109524Y-106533333D01*
X136157143Y-106580952D01*
X136204762Y-106676190D01*
X136204762Y-106961905D01*
X136157143Y-107057143D01*
X136109524Y-107104762D01*
X136014286Y-107152381D01*
X135823809Y-107152381D01*
X135728571Y-107104762D01*
X136776190Y-107152381D02*
X136680952Y-107104762D01*
X136633333Y-107009524D01*
X136633333Y-106152381D01*
X137538096Y-107104762D02*
X137442858Y-107152381D01*
X137252381Y-107152381D01*
X137157143Y-107104762D01*
X137109524Y-107009524D01*
X137109524Y-106628571D01*
X137157143Y-106533333D01*
X137252381Y-106485714D01*
X137442858Y-106485714D01*
X137538096Y-106533333D01*
X137585715Y-106628571D01*
X137585715Y-106723810D01*
X137109524Y-106819048D01*
X138442858Y-107104762D02*
X138347620Y-107152381D01*
X138157143Y-107152381D01*
X138061905Y-107104762D01*
X138014286Y-107057143D01*
X137966667Y-106961905D01*
X137966667Y-106676190D01*
X138014286Y-106580952D01*
X138061905Y-106533333D01*
X138157143Y-106485714D01*
X138347620Y-106485714D01*
X138442858Y-106533333D01*
X138871429Y-107152381D02*
X138871429Y-106485714D01*
X138871429Y-106676190D02*
X138919048Y-106580952D01*
X138966667Y-106533333D01*
X139061905Y-106485714D01*
X139157144Y-106485714D01*
X139919049Y-107152381D02*
X139919049Y-106628571D01*
X139871430Y-106533333D01*
X139776192Y-106485714D01*
X139585715Y-106485714D01*
X139490477Y-106533333D01*
X139919049Y-107104762D02*
X139823811Y-107152381D01*
X139585715Y-107152381D01*
X139490477Y-107104762D01*
X139442858Y-107009524D01*
X139442858Y-106914286D01*
X139490477Y-106819048D01*
X139585715Y-106771429D01*
X139823811Y-106771429D01*
X139919049Y-106723810D01*
X140823811Y-107104762D02*
X140728573Y-107152381D01*
X140538096Y-107152381D01*
X140442858Y-107104762D01*
X140395239Y-107057143D01*
X140347620Y-106961905D01*
X140347620Y-106676190D01*
X140395239Y-106580952D01*
X140442858Y-106533333D01*
X140538096Y-106485714D01*
X140728573Y-106485714D01*
X140823811Y-106533333D01*
X141252382Y-107152381D02*
X141252382Y-106152381D01*
X141347620Y-106771429D02*
X141633335Y-107152381D01*
X141633335Y-106485714D02*
X141252382Y-106866667D01*
X142442859Y-107104762D02*
X142347621Y-107152381D01*
X142157144Y-107152381D01*
X142061906Y-107104762D01*
X142014287Y-107009524D01*
X142014287Y-106628571D01*
X142061906Y-106533333D01*
X142157144Y-106485714D01*
X142347621Y-106485714D01*
X142442859Y-106533333D01*
X142490478Y-106628571D01*
X142490478Y-106723810D01*
X142014287Y-106819048D01*
X142919049Y-107152381D02*
X142919049Y-106485714D01*
X142919049Y-106676190D02*
X142966668Y-106580952D01*
X143014287Y-106533333D01*
X143109525Y-106485714D01*
X143204764Y-106485714D01*
X50738095Y-77852381D02*
X51309524Y-77852381D01*
X51023809Y-78852381D02*
X51023809Y-77852381D01*
X51642857Y-78852381D02*
X51642857Y-77852381D01*
X52023810Y-77852381D01*
X52119048Y-77900000D01*
X52166667Y-77947619D01*
X52214286Y-78042857D01*
X52214286Y-78185714D01*
X52166667Y-78280952D01*
X52119048Y-78328571D01*
X52023810Y-78376190D01*
X51642857Y-78376190D01*
X52595238Y-77947619D02*
X52642857Y-77900000D01*
X52738095Y-77852381D01*
X52976191Y-77852381D01*
X53071429Y-77900000D01*
X53119048Y-77947619D01*
X53166667Y-78042857D01*
X53166667Y-78138095D01*
X53119048Y-78280952D01*
X52547619Y-78852381D01*
X53166667Y-78852381D01*
X50738095Y-70752381D02*
X51309524Y-70752381D01*
X51023809Y-71752381D02*
X51023809Y-70752381D01*
X51642857Y-71752381D02*
X51642857Y-70752381D01*
X52023810Y-70752381D01*
X52119048Y-70800000D01*
X52166667Y-70847619D01*
X52214286Y-70942857D01*
X52214286Y-71085714D01*
X52166667Y-71180952D01*
X52119048Y-71228571D01*
X52023810Y-71276190D01*
X51642857Y-71276190D01*
X53166667Y-71752381D02*
X52595238Y-71752381D01*
X52880952Y-71752381D02*
X52880952Y-70752381D01*
X52785714Y-70895238D01*
X52690476Y-70990476D01*
X52595238Y-71038095D01*
D12*
X65100000Y-73200000D02*
G75*
G03X65100000Y-73200000I-500000J0D01*
G01*
D11*
X55680953Y-71952381D02*
X55347619Y-71476190D01*
X55109524Y-71952381D02*
X55109524Y-70952381D01*
X55490477Y-70952381D01*
X55585715Y-71000000D01*
X55633334Y-71047619D01*
X55680953Y-71142857D01*
X55680953Y-71285714D01*
X55633334Y-71380952D01*
X55585715Y-71428571D01*
X55490477Y-71476190D01*
X55109524Y-71476190D01*
X56109524Y-71428571D02*
X56442858Y-71428571D01*
X56585715Y-71952381D02*
X56109524Y-71952381D01*
X56109524Y-70952381D01*
X56585715Y-70952381D01*
X56966667Y-71904762D02*
X57109524Y-71952381D01*
X57347620Y-71952381D01*
X57442858Y-71904762D01*
X57490477Y-71857143D01*
X57538096Y-71761905D01*
X57538096Y-71666667D01*
X57490477Y-71571429D01*
X57442858Y-71523810D01*
X57347620Y-71476190D01*
X57157143Y-71428571D01*
X57061905Y-71380952D01*
X57014286Y-71333333D01*
X56966667Y-71238095D01*
X56966667Y-71142857D01*
X57014286Y-71047619D01*
X57061905Y-71000000D01*
X57157143Y-70952381D01*
X57395239Y-70952381D01*
X57538096Y-71000000D01*
X58914286Y-71904762D02*
X59057143Y-71952381D01*
X59295239Y-71952381D01*
X59390477Y-71904762D01*
X59438096Y-71857143D01*
X59485715Y-71761905D01*
X59485715Y-71666667D01*
X59438096Y-71571429D01*
X59390477Y-71523810D01*
X59295239Y-71476190D01*
X59104762Y-71428571D01*
X59009524Y-71380952D01*
X58961905Y-71333333D01*
X58914286Y-71238095D01*
X58914286Y-71142857D01*
X58961905Y-71047619D01*
X59009524Y-71000000D01*
X59104762Y-70952381D01*
X59342858Y-70952381D01*
X59485715Y-71000000D01*
X60485715Y-71857143D02*
X60438096Y-71904762D01*
X60295239Y-71952381D01*
X60200001Y-71952381D01*
X60057143Y-71904762D01*
X59961905Y-71809524D01*
X59914286Y-71714286D01*
X59866667Y-71523810D01*
X59866667Y-71380952D01*
X59914286Y-71190476D01*
X59961905Y-71095238D01*
X60057143Y-71000000D01*
X60200001Y-70952381D01*
X60295239Y-70952381D01*
X60438096Y-71000000D01*
X60485715Y-71047619D01*
X60914286Y-71952381D02*
X60914286Y-70952381D01*
X61485715Y-71952381D02*
X61057143Y-71380952D01*
X61485715Y-70952381D02*
X60914286Y-71523810D01*
X62628572Y-71952381D02*
X62628572Y-70952381D01*
X62961906Y-71666667D01*
X63295239Y-70952381D01*
X63295239Y-71952381D01*
X63771429Y-71952381D02*
X63771429Y-70952381D01*
X64200000Y-71904762D02*
X64342857Y-71952381D01*
X64580953Y-71952381D01*
X64676191Y-71904762D01*
X64723810Y-71857143D01*
X64771429Y-71761905D01*
X64771429Y-71666667D01*
X64723810Y-71571429D01*
X64676191Y-71523810D01*
X64580953Y-71476190D01*
X64390476Y-71428571D01*
X64295238Y-71380952D01*
X64247619Y-71333333D01*
X64200000Y-71238095D01*
X64200000Y-71142857D01*
X64247619Y-71047619D01*
X64295238Y-71000000D01*
X64390476Y-70952381D01*
X64628572Y-70952381D01*
X64771429Y-71000000D01*
X65390476Y-70952381D02*
X65580953Y-70952381D01*
X65676191Y-71000000D01*
X65771429Y-71095238D01*
X65819048Y-71285714D01*
X65819048Y-71619048D01*
X65771429Y-71809524D01*
X65676191Y-71904762D01*
X65580953Y-71952381D01*
X65390476Y-71952381D01*
X65295238Y-71904762D01*
X65200000Y-71809524D01*
X65152381Y-71619048D01*
X65152381Y-71285714D01*
X65200000Y-71095238D01*
X65295238Y-71000000D01*
X65390476Y-70952381D01*
X62566667Y-77552381D02*
X62900000Y-78552381D01*
X63233334Y-77552381D01*
X64138096Y-78457143D02*
X64090477Y-78504762D01*
X63947620Y-78552381D01*
X63852382Y-78552381D01*
X63709524Y-78504762D01*
X63614286Y-78409524D01*
X63566667Y-78314286D01*
X63519048Y-78123810D01*
X63519048Y-77980952D01*
X63566667Y-77790476D01*
X63614286Y-77695238D01*
X63709524Y-77600000D01*
X63852382Y-77552381D01*
X63947620Y-77552381D01*
X64090477Y-77600000D01*
X64138096Y-77647619D01*
X65138096Y-78457143D02*
X65090477Y-78504762D01*
X64947620Y-78552381D01*
X64852382Y-78552381D01*
X64709524Y-78504762D01*
X64614286Y-78409524D01*
X64566667Y-78314286D01*
X64519048Y-78123810D01*
X64519048Y-77980952D01*
X64566667Y-77790476D01*
X64614286Y-77695238D01*
X64709524Y-77600000D01*
X64852382Y-77552381D01*
X64947620Y-77552381D01*
X65090477Y-77600000D01*
X65138096Y-77647619D01*
X58528572Y-78552381D02*
X58528572Y-77552381D01*
X58861906Y-78266667D01*
X59195239Y-77552381D01*
X59195239Y-78552381D01*
X59861905Y-77552381D02*
X60052382Y-77552381D01*
X60147620Y-77600000D01*
X60242858Y-77695238D01*
X60290477Y-77885714D01*
X60290477Y-78219048D01*
X60242858Y-78409524D01*
X60147620Y-78504762D01*
X60052382Y-78552381D01*
X59861905Y-78552381D01*
X59766667Y-78504762D01*
X59671429Y-78409524D01*
X59623810Y-78219048D01*
X59623810Y-77885714D01*
X59671429Y-77695238D01*
X59766667Y-77600000D01*
X59861905Y-77552381D01*
X60671429Y-78504762D02*
X60814286Y-78552381D01*
X61052382Y-78552381D01*
X61147620Y-78504762D01*
X61195239Y-78457143D01*
X61242858Y-78361905D01*
X61242858Y-78266667D01*
X61195239Y-78171429D01*
X61147620Y-78123810D01*
X61052382Y-78076190D01*
X60861905Y-78028571D01*
X60766667Y-77980952D01*
X60719048Y-77933333D01*
X60671429Y-77838095D01*
X60671429Y-77742857D01*
X60719048Y-77647619D01*
X60766667Y-77600000D01*
X60861905Y-77552381D01*
X61100001Y-77552381D01*
X61242858Y-77600000D01*
X61671429Y-78552381D02*
X61671429Y-77552381D01*
X55638096Y-77600000D02*
X55542858Y-77552381D01*
X55400001Y-77552381D01*
X55257143Y-77600000D01*
X55161905Y-77695238D01*
X55114286Y-77790476D01*
X55066667Y-77980952D01*
X55066667Y-78123810D01*
X55114286Y-78314286D01*
X55161905Y-78409524D01*
X55257143Y-78504762D01*
X55400001Y-78552381D01*
X55495239Y-78552381D01*
X55638096Y-78504762D01*
X55685715Y-78457143D01*
X55685715Y-78123810D01*
X55495239Y-78123810D01*
X56114286Y-78552381D02*
X56114286Y-77552381D01*
X56685715Y-78552381D01*
X56685715Y-77552381D01*
X57161905Y-78552381D02*
X57161905Y-77552381D01*
X57400000Y-77552381D01*
X57542858Y-77600000D01*
X57638096Y-77695238D01*
X57685715Y-77790476D01*
X57733334Y-77980952D01*
X57733334Y-78123810D01*
X57685715Y-78314286D01*
X57638096Y-78409524D01*
X57542858Y-78504762D01*
X57400000Y-78552381D01*
X57161905Y-78552381D01*
X120861905Y-62200000D02*
X120766667Y-62152381D01*
X120623810Y-62152381D01*
X120480952Y-62200000D01*
X120385714Y-62295238D01*
X120338095Y-62390476D01*
X120290476Y-62580952D01*
X120290476Y-62723810D01*
X120338095Y-62914286D01*
X120385714Y-63009524D01*
X120480952Y-63104762D01*
X120623810Y-63152381D01*
X120719048Y-63152381D01*
X120861905Y-63104762D01*
X120909524Y-63057143D01*
X120909524Y-62723810D01*
X120719048Y-62723810D01*
X117085714Y-63152381D02*
X117085714Y-62152381D01*
X117323809Y-62152381D01*
X117466667Y-62200000D01*
X117561905Y-62295238D01*
X117609524Y-62390476D01*
X117657143Y-62580952D01*
X117657143Y-62723810D01*
X117609524Y-62914286D01*
X117561905Y-63009524D01*
X117466667Y-63104762D01*
X117323809Y-63152381D01*
X117085714Y-63152381D01*
X118609524Y-63152381D02*
X118038095Y-63152381D01*
X118323809Y-63152381D02*
X118323809Y-62152381D01*
X118228571Y-62295238D01*
X118133333Y-62390476D01*
X118038095Y-62438095D01*
X118942857Y-62152381D02*
X119561905Y-62152381D01*
X119228571Y-62533333D01*
X119371429Y-62533333D01*
X119466667Y-62580952D01*
X119514286Y-62628571D01*
X119561905Y-62723810D01*
X119561905Y-62961905D01*
X119514286Y-63057143D01*
X119466667Y-63104762D01*
X119371429Y-63152381D01*
X119085714Y-63152381D01*
X118990476Y-63104762D01*
X118942857Y-63057143D01*
X114285714Y-63152381D02*
X114285714Y-62152381D01*
X114523809Y-62152381D01*
X114666667Y-62200000D01*
X114761905Y-62295238D01*
X114809524Y-62390476D01*
X114857143Y-62580952D01*
X114857143Y-62723810D01*
X114809524Y-62914286D01*
X114761905Y-63009524D01*
X114666667Y-63104762D01*
X114523809Y-63152381D01*
X114285714Y-63152381D01*
X115809524Y-63152381D02*
X115238095Y-63152381D01*
X115523809Y-63152381D02*
X115523809Y-62152381D01*
X115428571Y-62295238D01*
X115333333Y-62390476D01*
X115238095Y-62438095D01*
X116428571Y-62152381D02*
X116523810Y-62152381D01*
X116619048Y-62200000D01*
X116666667Y-62247619D01*
X116714286Y-62342857D01*
X116761905Y-62533333D01*
X116761905Y-62771429D01*
X116714286Y-62961905D01*
X116666667Y-63057143D01*
X116619048Y-63104762D01*
X116523810Y-63152381D01*
X116428571Y-63152381D01*
X116333333Y-63104762D01*
X116285714Y-63057143D01*
X116238095Y-62961905D01*
X116190476Y-62771429D01*
X116190476Y-62533333D01*
X116238095Y-62342857D01*
X116285714Y-62247619D01*
X116333333Y-62200000D01*
X116428571Y-62152381D01*
X112161905Y-63152381D02*
X112161905Y-62152381D01*
X112400000Y-62152381D01*
X112542858Y-62200000D01*
X112638096Y-62295238D01*
X112685715Y-62390476D01*
X112733334Y-62580952D01*
X112733334Y-62723810D01*
X112685715Y-62914286D01*
X112638096Y-63009524D01*
X112542858Y-63104762D01*
X112400000Y-63152381D01*
X112161905Y-63152381D01*
X113209524Y-63152381D02*
X113400000Y-63152381D01*
X113495239Y-63104762D01*
X113542858Y-63057143D01*
X113638096Y-62914286D01*
X113685715Y-62723810D01*
X113685715Y-62342857D01*
X113638096Y-62247619D01*
X113590477Y-62200000D01*
X113495239Y-62152381D01*
X113304762Y-62152381D01*
X113209524Y-62200000D01*
X113161905Y-62247619D01*
X113114286Y-62342857D01*
X113114286Y-62580952D01*
X113161905Y-62676190D01*
X113209524Y-62723810D01*
X113304762Y-62771429D01*
X113495239Y-62771429D01*
X113590477Y-62723810D01*
X113638096Y-62676190D01*
X113685715Y-62580952D01*
X110561905Y-62200000D02*
X110466667Y-62152381D01*
X110323810Y-62152381D01*
X110180952Y-62200000D01*
X110085714Y-62295238D01*
X110038095Y-62390476D01*
X109990476Y-62580952D01*
X109990476Y-62723810D01*
X110038095Y-62914286D01*
X110085714Y-63009524D01*
X110180952Y-63104762D01*
X110323810Y-63152381D01*
X110419048Y-63152381D01*
X110561905Y-63104762D01*
X110609524Y-63057143D01*
X110609524Y-62723810D01*
X110419048Y-62723810D01*
X107261905Y-63152381D02*
X107261905Y-62152381D01*
X107500000Y-62152381D01*
X107642858Y-62200000D01*
X107738096Y-62295238D01*
X107785715Y-62390476D01*
X107833334Y-62580952D01*
X107833334Y-62723810D01*
X107785715Y-62914286D01*
X107738096Y-63009524D01*
X107642858Y-63104762D01*
X107500000Y-63152381D01*
X107261905Y-63152381D01*
X108166667Y-62152381D02*
X108785715Y-62152381D01*
X108452381Y-62533333D01*
X108595239Y-62533333D01*
X108690477Y-62580952D01*
X108738096Y-62628571D01*
X108785715Y-62723810D01*
X108785715Y-62961905D01*
X108738096Y-63057143D01*
X108690477Y-63104762D01*
X108595239Y-63152381D01*
X108309524Y-63152381D01*
X108214286Y-63104762D01*
X108166667Y-63057143D01*
X104661905Y-63152381D02*
X104661905Y-62152381D01*
X104900000Y-62152381D01*
X105042858Y-62200000D01*
X105138096Y-62295238D01*
X105185715Y-62390476D01*
X105233334Y-62580952D01*
X105233334Y-62723810D01*
X105185715Y-62914286D01*
X105138096Y-63009524D01*
X105042858Y-63104762D01*
X104900000Y-63152381D01*
X104661905Y-63152381D01*
X105614286Y-62247619D02*
X105661905Y-62200000D01*
X105757143Y-62152381D01*
X105995239Y-62152381D01*
X106090477Y-62200000D01*
X106138096Y-62247619D01*
X106185715Y-62342857D01*
X106185715Y-62438095D01*
X106138096Y-62580952D01*
X105566667Y-63152381D01*
X106185715Y-63152381D01*
X102161905Y-63152381D02*
X102161905Y-62152381D01*
X102400000Y-62152381D01*
X102542858Y-62200000D01*
X102638096Y-62295238D01*
X102685715Y-62390476D01*
X102733334Y-62580952D01*
X102733334Y-62723810D01*
X102685715Y-62914286D01*
X102638096Y-63009524D01*
X102542858Y-63104762D01*
X102400000Y-63152381D01*
X102161905Y-63152381D01*
X103685715Y-63152381D02*
X103114286Y-63152381D01*
X103400000Y-63152381D02*
X103400000Y-62152381D01*
X103304762Y-62295238D01*
X103209524Y-62390476D01*
X103114286Y-62438095D01*
X99661905Y-63152381D02*
X99661905Y-62152381D01*
X99900000Y-62152381D01*
X100042858Y-62200000D01*
X100138096Y-62295238D01*
X100185715Y-62390476D01*
X100233334Y-62580952D01*
X100233334Y-62723810D01*
X100185715Y-62914286D01*
X100138096Y-63009524D01*
X100042858Y-63104762D01*
X99900000Y-63152381D01*
X99661905Y-63152381D01*
X100852381Y-62152381D02*
X100947620Y-62152381D01*
X101042858Y-62200000D01*
X101090477Y-62247619D01*
X101138096Y-62342857D01*
X101185715Y-62533333D01*
X101185715Y-62771429D01*
X101138096Y-62961905D01*
X101090477Y-63057143D01*
X101042858Y-63104762D01*
X100947620Y-63152381D01*
X100852381Y-63152381D01*
X100757143Y-63104762D01*
X100709524Y-63057143D01*
X100661905Y-62961905D01*
X100614286Y-62771429D01*
X100614286Y-62533333D01*
X100661905Y-62342857D01*
X100709524Y-62247619D01*
X100757143Y-62200000D01*
X100852381Y-62152381D01*
X60600000Y-94727381D02*
X60600000Y-93727381D01*
X60838095Y-93727381D01*
X60980953Y-93775000D01*
X61076191Y-93870238D01*
X61123810Y-93965476D01*
X61171429Y-94155952D01*
X61171429Y-94298810D01*
X61123810Y-94489286D01*
X61076191Y-94584524D01*
X60980953Y-94679762D01*
X60838095Y-94727381D01*
X60600000Y-94727381D01*
X61552381Y-94441667D02*
X62028572Y-94441667D01*
X61457143Y-94727381D02*
X61790476Y-93727381D01*
X62123810Y-94727381D01*
X62314286Y-93727381D02*
X62885715Y-93727381D01*
X62600000Y-94727381D02*
X62600000Y-93727381D01*
X63171429Y-94441667D02*
X63647620Y-94441667D01*
X63076191Y-94727381D02*
X63409524Y-93727381D01*
X63742858Y-94727381D01*
X59861905Y-95996429D02*
X60623810Y-95996429D01*
X61100000Y-95996429D02*
X61861905Y-95996429D01*
X62338095Y-95996429D02*
X63100000Y-95996429D01*
X63576190Y-95710714D02*
X64338095Y-95996429D01*
X63576190Y-96282143D01*
X52290476Y-94727381D02*
X52290476Y-93727381D01*
X52671429Y-93727381D01*
X52766667Y-93775000D01*
X52814286Y-93822619D01*
X52861905Y-93917857D01*
X52861905Y-94060714D01*
X52814286Y-94155952D01*
X52766667Y-94203571D01*
X52671429Y-94251190D01*
X52290476Y-94251190D01*
X53480952Y-93727381D02*
X53671429Y-93727381D01*
X53766667Y-93775000D01*
X53861905Y-93870238D01*
X53909524Y-94060714D01*
X53909524Y-94394048D01*
X53861905Y-94584524D01*
X53766667Y-94679762D01*
X53671429Y-94727381D01*
X53480952Y-94727381D01*
X53385714Y-94679762D01*
X53290476Y-94584524D01*
X53242857Y-94394048D01*
X53242857Y-94060714D01*
X53290476Y-93870238D01*
X53385714Y-93775000D01*
X53480952Y-93727381D01*
X54242857Y-93727381D02*
X54480952Y-94727381D01*
X54671429Y-94013095D01*
X54861905Y-94727381D01*
X55100000Y-93727381D01*
X55480952Y-94203571D02*
X55814286Y-94203571D01*
X55957143Y-94727381D02*
X55480952Y-94727381D01*
X55480952Y-93727381D01*
X55957143Y-93727381D01*
X56957143Y-94727381D02*
X56623809Y-94251190D01*
X56385714Y-94727381D02*
X56385714Y-93727381D01*
X56766667Y-93727381D01*
X56861905Y-93775000D01*
X56909524Y-93822619D01*
X56957143Y-93917857D01*
X56957143Y-94060714D01*
X56909524Y-94155952D01*
X56861905Y-94203571D01*
X56766667Y-94251190D01*
X56385714Y-94251190D01*
X53123810Y-95710714D02*
X52361905Y-95996429D01*
X53123810Y-96282143D01*
X53600000Y-95996429D02*
X54361905Y-95996429D01*
X54838095Y-95996429D02*
X55600000Y-95996429D01*
X56076190Y-95996429D02*
X56838095Y-95996429D01*
X51099999Y-118552381D02*
X51099999Y-119361905D01*
X51147618Y-119457143D01*
X51195237Y-119504762D01*
X51290475Y-119552381D01*
X51480952Y-119552381D01*
X51576190Y-119504762D01*
X51623809Y-119457143D01*
X51671428Y-119361905D01*
X51671428Y-118552381D01*
X52099999Y-119504762D02*
X52242856Y-119552381D01*
X52480952Y-119552381D01*
X52576190Y-119504762D01*
X52623809Y-119457143D01*
X52671428Y-119361905D01*
X52671428Y-119266667D01*
X52623809Y-119171429D01*
X52576190Y-119123810D01*
X52480952Y-119076190D01*
X52290475Y-119028571D01*
X52195237Y-118980952D01*
X52147618Y-118933333D01*
X52099999Y-118838095D01*
X52099999Y-118742857D01*
X52147618Y-118647619D01*
X52195237Y-118600000D01*
X52290475Y-118552381D01*
X52528571Y-118552381D01*
X52671428Y-118600000D01*
X53433333Y-119028571D02*
X53576190Y-119076190D01*
X53623809Y-119123810D01*
X53671428Y-119219048D01*
X53671428Y-119361905D01*
X53623809Y-119457143D01*
X53576190Y-119504762D01*
X53480952Y-119552381D01*
X53099999Y-119552381D01*
X53099999Y-118552381D01*
X53433333Y-118552381D01*
X53528571Y-118600000D01*
X53576190Y-118647619D01*
X53623809Y-118742857D01*
X53623809Y-118838095D01*
X53576190Y-118933333D01*
X53528571Y-118980952D01*
X53433333Y-119028571D01*
X53099999Y-119028571D01*
X54528571Y-119504762D02*
X54433333Y-119552381D01*
X54242856Y-119552381D01*
X54147618Y-119504762D01*
X54099999Y-119457143D01*
X54052380Y-119361905D01*
X54052380Y-119076190D01*
X54099999Y-118980952D01*
X54147618Y-118933333D01*
X54242856Y-118885714D01*
X54433333Y-118885714D01*
X54528571Y-118933333D01*
X55385714Y-119552381D02*
X55385714Y-119028571D01*
X55338095Y-118933333D01*
X55242857Y-118885714D01*
X55052380Y-118885714D01*
X54957142Y-118933333D01*
X55385714Y-119504762D02*
X55290476Y-119552381D01*
X55052380Y-119552381D01*
X54957142Y-119504762D01*
X54909523Y-119409524D01*
X54909523Y-119314286D01*
X54957142Y-119219048D01*
X55052380Y-119171429D01*
X55290476Y-119171429D01*
X55385714Y-119123810D01*
X55861904Y-119552381D02*
X55861904Y-118552381D01*
X55861904Y-118933333D02*
X55957142Y-118885714D01*
X56147619Y-118885714D01*
X56242857Y-118933333D01*
X56290476Y-118980952D01*
X56338095Y-119076190D01*
X56338095Y-119361905D01*
X56290476Y-119457143D01*
X56242857Y-119504762D01*
X56147619Y-119552381D01*
X55957142Y-119552381D01*
X55861904Y-119504762D01*
X56909523Y-119552381D02*
X56814285Y-119504762D01*
X56766666Y-119409524D01*
X56766666Y-118552381D01*
X57671429Y-119504762D02*
X57576191Y-119552381D01*
X57385714Y-119552381D01*
X57290476Y-119504762D01*
X57242857Y-119409524D01*
X57242857Y-119028571D01*
X57290476Y-118933333D01*
X57385714Y-118885714D01*
X57576191Y-118885714D01*
X57671429Y-118933333D01*
X57719048Y-119028571D01*
X57719048Y-119123810D01*
X57242857Y-119219048D01*
X58576191Y-119504762D02*
X58480953Y-119552381D01*
X58290476Y-119552381D01*
X58195238Y-119504762D01*
X58147619Y-119457143D01*
X58100000Y-119361905D01*
X58100000Y-119076190D01*
X58147619Y-118980952D01*
X58195238Y-118933333D01*
X58290476Y-118885714D01*
X58480953Y-118885714D01*
X58576191Y-118933333D01*
X59004762Y-119552381D02*
X59004762Y-118885714D01*
X59004762Y-119076190D02*
X59052381Y-118980952D01*
X59100000Y-118933333D01*
X59195238Y-118885714D01*
X59290477Y-118885714D01*
X60052382Y-119552381D02*
X60052382Y-119028571D01*
X60004763Y-118933333D01*
X59909525Y-118885714D01*
X59719048Y-118885714D01*
X59623810Y-118933333D01*
X60052382Y-119504762D02*
X59957144Y-119552381D01*
X59719048Y-119552381D01*
X59623810Y-119504762D01*
X59576191Y-119409524D01*
X59576191Y-119314286D01*
X59623810Y-119219048D01*
X59719048Y-119171429D01*
X59957144Y-119171429D01*
X60052382Y-119123810D01*
X60957144Y-119504762D02*
X60861906Y-119552381D01*
X60671429Y-119552381D01*
X60576191Y-119504762D01*
X60528572Y-119457143D01*
X60480953Y-119361905D01*
X60480953Y-119076190D01*
X60528572Y-118980952D01*
X60576191Y-118933333D01*
X60671429Y-118885714D01*
X60861906Y-118885714D01*
X60957144Y-118933333D01*
X61385715Y-119552381D02*
X61385715Y-118552381D01*
X61480953Y-119171429D02*
X61766668Y-119552381D01*
X61766668Y-118885714D02*
X61385715Y-119266667D01*
X62576192Y-119504762D02*
X62480954Y-119552381D01*
X62290477Y-119552381D01*
X62195239Y-119504762D01*
X62147620Y-119409524D01*
X62147620Y-119028571D01*
X62195239Y-118933333D01*
X62290477Y-118885714D01*
X62480954Y-118885714D01*
X62576192Y-118933333D01*
X62623811Y-119028571D01*
X62623811Y-119123810D01*
X62147620Y-119219048D01*
X63052382Y-119552381D02*
X63052382Y-118885714D01*
X63052382Y-119076190D02*
X63100001Y-118980952D01*
X63147620Y-118933333D01*
X63242858Y-118885714D01*
X63338097Y-118885714D01*
X64338097Y-118885714D02*
X64576192Y-119552381D01*
X64814288Y-118885714D01*
X65385716Y-118552381D02*
X65480955Y-118552381D01*
X65576193Y-118600000D01*
X65623812Y-118647619D01*
X65671431Y-118742857D01*
X65719050Y-118933333D01*
X65719050Y-119171429D01*
X65671431Y-119361905D01*
X65623812Y-119457143D01*
X65576193Y-119504762D01*
X65480955Y-119552381D01*
X65385716Y-119552381D01*
X65290478Y-119504762D01*
X65242859Y-119457143D01*
X65195240Y-119361905D01*
X65147621Y-119171429D01*
X65147621Y-118933333D01*
X65195240Y-118742857D01*
X65242859Y-118647619D01*
X65290478Y-118600000D01*
X65385716Y-118552381D01*
X66147621Y-119457143D02*
X66195240Y-119504762D01*
X66147621Y-119552381D01*
X66100002Y-119504762D01*
X66147621Y-119457143D01*
X66147621Y-119552381D01*
X66528573Y-118552381D02*
X67147621Y-118552381D01*
X66814287Y-118933333D01*
X66957145Y-118933333D01*
X67052383Y-118980952D01*
X67100002Y-119028571D01*
X67147621Y-119123810D01*
X67147621Y-119361905D01*
X67100002Y-119457143D01*
X67052383Y-119504762D01*
X66957145Y-119552381D01*
X66671430Y-119552381D01*
X66576192Y-119504762D01*
X66528573Y-119457143D01*
X145609524Y-62152381D02*
X145133333Y-62152381D01*
X145085714Y-62628571D01*
X145133333Y-62580952D01*
X145228571Y-62533333D01*
X145466667Y-62533333D01*
X145561905Y-62580952D01*
X145609524Y-62628571D01*
X145657143Y-62723810D01*
X145657143Y-62961905D01*
X145609524Y-63057143D01*
X145561905Y-63104762D01*
X145466667Y-63152381D01*
X145228571Y-63152381D01*
X145133333Y-63104762D01*
X145085714Y-63057143D01*
X145942857Y-62152381D02*
X146276190Y-63152381D01*
X146609524Y-62152381D01*
X143461905Y-62200000D02*
X143366667Y-62152381D01*
X143223810Y-62152381D01*
X143080952Y-62200000D01*
X142985714Y-62295238D01*
X142938095Y-62390476D01*
X142890476Y-62580952D01*
X142890476Y-62723810D01*
X142938095Y-62914286D01*
X142985714Y-63009524D01*
X143080952Y-63104762D01*
X143223810Y-63152381D01*
X143319048Y-63152381D01*
X143461905Y-63104762D01*
X143509524Y-63057143D01*
X143509524Y-62723810D01*
X143319048Y-62723810D01*
X140080953Y-63152381D02*
X139747619Y-62676190D01*
X139509524Y-63152381D02*
X139509524Y-62152381D01*
X139890477Y-62152381D01*
X139985715Y-62200000D01*
X140033334Y-62247619D01*
X140080953Y-62342857D01*
X140080953Y-62485714D01*
X140033334Y-62580952D01*
X139985715Y-62628571D01*
X139890477Y-62676190D01*
X139509524Y-62676190D01*
X140509524Y-62628571D02*
X140842858Y-62628571D01*
X140985715Y-63152381D02*
X140509524Y-63152381D01*
X140509524Y-62152381D01*
X140985715Y-62152381D01*
X141366667Y-63104762D02*
X141509524Y-63152381D01*
X141747620Y-63152381D01*
X141842858Y-63104762D01*
X141890477Y-63057143D01*
X141938096Y-62961905D01*
X141938096Y-62866667D01*
X141890477Y-62771429D01*
X141842858Y-62723810D01*
X141747620Y-62676190D01*
X141557143Y-62628571D01*
X141461905Y-62580952D01*
X141414286Y-62533333D01*
X141366667Y-62438095D01*
X141366667Y-62342857D01*
X141414286Y-62247619D01*
X141461905Y-62200000D01*
X141557143Y-62152381D01*
X141795239Y-62152381D01*
X141938096Y-62200000D01*
X137485714Y-62866667D02*
X137961905Y-62866667D01*
X137390476Y-63152381D02*
X137723809Y-62152381D01*
X138057143Y-63152381D01*
X138866667Y-62152381D02*
X138390476Y-62152381D01*
X138342857Y-62628571D01*
X138390476Y-62580952D01*
X138485714Y-62533333D01*
X138723810Y-62533333D01*
X138819048Y-62580952D01*
X138866667Y-62628571D01*
X138914286Y-62723810D01*
X138914286Y-62961905D01*
X138866667Y-63057143D01*
X138819048Y-63104762D01*
X138723810Y-63152381D01*
X138485714Y-63152381D01*
X138390476Y-63104762D01*
X138342857Y-63057143D01*
X134785714Y-62966667D02*
X135261905Y-62966667D01*
X134690476Y-63252381D02*
X135023809Y-62252381D01*
X135357143Y-63252381D01*
X136119048Y-62585714D02*
X136119048Y-63252381D01*
X135880952Y-62204762D02*
X135642857Y-62919048D01*
X136261905Y-62919048D01*
X132385714Y-62866667D02*
X132861905Y-62866667D01*
X132290476Y-63152381D02*
X132623809Y-62152381D01*
X132957143Y-63152381D01*
X133195238Y-62152381D02*
X133814286Y-62152381D01*
X133480952Y-62533333D01*
X133623810Y-62533333D01*
X133719048Y-62580952D01*
X133766667Y-62628571D01*
X133814286Y-62723810D01*
X133814286Y-62961905D01*
X133766667Y-63057143D01*
X133719048Y-63104762D01*
X133623810Y-63152381D01*
X133338095Y-63152381D01*
X133242857Y-63104762D01*
X133195238Y-63057143D01*
X129785714Y-62866667D02*
X130261905Y-62866667D01*
X129690476Y-63152381D02*
X130023809Y-62152381D01*
X130357143Y-63152381D01*
X130642857Y-62247619D02*
X130690476Y-62200000D01*
X130785714Y-62152381D01*
X131023810Y-62152381D01*
X131119048Y-62200000D01*
X131166667Y-62247619D01*
X131214286Y-62342857D01*
X131214286Y-62438095D01*
X131166667Y-62580952D01*
X130595238Y-63152381D01*
X131214286Y-63152381D01*
X127285714Y-62866667D02*
X127761905Y-62866667D01*
X127190476Y-63152381D02*
X127523809Y-62152381D01*
X127857143Y-63152381D01*
X128714286Y-63152381D02*
X128142857Y-63152381D01*
X128428571Y-63152381D02*
X128428571Y-62152381D01*
X128333333Y-62295238D01*
X128238095Y-62390476D01*
X128142857Y-62438095D01*
X124585714Y-62866667D02*
X125061905Y-62866667D01*
X124490476Y-63152381D02*
X124823809Y-62152381D01*
X125157143Y-63152381D01*
X125680952Y-62152381D02*
X125776191Y-62152381D01*
X125871429Y-62200000D01*
X125919048Y-62247619D01*
X125966667Y-62342857D01*
X126014286Y-62533333D01*
X126014286Y-62771429D01*
X125966667Y-62961905D01*
X125919048Y-63057143D01*
X125871429Y-63104762D01*
X125776191Y-63152381D01*
X125680952Y-63152381D01*
X125585714Y-63104762D01*
X125538095Y-63057143D01*
X125490476Y-62961905D01*
X125442857Y-62771429D01*
X125442857Y-62533333D01*
X125490476Y-62342857D01*
X125538095Y-62247619D01*
X125585714Y-62200000D01*
X125680952Y-62152381D01*
X75200660Y-78001000D02*
X138700660Y-78001000D01*
X74700280Y-92499320D02*
X74700280Y-78498840D01*
X138700660Y-92999700D02*
X75200660Y-92999700D01*
X139201040Y-78498840D02*
X139201040Y-92499320D01*
X139198500Y-78498840D02*
G75*
G03X138700660Y-78001000I-497840J0D01*
G01*
X138700660Y-92999700D02*
G75*
G03X139201040Y-92499320I0J500380D01*
G01*
X74700280Y-92499320D02*
G75*
G03X75200660Y-92999700I500380J0D01*
G01*
X75200660Y-77998460D02*
G75*
G03X74700280Y-78498840I0J-500380D01*
G01*
X70400060Y-72900680D02*
X143600320Y-72900680D01*
X143600320Y-72900680D02*
X143600320Y-98300680D01*
X143600320Y-98300680D02*
X70400060Y-98300680D01*
X70400060Y-98300680D02*
X70400060Y-72900680D01*
X146998840Y-70000000D02*
G75*
G03X146998840Y-70000000I-2499360J0D01*
G01*
X146998840Y-101000700D02*
G75*
G03X146998840Y-101000700I-2499360J0D01*
G01*
X72002800Y-101000700D02*
G75*
G03X72002800Y-101000700I-2501900J0D01*
G01*
X72000260Y-70000000D02*
G75*
G03X72000260Y-70000000I-2499360J0D01*
G01*
X66999000Y-67500640D02*
X146998840Y-67500640D01*
X146998840Y-67500640D02*
X146998840Y-103500060D01*
X146998840Y-103500060D02*
X66999000Y-103500060D01*
X66999000Y-103500060D02*
X66999000Y-67500640D01*
X63245120Y-114649860D02*
X49148120Y-114649860D01*
X49148120Y-99663860D02*
X63245120Y-99663860D01*
X63245120Y-114649860D02*
X63245120Y-99663860D01*
X49148120Y-114649860D02*
X49148120Y-99663860D01*
X108949360Y-121099180D02*
X116650640Y-121099180D01*
X108949360Y-122099940D02*
X116650640Y-122099940D01*
X116650640Y-122099940D02*
X116650640Y-112900060D01*
X116650640Y-112900060D02*
X108949360Y-112900060D01*
X108949360Y-112900060D02*
X108949360Y-122099940D01*
X85849860Y-107854880D02*
X85849860Y-121951880D01*
X70863860Y-121951880D02*
X70863860Y-107854880D01*
X85849860Y-107854880D02*
X70863860Y-107854880D01*
X85849860Y-121951880D02*
X70863860Y-121951880D01*
X90634000Y-113350000D02*
X90634000Y-121986000D01*
X90634000Y-104968000D02*
X90634000Y-110048000D01*
X102826000Y-113350000D02*
X102826000Y-121986000D01*
X102826000Y-104968000D02*
X102826000Y-110048000D01*
X102826000Y-121986000D02*
X90634000Y-121986000D01*
X90634000Y-104968000D02*
X102826000Y-104968000D01*
X62600000Y-93000000D02*
X64700000Y-93000000D01*
X64700000Y-93000000D02*
X64700000Y-81400000D01*
X64700000Y-81400000D02*
X52100000Y-81400000D01*
X52100000Y-81400000D02*
X52100000Y-93000000D01*
X52100000Y-93000000D02*
X62600000Y-93000000D01*
X139080000Y-113490000D02*
X147480000Y-113490000D01*
X147480000Y-113490000D02*
X147480000Y-114640000D01*
X147480000Y-114640000D02*
X147480000Y-114670000D01*
X139080000Y-113490000D02*
X137680000Y-113490000D01*
X137680000Y-113490000D02*
X137680000Y-114690000D01*
X137680000Y-114700000D02*
X137680000Y-121210000D01*
X137680000Y-121210000D02*
X138260000Y-121210000D01*
X147480000Y-114660000D02*
X147480000Y-121210000D01*
X147480000Y-121210000D02*
X146930000Y-121210000D01*
X138260000Y-121210000D02*
X146920000Y-121210000D01*
X61300000Y-72200000D02*
X56300000Y-72200000D01*
X56300000Y-72200000D02*
X56200000Y-72200000D01*
X56200000Y-72200000D02*
X56200000Y-77300000D01*
X56200000Y-77300000D02*
X56800000Y-77300000D01*
X61300000Y-74800000D02*
X63800000Y-74800000D01*
X61300000Y-74800000D02*
X61300000Y-72200000D01*
X61300000Y-72200000D02*
X63800000Y-72200000D01*
X63800000Y-72200000D02*
X63800000Y-77300000D01*
X63800000Y-77300000D02*
X56900000Y-77300000D01*
X62650900Y-60382540D02*
X53950900Y-60382540D01*
X62650900Y-66787540D02*
X53950900Y-66787540D01*
X53950900Y-66787540D02*
X53950900Y-60382540D01*
X53950900Y-61612540D02*
X62650900Y-61612540D01*
X62650900Y-60382540D02*
X62650900Y-66787540D01*
D13*
X99100000Y-65800000D02*
X121900000Y-65800000D01*
X121900000Y-63400000D02*
X99100000Y-63400000D01*
X121900000Y-65800000D02*
X121900000Y-63400000D01*
X119300000Y-65800000D02*
X119300000Y-63400000D01*
X99100000Y-63400000D02*
X99100000Y-65800000D01*
X124100000Y-65900000D02*
X146900000Y-65900000D01*
X146900000Y-63500000D02*
X124100000Y-63500000D01*
X146900000Y-65900000D02*
X146900000Y-63500000D01*
X144300000Y-65900000D02*
X144300000Y-63500000D01*
X124100000Y-63500000D02*
X124100000Y-65900000D01*
X53100000Y-74700000D02*
X50700000Y-74700000D01*
X50700000Y-77300000D02*
X50700000Y-72100000D01*
X50700000Y-72100000D02*
X53100000Y-72100000D01*
X53100000Y-72100000D02*
X53100000Y-77300000D01*
X53100000Y-77300000D02*
X50700000Y-77300000D01*
D11*
X129850000Y-115400000D02*
X121150000Y-115400000D01*
X121150000Y-121800000D02*
X121150000Y-115400000D01*
X129850000Y-121800000D02*
X121150000Y-121800000D01*
X129850000Y-120600000D02*
X121150000Y-120600000D01*
X129850000Y-120600000D02*
X135450000Y-120600000D01*
X134150000Y-115400000D02*
X135450000Y-115400000D01*
X135450000Y-115400000D02*
X135450000Y-121800000D01*
X135450000Y-121800000D02*
X134150000Y-121800000D01*
X129850000Y-115400000D02*
X134150000Y-115400000D01*
X134150000Y-121800000D02*
X129850000Y-121800000D01*
X71035714Y-74452381D02*
X71035714Y-73452381D01*
X71273809Y-73452381D01*
X71416667Y-73500000D01*
X71511905Y-73595238D01*
X71559524Y-73690476D01*
X71607143Y-73880952D01*
X71607143Y-74023810D01*
X71559524Y-74214286D01*
X71511905Y-74309524D01*
X71416667Y-74404762D01*
X71273809Y-74452381D01*
X71035714Y-74452381D01*
X71988095Y-74404762D02*
X72130952Y-74452381D01*
X72369048Y-74452381D01*
X72464286Y-74404762D01*
X72511905Y-74357143D01*
X72559524Y-74261905D01*
X72559524Y-74166667D01*
X72511905Y-74071429D01*
X72464286Y-74023810D01*
X72369048Y-73976190D01*
X72178571Y-73928571D01*
X72083333Y-73880952D01*
X72035714Y-73833333D01*
X71988095Y-73738095D01*
X71988095Y-73642857D01*
X72035714Y-73547619D01*
X72083333Y-73500000D01*
X72178571Y-73452381D01*
X72416667Y-73452381D01*
X72559524Y-73500000D01*
X73511905Y-74452381D02*
X72940476Y-74452381D01*
X73226190Y-74452381D02*
X73226190Y-73452381D01*
X73130952Y-73595238D01*
X73035714Y-73690476D01*
X72940476Y-73738095D01*
X58552381Y-107438095D02*
X57552381Y-107438095D01*
X57552381Y-107057142D01*
X57600000Y-106961904D01*
X57647619Y-106914285D01*
X57742857Y-106866666D01*
X57885714Y-106866666D01*
X57980952Y-106914285D01*
X58028571Y-106961904D01*
X58076190Y-107057142D01*
X58076190Y-107438095D01*
X58552381Y-105914285D02*
X58552381Y-106485714D01*
X58552381Y-106200000D02*
X57552381Y-106200000D01*
X57695238Y-106295238D01*
X57790476Y-106390476D01*
X57838095Y-106485714D01*
X113652381Y-120038095D02*
X112652381Y-120038095D01*
X112652381Y-119657142D01*
X112700000Y-119561904D01*
X112747619Y-119514285D01*
X112842857Y-119466666D01*
X112985714Y-119466666D01*
X113080952Y-119514285D01*
X113128571Y-119561904D01*
X113176190Y-119657142D01*
X113176190Y-120038095D01*
X112652381Y-119133333D02*
X112652381Y-118466666D01*
X113652381Y-118895238D01*
X76785714Y-115152381D02*
X76785714Y-114152381D01*
X77166667Y-114152381D01*
X77261905Y-114200000D01*
X77309524Y-114247619D01*
X77357143Y-114342857D01*
X77357143Y-114485714D01*
X77309524Y-114580952D01*
X77261905Y-114628571D01*
X77166667Y-114676190D01*
X76785714Y-114676190D01*
X78309524Y-115152381D02*
X77738095Y-115152381D01*
X78023809Y-115152381D02*
X78023809Y-114152381D01*
X77928571Y-114295238D01*
X77833333Y-114390476D01*
X77738095Y-114438095D01*
X78928571Y-114152381D02*
X79023810Y-114152381D01*
X79119048Y-114200000D01*
X79166667Y-114247619D01*
X79214286Y-114342857D01*
X79261905Y-114533333D01*
X79261905Y-114771429D01*
X79214286Y-114961905D01*
X79166667Y-115057143D01*
X79119048Y-115104762D01*
X79023810Y-115152381D01*
X78928571Y-115152381D01*
X78833333Y-115104762D01*
X78785714Y-115057143D01*
X78738095Y-114961905D01*
X78690476Y-114771429D01*
X78690476Y-114533333D01*
X78738095Y-114342857D01*
X78785714Y-114247619D01*
X78833333Y-114200000D01*
X78928571Y-114152381D01*
X95515714Y-118501381D02*
X95515714Y-117501381D01*
X95896667Y-117501381D01*
X95991905Y-117549000D01*
X96039524Y-117596619D01*
X96087143Y-117691857D01*
X96087143Y-117834714D01*
X96039524Y-117929952D01*
X95991905Y-117977571D01*
X95896667Y-118025190D01*
X95515714Y-118025190D01*
X97039524Y-118501381D02*
X96468095Y-118501381D01*
X96753809Y-118501381D02*
X96753809Y-117501381D01*
X96658571Y-117644238D01*
X96563333Y-117739476D01*
X96468095Y-117787095D01*
X97991905Y-118501381D02*
X97420476Y-118501381D01*
X97706190Y-118501381D02*
X97706190Y-117501381D01*
X97610952Y-117644238D01*
X97515714Y-117739476D01*
X97420476Y-117787095D01*
X66304762Y-84933333D02*
X66352381Y-84790476D01*
X66352381Y-84552380D01*
X66304762Y-84457142D01*
X66257143Y-84409523D01*
X66161905Y-84361904D01*
X66066667Y-84361904D01*
X65971429Y-84409523D01*
X65923810Y-84457142D01*
X65876190Y-84552380D01*
X65828571Y-84742857D01*
X65780952Y-84838095D01*
X65733333Y-84885714D01*
X65638095Y-84933333D01*
X65542857Y-84933333D01*
X65447619Y-84885714D01*
X65400000Y-84838095D01*
X65352381Y-84742857D01*
X65352381Y-84504761D01*
X65400000Y-84361904D01*
X65352381Y-84028571D02*
X66352381Y-83790476D01*
X65638095Y-83599999D01*
X66352381Y-83409523D01*
X65352381Y-83171428D01*
X66352381Y-82266666D02*
X66352381Y-82838095D01*
X66352381Y-82552381D02*
X65352381Y-82552381D01*
X65495238Y-82647619D01*
X65590476Y-82742857D01*
X65638095Y-82838095D01*
X141761905Y-119652381D02*
X141761905Y-118652381D01*
X142142858Y-118652381D01*
X142238096Y-118700000D01*
X142285715Y-118747619D01*
X142333334Y-118842857D01*
X142333334Y-118985714D01*
X142285715Y-119080952D01*
X142238096Y-119128571D01*
X142142858Y-119176190D01*
X141761905Y-119176190D01*
X142809524Y-119652381D02*
X143000000Y-119652381D01*
X143095239Y-119604762D01*
X143142858Y-119557143D01*
X143238096Y-119414286D01*
X143285715Y-119223810D01*
X143285715Y-118842857D01*
X143238096Y-118747619D01*
X143190477Y-118700000D01*
X143095239Y-118652381D01*
X142904762Y-118652381D01*
X142809524Y-118700000D01*
X142761905Y-118747619D01*
X142714286Y-118842857D01*
X142714286Y-119080952D01*
X142761905Y-119176190D01*
X142809524Y-119223810D01*
X142904762Y-119271429D01*
X143095239Y-119271429D01*
X143190477Y-119223810D01*
X143238096Y-119176190D01*
X143285715Y-119080952D01*
X56561905Y-68007143D02*
X56514286Y-68054762D01*
X56371429Y-68102381D01*
X56276191Y-68102381D01*
X56133333Y-68054762D01*
X56038095Y-67959524D01*
X55990476Y-67864286D01*
X55942857Y-67673810D01*
X55942857Y-67530952D01*
X55990476Y-67340476D01*
X56038095Y-67245238D01*
X56133333Y-67150000D01*
X56276191Y-67102381D01*
X56371429Y-67102381D01*
X56514286Y-67150000D01*
X56561905Y-67197619D01*
X57180952Y-67102381D02*
X57371429Y-67102381D01*
X57466667Y-67150000D01*
X57561905Y-67245238D01*
X57609524Y-67435714D01*
X57609524Y-67769048D01*
X57561905Y-67959524D01*
X57466667Y-68054762D01*
X57371429Y-68102381D01*
X57180952Y-68102381D01*
X57085714Y-68054762D01*
X56990476Y-67959524D01*
X56942857Y-67769048D01*
X56942857Y-67435714D01*
X56990476Y-67245238D01*
X57085714Y-67150000D01*
X57180952Y-67102381D01*
X58038095Y-68102381D02*
X58038095Y-67102381D01*
X58609524Y-68102381D01*
X58609524Y-67102381D01*
X59085714Y-68102381D02*
X59085714Y-67102381D01*
X59657143Y-68102381D01*
X59657143Y-67102381D01*
X60085714Y-67197619D02*
X60133333Y-67150000D01*
X60228571Y-67102381D01*
X60466667Y-67102381D01*
X60561905Y-67150000D01*
X60609524Y-67197619D01*
X60657143Y-67292857D01*
X60657143Y-67388095D01*
X60609524Y-67530952D01*
X60038095Y-68102381D01*
X60657143Y-68102381D01*
X128061905Y-114952381D02*
X128061905Y-113952381D01*
X128442858Y-113952381D01*
X128538096Y-114000000D01*
X128585715Y-114047619D01*
X128633334Y-114142857D01*
X128633334Y-114285714D01*
X128585715Y-114380952D01*
X128538096Y-114428571D01*
X128442858Y-114476190D01*
X128061905Y-114476190D01*
X129204762Y-114380952D02*
X129109524Y-114333333D01*
X129061905Y-114285714D01*
X129014286Y-114190476D01*
X129014286Y-114142857D01*
X129061905Y-114047619D01*
X129109524Y-114000000D01*
X129204762Y-113952381D01*
X129395239Y-113952381D01*
X129490477Y-114000000D01*
X129538096Y-114047619D01*
X129585715Y-114142857D01*
X129585715Y-114190476D01*
X129538096Y-114285714D01*
X129490477Y-114333333D01*
X129395239Y-114380952D01*
X129204762Y-114380952D01*
X129109524Y-114428571D01*
X129061905Y-114476190D01*
X129014286Y-114571429D01*
X129014286Y-114761905D01*
X129061905Y-114857143D01*
X129109524Y-114904762D01*
X129204762Y-114952381D01*
X129395239Y-114952381D01*
X129490477Y-114904762D01*
X129538096Y-114857143D01*
X129585715Y-114761905D01*
X129585715Y-114571429D01*
X129538096Y-114476190D01*
X129490477Y-114428571D01*
X129395239Y-114380952D01*
M02*
